<svg width="158" height="142" viewBox="0 0 158 142" fill="none" xmlns="http://www.w3.org/2000/svg">
<g clip-path="url(#clip0_66_21531)">
<path d="M76.995 66.9934L132.354 98.9287C129.937 87.3801 122.803 76.9511 111.838 70.5876C109.243 69.1146 106.532 67.8772 103.82 66.9934H140.961C133.12 58.2142 121.683 52.6756 109.008 52.6756C106.001 52.6756 103.053 52.9702 100.282 53.5594L132.413 34.9992C121.211 31.3461 108.595 32.2299 97.5704 38.5934C94.9763 40.0665 92.6181 41.8341 90.4368 43.7785L109.008 11.6665C97.4524 14.0822 87.0174 21.2117 80.6502 32.171C79.1763 34.7635 77.9383 37.4739 77.0539 40.1843V3.06396C68.2696 10.9005 62.7278 22.3312 62.7278 34.9992C62.7278 38.0042 63.0226 40.9503 63.6122 43.7196C61.4308 41.7752 59.0726 40.0665 56.4786 38.5345C45.4539 32.171 32.8375 31.2872 21.636 34.9403L53.8256 53.6183C50.9957 53.0291 48.048 52.7345 45.1002 52.7345C32.4248 52.7345 20.9875 58.2731 13.1465 67.0524H50.2883C47.5174 67.9362 44.8644 69.1146 42.2704 70.6465C31.2457 77.01 24.1711 87.498 21.7539 98.9876L53.8845 80.4275C51.939 82.6075 50.2293 84.9644 48.6965 87.5569C42.3293 98.5752 41.445 111.184 45.1002 122.379L63.6711 90.2673C63.0816 93.0955 62.7868 96.0416 62.7868 98.9876C62.7868 111.656 68.3286 123.086 77.1129 130.923L76.995 66.9934Z" fill="#6ABF4B"/>
<path d="M141.551 66.4042C133.533 57.4482 121.86 51.7918 108.949 51.7918C107.534 51.7918 106.119 51.8507 104.704 52.0275L132.767 35.8242C133.062 35.6474 133.239 35.2939 133.18 34.9403C133.121 34.5868 132.885 34.2922 132.59 34.1744C128.168 32.7603 123.57 31.9943 118.853 31.9943C111.425 31.9943 103.879 33.8798 97.0401 37.8275C95.802 38.5345 94.6229 39.3005 93.5027 40.1254L109.715 12.0789C109.892 11.7843 109.892 11.3719 109.656 11.1362C109.421 10.8416 109.126 10.7237 108.772 10.7827C97.04 13.2574 86.3102 20.5047 79.8251 31.6997C79.1177 32.937 78.4692 34.1744 77.8796 35.4706V3.06399C77.8796 2.71047 77.6438 2.41586 77.349 2.2391C77.0542 2.12125 76.6415 2.18018 76.4057 2.41586C67.4445 10.4291 61.7848 22.0366 61.7848 34.9993C61.7848 37.1793 61.9617 39.3594 62.2565 41.4806C60.6057 40.1254 58.7781 38.947 56.8915 37.8275C49.9938 33.8798 42.5065 31.9943 35.0781 31.9943C30.4206 31.9943 25.7632 32.7603 21.3415 34.1744C20.9878 34.2922 20.752 34.5868 20.752 34.9403C20.693 35.2939 20.8699 35.6474 21.1647 35.8242L49.2274 52.0275C47.8124 51.9096 46.3975 51.7918 44.9826 51.7918C32.0124 51.7918 20.3983 57.4482 12.3804 66.4042C12.1445 66.6399 12.0856 67.0524 12.2035 67.347C12.3214 67.6416 12.6751 67.8773 13.0289 67.8773H45.4542C44.1572 68.4665 42.9192 69.1146 41.6811 69.8217C30.4796 76.303 23.1692 87.0267 20.752 98.752C20.693 99.1055 20.8109 99.459 21.1057 99.6358C21.4005 99.8126 21.7542 99.8715 22.049 99.6947L50.1117 83.4914C49.2863 84.6109 48.5199 85.8482 47.8124 87.0856C43.8035 93.9794 41.9759 101.462 41.9759 108.886C41.9759 113.541 42.7423 118.196 44.1572 122.615C44.2751 122.969 44.5699 123.204 44.9236 123.204C45.2774 123.204 45.6311 123.086 45.749 122.792L61.9617 94.7453C61.8438 96.1594 61.7848 97.5735 61.7848 98.9877C61.7848 111.95 67.4445 123.558 76.4057 131.571C76.6415 131.807 77.0542 131.866 77.349 131.748C77.6438 131.63 77.8796 131.276 77.8796 130.923V75.9495C96.1557 110.301 105.765 148.599 105.765 187.605V369.671H112.84V187.605C112.84 147.244 102.818 107.531 83.7751 72.0018L131.883 99.7536C132.177 99.9304 132.531 99.9304 132.826 99.6947C133.121 99.459 133.239 99.1055 133.18 98.8109C130.703 87.0267 123.452 76.3619 112.25 69.8806C111.012 69.1735 109.774 68.5254 108.477 67.9362H140.903C141.256 67.9362 141.551 67.7594 141.728 67.4059C141.846 67.0524 141.787 66.6399 141.551 66.4042ZM97.9833 39.4184C104.586 35.5885 111.838 33.8208 118.912 33.8208C122.745 33.8208 126.518 34.3511 130.114 35.3528L99.8699 52.7935L93.09 56.7412L83.3035 62.3976L79.4714 64.6366L80.9453 62.0441L91.1445 44.4267C93.208 42.4823 95.4483 40.8325 97.9833 39.4184ZM81.358 32.6424C87.1945 22.508 96.6274 15.732 107.18 13.0217L89.7296 43.2482L85.7796 50.0831L80.1199 59.864L77.8796 63.6939V60.6889V40.3022C78.7639 37.7096 79.943 35.1171 81.358 32.6424ZM75.2856 63.9296C74.9908 63.635 74.6371 63.2814 74.3423 63.0457C70.1565 58.391 66.9729 52.7345 65.2632 46.5478C64.9684 45.4872 64.7326 44.4267 64.4968 43.3661C63.9662 40.7146 63.6714 37.9453 63.6714 35.1171C63.6714 23.3918 68.4468 12.8449 76.2289 5.24408V40.1254V47.9619V59.3337V60.7478V64.8134C75.8751 64.5188 75.5214 64.1652 75.2856 63.9296ZM23.8766 35.2939C27.5318 34.2922 31.305 33.7619 35.0781 33.7619C42.2117 33.7619 49.4042 35.5885 56.0072 39.3594C58.4833 40.7735 60.7236 42.3644 62.7281 44.191C63.8483 49.4939 65.9706 54.4433 68.8005 58.8034C69.7438 60.2764 70.805 61.6906 71.9251 62.9868L70.6281 62.2208L60.8415 56.5644L54.0027 52.6167L23.8766 35.2939ZM15.1512 66.1096C22.7565 58.391 33.3684 53.5594 45.0415 53.5594C47.9304 53.5594 50.7602 53.854 53.4721 54.3843L71.0998 64.5777L73.6938 66.0507H69.2132H57.9527H50.0527H15.1512V66.1096ZM22.9923 97.1611C25.7042 86.6731 32.4841 77.1868 42.6244 71.3536C45.1005 69.8806 47.6945 68.7611 50.3475 67.8773H70.746C64.143 70.293 58.1296 74.2997 53.2953 79.7204L22.9923 97.1611ZM45.3363 120.081C44.3341 116.428 43.8035 112.657 43.8035 108.886C43.8035 101.757 45.6311 94.5686 49.4632 87.9694C50.8781 85.4947 52.5289 83.1968 54.4154 81.1345C56.1841 79.1901 58.0707 77.3636 60.0751 75.8316C63.0818 73.4748 66.3833 71.5893 69.8617 70.1752C71.2177 69.6449 72.6326 69.1146 74.0475 68.7022C73.3401 69.4092 72.6915 70.1752 72.043 70.9412C67.5624 76.303 64.3199 82.7843 62.7871 89.9138L45.3363 120.081ZM76.111 128.802C68.3878 121.201 63.5535 110.595 63.5535 98.9287C63.5535 96.0416 63.8483 93.2134 64.3789 90.503C64.9095 87.9105 65.6759 85.4358 66.6192 83.0789C68.0341 79.5437 69.9796 76.2441 72.2789 73.298C73.0453 72.2964 73.9296 71.2947 74.755 70.352C74.9908 70.7055 75.1677 71.059 75.3445 71.4125C75.5804 71.825 75.8162 72.1785 75.993 72.591V128.802H76.111ZM111.366 71.3536C121.506 77.1868 128.286 86.6731 130.998 97.1611L82.1833 68.9379C82.0065 68.5843 81.7706 68.2308 81.5938 67.8773C81.4169 67.5237 81.1811 67.1702 81.0042 66.8167C82.2423 66.5221 83.5393 66.2864 84.7774 66.1096C86.6639 65.874 88.5505 65.7561 90.4371 65.7561C92.3236 65.7561 94.2102 65.874 96.0968 66.1096C98.6318 66.4632 101.226 67.0524 103.702 67.8773C106.296 68.7611 108.89 69.8806 111.366 71.3536ZM103.997 66.1096C99.5751 64.6366 94.9766 63.9885 90.4371 63.9885C87.902 63.9885 85.3669 64.2242 82.8908 64.6366L100.518 54.4433C103.23 53.854 106.06 53.6184 108.949 53.6184C120.681 53.6184 131.234 58.391 138.839 66.1686H103.997V66.1096Z" fill="#5C3327"/>
</g>
<defs>
<clipPath id="clip0_66_21531">
<rect width="158" height="142" fill="white"/>
</clipPath>
</defs>
</svg>
