<svg width="458" height="108" viewBox="0 0 458 108" fill="none" xmlns="http://www.w3.org/2000/svg">
<path d="M421.018 35.1783C402.816 31.5667 389.071 23.7806 390.244 17.7299C391.416 11.6792 407.132 9.66233 425.333 13.274C445.459 17.2608 456.107 30.7224 456.107 30.7224C456.107 30.7224 441.143 39.1183 421.018 35.1783Z" fill="#F1C650"/>
<path d="M456.67 30.2535C456.623 30.2066 453.949 26.7825 448.695 22.8895C443.44 18.9495 435.653 14.5405 425.473 12.5236C419.328 11.3041 413.417 10.7412 408.304 10.7412C404.504 10.7412 401.079 11.0695 398.218 11.6793C395.356 12.2891 393.104 13.2271 391.556 14.4936C390.524 15.3378 389.821 16.3697 389.586 17.5893C389.539 17.8707 389.492 18.199 389.492 18.4804C389.492 19.3716 389.727 20.2159 390.196 21.1071C390.618 21.9514 391.275 22.7956 392.072 23.6399C393.667 25.2816 395.966 26.9232 398.734 28.4242C404.363 31.473 412.104 34.1934 420.876 35.9289C424.77 36.6794 428.429 37.0077 431.853 37.0077C446.443 37.0077 456.341 31.4261 456.435 31.3792L457.139 30.957L456.67 30.2535ZM449.164 32.7863C444.942 34.1465 438.984 35.5068 431.853 35.5068C428.523 35.5068 424.91 35.2253 421.111 34.4749C415.434 33.3491 410.18 31.8013 405.724 30.0658C401.267 28.2835 397.561 26.3135 394.981 24.2966C393.245 22.9833 392.025 21.623 391.416 20.4035C391.04 19.7 390.9 19.0433 390.9 18.4335C390.9 18.2459 390.9 18.0114 390.946 17.8238C391.087 17.0264 391.603 16.2759 392.448 15.5724C393.292 14.8688 394.512 14.259 396.013 13.7431C399.062 12.7112 403.284 12.1483 408.304 12.1483C413.37 12.1483 419.14 12.7112 425.239 13.9307C434.996 15.8538 442.549 20.0752 447.616 23.8275C451.462 26.6887 453.949 29.3154 454.981 30.488C454.746 30.6287 454.418 30.7694 454.042 30.9101C452.917 31.4261 451.275 32.1296 449.164 32.7863Z" fill="#54362C"/>
<path d="M431.948 25.563C431.385 25.563 431.104 26.0789 427.538 30.2534C426.459 29.8313 423.738 29.7844 422.941 29.7844C422.847 29.7844 422.8 29.7844 422.706 29.7844C420.783 29.972 418.484 33.7244 418.484 33.7244L423.551 35.5536C423.645 35.3191 423.738 35.0846 423.832 34.8501C430.963 35.5067 433.402 29.2215 433.402 28.518C433.308 26.9701 432.276 25.563 431.948 25.563Z" fill="#CA8453"/>
<path d="M403.94 30.5347C403.94 30.5347 397.7 25.8442 397.982 22.7016C398.216 19.559 399.952 16.8386 401.313 16.7917C402.673 16.7448 402.392 18.574 402.157 19.8404C401.922 21.1069 401.453 23.0769 402.063 23.4521C402.673 23.8273 405.629 25.8442 405.629 25.8442L403.94 30.5347Z" fill="#CA8453"/>
<path d="M418.438 33.771L423.504 35.6003C423.504 35.6003 422.378 37.8517 420.83 40.5721C419.094 37.9455 418.719 35.6003 418.438 33.771Z" fill="#8BCEDE"/>
<path d="M415.247 40.3845C415.857 41.8386 416.748 43.3864 418.109 44.8404C416.842 46.6697 415.575 48.2176 414.543 48.8742C411.494 50.7973 401.783 49.4371 401.455 41.8386C401.924 42.0262 407.554 44.3245 411.4 43.6209C412.808 43.3395 414.121 41.9793 415.247 40.3845Z" fill="#8BCEDE"/>
<path d="M418.109 44.8405C416.749 43.3865 415.858 41.8386 415.248 40.3846C414.122 42.0263 412.855 43.3865 411.401 43.621C407.554 44.3246 401.925 42.0263 401.456 41.8386C401.409 41.3227 401.456 40.7598 401.55 40.1501C403.285 16.6041 418.766 4.78414 421.956 2.48582C425.146 0.1406 426.882 0.0937037 427.492 2.1575C428.102 4.22129 423.551 5.20629 423.551 5.20629C423.551 5.20629 415.811 9.94363 412.855 17.8705C412.855 17.8705 411.307 18.2457 410.744 20.8724C410.463 22.045 410.228 25.7973 415.67 27.439L414.826 29.5966C417.734 29.8311 418.063 31.379 418.485 33.7711L420.83 40.5253C421.487 41.5572 422.332 42.636 423.457 43.7617C428.008 48.3114 434.716 50.9381 436.499 51.9231C438.375 52.955 436.217 54.3152 434.998 54.2683C433.121 54.2214 421.909 48.6398 418.672 45.3565C418.579 45.2627 417.875 44.5122 417.781 44.4184" fill="#B46C51"/>
<path d="M415.763 17.3546C415.763 17.3546 419.094 17.167 418.953 21.8574C417.593 21.0131 415.106 21.9981 414.966 23.0769C414.872 23.8743 416.045 24.5779 416.045 24.5779C415.2 25.4222 414.121 25.9381 412.479 25.8443C411.353 24.9531 410.509 23.6398 410.603 21.7636C410.79 17.4015 414.262 17.3077 415.763 17.3546Z" fill="#965442"/>
<path d="M414.965 23.0301C415.106 21.9513 417.592 20.9663 418.952 21.8106C418.765 26.9231 418.296 27.8612 416.841 27.6736C415.997 27.5798 414.027 27.0639 412.525 25.7974C414.12 25.8912 415.246 25.3753 416.091 24.531C416.044 24.531 414.871 23.8274 414.965 23.0301Z" fill="#B46C51"/>
<path d="M437.623 51.9701C437.436 51.7356 437.154 51.5011 436.826 51.3134C436.31 51.032 435.559 50.7037 434.621 50.2346C433.683 49.7656 432.557 49.2027 431.337 48.5461C428.898 47.2328 426.13 45.4504 423.925 43.2459C422.94 42.3078 422.189 41.3697 421.626 40.4785C423.081 37.9457 424.113 35.8819 424.113 35.8819L424.254 35.6005C424.441 35.6005 424.582 35.6474 424.77 35.6474C427.162 35.6474 429.039 34.8969 430.446 33.865C431.853 32.8331 432.745 31.5667 433.307 30.5348C433.683 29.8312 433.917 29.2684 433.964 28.8931C433.964 28.7993 434.011 28.7055 434.011 28.5648C434.011 28.0019 433.917 27.4391 433.73 26.97C433.542 26.501 433.354 26.0789 433.12 25.7505C432.979 25.516 432.838 25.3284 432.651 25.1877C432.557 25.0939 432.463 25.0001 432.275 24.9532C432.182 24.9063 432.088 24.9063 431.947 24.9063C431.806 24.9063 431.666 24.9063 431.525 24.9532C431.384 25.0001 431.243 25.0939 431.103 25.1408C430.868 25.3284 430.634 25.516 430.352 25.8913C429.789 26.501 428.898 27.5798 427.303 29.456C427.115 29.4091 426.881 29.3622 426.693 29.3153C426.271 29.2684 425.849 29.2215 425.379 29.1746C424.488 29.1277 423.597 29.0807 423.128 29.0807C423.034 29.0807 422.987 29.0807 422.893 29.0807H422.846C422.799 29.0807 422.752 29.0807 422.705 29.0807H422.659C422.33 29.0807 422.049 29.1746 421.767 29.3153C421.439 29.456 421.157 29.6436 420.876 29.8312C420.313 30.2534 419.797 30.7693 419.328 31.2853C419.14 31.5198 418.953 31.7543 418.765 31.9888C418.718 31.895 418.718 31.8012 418.718 31.7074C418.53 31.0976 418.296 30.5817 417.874 30.1126C417.592 29.7843 417.264 29.5498 416.842 29.3622C416.513 29.2215 416.185 29.0807 415.763 29.0338L416.044 28.2834C416.279 28.3303 416.513 28.3772 416.701 28.4241C416.842 28.4241 416.982 28.471 417.17 28.471C417.498 28.471 417.827 28.4241 418.108 28.2365C418.39 28.0489 418.624 27.8143 418.812 27.486C419.14 26.8762 419.328 26.032 419.469 24.8593C419.562 24.062 419.609 23.077 419.656 21.9044C419.656 21.7637 419.656 21.6698 419.656 21.5291C419.656 19.9344 419.234 18.7618 418.624 18.0113C418.014 17.2608 417.264 16.8856 416.654 16.7449C416.279 16.6511 415.95 16.6511 415.809 16.6511C415.763 16.6511 415.763 16.6511 415.716 16.6511C415.622 16.6511 415.528 16.6511 415.434 16.6511C415.012 16.6511 414.543 16.698 413.98 16.7918C415.387 13.6961 417.545 11.1632 419.469 9.28707C421.533 7.31709 423.315 6.14448 423.738 5.86305C423.925 5.81615 424.254 5.72234 424.676 5.58162C425.286 5.39401 426.083 5.06568 426.74 4.64354C427.209 4.36211 427.631 3.98688 427.913 3.51783C428.053 3.23641 428.194 2.90807 428.194 2.53284C428.194 2.34522 428.147 2.15761 428.1 1.96999C427.913 1.40714 427.678 0.89119 427.256 0.562859C426.834 0.187623 426.318 0 425.755 0C425.145 0 424.488 0.187621 423.784 0.515952C423.081 0.844283 422.33 1.31333 421.439 1.96999C419.797 3.1426 415.106 6.75424 410.555 12.9925C408.304 16.0882 406.146 19.8406 404.363 24.2496C403.988 23.9682 403.566 23.6867 403.19 23.4522C402.862 23.2177 402.58 23.077 402.44 22.9363C402.44 22.8894 402.393 22.7017 402.393 22.5141C402.393 22.1858 402.44 21.7637 402.534 21.3415C402.627 20.9194 402.721 20.4503 402.768 20.0282C402.862 19.5122 402.956 18.8556 402.956 18.2458C402.956 17.9644 402.956 17.7299 402.862 17.4953C402.815 17.2608 402.721 16.9794 402.534 16.7449C402.44 16.6042 402.252 16.4634 402.064 16.3227C401.83 16.182 401.548 16.1351 401.22 16.1351H401.126C400.845 16.1351 400.563 16.2289 400.329 16.3696C400.094 16.5104 399.86 16.6511 399.625 16.8387C399.203 17.2139 398.827 17.7299 398.452 18.2927C397.749 19.4653 397.233 21.0132 397.092 22.7017C397.092 22.7956 397.092 22.8894 397.092 22.9363C397.092 23.9682 397.561 24.9063 398.124 25.8443C398.734 26.7824 399.484 27.6267 400.282 28.4241C400.985 29.1746 401.736 29.7843 402.252 30.2534C401.455 33.3021 400.892 36.5855 400.61 40.1502C400.563 40.6192 400.516 41.0414 400.516 41.5104C400.516 41.6511 400.516 41.7918 400.516 41.9326C400.563 43.4335 400.985 44.7468 401.642 45.8725C402.299 46.9513 403.19 47.8425 404.222 48.5461C406.24 49.9063 408.726 50.4692 410.837 50.4692C412.338 50.4692 413.698 50.1877 414.684 49.578C415.293 49.1558 415.903 48.593 416.56 47.8425C417.029 47.2797 417.498 46.6699 418.014 46.0132C418.718 46.6699 419.656 47.3735 420.735 48.077C421.955 48.9213 423.362 49.7656 424.817 50.6099C427.725 52.2515 430.774 53.7525 432.745 54.5498C433.308 54.7844 433.824 54.9251 434.199 55.0189C434.433 55.0658 434.621 55.1127 434.809 55.1127H434.856C435.325 55.1127 435.794 54.972 436.216 54.7844C436.638 54.5968 437.06 54.3153 437.389 53.9401C437.576 53.7056 437.764 53.3303 437.764 52.9551C437.905 52.5799 437.811 52.2515 437.623 51.9701ZM424.817 33.7712C425.004 33.1145 425.098 32.4579 425.098 31.8481C425.098 31.3791 425.051 30.9569 424.863 30.5348C425.379 30.5817 425.942 30.6286 426.412 30.6755C426.787 30.7224 427.068 30.8162 427.209 30.8631L427.678 31.0507L428.006 30.6755C429.132 29.4091 429.93 28.471 430.493 27.7674C431.056 27.1108 431.431 26.6886 431.666 26.4541C431.712 26.4072 431.759 26.3603 431.806 26.3603C431.9 26.4541 431.994 26.5948 432.088 26.7824C432.322 27.2515 432.557 27.8612 432.557 28.5179C432.557 28.5648 432.557 28.6117 432.51 28.6586C432.463 28.7524 432.416 28.94 432.369 29.1277C432.229 29.5029 431.994 29.9719 431.666 30.4879C431.009 31.5198 429.93 32.6455 428.429 33.396C427.444 33.9119 426.224 34.2402 424.723 34.2402H424.676C424.723 34.0995 424.77 33.9119 424.817 33.7712ZM401.408 41.8388H401.032H401.408ZM419.656 33.1614C420.078 32.5986 420.594 31.895 421.204 31.3791C421.58 31.0038 422.002 30.7224 422.33 30.5817C422.518 30.4879 422.612 30.4879 422.752 30.4879C422.752 30.4879 422.752 30.4879 422.799 30.4879H422.846C422.893 30.4879 422.987 30.4879 423.034 30.5348C423.315 30.6286 423.456 30.7693 423.55 30.9569C423.644 31.1445 423.738 31.426 423.738 31.8481C423.738 32.2702 423.644 32.8331 423.503 33.396C423.409 33.8181 423.221 34.2402 423.081 34.6624L419.515 33.396C419.562 33.3491 419.609 33.2552 419.656 33.1614ZM422.471 35.9757C422.377 36.2102 422.236 36.4447 422.096 36.7262C421.767 37.3828 421.298 38.2271 420.782 39.1183C419.985 37.5704 419.609 36.1164 419.328 34.85L422.471 35.9757ZM417.967 25.3284C417.874 26.1727 417.686 26.6417 417.545 26.8293C417.451 26.9701 417.404 26.97 417.358 27.017C417.311 27.017 417.264 27.0639 417.17 27.0639C417.123 27.0639 417.029 27.0639 416.935 27.0639C416.701 27.017 416.372 26.9701 415.95 26.8293L415.856 26.7824C415.387 26.6417 414.965 26.4541 414.59 26.3134C414.731 26.2665 414.871 26.2196 415.012 26.1727C415.622 25.8912 416.185 25.516 416.607 25.0939L417.264 24.4372L416.466 23.9682L416.419 23.9213C416.372 23.8744 416.279 23.8275 416.232 23.7806C416.091 23.6398 415.903 23.4991 415.809 23.3584C415.763 23.2646 415.763 23.2177 415.763 23.1708C415.763 23.1708 415.763 23.077 415.856 22.9832C415.95 22.8894 416.091 22.7486 416.326 22.6548C416.748 22.4203 417.311 22.2796 417.78 22.2796C417.967 22.2796 418.155 22.3265 418.296 22.3265C418.155 23.5929 418.061 24.5779 417.967 25.3284ZM415.434 18.0582C415.528 18.0582 415.622 18.0582 415.716 18.0582H415.763H415.809C415.903 18.0582 416.279 18.0582 416.701 18.2458C417.123 18.4334 417.545 18.7618 417.874 19.4653C418.014 19.8406 418.155 20.2627 418.202 20.8725C418.014 20.8256 417.827 20.8256 417.686 20.8256C417.123 20.8256 416.56 20.9663 416.044 21.1539C415.528 21.3415 415.059 21.6229 414.731 21.9982C414.496 22.2327 414.308 22.561 414.261 22.9363C414.261 22.9832 414.261 23.0301 414.261 23.1239C414.261 23.4991 414.402 23.7806 414.543 24.0151C414.684 24.2027 414.824 24.3903 414.965 24.531C414.777 24.6248 414.637 24.7186 414.449 24.8124C414.027 25.0001 413.511 25.0939 412.854 25.0939H412.807C412.76 25.047 412.713 25.0001 412.666 24.9532C412.479 24.7655 412.291 24.531 412.15 24.3434C411.775 23.8274 411.587 23.3115 411.447 22.8425C411.4 22.561 411.353 22.2796 411.353 21.9513C411.353 21.9044 411.353 21.8106 411.353 21.7637C411.353 21.4353 411.4 21.107 411.447 20.8256C411.587 20.3096 411.728 19.8875 411.916 19.5592C412.197 19.137 412.526 18.8087 412.901 18.5742C412.948 18.5273 413.042 18.4803 413.136 18.4803L413.37 18.4334V18.3865C414.027 18.1051 414.824 18.0582 415.434 18.0582ZM399.484 25.047C398.968 24.2496 398.64 23.4522 398.64 22.9363C398.64 22.8894 398.64 22.8425 398.64 22.7956C398.734 21.8575 398.921 20.9194 399.25 20.122C399.578 19.3246 399.953 18.668 400.329 18.1989C400.563 17.8706 400.845 17.683 401.032 17.5892C401.126 17.5423 401.22 17.5423 401.267 17.4953H401.314C401.408 17.4953 401.408 17.4953 401.455 17.4953L401.501 17.5423C401.548 17.6361 401.595 17.8706 401.595 18.1989C401.595 18.6211 401.501 19.1839 401.408 19.6999C401.314 20.0751 401.22 20.591 401.173 21.0601C401.079 21.5291 401.032 22.0451 401.032 22.4672C401.032 22.6548 401.032 22.8894 401.079 23.077C401.126 23.2646 401.173 23.4522 401.314 23.6867C401.408 23.8275 401.501 23.9682 401.689 24.062C401.877 24.2027 402.44 24.5779 403.05 25.0001C403.331 25.1877 403.613 25.3753 403.894 25.5629C403.519 26.5948 403.19 27.6267 402.862 28.7524C402.768 28.6586 402.627 28.5648 402.534 28.471C401.455 27.486 400.235 26.2196 399.484 25.047ZM415.669 46.8106C415.106 47.4673 414.543 47.9832 414.121 48.2647C413.511 48.6399 412.338 48.9213 411.025 48.9213C409.617 48.9213 408.022 48.6399 406.568 47.9832C405.114 47.3266 403.847 46.3885 403.05 45.0283C402.674 44.4185 402.393 43.668 402.252 42.8706C402.768 43.0583 403.425 43.2928 404.175 43.4804C405.77 43.9495 407.835 44.4185 409.758 44.4185C410.368 44.4185 410.931 44.3716 411.494 44.2778C412.385 44.0902 413.182 43.6211 413.886 43.0114C414.308 42.6361 414.684 42.214 415.059 41.7449C415.575 42.7768 416.279 43.8556 417.17 44.8875C416.654 45.5911 416.185 46.2478 415.669 46.8106ZM436.497 52.9082C436.451 52.9551 436.404 53.0489 436.31 53.0958C436.122 53.2365 435.841 53.4241 435.559 53.471C435.372 53.518 435.184 53.5649 435.043 53.5649C434.996 53.5649 434.762 53.518 434.48 53.4241C434.199 53.3303 433.777 53.1896 433.354 53.002C432.463 52.6737 431.337 52.1577 430.117 51.548C427.678 50.3754 424.817 48.7806 422.471 47.2797C420.923 46.2947 419.609 45.3097 418.859 44.5592C418.765 44.4654 418.671 44.3716 418.577 44.2778C417.264 42.9176 416.419 41.4166 415.856 40.0095C414.965 37.7112 414.824 35.6943 414.824 34.85C414.824 34.5686 414.824 34.4278 414.824 34.4278L413.417 34.334C413.417 34.334 413.417 34.5217 413.417 34.85C413.417 35.7881 413.511 37.805 414.402 40.1971C413.933 40.8538 413.417 41.4635 412.901 41.8857C412.338 42.4016 411.728 42.7299 411.165 42.8237C410.696 42.9175 410.18 42.9645 409.664 42.9645C408.397 42.9645 406.99 42.7299 405.723 42.4016C404.457 42.0733 403.331 41.698 402.534 41.4166C402.346 41.3228 402.158 41.2759 402.018 41.229C402.018 40.8538 402.064 40.5254 402.111 40.1033C402.956 28.471 407.225 19.7468 411.634 13.6492C416.044 7.55162 420.641 4.08069 422.189 2.90808C422.987 2.29832 423.691 1.87617 424.3 1.59475C424.863 1.31332 425.332 1.21952 425.661 1.21952C425.942 1.21952 426.083 1.26642 426.224 1.40713C426.365 1.54785 426.505 1.78237 426.646 2.15761C426.646 2.20451 426.693 2.25141 426.693 2.34522C426.693 2.43903 426.693 2.53284 426.599 2.62665C426.552 2.72046 426.458 2.86116 426.318 2.95497C426.036 3.1895 425.614 3.47092 425.192 3.65854C424.3 4.08068 423.315 4.31521 423.222 4.31521L423.128 4.36211L423.034 4.40901C422.987 4.40901 421.017 5.62853 418.671 7.87994C416.372 10.0375 413.698 13.1801 412.15 17.167C411.963 17.2608 411.681 17.4485 411.353 17.683C411.071 17.9175 410.837 18.2458 410.555 18.668C410.508 18.7149 410.508 18.7618 410.462 18.8087C410.227 19.2308 410.039 19.7468 409.899 20.3565C409.899 20.4034 409.852 20.4503 409.852 20.5441C409.805 20.8256 409.711 21.2477 409.711 21.7637C409.711 22.1389 409.758 22.561 409.852 23.0301C409.946 23.546 410.133 23.9682 410.321 24.3903C410.555 24.8593 410.884 25.2346 411.212 25.6098C411.259 25.7036 411.353 25.7505 411.447 25.8443C412.01 26.4072 412.76 26.9231 413.698 27.3453C413.98 27.486 414.214 27.5798 414.496 27.6736H414.543L413.605 30.0657L414.543 30.1126C415.293 30.1596 415.809 30.3003 416.138 30.5348C416.466 30.7224 416.701 30.9569 416.888 31.3322C417.029 31.5667 417.123 31.8481 417.217 32.1764C417.358 32.5986 417.451 33.1614 417.545 33.7712C417.874 35.6005 418.249 38.0864 419.985 40.8069C420.688 41.8857 421.58 43.0114 422.752 44.1371C426.271 47.6549 430.962 50.0001 433.823 51.4073C434.762 51.8763 435.559 52.2046 435.935 52.4391C436.075 52.533 436.169 52.6268 436.263 52.6737C436.31 52.7206 436.31 52.7675 436.31 52.7675L436.497 52.9082Z" fill="#5B3A1C"/>
<path d="M69.6266 87.1016C69.4859 87.0078 69.3921 86.8671 69.3921 86.6795C69.3921 86.5387 69.439 86.3042 69.439 86.0228C69.439 80.535 57.758 78.7057 55.4594 78.7057C54.1927 78.7057 52.9261 78.8464 51.7064 79.034C50.6275 78.1429 48.751 77.0171 46.1709 76.8295C45.6079 76.7826 45.2327 77.4393 45.5141 77.9083C45.7956 78.3305 46.0771 78.8464 46.2647 79.4562C46.4993 80.1598 46.2178 80.9102 45.561 81.2854C40.4946 84.0997 36.6009 89.0247 34.959 94.9815C34.443 96.717 27.3124 96.717 27.8754 97.9365C28.0161 98.2179 28.2507 98.3587 28.5791 98.3587H38.0552C38.7589 98.3587 39.3687 97.7958 39.3687 97.0454C39.3687 96.5763 38.4305 96.2011 38.4305 96.2011C38.0083 96.0134 37.9614 95.8258 38.149 95.5913C42.8871 90.6663 49.1263 87.5237 56.1161 87.0547C56.4914 87.0078 56.726 87.4768 56.4914 87.7583C55.9754 88.4618 55.1779 89.2123 54.0989 89.7752C53.5829 90.0566 53.7705 90.807 54.3804 90.807C56.2569 90.7601 58.9777 90.1035 61.3233 87.1954C64.654 87.6176 67.7971 88.6494 70.6587 90.1973C70.8464 90.2911 71.1278 90.2442 71.2686 90.0566C71.55 89.7283 71.55 89.2123 71.3155 88.884C70.9871 88.3211 70.3772 87.5707 69.6266 87.1016Z" fill="#D03F36"/>
<path d="M37.2564 105.629C36.9749 104.503 32.2368 103.659 26.7013 103.706C25.0593 103.706 23.5582 103.8 22.1977 103.987C20.8373 103.706 19.0078 103.565 16.9906 103.612C13.1438 103.659 10.2353 104.315 10.4229 105.066L10.5168 105.16H10.4699C9.34398 105.019 7.98355 104.972 6.57621 104.972C2.72946 105.019 -0.179056 105.676 0.00859039 106.426C0.196237 107.177 3.48005 107.786 7.32679 107.739C8.45267 107.739 9.48471 107.646 10.4229 107.552C11.5488 107.693 12.9093 107.739 14.3166 107.739C16.7091 107.693 18.7732 107.458 19.8991 107.083C21.8694 107.505 24.731 107.739 27.8271 107.739C33.3158 107.693 37.5378 106.755 37.2564 105.629Z" fill="#DDE2EA"/>
<path d="M31.4876 81.4262C31.3469 81.051 31.0185 80.2536 30.221 79.8315C25.7644 77.4863 17.7425 81.6138 17.7425 81.6138C17.7425 81.6138 15.397 80.3943 12.5823 81.52C12.207 81.6607 12.1601 82.1767 12.4885 82.3643C12.9107 82.6457 13.4736 83.0679 13.8489 83.6307C14.0835 84.006 14.0365 84.5219 13.7082 84.8503C12.6761 85.8822 11.7379 87.0548 10.8935 88.3681C9.34538 90.7602 8.87627 93.4807 7.93804 95.9197C7.14054 98.0773 3.05924 97.3268 3.05924 98.6871C3.05924 98.6871 3.01233 99.1561 3.716 99.1561H9.11083C9.34539 99.1561 9.53303 98.9685 9.53303 98.734C9.53303 98.1711 8.68863 97.6552 8.68863 97.6552C11.3157 93.0585 15.5846 89.0247 21.1202 86.3512C21.8708 86.0229 22.5744 85.6945 23.325 85.4131C23.5596 85.3193 23.7941 85.5069 23.7941 85.7414C23.841 86.7264 23.7941 88.415 22.9966 89.4469C22.7621 89.7752 23.0905 90.1974 23.4188 90.0097C24.5916 89.4469 26.7027 88.415 26.6557 84.2874C29.0013 83.6307 31.3938 83.3493 33.6925 83.3024C33.8801 83.3024 34.0209 83.2086 34.0678 83.021C34.2085 82.6457 33.9739 82.2236 33.5987 82.0829C33.0826 81.8953 32.3789 81.6607 31.7691 81.6138C31.6753 81.6607 31.5345 81.5669 31.4876 81.4262Z" fill="#D03F36"/>
<path d="M302.612 63.9308H272.87L302.94 44.3248C289.711 44.3248 278.124 37.5236 272.119 27.4861V63.9308H265.458C260.579 63.9308 257.999 60.2254 257.154 58.1616L258.655 64.6344C259.031 66.2291 260.485 67.4018 262.127 67.4018H305.989C307.631 67.4018 309.085 66.276 309.461 64.6344L310.962 58.1616C310.07 60.1785 307.49 63.9308 302.612 63.9308Z" fill="#56382E"/>
</svg>
