<svg width="628" height="109" viewBox="0 0 628 109" fill="none" xmlns="http://www.w3.org/2000/svg">
<path d="M591.018 35.8749C572.816 32.2632 559.071 24.4771 560.244 18.4264C561.416 12.3758 577.132 10.3589 595.333 13.9705C615.459 17.9574 626.107 31.419 626.107 31.419C626.107 31.419 611.143 39.8149 591.018 35.8749Z" fill="#F1C650"/>
<path d="M626.67 30.95C626.623 30.9031 623.949 27.4791 618.695 23.586C613.44 19.646 605.653 15.237 595.473 13.2201C589.328 12.0006 583.417 11.4377 578.304 11.4377C574.504 11.4377 571.079 11.7661 568.218 12.3758C565.356 12.9856 563.104 13.9237 561.556 15.1901C560.524 16.0344 559.821 17.0663 559.586 18.2858C559.539 18.5672 559.492 18.8955 559.492 19.177C559.492 20.0682 559.727 20.9124 560.196 21.8036C560.618 22.6479 561.275 23.4922 562.072 24.3365C563.667 25.9781 565.966 27.6198 568.734 29.1207C574.363 32.1695 582.104 34.89 590.876 36.6254C594.77 37.3759 598.429 37.7042 601.853 37.7042C616.443 37.7042 626.341 32.1226 626.435 32.0757L627.139 31.6536L626.67 30.95ZM619.164 33.4828C614.942 34.8431 608.984 36.2033 601.853 36.2033C598.523 36.2033 594.91 35.9219 591.111 35.1714C585.434 34.0457 580.18 32.4978 575.724 30.7624C571.267 28.98 567.561 27.01 564.981 24.9931C563.245 23.6798 562.025 22.3196 561.416 21.1001C561.04 20.3965 560.9 19.7398 560.9 19.1301C560.9 18.9425 560.9 18.7079 560.946 18.5203C561.087 17.7229 561.603 16.9725 562.448 16.2689C563.292 15.5653 564.512 14.9556 566.013 14.4396C569.062 13.4077 573.284 12.8449 578.304 12.8449C583.37 12.8449 589.14 13.4077 595.239 14.6273C604.996 16.5503 612.549 20.7717 617.616 24.5241C621.462 27.3852 623.949 30.0119 624.981 31.1845C624.746 31.3252 624.418 31.4659 624.042 31.6066C622.917 32.1226 621.275 32.8262 619.164 33.4828Z" fill="#54362C"/>
<path d="M601.948 26.2595C601.385 26.2595 601.104 26.7755 597.538 30.95C596.459 30.5278 593.738 30.4809 592.941 30.4809C592.847 30.4809 592.8 30.4809 592.706 30.4809C590.783 30.6685 588.484 34.4209 588.484 34.4209L593.551 36.2502C593.645 36.0156 593.738 35.7811 593.832 35.5466C600.963 36.2033 603.402 29.9181 603.402 29.2145C603.308 27.6666 602.276 26.2595 601.948 26.2595Z" fill="#CA8453"/>
<path d="M573.94 31.2312C573.94 31.2312 567.7 26.5407 567.982 23.3981C568.216 20.2556 569.952 17.5351 571.313 17.4882C572.673 17.4413 572.392 19.2706 572.157 20.537C571.922 21.8034 571.453 23.7734 572.063 24.1486C572.673 24.5239 575.629 26.5408 575.629 26.5408L573.94 31.2312Z" fill="#CA8453"/>
<path d="M588.438 34.4675L593.504 36.2968C593.504 36.2968 592.378 38.5482 590.83 41.2687C589.094 38.642 588.719 36.2968 588.438 34.4675Z" fill="#8BCEDE"/>
<path d="M585.247 41.0811C585.857 42.5351 586.748 44.0829 588.109 45.537C586.842 47.3662 585.575 48.9141 584.543 49.5708C581.494 51.4938 571.783 50.1336 571.455 42.5351C571.924 42.7227 577.554 45.021 581.4 44.3175C582.808 44.036 584.121 42.6758 585.247 41.0811Z" fill="#8BCEDE"/>
<path d="M588.109 45.5371C586.749 44.083 585.858 42.5352 585.248 41.0811C584.122 42.7228 582.855 44.083 581.401 44.3175C577.554 45.0211 571.925 42.7228 571.456 42.5352C571.409 42.0192 571.456 41.4564 571.55 40.8466C573.285 17.3006 588.766 5.48067 591.956 3.18235C595.146 0.837133 596.882 0.790237 597.492 2.85403C598.102 4.91783 593.551 5.90282 593.551 5.90282C593.551 5.90282 585.811 10.6402 582.855 18.567C582.855 18.567 581.307 18.9422 580.744 21.5689C580.463 22.7415 580.228 26.4939 585.67 28.1355L584.826 30.2931C587.734 30.5276 588.063 32.0755 588.485 34.4676L590.83 41.2218C591.487 42.2537 592.332 43.3325 593.457 44.4583C598.008 49.008 604.716 51.6346 606.499 52.6196C608.375 53.6515 606.217 55.0118 604.998 54.9649C603.121 54.9179 591.909 49.3363 588.672 46.053C588.579 45.9592 587.875 45.2087 587.781 45.1149" fill="#B46C51"/>
<path d="M585.763 18.0511C585.763 18.0511 589.094 17.8635 588.953 22.554C587.593 21.7097 585.106 22.6947 584.966 23.7735C584.872 24.5708 586.045 25.2744 586.045 25.2744C585.2 26.1187 584.121 26.6346 582.479 26.5408C581.353 25.6496 580.509 24.3363 580.603 22.4601C580.79 18.098 584.262 18.0042 585.763 18.0511Z" fill="#965442"/>
<path d="M584.965 23.7266C585.106 22.6478 587.592 21.6628 588.952 22.5071C588.765 27.6197 588.296 28.5578 586.841 28.3701C585.997 28.2763 584.027 27.7604 582.525 26.494C584.12 26.5878 585.246 26.0718 586.091 25.2275C586.044 25.2275 584.871 24.524 584.965 23.7266Z" fill="#B46C51"/>
<path d="M607.623 52.6666C607.436 52.4321 607.154 52.1976 606.826 52.01C606.31 51.7285 605.559 51.4002 604.621 50.9312C603.683 50.4621 602.557 49.8993 601.337 49.2426C598.898 47.9293 596.13 46.1469 593.925 43.9424C592.94 43.0043 592.189 42.0662 591.626 41.1751C593.081 38.6422 594.113 36.5784 594.113 36.5784L594.254 36.297C594.441 36.297 594.582 36.3439 594.77 36.3439C597.162 36.3439 599.039 35.5934 600.446 34.5615C601.853 33.5296 602.745 32.2632 603.307 31.2313C603.683 30.5278 603.917 29.9649 603.964 29.5897C603.964 29.4959 604.011 29.402 604.011 29.2613C604.011 28.6985 603.917 28.1356 603.73 27.6666C603.542 27.1975 603.354 26.7754 603.12 26.4471C602.979 26.2125 602.838 26.0249 602.651 25.8842C602.557 25.7904 602.463 25.6966 602.275 25.6497C602.182 25.6028 602.088 25.6028 601.947 25.6028C601.806 25.6028 601.666 25.6028 601.525 25.6497C601.384 25.6966 601.243 25.7904 601.103 25.8373C600.868 26.0249 600.634 26.2125 600.352 26.5878C599.789 27.1975 598.898 28.2763 597.303 30.1525C597.115 30.1056 596.881 30.0587 596.693 30.0118C596.271 29.9649 595.849 29.918 595.379 29.8711C594.488 29.8242 593.597 29.7773 593.128 29.7773C593.034 29.7773 592.987 29.7773 592.893 29.7773H592.846C592.799 29.7773 592.752 29.7773 592.705 29.7773H592.659C592.33 29.7773 592.049 29.8711 591.767 30.0118C591.439 30.1525 591.157 30.3401 590.876 30.5278C590.313 30.9499 589.797 31.4658 589.328 31.9818C589.14 32.2163 588.953 32.4508 588.765 32.6854C588.718 32.5916 588.718 32.4977 588.718 32.4039C588.53 31.7942 588.296 31.2782 587.874 30.8092C587.592 30.4809 587.264 30.2463 586.842 30.0587C586.513 29.918 586.185 29.7773 585.763 29.7304L586.044 28.9799C586.279 29.0268 586.513 29.0737 586.701 29.1206C586.842 29.1206 586.982 29.1675 587.17 29.1675C587.498 29.1675 587.827 29.1206 588.108 28.933C588.39 28.7454 588.624 28.5109 588.812 28.1825C589.14 27.5728 589.328 26.7285 589.469 25.5559C589.562 24.7585 589.609 23.7735 589.656 22.6009C589.656 22.4602 589.656 22.3664 589.656 22.2257C589.656 20.6309 589.234 19.4583 588.624 18.7078C588.014 17.9574 587.264 17.5821 586.654 17.4414C586.279 17.3476 585.95 17.3476 585.809 17.3476C585.763 17.3476 585.763 17.3476 585.716 17.3476C585.622 17.3476 585.528 17.3476 585.434 17.3476C585.012 17.3476 584.543 17.3945 583.98 17.4883C585.387 14.3926 587.545 11.8598 589.469 9.9836C591.533 8.01362 593.315 6.84101 593.738 6.55959C593.925 6.51268 594.254 6.41887 594.676 6.27816C595.286 6.09054 596.083 5.76221 596.74 5.34007C597.209 5.05864 597.631 4.68341 597.913 4.21437C598.053 3.93294 598.194 3.6046 598.194 3.22937C598.194 3.04175 598.147 2.85414 598.1 2.66652C597.913 2.10367 597.678 1.58772 597.256 1.25939C596.834 0.884157 596.318 0.696533 595.755 0.696533C595.145 0.696533 594.488 0.884154 593.784 1.21248C593.081 1.54082 592.33 2.00986 591.439 2.66652C589.797 3.83914 585.106 7.45078 580.555 13.6891C578.304 16.7848 576.146 20.5371 574.363 24.9461C573.988 24.6647 573.566 24.3833 573.19 24.1487C572.862 23.9142 572.58 23.7735 572.44 23.6328C572.44 23.5859 572.393 23.3983 572.393 23.2107C572.393 22.8823 572.44 22.4602 572.534 22.038C572.627 21.6159 572.721 21.1469 572.768 20.7247C572.862 20.2088 572.956 19.5521 572.956 18.9424C572.956 18.6609 572.956 18.4264 572.862 18.1919C572.815 17.9574 572.721 17.6759 572.534 17.4414C572.44 17.3007 572.252 17.16 572.064 17.0193C571.83 16.8786 571.548 16.8317 571.22 16.8317H571.126C570.845 16.8317 570.563 16.9255 570.329 17.0662C570.094 17.2069 569.86 17.3476 569.625 17.5352C569.203 17.9105 568.827 18.4264 568.452 18.9893C567.749 20.1619 567.233 21.7097 567.092 23.3983C567.092 23.4921 567.092 23.5859 567.092 23.6328C567.092 24.6647 567.561 25.6028 568.124 26.5409C568.734 27.479 569.484 28.3232 570.282 29.1206C570.985 29.8711 571.736 30.4808 572.252 30.9499C571.455 33.9987 570.892 37.282 570.61 40.8467C570.563 41.3158 570.516 41.7379 570.516 42.207C570.516 42.3477 570.516 42.4884 570.516 42.6291C570.563 44.13 570.985 45.4434 571.642 46.5691C572.299 47.6479 573.19 48.5391 574.222 49.2426C576.24 50.6028 578.726 51.1657 580.837 51.1657C582.338 51.1657 583.698 50.8843 584.684 50.2745C585.293 49.8524 585.903 49.2895 586.56 48.5391C587.029 47.9762 587.498 47.3664 588.014 46.7098C588.718 47.3664 589.656 48.07 590.735 48.7736C591.955 49.6179 593.362 50.4621 594.817 51.3064C597.725 52.9481 600.774 54.449 602.745 55.2464C603.308 55.4809 603.824 55.6216 604.199 55.7154C604.433 55.7623 604.621 55.8092 604.809 55.8092H604.856C605.325 55.8092 605.794 55.6685 606.216 55.4809C606.638 55.2933 607.06 55.0119 607.389 54.6366C607.576 54.4021 607.764 54.0269 607.764 53.6516C607.905 53.2764 607.811 52.9481 607.623 52.6666ZM594.817 34.4677C595.004 33.8111 595.098 33.1544 595.098 32.5446C595.098 32.0756 595.051 31.6535 594.863 31.2313C595.379 31.2782 595.942 31.3251 596.412 31.372C596.787 31.4189 597.068 31.5127 597.209 31.5596L597.678 31.7473L598.006 31.372C599.132 30.1056 599.93 29.1675 600.493 28.464C601.056 27.8073 601.431 27.3852 601.666 27.1506C601.712 27.1037 601.759 27.0568 601.806 27.0568C601.9 27.1506 601.994 27.2913 602.088 27.479C602.322 27.948 602.557 28.5578 602.557 29.2144C602.557 29.2613 602.557 29.3082 602.51 29.3551C602.463 29.449 602.416 29.6366 602.369 29.8242C602.229 30.1994 601.994 30.6685 601.666 31.1844C601.009 32.2163 599.93 33.342 598.429 34.0925C597.444 34.6084 596.224 34.9368 594.723 34.9368H594.676C594.723 34.7961 594.77 34.6084 594.817 34.4677ZM571.408 42.5353H571.032H571.408ZM589.656 33.858C590.078 33.2951 590.594 32.5915 591.204 32.0756C591.58 31.7004 592.002 31.4189 592.33 31.2782C592.518 31.1844 592.612 31.1844 592.752 31.1844C592.752 31.1844 592.752 31.1844 592.799 31.1844H592.846C592.893 31.1844 592.987 31.1844 593.034 31.2313C593.315 31.3251 593.456 31.4658 593.55 31.6535C593.644 31.8411 593.738 32.1225 593.738 32.5446C593.738 32.9668 593.644 33.5296 593.503 34.0925C593.409 34.5146 593.221 34.9368 593.081 35.3589L589.515 34.0925C589.562 34.0456 589.609 33.9518 589.656 33.858ZM592.471 36.6722C592.377 36.9068 592.236 37.1413 592.096 37.4227C591.767 38.0794 591.298 38.9236 590.782 39.8148C589.985 38.267 589.609 36.8129 589.328 35.5465L592.471 36.6722ZM587.967 26.0249C587.874 26.8692 587.686 27.3383 587.545 27.5259C587.451 27.6666 587.404 27.6666 587.358 27.7135C587.311 27.7135 587.264 27.7604 587.17 27.7604C587.123 27.7604 587.029 27.7604 586.935 27.7604C586.701 27.7135 586.372 27.6666 585.95 27.5259L585.856 27.479C585.387 27.3383 584.965 27.1506 584.59 27.0099C584.731 26.963 584.871 26.9161 585.012 26.8692C585.622 26.5878 586.185 26.2125 586.607 25.7904L587.264 25.1337L586.466 24.6647L586.419 24.6178C586.372 24.5709 586.279 24.524 586.232 24.4771C586.091 24.3364 585.903 24.1956 585.809 24.0549C585.763 23.9611 585.763 23.9142 585.763 23.8673C585.763 23.8673 585.763 23.7735 585.856 23.6797C585.95 23.5859 586.091 23.4452 586.326 23.3514C586.748 23.1168 587.311 22.9761 587.78 22.9761C587.967 22.9761 588.155 23.023 588.296 23.023C588.155 24.2895 588.061 25.2745 587.967 26.0249ZM585.434 18.7547C585.528 18.7547 585.622 18.7547 585.716 18.7547H585.763H585.809C585.903 18.7547 586.279 18.7547 586.701 18.9424C587.123 19.13 587.545 19.4583 587.874 20.1619C588.014 20.5371 588.155 20.9592 588.202 21.569C588.014 21.5221 587.827 21.5221 587.686 21.5221C587.123 21.5221 586.56 21.6628 586.044 21.8504C585.528 22.0381 585.059 22.3195 584.731 22.6947C584.496 22.9292 584.308 23.2576 584.261 23.6328C584.261 23.6797 584.261 23.7266 584.261 23.8204C584.261 24.1956 584.402 24.4771 584.543 24.7116C584.684 24.8992 584.824 25.0868 584.965 25.2275C584.777 25.3214 584.637 25.4152 584.449 25.509C584.027 25.6966 583.511 25.7904 582.854 25.7904H582.807C582.76 25.7435 582.713 25.6966 582.666 25.6497C582.479 25.4621 582.291 25.2275 582.15 25.0399C581.775 24.524 581.587 24.008 581.447 23.539C581.4 23.2576 581.353 22.9761 581.353 22.6478C581.353 22.6009 581.353 22.5071 581.353 22.4602C581.353 22.1319 581.4 21.8035 581.447 21.5221C581.587 21.0061 581.728 20.584 581.916 20.2557C582.197 19.8335 582.526 19.5052 582.901 19.2707C582.948 19.2238 583.042 19.1769 583.136 19.1769L583.37 19.13V19.0831C584.027 18.8016 584.824 18.7547 585.434 18.7547ZM569.484 25.7435C568.968 24.9461 568.64 24.1487 568.64 23.6328C568.64 23.5859 568.64 23.539 568.64 23.4921C568.734 22.554 568.921 21.6159 569.25 20.8185C569.578 20.0212 569.953 19.3645 570.329 18.8954C570.563 18.5671 570.845 18.3795 571.032 18.2857C571.126 18.2388 571.22 18.2388 571.267 18.1919H571.314C571.408 18.1919 571.408 18.1919 571.455 18.1919L571.501 18.2388C571.548 18.3326 571.595 18.5671 571.595 18.8954C571.595 19.3176 571.501 19.8804 571.408 20.3964C571.314 20.7716 571.22 21.2876 571.173 21.7566C571.079 22.2257 571.032 22.7416 571.032 23.1638C571.032 23.3514 571.032 23.5859 571.079 23.7735C571.126 23.9611 571.173 24.1487 571.314 24.3833C571.408 24.524 571.501 24.6647 571.689 24.7585C571.877 24.8992 572.44 25.2744 573.05 25.6966C573.331 25.8842 573.613 26.0718 573.894 26.2594C573.519 27.2913 573.19 28.3232 572.862 29.4489C572.768 29.3551 572.627 29.2613 572.534 29.1675C571.455 28.1825 570.235 26.9161 569.484 25.7435ZM585.669 47.5071C585.106 48.1638 584.543 48.6798 584.121 48.9612C583.511 49.3364 582.338 49.6178 581.025 49.6178C579.617 49.6178 578.022 49.3364 576.568 48.6798C575.114 48.0231 573.847 47.085 573.05 45.7248C572.674 45.115 572.393 44.3646 572.252 43.5672C572.768 43.7548 573.425 43.9893 574.175 44.1769C575.77 44.646 577.835 45.115 579.758 45.115C580.368 45.115 580.931 45.0681 581.494 44.9743C582.385 44.7867 583.182 44.3177 583.886 43.7079C584.308 43.3327 584.684 42.9105 585.059 42.4415C585.575 43.4734 586.279 44.5522 587.17 45.5841C586.654 46.2876 586.185 46.9443 585.669 47.5071ZM606.497 53.6047C606.451 53.6516 606.404 53.7454 606.31 53.7924C606.122 53.9331 605.841 54.1207 605.559 54.1676C605.372 54.2145 605.184 54.2614 605.043 54.2614C604.996 54.2614 604.762 54.2145 604.48 54.1207C604.199 54.0269 603.777 53.8862 603.354 53.6985C602.463 53.3702 601.337 52.8543 600.117 52.2445C597.678 51.0719 594.817 49.4771 592.471 47.9762C590.923 46.9912 589.609 46.0062 588.859 45.2557C588.765 45.1619 588.671 45.0681 588.577 44.9743C587.264 43.6141 586.419 42.1131 585.856 40.706C584.965 38.4077 584.824 36.3908 584.824 35.5465C584.824 35.2651 584.824 35.1244 584.824 35.1244L583.417 35.0306C583.417 35.0306 583.417 35.2182 583.417 35.5465C583.417 36.4846 583.511 38.5015 584.402 40.8936C583.933 41.5503 583.417 42.16 582.901 42.5822C582.338 43.0981 581.728 43.4265 581.165 43.5203C580.696 43.6141 580.18 43.661 579.664 43.661C578.397 43.661 576.99 43.4265 575.723 43.0981C574.457 42.7698 573.331 42.3946 572.534 42.1131C572.346 42.0193 572.158 41.9724 572.018 41.9255C572.018 41.5503 572.064 41.222 572.111 40.7998C572.956 29.1675 577.225 20.4433 581.634 14.3457C586.044 8.24815 590.641 4.77722 592.189 3.60461C592.987 2.99486 593.691 2.57271 594.3 2.29128C594.863 2.00985 595.332 1.91605 595.661 1.91605C595.942 1.91605 596.083 1.96295 596.224 2.10367C596.365 2.24438 596.505 2.4789 596.646 2.85414C596.646 2.90104 596.693 2.94795 596.693 3.04175C596.693 3.13556 596.693 3.22938 596.599 3.32318C596.552 3.41699 596.458 3.5577 596.318 3.65151C596.036 3.88603 595.614 4.16746 595.192 4.35507C594.3 4.77721 593.315 5.01175 593.222 5.01175L593.128 5.05864L593.034 5.10555C592.987 5.10555 591.017 6.32506 588.671 8.57647C586.372 10.7341 583.698 13.8767 582.15 17.8636C581.963 17.9574 581.681 18.145 581.353 18.3795C581.071 18.614 580.837 18.9424 580.555 19.3645C580.508 19.4114 580.508 19.4583 580.462 19.5052C580.227 19.9274 580.039 20.4433 579.899 21.0531C579.899 21.1 579.852 21.1469 579.852 21.2407C579.805 21.5221 579.711 21.9442 579.711 22.4602C579.711 22.8354 579.758 23.2576 579.852 23.7266C579.946 24.2426 580.133 24.6647 580.321 25.0868C580.555 25.5559 580.884 25.9311 581.212 26.3064C581.259 26.4002 581.353 26.4471 581.447 26.5409C582.01 27.1037 582.76 27.6197 583.698 28.0418C583.98 28.1825 584.214 28.2763 584.496 28.3701H584.543L583.605 30.7623L584.543 30.8092C585.293 30.8561 585.809 30.9968 586.138 31.2313C586.466 31.4189 586.701 31.6535 586.888 32.0287C587.029 32.2632 587.123 32.5446 587.217 32.873C587.358 33.2951 587.451 33.858 587.545 34.4677C587.874 36.297 588.249 38.7829 589.985 41.5034C590.688 42.5822 591.58 43.7079 592.752 44.8336C596.271 48.3514 600.962 50.6967 603.823 52.1038C604.762 52.5728 605.559 52.9012 605.935 53.1357C606.075 53.2295 606.169 53.3233 606.263 53.3702C606.31 53.4171 606.31 53.464 606.31 53.464L606.497 53.6047Z" fill="#5B3A1C"/>
<path d="M69.6266 87.7981C69.4859 87.7043 69.3921 87.5636 69.3921 87.376C69.3921 87.2353 69.439 87.0008 69.439 86.7193C69.439 81.2315 57.758 79.4022 55.4594 79.4022C54.1927 79.4022 52.9261 79.543 51.7064 79.7306C50.6275 78.8394 48.751 77.7137 46.1709 77.5261C45.6079 77.4792 45.2327 78.1358 45.5141 78.6049C45.7956 79.027 46.0771 79.543 46.2647 80.1527C46.4993 80.8563 46.2178 81.6067 45.561 81.982C40.4946 84.7962 36.6009 89.7212 34.959 95.6781C34.443 97.4135 27.3124 97.4135 27.8754 98.6331C28.0161 98.9145 28.2507 99.0552 28.5791 99.0552H38.0552C38.7589 99.0552 39.3687 98.4924 39.3687 97.7419C39.3687 97.2728 38.4305 96.8976 38.4305 96.8976C38.0083 96.71 37.9614 96.5224 38.149 96.2878C42.8871 91.3629 49.1263 88.2203 56.1161 87.7512C56.4914 87.7043 56.726 88.1734 56.4914 88.4548C55.9754 89.1584 55.1779 89.9088 54.0989 90.4717C53.5829 90.7531 53.7705 91.5036 54.3804 91.5036C56.2569 91.4567 58.9777 90.8 61.3233 87.892C64.654 88.3141 67.7971 89.346 70.6587 90.8938C70.8464 90.9876 71.1278 90.9407 71.2686 90.7531C71.55 90.4248 71.55 89.9088 71.3155 89.5805C70.9871 89.0177 70.3772 88.2672 69.6266 87.7981Z" fill="#D03F36"/>
<path d="M37.2564 106.325C36.9749 105.2 32.2368 104.355 26.7013 104.402C25.0593 104.402 23.5582 104.496 22.1977 104.684C20.8373 104.402 19.0078 104.262 16.9906 104.308C13.1438 104.355 10.2353 105.012 10.4229 105.762L10.5168 105.856H10.4699C9.34398 105.716 7.98355 105.669 6.57621 105.669C2.72946 105.716 -0.179056 106.372 0.00859039 107.123C0.196237 107.873 3.48005 108.483 7.32679 108.436C8.45267 108.436 9.48471 108.342 10.4229 108.248C11.5488 108.389 12.9093 108.436 14.3166 108.436C16.7091 108.389 18.7732 108.155 19.8991 107.779C21.8694 108.201 24.731 108.436 27.8271 108.436C33.3158 108.389 37.5378 107.451 37.2564 106.325Z" fill="#DDE2EA"/>
<path d="M31.4876 82.1227C31.3469 81.7475 31.0185 80.9502 30.221 80.528C25.7644 78.1828 17.7425 82.3104 17.7425 82.3104C17.7425 82.3104 15.397 81.0909 12.5823 82.2166C12.207 82.3573 12.1601 82.8732 12.4885 83.0608C12.9107 83.3423 13.4736 83.7644 13.8489 84.3273C14.0835 84.7025 14.0365 85.2185 13.7082 85.5468C12.6761 86.5787 11.7379 87.7513 10.8935 89.0646C9.34538 91.4568 8.87627 94.1772 7.93804 96.6162C7.14054 98.7738 3.05924 98.0234 3.05924 99.3836C3.05924 99.3836 3.01233 99.8526 3.716 99.8526H9.11083C9.34539 99.8526 9.53303 99.665 9.53303 99.4305C9.53303 98.8676 8.68863 98.3517 8.68863 98.3517C11.3157 93.7551 15.5846 89.7213 21.1202 87.0477C21.8708 86.7194 22.5744 86.3911 23.325 86.1096C23.5596 86.0158 23.7941 86.2034 23.7941 86.438C23.841 87.423 23.7941 89.1115 22.9966 90.1434C22.7621 90.4718 23.0905 90.8939 23.4188 90.7063C24.5916 90.1434 26.7027 89.1115 26.6557 84.9839C29.0013 84.3273 31.3938 84.0458 33.6925 83.9989C33.8801 83.9989 34.0209 83.9051 34.0678 83.7175C34.2085 83.3423 33.9739 82.9201 33.5987 82.7794C33.0826 82.5918 32.3789 82.3573 31.7691 82.3104C31.6753 82.3573 31.5345 82.2635 31.4876 82.1227Z" fill="#D03F36"/>
<path d="M472.612 64.6274H442.87L472.94 45.0213C459.711 45.0213 448.124 38.2202 442.119 28.1826V64.6274H435.458C430.579 64.6274 427.999 60.9219 427.154 58.8581L428.655 65.3309C429.031 66.9257 430.485 68.0983 432.127 68.0983H475.989C477.631 68.0983 479.085 66.9726 479.461 65.3309L480.962 58.8581C480.07 60.875 477.49 64.6274 472.612 64.6274Z" fill="#56382E"/>
</svg>
