<svg id="Слой_1" data-name="Слой 1" xmlns="http://www.w3.org/2000/svg" viewBox="0 0 730.99 126.27">
  <defs>
    <style>
      .cls-1 {
        opacity: 0.13;
      }

      .cls-2 {
        fill: #d03f36;
      }
    </style>
  </defs>
  <title>bloody-bot</title>
  <g class="cls-1">
    <path d="M647.56,124h47V75.46L731,10.74H699.68L679.77,47.9,659.23,10.74H608.38l39.18,65.48ZM542.7,92.65V34.38h3.68c13.32,0,20.29,9.86,20.29,29.07S560.2,92.52,547.4,92.52h-4.7Zm-47,31.35h60.61C591.52,124,613,102.64,613,67.88c0-35.9-23.08-57.27-61.5-57.14H495.79V124ZM404.88,63.83c0-20.23,4.56-29.33,15-29.33S435.06,43.73,435.06,64c0,20.6-4.57,29.07-15.22,29.07S404.88,84.43,404.88,63.83Zm15,62.82c38.42,0,62.26-22.75,62.26-59.53.12-36.54-23.46-58.91-62.26-58.91-38,0-61.49,22.37-62,58.91S381,126.65,419.84,126.65ZM271.11,63.83c0-20.23,4.56-29.33,15-29.33S301.29,43.73,301.29,64c0,20.6-4.57,29.07-15.22,29.07S271.11,84.43,271.11,63.83Zm15,62.82c38.42,0,62.26-22.75,62.26-59.53,0-36.54-23.59-58.91-62.26-58.91-37.91,0-61.49,22.37-62,58.91C223.31,103.65,247.27,126.65,286.07,126.65ZM136.46,124H216V89.49H183.5V10.74h-47ZM56.83,50.81V32.61h5.83c5.58,0,9.38,3.66,9.38,9.1s-3.93,9.1-9.38,9.1Zm0,41.84V72.3h8.62c6.47,0,10.9,4.17,10.9,10.24s-4.43,10.24-10.9,10.24H56.83ZM9.79,124H84.22c22.57,0,39.43-14.92,39.43-34.76,0-16.69-11.16-29.08-28.28-32.74,10.53-2.53,17.5-10.87,17.5-22.12.13-13.91-10.4-23.64-26.75-23.64H9.79Z" transform="translate(0 -0.38)"/>
    <path d="M647.56,124h47V75.46L731,10.74H699.68L679.77,47.9,659.23,10.74H608.38l39.18,65.48ZM542.7,92.65V34.38h3.68c13.32,0,20.29,9.86,20.29,29.07S560.2,92.52,547.4,92.52h-4.7Zm-47,31.35h60.61C591.52,124,613,102.64,613,67.88c0-35.9-23.08-57.27-61.5-57.14H495.79V124ZM404.88,63.83c0-20.23,4.56-29.33,15-29.33S435.06,43.73,435.06,64c0,20.6-4.57,29.07-15.22,29.07S404.88,84.43,404.88,63.83Zm15,62.82c38.42,0,62.26-22.75,62.26-59.53.12-36.54-23.46-58.91-62.26-58.91-38,0-61.49,22.37-62,58.91S381,126.65,419.84,126.65ZM271.11,63.83c0-20.23,4.56-29.33,15-29.33S301.29,43.73,301.29,64c0,20.6-4.57,29.07-15.22,29.07S271.11,84.43,271.11,63.83Zm15,62.82c38.42,0,62.26-22.75,62.26-59.53,0-36.54-23.59-58.91-62.26-58.91-37.91,0-61.49,22.37-62,58.91C223.31,103.65,247.27,126.65,286.07,126.65ZM136.46,124H216V89.49H183.5V10.74h-47ZM56.83,50.81V32.61h5.83c5.58,0,9.38,3.66,9.38,9.1s-3.93,9.1-9.38,9.1Zm0,41.84V72.3h8.62c6.47,0,10.9,4.17,10.9,10.24s-4.43,10.24-10.9,10.24H56.83ZM9.79,124H84.22c22.57,0,39.43-14.92,39.43-34.76,0-16.69-11.16-29.08-28.28-32.74,10.53-2.53,17.5-10.87,17.5-22.12.13-13.91-10.4-23.64-26.75-23.64H9.79Z" transform="translate(0 -0.38)"/>
    <path d="M647.56,124h47V75.46L731,10.74H699.68L679.77,47.9,659.23,10.74H608.38l39.18,65.48ZM542.7,92.65V34.38h3.68c13.32,0,20.29,9.86,20.29,29.07S560.2,92.52,547.4,92.52h-4.7Zm-47,31.35h60.61C591.52,124,613,102.64,613,67.88c0-35.9-23.08-57.27-61.5-57.14H495.79V124ZM404.88,63.83c0-20.23,4.56-29.33,15-29.33S435.06,43.73,435.06,64c0,20.6-4.57,29.07-15.22,29.07S404.88,84.43,404.88,63.83Zm15,62.82c38.42,0,62.26-22.75,62.26-59.53.12-36.54-23.46-58.91-62.26-58.91-38,0-61.49,22.37-62,58.91S381,126.65,419.84,126.65ZM271.11,63.83c0-20.23,4.56-29.33,15-29.33S301.29,43.73,301.29,64c0,20.6-4.57,29.07-15.22,29.07S271.11,84.43,271.11,63.83Zm15,62.82c38.42,0,62.26-22.75,62.26-59.53,0-36.54-23.59-58.91-62.26-58.91-37.91,0-61.49,22.37-62,58.91C223.31,103.65,247.27,126.65,286.07,126.65ZM136.46,124H216V89.49H183.5V10.74h-47ZM56.83,50.81V32.61h5.83c5.58,0,9.38,3.66,9.38,9.1s-3.93,9.1-9.38,9.1Zm0,41.84V72.3h8.62c6.47,0,10.9,4.17,10.9,10.24s-4.43,10.24-10.9,10.24H56.83ZM9.79,124H84.22c22.57,0,39.43-14.92,39.43-34.76,0-16.69-11.16-29.08-28.28-32.74,10.53-2.53,17.5-10.87,17.5-22.12.13-13.91-10.4-23.64-26.75-23.64H9.79Z" transform="translate(0 -0.38)"/>
    <path d="M647.56,124h47V75.46L731,10.74H699.68L679.77,47.9,659.23,10.74H608.38l39.18,65.48ZM542.7,92.65V34.38h3.68c13.32,0,20.29,9.86,20.29,29.07S560.2,92.52,547.4,92.52h-4.7Zm-47,31.35h60.61C591.52,124,613,102.64,613,67.88c0-35.9-23.08-57.27-61.5-57.14H495.79V124ZM404.88,63.83c0-20.23,4.56-29.33,15-29.33S435.06,43.73,435.06,64c0,20.6-4.57,29.07-15.22,29.07S404.88,84.43,404.88,63.83Zm15,62.82c38.42,0,62.26-22.75,62.26-59.53.12-36.54-23.46-58.91-62.26-58.91-38,0-61.49,22.37-62,58.91S381,126.65,419.84,126.65ZM271.11,63.83c0-20.23,4.56-29.33,15-29.33S301.29,43.73,301.29,64c0,20.6-4.57,29.07-15.22,29.07S271.11,84.43,271.11,63.83Zm15,62.82c38.42,0,62.26-22.75,62.26-59.53,0-36.54-23.59-58.91-62.26-58.91-37.91,0-61.49,22.37-62,58.91C223.31,103.65,247.27,126.65,286.07,126.65ZM136.46,124H216V89.49H183.5V10.74h-47ZM56.83,50.81V32.61h5.83c5.58,0,9.38,3.66,9.38,9.1s-3.93,9.1-9.38,9.1Zm0,41.84V72.3h8.62c6.47,0,10.9,4.17,10.9,10.24s-4.43,10.24-10.9,10.24H56.83ZM9.79,124H84.22c22.57,0,39.43-14.92,39.43-34.76,0-16.69-11.16-29.08-28.28-32.74,10.53-2.53,17.5-10.87,17.5-22.12.13-13.91-10.4-23.64-26.75-23.64H9.79Z" transform="translate(0 -0.38)"/>
    <path d="M647.56,124h47V75.46L731,10.74H699.68L679.77,47.9,659.23,10.74H608.38l39.18,65.48ZM542.7,92.65V34.38h3.68c13.32,0,20.29,9.86,20.29,29.07S560.2,92.52,547.4,92.52h-4.7Zm-47,31.35h60.61C591.52,124,613,102.64,613,67.88c0-35.9-23.08-57.27-61.5-57.14H495.79V124ZM404.88,63.83c0-20.23,4.56-29.33,15-29.33S435.06,43.73,435.06,64c0,20.6-4.57,29.07-15.22,29.07S404.88,84.43,404.88,63.83Zm15,62.82c38.42,0,62.26-22.75,62.26-59.53.12-36.54-23.46-58.91-62.26-58.91-38,0-61.49,22.37-62,58.91S381,126.65,419.84,126.65ZM271.11,63.83c0-20.23,4.56-29.33,15-29.33S301.29,43.73,301.29,64c0,20.6-4.57,29.07-15.22,29.07S271.11,84.43,271.11,63.83Zm15,62.82c38.42,0,62.26-22.75,62.26-59.53,0-36.54-23.59-58.91-62.26-58.91-37.91,0-61.49,22.37-62,58.91C223.31,103.65,247.27,126.65,286.07,126.65ZM136.46,124H216V89.49H183.5V10.74h-47ZM56.83,50.81V32.61h5.83c5.58,0,9.38,3.66,9.38,9.1s-3.93,9.1-9.38,9.1Zm0,41.84V72.3h8.62c6.47,0,10.9,4.17,10.9,10.24s-4.43,10.24-10.9,10.24H56.83ZM9.79,124H84.22c22.57,0,39.43-14.92,39.43-34.76,0-16.69-11.16-29.08-28.28-32.74,10.53-2.53,17.5-10.87,17.5-22.12.13-13.91-10.4-23.64-26.75-23.64H9.79Z" transform="translate(0 -0.38)"/>
  </g>
  <path class="cls-2" d="M637.78,116.17h47V67.63L721.21,2.91H689.89L670,40.07,649.44,2.91H598.6l39.18,65.48ZM532.92,84.82V26.55h3.67c13.32,0,20.29,9.86,20.29,29.07S550.41,84.7,537.61,84.7h-4.69Zm-47,31.35h60.6c35.25,0,56.68-21.36,56.68-56.12,0-35.9-23.07-57.27-61.49-57.14H486V116.17ZM395.09,56c0-20.22,4.57-29.33,15-29.33s15.22,9.23,15.22,29.46c0,20.6-4.57,29.07-15.22,29.07S395.09,76.61,395.09,56Zm15,62.82c38.42,0,62.26-22.75,62.26-59.53C472.44,22.76,448.85.38,410.05.38c-38,0-61.49,22.38-62,58.91S371.25,118.82,410.05,118.82ZM261.32,56c0-20.22,4.57-29.33,15-29.33S291.5,35.9,291.5,56.13c0,20.6-4.56,29.07-15.21,29.07S261.32,76.61,261.32,56Zm15,62.82c38.41,0,62.25-22.75,62.25-59.53C338.54,22.76,315,.38,276.29.38c-37.92,0-61.5,22.38-62,58.91C213.52,95.82,237.49,118.82,276.29,118.82Zm-149.62-2.65h79.5V81.66H173.71V2.91h-47ZM47,43V24.78h5.83c5.58,0,9.39,3.66,9.39,9.1S58.33,43,52.87,43Zm0,41.84V64.47h8.62c6.47,0,10.91,4.17,10.91,10.24S62.13,85,55.66,85H47ZM0,116.17H74.43c22.57,0,39.43-14.92,39.43-34.76,0-16.69-11.16-29.08-28.27-32.74,10.52-2.53,17.49-10.87,17.49-22.12.13-13.91-10.39-23.64-26.75-23.64H0Z" transform="translate(0 -0.38)"/>
  <path class="cls-2" d="M637.78,116.17h47V67.63L721.21,2.91H689.89L670,40.07,649.44,2.91H598.6l39.18,65.48ZM532.92,84.82V26.55h3.67c13.32,0,20.29,9.86,20.29,29.07S550.41,84.7,537.61,84.7h-4.69Zm-47,31.35h60.6c35.25,0,56.68-21.36,56.68-56.12,0-35.9-23.07-57.27-61.49-57.14H486V116.17ZM395.09,56c0-20.22,4.57-29.33,15-29.33s15.22,9.23,15.22,29.46c0,20.6-4.57,29.07-15.22,29.07S395.09,76.61,395.09,56Zm15,62.82c38.42,0,62.26-22.75,62.26-59.53C472.44,22.76,448.85.38,410.05.38c-38,0-61.49,22.38-62,58.91S371.25,118.82,410.05,118.82ZM261.32,56c0-20.22,4.57-29.33,15-29.33S291.5,35.9,291.5,56.13c0,20.6-4.56,29.07-15.21,29.07S261.32,76.61,261.32,56Zm15,62.82c38.41,0,62.25-22.75,62.25-59.53C338.54,22.76,315,.38,276.29.38c-37.92,0-61.5,22.38-62,58.91C213.52,95.82,237.49,118.82,276.29,118.82Zm-149.62-2.65h79.5V81.66H173.71V2.91h-47ZM47,43V24.78h5.83c5.58,0,9.39,3.66,9.39,9.1S58.33,43,52.87,43Zm0,41.84V64.47h8.62c6.47,0,10.91,4.17,10.91,10.24S62.13,85,55.66,85H47ZM0,116.17H74.43c22.57,0,39.43-14.92,39.43-34.76,0-16.69-11.16-29.08-28.27-32.74,10.52-2.53,17.49-10.87,17.49-22.12.13-13.91-10.39-23.64-26.75-23.64H0Z" transform="translate(0 -0.38)"/>
  <path class="cls-2" d="M637.78,116.17h47V67.63L721.21,2.91H689.89L670,40.07,649.44,2.91H598.6l39.18,65.48ZM532.92,84.82V26.55h3.67c13.32,0,20.29,9.86,20.29,29.07S550.41,84.7,537.61,84.7h-4.69Zm-47,31.35h60.6c35.25,0,56.68-21.36,56.68-56.12,0-35.9-23.07-57.27-61.49-57.14H486V116.17ZM395.09,56c0-20.22,4.57-29.33,15-29.33s15.22,9.23,15.22,29.46c0,20.6-4.57,29.07-15.22,29.07S395.09,76.61,395.09,56Zm15,62.82c38.42,0,62.26-22.75,62.26-59.53C472.44,22.76,448.85.38,410.05.38c-38,0-61.49,22.38-62,58.91S371.25,118.82,410.05,118.82ZM261.32,56c0-20.22,4.57-29.33,15-29.33S291.5,35.9,291.5,56.13c0,20.6-4.56,29.07-15.21,29.07S261.32,76.61,261.32,56Zm15,62.82c38.41,0,62.25-22.75,62.25-59.53C338.54,22.76,315,.38,276.29.38c-37.92,0-61.5,22.38-62,58.91C213.52,95.82,237.49,118.82,276.29,118.82Zm-149.62-2.65h79.5V81.66H173.71V2.91h-47ZM47,43V24.78h5.83c5.58,0,9.39,3.66,9.39,9.1S58.33,43,52.87,43Zm0,41.84V64.47h8.62c6.47,0,10.91,4.17,10.91,10.24S62.13,85,55.66,85H47ZM0,116.17H74.43c22.57,0,39.43-14.92,39.43-34.76,0-16.69-11.16-29.08-28.27-32.74,10.52-2.53,17.49-10.87,17.49-22.12.13-13.91-10.39-23.64-26.75-23.64H0Z" transform="translate(0 -0.38)"/>
  <path class="cls-2" d="M637.78,116.17h47V67.63L721.21,2.91H689.89L670,40.07,649.44,2.91H598.6l39.18,65.48ZM532.92,84.82V26.55h3.67c13.32,0,20.29,9.86,20.29,29.07S550.41,84.7,537.61,84.7h-4.69Zm-47,31.35h60.6c35.25,0,56.68-21.36,56.68-56.12,0-35.9-23.07-57.27-61.49-57.14H486V116.17ZM395.09,56c0-20.22,4.57-29.33,15-29.33s15.22,9.23,15.22,29.46c0,20.6-4.57,29.07-15.22,29.07S395.09,76.61,395.09,56Zm15,62.82c38.42,0,62.26-22.75,62.26-59.53C472.44,22.76,448.85.38,410.05.38c-38,0-61.49,22.38-62,58.91S371.25,118.82,410.05,118.82ZM261.32,56c0-20.22,4.57-29.33,15-29.33S291.5,35.9,291.5,56.13c0,20.6-4.56,29.07-15.21,29.07S261.32,76.61,261.32,56Zm15,62.82c38.41,0,62.25-22.75,62.25-59.53C338.54,22.76,315,.38,276.29.38c-37.92,0-61.5,22.38-62,58.91C213.52,95.82,237.49,118.82,276.29,118.82Zm-149.62-2.65h79.5V81.66H173.71V2.91h-47ZM47,43V24.78h5.83c5.58,0,9.39,3.66,9.39,9.1S58.33,43,52.87,43Zm0,41.84V64.47h8.62c6.47,0,10.91,4.17,10.91,10.24S62.13,85,55.66,85H47ZM0,116.17H74.43c22.57,0,39.43-14.92,39.43-34.76,0-16.69-11.16-29.08-28.27-32.74,10.52-2.53,17.49-10.87,17.49-22.12.13-13.91-10.39-23.64-26.75-23.64H0Z" transform="translate(0 -0.38)"/>
  <path class="cls-2" d="M637.78,116.17h47V67.63L721.21,2.91H689.89L670,40.07,649.44,2.91H598.6l39.18,65.48ZM532.92,84.82V26.55h3.67c13.32,0,20.29,9.86,20.29,29.07S550.41,84.7,537.61,84.7h-4.69Zm-47,31.35h60.6c35.25,0,56.68-21.36,56.68-56.12,0-35.9-23.07-57.27-61.49-57.14H486V116.17ZM395.09,56c0-20.22,4.57-29.33,15-29.33s15.22,9.23,15.22,29.46c0,20.6-4.57,29.07-15.22,29.07S395.09,76.61,395.09,56Zm15,62.82c38.42,0,62.26-22.75,62.26-59.53C472.44,22.76,448.85.38,410.05.38c-38,0-61.49,22.38-62,58.91S371.25,118.82,410.05,118.82ZM261.32,56c0-20.22,4.57-29.33,15-29.33S291.5,35.9,291.5,56.13c0,20.6-4.56,29.07-15.21,29.07S261.32,76.61,261.32,56Zm15,62.82c38.41,0,62.25-22.75,62.25-59.53C338.54,22.76,315,.38,276.29.38c-37.92,0-61.5,22.38-62,58.91C213.52,95.82,237.49,118.82,276.29,118.82Zm-149.62-2.65h79.5V81.66H173.71V2.91h-47ZM47,43V24.78h5.83c5.58,0,9.39,3.66,9.39,9.1S58.33,43,52.87,43Zm0,41.84V64.47h8.62c6.47,0,10.91,4.17,10.91,10.24S62.13,85,55.66,85H47ZM0,116.17H74.43c22.57,0,39.43-14.92,39.43-34.76,0-16.69-11.16-29.08-28.27-32.74,10.52-2.53,17.49-10.87,17.49-22.12.13-13.91-10.39-23.64-26.75-23.64H0Z" transform="translate(0 -0.38)"/>
</svg>
