<svg width="233" height="50" viewBox="0 0 233 50" fill="none" xmlns="http://www.w3.org/2000/svg">
<path d="M221.652 26.8802H182.266C179.752 21.344 174.165 17.5139 167.705 17.5139H159.465C159.5 17.2006 159.5 16.8872 159.5 16.5738V15.9471C159.5 7.13788 152.342 0 143.508 0H28.3874C19.5185 0 12.3605 7.13788 12.3605 15.9471V16.539C12.3605 16.9916 12.3955 17.4443 12.4304 17.8969C5.30735 19.5334 0 25.8705 0 33.461V34.0529C0 42.8621 7.15794 50 15.9919 50H112.083H221.617C227.902 50 233 44.9164 233 38.649V38.2312C233.035 31.9638 227.937 26.8802 221.652 26.8802Z" fill="#F1C650"/>
</svg>
