<svg width="233" height="50" viewBox="0 0 233 50" fill="none" xmlns="http://www.w3.org/2000/svg">
<path d="M11.3481 26.8802H50.7343C53.2483 21.344 58.835 17.5139 65.2946 17.5139H73.535C73.5001 17.2006 73.5001 16.8872 73.5001 16.5738V15.9471C73.5001 7.13788 80.658 0 89.492 0H204.613C213.482 0 220.639 7.13788 220.639 15.9471V16.539C220.639 16.9916 220.605 17.4443 220.57 17.8969C227.693 19.5334 233 25.8705 233 33.461V34.0529C233 42.8621 225.842 50 217.008 50H120.917H11.3831C5.09806 50 0.000174812 44.9164 0.000174812 38.649V38.2312C-0.034742 31.9638 5.06311 26.8802 11.3481 26.8802Z" fill="#F1C650"/>
</svg>
