<svg width="1343" height="255" viewBox="0 0 1343 255" fill="none" xmlns="http://www.w3.org/2000/svg">
<path d="M1338.73 243.557H1334.8C1334.8 243.445 1334.8 243.333 1334.8 243.221C1334.8 240.905 1332.89 239 1330.49 239H1298.14C1295.77 239 1293.82 240.868 1293.82 243.221C1293.82 243.333 1293.82 243.445 1293.82 243.557H1281.31C1278.95 243.557 1277 245.425 1277 247.779C1277 250.095 1278.91 252 1281.31 252H1338.69C1341.05 252 1343 250.132 1343 247.779C1343.04 245.463 1341.09 243.557 1338.73 243.557Z" fill="#F1C650"/>
<path d="M380.662 243.722H333.516C333.516 243.582 333.516 243.441 333.516 243.3C333.516 240.392 331.17 238 328.215 238H288.434C285.525 238 283.133 240.345 283.133 243.3C283.133 243.441 283.133 243.582 283.133 243.722H278.301C275.392 243.722 273 246.068 273 249.023C273 251.931 275.346 254.323 278.301 254.323H380.615C383.524 254.323 385.916 251.978 385.916 249.023C385.916 246.114 383.57 243.722 380.662 243.722Z" fill="#F1C650"/>
<path d="M254.947 101.181H209.645C206.753 94.7591 200.327 90.3162 192.897 90.3162H183.419C183.459 89.9526 183.459 89.5891 183.459 89.2256V88.4986C183.459 78.2799 175.226 70 165.065 70H32.6516C22.4504 70 14.2173 78.2799 14.2173 88.4986V89.1852C14.2173 89.7103 14.2574 90.2354 14.2976 90.7604C6.10459 92.6588 0 100.01 0 108.815V109.501C0 119.72 8.23317 128 18.3941 128H128.919H254.907C262.136 128 268 122.103 268 114.833V114.348C268.04 107.078 262.176 101.181 254.947 101.181Z" fill="#F1C650"/>
<path d="M1147.1 37.0001H1322.65C1327.64 37.0001 1331.75 32.9771 1331.75 27.9081C1331.75 22.9196 1327.72 18.8162 1322.65 18.8162H1147.1C1142.11 18.8162 1138 22.8391 1138 27.9081C1138 32.8966 1142.02 37.0001 1147.1 37.0001Z" fill="#F1C650"/>
<path d="M1169.62 27H1279.38C1287.4 27 1294 23.0177 1294 18C1294 13.0619 1287.53 9 1279.38 9H1169.62C1161.6 9 1155 12.9823 1155 18C1155 23.0177 1161.6 27 1169.62 27Z" fill="#F1C650"/>
<path d="M1176 18H1251C1256.49 18 1261 14.0177 1261 9C1261 4.06195 1256.58 0 1251 0H1176C1170.51 0 1166 3.9823 1166 9C1166 14.0177 1170.51 18 1176 18Z" fill="#F1C650"/>
</svg>
