<svg width="72" height="31" viewBox="0 0 72 31" fill="none" xmlns="http://www.w3.org/2000/svg">
<path d="M69.6266 10.2745C69.4859 10.1807 69.3921 10.0399 69.3921 9.85231C69.3921 9.7116 69.439 9.47709 69.439 9.19566C69.439 3.70785 57.758 1.87856 55.4594 1.87856C54.1927 1.87856 52.9261 2.01928 51.7064 2.20689C50.6275 1.31571 48.751 0.189997 46.1709 0.00237934C45.6079 -0.0445251 45.2327 0.612131 45.5141 1.08118C45.7956 1.50332 46.0771 2.01929 46.2647 2.62904C46.4993 3.33261 46.2178 4.08306 45.561 4.4583C40.4946 7.27257 36.6009 12.1975 34.959 18.1544C34.443 19.8899 27.3124 19.8899 27.8754 21.1094C28.0161 21.3908 28.2507 21.5315 28.5791 21.5315H38.0552C38.7589 21.5315 39.3687 20.9687 39.3687 20.2182C39.3687 19.7492 38.4305 19.3739 38.4305 19.3739C38.0083 19.1863 37.9614 18.9987 38.149 18.7642C42.8871 13.8392 49.1263 10.6966 56.1161 10.2275C56.4914 10.1806 56.726 10.6497 56.4914 10.9311C55.9754 11.6347 55.1779 12.3852 54.0989 12.948C53.5829 13.2294 53.7705 13.9799 54.3804 13.9799C56.2569 13.933 58.9777 13.2763 61.3233 10.3683C64.654 10.7904 67.7971 11.8223 70.6587 13.3701C70.8464 13.464 71.1278 13.4171 71.2686 13.2294C71.55 12.9011 71.55 12.3852 71.3155 12.0568C70.9871 11.494 70.3772 10.7435 69.6266 10.2745Z" fill="#D03F36"/>
<path d="M37.2564 28.8017C36.9749 27.6759 32.2368 26.8316 26.7013 26.8786C25.0593 26.8786 23.5582 26.9724 22.1977 27.16C20.8373 26.8786 19.0078 26.7379 16.9906 26.7848C13.1438 26.8317 10.2353 27.4883 10.4229 28.2388L10.5168 28.3326H10.4699C9.34398 28.1919 7.98355 28.145 6.57621 28.145C2.72946 28.1919 -0.179056 28.8486 0.00859039 29.599C0.196237 30.3495 3.48005 30.9593 7.32679 30.9124C8.45267 30.9124 9.48471 30.8185 10.4229 30.7247C11.5488 30.8654 12.9093 30.9124 14.3166 30.9124C16.7091 30.8654 18.7732 30.6309 19.8991 30.2557C21.8694 30.6778 24.731 30.9124 27.8271 30.9124C33.3158 30.8654 37.5378 29.9274 37.2564 28.8017Z" fill="#DDE2EA"/>
<path d="M31.4876 4.59907C31.3469 4.22383 31.0185 3.42647 30.221 3.00433C25.7644 0.659113 17.7425 4.7867 17.7425 4.7867C17.7425 4.7867 15.397 3.56718 12.5823 4.69288C12.207 4.8336 12.1601 5.34954 12.4885 5.53716C12.9107 5.81858 13.4736 6.24073 13.8489 6.80358C14.0835 7.17882 14.0365 7.69478 13.7082 8.02311C12.6761 9.05501 11.7379 10.2276 10.8935 11.5409C9.34538 13.9331 8.87627 16.6535 7.93804 19.0925C7.14054 21.2502 3.05924 20.4997 3.05924 21.8599C3.05924 21.8599 3.01233 22.329 3.716 22.329H9.11083C9.34539 22.329 9.53303 22.1413 9.53303 21.9068C9.53303 21.344 8.68863 20.828 8.68863 20.828C11.3157 16.2314 15.5846 12.1976 21.1202 9.52403C21.8708 9.1957 22.5744 8.86737 23.325 8.58594C23.5596 8.49214 23.7941 8.67976 23.7941 8.91428C23.841 9.89927 23.7941 11.5878 22.9966 12.6197C22.7621 12.9481 23.0905 13.3702 23.4188 13.1826C24.5916 12.6197 26.7027 11.5878 26.6557 7.46026C29.0013 6.80359 31.3938 6.52215 33.6925 6.47524C33.8801 6.47524 34.0209 6.38145 34.0678 6.19383C34.2085 5.81859 33.9739 5.39645 33.5987 5.25574C33.0826 5.06812 32.3789 4.8336 31.7691 4.7867C31.6753 4.8336 31.5345 4.73978 31.4876 4.59907Z" fill="#D03F36"/>
</svg>
