<svg width="130" height="96" viewBox="0 0 130 96" fill="none" xmlns="http://www.w3.org/2000/svg">
<g clip-path="url(#clip0_66_21548)">
<path d="M6.75207 32.954L6.7169 32.9777L6.68047 32.9993C4.5367 34.2708 2.82028 36.5008 1.87592 38.133L1.84138 38.1927L1.80153 38.249C1.45204 38.7423 1.47 39.5824 1.86467 40.0467L1.89626 40.0838L1.90286 40.0927C1.90688 40.094 1.91158 40.0953 1.9169 40.0964C1.92569 40.0983 1.93465 40.0994 1.94308 40.0998C1.9449 40.0999 1.94662 40.1 1.94823 40.1C10.8902 35.2334 20.7106 31.9874 31.1153 30.6576L31.9507 30.5508L32.4768 31.2086C39.3487 39.8002 47.247 41.7037 52.6704 41.8454C52.8057 41.8429 52.859 41.8047 52.8752 41.7918C52.9008 41.7716 52.9243 41.739 52.936 41.694C52.9479 41.6483 52.9427 41.6091 52.9319 41.5827C52.9257 41.5676 52.9045 41.5199 52.8073 41.4645C49.2996 39.616 46.6874 37.15 44.9743 34.8048C44.1989 33.8302 44.254 32.6053 44.7051 31.7307C45.164 30.8409 46.1612 30.0745 47.4557 30.215C69.341 31.7053 88.8571 41.6339 103.656 57.1465L103.704 57.196L103.746 57.2495C104.153 57.762 104.666 58.6805 104.23 59.749C103.868 60.6366 103.014 61.1303 102.319 61.4416L102.293 61.4533L102.269 61.4628L102.268 61.4632L102.268 61.4633L102.268 61.4635L102.267 61.4637L102.266 61.4639L102.254 61.4691C102.24 61.4751 102.216 61.4851 102.185 61.4989C102.121 61.5268 102.027 61.5696 101.912 61.6257C101.678 61.7397 101.377 61.8999 101.085 62.091C100.784 62.2886 100.55 62.482 100.407 62.6479C100.361 62.7007 100.335 62.7384 100.321 62.7617C100.358 64.2015 101.522 65.2637 102.86 65.2637H132.001C132.286 65.2637 132.439 65.2037 132.522 65.153C132.526 65.151 132.529 65.1489 132.533 65.1467C132.262 64.9943 131.843 64.8095 131.237 64.6063C129.672 64.0816 127.468 63.6213 125 63.1063C124.739 63.0518 124.475 62.9967 124.209 62.9409C121.493 62.3715 118.554 61.7295 116.186 60.8717C115.002 60.4425 113.885 59.9333 112.985 59.3046C112.094 58.6823 111.275 57.8445 110.942 56.7152L110.938 56.7009L110.934 56.6865C105.987 38.5886 94.2627 23.6513 79.0445 15.1269L79.0366 15.1225L79.0287 15.1179C76.3923 13.599 75.2512 10.5384 76.1838 7.69167C76.808 5.65315 77.7341 3.94051 78.6444 2.55791C78.7442 2.37208 78.7505 2.10057 78.5937 1.83474C78.4375 1.56992 78.2237 1.47832 78.0277 1.49479L78.0198 1.49545L78.0118 1.49604C70.4676 2.04924 64.9827 5.36936 61.978 7.84806L61.4587 8.27642L60.7935 8.17324C57.0814 7.59741 53.2702 7.17278 49.4825 7.17278C46.1376 7.17278 35.5615 8.55517 25.844 12.048C20.9914 13.7922 16.4665 16.0236 13.1809 18.7867C9.90803 21.5391 7.99232 24.7011 7.99232 28.3637C7.99232 28.7205 8.02177 29.0585 8.05634 29.3897C8.06091 29.4334 8.066 29.4803 8.07136 29.5296C8.10023 29.7952 8.13659 30.1297 8.13659 30.4001C8.13659 31.5581 7.53143 32.4302 6.75207 32.954ZM100.306 62.7899C100.306 62.7899 100.306 62.7891 100.307 62.7874C100.306 62.7891 100.306 62.79 100.306 62.7899ZM132.858 65.3754C132.86 65.3773 132.86 65.3782 132.861 65.3782C132.861 65.3782 132.86 65.3772 132.858 65.3754Z" fill="#D03F36" stroke="#59381A" stroke-width="3"/>
<path d="M15.4567 89.309C16.3222 85.8181 30.8927 83.1999 47.9157 83.3453C52.9649 83.3453 57.5813 83.6362 61.7649 84.2181C65.9485 83.3453 71.5747 82.909 77.778 83.0544C89.6075 83.1999 98.5517 85.2362 97.9747 87.5635L97.6862 87.8544H97.8304C101.293 87.4181 105.476 87.2726 109.804 87.2726C121.634 87.4181 130.578 89.4544 130.001 91.7817C129.424 94.109 119.326 95.9999 107.496 95.8544C104.034 95.8544 100.86 95.5635 97.9747 95.2726C94.5124 95.709 90.3288 95.8544 86.0009 95.8544C78.6436 95.709 72.296 94.9817 68.8337 93.8181C62.7747 95.1271 53.9747 95.8544 44.4534 95.8544C27.5747 95.709 14.4468 92.6544 15.4567 89.309Z" fill="#DDE2EA"/>
</g>
<defs>
<clipPath id="clip0_66_21548">
<rect width="130" height="96" fill="white" transform="matrix(-1 0 0 1 130 0)"/>
</clipPath>
</defs>
</svg>
