<svg width="23" height="23" viewBox="0 0 23 23" fill="none" xmlns="http://www.w3.org/2000/svg">
<path fill-rule="evenodd" clip-rule="evenodd" d="M0 4.75C0 3.55653 0.474106 2.41193 1.31802 1.56802C2.16193 0.724106 3.30653 0.25 4.5 0.25H18C19.1935 0.25 20.3381 0.724106 21.182 1.56802C22.0259 2.41193 22.5 3.55653 22.5 4.75V18.25C22.5 19.4435 22.0259 20.5881 21.182 21.432C20.3381 22.2759 19.1935 22.75 18 22.75H4.5C3.30653 22.75 2.16193 22.2759 1.31802 21.432C0.474106 20.5881 0 19.4435 0 18.25V4.75ZM4.5 2.5C3.90326 2.5 3.33097 2.73705 2.90901 3.15901C2.48705 3.58097 2.25 4.15326 2.25 4.75V18.25C2.25 18.8467 2.48705 19.419 2.90901 19.841C3.33097 20.2629 3.90326 20.5 4.5 20.5H11.25V12.625H10.125C9.82663 12.625 9.54048 12.5065 9.32951 12.2955C9.11853 12.0845 9 11.7984 9 11.5C9 11.2016 9.11853 10.9155 9.32951 10.7045C9.54048 10.4935 9.82663 10.375 10.125 10.375H11.25V8.6875C11.25 7.64321 11.6648 6.64169 12.4033 5.90327C13.1417 5.16484 14.1432 4.75 15.1875 4.75H15.8625C16.1609 4.75 16.447 4.86853 16.658 5.07951C16.869 5.29048 16.9875 5.57663 16.9875 5.875C16.9875 6.17337 16.869 6.45952 16.658 6.67049C16.447 6.88147 16.1609 7 15.8625 7H15.1875C14.9659 7 14.7465 7.04365 14.5417 7.12845C14.337 7.21326 14.151 7.33756 13.9943 7.49426C13.8376 7.65096 13.7133 7.83698 13.6285 8.04172C13.5436 8.24646 13.5 8.46589 13.5 8.6875V10.375H15.8625C16.1609 10.375 16.447 10.4935 16.658 10.7045C16.869 10.9155 16.9875 11.2016 16.9875 11.5C16.9875 11.7984 16.869 12.0845 16.658 12.2955C16.447 12.5065 16.1609 12.625 15.8625 12.625H13.5V20.5H18C18.5967 20.5 19.169 20.2629 19.591 19.841C20.0129 19.419 20.25 18.8467 20.25 18.25V4.75C20.25 4.15326 20.0129 3.58097 19.591 3.15901C19.169 2.73705 18.5967 2.5 18 2.5H4.5Z" fill="#54362C"/>
</svg>
