<svg width="28" height="16" viewBox="0 0 28 16" fill="none" xmlns="http://www.w3.org/2000/svg">
<path d="M0.202213 10.9916L1.91677 9.47901C2.82447 8.77313 3.32871 7.66386 3.32871 6.55462C3.32871 2.92437 6.25355 0 9.78349 0H14.4228C16.9442 0 18.9614 0.504226 20.2725 1.41179C21.5836 2.31935 22.2896 3.5294 22.2896 4.84032C22.2896 5.5462 21.8862 6.15125 21.2811 6.35293L27.4332 4.13443C27.7358 4.03359 27.9375 4.23529 27.9375 4.53781V10.8907C27.9375 11.1933 27.6349 11.395 27.4332 11.2941L20.4742 8.87393C20.8776 9.07562 21.1802 9.27731 21.3819 9.57983C21.987 10.1849 22.2896 10.8908 22.2896 11.7983C22.3905 13.6135 20.7768 15.126 18.8605 15.126H10.8929C9.58176 15.126 8.16979 14.8235 7.06038 14.1176L3.73216 12.2017H0.403937C0.202225 12.2017 0.00048956 12 0.00048956 11.7983V11.3949C0.00048956 11.1933 0.000501868 11.0925 0.202213 10.9916ZM6.05182 7.36133C6.95953 7.36133 7.56466 6.65547 7.56466 5.74791C7.56466 4.84035 6.85867 4.13443 6.05182 4.13443C5.14412 4.13443 4.43816 4.84035 4.43816 5.74791C4.43816 6.65547 5.14412 7.36133 6.05182 7.36133Z" fill="#56382E"/>
</svg>
