<svg width="49" height="36" viewBox="0 0 49 36" fill="none" xmlns="http://www.w3.org/2000/svg">
<path d="M27.7353 10.9916L26.0207 9.47901C25.113 8.77313 24.6088 7.66386 24.6088 6.55462C24.6088 2.92437 21.684 0 18.154 0H13.5147C10.9933 0 8.97612 0.504226 7.665 1.41179C6.35388 2.31935 5.64789 3.5294 5.64789 4.84032C5.64789 5.5462 6.05131 6.15125 6.65644 6.35293L0.504278 4.13443C0.201711 4.03359 0 4.23529 0 4.53781V10.8907C0 11.1933 0.302567 11.395 0.504278 11.2941L7.46334 8.87393C7.05992 9.07562 6.75732 9.27731 6.55561 9.57983C5.95048 10.1849 5.64789 10.8908 5.64789 11.7983C5.54703 13.6135 7.16075 15.126 9.077 15.126H17.0446C18.3557 15.126 19.7677 14.8235 20.8771 14.1176L24.2053 12.2017H27.5336C27.7353 12.2017 27.937 12 27.937 11.7983V11.3949C27.937 11.1933 27.937 11.0925 27.7353 10.9916ZM21.8857 7.36133C20.978 7.36133 20.3728 6.65547 20.3728 5.74791C20.3728 4.84035 21.0788 4.13443 21.8857 4.13443C22.7934 4.13443 23.4993 4.84035 23.4993 5.74791C23.4993 6.65547 22.7934 7.36133 21.8857 7.36133Z" fill="#56382E"/>
<path d="M48.7138 31.8656L46.9992 30.353C46.0915 29.6471 45.5873 28.5379 45.5873 27.4286C45.5873 23.7984 42.6625 20.874 39.1325 20.874H34.4932C31.9718 20.874 29.9547 21.3782 28.6436 22.2858C27.3325 23.1933 26.6265 24.4034 26.6265 25.7143C26.6265 26.4202 27.0299 27.0253 27.635 27.227L21.4828 25.0085C21.1802 24.9076 20.9785 25.1093 20.9785 25.4118V31.7648C20.9785 32.0673 21.2811 32.269 21.4828 32.1682L28.4419 29.748C28.0384 29.9496 27.7358 30.1513 27.5341 30.4539C26.929 31.0589 26.6265 31.7648 26.6265 32.6724C26.5256 34.4875 28.1393 36.0001 30.0555 36.0001H38.0231C39.3343 36.0001 40.7462 35.6975 41.8556 34.9917L45.1839 33.0757H48.5121C48.7138 33.0757 48.9155 32.874 48.9155 32.6724V32.269C48.9155 32.1681 48.8147 31.9664 48.7138 31.8656ZM42.8642 28.2354C41.9565 28.2354 41.3514 27.5295 41.3514 26.6219C41.3514 25.7144 42.0573 25.0085 42.8642 25.0085C43.7719 25.0085 44.4779 25.7144 44.4779 26.6219C44.377 27.5295 43.671 28.2354 42.8642 28.2354Z" fill="#56382E"/>
</svg>
