<svg width="139" height="134" viewBox="0 0 139 134" fill="none" xmlns="http://www.w3.org/2000/svg">
<path d="M126.733 79.4186C124.237 81.4055 121.376 82.962 118.149 83.9886C116.385 84.5515 114.622 84.9489 112.858 85.1476C111.661 85.2801 110.43 85.3463 109.232 85.3132C105.905 85.2801 102.644 84.6178 99.5832 83.4256L96.6553 82.2334L89.2358 79.2199L73.8977 72.961L73.9309 72.1993L74.0308 69.55L72.3672 67.4637L90.4668 46.2364C90.6997 45.9715 90.8993 45.7066 91.1322 45.4085C93.6276 42.1632 95.391 38.3548 96.2228 34.2154C97.2542 33.6193 98.3189 33.1225 99.4501 32.692C100.016 32.4602 100.581 32.2284 101.18 32.0628C105.838 30.5395 110.629 30.3408 115.121 31.268C124.503 33.1556 132.588 39.8782 135.749 49.6143C135.982 50.3097 136.182 51.0051 136.348 51.7337C138.91 62.1652 134.917 72.961 126.733 79.4186Z" fill="#DE5048"/>
<path d="M110.396 127.304C110.03 127.569 109.631 127.834 109.265 128.099C103.176 132.073 96.0228 133.298 89.3019 132.073C82.6144 130.848 76.3926 127.172 72.0674 121.277C71.0027 119.787 70.0711 118.23 69.3391 116.641C67.7088 113.164 66.9103 109.488 66.8438 105.779V104.388C66.8438 104.09 66.8437 103.792 66.877 103.527L68.9731 76.0076L69.7051 75.8089L72.267 75.0804L73.9638 72.9609L89.3019 79.2198L96.7215 82.2334L99.6493 83.4256C102.677 84.6177 105.938 85.2801 109.298 85.3132C110.496 85.3463 111.694 85.2801 112.925 85.1476C114.222 86.3398 115.42 87.6644 116.518 89.1546C125.401 101.341 122.673 118.429 110.396 127.304Z" fill="#DE5048"/>
<path d="M96.7865 28.8174V28.9829C96.7865 30.7712 96.5869 32.4932 96.2542 34.1821C95.4224 38.3547 93.659 42.1631 91.1637 45.3753C90.964 45.6402 90.7311 45.9383 90.4982 46.2032L72.3986 67.4305L71.9328 66.8344L69.3044 66.2715L65.8774 65.5429L52.1031 43.3552C49.7075 39.6131 46.4137 36.434 42.3878 34.2153C42.0551 32.4932 41.8555 30.705 41.8555 28.8505C41.8555 25.3402 42.5209 21.9955 43.7187 18.9157C45.9146 13.286 49.9737 8.55042 55.0975 5.47065C59.2231 2.95384 64.0808 1.52985 69.2711 1.52985C84.5094 1.49674 96.7865 13.7165 96.7865 28.8174Z" fill="#DE5048"/>
<path d="M74.0968 69.5166L73.997 72.1659L73.9637 72.9276L72.2669 75.047L69.705 75.7755L68.973 75.9742L66.3779 75.047L63.1505 73.5236L61.7199 72.8613L38.1637 61.7675L35.4688 60.476C35.9013 60.0786 36.1009 59.5156 36.0676 58.9526L64.3483 65.1122L65.9453 65.4434L69.3723 66.1719L72.0007 66.7349L72.4665 67.331L74.0968 69.5166Z" fill="#F1C45F"/>
<path d="M69.3397 116.641C68.6743 118.131 67.8092 119.555 66.8443 120.946C66.7778 121.045 66.7112 121.145 66.6114 121.277C61.2215 128.629 52.8704 132.537 44.3862 132.537C38.7966 132.537 33.1404 130.848 28.2828 127.304C16.0057 118.429 13.2774 101.341 22.1941 89.1548C23.2588 87.6646 24.4566 86.34 25.7874 85.1478C30.3789 85.6776 34.9038 85.0484 39.0627 83.4258L44.3862 81.2401L63.1512 73.5903L66.3785 75.1137L68.9737 76.0409L66.8776 103.56C66.8443 103.825 66.8443 104.123 66.8443 104.421C66.8443 104.885 66.8443 105.348 66.8443 105.812C66.9109 109.455 67.7094 113.164 69.3397 116.641Z" fill="#DE5048"/>
<path d="M66.8433 104.388V105.779C66.81 105.315 66.81 104.851 66.8433 104.388Z" fill="#DDE2EA"/>
<path d="M33.0726 57.6613C33.9044 57.0652 35.0689 57.2639 35.6678 58.0587C35.8674 58.3568 36.0005 58.6548 36.0005 58.986L64.2812 65.1455L65.8782 65.4767L52.1038 43.289C49.7083 39.5469 46.4144 36.3678 42.3886 34.149C40.8581 33.288 39.1945 32.5595 37.4644 31.9965C23.0246 27.3272 7.55344 35.1756 2.86217 49.5479C1.93057 52.3628 1.49805 55.2107 1.49805 57.9925C1.49805 69.5168 8.8843 80.2133 20.4627 83.9554C22.2261 84.5183 23.9895 84.8826 25.7196 85.1144C30.3111 85.6443 34.836 85.0151 38.9949 83.3924L44.3183 81.2067L63.0834 73.557L61.6527 72.8946L38.0966 61.8008L35.4016 60.5093C35.3351 60.5755 35.3018 60.6086 35.2352 60.6418C34.4035 61.2378 33.239 61.0723 32.6401 60.2444C32.3739 59.8801 32.2741 59.4496 32.3074 59.0522L28.9802 57.4626L32.5735 58.2574C32.6733 58.0256 32.873 57.8269 33.0726 57.6613ZM25.5533 59.7145C25.2205 60.6749 24.1891 61.2378 23.2243 60.9067C22.2261 60.5755 21.6938 59.5489 22.0265 58.5555C22.3592 57.5951 23.3906 57.0652 24.3555 57.3633C24.9544 57.562 25.3869 57.9925 25.5533 58.5555C25.6863 58.9197 25.6863 59.3502 25.5533 59.7145ZM26.8841 54.5815C26.5847 54.8134 26.2187 54.9458 25.7862 54.9458C24.7547 54.9458 23.923 54.1179 23.923 53.0913C23.923 52.0647 24.7547 51.2368 25.7862 51.2368C26.8176 51.2368 27.6494 52.0647 27.6494 53.0913C27.6494 53.6874 27.3499 54.2504 26.8841 54.5815ZM30.0782 61.4034C30.91 61.9995 31.0763 63.1586 30.4774 63.9865C29.8785 64.8144 28.714 65.0131 27.8823 64.3838C27.0505 63.7878 26.8841 62.6287 27.483 61.8008C27.849 61.3041 28.4146 61.0391 28.9802 61.0391C29.3795 61.0391 29.7455 61.1716 30.0782 61.4034ZM31.1096 54.5815C30.8101 54.3497 30.544 54.0186 30.4442 53.6543C30.1114 52.6939 30.6771 51.6342 31.6419 51.3362C32.6401 51.005 33.6715 51.5349 34.0042 52.5284C34.3036 53.4887 33.7713 54.5484 32.8064 54.8465C32.2075 55.0121 31.5754 54.9127 31.1096 54.5815Z" fill="#DE5048"/>
<path d="M35.4344 60.5095C35.3679 60.5757 35.3346 60.6088 35.268 60.642C34.4363 61.2381 33.2718 61.0725 32.6729 60.2446C32.4067 59.8803 32.3069 59.4498 32.3402 59.0524C32.3402 58.7875 32.4067 58.5225 32.5731 58.2576C32.7061 58.0258 32.8725 57.8271 33.1054 57.6615C33.9372 57.0654 35.1017 57.2641 35.7006 58.0589C35.9002 58.357 36.0333 58.655 36.0333 58.9862C36.0666 59.5491 35.8669 60.1121 35.4344 60.5095Z" fill="#F1C45F"/>
<path d="M32.7745 54.8466C32.1756 55.0453 31.5767 54.9129 31.1109 54.5817C30.8115 54.3499 30.5453 54.0187 30.4455 53.6545C30.1128 52.6941 30.6784 51.6344 31.6432 51.3364C32.6414 51.0052 33.6728 51.535 34.0055 52.5285C34.2717 53.4889 33.7393 54.5155 32.7745 54.8466Z" fill="#F1C45F"/>
<path d="M32.5738 58.2572C32.4407 58.5221 32.3409 58.787 32.3409 59.052L28.9805 57.4624L32.5738 58.2572Z" fill="#DDE2EA"/>
<path d="M30.5104 63.9864C29.9115 64.8143 28.747 65.013 27.9152 64.3838C27.0834 63.7877 26.9171 62.6286 27.5159 61.8007C27.8819 61.304 28.4475 61.0391 29.0132 61.0391C29.4124 61.0391 29.7784 61.1715 30.1111 61.4033C30.9096 61.9994 31.1093 63.1585 30.5104 63.9864Z" fill="#F1C45F"/>
<path d="M27.6502 53.0913C27.6502 53.6874 27.3508 54.2504 26.885 54.5815C26.5855 54.8133 26.2196 54.9458 25.787 54.9458C24.7556 54.9458 23.9238 54.1179 23.9238 53.0913C23.9238 52.0647 24.7556 51.2368 25.787 51.2368C26.8184 51.2368 27.6502 52.0647 27.6502 53.0913Z" fill="#F1C45F"/>
<path d="M25.5535 59.7145C25.2208 60.6748 24.1894 61.2378 23.2245 60.9066C22.2264 60.5755 21.694 59.5489 22.0268 58.5554C22.3595 57.595 23.3909 57.0652 24.3558 57.3632C24.9546 57.5619 25.3872 57.9924 25.5535 58.5554C25.6866 58.9197 25.6866 59.3502 25.5535 59.7145Z" fill="#F1C45F"/>
<path d="M115.586 31.0034L114.688 31.467Z" fill="#59381A"/>
<path d="M32.4737 58.7542L28.8804 57.9595L28.9802 57.4627L29.1799 56.9991L32.5403 58.5887L32.1078 59.4828L28.7473 57.8932C28.5144 57.7939 28.4146 57.5289 28.4812 57.2971C28.5477 57.0653 28.8139 56.9329 29.0468 56.966L32.6401 57.7608L32.4737 58.7542Z" fill="#59381A"/>
<mask id="path-16-outside-1_66_21558" maskUnits="userSpaceOnUse" x="0" y="0" width="139" height="134" fill="black">
<rect fill="white" width="139" height="134"/>
<path d="M137.646 57.9925C137.646 55.8399 137.413 53.6874 136.88 51.5349C136.714 50.8063 136.514 50.1109 136.281 49.4155C133.054 39.5469 124.803 32.6919 115.254 30.7381C113.424 30.3738 111.561 30.1751 109.664 30.1751C106.803 30.1751 103.908 30.6056 101.047 31.5329C100.448 31.7316 99.8825 31.9303 99.3169 32.1621C99.3169 32.1621 99.3169 32.1621 99.2837 32.1621C98.4851 32.4601 97.6866 32.8244 96.9214 33.2218C97.1543 31.8309 97.2541 30.4069 97.2874 28.9498V28.8174C97.2874 13.4516 84.7773 1 69.3394 1C64.0493 1 59.0918 2.4571 54.8996 5.00702C49.676 8.15304 45.5504 12.9548 43.2879 18.6839C42.0569 21.8299 41.3915 25.2408 41.3915 28.7842C41.3915 30.3076 41.5245 31.7647 41.7574 33.2218C40.4599 32.5595 39.0625 31.9634 37.6318 31.4997C34.7705 30.5725 31.8426 30.142 28.9812 30.142C17.2032 30.142 6.25688 37.6262 2.3974 49.3823C1.4658 52.2303 1 55.1445 1 57.9925C1 69.7155 8.51933 80.6106 20.3307 84.4521C21.7946 84.9157 23.2253 85.2469 24.6892 85.4787C23.6578 86.5053 22.6597 87.6312 21.7946 88.8565C18.2013 93.7908 16.4379 99.5198 16.4379 105.183C16.4379 113.793 20.4305 122.27 27.9498 127.701C32.9073 131.278 38.6632 133 44.3526 133C53.0032 133 61.4874 129.026 66.9772 121.542C67.0437 121.443 67.1435 121.343 67.21 121.211C68.0086 120.085 68.7073 118.926 69.3061 117.767C69.9716 119.058 70.7368 120.317 71.6351 121.542C76.027 127.569 82.3818 131.311 89.1692 132.536C90.8327 132.834 92.5628 133 94.2597 133C99.5166 133 104.807 131.543 109.498 128.496C109.897 128.231 110.263 127.999 110.662 127.701C118.182 122.27 122.174 113.76 122.174 105.183C122.174 99.5198 120.444 93.7908 116.818 88.8565C115.919 87.6312 114.954 86.5053 113.89 85.4787C115.354 85.2469 116.784 84.9157 118.248 84.4521C121.509 83.3924 124.437 81.8028 126.965 79.7827C133.72 74.5504 137.646 66.5033 137.646 57.9925ZM44.2195 19.0482C46.3822 13.5178 50.3747 8.88159 55.3987 5.83492C59.4911 3.38435 64.2489 1.99348 69.3394 1.99348C76.7922 1.99348 83.513 5.00702 88.4039 9.84195C93.2948 14.71 96.2892 21.3994 96.2892 28.8174V28.9829C96.2892 30.7381 96.1229 32.427 95.7569 34.0828C94.9584 38.156 93.195 41.8981 90.7662 45.0773C90.5666 45.3422 90.3337 45.6402 90.134 45.8721L72.4337 66.6357L72.3338 66.5364C72.2673 66.437 72.1675 66.3708 72.0344 66.3708L69.8052 65.8741V38.7521H68.8071V65.6422L66.1786 65.0793L52.5374 43.0572C50.1418 39.3151 46.848 36.136 42.8554 33.851C42.556 32.2283 42.3563 30.5394 42.3563 28.8174C42.3896 25.3733 43.0218 22.0617 44.2195 19.0482ZM73.4983 72.133L73.4651 72.7291L71.9679 74.6167L69.5723 75.3121L69.0067 75.4777L66.6112 74.6167L63.3838 73.0933L61.9532 72.431L38.397 61.3372L36.2677 60.3106C36.4007 60.0788 36.5006 59.847 36.5338 59.582L64.2489 65.6091L65.8459 65.9403L69.2729 66.6688L71.7017 67.1987L72.0677 67.6623L73.6314 69.6162L73.4983 72.133ZM33.3731 58.0587C33.606 57.8931 33.9054 57.7938 34.1716 57.7938C34.6041 57.7938 35.0034 57.9925 35.2695 58.3567C35.4359 58.5886 35.5024 58.7873 35.5024 59.0191C35.5024 59.0522 35.5024 59.1184 35.5024 59.1515C35.5024 59.5158 35.3693 59.8801 35.0699 60.1119L35.0366 60.145L35.0034 60.1781C35.0034 60.1781 35.0034 60.2112 34.9368 60.2444C34.7039 60.4099 34.4045 60.5093 34.1383 60.5093C33.7058 60.5093 33.3065 60.3106 33.0403 59.9463C32.874 59.7145 32.8074 59.4827 32.8074 59.2178C32.8074 59.1846 32.8074 59.1515 32.8074 59.0853V59.0522V59.0191C32.8074 58.8204 32.8407 58.6548 32.9738 58.4892C33.1069 58.3236 33.2067 58.1912 33.3731 58.0587ZM2.03141 57.9925C2.03141 55.2439 2.46394 52.4621 3.36227 49.6804C7.05539 38.3216 17.6357 31.1355 28.9812 31.1355C31.7428 31.1355 34.5376 31.566 37.3323 32.4601C39.0625 33.0231 40.6595 33.7185 42.19 34.5795C46.1493 36.7652 49.4099 39.9112 51.7389 43.5539L64.8811 64.7481L64.4485 64.6488L36.5006 58.5554C36.434 58.2574 36.3009 57.9925 36.1346 57.7275C35.6688 57.0983 34.9368 56.7672 34.2048 56.7672C33.739 56.7672 33.24 56.8996 32.8074 57.1977C32.5413 57.3964 32.3416 57.6282 32.1753 57.9262L29.813 57.1646L31.277 55.1776C31.5764 55.3101 31.9091 55.3763 32.2086 55.3763C32.4415 55.3763 32.7076 55.3432 32.9405 55.277C33.4396 55.1114 33.8389 54.8133 34.1383 54.416C34.4045 54.0186 34.5708 53.5549 34.5708 53.0582C34.5708 52.8264 34.5376 52.5946 34.471 52.3628C34.1383 51.3693 33.2067 50.7401 32.2086 50.7401C31.9757 50.7401 31.7095 50.7732 31.4766 50.8726C30.4784 51.2037 29.8463 52.131 29.8463 53.1244C29.8463 53.3562 29.8796 53.5881 29.9461 53.853C30.0459 54.1841 30.2123 54.4491 30.4452 54.714L28.9812 56.701L27.5173 54.714C27.8833 54.2835 28.1162 53.7536 28.1162 53.1576C28.1162 51.866 27.0515 50.8063 25.7539 50.8063C24.4563 50.8063 23.3916 51.866 23.3916 53.1576C23.3916 54.4491 24.4563 55.5088 25.7539 55.5088C26.0866 55.5088 26.4193 55.4425 26.6855 55.3101L28.1494 57.297L25.8204 58.0587C25.521 57.562 25.0885 57.1977 24.5229 56.999C24.29 56.9328 24.0238 56.8665 23.7909 56.8665C22.7928 56.8665 21.8944 57.4957 21.5617 58.4892C21.4952 58.721 21.4286 58.986 21.4286 59.2178C21.4286 60.2112 22.0608 61.1385 23.0589 61.4696C23.2918 61.5359 23.558 61.569 23.7909 61.569C24.789 61.569 25.7206 60.9398 26.0201 59.9463C26.0866 59.7145 26.1532 59.4496 26.1532 59.2178C26.1532 59.1515 26.1532 59.0522 26.1199 58.986L28.4822 58.2243V60.6749C27.9498 60.8073 27.4175 61.1054 27.0848 61.6021C26.7853 62.0326 26.6522 62.4962 26.6522 62.993C26.6522 63.7215 26.9849 64.417 27.6171 64.8806C28.0496 65.1786 28.5154 65.3442 29.0145 65.3442C29.7465 65.3442 30.4784 65.013 30.9442 64.3838C31.2437 63.9865 31.3768 63.4897 31.3768 63.0261C31.3768 62.2975 31.0441 61.569 30.4119 61.1054C30.1457 60.9067 29.8463 60.7742 29.5136 60.708V58.2574L31.8758 59.0191C31.8758 59.0522 31.8758 59.0853 31.8758 59.1184V59.1515C31.8758 59.2178 31.8758 59.2509 31.8758 59.3171C31.8758 59.7807 32.0089 60.2444 32.3084 60.6417C32.7742 61.271 33.5061 61.6021 34.2048 61.6021C34.6706 61.6021 35.1364 61.4696 35.5357 61.2047L37.9645 62.3638L61.5206 73.4576L61.9199 73.6563L44.1863 80.8756L38.8628 83.0612C35.7686 84.2865 32.4082 84.9488 28.9812 84.9488C27.9498 84.9488 26.8851 84.8826 25.8204 84.7501C24.0903 84.5514 22.3602 84.1872 20.6301 83.6242C9.28457 79.8159 2.03141 69.3181 2.03141 57.9925ZM30.3454 62.9267C30.3454 63.1917 30.2788 63.4897 30.0792 63.7215C29.813 64.0858 29.3805 64.2845 28.9812 64.2845C28.7151 64.2845 28.4156 64.1851 28.1827 64.0196C27.8167 63.7546 27.6171 63.3573 27.6171 62.9267C27.6171 62.6618 27.7169 62.3638 27.8833 62.132C28.1494 61.7677 28.5487 61.569 28.9812 61.569C29.2474 61.569 29.5468 61.6683 29.7797 61.8339C30.1457 62.0657 30.3454 62.4962 30.3454 62.9267ZM31.776 51.7998C31.9091 51.7667 32.0755 51.7336 32.2086 51.7336C32.7742 51.7336 33.3065 52.0978 33.5061 52.6608C33.5394 52.7933 33.5727 52.9257 33.5727 53.0582C33.5727 53.3562 33.4729 53.6212 33.3065 53.853C33.1402 54.0848 32.9073 54.2504 32.6078 54.3497C32.4747 54.3828 32.3084 54.416 32.1753 54.416C31.8758 54.416 31.6097 54.3166 31.3768 54.151C31.1439 53.9854 30.9775 53.7536 30.8777 53.4556C30.8444 53.3231 30.8112 53.1907 30.8112 53.0582C30.8444 52.5283 31.2104 51.9654 31.776 51.7998ZM26.752 52.131C26.9849 52.3959 27.1513 52.727 27.1513 53.0913C27.1513 53.5218 26.9184 53.9523 26.5857 54.1841C26.3528 54.3497 26.0866 54.4491 25.7872 54.4491C25.4212 54.4491 25.0885 54.2835 24.8223 54.0517C24.5894 53.7868 24.4231 53.4556 24.4231 53.0913C24.4231 52.727 24.5894 52.3959 24.8223 52.131C25.0885 51.8991 25.4212 51.7336 25.7872 51.7336C26.1532 51.7336 26.4859 51.866 26.752 52.131ZM22.4933 58.721C22.6929 58.1581 23.2253 57.7938 23.7909 57.7938C23.924 57.7938 24.0571 57.8269 24.2234 57.86C24.656 57.9925 24.9887 58.3236 25.0885 58.721C25.1218 58.8535 25.155 58.986 25.155 59.1515C25.155 59.284 25.1218 59.4165 25.0885 59.5489C24.8889 60.1119 24.3565 60.4762 23.7909 60.4762C23.6578 60.4762 23.5247 60.443 23.3916 60.4099C22.826 60.2112 22.46 59.6814 22.46 59.1184C22.4268 59.0191 22.46 58.8866 22.4933 58.721ZM66.4115 120.648C66.345 120.747 66.2785 120.846 66.2119 120.946C60.9218 128.165 52.737 132.007 44.3859 132.007C38.8961 132.007 33.3398 130.351 28.5487 126.874C21.2955 121.608 17.4361 113.428 17.4361 105.15C17.4361 99.6854 19.0996 94.155 22.5931 89.4195C23.5913 88.0286 24.7225 86.7702 25.9535 85.6443C26.9517 85.7436 27.9831 85.8098 28.9812 85.8098C32.508 85.8098 36.0015 85.1475 39.2288 83.856L44.5522 81.6703L63.1177 74.0868L65.613 75.2459L49.8424 96.8374L50.6409 97.4335L66.5446 75.6764L68.4078 76.3387L66.345 103.461C66.3117 103.759 66.3117 104.057 66.3117 104.322C66.3117 104.553 66.3117 104.785 66.3117 105.017C66.3117 105.249 66.3117 105.481 66.3117 105.712C66.3783 109.388 67.1768 113.097 68.7738 116.541C68.1417 117.998 67.3431 119.356 66.4115 120.648ZM116.086 89.4526C119.579 94.2213 121.243 99.7185 121.243 105.183C121.243 113.462 117.383 121.641 110.13 126.907C109.764 127.172 109.398 127.403 108.999 127.668C104.474 130.616 99.3835 132.007 94.3262 132.007C92.6627 132.007 91.0324 131.841 89.4021 131.543C82.8476 130.351 76.7257 126.741 72.4669 120.946C71.4022 119.489 70.5039 117.965 69.7719 116.409C68.1749 112.998 67.3764 109.388 67.3099 105.746C67.3099 105.514 67.3099 105.282 67.3099 105.083C67.3099 104.851 67.3099 104.62 67.3099 104.421C67.3099 104.123 67.3099 103.825 67.3431 103.593L69.406 76.4049L69.8052 76.3056L72.0344 75.6764L87.9714 97.4997L88.7699 96.9037L72.8995 75.0803L74.1305 73.557L89.1359 79.6834L96.5554 82.6969L99.4833 83.8891C102.578 85.1144 105.871 85.7767 109.298 85.8098C109.531 85.8098 109.764 85.8098 109.997 85.8098C110.895 85.8098 111.827 85.7436 112.759 85.6443C113.923 86.7702 115.054 88.0286 116.086 89.4526ZM126.433 79.0211C124.004 80.9749 121.176 82.4982 118.015 83.4917C116.285 84.0547 114.555 84.419 112.825 84.6177C111.86 84.717 110.895 84.7832 109.964 84.7832C109.731 84.7832 109.498 84.7832 109.298 84.7832C106.004 84.7501 102.81 84.0878 99.8493 82.9287L96.9547 81.7366L89.5351 78.723L74.4965 72.5966V72.1661L74.5963 69.848L97.121 62.5625L100.348 61.5028L100.049 60.5424L96.8216 61.6021L74.2969 68.8876L73.0991 67.3974L90.9325 46.5013C91.1654 46.2363 91.3983 45.9383 91.598 45.6734C94.0933 42.428 95.8567 38.6528 96.7218 34.4802C97.6534 33.9503 98.6515 33.4867 99.6829 33.0893C100.215 32.8575 100.781 32.6588 101.346 32.4601C104.108 31.566 106.903 31.1355 109.664 31.1355C111.494 31.1355 113.291 31.3342 115.054 31.6984C124.237 33.5529 132.222 40.1761 135.317 49.7135C135.549 50.4089 135.749 51.1044 135.915 51.7998C136.415 53.8861 136.647 55.9724 136.647 58.0256C136.647 66.1721 132.854 73.9543 126.433 79.0211Z"/>
</mask>
<path d="M137.646 57.9925C137.646 55.8399 137.413 53.6874 136.88 51.5349C136.714 50.8063 136.514 50.1109 136.281 49.4155C133.054 39.5469 124.803 32.6919 115.254 30.7381C113.424 30.3738 111.561 30.1751 109.664 30.1751C106.803 30.1751 103.908 30.6056 101.047 31.5329C100.448 31.7316 99.8825 31.9303 99.3169 32.1621C99.3169 32.1621 99.3169 32.1621 99.2837 32.1621C98.4851 32.4601 97.6866 32.8244 96.9214 33.2218C97.1543 31.8309 97.2541 30.4069 97.2874 28.9498V28.8174C97.2874 13.4516 84.7773 1 69.3394 1C64.0493 1 59.0918 2.4571 54.8996 5.00702C49.676 8.15304 45.5504 12.9548 43.2879 18.6839C42.0569 21.8299 41.3915 25.2408 41.3915 28.7842C41.3915 30.3076 41.5245 31.7647 41.7574 33.2218C40.4599 32.5595 39.0625 31.9634 37.6318 31.4997C34.7705 30.5725 31.8426 30.142 28.9812 30.142C17.2032 30.142 6.25688 37.6262 2.3974 49.3823C1.4658 52.2303 1 55.1445 1 57.9925C1 69.7155 8.51933 80.6106 20.3307 84.4521C21.7946 84.9157 23.2253 85.2469 24.6892 85.4787C23.6578 86.5053 22.6597 87.6312 21.7946 88.8565C18.2013 93.7908 16.4379 99.5198 16.4379 105.183C16.4379 113.793 20.4305 122.27 27.9498 127.701C32.9073 131.278 38.6632 133 44.3526 133C53.0032 133 61.4874 129.026 66.9772 121.542C67.0437 121.443 67.1435 121.343 67.21 121.211C68.0086 120.085 68.7073 118.926 69.3061 117.767C69.9716 119.058 70.7368 120.317 71.6351 121.542C76.027 127.569 82.3818 131.311 89.1692 132.536C90.8327 132.834 92.5628 133 94.2597 133C99.5166 133 104.807 131.543 109.498 128.496C109.897 128.231 110.263 127.999 110.662 127.701C118.182 122.27 122.174 113.76 122.174 105.183C122.174 99.5198 120.444 93.7908 116.818 88.8565C115.919 87.6312 114.954 86.5053 113.89 85.4787C115.354 85.2469 116.784 84.9157 118.248 84.4521C121.509 83.3924 124.437 81.8028 126.965 79.7827C133.72 74.5504 137.646 66.5033 137.646 57.9925ZM44.2195 19.0482C46.3822 13.5178 50.3747 8.88159 55.3987 5.83492C59.4911 3.38435 64.2489 1.99348 69.3394 1.99348C76.7922 1.99348 83.513 5.00702 88.4039 9.84195C93.2948 14.71 96.2892 21.3994 96.2892 28.8174V28.9829C96.2892 30.7381 96.1229 32.427 95.7569 34.0828C94.9584 38.156 93.195 41.8981 90.7662 45.0773C90.5666 45.3422 90.3337 45.6402 90.134 45.8721L72.4337 66.6357L72.3338 66.5364C72.2673 66.437 72.1675 66.3708 72.0344 66.3708L69.8052 65.8741V38.7521H68.8071V65.6422L66.1786 65.0793L52.5374 43.0572C50.1418 39.3151 46.848 36.136 42.8554 33.851C42.556 32.2283 42.3563 30.5394 42.3563 28.8174C42.3896 25.3733 43.0218 22.0617 44.2195 19.0482ZM73.4983 72.133L73.4651 72.7291L71.9679 74.6167L69.5723 75.3121L69.0067 75.4777L66.6112 74.6167L63.3838 73.0933L61.9532 72.431L38.397 61.3372L36.2677 60.3106C36.4007 60.0788 36.5006 59.847 36.5338 59.582L64.2489 65.6091L65.8459 65.9403L69.2729 66.6688L71.7017 67.1987L72.0677 67.6623L73.6314 69.6162L73.4983 72.133ZM33.3731 58.0587C33.606 57.8931 33.9054 57.7938 34.1716 57.7938C34.6041 57.7938 35.0034 57.9925 35.2695 58.3567C35.4359 58.5886 35.5024 58.7873 35.5024 59.0191C35.5024 59.0522 35.5024 59.1184 35.5024 59.1515C35.5024 59.5158 35.3693 59.8801 35.0699 60.1119L35.0366 60.145L35.0034 60.1781C35.0034 60.1781 35.0034 60.2112 34.9368 60.2444C34.7039 60.4099 34.4045 60.5093 34.1383 60.5093C33.7058 60.5093 33.3065 60.3106 33.0403 59.9463C32.874 59.7145 32.8074 59.4827 32.8074 59.2178C32.8074 59.1846 32.8074 59.1515 32.8074 59.0853V59.0522V59.0191C32.8074 58.8204 32.8407 58.6548 32.9738 58.4892C33.1069 58.3236 33.2067 58.1912 33.3731 58.0587ZM2.03141 57.9925C2.03141 55.2439 2.46394 52.4621 3.36227 49.6804C7.05539 38.3216 17.6357 31.1355 28.9812 31.1355C31.7428 31.1355 34.5376 31.566 37.3323 32.4601C39.0625 33.0231 40.6595 33.7185 42.19 34.5795C46.1493 36.7652 49.4099 39.9112 51.7389 43.5539L64.8811 64.7481L64.4485 64.6488L36.5006 58.5554C36.434 58.2574 36.3009 57.9925 36.1346 57.7275C35.6688 57.0983 34.9368 56.7672 34.2048 56.7672C33.739 56.7672 33.24 56.8996 32.8074 57.1977C32.5413 57.3964 32.3416 57.6282 32.1753 57.9262L29.813 57.1646L31.277 55.1776C31.5764 55.3101 31.9091 55.3763 32.2086 55.3763C32.4415 55.3763 32.7076 55.3432 32.9405 55.277C33.4396 55.1114 33.8389 54.8133 34.1383 54.416C34.4045 54.0186 34.5708 53.5549 34.5708 53.0582C34.5708 52.8264 34.5376 52.5946 34.471 52.3628C34.1383 51.3693 33.2067 50.7401 32.2086 50.7401C31.9757 50.7401 31.7095 50.7732 31.4766 50.8726C30.4784 51.2037 29.8463 52.131 29.8463 53.1244C29.8463 53.3562 29.8796 53.5881 29.9461 53.853C30.0459 54.1841 30.2123 54.4491 30.4452 54.714L28.9812 56.701L27.5173 54.714C27.8833 54.2835 28.1162 53.7536 28.1162 53.1576C28.1162 51.866 27.0515 50.8063 25.7539 50.8063C24.4563 50.8063 23.3916 51.866 23.3916 53.1576C23.3916 54.4491 24.4563 55.5088 25.7539 55.5088C26.0866 55.5088 26.4193 55.4425 26.6855 55.3101L28.1494 57.297L25.8204 58.0587C25.521 57.562 25.0885 57.1977 24.5229 56.999C24.29 56.9328 24.0238 56.8665 23.7909 56.8665C22.7928 56.8665 21.8944 57.4957 21.5617 58.4892C21.4952 58.721 21.4286 58.986 21.4286 59.2178C21.4286 60.2112 22.0608 61.1385 23.0589 61.4696C23.2918 61.5359 23.558 61.569 23.7909 61.569C24.789 61.569 25.7206 60.9398 26.0201 59.9463C26.0866 59.7145 26.1532 59.4496 26.1532 59.2178C26.1532 59.1515 26.1532 59.0522 26.1199 58.986L28.4822 58.2243V60.6749C27.9498 60.8073 27.4175 61.1054 27.0848 61.6021C26.7853 62.0326 26.6522 62.4962 26.6522 62.993C26.6522 63.7215 26.9849 64.417 27.6171 64.8806C28.0496 65.1786 28.5154 65.3442 29.0145 65.3442C29.7465 65.3442 30.4784 65.013 30.9442 64.3838C31.2437 63.9865 31.3768 63.4897 31.3768 63.0261C31.3768 62.2975 31.0441 61.569 30.4119 61.1054C30.1457 60.9067 29.8463 60.7742 29.5136 60.708V58.2574L31.8758 59.0191C31.8758 59.0522 31.8758 59.0853 31.8758 59.1184V59.1515C31.8758 59.2178 31.8758 59.2509 31.8758 59.3171C31.8758 59.7807 32.0089 60.2444 32.3084 60.6417C32.7742 61.271 33.5061 61.6021 34.2048 61.6021C34.6706 61.6021 35.1364 61.4696 35.5357 61.2047L37.9645 62.3638L61.5206 73.4576L61.9199 73.6563L44.1863 80.8756L38.8628 83.0612C35.7686 84.2865 32.4082 84.9488 28.9812 84.9488C27.9498 84.9488 26.8851 84.8826 25.8204 84.7501C24.0903 84.5514 22.3602 84.1872 20.6301 83.6242C9.28457 79.8159 2.03141 69.3181 2.03141 57.9925ZM30.3454 62.9267C30.3454 63.1917 30.2788 63.4897 30.0792 63.7215C29.813 64.0858 29.3805 64.2845 28.9812 64.2845C28.7151 64.2845 28.4156 64.1851 28.1827 64.0196C27.8167 63.7546 27.6171 63.3573 27.6171 62.9267C27.6171 62.6618 27.7169 62.3638 27.8833 62.132C28.1494 61.7677 28.5487 61.569 28.9812 61.569C29.2474 61.569 29.5468 61.6683 29.7797 61.8339C30.1457 62.0657 30.3454 62.4962 30.3454 62.9267ZM31.776 51.7998C31.9091 51.7667 32.0755 51.7336 32.2086 51.7336C32.7742 51.7336 33.3065 52.0978 33.5061 52.6608C33.5394 52.7933 33.5727 52.9257 33.5727 53.0582C33.5727 53.3562 33.4729 53.6212 33.3065 53.853C33.1402 54.0848 32.9073 54.2504 32.6078 54.3497C32.4747 54.3828 32.3084 54.416 32.1753 54.416C31.8758 54.416 31.6097 54.3166 31.3768 54.151C31.1439 53.9854 30.9775 53.7536 30.8777 53.4556C30.8444 53.3231 30.8112 53.1907 30.8112 53.0582C30.8444 52.5283 31.2104 51.9654 31.776 51.7998ZM26.752 52.131C26.9849 52.3959 27.1513 52.727 27.1513 53.0913C27.1513 53.5218 26.9184 53.9523 26.5857 54.1841C26.3528 54.3497 26.0866 54.4491 25.7872 54.4491C25.4212 54.4491 25.0885 54.2835 24.8223 54.0517C24.5894 53.7868 24.4231 53.4556 24.4231 53.0913C24.4231 52.727 24.5894 52.3959 24.8223 52.131C25.0885 51.8991 25.4212 51.7336 25.7872 51.7336C26.1532 51.7336 26.4859 51.866 26.752 52.131ZM22.4933 58.721C22.6929 58.1581 23.2253 57.7938 23.7909 57.7938C23.924 57.7938 24.0571 57.8269 24.2234 57.86C24.656 57.9925 24.9887 58.3236 25.0885 58.721C25.1218 58.8535 25.155 58.986 25.155 59.1515C25.155 59.284 25.1218 59.4165 25.0885 59.5489C24.8889 60.1119 24.3565 60.4762 23.7909 60.4762C23.6578 60.4762 23.5247 60.443 23.3916 60.4099C22.826 60.2112 22.46 59.6814 22.46 59.1184C22.4268 59.0191 22.46 58.8866 22.4933 58.721ZM66.4115 120.648C66.345 120.747 66.2785 120.846 66.2119 120.946C60.9218 128.165 52.737 132.007 44.3859 132.007C38.8961 132.007 33.3398 130.351 28.5487 126.874C21.2955 121.608 17.4361 113.428 17.4361 105.15C17.4361 99.6854 19.0996 94.155 22.5931 89.4195C23.5913 88.0286 24.7225 86.7702 25.9535 85.6443C26.9517 85.7436 27.9831 85.8098 28.9812 85.8098C32.508 85.8098 36.0015 85.1475 39.2288 83.856L44.5522 81.6703L63.1177 74.0868L65.613 75.2459L49.8424 96.8374L50.6409 97.4335L66.5446 75.6764L68.4078 76.3387L66.345 103.461C66.3117 103.759 66.3117 104.057 66.3117 104.322C66.3117 104.553 66.3117 104.785 66.3117 105.017C66.3117 105.249 66.3117 105.481 66.3117 105.712C66.3783 109.388 67.1768 113.097 68.7738 116.541C68.1417 117.998 67.3431 119.356 66.4115 120.648ZM116.086 89.4526C119.579 94.2213 121.243 99.7185 121.243 105.183C121.243 113.462 117.383 121.641 110.13 126.907C109.764 127.172 109.398 127.403 108.999 127.668C104.474 130.616 99.3835 132.007 94.3262 132.007C92.6627 132.007 91.0324 131.841 89.4021 131.543C82.8476 130.351 76.7257 126.741 72.4669 120.946C71.4022 119.489 70.5039 117.965 69.7719 116.409C68.1749 112.998 67.3764 109.388 67.3099 105.746C67.3099 105.514 67.3099 105.282 67.3099 105.083C67.3099 104.851 67.3099 104.62 67.3099 104.421C67.3099 104.123 67.3099 103.825 67.3431 103.593L69.406 76.4049L69.8052 76.3056L72.0344 75.6764L87.9714 97.4997L88.7699 96.9037L72.8995 75.0803L74.1305 73.557L89.1359 79.6834L96.5554 82.6969L99.4833 83.8891C102.578 85.1144 105.871 85.7767 109.298 85.8098C109.531 85.8098 109.764 85.8098 109.997 85.8098C110.895 85.8098 111.827 85.7436 112.759 85.6443C113.923 86.7702 115.054 88.0286 116.086 89.4526ZM126.433 79.0211C124.004 80.9749 121.176 82.4982 118.015 83.4917C116.285 84.0547 114.555 84.419 112.825 84.6177C111.86 84.717 110.895 84.7832 109.964 84.7832C109.731 84.7832 109.498 84.7832 109.298 84.7832C106.004 84.7501 102.81 84.0878 99.8493 82.9287L96.9547 81.7366L89.5351 78.723L74.4965 72.5966V72.1661L74.5963 69.848L97.121 62.5625L100.348 61.5028L100.049 60.5424L96.8216 61.6021L74.2969 68.8876L73.0991 67.3974L90.9325 46.5013C91.1654 46.2363 91.3983 45.9383 91.598 45.6734C94.0933 42.428 95.8567 38.6528 96.7218 34.4802C97.6534 33.9503 98.6515 33.4867 99.6829 33.0893C100.215 32.8575 100.781 32.6588 101.346 32.4601C104.108 31.566 106.903 31.1355 109.664 31.1355C111.494 31.1355 113.291 31.3342 115.054 31.6984C124.237 33.5529 132.222 40.1761 135.317 49.7135C135.549 50.4089 135.749 51.1044 135.915 51.7998C136.415 53.8861 136.647 55.9724 136.647 58.0256C136.647 66.1721 132.854 73.9543 126.433 79.0211Z" fill="#59381A"/>
<path d="M137.646 57.9925C137.646 55.8399 137.413 53.6874 136.88 51.5349C136.714 50.8063 136.514 50.1109 136.281 49.4155C133.054 39.5469 124.803 32.6919 115.254 30.7381C113.424 30.3738 111.561 30.1751 109.664 30.1751C106.803 30.1751 103.908 30.6056 101.047 31.5329C100.448 31.7316 99.8825 31.9303 99.3169 32.1621C99.3169 32.1621 99.3169 32.1621 99.2837 32.1621C98.4851 32.4601 97.6866 32.8244 96.9214 33.2218C97.1543 31.8309 97.2541 30.4069 97.2874 28.9498V28.8174C97.2874 13.4516 84.7773 1 69.3394 1C64.0493 1 59.0918 2.4571 54.8996 5.00702C49.676 8.15304 45.5504 12.9548 43.2879 18.6839C42.0569 21.8299 41.3915 25.2408 41.3915 28.7842C41.3915 30.3076 41.5245 31.7647 41.7574 33.2218C40.4599 32.5595 39.0625 31.9634 37.6318 31.4997C34.7705 30.5725 31.8426 30.142 28.9812 30.142C17.2032 30.142 6.25688 37.6262 2.3974 49.3823C1.4658 52.2303 1 55.1445 1 57.9925C1 69.7155 8.51933 80.6106 20.3307 84.4521C21.7946 84.9157 23.2253 85.2469 24.6892 85.4787C23.6578 86.5053 22.6597 87.6312 21.7946 88.8565C18.2013 93.7908 16.4379 99.5198 16.4379 105.183C16.4379 113.793 20.4305 122.27 27.9498 127.701C32.9073 131.278 38.6632 133 44.3526 133C53.0032 133 61.4874 129.026 66.9772 121.542C67.0437 121.443 67.1435 121.343 67.21 121.211C68.0086 120.085 68.7073 118.926 69.3061 117.767C69.9716 119.058 70.7368 120.317 71.6351 121.542C76.027 127.569 82.3818 131.311 89.1692 132.536C90.8327 132.834 92.5628 133 94.2597 133C99.5166 133 104.807 131.543 109.498 128.496C109.897 128.231 110.263 127.999 110.662 127.701C118.182 122.27 122.174 113.76 122.174 105.183C122.174 99.5198 120.444 93.7908 116.818 88.8565C115.919 87.6312 114.954 86.5053 113.89 85.4787C115.354 85.2469 116.784 84.9157 118.248 84.4521C121.509 83.3924 124.437 81.8028 126.965 79.7827C133.72 74.5504 137.646 66.5033 137.646 57.9925ZM44.2195 19.0482C46.3822 13.5178 50.3747 8.88159 55.3987 5.83492C59.4911 3.38435 64.2489 1.99348 69.3394 1.99348C76.7922 1.99348 83.513 5.00702 88.4039 9.84195C93.2948 14.71 96.2892 21.3994 96.2892 28.8174V28.9829C96.2892 30.7381 96.1229 32.427 95.7569 34.0828C94.9584 38.156 93.195 41.8981 90.7662 45.0773C90.5666 45.3422 90.3337 45.6402 90.134 45.8721L72.4337 66.6357L72.3338 66.5364C72.2673 66.437 72.1675 66.3708 72.0344 66.3708L69.8052 65.8741V38.7521H68.8071V65.6422L66.1786 65.0793L52.5374 43.0572C50.1418 39.3151 46.848 36.136 42.8554 33.851C42.556 32.2283 42.3563 30.5394 42.3563 28.8174C42.3896 25.3733 43.0218 22.0617 44.2195 19.0482ZM73.4983 72.133L73.4651 72.7291L71.9679 74.6167L69.5723 75.3121L69.0067 75.4777L66.6112 74.6167L63.3838 73.0933L61.9532 72.431L38.397 61.3372L36.2677 60.3106C36.4007 60.0788 36.5006 59.847 36.5338 59.582L64.2489 65.6091L65.8459 65.9403L69.2729 66.6688L71.7017 67.1987L72.0677 67.6623L73.6314 69.6162L73.4983 72.133ZM33.3731 58.0587C33.606 57.8931 33.9054 57.7938 34.1716 57.7938C34.6041 57.7938 35.0034 57.9925 35.2695 58.3567C35.4359 58.5886 35.5024 58.7873 35.5024 59.0191C35.5024 59.0522 35.5024 59.1184 35.5024 59.1515C35.5024 59.5158 35.3693 59.8801 35.0699 60.1119L35.0366 60.145L35.0034 60.1781C35.0034 60.1781 35.0034 60.2112 34.9368 60.2444C34.7039 60.4099 34.4045 60.5093 34.1383 60.5093C33.7058 60.5093 33.3065 60.3106 33.0403 59.9463C32.874 59.7145 32.8074 59.4827 32.8074 59.2178C32.8074 59.1846 32.8074 59.1515 32.8074 59.0853V59.0522V59.0191C32.8074 58.8204 32.8407 58.6548 32.9738 58.4892C33.1069 58.3236 33.2067 58.1912 33.3731 58.0587ZM2.03141 57.9925C2.03141 55.2439 2.46394 52.4621 3.36227 49.6804C7.05539 38.3216 17.6357 31.1355 28.9812 31.1355C31.7428 31.1355 34.5376 31.566 37.3323 32.4601C39.0625 33.0231 40.6595 33.7185 42.19 34.5795C46.1493 36.7652 49.4099 39.9112 51.7389 43.5539L64.8811 64.7481L64.4485 64.6488L36.5006 58.5554C36.434 58.2574 36.3009 57.9925 36.1346 57.7275C35.6688 57.0983 34.9368 56.7672 34.2048 56.7672C33.739 56.7672 33.24 56.8996 32.8074 57.1977C32.5413 57.3964 32.3416 57.6282 32.1753 57.9262L29.813 57.1646L31.277 55.1776C31.5764 55.3101 31.9091 55.3763 32.2086 55.3763C32.4415 55.3763 32.7076 55.3432 32.9405 55.277C33.4396 55.1114 33.8389 54.8133 34.1383 54.416C34.4045 54.0186 34.5708 53.5549 34.5708 53.0582C34.5708 52.8264 34.5376 52.5946 34.471 52.3628C34.1383 51.3693 33.2067 50.7401 32.2086 50.7401C31.9757 50.7401 31.7095 50.7732 31.4766 50.8726C30.4784 51.2037 29.8463 52.131 29.8463 53.1244C29.8463 53.3562 29.8796 53.5881 29.9461 53.853C30.0459 54.1841 30.2123 54.4491 30.4452 54.714L28.9812 56.701L27.5173 54.714C27.8833 54.2835 28.1162 53.7536 28.1162 53.1576C28.1162 51.866 27.0515 50.8063 25.7539 50.8063C24.4563 50.8063 23.3916 51.866 23.3916 53.1576C23.3916 54.4491 24.4563 55.5088 25.7539 55.5088C26.0866 55.5088 26.4193 55.4425 26.6855 55.3101L28.1494 57.297L25.8204 58.0587C25.521 57.562 25.0885 57.1977 24.5229 56.999C24.29 56.9328 24.0238 56.8665 23.7909 56.8665C22.7928 56.8665 21.8944 57.4957 21.5617 58.4892C21.4952 58.721 21.4286 58.986 21.4286 59.2178C21.4286 60.2112 22.0608 61.1385 23.0589 61.4696C23.2918 61.5359 23.558 61.569 23.7909 61.569C24.789 61.569 25.7206 60.9398 26.0201 59.9463C26.0866 59.7145 26.1532 59.4496 26.1532 59.2178C26.1532 59.1515 26.1532 59.0522 26.1199 58.986L28.4822 58.2243V60.6749C27.9498 60.8073 27.4175 61.1054 27.0848 61.6021C26.7853 62.0326 26.6522 62.4962 26.6522 62.993C26.6522 63.7215 26.9849 64.417 27.6171 64.8806C28.0496 65.1786 28.5154 65.3442 29.0145 65.3442C29.7465 65.3442 30.4784 65.013 30.9442 64.3838C31.2437 63.9865 31.3768 63.4897 31.3768 63.0261C31.3768 62.2975 31.0441 61.569 30.4119 61.1054C30.1457 60.9067 29.8463 60.7742 29.5136 60.708V58.2574L31.8758 59.0191C31.8758 59.0522 31.8758 59.0853 31.8758 59.1184V59.1515C31.8758 59.2178 31.8758 59.2509 31.8758 59.3171C31.8758 59.7807 32.0089 60.2444 32.3084 60.6417C32.7742 61.271 33.5061 61.6021 34.2048 61.6021C34.6706 61.6021 35.1364 61.4696 35.5357 61.2047L37.9645 62.3638L61.5206 73.4576L61.9199 73.6563L44.1863 80.8756L38.8628 83.0612C35.7686 84.2865 32.4082 84.9488 28.9812 84.9488C27.9498 84.9488 26.8851 84.8826 25.8204 84.7501C24.0903 84.5514 22.3602 84.1872 20.6301 83.6242C9.28457 79.8159 2.03141 69.3181 2.03141 57.9925ZM30.3454 62.9267C30.3454 63.1917 30.2788 63.4897 30.0792 63.7215C29.813 64.0858 29.3805 64.2845 28.9812 64.2845C28.7151 64.2845 28.4156 64.1851 28.1827 64.0196C27.8167 63.7546 27.6171 63.3573 27.6171 62.9267C27.6171 62.6618 27.7169 62.3638 27.8833 62.132C28.1494 61.7677 28.5487 61.569 28.9812 61.569C29.2474 61.569 29.5468 61.6683 29.7797 61.8339C30.1457 62.0657 30.3454 62.4962 30.3454 62.9267ZM31.776 51.7998C31.9091 51.7667 32.0755 51.7336 32.2086 51.7336C32.7742 51.7336 33.3065 52.0978 33.5061 52.6608C33.5394 52.7933 33.5727 52.9257 33.5727 53.0582C33.5727 53.3562 33.4729 53.6212 33.3065 53.853C33.1402 54.0848 32.9073 54.2504 32.6078 54.3497C32.4747 54.3828 32.3084 54.416 32.1753 54.416C31.8758 54.416 31.6097 54.3166 31.3768 54.151C31.1439 53.9854 30.9775 53.7536 30.8777 53.4556C30.8444 53.3231 30.8112 53.1907 30.8112 53.0582C30.8444 52.5283 31.2104 51.9654 31.776 51.7998ZM26.752 52.131C26.9849 52.3959 27.1513 52.727 27.1513 53.0913C27.1513 53.5218 26.9184 53.9523 26.5857 54.1841C26.3528 54.3497 26.0866 54.4491 25.7872 54.4491C25.4212 54.4491 25.0885 54.2835 24.8223 54.0517C24.5894 53.7868 24.4231 53.4556 24.4231 53.0913C24.4231 52.727 24.5894 52.3959 24.8223 52.131C25.0885 51.8991 25.4212 51.7336 25.7872 51.7336C26.1532 51.7336 26.4859 51.866 26.752 52.131ZM22.4933 58.721C22.6929 58.1581 23.2253 57.7938 23.7909 57.7938C23.924 57.7938 24.0571 57.8269 24.2234 57.86C24.656 57.9925 24.9887 58.3236 25.0885 58.721C25.1218 58.8535 25.155 58.986 25.155 59.1515C25.155 59.284 25.1218 59.4165 25.0885 59.5489C24.8889 60.1119 24.3565 60.4762 23.7909 60.4762C23.6578 60.4762 23.5247 60.443 23.3916 60.4099C22.826 60.2112 22.46 59.6814 22.46 59.1184C22.4268 59.0191 22.46 58.8866 22.4933 58.721ZM66.4115 120.648C66.345 120.747 66.2785 120.846 66.2119 120.946C60.9218 128.165 52.737 132.007 44.3859 132.007C38.8961 132.007 33.3398 130.351 28.5487 126.874C21.2955 121.608 17.4361 113.428 17.4361 105.15C17.4361 99.6854 19.0996 94.155 22.5931 89.4195C23.5913 88.0286 24.7225 86.7702 25.9535 85.6443C26.9517 85.7436 27.9831 85.8098 28.9812 85.8098C32.508 85.8098 36.0015 85.1475 39.2288 83.856L44.5522 81.6703L63.1177 74.0868L65.613 75.2459L49.8424 96.8374L50.6409 97.4335L66.5446 75.6764L68.4078 76.3387L66.345 103.461C66.3117 103.759 66.3117 104.057 66.3117 104.322C66.3117 104.553 66.3117 104.785 66.3117 105.017C66.3117 105.249 66.3117 105.481 66.3117 105.712C66.3783 109.388 67.1768 113.097 68.7738 116.541C68.1417 117.998 67.3431 119.356 66.4115 120.648ZM116.086 89.4526C119.579 94.2213 121.243 99.7185 121.243 105.183C121.243 113.462 117.383 121.641 110.13 126.907C109.764 127.172 109.398 127.403 108.999 127.668C104.474 130.616 99.3835 132.007 94.3262 132.007C92.6627 132.007 91.0324 131.841 89.4021 131.543C82.8476 130.351 76.7257 126.741 72.4669 120.946C71.4022 119.489 70.5039 117.965 69.7719 116.409C68.1749 112.998 67.3764 109.388 67.3099 105.746C67.3099 105.514 67.3099 105.282 67.3099 105.083C67.3099 104.851 67.3099 104.62 67.3099 104.421C67.3099 104.123 67.3099 103.825 67.3431 103.593L69.406 76.4049L69.8052 76.3056L72.0344 75.6764L87.9714 97.4997L88.7699 96.9037L72.8995 75.0803L74.1305 73.557L89.1359 79.6834L96.5554 82.6969L99.4833 83.8891C102.578 85.1144 105.871 85.7767 109.298 85.8098C109.531 85.8098 109.764 85.8098 109.997 85.8098C110.895 85.8098 111.827 85.7436 112.759 85.6443C113.923 86.7702 115.054 88.0286 116.086 89.4526ZM126.433 79.0211C124.004 80.9749 121.176 82.4982 118.015 83.4917C116.285 84.0547 114.555 84.419 112.825 84.6177C111.86 84.717 110.895 84.7832 109.964 84.7832C109.731 84.7832 109.498 84.7832 109.298 84.7832C106.004 84.7501 102.81 84.0878 99.8493 82.9287L96.9547 81.7366L89.5351 78.723L74.4965 72.5966V72.1661L74.5963 69.848L97.121 62.5625L100.348 61.5028L100.049 60.5424L96.8216 61.6021L74.2969 68.8876L73.0991 67.3974L90.9325 46.5013C91.1654 46.2363 91.3983 45.9383 91.598 45.6734C94.0933 42.428 95.8567 38.6528 96.7218 34.4802C97.6534 33.9503 98.6515 33.4867 99.6829 33.0893C100.215 32.8575 100.781 32.6588 101.346 32.4601C104.108 31.566 106.903 31.1355 109.664 31.1355C111.494 31.1355 113.291 31.3342 115.054 31.6984C124.237 33.5529 132.222 40.1761 135.317 49.7135C135.549 50.4089 135.749 51.1044 135.915 51.7998C136.415 53.8861 136.647 55.9724 136.647 58.0256C136.647 66.1721 132.854 73.9543 126.433 79.0211Z" stroke="#59381A" mask="url(#path-16-outside-1_66_21558)"/>
</svg>
