<svg id="Слой_1" data-name="Слой 1" xmlns="http://www.w3.org/2000/svg" viewBox="0 0 180.04 173.96">
  <defs>
    <style>
      .cls-1 {
        fill: #de5048;
      }

      .cls-2 {
        fill: #f1c45f;
      }

      .cls-3 {
        fill: #dde2ea;
      }

      .cls-4 {
        fill: #59381a;
      }
    </style>
  </defs>
  <title>flower</title>
  <path class="cls-1" d="M165.7,103.75a35.12,35.12,0,0,1-11.25,6,35.87,35.87,0,0,1-6.93,1.52,34.33,34.33,0,0,1-4.75.21A35.76,35.76,0,0,1,130.13,109l-3.84-1.56-9.72-4-20.1-8.2,0-1,.13-3.47-2.18-2.73,23.71-27.82c.31-.35.57-.69.87-1.08a35.47,35.47,0,0,0,6.67-14.67,29.17,29.17,0,0,1,4.23-2,19.17,19.17,0,0,1,2.27-.83,36,36,0,0,1,45.29,23,27.79,27.79,0,0,1,.79,2.78A35.54,35.54,0,0,1,165.7,103.75Z" transform="translate(-0.46 -0.5)"/>
  <path class="cls-1" d="M144.3,166.49c-.48.35-1,.7-1.49,1a36.13,36.13,0,0,1-48.74-8.94,38.47,38.47,0,0,1-3.57-6.08,34.8,34.8,0,0,1-3.27-14.23v-1.82a10.3,10.3,0,0,1,0-1.13L90,99.28,91,99l3.36-1,2.22-2.78,20.1,8.2,9.72,4,3.83,1.56a35.43,35.43,0,0,0,12.65,2.47,34.6,34.6,0,0,0,4.75-.21,36.08,36.08,0,0,1,4.71,5.25A35.7,35.7,0,0,1,144.3,166.49Z" transform="translate(-0.46 -0.5)"/>
  <path class="cls-1" d="M126.46,37.45v.22a35.58,35.58,0,0,1-.69,6.81,34.91,34.91,0,0,1-6.67,14.66c-.26.35-.57.74-.87,1.09L94.51,88l-.61-.78-3.44-.74-4.49-1-18-29.07a35.47,35.47,0,0,0-12.73-12,36.67,36.67,0,0,1-.7-7,36,36,0,0,1,72,0Z" transform="translate(-0.46 -0.5)"/>
  <path class="cls-2" d="M96.73,90.78l-.13,3.47,0,1L94.34,98,91,99l-1,.26L86.62,98l-4.23-2-1.87-.87L49.65,80.62l-3.53-1.69a2.5,2.5,0,0,0,.79-2L84,85l2.09.44,4.49,1,3.45.74.61.78Z" transform="translate(-0.46 -0.5)"/>
  <path class="cls-1" d="M90.5,152.52a34.52,34.52,0,0,1-3.27,5.64c-.09.13-.17.26-.3.44a36,36,0,0,1-29.12,14.75,35.85,35.85,0,0,1-29.08-56.84,31.09,31.09,0,0,1,4.71-5.25A36.27,36.27,0,0,0,50.83,109l7-2.86,24.58-10,4.23,2L90,99.32l-2.74,36.06a8.25,8.25,0,0,0,0,1.13v1.82A35,35,0,0,0,90.5,152.52Z" transform="translate(-0.46 -0.5)"/>
  <path class="cls-3" d="M87.23,136.47v1.82A13.82,13.82,0,0,1,87.23,136.47Z" transform="translate(-0.46 -0.5)"/>
  <path class="cls-1" d="M43,75.24a2.48,2.48,0,0,1,3.4.52A2.19,2.19,0,0,1,46.82,77l37.05,8.07,2.1.43-18-29.07a35.56,35.56,0,0,0-12.73-12,36.93,36.93,0,0,0-6.45-2.82,36,36,0,0,0-45.34,23A35.21,35.21,0,0,0,1.61,75.68a35.8,35.8,0,0,0,24.85,34,39.48,39.48,0,0,0,6.89,1.52A36.26,36.26,0,0,0,50.74,109l7-2.87,24.58-10-1.87-.87L49.56,80.67,46,79a.73.73,0,0,1-.22.18,2.45,2.45,0,0,1-3.4-.52A2.34,2.34,0,0,1,42,77.06L37.62,75l4.71,1A2.3,2.3,0,0,1,43,75.24Zm-9.85,2.69a2.43,2.43,0,0,1-3.05,1.56,2.4,2.4,0,0,1-1.57-3.08,2.47,2.47,0,0,1,3-1.56,2.38,2.38,0,0,1,1.57,1.56A2.33,2.33,0,0,1,33.13,77.93Zm1.74-6.72a2.3,2.3,0,0,1-1.44.47,2.44,2.44,0,1,1,1.44-.47Zm4.19,8.94a2.41,2.41,0,1,1-1.44-.48A2.46,2.46,0,0,1,39.06,80.15Zm1.35-8.94A2.47,2.47,0,0,1,39.54,70a2.39,2.39,0,0,1,1.57-3,2.42,2.42,0,1,1,1.52,4.6A2.64,2.64,0,0,1,40.41,71.21Z" transform="translate(-0.46 -0.5)"/>
  <path class="cls-2" d="M46.08,79a.87.87,0,0,1-.22.18,2.44,2.44,0,0,1-3.4-.52A2.35,2.35,0,0,1,42,77.06a1.92,1.92,0,0,1,.31-1,2.43,2.43,0,0,1,.69-.78,2.48,2.48,0,0,1,3.4.52A2.12,2.12,0,0,1,46.86,77,2.5,2.5,0,0,1,46.08,79Z" transform="translate(-0.46 -0.5)"/>
  <path class="cls-2" d="M42.59,71.55a2.42,2.42,0,0,1-2.18-.34A2.47,2.47,0,0,1,39.54,70a2.39,2.39,0,0,1,1.57-3,2.42,2.42,0,0,1,3.09,1.57A2.51,2.51,0,0,1,42.59,71.55Z" transform="translate(-0.46 -0.5)"/>
  <path class="cls-3" d="M42.33,76a2.34,2.34,0,0,0-.31,1L37.62,75Z" transform="translate(-0.46 -0.5)"/>
  <path class="cls-2" d="M39.62,83.53a2.43,2.43,0,0,1-3.92-2.86,2.44,2.44,0,0,1,2-1,2.43,2.43,0,0,1,2,3.86Z" transform="translate(-0.46 -0.5)"/>
  <path class="cls-2" d="M35.88,69.25a2.44,2.44,0,0,1-1,2,2.29,2.29,0,0,1-1.43.47,2.43,2.43,0,1,1,2.44-2.43Z" transform="translate(-0.46 -0.5)"/>
  <path class="cls-2" d="M33.13,77.93a2.43,2.43,0,0,1-3.05,1.56,2.4,2.4,0,0,1-1.57-3.08,2.47,2.47,0,0,1,3-1.56,2.36,2.36,0,0,1,1.57,1.56A2.33,2.33,0,0,1,33.13,77.93Z" transform="translate(-0.46 -0.5)"/>
  <path class="cls-4" d="M179.49,67.1c-.22-.92-.48-1.84-.8-2.82a37.25,37.25,0,0,0-46.8-23.75c-.91.3-1.58.54-2.21.8l-.12,0c-.74.28-1.51.61-2.28,1a42.26,42.26,0,0,0,.34-4.72v-.17a37.12,37.12,0,0,0-74.24,0,35,35,0,0,0,.35,4.94,36.27,36.27,0,0,0-4.62-1.86A37.21,37.21,0,0,0,2.31,64.24a36.78,36.78,0,0,0,23.82,46.58A38.44,38.44,0,0,0,31,112a33.75,33.75,0,0,0-3.17,3.8,36.93,36.93,0,0,0,30,58.64,36.92,36.92,0,0,0,30.06-15.24l.08-.11a1.79,1.79,0,0,0,.22-.31,39.77,39.77,0,0,0,2.34-3.74,37,37,0,0,0,25.93,18.78,38.38,38.38,0,0,0,6.76.62,37.05,37.05,0,0,0,20.25-6l.3-.2c.42-.27.82-.54,1.24-.85a37,37,0,0,0,15.29-29.91,36.34,36.34,0,0,0-7.12-21.69,34.67,34.67,0,0,0-3.2-3.8,39.63,39.63,0,0,0,4.83-1.2A37.34,37.34,0,0,0,180.5,75.68,36,36,0,0,0,179.49,67.1Zm-134.2,11-.19.18a1.27,1.27,0,0,1-1.75-.3,1,1,0,0,1-.22-.66V77a.58.58,0,0,1,.16-.44,2.65,2.65,0,0,1,.39-.42,1.29,1.29,0,0,1,1.77.29.88.88,0,0,1,.22.57v.17A1.08,1.08,0,0,1,45.29,78.06Zm-7.67,2.8a1.41,1.41,0,0,1,.78.27,1.2,1.2,0,0,1,.51,1,1.1,1.1,0,0,1-.26.75,1.33,1.33,0,0,1-1.78.28,1.25,1.25,0,0,1-.54-1,1.36,1.36,0,0,1,.26-.75A1.25,1.25,0,0,1,37.62,80.86Zm3-11.25a1.76,1.76,0,0,1-.07-.37,1.39,1.39,0,0,1,.89-1.2,1.74,1.74,0,0,1,.44-.06,1.29,1.29,0,0,1,1.21.83,1.76,1.76,0,0,1,.08.4,1.32,1.32,0,0,1-.89,1.21,2.1,2.1,0,0,1-.44.07,1.28,1.28,0,0,1-.76-.25A1.31,1.31,0,0,1,40.59,69.61Zm-5.87-.36a1.3,1.3,0,0,1-.53,1,1.27,1.27,0,0,1-.75.25,1.41,1.41,0,0,1-.89-.35,1.39,1.39,0,0,1-.4-.93,1.41,1.41,0,0,1,.35-.88,1.48,1.48,0,0,1,.94-.39,1.23,1.23,0,0,1,.89.36A1.44,1.44,0,0,1,34.72,69.25ZM29.56,77a1.39,1.39,0,0,1,0-.23v0a1.32,1.32,0,0,1,1.22-.85,2,2,0,0,1,.36,0h.06a1.14,1.14,0,0,1,.8.78,1.68,1.68,0,0,1,.07.43,2.08,2.08,0,0,1-.06.36,1.31,1.31,0,0,1-1.23.88,1.51,1.51,0,0,1-.36-.06,1.3,1.3,0,0,1-.88-1.22V77.1Zm20.61,2.58-2.33-1.13s0-.09,0-.13l45.42,9.84,2.3,2.88-.19,3.73L93.65,97l-3.57,1-2.94-1Zm75.14-41.94a30.39,30.39,0,0,1-.68,6.58,34.61,34.61,0,0,1-6.45,14.2c-.26.34-.56.72-.81,1L94.51,86.28a.93.93,0,0,0-.41-.12l-2.49-.56V50H89.3V85.08l-2.63-.56L68.91,55.84A37.33,37.33,0,0,0,56.25,43.73a34,34,0,0,1,1.8-18.9h0a34.94,34.94,0,0,1,57.08-11.89,34.34,34.34,0,0,1,10.18,24.51ZM67,57l16.6,26.76L47.87,76a4.67,4.67,0,0,0-.47-1,3.68,3.68,0,0,0-2.94-1.46,3.8,3.8,0,0,0-2.13.66,3.55,3.55,0,0,0-.74.76l-2.07-.66,1.29-1.74a3.87,3.87,0,0,0,2.16,0,3.52,3.52,0,0,0,2.47-3.38,4.06,4.06,0,0,0-.15-1.07,3.64,3.64,0,0,0-3.44-2.47,3,3,0,0,0-1.12.2,3.61,3.61,0,0,0-2.48,3.43,4.23,4.23,0,0,0,.16,1.1,3,3,0,0,0,.5,1l-1.29,1.75-1.29-1.75a3.59,3.59,0,1,0-2.94,1.53,3.55,3.55,0,0,0,1-.15l1.28,1.73-2,.67a3.67,3.67,0,0,0-1.77-1.28,4.29,4.29,0,0,0-1.09-.19,3.59,3.59,0,0,0-3.4,2.49,4,4,0,0,0-.2,1.09,3.61,3.61,0,0,0,2.5,3.43,4,4,0,0,0,1.1.15,3.55,3.55,0,0,0,3.4-2.49,3.91,3.91,0,0,0,.19-1l2.06-.66v2.15a3.4,3.4,0,0,0-1.74,1.3,3.62,3.62,0,0,0-.66,2.11,3.52,3.52,0,0,0,1.48,2.88,3.67,3.67,0,0,0,5-.76,3.47,3.47,0,0,0,.67-2.08,3.64,3.64,0,0,0-1.47-2.92,3.19,3.19,0,0,0-1-.5V76.71l2.09.68v0a3.3,3.3,0,0,0,.67,2,3.58,3.58,0,0,0,2.88,1.47,3.66,3.66,0,0,0,1.78-.46L79.55,96.16l-22.2,9-7,2.86a33.83,33.83,0,0,1-16.84,2.18,34,34,0,0,1-6.7-1.45A34.76,34.76,0,0,1,48.41,42.7a33.71,33.71,0,0,1,6.28,2.74A34.35,34.35,0,0,1,67,57ZM33.83,112.43c1.37.13,2.64.19,3.79.19A36.57,36.57,0,0,0,51.24,110l31.1-12.72,2.51,1.17-20.59,28.2,1.85,1.38L87,99.44l1.73.62L86.08,135.2a9.72,9.72,0,0,0,0,1.18v1.83a36.07,36.07,0,0,0,3.18,14.19,28.17,28.17,0,0,1-2.95,5.08l-.26.39a34.85,34.85,0,0,1-63-20.41,34,34,0,0,1,6.67-20.31A31,31,0,0,1,33.83,112.43Zm54.51,24.08a8.62,8.62,0,0,1,0-1l2.68-35.26,2.77-.78,21,28.72,1.84-1.37L95.79,98.08l1.14-1.41,32.88,13.4a36.21,36.21,0,0,0,13.05,2.55h.91a34,34,0,0,0,3.44-.19,36.35,36.35,0,0,1,4.14,4.76h0A34.17,34.17,0,0,1,158,137.51a34.83,34.83,0,0,1-14.35,28.06c-.36.26-.72.49-1.1.74l-.37.24A35.05,35.05,0,0,1,95,157.87,35.89,35.89,0,0,1,91.52,152a33.77,33.77,0,0,1-3.18-13.76Zm59.09-26.45a34.75,34.75,0,0,1-3.7.22h-.87a34.34,34.34,0,0,1-12.19-2.39L97.76,94.48l.11-2.9,29.19-9.44,4.69-1.54-.68-2.22-33.9,11L96.08,88,119.17,61c.31-.36.63-.76.89-1.11a36.25,36.25,0,0,0,6.76-14.65,29.19,29.19,0,0,1,3.64-1.69c.68-.29,1.42-.55,2.13-.8a34.27,34.27,0,0,1,17.71-1A34.76,34.76,0,0,1,176.47,65c.3.89.56,1.8.78,2.69a34.45,34.45,0,0,1,.94,8A34.84,34.84,0,0,1,165,102.84h0a33.12,33.12,0,0,1-10.87,5.77A34.48,34.48,0,0,1,147.43,110.06Z" transform="translate(-0.46 -0.5)"/>
</svg>
