<svg width="182" height="406" viewBox="0 0 182 406" fill="none" xmlns="http://www.w3.org/2000/svg">
<circle cx="102" cy="135" r="80" fill="#8BCEDE"/>
<path d="M161.597 202.246C161.597 258.1 147.077 369 126.911 394.204H97.8704C77.8045 369 63.1836 258.1 63.1836 202.246C63.1836 91.346 78.3087 1.01264 112.39 1.41592C146.472 0.911824 161.597 91.346 161.597 202.246Z" fill="#D03F36"/>
<path d="M158.067 102.234C154.639 72.6945 149.597 47.8932 142.438 30.0484C137.698 18.1518 132.153 9.2798 125.397 4.3397C121.565 1.51679 117.229 -0.0963577 112.692 0.00446065C112.591 0.00446065 112.49 0.00446065 112.389 0.00446065C112.288 0.00446065 112.188 0.00446065 112.087 0.00446065C107.549 0.00446065 103.213 1.51679 99.3817 4.3397C95.5501 7.16261 92.0208 11.2961 88.895 16.5387C82.5425 26.923 77.5009 41.8442 73.4675 60.0923C65.4008 96.6894 61.6699 146.897 61.6699 202.246C61.6699 239.045 67.9217 299.435 78.005 343.795C81.3326 358.615 85.0634 371.621 89.1976 381.501C91.5167 387.147 94.0376 391.684 96.6593 395.112L97.0625 395.717H127.514L128.019 395.112C130.64 391.785 133.161 387.147 135.48 381.602C137.799 375.956 140.018 369.302 142.135 361.842C146.37 346.92 150.101 328.975 153.126 310.021C159.277 272.113 162.907 230.374 162.907 202.347V202.246C163.109 165.851 161.495 131.774 158.067 102.234ZM160.084 202.347C160.084 238.843 153.832 299.133 143.849 343.19C140.522 357.91 136.791 370.814 132.758 380.392C130.64 385.534 128.422 389.667 126.103 392.692H98.575C96.3567 389.768 94.1384 385.534 91.92 380.392C89.6008 374.948 87.3825 368.395 85.3658 360.934C81.2316 346.215 77.5009 328.269 74.4759 309.416C68.325 271.609 64.6949 230.072 64.6949 202.246C64.6949 165.952 66.3083 131.976 69.7366 102.638C73.0641 73.2995 78.2067 48.5989 85.1642 31.1574C89.8026 19.5632 95.2476 11.1954 101.197 6.75936C104.625 4.23891 108.255 2.92822 112.087 2.92822H112.288H112.49C116.423 2.92822 119.952 4.23891 123.38 6.75936C126.809 9.27982 130.035 13.1109 133.06 18.051C139.11 28.032 144.152 42.5499 148.084 60.6972C156.05 96.891 159.781 146.998 159.781 202.246V202.347H160.084Z" fill="#54362C"/>
<path d="M161.486 184.3L161.587 193.475C82.9369 211.42 63.9803 192.366 63.9803 192.366L57.3253 201.137C53.6952 180.167 49.3594 173.513 49.3594 173.513C54.0986 172.807 62.266 173.412 73.8619 180.268C94.1294 192.164 120.75 191.055 120.75 191.055C120.75 191.055 156.747 189.24 161.486 184.3Z" fill="#B46C51"/>
<path d="M59.3468 392.39C61.3635 394.305 64.7918 394.507 61.9685 397.027C61.9685 397.027 51.5826 403.48 47.4484 404.286C43.0117 405.093 43.2134 397.935 43.3142 394.003C43.7176 379.485 44.9276 328.37 44.7259 327.261C44.5243 326.253 44.7259 276.852 44.7259 276.852L44.625 276.65C54.6075 273.121 61.9685 257.696 61.9685 257.696C62.4726 281.893 57.9351 325.446 57.9351 325.446C57.9351 325.446 55.7167 362.346 55.5151 379.485C55.3134 386.845 57.3301 390.474 59.3468 392.39Z" fill="#B46C51"/>
<path d="M61.9662 257.797H19.3135C21.2294 246.304 19.5152 229.164 17.2969 215.05L58.9412 212.731C60.4537 224.325 61.5629 239.145 61.9662 257.797Z" fill="#B46C51"/>
<path d="M19.3145 257.797H61.9671C61.9671 257.797 54.707 273.222 44.6237 276.751C43.3128 277.255 42.002 277.456 40.5903 277.456C39.1787 277.456 37.767 277.154 36.4562 276.751C26.3728 273.121 19.3145 257.797 19.3145 257.797Z" fill="#F1C650"/>
<path d="M58.9449 212.428C58.9449 212.529 58.9449 212.63 58.9449 212.731L17.3006 215.049L16.6956 211.622L16.1914 208.597L57.9366 206.278V206.48C58.4407 208.295 58.6424 210.311 58.9449 212.428Z" fill="#F1C45F"/>
<path d="M58.9415 212.428C58.639 210.412 58.4373 208.396 58.1348 206.379C58.3364 208.194 58.639 210.21 58.9415 212.428Z" fill="#B46C51"/>
<path d="M58.038 206.178L16.2928 208.497V208.598C14.4778 198.113 12.7637 190.652 12.7637 190.652L17.6037 185.712L22.4437 192.366L27.2837 185.914L32.0229 192.366L36.8629 185.51L44.3247 191.257V184.603C44.3247 181.578 44.4254 178.352 44.5263 175.227C45.0304 174.924 46.6438 174.017 49.568 173.614C49.568 173.614 53.9038 180.268 57.5338 201.238C57.5338 202.75 57.8363 204.363 58.038 206.178Z" fill="#B46C51"/>
<path d="M44.325 175.126C44.2242 178.352 44.1233 181.477 44.1233 184.502V191.156L36.6617 185.409L31.8216 192.265L27.0825 185.813L22.2424 192.265L17.4023 185.611L12.5624 190.551L9.53739 187.022L7.72234 184.905L1.4707 190.551C2.17654 172.706 7.72239 133.891 25.6708 133.891C45.9383 133.992 44.93 154.761 44.325 175.126Z" fill="#F1C650"/>
<path d="M36.4568 276.751V276.952L19.3151 349.34C16.6934 360.934 14.0718 372.73 13.4668 384.626C13.0635 394.305 14.4751 404.387 9.23174 404.387C1.97172 404.387 2.37513 394.305 2.37513 394.305C2.37513 360.632 13.3659 329.58 13.3659 329.58C13.3659 329.58 11.3493 303.669 19.2143 257.999C19.3151 257.797 26.3735 273.121 36.4568 276.751Z" fill="#B46C51"/>
<path d="M12.6609 190.652C12.6609 190.652 14.4759 198.113 16.19 208.598C13.8709 216.159 9.9383 230.778 10.3416 246.808C10.745 262.939 11.5516 285.119 10.3416 285.522C9.03079 285.925 6.91339 283.405 6.91339 283.405C-4.68248 198.919 4.69502 187.728 9.53504 187.022L12.6609 190.652Z" fill="#B46C51"/>
<path d="M163.007 180.469L160.385 183.191C160.183 183.494 159.377 183.897 158.368 184.401C157.259 184.804 155.847 185.208 154.234 185.611C151.007 186.418 146.974 187.023 142.739 187.627C134.37 188.736 125.698 189.24 122.169 189.543C121.161 189.644 120.656 189.644 120.656 189.644H120.556C120.455 189.644 120.354 189.644 120.253 189.644C119.951 189.644 119.547 189.644 119.043 189.644C116.018 189.644 109.061 189.442 100.893 188.031C92.6246 186.619 83.0454 183.897 74.6763 179.058C65.0971 173.513 57.837 171.9 52.5937 171.9C51.2828 171.9 50.1736 172.001 49.1653 172.101C47.8545 172.303 46.8462 172.605 45.9387 172.807C46.0395 169.682 46.1403 166.657 46.1403 163.532C46.1403 158.995 45.9387 154.559 45.3337 150.627C44.6278 146.594 43.5186 142.965 41.6028 139.94C40.2919 137.924 38.6786 136.21 36.5611 135C33.7377 133.286 30.3094 132.379 25.9735 132.379C23.4527 132.379 21.1336 133.085 19.0161 134.294C16.8986 135.504 15.0836 137.218 13.4703 139.335C10.2436 143.469 7.82359 149.014 5.90775 155.164C2.1769 167.363 0.563466 181.578 0.260965 190.551L0.160156 194.181L3.99188 190.753C3.68938 191.358 3.48767 191.963 3.18517 192.668C1.47099 197.508 0.160156 205.472 0.160156 218.679C0.160156 233.096 1.67266 253.764 5.70601 283.606L5.80682 284.01L6.10937 284.312C6.10937 284.312 6.41182 284.715 6.81515 285.119C7.21849 285.522 7.82356 286.127 8.5294 286.53C9.03357 286.833 9.53766 287.034 10.3443 287.034C10.546 287.034 10.8486 287.034 11.0502 286.934C11.4536 286.833 11.6552 286.53 11.8568 286.328C11.9577 286.127 12.0586 286.026 12.1594 285.824C12.2602 285.522 12.361 285.32 12.361 285.018C12.4618 284.514 12.5627 283.808 12.5627 283.002C12.6636 281.388 12.6636 279.17 12.6636 276.65C12.6636 268.584 12.2603 256.486 11.9578 246.707C11.9578 245.9 11.9578 245.094 11.9578 244.287C11.9578 233.197 13.9743 222.914 15.8902 215.453C17.4027 225.132 18.6128 236.222 18.6128 245.9C18.6128 250.135 18.411 254.067 17.806 257.494V257.595C12.5627 288.042 11.6552 309.718 11.6552 320.909C11.6552 325.446 11.756 328.269 11.8568 329.176C10.7477 332.402 0.866066 362.043 0.866066 394.103C0.866066 394.103 0.866066 394.305 0.866066 394.507C0.866066 395.313 0.966899 396.926 1.37023 398.741C1.77357 400.556 2.68105 402.673 4.49605 404.185C5.70606 405.193 7.31935 405.798 9.23519 405.798C10.1427 405.798 11.0502 405.597 11.756 405.093C12.4619 404.588 12.966 403.984 13.3693 403.278C14.176 401.866 14.4786 400.152 14.6802 398.136C15.0836 394.204 14.7811 389.264 14.9828 384.526C15.5878 372.831 18.1085 361.136 20.8311 349.542L37.6703 278.566C38.6787 278.767 39.687 278.969 40.6954 278.969C41.6029 278.969 42.4095 278.868 43.317 278.666C43.317 284.211 43.2162 301.351 43.2162 313.751C43.2162 320.103 43.2162 325.144 43.317 326.757C43.317 326.958 43.317 327.16 43.317 327.362C43.317 327.362 43.317 327.362 43.317 327.462V327.563C43.317 327.664 43.317 327.866 43.317 328.067C43.317 331.193 43.0145 344.299 42.712 358.313C42.4095 372.327 42.0062 387.248 41.8045 394.003C41.8045 394.607 41.8045 395.414 41.8045 396.221C41.8045 397.43 41.8045 398.842 42.0061 400.152C42.2078 401.463 42.5104 402.774 43.2162 403.883C43.6195 404.589 44.3254 405.294 45.2329 405.697C45.737 405.899 46.342 406 46.8462 406C47.1487 406 47.4512 406 47.7537 405.899C49.0646 405.698 50.577 405.093 52.1903 404.286C53.8036 403.58 55.5178 402.673 57.1312 401.766C60.257 400.052 62.8788 398.439 62.8788 398.338L63.0804 398.136C63.4837 397.733 63.887 397.33 64.1895 396.926C64.492 396.523 64.6937 396.019 64.6937 395.414C64.6937 395.011 64.5929 394.608 64.3913 394.305C64.1896 394.003 64.0888 393.801 63.8871 393.599C63.4838 393.196 63.0804 392.994 62.677 392.692C61.8704 392.188 61.0637 391.785 60.5595 391.281C59.7529 390.474 58.8453 389.365 58.2403 387.55C57.5345 385.735 57.1312 383.316 57.1312 379.888C57.1312 379.787 57.1312 379.585 57.1312 379.485C57.3328 364.564 59.0471 334.419 59.4504 327.16C59.5512 326.152 59.5512 325.648 59.5512 325.547C59.5512 325.043 60.5595 315.465 61.5679 302.964C62.5762 290.059 63.5845 274.13 63.5845 261.729C63.5845 260.317 63.5845 258.906 63.5845 257.595C63.5845 257.595 63.5845 257.595 63.5845 257.494C63.1812 238.843 62.072 224.023 60.5595 212.429C60.5595 212.328 60.5595 212.227 60.5595 212.126V212.025C60.257 210.009 60.0553 207.993 59.7528 205.976V205.876V205.775V205.674C59.5512 204.162 59.2487 202.75 59.047 201.339L64.3913 194.281C65.7021 195.189 68.0212 196.6 71.7521 197.911C77.9029 200.23 87.8855 202.448 103.212 202.448C117.631 202.448 136.79 200.532 162.099 194.785L163.309 194.483L163.007 180.469ZM48.5603 175.227C48.6611 175.328 48.6612 175.428 48.7621 175.63C49.1654 176.537 49.8711 177.949 50.577 180.066C52.0895 184.3 54.0054 191.055 55.8204 201.439C56.0221 202.548 56.2237 203.658 56.3246 204.767L17.5036 206.984C16.1928 199.221 14.8818 193.273 14.3777 191.156L17.3019 188.132L22.2428 194.987L27.0828 188.535L31.9228 195.088L37.0652 187.728L45.737 194.382V184.603C45.737 181.881 45.8379 179.058 45.8379 176.134C46.0395 176.033 46.2411 175.932 46.5436 175.832C46.947 175.63 47.6528 175.428 48.5603 175.227ZM21.0328 256.285C21.4361 253.159 21.6378 249.631 21.6378 246.001C21.6378 236.625 20.4278 225.938 19.0161 216.461L57.5345 214.344C58.8454 225.333 59.9545 239.146 60.257 256.285H21.0328ZM56.7278 207.791C56.9295 208.9 57.0303 210.11 57.232 211.32L18.6128 213.437L18.3102 211.32L18.1086 209.908L56.7278 207.791ZM12.7644 145.989C14.9827 141.856 17.5035 138.63 20.4277 136.916C22.1419 135.908 23.8561 135.403 25.8727 135.403C28.7969 135.403 31.1161 135.807 33.0319 136.613C34.9477 137.42 36.4603 138.529 37.7712 140.041C40.292 142.965 41.7036 147.199 42.4095 152.341C42.9137 155.769 43.0145 159.6 43.0145 163.532C43.0145 167.262 42.9137 171.194 42.712 175.025C42.6112 178.251 42.5103 181.377 42.5103 184.502V188.031L36.2587 183.191L31.7211 189.644L26.9819 183.292L22.2428 189.745L17.6044 183.292L12.6636 188.333L10.7477 186.115L7.92442 182.788L3.18517 187.022C3.5885 181.679 4.29439 175.227 5.50439 168.674C7.21856 160.507 9.43685 152.24 12.7644 145.989ZM8.93276 244.287C8.93276 245.094 8.93276 246.001 8.93276 246.808C9.13443 256.587 9.63854 268.685 9.63854 276.751C9.63854 279.775 9.53776 282.195 9.43693 283.606C9.33609 283.506 9.33602 283.506 9.23519 283.405C8.93268 283.203 8.73107 282.901 8.5294 282.699C4.49605 253.26 2.98355 232.794 2.98355 218.679C2.98355 208.9 3.68933 202.145 4.69767 197.508C5.70601 192.971 7.01687 190.551 8.12604 189.543C8.52937 189.14 8.83188 188.938 9.13438 188.736L11.2519 191.257C11.3527 191.458 11.3528 191.761 11.4536 192.265C11.6553 193.172 11.9577 194.382 12.2602 195.995C12.8652 199.121 13.7727 203.456 14.6802 208.497C12.4619 215.857 8.93276 229.265 8.93276 244.287ZM17.806 348.937C15.1844 360.531 12.5628 372.427 11.9578 384.425C11.8569 387.248 11.8568 390.071 11.8568 392.692C11.8568 395.313 11.7561 397.632 11.4536 399.346C11.2519 400.556 10.9494 401.463 10.6469 401.967C10.4452 402.27 10.2435 402.471 10.1427 402.572C9.94105 402.673 9.73933 402.774 9.33599 402.774C8.02516 402.774 7.21856 402.371 6.51273 401.866C5.80689 401.262 5.30275 400.455 4.89941 399.548C4.09274 397.632 3.99188 395.414 3.99188 394.607C3.99188 394.406 3.99188 394.305 3.99188 394.305C3.99188 362.043 14.2768 331.898 14.8818 330.084V329.983L14.9828 329.68V329.378V329.277C14.9828 329.176 14.9828 329.076 14.9828 328.874C14.9828 328.571 14.9827 327.967 14.8818 327.261C14.781 325.849 14.781 323.732 14.781 321.01C14.781 310.525 15.5878 290.563 20.1253 262.435C20.3269 262.838 20.6294 263.241 20.8311 263.644C22.6461 266.568 25.2678 270.298 28.5953 273.424C30.4103 275.138 32.5278 276.65 34.7461 277.658L17.806 348.937ZM36.9644 275.339C34.7461 274.533 32.6286 273.121 30.7128 271.407C28.797 269.593 27.0828 267.576 25.5703 265.56C23.8561 263.241 22.5453 260.922 21.7386 259.41H59.4504C59.0471 260.217 58.4421 261.124 57.8371 262.132C56.0221 264.955 53.5012 268.484 50.577 271.307C48.5603 273.121 46.4429 274.634 44.2245 275.44C43.1154 275.843 41.9054 276.045 40.6954 276.045C39.3845 275.944 38.1744 275.743 36.9644 275.339ZM56.5262 323.631C56.4254 324.74 56.3246 325.345 56.3246 325.345V325.446C56.3246 325.446 54.1062 362.346 53.9045 379.585C53.9045 379.686 53.9045 379.888 53.9045 379.989C53.9045 383.618 54.4086 386.441 55.2153 388.659C56.022 390.877 57.1312 392.389 58.3412 393.498C58.9463 394.003 59.5512 394.406 60.0554 394.708C60.5595 395.011 61.0638 395.313 61.3663 395.515C61.2654 395.616 61.1645 395.717 61.0637 395.817C61.0637 395.817 60.9629 395.817 60.9629 395.918C60.7612 396.019 60.5595 396.12 60.257 396.321C59.652 396.725 58.7445 397.229 57.7361 397.834C55.7195 399.044 53.0979 400.455 50.8795 401.463C49.367 402.169 47.9554 402.673 47.2495 402.774C47.1487 402.774 46.947 402.774 46.8462 402.774C46.6445 402.774 46.5437 402.774 46.342 402.673C46.2412 402.572 46.1403 402.572 46.0395 402.471C45.8378 402.27 45.5353 401.766 45.3337 401.161C44.9303 399.85 44.8295 397.934 44.8295 396.12C44.8295 395.313 44.8295 394.607 44.8295 394.003C45.0312 387.248 45.3337 372.327 45.737 358.313C46.0395 344.299 46.342 331.193 46.342 327.967C46.342 327.664 46.342 327.462 46.342 327.261C46.342 327.16 46.342 327.16 46.342 327.059C46.342 327.059 46.342 326.958 46.342 326.858C46.342 326.656 46.342 326.353 46.342 326.051C46.342 325.345 46.342 324.337 46.342 323.228C46.342 320.808 46.342 317.582 46.342 313.852C46.342 302.661 46.4428 287.538 46.4428 280.683C46.4428 279.473 46.4428 278.465 46.4428 277.86C48.762 276.852 50.8796 275.239 52.7954 273.525C55.0137 271.508 56.9296 269.189 58.4421 266.971C59.2487 265.862 59.9545 264.653 60.6603 263.644C60.3578 284.917 57.3329 316.07 56.5262 323.631ZM74.0713 195.794C68.2229 193.878 65.6012 191.761 65.0971 191.358L64.9962 191.257L63.7862 190.047L58.1395 197.508C55.7195 184.804 53.0978 178.05 51.6861 174.924C51.9886 174.924 52.1903 174.924 52.4928 174.924C57.0304 174.924 63.8871 176.336 73.0629 181.679C81.9363 186.821 91.818 189.543 100.288 191.055C108.758 192.567 115.816 192.668 119.043 192.668C120.152 192.668 120.757 192.668 120.757 192.668C120.757 192.668 134.471 191.963 146.167 190.249C150.1 189.644 153.73 189.039 156.654 188.132C157.864 187.829 158.973 187.426 159.981 187.022V192.265C135.479 197.81 116.926 199.625 103.01 199.625C89.1963 199.625 79.9196 197.81 74.0713 195.794Z" fill="#59381A"/>
</svg>
