<svg width="77" height="190" viewBox="0 0 77 190" fill="none" xmlns="http://www.w3.org/2000/svg">
<path d="M75.7974 94.3973C75.7974 120.382 69.0422 171.977 59.6598 183.703H46.1493C36.8139 171.977 30.0117 120.382 30.0117 94.3973C30.0117 42.8024 37.0485 0.776004 52.9046 0.963622C68.7607 0.7291 75.7974 42.8024 75.7974 94.3973Z" fill="#D03F36"/>
<path d="M74.1541 47.8681C72.5591 34.1251 70.2135 22.5866 66.8828 14.2846C64.6779 8.74983 62.0978 4.62224 58.9548 2.32392C57.1721 1.0106 55.1549 0.260102 53.0439 0.307007C52.997 0.307007 52.9501 0.307007 52.9032 0.307007C52.8563 0.307007 52.8093 0.307007 52.7624 0.307007C50.6514 0.307007 48.6342 1.0106 46.8516 2.32392C45.0689 3.63724 43.427 5.56031 41.9728 7.99935C39.0173 12.8305 36.6718 19.7724 34.7953 28.2621C31.0424 45.2884 29.3066 68.6468 29.3066 94.3973C29.3066 111.517 32.2152 139.613 36.9063 160.251C38.4544 167.146 40.1901 173.197 42.1135 177.793C43.1925 180.42 44.3653 182.531 45.585 184.125L45.7726 184.407H59.9399L60.1745 184.125C61.3942 182.578 62.567 180.42 63.6459 177.84C64.7249 175.214 65.7569 172.118 66.7421 168.647C68.7124 161.705 70.4481 153.356 71.8554 144.538C74.717 126.902 76.4058 107.484 76.4058 94.4442V94.3973C76.4997 77.4648 75.7491 61.6111 74.1541 47.8681ZM75.0923 94.4442C75.0923 111.424 72.1838 139.472 67.5395 159.97C65.9915 166.818 64.2557 172.822 62.3793 177.277C61.3941 179.67 60.3621 181.593 59.2831 183H46.4763C45.4442 181.64 44.4122 179.67 43.3801 177.277C42.3011 174.745 41.2691 171.696 40.3309 168.225C38.4075 161.377 36.6718 153.028 35.2644 144.257C32.4028 126.668 30.714 107.343 30.714 94.3973C30.714 77.5117 31.4646 61.7049 33.0596 48.0557C34.6076 34.4066 37.0002 22.915 40.2371 14.8005C42.395 9.40648 44.9282 5.51343 47.696 3.44964C49.291 2.27703 50.9798 1.66725 52.7624 1.66725H52.8563H52.9501C54.7796 1.66725 56.4215 2.27703 58.0165 3.44964C59.6115 4.62225 61.1127 6.40459 62.52 8.70291C65.3347 13.3464 67.6803 20.1007 69.5099 28.5435C73.2159 45.3822 74.9516 68.6937 74.9516 94.3973V94.4442H75.0923Z" fill="#54362C"/>
<path d="M75.7476 86.0483L75.7945 90.3166C39.2035 98.6656 30.3842 89.8007 30.3842 89.8007L27.2881 93.8813C25.5992 84.1252 23.582 81.0296 23.582 81.0296C25.7869 80.7012 29.5867 80.9826 34.9815 84.1721C44.4107 89.7069 56.7954 89.1909 56.7954 89.1909C56.7954 89.1909 73.5428 88.3466 75.7476 86.0483Z" fill="#B46C51"/>
<path d="M28.2281 182.859C29.1663 183.75 30.7613 183.844 29.4478 185.017C29.4478 185.017 24.6159 188.019 22.6925 188.394C20.6284 188.769 20.7222 185.439 20.7691 183.61C20.9568 176.855 21.5197 153.075 21.4259 152.559C21.3321 152.09 21.4259 129.107 21.4259 129.107L21.3789 129.013C26.0232 127.371 29.4478 120.195 29.4478 120.195C29.6823 131.452 27.5713 151.715 27.5713 151.715C27.5713 151.715 26.5392 168.882 26.4454 176.855C26.3516 180.279 27.2898 181.968 28.2281 182.859Z" fill="#B46C51"/>
<path d="M29.4459 120.242H9.60229C10.4936 114.895 9.69612 106.921 8.66406 100.354L28.0386 99.2754C28.7422 104.669 29.2583 111.564 29.4459 120.242Z" fill="#B46C51"/>
<path d="M9.60352 120.242H29.4471C29.4471 120.242 26.0695 127.418 21.3783 129.06C20.7685 129.294 20.1586 129.388 19.5018 129.388C18.8451 129.388 18.1883 129.247 17.5785 129.06C12.8873 127.371 9.60352 120.242 9.60352 120.242Z" fill="#F1C650"/>
<path d="M28.0409 99.1348C28.0409 99.1817 28.0409 99.2286 28.0409 99.2755L8.66641 100.354L8.38495 98.7596L8.15039 97.3524L27.5718 96.2737V96.3675C27.8063 97.2117 27.9002 98.1498 28.0409 99.1348Z" fill="#F1C45F"/>
<path d="M28.0394 99.1348C27.8986 98.1967 27.8048 97.2586 27.6641 96.3206C27.7579 97.1648 27.8986 98.1029 28.0394 99.1348Z" fill="#B46C51"/>
<path d="M27.618 96.2268L8.19659 97.3056V97.3525C7.35218 92.4744 6.55469 89.0035 6.55469 89.0035L8.80646 86.7052L11.0582 89.8009L13.31 86.799L15.5148 89.8009L17.7666 86.6113L21.238 89.2849V86.1893C21.238 84.7821 21.2849 83.2812 21.3318 81.8271C21.5664 81.6864 22.317 81.2643 23.6774 81.0767C23.6774 81.0767 25.6946 84.1724 27.3834 93.9285C27.3834 94.6321 27.5242 95.3825 27.618 96.2268Z" fill="#B46C51"/>
<path d="M21.2382 81.7801C21.1913 83.2811 21.1443 84.7351 21.1443 86.1422V89.2379L17.6729 86.5643L15.4211 89.7539L13.2163 86.752L10.9645 89.7539L8.71277 86.6582L6.46105 88.9565L5.0537 87.3148L4.20927 86.3298L1.30078 88.9565C1.62916 80.6544 4.2093 62.5962 12.5596 62.5962C21.9888 62.6431 21.5197 72.3054 21.2382 81.7801Z" fill="#F1C650"/>
<path d="M17.5786 129.06V129.154L9.60368 162.831C8.38398 168.225 7.16432 173.713 6.88285 179.248C6.6952 183.75 7.35193 188.441 4.91253 188.441C1.5349 188.441 1.72258 183.75 1.72258 183.75C1.72258 168.084 6.83589 153.638 6.83589 153.638C6.83589 153.638 5.89768 141.583 9.55678 120.336C9.6037 120.242 12.8875 127.371 17.5786 129.06Z" fill="#B46C51"/>
<path d="M6.50759 89.0033C6.50759 89.0033 7.352 92.4742 8.1495 97.3523C7.07053 100.87 5.24096 107.671 5.42861 115.129C5.61625 122.634 5.99154 132.953 5.42861 133.14C4.81876 133.328 3.83366 132.155 3.83366 132.155C-1.56117 92.8495 2.80159 87.643 5.05335 87.3147L6.50759 89.0033Z" fill="#B46C51"/>
<path d="M76.4535 84.266L75.2339 85.5324C75.14 85.6731 74.7647 85.8607 74.2956 86.0953C73.7796 86.2829 73.1228 86.4705 72.3723 86.6581C70.8711 87.0334 68.9946 87.3148 67.0243 87.5962C63.1307 88.1122 59.0963 88.3467 57.4544 88.4874C56.9853 88.5343 56.7507 88.5343 56.7507 88.5343H56.7038C56.6569 88.5343 56.6099 88.5343 56.563 88.5343C56.4223 88.5343 56.2347 88.5343 56.0001 88.5343C54.5928 88.5343 51.3559 88.4405 47.556 87.7838C43.7093 87.1271 39.2527 85.8608 35.359 83.6094C30.9024 81.0296 27.5248 80.2791 25.0854 80.2791C24.4756 80.2791 23.9595 80.326 23.4904 80.3729C22.8806 80.4667 22.4115 80.6074 21.9893 80.7012C22.0362 79.2472 22.0831 77.8401 22.0831 76.3861C22.0831 74.2754 21.9893 72.2115 21.7078 70.3823C21.3794 68.5061 20.8634 66.8175 19.972 65.4104C19.3622 64.4723 18.6116 63.6749 17.6265 63.1121C16.3129 62.3147 14.7179 61.8926 12.7007 61.8926C11.528 61.8926 10.449 62.2209 9.4639 62.7838C8.47876 63.3466 7.63435 64.144 6.88376 65.129C5.38259 67.0521 4.25672 69.6318 3.3654 72.493C1.62967 78.1684 0.879041 84.7819 0.738306 88.9564L0.691406 90.645L2.47407 89.0503C2.33333 89.3317 2.23949 89.6131 2.09875 89.9415C1.30126 92.1929 0.691406 95.8983 0.691406 102.043C0.691406 108.75 1.39508 118.366 3.27154 132.249L3.31844 132.437L3.4592 132.578C3.4592 132.578 3.59991 132.765 3.78756 132.953C3.9752 133.14 4.25671 133.422 4.58509 133.609C4.81964 133.75 5.05417 133.844 5.42946 133.844C5.52328 133.844 5.66405 133.844 5.75788 133.797C5.94552 133.75 6.03931 133.609 6.13313 133.516C6.18004 133.422 6.22698 133.375 6.27389 133.281C6.3208 133.14 6.36769 133.047 6.36769 132.906C6.4146 132.671 6.46155 132.343 6.46155 131.968C6.50846 131.217 6.50845 130.185 6.50845 129.013C6.50845 125.26 6.32083 119.632 6.18009 115.082C6.18009 114.707 6.18009 114.332 6.18009 113.956C6.18009 108.797 7.11828 104.013 8.00959 100.542C8.71327 105.045 9.27624 110.204 9.27624 114.707C9.27624 116.677 9.18239 118.506 8.90093 120.101V120.148C6.46153 134.313 6.03933 144.397 6.03933 149.604C6.03933 151.715 6.08622 153.028 6.13313 153.45C5.61711 154.951 1.01982 168.741 1.01982 183.656C1.01982 183.656 1.01982 183.75 1.01982 183.844C1.01982 184.219 1.06673 184.97 1.25438 185.814C1.44203 186.658 1.86422 187.643 2.70863 188.347C3.27156 188.816 4.02213 189.097 4.91344 189.097C5.33565 189.097 5.75785 189.004 6.08623 188.769C6.41461 188.535 6.64916 188.253 6.83681 187.925C7.2121 187.268 7.35286 186.471 7.44668 185.533C7.63433 183.703 7.49361 181.405 7.58744 179.201C7.86891 173.76 9.04166 168.319 10.3083 162.925L18.1425 129.904C18.6116 129.998 19.0808 130.092 19.5499 130.092C19.9721 130.092 20.3474 130.045 20.7696 129.951C20.7696 132.531 20.7227 140.504 20.7227 146.274C20.7227 149.229 20.7227 151.574 20.7696 152.324C20.7696 152.418 20.7696 152.512 20.7696 152.606C20.7696 152.606 20.7696 152.606 20.7696 152.653V152.7C20.7696 152.746 20.7696 152.84 20.7696 152.934C20.7696 154.388 20.6288 160.486 20.4881 167.005C20.3474 173.525 20.1597 180.467 20.0659 183.61C20.0659 183.891 20.0659 184.266 20.0659 184.641C20.0659 185.204 20.0659 185.861 20.1597 186.471C20.2535 187.08 20.3943 187.69 20.7227 188.206C20.9103 188.535 21.2387 188.863 21.6609 189.05C21.8955 189.144 22.1769 189.191 22.4115 189.191C22.5522 189.191 22.693 189.191 22.8337 189.144C23.4435 189.051 24.1472 188.769 24.8977 188.394C25.6483 188.065 26.4458 187.643 27.1964 187.221C28.6507 186.424 29.8704 185.673 29.8704 185.626L29.9642 185.533C30.1519 185.345 30.3395 185.157 30.4802 184.97C30.621 184.782 30.7148 184.548 30.7148 184.266C30.7148 184.079 30.6679 183.891 30.5741 183.75C30.4803 183.61 30.4334 183.516 30.3395 183.422C30.1519 183.234 29.9642 183.141 29.7766 183C29.4013 182.765 29.026 182.578 28.7914 182.343C28.4161 181.968 27.9939 181.452 27.7124 180.608C27.3841 179.763 27.1964 178.638 27.1964 177.043C27.1964 176.996 27.1964 176.902 27.1964 176.855C27.2902 169.913 28.0878 155.889 28.2754 152.512C28.3223 152.043 28.3223 151.808 28.3223 151.761C28.3223 151.527 28.7914 147.071 29.2605 141.255C29.7297 135.251 30.1988 127.84 30.1988 122.071C30.1988 121.414 30.1988 120.758 30.1988 120.148C30.1988 120.148 30.1988 120.148 30.1988 120.101C30.0111 111.424 29.4951 104.529 28.7914 99.1347C28.7914 99.0878 28.7914 99.0409 28.7914 98.994V98.9471C28.6507 98.009 28.5568 97.0709 28.4161 96.1328V96.0859V96.039V95.9921C28.3223 95.2885 28.1816 94.6319 28.0878 93.9752L30.5741 90.6919C31.1839 91.114 32.2629 91.7707 33.9986 92.3805C36.8602 93.4593 41.5045 94.4912 48.635 94.4912C55.3434 94.4912 64.2565 93.6 76.0313 90.9264L76.5943 90.7857L76.4535 84.266ZM23.2089 81.827C23.2559 81.8739 23.2559 81.9208 23.3028 82.0146C23.4904 82.4367 23.8188 83.0934 24.1472 84.0784C24.8508 86.0484 25.7422 89.191 26.5866 94.0221C26.6804 94.5381 26.7743 95.054 26.8212 95.57L8.76023 96.6019C8.15038 92.9902 7.54048 90.2229 7.30592 89.2379L8.66637 87.8308L10.965 91.0202L13.2168 88.0183L15.4685 91.0671L17.861 87.6431L21.8955 90.7388V86.1891C21.8955 84.9227 21.9424 83.6093 21.9424 82.2491C22.0362 82.2022 22.13 82.1553 22.2707 82.1084C22.4584 82.0146 22.7867 81.9208 23.2089 81.827ZM10.4021 119.538C10.5898 118.084 10.6836 116.442 10.6836 114.754C10.6836 110.392 10.1207 105.42 9.4639 101.011L27.3841 100.026C27.9939 105.138 28.5099 111.564 28.6507 119.538H10.4021ZM27.0088 96.9771C27.1026 97.4931 27.1495 98.0559 27.2433 98.6188L9.27624 99.6038L9.13548 98.6188L9.04168 97.9621L27.0088 96.9771ZM6.55535 68.2247C7.5874 66.3016 8.76018 64.8007 10.1206 64.0033C10.9181 63.5342 11.7156 63.2997 12.6538 63.2997C14.0143 63.2997 15.0932 63.4873 15.9846 63.8625C16.8759 64.2378 17.5796 64.7537 18.1894 65.4573C19.3622 66.8175 20.019 68.7876 20.3474 71.1797C20.5819 72.7744 20.6288 74.5568 20.6288 76.3861C20.6288 78.1215 20.5819 79.9508 20.4881 81.7332C20.4412 83.2341 20.3943 84.6881 20.3943 86.1421V87.7838L17.4858 85.5324L15.3747 88.5343L13.1699 85.5793L10.965 88.5812L8.80713 85.5793L6.50845 87.9245L5.61712 86.8927L4.30363 85.3448L2.09875 87.3148C2.2864 84.8288 2.6148 81.827 3.17774 78.7782C3.97524 74.9789 5.00727 71.1328 6.55535 68.2247ZM4.77274 113.956C4.77274 114.332 4.77274 114.754 4.77274 115.129C4.86657 119.679 5.1011 125.307 5.1011 129.06C5.1011 130.467 5.05421 131.593 5.0073 132.249C4.96039 132.202 4.96036 132.202 4.91344 132.155C4.77271 132.062 4.67891 131.921 4.58509 131.827C2.70863 118.131 2.00495 108.609 2.00495 102.043C2.00495 97.493 2.33331 94.3504 2.80243 92.1928C3.27154 90.0821 3.8814 88.9564 4.39743 88.4874C4.58508 88.2997 4.72581 88.206 4.86654 88.1122L5.85168 89.2848C5.89859 89.3786 5.89862 89.5193 5.94553 89.7538C6.03936 90.176 6.18006 90.7388 6.32079 91.4893C6.60226 92.9433 7.02448 94.9602 7.44668 97.3054C6.41463 100.729 4.77274 106.968 4.77274 113.956ZM8.90093 162.643C7.68123 168.037 6.46156 173.572 6.18009 179.154C6.13318 180.467 6.13313 181.78 6.13313 183C6.13313 184.219 6.08627 185.298 5.94553 186.096C5.85171 186.658 5.71095 187.081 5.57022 187.315C5.47639 187.456 5.38257 187.55 5.33566 187.596C5.24184 187.643 5.14799 187.69 4.96034 187.69C4.35049 187.69 3.97524 187.503 3.64686 187.268C3.31848 186.987 3.08393 186.611 2.89628 186.189C2.52099 185.298 2.47407 184.266 2.47407 183.891C2.47407 183.797 2.47407 183.75 2.47407 183.75C2.47407 168.741 7.25901 154.716 7.54048 153.872V153.825L7.58744 153.685V153.544V153.497C7.58744 153.45 7.58744 153.403 7.58744 153.309C7.58744 153.169 7.58739 152.887 7.54048 152.559C7.49357 151.902 7.49358 150.917 7.49358 149.651C7.49358 144.773 7.86889 135.486 9.97991 122.399C10.0737 122.587 10.2144 122.775 10.3083 122.962C11.1527 124.322 12.3724 126.058 13.9205 127.512C14.7649 128.309 15.75 129.013 16.7821 129.482L8.90093 162.643ZM17.8141 128.403C16.7821 128.028 15.7969 127.371 14.9056 126.574C14.0143 125.73 13.2168 124.791 12.5131 123.853C11.7157 122.775 11.1058 121.696 10.7305 120.992H28.2754C28.0878 121.367 27.8063 121.79 27.5248 122.259C26.6804 123.572 25.5076 125.214 24.1472 126.527C23.2089 127.371 22.2238 128.075 21.1918 128.45C20.6758 128.638 20.1128 128.731 19.5499 128.731C18.94 128.684 18.3771 128.591 17.8141 128.403ZM26.915 150.87C26.8681 151.386 26.8212 151.668 26.8212 151.668V151.715C26.8212 151.715 25.7891 168.882 25.6953 176.902C25.6953 176.949 25.6953 177.043 25.6953 177.09C25.6953 178.778 25.9298 180.092 26.3051 181.124C26.6804 182.156 27.1965 182.859 27.7594 183.375C28.0409 183.61 28.3223 183.797 28.5569 183.938C28.7914 184.079 29.026 184.219 29.1667 184.313C29.1198 184.36 29.0729 184.407 29.026 184.454C29.026 184.454 28.9791 184.454 28.9791 184.501C28.8853 184.548 28.7914 184.595 28.6507 184.688C28.3692 184.876 27.947 185.111 27.4779 185.392C26.5397 185.955 25.32 186.611 24.2879 187.081C23.5843 187.409 22.9275 187.643 22.5991 187.69C22.5522 187.69 22.4584 187.69 22.4115 187.69C22.3176 187.69 22.2707 187.69 22.1769 187.643C22.13 187.596 22.0831 187.596 22.0362 187.55C21.9423 187.456 21.8016 187.221 21.7078 186.94C21.5202 186.33 21.4732 185.439 21.4732 184.595C21.4732 184.219 21.4732 183.891 21.4732 183.61C21.5671 180.467 21.7078 173.525 21.8955 167.005C22.0362 160.486 22.1769 154.388 22.1769 152.887C22.1769 152.746 22.1769 152.653 22.1769 152.559C22.1769 152.512 22.1769 152.512 22.1769 152.465C22.1769 152.465 22.1769 152.418 22.1769 152.371C22.1769 152.277 22.1769 152.137 22.1769 151.996C22.1769 151.668 22.1769 151.199 22.1769 150.683C22.1769 149.557 22.1769 148.056 22.1769 146.321C22.1769 141.114 22.2238 134.078 22.2238 130.889C22.2238 130.326 22.2238 129.857 22.2238 129.576C23.3028 129.107 24.2879 128.356 25.1793 127.559C26.2113 126.621 27.1026 125.542 27.8063 124.51C28.1816 123.994 28.5099 123.431 28.8383 122.962C28.6976 132.859 27.2903 147.352 26.915 150.87ZM35.0776 91.3955C32.3567 90.5043 31.137 89.5193 30.9024 89.3317L30.8555 89.2848L30.2926 88.7219L27.6655 92.1928C26.5397 86.2829 25.32 83.1403 24.6632 81.6862C24.8039 81.6862 24.8978 81.6862 25.0385 81.6862C27.1495 81.6862 30.3395 82.3429 34.6085 84.8289C38.7367 87.221 43.334 88.4874 47.2746 89.1909C51.2152 89.8945 54.499 89.9415 56.0001 89.9415C56.5161 89.9415 56.7976 89.9415 56.7976 89.9415C56.7976 89.9415 63.1776 89.6131 68.6193 88.8157C70.4489 88.5343 72.1377 88.2529 73.4981 87.8308C74.0611 87.69 74.5771 87.5024 75.0462 87.3148V89.7538C63.6467 92.3336 55.015 93.1778 48.5412 93.1778C42.1143 93.1778 37.7985 92.3336 35.0776 91.3955Z" fill="#59381A"/>
</svg>
