<svg width="570" height="189" viewBox="0 0 570 189" fill="none" xmlns="http://www.w3.org/2000/svg">
<path d="M534.438 132.898C507.276 133.883 483.961 130.975 489.684 129.052C495.408 127.129 533.359 125.628 533.359 125.628L534.438 132.898Z" fill="#D03F36"/>
<path d="M568.684 124.643C568.356 119.061 563.571 114.746 557.989 115.027C556.347 115.121 554.799 115.59 553.438 116.387C552.078 115.074 550.201 114.277 548.184 114.417C544.29 114.652 541.335 117.935 541.523 121.828C541.523 122.016 541.569 122.204 541.616 122.344L541.523 122.391C540.397 121.734 539.036 121.359 537.582 121.453C533.688 121.688 530.733 124.971 530.921 128.864C531.155 132.757 534.439 135.712 538.333 135.524C539.458 135.477 540.537 135.102 541.429 134.586C542.555 135.243 543.915 135.618 545.369 135.524C547.809 135.384 549.873 134.023 551.046 132.1C553.016 134.258 555.924 135.524 559.067 135.337C564.697 135.008 568.966 130.224 568.684 124.643Z" fill="#DDE2EA"/>
<path d="M569.388 124.596C569.059 118.826 564.274 114.324 558.551 114.324C558.363 114.324 558.176 114.324 557.941 114.324C556.346 114.417 554.845 114.84 553.531 115.543C552.171 114.371 550.435 113.667 548.559 113.667C548.418 113.667 548.277 113.667 548.137 113.667C544.055 113.902 540.912 117.232 540.818 121.219C539.927 120.89 538.989 120.703 538.004 120.703C537.863 120.703 537.722 120.703 537.582 120.703C534.673 120.843 532.281 122.579 531.061 125.018C525.666 125.252 511.78 125.909 501.413 126.753C497.05 127.129 493.25 127.551 490.998 127.973C490.389 128.114 489.872 128.207 489.45 128.348C489.216 128.442 488.981 128.536 488.794 128.63C488.606 128.723 488.418 128.864 488.278 129.099C488.184 129.239 488.09 129.427 488.09 129.661C488.09 129.849 488.137 130.037 488.231 130.177C488.324 130.318 488.418 130.412 488.512 130.506C488.7 130.693 488.934 130.787 489.216 130.928C489.732 131.162 490.435 131.35 491.327 131.584C493.109 132.007 495.643 132.382 498.786 132.71C505.072 133.367 513.75 133.836 523.508 133.836C526.323 133.836 529.231 133.789 532.234 133.695C533.641 135.29 535.705 136.228 537.957 136.228C538.098 136.228 538.238 136.228 538.379 136.228C539.505 136.181 540.537 135.853 541.475 135.384C542.554 135.947 543.727 136.275 545.04 136.275C545.181 136.275 545.322 136.275 545.463 136.275C547.808 136.134 549.872 134.962 551.186 133.226C553.109 135.009 555.736 136.087 558.551 136.087C558.739 136.087 558.973 136.087 559.161 136.087C564.931 135.759 569.434 130.975 569.434 125.252C569.388 124.971 569.388 124.783 569.388 124.596ZM523.508 132.382C512.202 132.382 502.304 131.772 496.065 130.928C494.001 130.646 492.312 130.365 491.139 130.037C490.67 129.896 490.248 129.802 489.966 129.661C490.529 129.474 491.514 129.286 492.734 129.099C494.048 128.911 495.596 128.723 497.425 128.536C500.991 128.16 505.4 127.832 509.904 127.551C517.972 127.035 526.323 126.613 530.545 126.425C530.357 127.082 530.263 127.738 530.263 128.442C530.263 128.583 530.263 128.723 530.263 128.864C530.357 130.084 530.686 131.256 531.248 132.241C528.621 132.335 526.041 132.382 523.508 132.382ZM559.02 134.633C558.832 134.633 558.645 134.633 558.504 134.633C555.783 134.633 553.297 133.461 551.561 131.584L550.904 130.881L550.435 131.678C549.403 133.414 547.527 134.633 545.322 134.774C545.181 134.774 545.087 134.774 544.994 134.774C543.821 134.774 542.742 134.446 541.804 133.883L541.428 133.695L541.053 133.883C540.209 134.352 539.27 134.68 538.238 134.727C538.098 134.727 538.004 134.727 537.863 134.727C536.503 134.727 535.189 134.258 534.157 133.508C533.641 133.132 533.172 132.663 532.797 132.147C532.093 131.209 531.624 130.037 531.577 128.723C531.577 128.583 531.577 128.489 531.577 128.395C531.577 127.691 531.718 126.988 531.905 126.331C532.093 125.815 532.327 125.346 532.609 124.877C533.688 123.282 535.471 122.157 537.535 122.063C537.628 122.063 537.769 122.063 537.863 122.063C539.036 122.063 540.115 122.391 541.053 122.907L541.428 123.142L541.804 122.907L542.273 122.626L542.226 122.157C542.179 121.922 542.132 121.735 542.132 121.688C542.132 121.547 542.132 121.453 542.132 121.359C542.132 118.029 544.759 115.215 548.137 115.027C548.277 115.027 548.371 115.027 548.465 115.027C550.154 115.027 551.702 115.731 552.875 116.81L553.25 117.185L553.719 116.903C554.986 116.153 556.393 115.731 557.941 115.637C558.129 115.637 558.27 115.637 558.457 115.637C563.43 115.637 567.605 119.53 567.886 124.596C567.886 124.783 567.886 124.924 567.886 125.112C567.98 130.177 564.087 134.352 559.02 134.633Z" fill="#54362C"/>
<path d="M559.068 139.042C557.145 139.042 555.55 140.637 555.55 142.56C553.626 142.56 552.031 144.155 552.031 146.078C552.031 148.001 553.626 149.596 555.55 149.596C557.473 149.596 559.068 148.001 559.068 146.078C560.991 146.078 562.586 144.483 562.586 142.56C562.586 140.59 561.038 139.042 559.068 139.042Z" fill="#DDE2EA"/>
<path d="M563.289 142.56C563.289 140.215 561.412 138.339 559.067 138.339C556.956 138.339 555.22 139.886 554.891 141.903C552.874 142.232 551.326 143.967 551.326 146.078C551.326 148.423 553.203 150.299 555.548 150.299C557.659 150.299 559.395 148.751 559.723 146.735C561.741 146.406 563.289 144.671 563.289 142.56ZM561.084 144.53C560.568 145.046 559.864 145.374 559.113 145.374H558.41V146.078C558.41 146.875 558.081 147.579 557.565 148.048C557.049 148.564 556.346 148.892 555.595 148.892C554.798 148.892 554.094 148.564 553.625 148.048C553.109 147.532 552.78 146.828 552.78 146.078C552.78 145.28 553.109 144.577 553.625 144.108C554.141 143.592 554.845 143.264 555.595 143.264H556.299V142.56C556.299 141.763 556.627 141.059 557.143 140.59C557.659 140.074 558.363 139.746 559.113 139.746C559.911 139.746 560.615 140.074 561.084 140.59C561.6 141.106 561.928 141.81 561.928 142.56C561.881 143.31 561.6 144.014 561.084 144.53Z" fill="#54362C"/>
<path d="M519.757 63.9483L517.083 59.1172C516.707 57.0065 516.238 54.8958 516.191 53.5825C516.191 52.832 516.285 52.316 516.614 52.2691H516.707C517.505 52.2222 519.335 52.6444 521.023 53.7232C521.774 54.1922 522.431 54.802 522.994 55.5524C524.823 57.9915 523.275 83.5544 524.026 84.8208C524.776 86.0872 524.776 89.652 524.542 91.0122C524.307 92.3255 522.853 93.1229 522.806 92.1848C522.759 91.2467 522.055 85.5713 522.055 85.5713C520.226 80.9277 521.352 70.4681 520.507 68.1228C520.179 67.1848 519.944 65.5431 519.757 63.9483Z" fill="#B46C51"/>
<path d="M524.4 49.6894L521.539 51.2842C522.102 51.5656 524.682 51.3311 524.682 51.3311C524.682 51.3311 522.571 54.4737 521.023 53.7232C519.334 52.6444 517.551 52.2222 516.707 52.2691H516.613C513.892 52.9727 514.221 46.3592 514.221 46.3592C515.581 43.4511 512.673 44.483 512.673 44.483C512.673 44.483 511.124 39.9802 508.31 40.1678C507.09 40.2616 504.275 41.4811 504.275 44.1078C504.275 43.0759 504.369 36.0871 510.468 36.9314C516.754 37.7757 517.176 44.999 517.176 44.999C517.176 44.999 517.364 52.7382 523.697 48.1885L522.946 49.5956H524.4V49.6894Z" fill="#965442"/>
<path d="M501.319 61.1341C502.445 59.0703 504.228 56.3968 505.26 54.0516C504.228 57.1004 503.805 61.4156 507.277 64.9803C507.277 64.9803 516.941 64.3236 516.19 53.5825C516.237 54.8958 516.659 56.9596 517.081 59.1172C517.551 61.6501 518.02 64.2767 517.691 65.6839C517.504 66.575 517.175 67.56 516.565 68.3574C516.425 68.5919 516.237 68.7795 516.049 68.9202C515.439 69.4362 514.642 69.7176 513.798 69.7645C510.185 69.8584 503.759 68.1229 503.759 68.1229C503.759 68.1229 502.257 67.7945 501.225 66.8095C500.381 66.0122 499.818 64.8396 500.381 63.0572C500.569 62.5412 500.897 61.8846 501.319 61.1341Z" fill="#D03F36"/>
<path d="M514.219 46.3591C514.219 46.3591 513.891 52.9726 516.612 52.2691C516.283 52.3629 516.19 52.832 516.19 53.5824C516.94 64.3235 507.276 64.9802 507.276 64.9802C503.805 61.4155 504.227 57.1003 505.259 54.0515C505.447 53.5824 505.634 53.1603 505.728 52.7381C506.01 52.0815 506.291 51.5186 506.479 51.0965C506.76 50.5805 506.948 50.2991 506.948 50.2991L507.042 50.2522C507.136 50.346 507.229 50.4398 507.323 50.4867C508.261 51.0496 512.859 49.2672 514.219 46.3591Z" fill="#B46C51"/>
<path d="M512.673 44.4831C512.673 44.4831 515.581 43.4043 514.221 46.3593C512.813 49.2673 508.216 51.0497 507.325 50.4868C507.231 50.4399 507.137 50.3461 507.043 50.2523C506.246 49.408 505.12 47.1097 504.791 46.4062C504.416 45.5619 504.229 44.8583 504.229 44.2017C504.229 41.5281 507.043 40.3555 508.263 40.2617C511.125 39.9803 512.673 44.4831 512.673 44.4831Z" fill="#B46C51"/>
<path d="M513.797 69.7646C514.642 69.7646 515.392 69.4831 516.049 68.9203C512.953 71.5 512.108 77.3162 511.827 79.9897V79.7083C508.684 80.6464 495.83 78.4888 495.83 78.4888C497.894 73.5638 500.568 70.2336 500.99 69.3424C501.413 68.545 501.366 67.56 501.225 66.8096C502.257 67.7946 503.758 68.1229 503.758 68.1229C503.758 68.1229 510.185 69.8584 513.797 69.7646ZM504.086 74.971C504.086 74.8771 504.04 74.8302 503.946 74.8302C503.852 74.8302 503.805 74.8771 503.805 74.971C503.805 75.0648 503.899 75.1117 503.946 75.1117C504.04 75.1117 504.086 75.0648 504.086 74.971Z" fill="#B46C51"/>
<path d="M511.827 79.7083V79.9897L511.78 80.5057L511.733 81.2562C511.733 81.2562 503.899 84.5395 501.835 87.2599C499.583 85.3368 497.472 82.6164 495.549 79.2862C495.643 79.0047 495.783 78.7233 495.877 78.4419C495.83 78.4888 508.684 80.6464 511.827 79.7083Z" fill="#D03F36"/>
<path d="M511.734 80.5057L511.781 79.9897C511.781 80.1774 511.781 80.365 511.734 80.5057Z" fill="#B46C51"/>
<path d="M504.181 105.13C504.181 105.13 510.092 110.993 508.309 128.348C508.309 128.348 506.245 133.32 504.463 133.695C502.68 134.07 503.477 129.943 505.495 127.832C505.495 127.832 503.149 120.796 501.32 114.183C500.475 111.087 499.724 108.085 499.349 105.928C498.223 99.0797 501.742 87.3536 501.742 87.3536C503.806 84.6801 511.64 81.3499 511.64 81.3499C511.64 81.9596 507.606 102.504 504.181 105.13Z" fill="#B46C51"/>
<path d="M500.475 60.5712C499.161 63.8545 497.332 68.4511 497.05 69.5768C496.628 71.3592 491.139 79.0984 491.139 79.6613C491.139 80.1772 488.372 88.6669 487.762 88.0572C486.964 87.3067 489.075 75.1115 494.095 68.9201C494.939 67.8882 498.692 56.0214 499.771 53.7231C500.803 51.4717 506.526 51.0496 506.526 51.0496C506.292 51.4717 506.01 51.9876 505.776 52.6912C505.588 53.0665 505.447 53.5355 505.307 54.0045C504.275 56.3498 502.492 59.0233 501.366 61.0871L500.475 60.5712Z" fill="#B46C51"/>
<path d="M501.319 114.089C501.319 114.652 501.225 126.519 501.037 127.504C500.85 128.489 495.642 134.258 495.126 132.476C494.517 129.615 498.316 125.112 498.316 125.112C497.425 123.798 496.252 120.374 494.986 113.855C493.719 107.335 495.361 106.116 494.282 102.316C493.156 98.517 493.344 90.4494 493.344 90.4494C493.297 86.228 494.282 82.4288 495.502 79.2393C497.425 82.5695 499.536 85.243 501.788 87.213C501.788 87.213 498.269 98.9391 499.395 105.787C499.724 108.039 500.474 111.04 501.319 114.089Z" fill="#B46C51"/>
<path d="M524.166 53.0665C524.823 52.4098 525.245 51.7532 525.245 51.7063L526.042 50.4868L524.588 50.5806C524.588 50.5806 524.541 50.5806 524.447 50.5806C524.353 50.5806 524.213 50.5806 524.072 50.6275L527.074 48.9389H524.353H524.072L525.667 45.937L523.274 47.6725C522.571 48.1415 522.008 48.4699 521.492 48.7044C520.976 48.892 520.554 48.9858 520.225 48.9858C519.944 48.9858 519.709 48.9389 519.521 48.8451C519.334 48.7513 519.146 48.6575 519.005 48.4699C518.677 48.1884 518.443 47.7194 518.255 47.2034C517.88 46.2185 517.833 45.0927 517.833 44.9989C517.833 44.952 517.786 43.9201 517.317 42.513C516.894 41.1059 516.097 39.4173 514.549 38.0571C513.517 37.1659 512.203 36.5092 510.468 36.2747C510.092 36.2278 509.717 36.1809 509.389 36.1809C508.028 36.1809 506.902 36.603 506.058 37.2597C505.213 37.9164 504.651 38.7607 504.275 39.6518C503.525 41.3873 503.478 43.2635 503.478 43.9671C503.478 44.014 503.478 44.1078 503.478 44.1547V44.2016H503.525C503.525 44.9521 503.712 45.7494 504.135 46.5937C504.416 47.1565 505.073 48.5637 505.776 49.6894C505.917 49.877 506.011 50.0646 506.152 50.2053C506.105 50.2522 506.105 50.2991 506.058 50.3461C505.776 50.393 505.354 50.4399 504.885 50.4868C503.994 50.6275 502.868 50.862 501.789 51.2841C501.085 51.5656 500.382 51.8939 499.866 52.3629C499.537 52.6444 499.303 52.9727 499.115 53.3479C498.88 53.8639 498.552 54.7082 498.177 55.8339C497.801 56.9127 497.332 58.2729 496.863 59.6331C495.925 62.3536 494.893 65.3086 494.189 67.044C494.002 67.56 493.814 67.9352 493.72 68.1697C493.673 68.3104 493.579 68.4043 493.579 68.4043C491.891 70.468 490.53 73.1885 489.498 75.8621C488.466 78.5825 487.762 81.303 487.34 83.5075C487.059 84.9615 486.918 86.181 486.918 87.0253C486.918 87.2129 486.918 87.4006 486.965 87.5882C486.965 87.7758 487.012 87.9165 487.059 88.0572C487.106 88.151 487.153 88.2917 487.293 88.4325C487.34 88.4794 487.434 88.5732 487.528 88.5732C487.622 88.6201 487.762 88.667 487.856 88.6201C487.997 88.6201 488.138 88.5732 488.232 88.5263C488.325 88.4794 488.372 88.4324 488.466 88.3855C488.56 88.2917 488.654 88.1979 488.748 88.0572C488.888 87.8227 489.029 87.5882 489.17 87.3067C489.451 86.697 489.78 85.8996 490.108 85.0553C490.765 83.3668 491.375 81.3968 491.703 80.3649C491.797 80.0835 491.844 79.8489 491.891 79.6613V79.6144C491.891 79.6144 491.891 79.5675 491.938 79.5206C491.984 79.4268 492.078 79.2392 492.219 79.0516C492.454 78.6294 492.829 78.1135 493.204 77.4568C494.002 76.1904 495.034 74.5956 495.925 73.1885C496.535 72.2504 497.051 71.3592 497.379 70.6557C497.567 70.2335 497.708 69.9052 497.801 69.5769C497.848 69.3423 497.989 68.8733 498.224 68.2166C498.458 67.6069 498.74 66.8095 499.068 65.9652C499.209 65.59 499.396 65.1679 499.537 64.7457C499.584 65.1679 499.725 65.5431 499.866 65.9183C500.053 66.3405 500.288 66.6688 500.569 66.9502C500.616 67.1378 500.616 67.3724 500.616 67.6069C500.616 68.029 500.522 68.4981 500.382 68.8264C500.335 68.8733 500.288 69.014 500.147 69.2016C500.053 69.3893 499.866 69.5769 499.725 69.8583C499.396 70.3742 498.927 71.0309 498.458 71.8283C497.473 73.423 496.253 75.5337 495.174 78.0197C495.034 78.3011 494.94 78.5825 494.846 78.8639C493.626 82.0534 492.641 85.8996 492.641 90.121C492.641 90.2148 492.641 90.2617 492.641 90.3555C492.641 90.4493 492.641 90.8715 492.641 91.4812C492.641 92.6538 492.688 94.6238 492.782 96.6876C492.923 98.7514 493.157 100.862 493.626 102.41C493.908 103.395 494.002 104.192 494.002 104.99C494.002 106.115 493.814 107.288 493.814 108.977C493.814 110.243 493.955 111.838 494.33 113.855C494.987 117.138 495.597 119.624 496.16 121.5C496.629 123.048 497.098 124.127 497.52 124.924C497.332 125.159 497.051 125.534 496.769 125.956C496.16 126.8 495.456 127.973 494.987 129.192C494.658 129.99 494.424 130.834 494.424 131.678C494.424 131.96 494.471 132.241 494.518 132.523C494.565 132.757 494.705 132.992 494.94 133.179C495.174 133.367 495.409 133.414 495.644 133.414C495.925 133.414 496.206 133.32 496.441 133.226C496.676 133.132 496.91 132.992 497.192 132.804C497.661 132.476 498.177 132.007 498.693 131.538C499.725 130.553 500.71 129.427 501.273 128.583C501.461 128.348 501.554 128.114 501.648 127.926C501.695 127.832 501.742 127.691 501.789 127.551C501.789 127.457 501.836 127.316 501.836 127.175C501.836 127.035 501.836 126.847 501.883 126.613C501.883 126.19 501.93 125.628 501.93 125.018C501.977 123.751 501.977 122.157 502.024 120.562C502.024 119.952 502.024 119.389 502.07 118.78C503.29 122.86 504.463 126.378 504.791 127.504C504.228 128.16 503.759 128.958 503.478 129.755C503.102 130.646 502.868 131.585 502.868 132.382C502.868 132.71 502.915 133.039 503.009 133.32C503.102 133.601 503.337 133.93 503.618 134.117C503.853 134.258 504.088 134.305 504.322 134.305C504.463 134.305 504.557 134.305 504.697 134.258C505.073 134.164 505.354 134.024 505.636 133.789C505.917 133.555 506.199 133.32 506.433 133.039C506.902 132.476 507.371 131.772 507.747 131.115C508.497 129.802 509.013 128.536 509.013 128.489L509.06 128.395V128.301C509.295 126.003 509.389 123.939 509.389 122.063C509.389 115.684 508.263 111.322 507.09 108.554C506.339 106.819 505.636 105.693 505.167 105.084C505.448 104.755 505.683 104.427 505.917 104.005C506.292 103.348 506.715 102.504 507.09 101.566C507.841 99.7364 508.591 97.4381 509.248 95.0929C510.561 90.4024 511.64 85.3837 512.156 82.8508C512.297 82.1472 512.391 81.6313 512.438 81.3968C512.438 81.303 512.438 81.303 512.438 81.2092V81.0685L512.532 80.0835V79.9427C512.625 78.9577 512.813 77.5506 513.188 76.0497C513.517 74.5487 514.033 72.954 514.783 71.5938C515.253 70.7026 515.862 69.9052 516.519 69.3423H516.566C516.754 69.1547 516.988 68.9671 517.176 68.6857C517.833 67.7476 518.208 66.7157 518.396 65.7776C518.489 65.4024 518.489 64.9333 518.489 64.4643C518.489 63.9952 518.443 63.4793 518.396 62.9164L519.052 64.136C519.146 64.8864 519.24 65.6369 519.334 66.3404C519.475 67.0909 519.615 67.7476 519.803 68.2635C519.85 68.4043 519.897 68.6388 519.944 68.9671C519.991 69.2954 520.038 69.6707 520.038 70.1397C520.084 71.0309 520.084 72.1566 520.131 73.3292C520.178 75.7683 520.178 78.5825 520.413 81.1623C520.6 82.8039 520.835 84.3518 521.304 85.6182C521.351 85.8527 521.398 86.5094 521.492 87.3537C521.633 88.3856 521.773 89.6989 521.867 90.6839C521.961 91.3405 522.008 91.8565 522.008 92.091C522.008 92.2786 522.055 92.4662 522.149 92.6538C522.242 92.8415 522.43 93.0291 522.665 93.076C522.805 93.1229 522.946 93.1698 523.04 93.1698C523.321 93.1698 523.556 93.076 523.79 92.9822C523.978 92.8415 524.213 92.7008 524.353 92.5131C524.682 92.1379 525.01 91.622 525.104 91.0122C525.198 90.4493 525.245 89.6051 525.245 88.7139C525.245 87.5413 525.151 86.2748 524.869 85.2898C524.776 84.9615 524.682 84.6801 524.494 84.4456V84.3987C524.494 84.3517 524.447 84.3049 524.447 84.2111C524.4 84.0234 524.4 83.742 524.4 83.3668C524.353 82.6632 524.353 81.7251 524.353 80.5525C524.353 77.0816 524.494 71.9221 524.494 67.1848C524.494 63.4793 524.4 60.0084 524.166 57.7569C524.072 57.0065 523.978 56.3498 523.79 55.8339C523.697 55.5524 523.603 55.271 523.415 55.0365C523.181 54.7082 522.899 54.4267 522.618 54.1453C522.711 54.0984 522.805 54.0515 522.899 53.9577C523.462 53.7701 523.837 53.3948 524.166 53.0665ZM505.495 46.0778C505.167 45.3273 505.026 44.7175 505.026 44.1547C505.026 43.7325 505.12 43.4042 505.26 43.0759C505.401 42.7475 505.589 42.4661 505.823 42.2316C506.292 41.7156 506.902 41.3404 507.512 41.1528C507.887 41.0121 508.263 40.9183 508.45 40.9183C508.497 40.9183 508.544 40.9183 508.591 40.9183C509.06 40.9183 509.482 41.1059 509.905 41.3873C510.327 41.7156 510.702 42.1378 511.031 42.6537C511.687 43.5918 512.063 44.6237 512.063 44.7175L512.297 45.4211L512.954 45.1866H513.001C513.048 45.1866 513.095 45.1397 513.188 45.1397C513.329 45.0928 513.564 45.0459 513.704 45.0459C513.798 45.0459 513.845 45.0459 513.892 45.0459V45.0927C513.892 45.2335 513.845 45.5618 513.611 46.0778C513.235 46.8751 512.532 47.6725 511.687 48.2822C510.843 48.892 509.905 49.3611 509.107 49.6425C508.591 49.8301 508.122 49.9239 507.887 49.9239C507.841 49.9239 507.794 49.9239 507.747 49.9239L507.606 49.7832C507.465 49.6425 507.231 49.3611 507.043 49.0327C506.855 48.7044 506.621 48.3292 506.433 47.9539C506.011 47.1566 505.636 46.4061 505.495 46.0778ZM505.964 54.1453C506.105 53.7232 506.246 53.3479 506.386 53.0196V52.9727C506.621 52.316 506.902 51.847 507.137 51.4248C507.184 51.331 507.231 51.2841 507.278 51.1903C507.324 51.1903 507.371 51.2372 507.418 51.2372C507.559 51.2842 507.7 51.2841 507.841 51.2841C508.357 51.2841 508.92 51.1434 509.529 50.9558C510.139 50.7213 510.843 50.4399 511.5 50.0177C512.203 49.5956 512.954 49.0796 513.564 48.423C513.564 48.6106 513.611 48.8451 513.611 49.0796C513.704 49.877 513.892 50.7682 514.221 51.5187C514.455 51.9877 514.737 52.4568 515.253 52.7851C515.346 52.832 515.44 52.8789 515.534 52.9258C515.534 53.1134 515.487 53.301 515.487 53.4887C515.487 53.5356 515.487 53.5824 515.487 53.6763C515.534 54.0515 515.534 54.4267 515.534 54.802C515.534 57.0534 515.018 58.7419 514.267 60.0553C513.517 61.3217 512.532 62.2598 511.5 62.8695C509.905 63.8545 508.263 64.1829 507.559 64.2767C506.715 63.3386 506.152 62.4005 505.776 61.4155C505.401 60.3836 505.213 59.3048 505.213 58.226C505.213 56.8189 505.495 55.4586 505.917 54.286L505.964 54.1453ZM499.819 60.3367C498.833 62.8226 497.567 66.0121 496.863 67.9352C496.629 68.5919 496.441 69.0609 496.394 69.4362C496.394 69.53 496.3 69.7176 496.16 69.999C496.019 70.2804 495.878 70.5619 495.69 70.9371C495.315 71.6407 494.799 72.4849 494.236 73.3761C493.11 75.1585 491.891 77.0347 491.14 78.2073C490.952 78.5356 490.765 78.817 490.624 79.0516C490.577 79.1923 490.53 79.2861 490.483 79.4268C490.483 79.4737 490.436 79.5675 490.436 79.6613C490.436 79.6613 490.436 79.7082 490.389 79.7551C490.343 79.8489 490.343 79.9896 490.296 80.1773C490.202 80.5056 490.061 81.0215 489.873 81.5375C489.545 82.6163 489.076 83.9296 488.607 85.1022C488.56 85.2898 488.466 85.4306 488.419 85.6182C488.466 85.1022 488.56 84.5394 488.701 83.9296C488.982 82.5225 489.357 80.8808 489.92 79.1454C490.999 75.6745 492.594 71.969 494.658 69.4362C494.752 69.2954 494.799 69.2016 494.893 69.0609C494.987 68.9202 495.034 68.7795 495.127 68.5919C495.268 68.2166 495.456 67.7476 495.69 67.2316C496.113 66.1528 496.582 64.7926 497.098 63.3386C498.13 60.4305 499.209 57.1941 499.912 55.3179C500.1 54.802 500.288 54.3329 500.382 54.0984C500.475 53.9108 500.569 53.7701 500.804 53.5825C500.991 53.3949 501.226 53.2541 501.507 53.0665C502.07 52.7382 502.821 52.5037 503.525 52.316C504.135 52.1753 504.791 52.0346 505.307 51.9408C505.214 52.1284 505.167 52.316 505.073 52.5036C504.885 52.9258 504.697 53.3949 504.557 53.817C504.041 54.8958 503.384 56.1153 502.68 57.3348C502.539 57.6162 502.352 57.8977 502.211 58.1791C502.399 57.7101 502.54 57.4286 502.54 57.4286L501.226 56.8658C501.226 56.8658 500.616 58.3667 499.819 60.3367ZM500.475 124.361C500.429 125.628 500.429 126.706 500.382 127.175C500.382 127.269 500.382 127.363 500.382 127.41L500.335 127.504C500.288 127.598 500.241 127.691 500.147 127.832C499.959 128.114 499.725 128.442 499.396 128.817C498.787 129.568 497.989 130.365 497.285 131.069C496.816 131.491 496.3 131.866 495.972 132.054C495.925 132.1 495.878 132.1 495.831 132.147C495.831 132.054 495.784 132.007 495.784 131.913C495.784 131.35 495.925 130.693 496.206 129.99C496.488 129.286 496.863 128.63 497.239 127.973C497.989 126.706 498.787 125.768 498.88 125.675L499.209 125.252L498.927 124.83C498.552 124.267 498.036 123.142 497.473 121.312C496.91 119.53 496.3 117.044 495.69 113.808C495.315 111.838 495.174 110.384 495.174 109.164C495.174 107.569 495.362 106.444 495.362 105.177C495.362 104.286 495.268 103.348 494.94 102.222C494.518 100.862 494.283 98.7983 494.142 96.8283C494.002 94.8114 494.002 92.8884 494.002 91.7158C494.002 91.3874 494.002 91.106 494.002 90.8715C494.002 90.6839 494.002 90.59 494.002 90.59C494.002 90.4962 494.002 90.4493 494.002 90.3555C494.002 86.9315 494.658 83.742 495.644 80.9746C497.285 83.6013 499.068 85.8527 500.991 87.5413C500.757 88.3386 500.288 90.121 499.772 92.3724C499.115 95.4212 498.458 99.3612 498.458 102.832C498.458 103.958 498.505 104.99 498.693 105.975C499.021 108.179 499.772 111.181 500.616 114.23C500.616 114.98 500.569 120.656 500.475 124.361ZM510.702 82.8977C510.515 83.9296 510.233 85.2898 509.858 86.8377C509.154 89.9803 508.169 93.9672 507.09 97.3443C506.386 99.5957 505.589 101.659 504.885 102.973C504.463 103.723 504.041 104.286 503.759 104.521L503.102 104.99L503.665 105.553L503.712 105.599C503.759 105.646 503.759 105.693 503.853 105.74C503.947 105.881 504.134 106.069 504.322 106.35C504.697 106.913 505.26 107.851 505.776 109.117C506.855 111.697 507.981 115.872 507.981 122.063C507.981 123.892 507.887 125.909 507.653 128.067C507.606 128.114 507.606 128.207 507.559 128.301C507.465 128.536 507.324 128.817 507.137 129.192C506.808 129.896 506.292 130.787 505.776 131.538C505.448 132.007 505.073 132.429 504.744 132.663C504.557 132.804 504.416 132.851 504.322 132.851H504.275C504.228 132.804 504.181 132.616 504.181 132.335C504.181 131.819 504.369 131.022 504.697 130.271C505.026 129.474 505.495 128.723 506.058 128.114L506.339 127.785L506.199 127.41C506.199 127.41 506.152 127.316 506.105 127.082C506.058 126.894 505.917 126.566 505.823 126.191C505.589 125.44 505.214 124.361 504.838 123.048C504.041 120.515 503.009 117.138 502.07 113.855L502.024 113.761C501.179 110.712 500.428 107.71 500.1 105.599C499.959 104.708 499.912 103.723 499.912 102.691C499.912 99.5957 500.475 95.984 501.085 93.076C501.695 90.2148 502.305 88.0103 502.446 87.4474C502.868 86.9315 503.572 86.3217 504.416 85.7589C505.307 85.1491 506.386 84.4925 507.418 83.9765C508.685 83.3199 509.905 82.7101 510.749 82.3349C510.749 82.6163 510.702 82.757 510.702 82.8977ZM511.077 80.7401C510.28 81.0684 509.717 81.3968 508.826 81.8658C507.325 82.6163 505.448 83.6013 503.853 84.6332C503.056 85.1491 502.352 85.712 501.789 86.2748C499.866 84.4925 498.036 82.1473 496.347 79.2861C497.192 79.4268 498.787 79.6613 500.71 79.9427C503.478 80.318 506.902 80.6932 509.389 80.6932C509.952 80.6932 510.421 80.6932 510.89 80.6463C511.124 80.6463 511.031 80.6463 511.218 80.5994L511.077 80.7401ZM513.517 71.0778C512.954 72.0628 512.532 73.1885 512.203 74.2673C511.64 76.0497 511.359 77.8321 511.218 79.1454C511.077 79.1923 510.89 79.1923 510.702 79.1923C510.327 79.2392 509.858 79.2392 509.342 79.2392C507.278 79.2392 504.463 78.9577 501.93 78.6294C499.819 78.348 497.895 78.0666 496.863 77.9258C497.661 76.1435 498.505 74.5956 499.303 73.3761C500.194 71.9221 500.945 70.8433 501.367 70.1866C501.507 69.999 501.601 69.8583 501.648 69.6707C501.883 69.2016 501.977 68.6857 502.024 68.2166C502.258 68.3104 502.446 68.4512 502.633 68.4981C503.149 68.6857 503.525 68.7795 503.618 68.8264C503.759 68.8733 505.26 69.2485 507.137 69.6707C509.154 70.0928 511.593 70.515 513.517 70.515C513.611 70.515 513.704 70.515 513.845 70.515C513.845 70.515 513.845 70.515 513.892 70.515C513.751 70.6557 513.611 70.8433 513.517 71.0778ZM517.035 65.4962C516.848 66.2936 516.566 67.1848 516.05 67.8883C515.956 68.029 515.816 68.1697 515.628 68.3574C515.159 68.7795 514.502 69.014 513.845 69.014C513.751 69.014 513.658 69.014 513.564 69.014C512.063 69.014 509.998 68.7326 508.216 68.3574C506.433 68.029 504.838 67.6069 504.275 67.4662C504.088 67.4193 503.994 67.4193 503.994 67.4193H503.947C503.9 67.4193 503.853 67.4193 503.806 67.3724C503.665 67.3254 503.478 67.2786 503.243 67.1848C502.774 66.9971 502.211 66.7157 501.789 66.2936C501.554 66.059 501.32 65.7776 501.179 65.4962C501.038 65.1678 500.945 64.8395 500.945 64.4174C500.945 64.089 500.991 63.7138 501.132 63.2448C501.273 62.8226 501.554 62.166 501.977 61.4155C502.493 60.4305 503.196 59.3048 503.9 58.1322C503.9 58.1322 503.9 58.1322 503.9 58.1791C503.9 59.3517 504.088 60.6181 504.557 61.8376C505.026 63.0572 505.776 64.2767 506.855 65.4024L507.09 65.6369H507.418C507.465 65.6369 508.216 65.59 509.295 65.2617C510.374 64.9802 511.781 64.4174 513.095 63.3855C513.986 62.7288 514.83 61.8376 515.534 60.665C515.862 60.1022 516.191 59.4455 516.425 58.742C516.472 58.8827 516.472 58.9765 516.519 59.1172C516.894 61.0403 517.223 63.0572 517.223 64.3705C517.129 64.9333 517.082 65.2617 517.035 65.4962ZM522.758 57.1472C522.899 57.8039 522.946 58.695 523.04 59.7269C523.181 61.7907 523.228 64.4643 523.228 67.2785C523.228 72.0159 523.087 77.1285 523.087 80.6463C523.087 82.1472 523.087 83.3668 523.181 84.1641C523.228 84.4456 523.227 84.6332 523.274 84.8208C523.321 84.9146 523.321 85.0553 523.415 85.196C523.509 85.2898 523.556 85.5244 523.65 85.7589C523.744 85.9934 523.79 86.3218 523.837 86.6501C523.931 87.3068 523.978 88.1041 523.978 88.8077C523.978 89.652 523.931 90.4493 523.837 90.8715C523.79 91.0591 523.697 91.2936 523.603 91.4343C523.556 91.4812 523.509 91.575 523.462 91.6219C523.415 91.3405 523.415 91.0122 523.368 90.637C523.274 89.9803 523.228 89.1829 523.134 88.3855C522.946 86.8377 522.805 85.4306 522.805 85.4306V85.3367L522.758 85.243C522.195 83.8827 521.914 81.772 521.773 79.5206C521.633 77.2692 521.633 74.8771 521.633 72.8133C521.633 71.4531 521.586 70.2335 521.492 69.2485C521.445 68.6857 521.351 68.2635 521.21 67.8414C521.07 67.4193 520.929 66.8095 520.788 66.1528C520.647 65.4493 520.554 64.6519 520.46 63.9014C520.272 62.166 520.178 60.4305 520.131 59.7269C520.131 59.4924 520.131 59.3517 520.131 59.3517L518.724 59.3986C518.724 59.3986 518.724 59.9615 518.818 60.7588L517.786 58.8827C517.598 57.8508 517.41 56.8658 517.223 55.9277C517.082 54.9896 516.941 54.1453 516.941 53.5825C516.941 53.5356 516.941 53.4886 516.941 53.4417C516.941 53.2541 516.941 53.1134 516.988 53.0196V52.9727C517.317 52.9727 517.833 53.0665 518.443 53.2541C519.146 53.4887 519.897 53.817 520.647 54.286C521.304 54.7082 521.961 55.271 522.43 55.9277C522.43 55.9277 522.524 56.0684 522.571 56.3029C522.665 56.5374 522.711 56.8189 522.758 57.1472ZM522.242 52.832C521.961 53.0196 521.679 53.1134 521.492 53.1134C521.398 53.1134 521.351 53.1134 521.257 53.0665C520.413 52.5506 519.568 52.1284 518.771 51.8939C517.973 51.6594 517.27 51.5187 516.754 51.5187C516.707 51.5187 516.66 51.5187 516.613 51.5187H516.519H516.472H516.378C516.285 51.5187 516.238 51.5656 516.191 51.5656C516.097 51.5656 516.003 51.5656 515.956 51.5187C515.862 51.4718 515.769 51.378 515.675 51.2372C515.487 50.9558 515.299 50.5337 515.159 50.0177C514.924 48.9858 514.877 47.6725 514.877 46.922C514.877 46.7344 514.877 46.5468 514.877 46.453C515.112 45.8901 515.253 45.468 515.253 45.0459C515.253 44.8582 515.206 44.6706 515.159 44.5299C515.112 44.3423 515.018 44.2016 514.924 44.0608C514.69 43.7794 514.408 43.6856 514.127 43.5918C513.939 43.5449 513.798 43.5449 513.611 43.5449C513.376 43.5449 513.188 43.5918 513.001 43.5918C512.907 43.3573 512.766 43.0759 512.579 42.7475C512.156 41.9502 511.547 40.9652 510.608 40.2616C509.998 39.7926 509.248 39.4173 508.403 39.4173C508.31 39.4173 508.216 39.4173 508.122 39.4173C507.559 39.4642 506.808 39.6988 506.058 40.1209C505.823 40.2147 505.636 40.3554 505.448 40.543C505.542 40.2616 505.683 39.9333 505.823 39.6518C506.105 39.1359 506.48 38.6669 506.902 38.3385C507.512 37.8695 508.263 37.588 509.342 37.588C509.623 37.588 509.905 37.5881 510.233 37.635C511.64 37.8226 512.719 38.3854 513.517 39.0421C514.361 39.7457 514.924 40.5899 515.346 41.4811C516.191 43.2166 516.332 44.9051 516.332 44.9989C516.332 45.0927 516.332 45.6087 516.472 46.2654C516.613 46.9689 516.848 47.907 517.364 48.7044C517.692 49.2672 518.208 49.7363 518.865 50.0177C519.24 50.2053 519.662 50.2992 520.131 50.2992C520.647 50.2992 521.21 50.1584 521.867 49.9239L521.726 50.2053L519.944 51.1903L521.163 51.8001C521.304 51.847 521.445 51.8939 521.539 51.9408C521.679 51.9877 521.773 51.9877 521.914 51.9877C522.195 51.9877 522.477 52.0346 522.758 52.0346C522.852 52.0346 522.946 52.0346 523.04 52.0346C522.852 52.4098 522.571 52.6444 522.242 52.832Z" fill="#59381A"/>
<path d="M504.087 74.971H504.79C504.79 75.2055 504.697 75.3931 504.556 75.5807C504.415 75.7214 504.181 75.8153 503.946 75.8153C503.711 75.8153 503.571 75.7215 503.383 75.6277C503.289 75.5808 503.242 75.4869 503.195 75.3462C503.149 75.2524 503.102 75.1117 503.102 74.971C503.102 74.7365 503.195 74.5019 503.383 74.3612C503.571 74.2205 503.758 74.1267 503.946 74.1267C504.181 74.1267 504.415 74.2205 504.556 74.4081C504.697 74.5957 504.79 74.7834 504.79 74.971H504.087H503.383H503.946L503.524 75.3462C503.43 75.2055 503.383 75.0648 503.383 74.971H503.946L503.524 75.3462L503.946 74.971V75.5338C503.805 75.5338 503.618 75.4869 503.524 75.3462L503.946 74.971V75.5338V74.971L504.321 75.3931C504.227 75.4869 504.087 75.5338 503.946 75.5338V74.971L504.321 75.3931L503.946 74.971H504.509C504.509 75.1117 504.415 75.2993 504.321 75.3931L503.946 74.971H504.509H503.899L504.415 74.6896C504.462 74.7834 504.462 74.8772 504.462 74.971H503.852L504.368 74.6896L503.852 74.9241L504.134 74.455C504.227 74.502 504.274 74.5489 504.368 74.6896L503.852 74.9241L504.134 74.455L503.852 74.9241V74.3612C503.946 74.3612 504.04 74.4081 504.134 74.455L503.852 74.9241V74.3612V74.9241L503.43 74.5019C503.524 74.4081 503.711 74.3143 503.852 74.3143V74.8772L503.43 74.455L503.852 74.8772H503.289C503.289 74.7365 503.336 74.5958 503.477 74.455L503.899 74.8772H503.336H504.087V74.971Z" fill="#59381A"/>
<path d="M54.1356 160.524C55.2146 160.9 56.2935 161.322 57.091 162.119C57.5601 162.541 57.8885 163.057 58.2169 163.573C58.686 164.324 59.1083 165.121 59.3428 165.965C59.5774 166.81 59.6712 167.748 59.4366 168.592C59.3428 168.967 59.1551 169.342 58.8268 169.53C58.3576 169.718 57.8416 169.483 57.4194 169.249C56.4343 168.686 55.4022 168.17 54.3702 167.748C54.0418 167.607 53.6665 167.466 53.3381 167.279C52.869 167.044 52.3999 166.716 51.9777 166.387C51.0395 165.637 50.1012 164.887 49.2099 164.136C49.0692 164.042 48.9753 163.948 48.8815 163.808C48.7877 163.573 48.8815 163.245 49.0223 163.01C49.3037 162.401 49.5852 161.791 49.8197 161.228C50.0074 160.806 50.1481 160.243 50.6642 160.102C51.837 159.727 53.1036 160.149 54.1356 160.524Z" fill="#88BE55"/>
<path d="M16.5591 158.132L9.85077 151.472C9.00636 151.519 8.16194 151.425 7.31754 151.097C6.28548 150.722 5.25342 150.112 4.40902 149.267C3.18932 148.048 2.43874 146.547 2.2511 145.093L0.84375 143.686C1.0314 143.404 1.21904 143.17 1.45359 142.935C1.82889 142.56 2.20418 142.279 2.6733 142.044C7.12989 139.699 11.5396 143.92 11.9618 144.389C14.1197 146.641 14.4481 149.502 18.2948 153.864L18.3886 153.958C18.5763 154.239 22.2823 157.476 22.5638 157.71L33.7287 164.277L20.2182 164.324L21.4848 175.815L20.0775 185.572L15.1048 175.299L13.1346 166.153L12.9938 162.26L14.5419 159.117L16.5591 158.132Z" fill="#88BE55"/>
<path d="M60.6566 167.138C60.6566 165.918 60.1875 164.699 59.39 163.573C58.5925 162.448 57.4667 161.416 56.0593 160.618C55.8717 160.524 55.7309 160.431 55.5902 160.337C54.7458 159.868 53.8544 159.586 52.9631 159.399C52.7755 159.352 52.6348 159.305 52.4471 159.305L52.7755 158.742L52.494 158.367C51.462 156.913 50.3361 155.553 49.0695 154.286C43.1586 148.235 34.9491 144.483 25.8014 144.483C21.767 144.483 17.9202 145.234 14.308 146.547C14.1673 146.312 14.0265 146.078 13.9327 145.843C13.5105 145.187 13.0883 144.53 12.4785 143.92C12.4316 143.873 12.3377 143.78 12.2439 143.639C12.1032 143.498 11.9624 143.357 11.7748 143.217C11.3995 142.888 10.8835 142.513 10.2736 142.138C9.05392 141.387 7.41203 140.637 5.53557 140.637C4.55043 140.637 3.47146 140.871 2.39249 141.387C1.87646 141.622 1.40735 141.997 1.03206 142.372C1.03206 142.372 1.03206 142.372 0.985145 142.419C0.703676 142.654 0.469118 142.982 0.281472 143.311L0 143.78L1.6419 145.421C1.87646 146.969 2.67395 148.47 3.94057 149.736C4.8788 150.675 5.95776 151.331 7.13055 151.753C7.92804 152.035 8.72554 152.175 9.47612 152.175C9.52303 152.175 9.56997 152.175 9.61688 152.175L12.713 155.224L15.3401 157.851C14.4957 158.367 13.792 159.117 13.276 160.055C12.5723 161.275 12.1501 162.776 12.1501 164.417C12.1501 164.793 12.197 165.215 12.2439 165.59C12.4785 167.56 13.1352 170.421 14.0265 173.47C14.9179 176.519 16.0438 179.755 17.2635 182.429C18.061 184.211 18.9053 185.759 19.7967 186.838L20.7818 188.01L21.0633 186.51C21.8139 182.194 22.283 178.02 22.283 174.033C22.283 170.843 22.0015 167.842 21.2978 164.98H41.5167H48.6473L56.3877 169.436L58.5456 170.656L58.9209 170.421C59.4838 170.093 59.953 169.624 60.2813 169.014C60.469 168.498 60.6566 167.842 60.6566 167.138ZM19.2806 163.62L19.5152 164.511C20.3127 167.466 20.688 170.656 20.688 174.08C20.688 177.41 20.3596 180.928 19.7967 184.586C19.3275 183.836 18.8584 182.898 18.3893 181.913C17.5918 180.177 16.8413 178.207 16.1845 176.191C14.8241 172.157 13.8389 167.935 13.5105 165.496C13.4636 165.168 13.4636 164.793 13.4636 164.464C13.4636 163.104 13.8389 161.838 14.4018 160.806C15.0117 159.821 15.8092 159.07 16.7005 158.742L17.7326 158.367L13.6513 154.286L10.1329 150.768H9.80451C9.66377 150.768 9.56996 150.768 9.42922 150.768C8.81937 150.768 8.16261 150.675 7.55276 150.44C6.61453 150.112 5.6763 149.549 4.92571 148.751C3.79983 147.626 3.14307 146.265 3.00234 144.952L2.95544 144.718L1.82955 143.592C1.87646 143.545 1.92338 143.498 1.97029 143.404C2.25176 143.076 2.62704 142.841 3.00234 142.654C3.84674 142.232 4.69115 142.044 5.48864 142.044C6.80216 142.044 8.02188 142.513 9.05394 143.076C10.086 143.639 10.8835 144.342 11.2588 144.671C11.3526 144.765 11.4464 144.858 11.4464 144.858C11.9624 145.374 12.3377 145.937 12.713 146.547C13.0883 147.157 13.4636 147.86 13.8858 148.658C14.7302 150.205 15.8092 152.082 17.7795 154.286L17.8733 154.38C18.1079 154.661 18.3424 154.896 18.577 155.177L18.6239 155.224C18.6239 155.271 18.6708 155.271 18.7177 155.318C18.9992 155.646 19.3276 155.928 19.6559 156.256C19.8436 156.444 20.0312 156.584 20.172 156.725C23.5027 159.774 27.5371 162.119 31.9468 163.479H19.2806V163.62ZM58.9209 168.451C58.7802 168.733 58.5925 168.92 58.358 169.108L56.9506 168.311L49.6324 164.089L49.867 163.667L51.6027 160.665C51.9311 160.712 52.2595 160.759 52.5878 160.806C53.3384 160.947 54.089 161.228 54.8865 161.65C55.0273 161.744 55.168 161.791 55.2618 161.885C56.4815 162.588 57.4666 163.479 58.1234 164.417C58.7802 165.356 59.1555 166.341 59.1555 167.138C59.2493 167.607 59.1555 168.029 58.9209 168.451Z" fill="#5B3A1C"/>
<path d="M251.377 5.50542L250.58 4.80185C250.158 4.47352 249.923 3.95756 249.923 3.44161C249.923 1.75305 248.563 0.392822 246.921 0.392822H244.763C243.59 0.392822 242.652 0.627356 242.042 1.0495C241.432 1.47164 241.104 2.03447 241.104 2.64423C241.104 2.97256 241.291 3.25399 241.573 3.3478L238.711 2.31589C238.57 2.26899 238.477 2.36281 238.477 2.50352V5.45849C238.477 5.59921 238.617 5.69303 238.711 5.64612L241.948 4.52041C241.76 4.61421 241.62 4.70803 241.526 4.84874C241.244 5.13017 241.104 5.45851 241.104 5.88065C241.057 6.72493 241.807 7.42849 242.699 7.42849H246.405C247.014 7.42849 247.671 7.28777 248.187 6.95944L249.735 6.06825H251.283C251.377 6.06825 251.471 5.97445 251.471 5.88065V5.69302C251.471 5.59921 251.471 5.55232 251.377 5.50542ZM248.656 3.81684C248.234 3.81684 247.953 3.48852 247.953 3.06638C247.953 2.64424 248.281 2.31589 248.656 2.31589C249.079 2.31589 249.407 2.64424 249.407 3.06638C249.407 3.48852 249.079 3.81684 248.656 3.81684Z" fill="#56382E"/>
<path d="M261.135 15.2146L260.338 14.511C259.915 14.1827 259.681 13.6668 259.681 13.1508C259.681 11.4623 258.32 10.1021 256.678 10.1021H254.521C253.348 10.1021 252.41 10.3366 251.8 10.7587C251.19 11.1808 250.861 11.7437 250.861 12.3535C250.861 12.6818 251.049 12.9632 251.331 13.057L248.469 12.0251C248.328 11.9782 248.234 12.072 248.234 12.2127V15.1677C248.234 15.3084 248.375 15.4023 248.469 15.3554L251.706 14.2296C251.518 14.3234 251.377 14.4173 251.284 14.558C251.002 14.8394 250.861 15.1677 250.861 15.5899C250.815 16.4342 251.565 17.1377 252.456 17.1377H256.162C256.772 17.1377 257.429 16.997 257.945 16.6687L259.493 15.7775H261.041C261.135 15.7775 261.229 15.6837 261.229 15.5899V15.4022C261.229 15.3553 261.182 15.2615 261.135 15.2146ZM258.414 13.5261C257.992 13.5261 257.711 13.1977 257.711 12.7756C257.711 12.3535 258.039 12.0251 258.414 12.0251C258.836 12.0251 259.165 12.3535 259.165 12.7756C259.118 13.1977 258.789 13.5261 258.414 13.5261Z" fill="#56382E"/>
</svg>
