<svg id="Слой_1" data-name="Слой 1" xmlns="http://www.w3.org/2000/svg" viewBox="0 0 948 815.84">
  <defs>
    <style>
      .cls-1 {
        fill: #54362c;
      }
    </style>
  </defs>
  <title>grid-ingridient2_tab</title>
  <g>
    <path class="cls-1" d="M133.92,815.84H948V0H1.76V1.76h130.4V135.68H1.76v1.76h130.4V271.36H1.76v1.76h130.4V407H1.76v1.76h130.4V542.72H1.76v1.76h130.4V678.4H1.76v1.76h130.4V814.08H1.76v1.76H133.92ZM812.32,1.76H946.24V135.68H812.32Zm0,135.68H946.24V271.36H812.32Zm0,135.68H946.24V407H812.32Zm0,135.68H946.24V542.72H812.32Zm0,135.68H946.24V678.4H812.32Zm0,135.68H946.24V814.08H812.32ZM676.64,1.76H810.56V135.68H676.64Zm0,135.68H810.56V271.36H676.64Zm0,135.68H810.56V407H676.64Zm0,135.68H810.56V542.72H676.64Zm0,135.68H810.56V678.4H676.64Zm0,135.68H810.56V814.08H676.64ZM541,1.76H674.88V135.68H541Zm0,135.68H674.88V271.36H541Zm0,135.68H674.88V407H541Zm0,135.68H674.88V542.72H541Zm0,135.68H674.88V678.4H541Zm0,135.68H674.88V814.08H541ZM405.28,1.76H539.2V135.68H405.28Zm0,135.68H539.2V271.36H405.28Zm0,135.68H539.2V407H405.28Zm0,135.68H539.2V542.72H405.28Zm0,135.68H539.2V678.4H405.28Zm0,135.68H539.2V814.08H405.28ZM269.6,1.76H403.52V135.68H269.6Zm0,135.68H403.52V271.36H269.6Zm0,135.68H403.52V407H269.6Zm0,135.68H403.52V542.72H269.6Zm0,135.68H403.52V678.4H269.6Zm0,135.68H403.52V814.08H269.6ZM133.92,1.76H267.84V135.68H133.92Zm0,135.68H267.84V271.36H133.92Zm0,135.68H267.84V407H133.92Zm0,135.68H267.84V542.72H133.92Zm0,135.68H267.84V678.4H133.92Zm0,135.68H267.84V814.08H133.92Z" transform="translate(0)"/>
    <rect class="cls-1" width="1.76" height="815.84"/>
  </g>
</svg>
