<svg width="293" height="626" viewBox="0 0 293 626" fill="none" xmlns="http://www.w3.org/2000/svg">
<rect x="1.39258" width="291.837" height="0.541429" transform="rotate(90 1.39258 0)" fill="#54362C"/>
<rect x="42.002" y="0.54126" width="291.296" height="0.541429" transform="rotate(90 42.002 0.54126)" fill="#54362C"/>
<rect x="83.6914" y="0.54126" width="291.296" height="0.541429" transform="rotate(90 83.6914 0.54126)" fill="#54362C"/>
<rect x="125.383" y="0.54126" width="291.296" height="0.541429" transform="rotate(90 125.383 0.54126)" fill="#54362C"/>
<rect x="167.074" y="0.54126" width="291.296" height="0.541429" transform="rotate(90 167.074 0.54126)" fill="#54362C"/>
<rect x="208.766" y="0.54126" width="291.296" height="0.541429" transform="rotate(90 208.766 0.54126)" fill="#54362C"/>
<rect x="250.455" y="0.54126" width="291.296" height="0.541429" transform="rotate(90 250.455 0.54126)" fill="#54362C"/>
<rect x="292.148" width="291.837" height="0.541429" transform="rotate(90 292.148 0)" fill="#54362C"/>
<rect x="291.605" y="0.541504" width="290.213" height="0.541416" transform="rotate(-180 291.605 0.541504)" fill="#54362C"/>
<rect x="291.605" y="42.2324" width="290.213" height="0.541416" transform="rotate(-180 291.605 42.2324)" fill="#54362C"/>
<rect x="291.605" y="83.9233" width="290.213" height="0.541416" transform="rotate(-180 291.605 83.9233)" fill="#54362C"/>
<rect x="291.605" y="125.615" width="290.213" height="0.541416" transform="rotate(-180 291.605 125.615)" fill="#54362C"/>
<rect x="291.605" y="167.305" width="290.213" height="0.541416" transform="rotate(-180 291.605 167.305)" fill="#54362C"/>
<rect x="291.605" y="208.996" width="290.213" height="0.541416" transform="rotate(-180 291.605 208.996)" fill="#54362C"/>
<rect x="291.605" y="250.687" width="290.213" height="0.541416" transform="rotate(-180 291.605 250.687)" fill="#54362C"/>
<rect x="292.148" y="292.378" width="291.296" height="0.541416" transform="rotate(-180 292.148 292.378)" fill="#54362C"/>
<rect x="1.39258" y="292" width="291.837" height="0.541429" transform="rotate(90 1.39258 292)" fill="#54362C"/>
<rect x="42.002" y="292.541" width="291.296" height="0.541429" transform="rotate(90 42.002 292.541)" fill="#54362C"/>
<rect x="83.6914" y="292.541" width="291.296" height="0.541429" transform="rotate(90 83.6914 292.541)" fill="#54362C"/>
<rect x="125.383" y="292.541" width="291.296" height="0.541429" transform="rotate(90 125.383 292.541)" fill="#54362C"/>
<rect x="167.074" y="292.541" width="291.296" height="0.541429" transform="rotate(90 167.074 292.541)" fill="#54362C"/>
<rect x="208.766" y="292.541" width="291.296" height="0.541429" transform="rotate(90 208.766 292.541)" fill="#54362C"/>
<rect x="250.455" y="292.541" width="291.296" height="0.541429" transform="rotate(90 250.455 292.541)" fill="#54362C"/>
<rect x="292.148" y="292" width="291.837" height="0.541429" transform="rotate(90 292.148 292)" fill="#54362C"/>
<rect x="291.605" y="334.233" width="290.213" height="0.541416" transform="rotate(-180 291.605 334.233)" fill="#54362C"/>
<rect x="291.605" y="375.924" width="290.213" height="0.541416" transform="rotate(-180 291.605 375.924)" fill="#54362C"/>
<rect x="291.605" y="417.615" width="290.213" height="0.541416" transform="rotate(-180 291.605 417.615)" fill="#54362C"/>
<rect x="291.605" y="459.306" width="290.213" height="0.541416" transform="rotate(-180 291.605 459.306)" fill="#54362C"/>
<rect x="291.605" y="500.997" width="290.213" height="0.541416" transform="rotate(-180 291.605 500.997)" fill="#54362C"/>
<rect x="291.605" y="542.688" width="290.213" height="0.541416" transform="rotate(-180 291.605 542.688)" fill="#54362C"/>
<rect x="292.148" y="584.378" width="291.296" height="0.541416" transform="rotate(-180 292.148 584.378)" fill="#54362C"/>
<g clip-path="url(#clip0_74_22532)">
<rect x="1.39258" y="584" width="291.837" height="0.541429" transform="rotate(90 1.39258 584)" fill="#54362C"/>
<rect x="42.002" y="584.541" width="291.296" height="0.541429" transform="rotate(90 42.002 584.541)" fill="#54362C"/>
<rect x="83.6914" y="584.541" width="291.296" height="0.541429" transform="rotate(90 83.6914 584.541)" fill="#54362C"/>
<rect x="125.383" y="584.541" width="291.296" height="0.541429" transform="rotate(90 125.383 584.541)" fill="#54362C"/>
<rect x="167.074" y="584.541" width="291.296" height="0.541429" transform="rotate(90 167.074 584.541)" fill="#54362C"/>
<rect x="208.766" y="584.541" width="291.296" height="0.541429" transform="rotate(90 208.766 584.541)" fill="#54362C"/>
<rect x="250.455" y="584.541" width="291.296" height="0.541429" transform="rotate(90 250.455 584.541)" fill="#54362C"/>
<rect x="292.148" y="584" width="291.837" height="0.541429" transform="rotate(90 292.148 584)" fill="#54362C"/>
<rect x="291.605" y="626.233" width="290.213" height="0.541416" transform="rotate(-180 291.605 626.233)" fill="#54362C"/>
</g>
<defs>
<clipPath id="clip0_74_22532">
<rect width="291" height="42" fill="white" transform="translate(1 584)"/>
</clipPath>
</defs>
</svg>
