<svg width="949" height="952" viewBox="0 0 949 952" fill="none" xmlns="http://www.w3.org/2000/svg">
<rect x="1.76172" width="949.762" height="1.76204" transform="rotate(90 1.76172 0)" fill="#54362C"/>
<rect x="133.918" y="1.76196" width="948" height="1.76204" transform="rotate(90 133.918 1.76196)" fill="#54362C"/>
<rect x="269.598" y="1.76196" width="948" height="1.76204" transform="rotate(90 269.598 1.76196)" fill="#54362C"/>
<rect x="405.279" y="1.76196" width="948" height="1.76204" transform="rotate(90 405.279 1.76196)" fill="#54362C"/>
<rect x="540.959" y="1.76196" width="948" height="1.76204" transform="rotate(90 540.959 1.76196)" fill="#54362C"/>
<rect x="676.639" y="1.76196" width="948" height="1.76204" transform="rotate(90 676.639 1.76196)" fill="#54362C"/>
<rect x="812.32" y="1.76196" width="948" height="1.76204" transform="rotate(90 812.32 1.76196)" fill="#54362C"/>
<rect x="948" width="949.762" height="1.76204" transform="rotate(90 948 0)" fill="#54362C"/>
<rect x="946.24" y="1.76245" width="944.476" height="1.762" transform="rotate(-180 946.24 1.76245)" fill="#54362C"/>
<rect x="946.24" y="137.443" width="944.476" height="1.762" transform="rotate(-180 946.24 137.443)" fill="#54362C"/>
<rect x="946.24" y="273.123" width="944.476" height="1.762" transform="rotate(-180 946.24 273.123)" fill="#54362C"/>
<rect x="946.24" y="408.803" width="944.476" height="1.762" transform="rotate(-180 946.24 408.803)" fill="#54362C"/>
<rect x="946.24" y="544.484" width="944.476" height="1.762" transform="rotate(-180 946.24 544.484)" fill="#54362C"/>
<rect x="946.24" y="680.164" width="944.476" height="1.762" transform="rotate(-180 946.24 680.164)" fill="#54362C"/>
<rect x="946.24" y="815.844" width="944.476" height="1.762" transform="rotate(-180 946.24 815.844)" fill="#54362C"/>
<rect x="948.002" y="951.524" width="948" height="1.762" transform="rotate(-180 948.002 951.524)" fill="#54362C"/>
</svg>
