<svg id="Слой_1" data-name="Слой 1" xmlns="http://www.w3.org/2000/svg" viewBox="0 0 747 129.04">
  <defs>
    <style>
      .cls-1 {
        opacity: 0.25;
      }

      .cls-2 {
        fill: #f1c650;
      }
    </style>
  </defs>
  <title>hero-title-1</title>
  <g class="cls-1">
    <path d="M661.74,126.32h48.07V76.72L747,10.58H715l-20.35,38-21-38H621.71l40,66.92Zm-107.15-32V34.74h3.75c13.61,0,20.74,10.07,20.74,29.71s-6.61,29.71-19.7,29.71h-4.79Zm-48.07,32h61.93c36,0,57.92-21.83,57.92-57.35,0-36.69-23.58-58.52-62.84-58.39H506.65V126.32ZM413.74,64.84c0-20.67,4.67-30,15.29-30S444.58,44.3,444.58,65c0,21-4.66,29.71-15.55,29.71S413.74,85.89,413.74,64.84ZM429,129c39.26,0,63.62-23.25,63.62-60.84C492.78,30.86,468.68,8,429,8c-38.87,0-62.84,22.86-63.36,60.2S389.38,129,429,129Zm-152-64.2c0-20.67,4.66-30,15.28-30S307.88,44.3,307.88,65c0,21-4.66,29.71-15.55,29.71S277.05,85.89,277.05,64.84ZM292.33,129C331.6,129,356,105.79,356,68.2,356,30.86,331.85,8,292.33,8,253.59,8,229.49,30.86,229,68.2,228.2,105.53,252.69,129,292.33,129Zm-152.89-2.72h81.24V91.06H187.51V10.58H139.44ZM58.07,51.53V32.93h6c5.7,0,9.59,3.75,9.59,9.3s-4,9.3-9.59,9.3Zm0,42.76V73.49h8.81C73.49,73.49,78,77.75,78,84S73.49,94.42,66.88,94.42H58.07ZM10,126.32H86.06c23.06,0,40.3-15.24,40.3-35.52,0-17-11.41-29.71-28.9-33.46,10.75-2.58,17.88-11.1,17.88-22.6.13-14.21-10.62-24.16-27.34-24.16H10Z"/>
    <path d="M661.74,126.32h48.07V76.72L747,10.58H715l-20.35,38-21-38H621.71l40,66.92Zm-107.15-32V34.74h3.75c13.61,0,20.74,10.07,20.74,29.71s-6.61,29.71-19.7,29.71h-4.79Zm-48.07,32h61.93c36,0,57.92-21.83,57.92-57.35,0-36.69-23.58-58.52-62.84-58.39H506.65V126.32ZM413.74,64.84c0-20.67,4.67-30,15.29-30S444.58,44.3,444.58,65c0,21-4.66,29.71-15.55,29.71S413.74,85.89,413.74,64.84ZM429,129c39.26,0,63.62-23.25,63.62-60.84C492.78,30.86,468.68,8,429,8c-38.87,0-62.84,22.86-63.36,60.2S389.38,129,429,129Zm-152-64.2c0-20.67,4.66-30,15.28-30S307.88,44.3,307.88,65c0,21-4.66,29.71-15.55,29.71S277.05,85.89,277.05,64.84ZM292.33,129C331.6,129,356,105.79,356,68.2,356,30.86,331.85,8,292.33,8,253.59,8,229.49,30.86,229,68.2,228.2,105.53,252.69,129,292.33,129Zm-152.89-2.72h81.24V91.06H187.51V10.58H139.44ZM58.07,51.53V32.93h6c5.7,0,9.59,3.75,9.59,9.3s-4,9.3-9.59,9.3Zm0,42.76V73.49h8.81C73.49,73.49,78,77.75,78,84S73.49,94.42,66.88,94.42H58.07ZM10,126.32H86.06c23.06,0,40.3-15.24,40.3-35.52,0-17-11.41-29.71-28.9-33.46,10.75-2.58,17.88-11.1,17.88-22.6.13-14.21-10.62-24.16-27.34-24.16H10Z"/>
    <path d="M661.74,126.32h48.07V76.72L747,10.58H715l-20.35,38-21-38H621.71l40,66.92Zm-107.15-32V34.74h3.75c13.61,0,20.74,10.07,20.74,29.71s-6.61,29.71-19.7,29.71h-4.79Zm-48.07,32h61.93c36,0,57.92-21.83,57.92-57.35,0-36.69-23.58-58.52-62.84-58.39H506.65V126.32ZM413.74,64.84c0-20.67,4.67-30,15.29-30S444.58,44.3,444.58,65c0,21-4.66,29.71-15.55,29.71S413.74,85.89,413.74,64.84ZM429,129c39.26,0,63.62-23.25,63.62-60.84C492.78,30.86,468.68,8,429,8c-38.87,0-62.84,22.86-63.36,60.2S389.38,129,429,129Zm-152-64.2c0-20.67,4.66-30,15.28-30S307.88,44.3,307.88,65c0,21-4.66,29.71-15.55,29.71S277.05,85.89,277.05,64.84ZM292.33,129C331.6,129,356,105.79,356,68.2,356,30.86,331.85,8,292.33,8,253.59,8,229.49,30.86,229,68.2,228.2,105.53,252.69,129,292.33,129Zm-152.89-2.72h81.24V91.06H187.51V10.58H139.44ZM58.07,51.53V32.93h6c5.7,0,9.59,3.75,9.59,9.3s-4,9.3-9.59,9.3Zm0,42.76V73.49h8.81C73.49,73.49,78,77.75,78,84S73.49,94.42,66.88,94.42H58.07ZM10,126.32H86.06c23.06,0,40.3-15.24,40.3-35.52,0-17-11.41-29.71-28.9-33.46,10.75-2.58,17.88-11.1,17.88-22.6.13-14.21-10.62-24.16-27.34-24.16H10Z"/>
    <path d="M661.74,126.32h48.07V76.72L747,10.58H715l-20.35,38-21-38H621.71l40,66.92Zm-107.15-32V34.74h3.75c13.61,0,20.74,10.07,20.74,29.71s-6.61,29.71-19.7,29.71h-4.79Zm-48.07,32h61.93c36,0,57.92-21.83,57.92-57.35,0-36.69-23.58-58.52-62.84-58.39H506.65V126.32ZM413.74,64.84c0-20.67,4.67-30,15.29-30S444.58,44.3,444.58,65c0,21-4.66,29.71-15.55,29.71S413.74,85.89,413.74,64.84ZM429,129c39.26,0,63.62-23.25,63.62-60.84C492.78,30.86,468.68,8,429,8c-38.87,0-62.84,22.86-63.36,60.2S389.38,129,429,129Zm-152-64.2c0-20.67,4.66-30,15.28-30S307.88,44.3,307.88,65c0,21-4.66,29.71-15.55,29.71S277.05,85.89,277.05,64.84ZM292.33,129C331.6,129,356,105.79,356,68.2,356,30.86,331.85,8,292.33,8,253.59,8,229.49,30.86,229,68.2,228.2,105.53,252.69,129,292.33,129Zm-152.89-2.72h81.24V91.06H187.51V10.58H139.44ZM58.07,51.53V32.93h6c5.7,0,9.59,3.75,9.59,9.3s-4,9.3-9.59,9.3Zm0,42.76V73.49h8.81C73.49,73.49,78,77.75,78,84S73.49,94.42,66.88,94.42H58.07ZM10,126.32H86.06c23.06,0,40.3-15.24,40.3-35.52,0-17-11.41-29.71-28.9-33.46,10.75-2.58,17.88-11.1,17.88-22.6.13-14.21-10.62-24.16-27.34-24.16H10Z"/>
    <path d="M661.74,126.32h48.07V76.72L747,10.58H715l-20.35,38-21-38H621.71l40,66.92Zm-107.15-32V34.74h3.75c13.61,0,20.74,10.07,20.74,29.71s-6.61,29.71-19.7,29.71h-4.79Zm-48.07,32h61.93c36,0,57.92-21.83,57.92-57.35,0-36.69-23.58-58.52-62.84-58.39H506.65V126.32ZM413.74,64.84c0-20.67,4.67-30,15.29-30S444.58,44.3,444.58,65c0,21-4.66,29.71-15.55,29.71S413.74,85.89,413.74,64.84ZM429,129c39.26,0,63.62-23.25,63.62-60.84C492.78,30.86,468.68,8,429,8c-38.87,0-62.84,22.86-63.36,60.2S389.38,129,429,129Zm-152-64.2c0-20.67,4.66-30,15.28-30S307.88,44.3,307.88,65c0,21-4.66,29.71-15.55,29.71S277.05,85.89,277.05,64.84ZM292.33,129C331.6,129,356,105.79,356,68.2,356,30.86,331.85,8,292.33,8,253.59,8,229.49,30.86,229,68.2,228.2,105.53,252.69,129,292.33,129Zm-152.89-2.72h81.24V91.06H187.51V10.58H139.44ZM58.07,51.53V32.93h6c5.7,0,9.59,3.75,9.59,9.3s-4,9.3-9.59,9.3Zm0,42.76V73.49h8.81C73.49,73.49,78,77.75,78,84S73.49,94.42,66.88,94.42H58.07ZM10,126.32H86.06c23.06,0,40.3-15.24,40.3-35.52,0-17-11.41-29.71-28.9-33.46,10.75-2.58,17.88-11.1,17.88-22.6.13-14.21-10.62-24.16-27.34-24.16H10Z"/>
  </g>
  <path class="cls-2" d="M651.74,118.32h48.07V68.72L737,2.58H705l-20.35,38-21-38H611.71l40,66.92Zm-107.15-32V26.74h3.75c13.61,0,20.74,10.07,20.74,29.71s-6.61,29.71-19.7,29.71h-4.79Zm-48.07,32h61.93c36,0,57.92-21.83,57.92-57.35,0-36.69-23.58-58.52-62.84-58.39H496.65V118.32ZM403.74,56.84c0-20.67,4.67-30,15.29-30S434.58,36.3,434.58,57c0,21-4.66,29.71-15.55,29.71S403.74,77.89,403.74,56.84ZM419,121c39.26,0,63.62-23.25,63.62-60.84C482.78,22.86,458.68,0,419,0c-38.87,0-62.84,22.86-63.36,60.2S379.38,121,419,121Zm-152-64.2c0-20.67,4.66-30,15.28-30S297.88,36.3,297.88,57c0,21-4.66,29.71-15.55,29.71S267.05,77.89,267.05,56.84ZM282.33,121C321.6,121,346,97.79,346,60.2,346,22.86,321.85,0,282.33,0,243.59,0,219.49,22.86,219,60.2,218.2,97.53,242.69,121,282.33,121Zm-152.89-2.72h81.24V83.06H177.51V2.58H129.44ZM48.07,43.53V24.93h6c5.7,0,9.59,3.75,9.59,9.3s-4,9.3-9.59,9.3Zm0,42.76V65.49h8.81C63.49,65.49,68,69.75,68,76S63.49,86.42,56.88,86.42H48.07ZM0,118.32H76.06c23.06,0,40.3-15.24,40.3-35.52,0-17-11.41-29.71-28.9-33.46,10.75-2.58,17.88-11.1,17.88-22.6C105.47,12.53,94.72,2.58,78,2.58H0Z"/>
  <path class="cls-2" d="M651.74,118.32h48.07V68.72L737,2.58H705l-20.35,38-21-38H611.71l40,66.92Zm-107.15-32V26.74h3.75c13.61,0,20.74,10.07,20.74,29.71s-6.61,29.71-19.7,29.71h-4.79Zm-48.07,32h61.93c36,0,57.92-21.83,57.92-57.35,0-36.69-23.58-58.52-62.84-58.39H496.65V118.32ZM403.74,56.84c0-20.67,4.67-30,15.29-30S434.58,36.3,434.58,57c0,21-4.66,29.71-15.55,29.71S403.74,77.89,403.74,56.84ZM419,121c39.26,0,63.62-23.25,63.62-60.84C482.78,22.86,458.68,0,419,0c-38.87,0-62.84,22.86-63.36,60.2S379.38,121,419,121Zm-152-64.2c0-20.67,4.66-30,15.28-30S297.88,36.3,297.88,57c0,21-4.66,29.71-15.55,29.71S267.05,77.89,267.05,56.84ZM282.33,121C321.6,121,346,97.79,346,60.2,346,22.86,321.85,0,282.33,0,243.59,0,219.49,22.86,219,60.2,218.2,97.53,242.69,121,282.33,121Zm-152.89-2.72h81.24V83.06H177.51V2.58H129.44ZM48.07,43.53V24.93h6c5.7,0,9.59,3.75,9.59,9.3s-4,9.3-9.59,9.3Zm0,42.76V65.49h8.81C63.49,65.49,68,69.75,68,76S63.49,86.42,56.88,86.42H48.07ZM0,118.32H76.06c23.06,0,40.3-15.24,40.3-35.52,0-17-11.41-29.71-28.9-33.46,10.75-2.58,17.88-11.1,17.88-22.6C105.47,12.53,94.72,2.58,78,2.58H0Z"/>
  <path class="cls-2" d="M651.74,118.32h48.07V68.72L737,2.58H705l-20.35,38-21-38H611.71l40,66.92Zm-107.15-32V26.74h3.75c13.61,0,20.74,10.07,20.74,29.71s-6.61,29.71-19.7,29.71h-4.79Zm-48.07,32h61.93c36,0,57.92-21.83,57.92-57.35,0-36.69-23.58-58.52-62.84-58.39H496.65V118.32ZM403.74,56.84c0-20.67,4.67-30,15.29-30S434.58,36.3,434.58,57c0,21-4.66,29.71-15.55,29.71S403.74,77.89,403.74,56.84ZM419,121c39.26,0,63.62-23.25,63.62-60.84C482.78,22.86,458.68,0,419,0c-38.87,0-62.84,22.86-63.36,60.2S379.38,121,419,121Zm-152-64.2c0-20.67,4.66-30,15.28-30S297.88,36.3,297.88,57c0,21-4.66,29.71-15.55,29.71S267.05,77.89,267.05,56.84ZM282.33,121C321.6,121,346,97.79,346,60.2,346,22.86,321.85,0,282.33,0,243.59,0,219.49,22.86,219,60.2,218.2,97.53,242.69,121,282.33,121Zm-152.89-2.72h81.24V83.06H177.51V2.58H129.44ZM48.07,43.53V24.93h6c5.7,0,9.59,3.75,9.59,9.3s-4,9.3-9.59,9.3Zm0,42.76V65.49h8.81C63.49,65.49,68,69.75,68,76S63.49,86.42,56.88,86.42H48.07ZM0,118.32H76.06c23.06,0,40.3-15.24,40.3-35.52,0-17-11.41-29.71-28.9-33.46,10.75-2.58,17.88-11.1,17.88-22.6C105.47,12.53,94.72,2.58,78,2.58H0Z"/>
  <path class="cls-2" d="M651.74,118.32h48.07V68.72L737,2.58H705l-20.35,38-21-38H611.71l40,66.92Zm-107.15-32V26.74h3.75c13.61,0,20.74,10.07,20.74,29.71s-6.61,29.71-19.7,29.71h-4.79Zm-48.07,32h61.93c36,0,57.92-21.83,57.92-57.35,0-36.69-23.58-58.52-62.84-58.39H496.65V118.32ZM403.74,56.84c0-20.67,4.67-30,15.29-30S434.58,36.3,434.58,57c0,21-4.66,29.71-15.55,29.71S403.74,77.89,403.74,56.84ZM419,121c39.26,0,63.62-23.25,63.62-60.84C482.78,22.86,458.68,0,419,0c-38.87,0-62.84,22.86-63.36,60.2S379.38,121,419,121Zm-152-64.2c0-20.67,4.66-30,15.28-30S297.88,36.3,297.88,57c0,21-4.66,29.71-15.55,29.71S267.05,77.89,267.05,56.84ZM282.33,121C321.6,121,346,97.79,346,60.2,346,22.86,321.85,0,282.33,0,243.59,0,219.49,22.86,219,60.2,218.2,97.53,242.69,121,282.33,121Zm-152.89-2.72h81.24V83.06H177.51V2.58H129.44ZM48.07,43.53V24.93h6c5.7,0,9.59,3.75,9.59,9.3s-4,9.3-9.59,9.3Zm0,42.76V65.49h8.81C63.49,65.49,68,69.75,68,76S63.49,86.42,56.88,86.42H48.07ZM0,118.32H76.06c23.06,0,40.3-15.24,40.3-35.52,0-17-11.41-29.71-28.9-33.46,10.75-2.58,17.88-11.1,17.88-22.6C105.47,12.53,94.72,2.58,78,2.58H0Z"/>
  <path class="cls-2" d="M651.74,118.32h48.07V68.72L737,2.58H705l-20.35,38-21-38H611.71l40,66.92Zm-107.15-32V26.74h3.75c13.61,0,20.74,10.07,20.74,29.71s-6.61,29.71-19.7,29.71h-4.79Zm-48.07,32h61.93c36,0,57.92-21.83,57.92-57.35,0-36.69-23.58-58.52-62.84-58.39H496.65V118.32ZM403.74,56.84c0-20.67,4.67-30,15.29-30S434.58,36.3,434.58,57c0,21-4.66,29.71-15.55,29.71S403.74,77.89,403.74,56.84ZM419,121c39.26,0,63.62-23.25,63.62-60.84C482.78,22.86,458.68,0,419,0c-38.87,0-62.84,22.86-63.36,60.2S379.38,121,419,121Zm-152-64.2c0-20.67,4.66-30,15.28-30S297.88,36.3,297.88,57c0,21-4.66,29.71-15.55,29.71S267.05,77.89,267.05,56.84ZM282.33,121C321.6,121,346,97.79,346,60.2,346,22.86,321.85,0,282.33,0,243.59,0,219.49,22.86,219,60.2,218.2,97.53,242.69,121,282.33,121Zm-152.89-2.72h81.24V83.06H177.51V2.58H129.44ZM48.07,43.53V24.93h6c5.7,0,9.59,3.75,9.59,9.3s-4,9.3-9.59,9.3Zm0,42.76V65.49h8.81C63.49,65.49,68,69.75,68,76S63.49,86.42,56.88,86.42H48.07ZM0,118.32H76.06c23.06,0,40.3-15.24,40.3-35.52,0-17-11.41-29.71-28.9-33.46,10.75-2.58,17.88-11.1,17.88-22.6C105.47,12.53,94.72,2.58,78,2.58H0Z"/>
</svg>
