<svg id="Слой_1" data-name="Слой 1" xmlns="http://www.w3.org/2000/svg" viewBox="0 0 533.47 123.74">
  <defs>
    <style>
      .cls-1 {
        opacity: 0.25;
      }

      .cls-2 {
        fill: #f1c650;
      }
    </style>
  </defs>
  <title>hero-title-2</title>
  <g class="cls-1">
    <path d="M555,292.74h48.08v-49.6L640.23,177h-32l-20.34,38-21-38h-52l39.9,66.78v49ZM447.3,224.54V201h6.09c7.52,0,12.05,4.65,12.05,11.75s-4.66,11.76-12.05,11.76Zm-48.07,68.2H447.3V249.47l18.53,43.27h52.74l-29.16-55.93c13.09-3.1,21.77-14.08,21.77-28.94,0-18.34-14-30.74-34.85-30.74h-77.1V292.74ZM311.9,247l10-35.65L329.13,247Zm26.43,45.73h52.09L356.47,177h-51.7L268.62,292.74h30.71L304,275.69h31Zm-221.56,0H145V230.09l22.29,62.65h21.9l22.54-62v62h48.07V177H207l-18.66,43.92L170.54,177H116.77Z" transform="translate(-106.77 -169)"/>
    <path d="M555,292.74h48.08v-49.6L640.23,177h-32l-20.34,38-21-38h-52l39.9,66.78v49ZM447.3,224.54V201h6.09c7.52,0,12.05,4.65,12.05,11.75s-4.66,11.76-12.05,11.76Zm-48.07,68.2H447.3V249.47l18.53,43.27h52.74l-29.16-55.93c13.09-3.1,21.77-14.08,21.77-28.94,0-18.34-14-30.74-34.85-30.74h-77.1V292.74ZM311.9,247l10-35.65L329.13,247Zm26.43,45.73h52.09L356.47,177h-51.7L268.62,292.74h30.71L304,275.69h31Zm-221.56,0H145V230.09l22.29,62.65h21.9l22.54-62v62h48.07V177H207l-18.66,43.92L170.54,177H116.77Z" transform="translate(-106.77 -169)"/>
    <path d="M555,292.74h48.08v-49.6L640.23,177h-32l-20.34,38-21-38h-52l39.9,66.78v49ZM447.3,224.54V201h6.09c7.52,0,12.05,4.65,12.05,11.75s-4.66,11.76-12.05,11.76Zm-48.07,68.2H447.3V249.47l18.53,43.27h52.74l-29.16-55.93c13.09-3.1,21.77-14.08,21.77-28.94,0-18.34-14-30.74-34.85-30.74h-77.1V292.74ZM311.9,247l10-35.65L329.13,247Zm26.43,45.73h52.09L356.47,177h-51.7L268.62,292.74h30.71L304,275.69h31Zm-221.56,0H145V230.09l22.29,62.65h21.9l22.54-62v62h48.07V177H207l-18.66,43.92L170.54,177H116.77Z" transform="translate(-106.77 -169)"/>
    <path d="M555,292.74h48.08v-49.6L640.23,177h-32l-20.34,38-21-38h-52l39.9,66.78v49ZM447.3,224.54V201h6.09c7.52,0,12.05,4.65,12.05,11.75s-4.66,11.76-12.05,11.76Zm-48.07,68.2H447.3V249.47l18.53,43.27h52.74l-29.16-55.93c13.09-3.1,21.77-14.08,21.77-28.94,0-18.34-14-30.74-34.85-30.74h-77.1V292.74ZM311.9,247l10-35.65L329.13,247Zm26.43,45.73h52.09L356.47,177h-51.7L268.62,292.74h30.71L304,275.69h31Zm-221.56,0H145V230.09l22.29,62.65h21.9l22.54-62v62h48.07V177H207l-18.66,43.92L170.54,177H116.77Z" transform="translate(-106.77 -169)"/>
    <path d="M555,292.74h48.08v-49.6L640.23,177h-32l-20.34,38-21-38h-52l39.9,66.78v49ZM447.3,224.54V201h6.09c7.52,0,12.05,4.65,12.05,11.75s-4.66,11.76-12.05,11.76Zm-48.07,68.2H447.3V249.47l18.53,43.27h52.74l-29.16-55.93c13.09-3.1,21.77-14.08,21.77-28.94,0-18.34-14-30.74-34.85-30.74h-77.1V292.74ZM311.9,247l10-35.65L329.13,247Zm26.43,45.73h52.09L356.47,177h-51.7L268.62,292.74h30.71L304,275.69h31Zm-221.56,0H145V230.09l22.29,62.65h21.9l22.54-62v62h48.07V177H207l-18.66,43.92L170.54,177H116.77Z" transform="translate(-106.77 -169)"/>
  </g>
  <path class="cls-2" d="M545,284.74h48.08v-49.6L630.23,169h-32l-20.34,38-21-38h-52l39.9,66.78v49ZM437.3,216.54V193h6.09c7.52,0,12.05,4.65,12.05,11.75s-4.66,11.76-12.05,11.76Zm-48.07,68.2H437.3V241.47l18.53,43.27h52.74l-29.16-55.93c13.09-3.1,21.77-14.08,21.77-28.94,0-18.34-14-30.74-34.85-30.74h-77.1V284.74ZM301.9,239l10-35.65L319.13,239Zm26.43,45.73h52.09L346.47,169h-51.7L258.62,284.74h30.71L294,267.69h31Zm-221.56,0H135V222.09l22.29,62.65h21.9l22.54-62v62h48.07V169H197l-18.66,43.92L160.54,169H106.77Z" transform="translate(-106.77 -169)"/>
  <path class="cls-2" d="M545,284.74h48.08v-49.6L630.23,169h-32l-20.34,38-21-38h-52l39.9,66.78v49ZM437.3,216.54V193h6.09c7.52,0,12.05,4.65,12.05,11.75s-4.66,11.76-12.05,11.76Zm-48.07,68.2H437.3V241.47l18.53,43.27h52.74l-29.16-55.93c13.09-3.1,21.77-14.08,21.77-28.94,0-18.34-14-30.74-34.85-30.74h-77.1V284.74ZM301.9,239l10-35.65L319.13,239Zm26.43,45.73h52.09L346.47,169h-51.7L258.62,284.74h30.71L294,267.69h31Zm-221.56,0H135V222.09l22.29,62.65h21.9l22.54-62v62h48.07V169H197l-18.66,43.92L160.54,169H106.77Z" transform="translate(-106.77 -169)"/>
  <path class="cls-2" d="M545,284.74h48.08v-49.6L630.23,169h-32l-20.34,38-21-38h-52l39.9,66.78v49ZM437.3,216.54V193h6.09c7.52,0,12.05,4.65,12.05,11.75s-4.66,11.76-12.05,11.76Zm-48.07,68.2H437.3V241.47l18.53,43.27h52.74l-29.16-55.93c13.09-3.1,21.77-14.08,21.77-28.94,0-18.34-14-30.74-34.85-30.74h-77.1V284.74ZM301.9,239l10-35.65L319.13,239Zm26.43,45.73h52.09L346.47,169h-51.7L258.62,284.74h30.71L294,267.69h31Zm-221.56,0H135V222.09l22.29,62.65h21.9l22.54-62v62h48.07V169H197l-18.66,43.92L160.54,169H106.77Z" transform="translate(-106.77 -169)"/>
  <path class="cls-2" d="M545,284.74h48.08v-49.6L630.23,169h-32l-20.34,38-21-38h-52l39.9,66.78v49ZM437.3,216.54V193h6.09c7.52,0,12.05,4.65,12.05,11.75s-4.66,11.76-12.05,11.76Zm-48.07,68.2H437.3V241.47l18.53,43.27h52.74l-29.16-55.93c13.09-3.1,21.77-14.08,21.77-28.94,0-18.34-14-30.74-34.85-30.74h-77.1V284.74ZM301.9,239l10-35.65L319.13,239Zm26.43,45.73h52.09L346.47,169h-51.7L258.62,284.74h30.71L294,267.69h31Zm-221.56,0H135V222.09l22.29,62.65h21.9l22.54-62v62h48.07V169H197l-18.66,43.92L160.54,169H106.77Z" transform="translate(-106.77 -169)"/>
  <path class="cls-2" d="M545,284.74h48.08v-49.6L630.23,169h-32l-20.34,38-21-38h-52l39.9,66.78v49ZM437.3,216.54V193h6.09c7.52,0,12.05,4.65,12.05,11.75s-4.66,11.76-12.05,11.76Zm-48.07,68.2H437.3V241.47l18.53,43.27h52.74l-29.16-55.93c13.09-3.1,21.77-14.08,21.77-28.94,0-18.34-14-30.74-34.85-30.74h-77.1V284.74ZM301.9,239l10-35.65L319.13,239Zm26.43,45.73h52.09L346.47,169h-51.7L258.62,284.74h30.71L294,267.69h31Zm-221.56,0H135V222.09l22.29,62.65h21.9l22.54-62v62h48.07V169H197l-18.66,43.92L160.54,169H106.77Z" transform="translate(-106.77 -169)"/>
</svg>
