<svg id="Слой_1" data-name="Слой 1" xmlns="http://www.w3.org/2000/svg" viewBox="0 0 286 47">
  <defs>
    <style>
      .cls-1 {
        fill: #56382e;
      }
    </style>
  </defs>
  <title>hero-subtitle</title>
  <g>
    <path class="cls-1" d="M35.82.6c-2.54,7.07-5.08,14.52-7.62,21.89H15.37C17.91,15.12,20.52,7.67,23.06.6H16.42C13.88,7.67,11.34,15.12,8.8,22.49H1.94L0,28.16H6.94C4.85,34.34,2.84,40.45.75,46.4H7.39c1.94-5.95,4-12.06,6-18.24H26.26L20.15,46.4h6.56c4.93-15,10.3-31,15.67-45.8Z"/>
    <path class="cls-1" d="M227.13,12.81C227.13,5.14,219.37,0,209.82,0c-5.6,0-11.72,1.56-15.9,4.32l2.54,5.44A26.26,26.26,0,0,1,209.82,6c5.3,0,10.52,2.61,10.52,7.53,0,6.25-7.76,9.6-15.89,9.53L208,12.81h-6.71c-2.76,8.72-6,17.36-8.81,26.07-1.27-.59-2.61-1.27-3.73-1.94l-2.91,5.59c2.76,1.94,10.15,4.47,16.87,4.47C211.53,47,220,42.68,220,35c0-3.8-3.06-7.15-7.24-8.57C220.94,25,227.13,19.37,227.13,12.81Zm-14,22.27c.08,4-4.4,6.48-9.77,6.48a21.12,21.12,0,0,1-4.78-.59c1.27-4.25,2.61-8.42,4.11-12.67C207.88,28.6,213.1,31.36,213.1,35.08Z"/>
    <path class="cls-1" d="M135.05,14.75c2.47,0,4.85-2.76,4.85-5.36a2.94,2.94,0,0,0-3.06-3.06c-2.53,0-4.85,2.53-4.85,5.29A2.92,2.92,0,0,0,135.05,14.75Z"/>
    <path class="cls-1" d="M148.26,14.75c2.46,0,4.85-2.76,4.85-5.36a2.94,2.94,0,0,0-3.06-3.06c-2.54,0-4.85,2.53-4.85,5.29A2.92,2.92,0,0,0,148.26,14.75Z"/>
    <path class="cls-1" d="M168.63,16.76a52.33,52.33,0,0,1-7.16,15.42c-1.2,1.64-1.49,2.75-.82,4,1.71,3.65,6.26,5.59,10.14,5.59A9.66,9.66,0,0,0,180.57,32c0-5.74-3.73-11.62-5.22-15.27Zm1.19,20a5.33,5.33,0,0,1-4.25-2.31,39.7,39.7,0,0,0,6-11.7c1.27,2.61,2.54,5.59,2.54,8.72C174.15,34.19,172.59,36.8,169.82,36.8Z"/>
    <polygon class="cls-1" points="169.97 3.43 163.18 3.43 156.92 17.13 162.44 17.13 169.97 3.43"/>
    <path class="cls-1" d="M282.64,30.39c-1.94,2.9-4.7,5.66-6.12,5.66-2.91,0-2.91-3.2.83-13.56h5L284,17.88h-4.92c1-2.39,2-5.14,3.21-8.2h-6.12l-3.06,8.2h-2.61l-1.57,4.61h2.54c-.66,2-1.24,3.83-1.71,5.6-2.44,4.49-5.07,7.31-7.54,8.48a8.64,8.64,0,0,0,2.39-6.4c.07-4.32-3-9.91-4.7-13.41h-6.65A52.13,52.13,0,0,1,250,25.41h0c-4.18,8.34-7.68,11.32-13.36,11.32-3.43,0-5.14-1.41-5.52-3.72,6,1.34,13.81-1.79,13.81-8.72a6.77,6.77,0,0,0-7.09-6.93c-7.69,0-12.83,7.38-12.83,15,0,6.11,4.55,9.39,10.37,9.39a15.39,15.39,0,0,0,11-3.95c2.14,2.58,5.9,3.95,9.46,3.95,5.94,0,9.82-1.82,12.9-5.32.33,3.24,2,5.24,6,5.24,4.85,0,9.48-4.84,11.34-8Zm-45.21-8.27a2,2,0,0,1,2,2.31c-.07,3.2-4.4,5.22-8.21,4.84C232,25.32,234.44,22.12,237.43,22.12Zm17,14.68a5.21,5.21,0,0,1-4.26-2.39,39.17,39.17,0,0,0,6.05-11.77,20.32,20.32,0,0,1,2.46,8.72C258.77,34.19,257.2,36.8,254.44,36.8Z"/>
    <path class="cls-1" d="M145.8,36.05c-3.21,0,.45-8.19,4.1-18.17h-6.12c-1.36,3.63-2.69,7.19-3.68,10.4-2.65,4.64-5.57,7.77-7.51,7.77-3.21,0,.45-8.19,4.11-18.17h-6.12c-1.33,3.53-2.63,7-3.6,10.13-2.68,4.79-5.62,8-7.6,8-2.23,0-.67-4.1,4.48-18.17h-6l-.82,2.45a6.83,6.83,0,0,0-5.52-3c-4.52,0-8.48,3.73-10.55,8.59a6,6,0,0,1-3.85.65,27.59,27.59,0,0,0,1-8.64H91.85c.3,9.53-4.85,18-8.13,18-1.42,0-1.79-1-1.79-2.16,0-3.2,2.68-10.5,4.47-15.86h-6c-2.32,7.07-5.3,18-9.48,18-1.19,0-1.64-.9-1.64-2.31,0-3.87,2.83-10.43,5.37-15.72H68.35a53.94,53.94,0,0,0-4.51,12c-2.37,3.78-4.82,6.24-6.54,6.24-2.23,0-.67-4.1,4.48-18.17h-6L55,20.33a6.83,6.83,0,0,0-5.52-3c-6.72,0-12.16,8-12.16,15.94,0,5.14,2.61,8.49,6.64,8.49a7.65,7.65,0,0,0,6.71-4,4.67,4.67,0,0,0,4.78,4c2.84,0,5.64-2.13,8-4.88a5.77,5.77,0,0,0,6,4.88c3.21,0,5.67-1.79,7.38-4.39a5.51,5.51,0,0,0,5.82,4.39c5.15,0,9.93-4.54,12.76-10.72a9.73,9.73,0,0,0,4.2-.08,18,18,0,0,0-.17,2.31c0,5.14,2.61,8.49,6.64,8.49a7.67,7.67,0,0,0,6.72-4,4.66,4.66,0,0,0,4.77,4c2.76,0,5.48-2,7.81-4.65.23,2.89,1.73,4.65,5.33,4.65,2.8,0,5.54-2,7.87-4.67.23,2.9,1.73,4.67,5.33,4.67,4.85,0,9.55-4.84,11.34-8L152,30.39C150.05,33.29,147.29,36.05,145.8,36.05Zm-99.54,0c-1.86,0-2.68-1.56-2.68-3.5,0-4.54,2.61-10,6.49-10a4.22,4.22,0,0,1,3.5,1.94C51.19,32.33,48.87,36.05,46.26,36.05Zm62.08,0c-1.86,0-2.68-1.56-2.68-3.5,0-4.54,2.61-10,6.49-10a4.22,4.22,0,0,1,3.5,1.94C113.27,32.33,111,36.05,108.34,36.05Z"/>
  </g>
</svg>
