<svg width="23" height="23" viewBox="0 0 23 23" fill="none" xmlns="http://www.w3.org/2000/svg">
<path fill-rule="evenodd" clip-rule="evenodd" d="M0.25 4.75C0.25 3.55653 0.724106 2.41193 1.56802 1.56802C2.41193 0.724106 3.55653 0.25 4.75 0.25H18.25C19.4435 0.25 20.5881 0.724106 21.432 1.56802C22.2759 2.41193 22.75 3.55653 22.75 4.75V18.25C22.75 19.4435 22.2759 20.5881 21.432 21.432C20.5881 22.2759 19.4435 22.75 18.25 22.75H4.75C3.55653 22.75 2.41193 22.2759 1.56802 21.432C0.724106 20.5881 0.25 19.4435 0.25 18.25V4.75ZM4.75 2.5C4.15326 2.5 3.58097 2.73705 3.15901 3.15901C2.73705 3.58097 2.5 4.15326 2.5 4.75V18.25C2.5 18.8467 2.73705 19.419 3.15901 19.841C3.58097 20.2629 4.15326 20.5 4.75 20.5H18.25C18.8467 20.5 19.419 20.2629 19.841 19.841C20.2629 19.419 20.5 18.8467 20.5 18.25V4.75C20.5 4.15326 20.2629 3.58097 19.841 3.15901C19.419 2.73705 18.8467 2.5 18.25 2.5H4.75ZM11.5 8.125C10.6049 8.125 9.74645 8.48058 9.11351 9.11351C8.48058 9.74645 8.125 10.6049 8.125 11.5C8.125 12.3951 8.48058 13.2536 9.11351 13.8865C9.74645 14.5194 10.6049 14.875 11.5 14.875C12.3951 14.875 13.2536 14.5194 13.8865 13.8865C14.5194 13.2536 14.875 12.3951 14.875 11.5C14.875 10.6049 14.5194 9.74645 13.8865 9.11351C13.2536 8.48058 12.3951 8.125 11.5 8.125ZM5.875 11.5C5.875 10.0082 6.46763 8.57742 7.52252 7.52252C8.57742 6.46763 10.0082 5.875 11.5 5.875C12.9918 5.875 14.4226 6.46763 15.4775 7.52252C16.5324 8.57742 17.125 10.0082 17.125 11.5C17.125 12.9918 16.5324 14.4226 15.4775 15.4775C14.4226 16.5324 12.9918 17.125 11.5 17.125C10.0082 17.125 8.57742 16.5324 7.52252 15.4775C6.46763 14.4226 5.875 12.9918 5.875 11.5V11.5ZM17.6875 7C18.1351 7 18.5643 6.82221 18.8807 6.50574C19.1972 6.18928 19.375 5.76005 19.375 5.3125C19.375 4.86495 19.1972 4.43572 18.8807 4.11926C18.5643 3.80279 18.1351 3.625 17.6875 3.625C17.2399 3.625 16.8107 3.80279 16.4943 4.11926C16.1778 4.43572 16 4.86495 16 5.3125C16 5.76005 16.1778 6.18928 16.4943 6.50574C16.8107 6.82221 17.2399 7 17.6875 7Z" fill="#54362C"/>
</svg>
