<svg width="117" height="123" viewBox="0 0 117 123" fill="none" xmlns="http://www.w3.org/2000/svg">
<path d="M115.253 89.2509C77.8498 89.4843 40.4463 89.7643 3.04284 89.9977C3.04284 89.8577 3.04284 89.7643 3.04284 89.6243C40.4463 89.3909 77.8498 89.1575 115.253 88.9241C115.253 89.0175 115.253 89.1108 115.253 89.2509ZM11.001 90.978H5.33662C6.31969 91.9583 7.30281 92.8918 8.19225 93.7788C9.17532 92.8918 10.1584 92.0049 11.1414 91.118L11.001 90.978ZM18.3506 93.592C19.3337 92.6584 20.3167 91.7249 21.253 90.7913H15.6823C16.6186 91.7715 17.5548 92.7518 18.3506 93.592ZM15.6354 99.567H21.3467C20.4104 98.5867 19.4741 97.6065 18.5847 96.7196C17.508 97.6998 16.5717 98.6334 15.6354 99.567ZM5.52388 99.6137H11.1414C10.2052 98.6334 9.26892 97.6531 8.51992 96.8596C7.49003 97.7932 6.50695 98.7268 5.52388 99.6137ZM115.3 100.687C77.9434 100.921 40.6336 101.154 3.2769 101.341C3.2769 101.434 3.2769 101.528 3.2769 101.668C40.6336 101.434 77.9434 101.201 115.3 100.967V100.687ZM16.5249 95.5526C15.495 94.5256 14.512 93.5454 13.6225 92.6118C12.5926 93.592 11.516 94.5723 10.5329 95.5059C11.5628 96.5795 12.499 97.5598 13.3417 98.4467C14.4652 97.4664 15.5418 96.4862 16.5249 95.5526ZM37.0758 95.5526C36.0459 94.5256 35.0628 93.5454 34.1734 92.6118C33.1435 93.592 32.0668 94.5723 31.0837 95.5059C32.1136 96.5795 33.0498 97.5598 33.8925 98.4467C35.016 97.4664 36.0927 96.4862 37.0758 95.5526ZM54.4433 98.3533C55.4732 97.3264 56.5031 96.3461 57.4862 95.4125C56.5031 94.3856 55.5201 93.4053 54.537 92.425C53.5071 93.4053 52.4772 94.3856 51.4941 95.4125C52.524 96.4395 53.5071 97.4197 54.4433 98.3533ZM36.3736 99.8004H42.1316C41.1485 98.8201 40.2122 97.8399 39.4164 97.0463C38.3865 97.9799 37.3566 98.9135 36.3736 99.8004ZM31.7859 99.7537C30.8496 98.7734 29.9134 97.7465 29.024 96.7662C27.9941 97.7932 27.011 98.7268 25.9811 99.7537H31.7859ZM31.6923 91.118H25.8875C26.8705 92.145 27.8068 93.1252 28.6026 93.8721C29.6793 92.9385 30.6624 92.0049 31.6923 91.118ZM62.2611 90.978H56.5967C57.5798 91.9583 58.5629 92.8918 59.4523 93.7788C60.4354 92.8918 61.4184 92.0049 62.4015 91.118L62.2611 90.978ZM49.3407 96.9063C48.3576 97.8865 47.3746 98.8201 46.3447 99.7537H52.0091C51.0728 98.7734 50.1833 97.7932 49.3407 96.9063ZM52.1495 90.978H46.2511C47.281 92.0049 48.2172 92.9385 49.1066 93.7788C50.1365 92.7985 51.1196 91.9116 52.1495 90.978ZM39.0887 93.7788C40.0718 92.8918 41.1017 91.9583 42.1316 91.0247H36.3736C37.3566 92.0049 38.2929 92.9852 39.0887 93.7788ZM56.784 99.6137H62.4015C61.4652 98.6334 60.529 97.6531 59.78 96.8596C58.7501 97.7932 57.767 98.7268 56.784 99.6137ZM47.2341 95.5526C46.2042 94.5256 45.2212 93.5454 44.3318 92.6118C43.3019 93.592 42.2252 94.5723 41.2421 95.5059C42.272 96.5795 43.2083 97.5598 44.0509 98.4467C45.1744 97.4664 46.2511 96.4862 47.2341 95.5526ZM26.4493 95.5526C25.4194 94.5256 24.4363 93.5454 23.5468 92.6118C22.517 93.592 21.4403 94.5723 20.4572 95.5059C21.4871 96.5795 22.4233 97.5598 23.266 98.4467C24.3895 97.4664 25.4194 96.4862 26.4493 95.5526ZM77.1008 95.5526C76.0709 94.5256 75.0878 93.5454 74.1984 92.6118C73.1685 93.592 72.0918 94.5723 71.1087 95.5059C72.1386 96.5795 73.0748 97.5598 73.9175 98.4467C75.041 97.4664 76.1177 96.4862 77.1008 95.5526ZM67.2701 95.5526C66.2402 94.5256 65.2571 93.5454 64.3677 92.6118C63.3378 93.592 62.2611 94.5723 61.278 95.5059C62.3079 96.5795 63.2441 97.5598 64.0868 98.4467C65.2103 97.4664 66.287 96.4862 67.2701 95.5526ZM94.4215 98.3533C95.4514 97.3264 96.4813 96.3461 97.4643 95.4125C96.4813 94.3856 95.4982 93.4053 94.5151 92.425C93.4852 93.4053 92.4554 94.3856 91.4723 95.4125C92.549 96.4395 93.5321 97.4197 94.4215 98.3533ZM76.3986 99.8004H82.1566C81.1735 98.8201 80.2372 97.8399 79.4414 97.0463C78.3647 97.9799 77.3816 98.9135 76.3986 99.8004ZM71.8109 99.7537C70.8746 98.7734 69.9384 97.7465 69.049 96.7662C68.0191 97.7932 67.036 98.7268 66.0061 99.7537H71.8109ZM71.7173 91.118H65.9125C66.8955 92.145 67.8318 93.1252 68.6276 93.8721C69.6575 92.9385 70.6874 92.0049 71.7173 91.118ZM102.286 90.978H96.6217C97.6048 91.9583 98.5879 92.8918 99.4773 93.7788C100.46 92.8918 101.443 92.0049 102.427 91.118L102.286 90.978ZM89.3657 96.9063C88.3826 97.8865 87.3996 98.8201 86.3697 99.7537H92.0341C91.0978 98.7734 90.2083 97.7932 89.3657 96.9063ZM109.636 93.592C110.619 92.6584 111.602 91.7249 112.538 90.7913H106.967C107.904 91.7715 108.84 92.7518 109.636 93.592ZM106.921 99.567H112.632C111.695 98.5867 110.759 97.6065 109.87 96.7196C108.793 97.6998 107.857 98.6334 106.921 99.567ZM92.1745 90.978H86.2761C87.3059 92.0049 88.2422 92.9385 89.1316 93.7788C90.1615 92.7985 91.1446 91.9116 92.1745 90.978ZM79.1137 93.7788C80.0968 92.8918 81.1267 91.9583 82.1566 91.0247H76.3986C77.3816 92.0049 78.3179 92.9852 79.1137 93.7788ZM96.809 99.6137H102.427C101.49 98.6334 100.554 97.6531 99.805 96.8596C98.7751 97.7932 97.792 98.7268 96.809 99.6137ZM87.2591 95.5526C86.2292 94.5256 85.2462 93.5454 84.3567 92.6118C83.3269 93.592 82.2502 94.5723 81.2671 95.5059C82.297 96.5795 83.2333 97.5598 84.0759 98.4467C85.1994 97.4664 86.2761 96.4862 87.2591 95.5526ZM107.81 95.5526C106.78 94.5256 105.797 93.5454 104.908 92.6118C103.878 93.592 102.801 94.5723 101.818 95.5059C102.848 96.5795 103.784 97.5598 104.627 98.4467C105.75 97.4664 106.827 96.4862 107.81 95.5526ZM11.8436 112.917C11.9841 113.291 12.0777 113.524 12.0777 113.711C12.0777 114.038 11.8904 114.271 11.5628 114.364C11.3755 114.411 11.0946 114.458 10.7201 114.504V114.738H15.3078V114.504C14.9801 114.411 14.6992 114.318 14.4651 114.131C14.2311 113.944 14.0438 113.711 13.8566 113.337L13.5289 112.684C13.5289 112.637 13.4821 112.637 13.4821 112.591C13.4821 112.544 13.4821 112.544 13.4353 112.544C13.3885 112.544 13.4353 112.497 13.3885 112.497L9.9243 104.748H9.73704L6.5538 111.937C6.1793 112.731 5.85157 113.337 5.52388 113.711C5.19619 114.084 4.82169 114.364 4.35356 114.504V114.738H8.09859V114.504C7.72409 114.411 7.4432 114.318 7.20913 114.224C6.97507 114.084 6.83464 113.944 6.6942 113.758C6.60058 113.571 6.50694 113.384 6.50694 113.104C6.50694 112.824 6.60061 112.45 6.78786 111.984L7.20913 111.05H10.9074L11.8436 112.917ZM5.33662 114.364C5.57068 114.178 5.75797 113.991 5.89841 113.851C6.03885 113.664 6.1793 113.431 6.31974 113.151C6.31974 113.197 6.31974 113.244 6.31974 113.337C6.31974 113.524 6.36653 113.711 6.41334 113.851C6.46015 113.991 6.60057 114.178 6.74101 114.364H5.33662ZM7.4432 110.77L9.12851 106.849L10.8606 110.77H7.4432ZM9.73704 105.635L12.8267 112.591C13.0607 113.057 13.2012 113.431 13.3885 113.664C13.5289 113.944 13.7161 114.178 13.9502 114.364H12.0309C12.2649 114.131 12.4054 113.898 12.4054 113.664C12.4054 113.524 12.3118 113.291 12.1713 112.964L12.0777 112.824L9.31571 106.616L9.73704 105.635ZM18.7719 104.888V105.122C19.2401 105.215 19.6145 105.355 19.8486 105.635C19.989 105.775 20.0827 105.962 20.1295 106.149C20.1763 106.335 20.2231 106.662 20.2231 107.082V112.497C20.2231 113.197 20.1295 113.617 19.9423 113.851C19.7082 114.178 19.3337 114.364 18.8187 114.458V114.691H26.7769L27.6196 111.704H27.3855C27.0578 112.17 26.6833 112.544 26.3556 112.871C26.0279 113.197 25.7002 113.477 25.3725 113.711C25.0449 113.944 24.7172 114.084 24.4363 114.178C24.1554 114.271 23.8277 114.318 23.5 114.318H23.3596C22.751 114.318 22.3297 114.178 22.1424 113.898C22.0488 113.757 21.9552 113.571 21.9084 113.384C21.8616 113.197 21.8616 112.917 21.8616 112.544V107.082C21.8616 106.709 21.8616 106.429 21.9084 106.242C21.9552 106.055 22.0488 105.869 22.1424 105.729C22.3765 105.402 22.7979 105.215 23.4064 105.122V104.888H18.7719ZM20.0827 114.131C20.2699 113.991 20.3636 113.898 20.4104 113.851C20.4572 113.804 20.4572 113.664 20.4572 113.524C20.4572 113.431 20.4572 113.384 20.4572 113.291V113.151V106.429V106.289C20.4572 106.195 20.4572 106.149 20.4572 106.055C20.4572 105.915 20.4572 105.775 20.4104 105.729C20.3636 105.682 20.2699 105.589 20.0827 105.449L19.6614 105.169H22.002L21.5807 105.449C21.4403 105.542 21.3466 105.635 21.253 105.729C21.2062 105.822 21.1594 105.915 21.1594 106.055C21.1594 106.149 21.1594 106.195 21.1594 106.195C21.1594 106.242 21.1594 106.242 21.1594 106.289V106.429V113.151V113.291C21.1594 113.337 21.1594 113.337 21.1594 113.384C21.1594 113.431 21.1594 113.477 21.1594 113.524C21.1594 113.664 21.1594 113.758 21.2062 113.851C21.253 113.944 21.3467 114.038 21.5339 114.131L21.8148 114.318H19.7082L20.0827 114.131ZM24.9512 114.364C25.6066 114.038 26.1683 113.571 26.6365 113.011L26.262 114.364H24.9512ZM30.7092 104.888V105.122C31.1774 105.215 31.5518 105.355 31.7859 105.635C31.9263 105.775 32.02 105.962 32.0668 106.149C32.1136 106.335 32.1604 106.662 32.1604 107.082V112.497C32.1604 113.197 32.0668 113.617 31.8795 113.851C31.6455 114.178 31.271 114.364 30.756 114.458V114.691H39.2759L40.1186 111.75H39.8845L39.8377 111.844C39.2292 112.637 38.5738 113.291 37.9184 113.711C37.3098 114.131 36.7013 114.318 36.0459 114.318H35.3905C34.9692 114.318 34.6883 114.271 34.4543 114.178C34.2202 114.084 34.0798 113.898 33.9861 113.664C33.8925 113.431 33.8457 113.057 33.8457 112.591V109.463H34.8287C35.3437 109.463 35.7182 109.51 35.999 109.603C36.2799 109.696 36.514 109.883 36.6544 110.117C36.7949 110.35 36.9353 110.723 37.029 111.19H37.263V107.549H37.029C36.8885 108.156 36.6545 108.576 36.3268 108.763C35.9991 108.996 35.4841 109.09 34.7351 109.09H33.7989V106.662C33.7989 106.102 33.9393 105.682 34.1734 105.449C34.4543 105.215 34.8755 105.075 35.5309 105.075H35.9522C36.7481 105.075 37.3566 105.262 37.8716 105.682C38.3865 106.055 38.7142 106.662 38.9951 107.502H39.2291L38.9483 104.842H30.7092V104.888ZM32.0199 114.131C32.2072 113.991 32.3009 113.898 32.3477 113.851C32.3945 113.804 32.3945 113.664 32.3945 113.524C32.3945 113.431 32.3945 113.384 32.3945 113.291V113.151V106.429V106.289C32.3945 106.195 32.3945 106.149 32.3945 106.055C32.3945 105.915 32.3945 105.822 32.3477 105.729C32.3009 105.635 32.2072 105.542 32.0199 105.449L31.5987 105.169H33.9861L33.5648 105.449C33.4244 105.542 33.3308 105.635 33.2371 105.729C33.1903 105.822 33.1435 105.915 33.1435 106.055C33.1435 106.149 33.1435 106.195 33.1435 106.195C33.1435 106.242 33.1435 106.242 33.1435 106.289V106.429V113.151V113.291C33.1435 113.337 33.1435 113.337 33.1435 113.384C33.1435 113.431 33.1435 113.477 33.1435 113.524C33.1435 113.664 33.1435 113.758 33.1903 113.851C33.2371 113.944 33.3307 114.038 33.518 114.131L33.7989 114.318H31.6923L32.0199 114.131ZM36.7012 109.79C36.4672 109.556 36.1863 109.416 35.9054 109.323C36.1395 109.23 36.2799 109.183 36.3736 109.136C36.4672 109.09 36.5608 108.996 36.7012 108.903V109.79ZM38.5269 106.149C38.3397 105.869 38.1525 105.682 37.9652 105.542C37.8248 105.402 37.5907 105.309 37.3098 105.169H38.3397L38.5269 106.149ZM37.3566 114.364C37.5907 114.271 37.778 114.131 38.012 113.991C38.2461 113.851 38.4333 113.711 38.5738 113.571C38.761 113.431 38.9015 113.244 39.0887 113.057L38.6674 114.411H37.3566V114.364ZM55.7541 114.738V114.504C55.286 114.411 54.9114 114.271 54.6774 113.991C54.5369 113.851 54.4433 113.664 54.3965 113.477C54.3497 113.291 54.3029 112.964 54.3029 112.544V109.836H59.3587V112.544C59.3587 113.244 59.2651 113.664 59.0778 113.898C58.8437 114.224 58.4692 114.411 57.9543 114.504V114.738H62.4483V114.504C61.9802 114.411 61.6057 114.271 61.3716 113.991C61.2312 113.851 61.1376 113.664 61.0908 113.477C61.044 113.291 60.9971 112.964 60.9971 112.544V107.129C60.9971 106.756 60.9971 106.476 61.0439 106.242C61.0907 106.055 61.1376 105.869 61.2312 105.729C61.4652 105.402 61.8398 105.215 62.3547 105.122V104.888H57.8607V105.122C58.3288 105.215 58.7033 105.355 58.9373 105.635C59.0778 105.775 59.1715 105.962 59.2183 106.149C59.2651 106.335 59.3119 106.662 59.3119 107.082V109.463H54.2561V107.082C54.2561 106.709 54.2561 106.429 54.3029 106.195C54.3497 106.009 54.3965 105.822 54.4901 105.682C54.7242 105.355 55.0987 105.169 55.6136 105.075V104.842H51.1196V105.075C51.5877 105.169 51.9623 105.309 52.1963 105.589C52.3368 105.729 52.4304 105.915 52.4772 106.102C52.524 106.289 52.5708 106.616 52.5708 107.036V112.45C52.5708 113.151 52.4772 113.571 52.2899 113.804C52.0559 114.131 51.6814 114.318 51.1664 114.411V114.644H55.7541V114.738ZM52.524 114.131C52.7113 113.991 52.8049 113.898 52.8517 113.851C52.8985 113.804 52.8985 113.664 52.8985 113.524C52.8985 113.431 52.8985 113.384 52.8985 113.291V113.151V106.429V106.289C52.8985 106.195 52.8985 106.149 52.8985 106.055C52.8985 105.915 52.8985 105.822 52.8517 105.729C52.8049 105.635 52.7113 105.542 52.524 105.449L52.1027 105.169H54.4433L54.022 105.449C53.8816 105.589 53.7411 105.682 53.6943 105.729C53.6475 105.822 53.6475 105.915 53.6475 106.055C53.6475 106.149 53.6475 106.195 53.6475 106.195C53.6475 106.242 53.6475 106.242 53.6475 106.289V106.429V113.151V113.291C53.6475 113.337 53.6475 113.337 53.6475 113.384C53.6475 113.431 53.6475 113.477 53.6475 113.524C53.6475 113.664 53.6475 113.758 53.6943 113.851C53.7411 113.944 53.8347 114.038 54.022 114.131L54.3029 114.318H52.1963L52.524 114.131ZM59.2651 114.131C59.4523 113.991 59.5459 113.898 59.5927 113.851C59.6395 113.804 59.6395 113.664 59.6395 113.524C59.6395 113.431 59.6395 113.384 59.6395 113.291V113.151V106.429V106.289C59.6395 106.195 59.6395 106.149 59.6395 106.055C59.6395 105.915 59.6395 105.822 59.5927 105.729C59.5459 105.635 59.4523 105.542 59.2651 105.449L58.8437 105.169H61.1844L60.7631 105.449C60.5758 105.589 60.4822 105.682 60.4354 105.729C60.3886 105.822 60.3886 105.915 60.3886 106.055C60.3886 106.195 60.3886 106.289 60.3886 106.289V106.429V113.151V113.291C60.3886 113.291 60.3886 113.384 60.3886 113.524C60.3886 113.664 60.3886 113.758 60.4354 113.851C60.4822 113.944 60.5758 114.038 60.7631 114.131L61.0439 114.318H58.9373L59.2651 114.131ZM66.9892 112.404C67.4573 113.197 68.0659 113.804 68.8617 114.271C69.6575 114.738 70.547 114.971 71.4832 114.971C72.1854 114.971 72.8408 114.831 73.4493 114.551C74.0579 114.271 74.6197 113.898 75.0878 113.431C75.5559 112.964 75.9304 112.404 76.2113 111.797C76.4922 111.19 76.5858 110.537 76.5858 109.836C76.5858 108.903 76.3518 108.063 75.8836 107.269C75.4155 106.476 74.8069 105.869 74.0111 105.402C73.2153 104.935 72.3727 104.702 71.4364 104.702C70.7342 104.702 70.0788 104.842 69.4702 105.075C68.8617 105.355 68.2999 105.682 67.8318 106.195C67.3637 106.662 66.9892 107.222 66.7083 107.876C66.4274 108.529 66.287 109.183 66.287 109.883C66.287 110.77 66.5211 111.61 66.9892 112.404ZM67.8318 113.104C67.4105 112.637 67.1296 112.17 66.8955 111.61C66.6615 111.05 66.5679 110.443 66.5679 109.836C66.5679 109.23 66.6615 108.623 66.8955 108.063C67.1296 107.502 67.4105 106.989 67.8318 106.569C68.2531 106.102 68.7213 105.729 69.283 105.449C68.6277 105.962 68.1127 106.569 67.8318 107.269C67.5041 107.969 67.3637 108.809 67.3637 109.836C67.3637 110.49 67.4573 111.143 67.5977 111.704C67.7382 112.264 67.9722 112.777 68.2531 113.197C68.534 113.617 68.9085 113.991 69.3298 114.318C68.7213 113.944 68.2063 113.571 67.8318 113.104ZM68.3468 107.829C68.4872 107.222 68.7212 106.709 69.0021 106.289C69.283 105.869 69.6575 105.542 70.0788 105.309C70.5001 105.075 70.9683 104.982 71.4364 104.982C71.9514 104.982 72.4195 105.075 72.8408 105.309C73.2621 105.542 73.5898 105.869 73.8707 106.289C74.1515 106.709 74.3856 107.222 74.526 107.783C74.6665 108.389 74.7601 109.043 74.7601 109.79C74.7601 110.63 74.6665 111.377 74.4324 112.03C74.2452 112.684 73.9175 113.197 73.543 113.617C72.9344 114.271 72.2322 114.598 71.3896 114.598C70.8747 114.598 70.4065 114.504 70.032 114.271C69.6107 114.038 69.283 113.711 68.9553 113.291C68.6744 112.871 68.4404 112.357 68.2531 111.75C68.0659 111.143 68.0191 110.49 68.0191 109.79C68.1127 109.043 68.2063 108.389 68.3468 107.829ZM73.8239 113.758C73.9643 113.617 74.1048 113.431 74.1984 113.291C74.292 113.151 74.3856 112.964 74.4792 112.777C74.6665 112.404 74.8069 111.937 74.9006 111.424C74.9942 110.91 75.041 110.35 75.041 109.79C75.041 107.829 74.526 106.429 73.4493 105.495C73.9175 105.775 74.3388 106.102 74.7133 106.569C75.0878 106.989 75.3687 107.502 75.5559 108.063C75.7432 108.623 75.8368 109.23 75.8368 109.836C75.8368 111.797 74.9473 113.244 73.2153 114.271C73.4493 114.084 73.6366 113.898 73.8239 113.758ZM80.3777 104.888V105.122C80.8458 105.215 81.2203 105.355 81.4544 105.635C81.5948 105.775 81.6884 105.962 81.7352 106.149C81.7821 106.335 81.782 106.662 81.782 107.082V110.537C81.782 111.564 81.9225 112.404 82.2034 112.964C82.3906 113.384 82.6715 113.757 82.9992 114.038C83.3269 114.318 83.7482 114.551 84.1695 114.691C84.6376 114.831 85.1058 114.924 85.6675 114.924C86.1825 114.924 86.6506 114.878 87.0719 114.738C87.4932 114.598 87.9145 114.411 88.2422 114.131C88.5699 113.851 88.8508 113.524 89.0848 113.151C89.2253 112.871 89.3657 112.544 89.4594 112.17C89.553 111.797 89.553 111.33 89.553 110.77V107.269C89.553 106.849 89.5998 106.476 89.6934 106.195C89.7871 105.915 89.9275 105.682 90.1148 105.495C90.302 105.309 90.5829 105.215 90.9105 105.122V104.888H87.54V105.122C88.0082 105.215 88.3827 105.355 88.7104 105.682C89.0849 106.055 89.2721 106.616 89.2721 107.456V110.817C89.2721 111.61 89.1785 112.217 88.9912 112.684C88.7572 113.244 88.4294 113.711 87.9613 113.991C87.4932 114.318 86.9782 114.458 86.3229 114.458C85.9016 114.458 85.4802 114.364 85.1057 114.224C84.7312 114.084 84.4036 113.851 84.1227 113.571C83.6546 113.057 83.4205 112.31 83.4205 111.377V111.143V107.176C83.4205 106.802 83.4205 106.522 83.4673 106.335C83.5141 106.149 83.6077 105.962 83.7014 105.822C83.9354 105.495 84.3567 105.309 84.9185 105.215V104.982H80.3777V104.888ZM83.6546 105.169L83.2332 105.449C83.0928 105.542 82.9992 105.635 82.9056 105.729C82.8587 105.822 82.8119 105.915 82.8119 106.055V106.289V106.429V110.863C82.8119 111.47 82.8587 111.984 82.9524 112.357C83.046 112.731 83.1864 113.104 83.4205 113.384C83.8886 114.038 84.6376 114.458 85.6207 114.691C84.6376 114.691 83.8418 114.411 83.2332 113.898C82.6247 113.384 82.2502 112.637 82.1566 111.704C82.1098 111.237 82.0629 110.817 82.0629 110.443V106.429V106.289C82.0629 106.242 82.0629 106.195 82.0629 106.055C82.0629 105.915 82.0161 105.775 81.9693 105.729C81.9225 105.635 81.8289 105.542 81.6884 105.449L81.2671 105.169H83.6546V105.169ZM89.2721 105.962C89.1785 105.775 89.0849 105.635 88.9444 105.495C88.8508 105.402 88.6636 105.262 88.4763 105.169H89.7402C89.553 105.402 89.4125 105.682 89.2721 105.962ZM100.226 105.122C99.8518 105.122 99.5241 105.075 99.1964 104.982L98.7751 104.888C98.3538 104.795 97.9793 104.702 97.6516 104.702C97.1367 104.702 96.6217 104.795 96.2004 105.028C95.7791 105.262 95.4046 105.542 95.1705 105.962C94.9364 106.335 94.796 106.802 94.796 107.269C94.796 107.596 94.8428 107.876 94.9832 108.109C95.0769 108.389 95.2642 108.623 95.4982 108.856C95.7323 109.09 96.0131 109.276 96.3876 109.51C96.5749 109.603 97.0898 109.836 97.9325 110.21C98.541 110.443 98.9624 110.723 99.3369 110.957C99.6646 111.19 99.8986 111.424 100.086 111.704C100.226 111.984 100.32 112.264 100.32 112.591C100.32 112.964 100.226 113.291 100.039 113.571C99.8518 113.851 99.571 114.084 99.2433 114.271C98.9156 114.458 98.4943 114.504 98.0729 114.504C97.2303 114.504 96.4813 114.131 95.8727 113.384C95.4046 112.824 95.0769 112.17 94.8428 111.424H94.6088L94.8428 114.131L95.0301 114.224C95.6387 114.458 96.1068 114.598 96.4345 114.691C97.0431 114.831 97.6048 114.878 98.0261 114.878C98.6815 114.878 99.29 114.738 99.8518 114.504C100.414 114.224 100.835 113.898 101.163 113.431C101.49 112.964 101.631 112.45 101.631 111.89C101.631 111.003 101.303 110.303 100.648 109.79C100.507 109.65 100.32 109.556 100.18 109.463C100.039 109.37 99.805 109.276 99.5709 109.136C99.2901 108.996 99.0092 108.903 98.6347 108.716C98.0729 108.483 97.6984 108.296 97.4175 108.203C97.1835 108.063 96.9026 107.923 96.7154 107.783C96.294 107.456 96.06 107.036 96.06 106.569C96.06 106.102 96.2472 105.729 96.5749 105.449C96.9026 105.169 97.3239 105.028 97.8857 105.028C98.2602 105.028 98.6346 105.122 98.9623 105.262C99.29 105.402 99.6177 105.635 99.8518 105.915C99.9922 106.102 100.133 106.289 100.273 106.522C100.414 106.756 100.507 107.129 100.648 107.549H100.882L100.46 105.169H100.226V105.122ZM94.8428 112.871C95.0769 113.197 95.2641 113.477 95.4046 113.664C95.5918 113.851 95.8259 114.084 96.1536 114.364C95.6854 114.178 95.2641 114.038 94.9364 113.851L94.8428 112.871ZM100.32 113.431C100.414 113.197 100.507 112.917 100.507 112.637C100.507 111.984 100.273 111.47 99.7582 111.003C99.4305 110.723 98.8687 110.397 98.0261 110.023C97.3239 109.743 96.9494 109.556 96.9026 109.556C96.5281 109.37 96.2004 109.183 95.8727 108.95C95.3109 108.529 95.0301 107.969 95.0301 107.269C95.0301 106.522 95.3578 105.915 96.06 105.402C95.8727 105.635 95.7323 105.775 95.6854 105.915C95.5918 106.055 95.545 106.195 95.4982 106.335C95.4514 106.476 95.4514 106.616 95.4514 106.802C95.4514 107.409 95.6854 107.876 96.1536 108.249C96.3876 108.436 96.6217 108.576 96.8558 108.716C97.0898 108.809 97.558 109.043 98.307 109.37C99.1964 109.743 99.8518 110.07 100.18 110.397C100.414 110.63 100.601 110.863 100.741 111.143C100.882 111.424 100.929 111.75 100.929 112.077C100.929 112.871 100.554 113.571 99.7582 114.131C99.9923 113.898 100.179 113.664 100.32 113.431ZM105.188 104.888V105.122C105.657 105.215 106.031 105.355 106.265 105.635C106.406 105.775 106.499 105.962 106.546 106.149C106.593 106.335 106.64 106.662 106.64 107.082V112.497C106.64 113.197 106.546 113.617 106.359 113.851C106.125 114.178 105.75 114.364 105.235 114.458V114.691H113.755L114.598 111.75H114.364L114.317 111.844C113.708 112.637 113.053 113.291 112.398 113.711C111.789 114.131 111.181 114.318 110.525 114.318H109.87C109.448 114.318 109.168 114.271 108.934 114.178C108.699 114.084 108.559 113.898 108.465 113.664C108.372 113.431 108.325 113.057 108.325 112.591V109.463H109.308C109.823 109.463 110.197 109.51 110.478 109.603C110.759 109.696 110.993 109.883 111.134 110.117C111.274 110.35 111.415 110.723 111.508 111.19H111.742V107.549H111.508C111.368 108.156 111.134 108.576 110.806 108.763C110.478 108.996 109.963 109.09 109.214 109.09H108.278V106.662C108.278 106.102 108.419 105.682 108.653 105.449C108.934 105.215 109.355 105.075 110.01 105.075H110.431C111.227 105.075 111.883 105.262 112.351 105.682C112.866 106.055 113.193 106.662 113.474 107.502H113.708L113.428 104.842H105.188V104.888ZM106.499 114.131C106.687 113.991 106.78 113.898 106.827 113.851C106.874 113.804 106.874 113.664 106.874 113.524C106.874 113.431 106.874 113.384 106.874 113.291V113.151V106.429V106.289C106.874 106.195 106.874 106.149 106.874 106.055C106.874 105.915 106.874 105.822 106.827 105.729C106.78 105.635 106.687 105.542 106.499 105.449L106.078 105.169H108.419L107.997 105.449C107.857 105.542 107.763 105.635 107.67 105.729C107.623 105.822 107.576 105.915 107.576 106.055C107.576 106.149 107.576 106.195 107.576 106.195C107.576 106.242 107.576 106.242 107.576 106.289V106.429V113.151V113.291C107.576 113.337 107.576 113.337 107.576 113.384C107.576 113.431 107.576 113.477 107.576 113.524C107.576 113.664 107.576 113.758 107.623 113.851C107.67 113.944 107.763 114.038 107.95 114.131L108.231 114.318H106.125L106.499 114.131ZM111.227 109.79C110.993 109.556 110.712 109.416 110.431 109.323C110.666 109.23 110.806 109.183 110.9 109.136C110.993 109.09 111.087 108.996 111.227 108.903V109.79ZM113.006 106.149C112.819 105.869 112.632 105.682 112.444 105.542C112.304 105.402 112.07 105.309 111.789 105.169H112.819L113.006 106.149ZM111.883 114.364C112.117 114.271 112.304 114.131 112.538 113.991C112.772 113.851 112.959 113.711 113.1 113.571C113.287 113.431 113.428 113.244 113.615 113.057L113.193 114.411H111.883V114.364ZM110.244 58.8626L116.658 58.956V59.6095C99.7114 59.7028 82.8119 59.7962 65.8657 59.8896C65.8657 59.3294 65.8657 58.8159 65.8189 58.3491H67.6914C66.9892 57.649 66.3338 56.9488 65.7252 56.3419C65.6316 55.175 65.538 54.1947 65.3975 53.4011C66.0529 52.701 66.8019 52.0008 67.5509 51.2072C66.7551 50.4603 65.8657 49.6668 64.9294 48.8266C64.5549 49.2467 64.1336 49.6668 63.7123 50.0869C63.1505 49.7135 62.4951 49.5734 61.6993 49.5268C61.6993 49.5268 61.6993 49.5268 61.6525 49.5268C62.3079 48.8732 62.9632 48.2197 63.6186 47.5195C62.8228 46.726 61.9334 45.8858 61.0908 45.0922C60.3418 45.8858 59.5459 46.6793 58.6565 47.5662C59.3587 48.2664 60.0609 48.9199 60.7631 49.6201C60.0141 49.7602 59.4523 50.0402 58.9373 50.6471C58.282 50.0402 57.6266 49.4334 56.9244 48.8266C56.2222 49.5268 55.4264 50.367 54.6306 51.2539C55.4264 52.0008 56.3159 52.841 57.1585 53.6345C57.3926 53.4011 57.6734 53.1211 57.9075 52.8877C57.6266 53.8679 57.4393 55.1283 57.2989 56.6687C57.1116 56.482 56.9712 56.2953 56.8308 56.1552C55.9881 56.9488 55.1923 57.7423 54.3497 58.5359H57.1585C57.1117 59.0027 57.1116 59.5161 57.0648 60.0296C48.2172 60.0763 39.4164 60.123 30.5688 60.1696C30.5219 59.5628 30.4752 58.956 30.4284 58.3958H34.5479C33.752 57.6023 33.0031 56.8087 32.3477 56.1085C31.6923 56.7154 31.0369 57.3222 30.3815 57.929C30.2411 56.9954 30.1006 56.1552 29.8666 55.5017C30.0538 55.315 30.2879 55.1283 30.4752 54.8949C29.6325 54.0546 28.8367 53.2611 28.0409 52.4209C27.9472 52.5142 27.8536 52.6076 27.76 52.701C27.1046 52.3742 26.3556 52.2342 25.4193 52.1875C25.747 51.8607 26.0747 51.534 26.4024 51.2072C25.6066 50.4603 24.7172 49.6668 23.7809 48.8266C23.0787 49.5268 22.2829 50.367 21.4871 51.2539C22.002 51.7207 22.517 52.2342 23.0319 52.701C22.3765 53.0744 21.8148 53.6345 21.3935 54.4281C20.7849 53.7746 20.1763 53.1677 19.6145 52.6076C18.7719 53.4011 17.8825 54.2414 17.0867 54.9882C17.9293 55.8751 18.7251 56.7154 19.3805 57.4156C19.8018 56.9954 20.2699 56.622 20.6913 56.2019C20.4104 57.2755 20.1763 58.5825 20.0359 60.1696C13.3884 60.2163 6.69423 60.263 0.0468014 60.263C0.0468014 59.6095 0 58.956 0 58.3025H0.608533C0.421281 58.1158 0.234064 57.8824 0 57.6956C0 57.3689 0 56.9954 0 56.6687L0.0468014 55.1283C0.84262 55.9685 1.5448 56.7154 2.20018 57.4156C3.13644 56.5753 3.97906 55.7818 4.82169 55.0349C3.97906 54.1947 3.18325 53.3545 2.43425 52.6076C1.63843 53.3545 0.795807 54.1013 0.0468014 54.8482L0.0936029 51.9541C0.327667 51.7207 0.56172 51.4873 0.842597 51.2072C0.608533 51.0205 0.374469 50.7871 0.140404 50.5537L0.187206 48.4998C0.187206 48.2197 0.187206 47.9397 0.187206 47.7063C0.936211 48.4065 1.68523 49.1066 2.48105 49.8535C3.23005 49.1066 4.02586 48.3131 4.86849 47.4262C4.07267 46.6793 3.18324 45.8858 2.24698 45.0455C1.63842 45.6991 0.936211 46.3992 0.187206 47.1928C0.187206 46.2592 0.234053 45.3723 0.280866 44.5321C0.421304 44.392 0.514896 44.2987 0.655334 44.1586H0.327667C0.327667 43.8786 0.327656 43.6452 0.374469 43.3651C6.97508 43.3184 13.6225 43.2717 20.2231 43.225V44.0653H20.4104C20.5508 43.7852 20.7381 43.5051 20.9253 43.225C29.0239 43.1784 37.1226 43.1317 45.2212 43.085C46.4852 44.4387 47.515 46.1192 48.3108 48.2197C48.6385 47.9397 49.013 47.7529 49.3407 47.4729C49.8088 47.1461 50.0429 46.6793 50.0429 46.1192C49.9961 45.6991 50.2302 45.3723 50.5579 45.1389C51.0728 44.8121 51.6345 44.4854 52.1495 44.2053C52.524 44.0186 52.8517 43.8319 53.2262 43.6452C53.5071 43.5051 53.7412 43.3184 53.8816 43.085C58.9842 43.0383 64.1336 43.0383 69.2362 42.9917C69.283 43.085 69.3766 43.1317 69.4702 43.1784C69.8447 43.3651 70.2193 43.4584 70.547 43.6918C70.8746 43.8786 71.2023 44.1586 71.4832 44.4387C71.6237 44.5787 71.8109 44.6721 71.9513 44.8121C71.9513 44.8121 71.9981 44.8121 71.9981 44.8588C72.5599 45.419 73.1685 45.9791 73.7771 46.586C74.5261 45.8391 75.2751 45.0455 76.0709 44.2053H73.4493L74.1515 42.9917C78.9732 42.945 83.7482 42.945 88.5699 42.8983L87.1187 45.6991C86.8847 45.5123 86.6974 45.3256 86.4633 45.0922C85.7611 45.7924 84.9653 46.6326 84.1695 47.5195C84.5908 47.9397 85.0589 48.3598 85.5271 48.7799L84.4504 50.8805C83.7482 50.2269 83.046 49.5734 82.297 48.8732C81.5948 49.5734 80.7989 50.4137 80.0031 51.3006C80.7989 52.0474 81.6884 52.8877 82.531 53.6812C82.8587 53.3545 83.1865 52.981 83.561 52.6543L81.1267 57.4156C80.7521 57.789 80.3308 58.2091 79.9095 58.5825H84.7313L92.7831 58.7226V58.6292H93.2512C93.1108 58.4892 92.9703 58.3491 92.8299 58.1624L92.8767 55.4083C93.6257 56.1552 94.2811 56.9021 94.8896 57.5556C95.8259 56.7154 96.6685 55.9218 97.5112 55.175C96.6685 54.3347 95.8727 53.4945 95.1237 52.7476C94.3747 53.4478 93.6257 54.148 92.8767 54.8482L92.9235 51.9541C93.1108 51.7207 93.3448 51.534 93.5321 51.3472C93.3448 51.1605 93.1108 50.9738 92.9235 50.7871L92.9703 47.9397C93.6725 48.5932 94.3747 49.2467 95.1237 49.9469C95.8727 49.2 96.6685 48.4065 97.5112 47.5195C96.7153 46.7727 95.8259 45.9791 94.8896 45.1389C94.3279 45.7457 93.6725 46.3992 93.0171 47.1461L93.0639 44.2987C93.1576 44.2053 93.2044 44.1586 93.298 44.0653H93.0639V42.8983C98.8687 42.8516 104.674 42.8049 110.478 42.8049L110.431 45.5123C109.636 46.2125 108.887 46.9127 108.231 47.5662C108.98 48.3598 109.729 49.06 110.385 49.7602L110.338 53.0744C109.683 53.7279 108.98 54.4748 108.231 55.2216C108.887 55.8285 109.542 56.4353 110.291 57.0888L110.244 58.8626ZM46.0638 51.2539C46.8596 52.0008 47.7491 52.841 48.5917 53.6345C49.3407 52.8877 50.1365 52.0941 50.9792 51.2072C50.1833 50.4603 49.2939 49.6668 48.3576 48.8266C47.7023 49.5268 46.9064 50.367 46.0638 51.2539ZM44.1913 44.9989C43.4891 45.6991 42.6933 46.5393 41.8975 47.4262C42.6933 48.1731 43.5827 49.0133 44.4254 49.8068C45.1744 49.06 45.9702 48.2664 46.8129 47.3795C45.9702 46.6326 45.0807 45.8391 44.1913 44.9989ZM39.6505 48.8266C38.9483 49.5268 38.1524 50.367 37.3566 51.2539C38.1524 52.0008 39.0419 52.841 39.8845 53.6345C40.6335 52.8877 41.4293 52.0941 42.272 51.2072C41.4762 50.4603 40.5867 49.6668 39.6505 48.8266ZM37.6375 43.9252C38.4801 44.7655 39.276 45.559 40.1654 46.3992C40.9144 45.559 41.7102 44.7655 42.4592 43.9252H37.6375ZM36.0927 44.9989C35.3905 45.6991 34.5947 46.5393 33.7989 47.4262C34.5947 48.1731 35.4841 49.0133 36.3268 49.8068C37.0758 49.06 37.8716 48.2664 38.7142 47.3795C37.8716 46.6326 36.9821 45.8391 36.0927 44.9989ZM30.007 44.0653C30.8028 44.8121 31.6454 45.559 32.4881 46.3526C33.1435 45.6991 33.8925 44.9055 34.6883 44.0653H30.007ZM13.1544 43.9252C13.997 44.6721 14.7929 45.419 15.6823 46.2125C16.3377 45.559 17.0867 44.7655 17.9293 43.9252H13.1544ZM11.1414 44.9989C10.4392 45.6991 9.6434 46.5393 8.84758 47.4262C9.6434 48.1731 10.5329 49.0133 11.3755 49.8068C12.1245 49.06 12.9203 48.2664 13.7629 47.3795C12.9671 46.6326 12.0777 45.8391 11.1414 44.9989ZM7.11553 46.3992C7.86454 45.559 8.66037 44.7655 9.40937 43.9252H4.58763C5.43026 44.7655 6.22609 45.559 7.11553 46.3992ZM7.20913 53.6345C7.95814 52.8877 8.754 52.0941 9.59664 51.2072C8.80082 50.4603 7.91133 49.6668 6.97507 48.8266C6.27288 49.5268 5.4771 50.367 4.68129 51.2539C5.4771 52.0008 6.3665 52.7943 7.20913 53.6345ZM9.40937 58.4892C8.66037 57.6956 7.86454 56.8554 7.11553 56.0152C6.2729 56.8554 5.43026 57.649 4.58763 58.4892H9.40937ZM11.1414 57.4156C12.0777 56.5753 12.9203 55.7818 13.7629 55.0349C12.9203 54.1947 12.1245 53.3545 11.3755 52.6076C10.5329 53.4011 9.6434 54.2414 8.84758 54.9882C9.69022 55.8751 10.4392 56.7154 11.1414 57.4156ZM15.6823 56.2486C14.8397 57.0421 13.997 57.789 13.1544 58.5359H17.8825C17.0867 57.6956 16.3377 56.9021 15.6823 56.2486ZM18.3506 51.2072C17.5548 50.4603 16.6654 49.6668 15.7291 48.8266C15.0269 49.5268 14.2311 50.367 13.4353 51.2539C14.2311 52.0008 15.1205 52.841 15.9632 53.6345C16.6654 52.8877 17.508 52.0474 18.3506 51.2072ZM22.1424 47.3795C21.3466 46.6326 20.4572 45.8391 19.5209 44.9989C18.8187 45.6991 18.0229 46.5393 17.2271 47.4262C18.0229 48.1731 18.9124 49.0133 19.755 49.8068C20.504 49.06 21.2998 48.2664 22.1424 47.3795ZM26.0747 43.9719H21.3935C22.2361 44.7655 23.0319 45.559 23.8746 46.3526C24.5768 45.559 25.3257 44.7655 26.0747 43.9719ZM28.1813 49.9935C28.9771 49.2 29.7729 48.3598 30.6156 47.5195C29.8197 46.726 28.9303 45.8858 28.0877 45.0922C27.3387 45.8858 26.5429 46.6793 25.6534 47.5662C26.496 48.3598 27.3387 49.2 28.1813 49.9935ZM34.8287 51.2072C34.0329 50.4603 33.1435 49.6668 32.2072 48.8266C31.505 49.5268 30.7092 50.367 29.9134 51.2539C30.7092 52.0008 31.5986 52.841 32.4413 53.6345C33.1903 52.8877 33.9861 52.0474 34.8287 51.2072ZM36.0927 57.4156C37.029 56.5753 37.8716 55.7818 38.7142 55.0349C37.8716 54.1947 37.0758 53.3545 36.3268 52.6076C35.4841 53.4011 34.5947 54.2414 33.7989 54.9882C34.5947 55.8751 35.3905 56.7154 36.0927 57.4156ZM42.4124 58.4892C41.6634 57.6956 40.8676 56.8554 40.1186 56.0152C39.276 56.8554 38.4333 57.649 37.5907 58.4892H42.4124ZM44.1913 57.4156C45.1276 56.5753 45.9702 55.7818 46.8129 55.0349C45.9702 54.1947 45.1744 53.3545 44.4254 52.6076C43.5827 53.4011 42.6933 54.2414 41.8975 54.9882C42.6933 55.8751 43.4891 56.7154 44.1913 57.4156ZM50.9324 58.4892C50.1365 57.649 49.3408 56.8554 48.6854 56.2019C47.8427 56.9954 47.0001 57.7423 46.1575 58.4892H50.9324ZM52.8049 52.6076C51.9622 53.4011 51.0728 54.2414 50.277 54.9882C51.1196 55.8751 51.9154 56.7154 52.5708 57.4156C53.5071 56.5753 54.3497 55.7818 55.1923 55.0349C54.3497 54.148 53.5539 53.3545 52.8049 52.6076ZM55.1923 47.3795C54.3965 46.6326 53.5071 45.8391 52.5708 44.9989C51.8686 45.6991 51.0728 46.5393 50.277 47.4262C51.0728 48.1731 51.9622 49.0133 52.8049 49.8068C53.5539 49.06 54.3497 48.2664 55.1923 47.3795ZM59.1246 43.9719H54.4433C55.286 44.7655 56.0818 45.559 56.9244 46.3526C57.6266 45.559 58.3756 44.7655 59.1246 43.9719ZM79.9563 43.9252C80.799 44.7655 81.5948 45.559 82.4842 46.3992C83.2332 45.559 84.0291 44.7655 84.7781 43.9252H79.9563ZM75.4155 47.4262C76.2581 48.1731 77.1008 49.0133 77.9434 49.8068C78.6924 49.06 79.4882 48.2664 80.3309 47.3795C79.535 46.6326 78.6456 45.8391 77.7093 44.9989C77.0072 45.7457 76.2581 46.5393 75.4155 47.4262ZM73.5898 48.8266C72.8876 49.5268 72.0918 50.367 71.296 51.2539C72.0918 52.0008 72.9812 52.841 73.8239 53.6345C74.5729 52.8877 75.3687 52.0941 76.2113 51.2072C75.3687 50.4603 74.4792 49.6668 73.5898 48.8266ZM65.538 46.3059C66.1934 45.6524 66.9424 44.8588 67.7382 44.0186H63.1037C63.8527 44.8121 64.6954 45.559 65.538 46.3059ZM69.7512 49.8068C70.5002 49.06 71.296 48.2664 72.1386 47.3795C71.3428 46.6326 70.4534 45.8391 69.5171 44.9989C68.8149 45.6991 68.0191 46.5393 67.2233 47.4262C68.0659 48.2197 68.9085 49.0133 69.7512 49.8068ZM69.5171 57.4156C70.4534 56.5753 71.296 55.7818 72.1386 55.0349C71.296 54.1947 70.5002 53.3545 69.7512 52.6076C68.9085 53.4011 68.0191 54.2414 67.2233 54.9882C68.0659 55.8751 68.8617 56.7154 69.5171 57.4156ZM76.1177 58.3025C75.3219 57.5089 74.5729 56.7154 73.8239 55.9218C72.9812 56.762 72.1854 57.5089 71.3896 58.3025H76.1177ZM77.7093 57.4156C78.6456 56.5753 79.4882 55.7818 80.3309 55.0349C79.4882 54.1947 78.6924 53.3545 77.9434 52.6076C77.1008 53.4011 76.2113 54.2414 75.4155 54.9882C76.2581 55.8751 77.0072 56.7154 77.7093 57.4156ZM106.172 48.8266C105.469 49.5268 104.674 50.367 103.878 51.2539C104.674 52.0008 105.563 52.841 106.406 53.6345C107.155 52.8877 107.95 52.0941 108.793 51.2072C107.95 50.4603 107.061 49.6668 106.172 48.8266ZM104.299 43.9719C105.048 44.7655 105.797 45.6057 106.499 46.3526C107.342 45.559 108.138 44.7655 108.98 43.9719H104.299ZM102.661 44.9989C101.724 45.8391 100.882 46.6326 100.039 47.3795C100.882 48.2197 101.677 49.06 102.427 49.8068C103.269 49.0133 104.159 48.1731 104.954 47.4262C104.112 46.5393 103.316 45.7457 102.661 44.9989ZM99.2433 46.3059C99.9455 45.559 100.694 44.7655 101.443 43.9252H96.7622C97.6048 44.7655 98.4006 45.5123 99.2433 46.3059ZM99.0092 53.6345C99.7582 52.8877 100.554 52.0941 101.397 51.2072C100.601 50.4603 99.7114 49.6668 98.7751 48.8266C98.0729 49.5268 97.2771 50.367 96.4813 51.2539C97.2771 52.0008 98.1666 52.7943 99.0092 53.6345ZM101.443 58.4892C100.694 57.6956 99.9455 56.8554 99.2433 56.1085C98.4006 56.9021 97.6048 57.6956 96.7622 58.4892H101.443ZM102.661 57.4156C103.363 56.7154 104.159 55.8751 104.954 54.9882C104.112 54.2414 103.269 53.4011 102.427 52.6076C101.677 53.3545 100.882 54.148 100.039 55.0349C100.835 55.7818 101.724 56.5753 102.661 57.4156ZM108.98 58.4892C108.138 57.6956 107.342 56.9021 106.499 56.1085C105.797 56.8554 105.048 57.649 104.299 58.4892H108.98ZM21.2062 42.8983C29.1176 42.8516 37.0758 42.8049 44.9871 42.7583C41.9911 39.7241 37.8248 38.5104 32.9094 38.4638C27.9941 38.3704 23.4064 40.0975 21.2062 42.8983ZM65.8657 60.2163C65.8657 61.4767 65.8657 62.877 65.8657 64.4641C65.6784 76.3674 64.8358 79.1681 61.2312 79.1214C57.7202 79.0748 56.8776 76.2273 57.0648 64.3241C57.0648 62.8304 57.1117 61.4767 57.1585 60.263C48.3577 60.3097 39.51 60.3564 30.7092 60.403C30.756 61.5233 30.756 62.8304 30.756 64.2774C30.6156 73.7066 28.7899 76.2273 25.1853 76.1807C21.1594 76.134 19.8486 73.5199 19.9891 64.0907C19.9891 62.737 20.0827 61.5233 20.1763 60.4497C13.5289 60.4964 6.88149 60.5431 0.234064 60.5898C0.842631 81.3621 9.26892 87.9438 25.1385 88.1772C35.2969 88.3173 42.5997 85.2364 46.6256 77.6744C46.6724 77.8144 46.7192 77.9078 46.7192 78.0478C46.8596 78.9814 47.3746 79.6816 48.1704 80.055C48.779 80.3818 49.1535 80.8486 49.4812 81.4087C49.6684 81.7355 49.8556 82.0156 50.0429 82.2956C50.1365 82.389 50.2302 82.529 50.3238 82.5757C50.9324 82.9492 51.5409 83.3226 52.1495 83.696C52.3835 83.8361 52.6176 83.9761 52.8517 84.0228C53.5071 84.1628 54.1625 84.2562 54.8646 84.3029C56.5499 84.4896 58.1883 84.6296 59.8736 84.723C60.6694 84.7696 61.4653 84.9564 62.3079 84.723C63.0569 84.4896 63.8527 84.4896 64.6485 84.5362C64.9762 84.5362 65.3507 84.4896 65.6784 84.4429C66.2402 84.3962 66.8488 84.2095 67.4105 84.2562C68.2063 84.3495 68.9085 84.1161 69.6107 83.8361C70.032 83.6493 70.4534 83.556 70.9215 83.4626C71.2024 83.3693 71.53 83.3693 71.7173 83.2292C72.2322 82.7624 72.7472 82.2956 73.1217 81.6888C73.4494 81.1753 73.777 80.8486 74.3388 80.6152C75.0878 80.3351 75.4155 79.7283 75.6964 79.0281C75.9772 78.3746 76.2113 77.6744 76.6326 77.1142C77.0539 76.5541 77.288 75.9939 77.4284 75.3404C77.522 74.967 77.4752 74.5469 77.6625 74.2201C78.0838 73.5666 78.2243 72.9131 78.3179 72.2129L91.9404 72.4463L91.7063 86.1233L109.776 86.4034L110.01 72.7264L116.424 72.8197L116.611 59.8896L65.8657 60.2163ZM0.468129 42.9917C1.40439 23.8531 6.13244 13.1636 26.1683 13.4903C35.1096 13.6304 40.7271 15.7309 44.1913 18.9518C44.4722 18.7651 44.7999 18.625 45.1744 18.5317C46.2511 18.2516 47.3278 18.3917 48.4045 18.625C49.9493 18.9518 51.4473 19.512 52.8985 20.2121C52.9922 20.2588 53.0858 20.3055 53.2262 20.3055C51.5877 18.0649 49.3408 16.4311 47.281 14.6573C47.281 14.6106 47.281 14.5639 47.281 14.5173C47.7023 14.5173 48.1704 14.4239 48.5917 14.4706C49.9493 14.5639 51.26 14.9841 52.5708 15.4509C52.7112 15.4975 52.8517 15.5442 52.9453 15.5909C52.9453 15.5442 52.9921 15.5442 52.9921 15.4975C52.2899 14.0972 51.4005 12.7435 50.2302 11.6231C49.3875 10.7829 48.3108 10.4095 47.1405 10.3628C46.2511 10.3161 45.3616 10.4562 44.519 10.5028C44.8935 9.75598 45.5957 9.24251 46.5319 9.14915C47.7023 9.00911 48.779 9.33586 49.8088 9.75598C51.6345 10.5028 53.273 11.5765 54.8646 12.7435C54.9583 12.8368 55.0519 12.8835 55.2392 12.9302C55.1455 12.6968 55.0987 12.4167 54.9583 12.1833C53.9752 10.5962 53.039 9.00911 52.0091 7.42201C51.4473 6.5351 50.7919 5.69488 50.1834 4.76129C50.3706 4.76129 50.4643 4.71461 50.6047 4.76129C51.3537 4.85465 51.9622 5.13473 52.5708 5.50816C54.022 6.44175 55.1923 7.65541 56.3626 8.91575C56.7371 9.33586 57.1585 9.7093 57.533 10.1294C57.6734 10.2695 57.8139 10.3628 58.0479 10.4095C57.8139 8.21556 57.018 6.16167 56.3626 3.96774C57.5798 5.55484 58.6565 7.14194 60.0141 8.49564C60.0609 8.49564 60.1077 8.44896 60.1077 8.44896C60.1077 8.26224 60.1077 8.07552 60.0609 7.93548C59.8268 6.95522 59.5927 5.97495 59.3587 4.99469C59.3119 4.76129 59.2651 4.52789 59.2651 4.2945C59.2651 4.20114 59.3587 3.96774 59.4055 3.96774C59.4991 3.96774 59.6864 4.01442 59.78 4.10778C60.0141 4.43453 60.2481 4.71461 60.4354 5.08805C60.7631 5.6482 61.0907 6.20835 61.4652 6.7685C61.4184 5.04137 61.1376 3.31423 60.8567 1.5871C60.8567 1.5871 60.8099 1.16698 60.7631 0.933586C60.7162 0.606831 60.6695 0.280076 60.6227 0C61.1844 0.373435 61.5121 0.840228 61.6993 1.3537C61.7461 1.49374 61.793 1.77381 61.8398 1.86717C61.9334 2.14725 61.9802 2.42732 62.0738 2.7074C62.6824 2.42732 63.2441 2.14725 63.8527 1.82049C63.8995 1.86717 63.8995 1.86717 63.9464 1.91385C63.4782 2.33397 63.4782 2.84744 63.4314 3.40759C63.3846 4.38786 63.4314 5.4148 63.4314 6.39507C63.4782 6.39507 63.525 6.39507 63.525 6.39507L65.3039 3.22087C65.3508 3.22087 65.3507 3.22087 65.3975 3.26755L65.3039 8.72903C66.1934 7.56205 66.9892 6.48843 67.8318 5.4148C67.8786 5.4148 67.8786 5.46148 67.9254 5.46148C67.6446 6.30171 67.4573 7.14194 67.1296 7.93548C66.7551 8.96243 66.287 9.98937 65.8657 11.0163C65.7252 11.3431 65.6784 11.7165 65.5848 12.0899C65.6316 12.1366 65.6784 12.1366 65.7252 12.1833C65.8656 12.0433 66.0529 11.9499 66.1933 11.7632C66.8487 11.0163 67.4573 10.1761 68.2063 9.4759C69.9384 7.79545 71.9981 6.58178 74.1515 5.50816C72.794 7.04858 71.9513 8.91575 70.8278 10.5495C70.4533 11.063 70.032 11.5298 69.6575 12.0433C69.5171 12.2767 69.4235 12.5567 69.283 12.7901C69.3298 12.7901 69.3298 12.8368 69.3766 12.8368C70.2661 12.37 71.1555 11.8565 72.0918 11.4831C73.543 10.8763 74.9474 10.2228 76.4454 9.80266C77.7093 9.42922 78.8796 9.80266 79.7223 10.923C79.8159 11.0163 79.8627 11.1564 80.0031 11.3431C79.1605 10.8763 78.4115 10.9696 77.6625 11.203C75.7432 11.7165 74.0111 12.4634 72.6535 14.0038C72.1386 14.5639 71.7641 15.1708 71.5768 15.9643C73.6834 15.5909 75.6964 15.871 77.5689 16.8512C77.8498 16.9913 78.0838 17.2247 78.3647 17.4114C77.3816 17.5981 76.539 17.6915 75.6964 17.9249C74.3388 18.2516 72.9812 18.625 71.6705 19.0452C69.6575 19.7454 68.2063 21.1924 66.9424 22.8262C66.7551 23.0596 66.6147 23.293 66.5211 23.5731C66.9892 23.3863 67.5041 23.1996 67.9722 22.9195C69.798 21.986 71.6236 21.0524 73.4025 20.1188C74.6665 19.4653 75.9304 18.9051 77.3348 18.8118C78.8328 18.7184 80.3308 19.6053 80.9394 20.9123L80.8926 20.959C79.6755 20.0721 78.4115 20.1188 77.1008 20.7256C76.0241 21.2391 74.9005 21.7059 73.8707 22.3127C72.5131 23.1063 71.1555 24.4133 70.547 25.3935C73.1685 23.7131 76.0709 23.5264 78.8797 23.3863C77.9902 23.8531 77.054 24.3199 76.0709 24.7867C76.0709 24.8334 76.0709 24.8801 76.1177 24.8801C77.5689 24.7867 78.8329 25.2068 79.8159 26.4672C79.3946 26.5139 79.0669 26.5605 78.786 26.5605C78.0838 26.5605 77.4284 26.5139 76.7262 26.4672C76.024 26.4205 75.3687 26.5605 74.7133 26.7939C73.2153 27.4008 71.9514 28.3343 70.7342 29.3613C71.3896 29.1746 72.0918 28.9412 72.794 28.8478C74.6665 28.5677 76.539 28.6611 78.3647 29.2679C78.7392 29.3613 79.0669 29.548 79.3946 29.7347C79.5818 29.8281 79.7223 30.0148 79.9095 30.2482C79.1605 30.2949 78.5051 30.3416 77.8029 30.3882C74.7601 30.6683 72.045 31.7419 69.5639 33.5157C69.049 33.8425 68.5808 34.2626 68.2063 34.6827C67.785 35.1028 67.6445 35.7097 67.785 36.3165C68.3936 36.1765 69.0021 36.0364 69.6107 35.9431C72.045 35.523 74.3388 35.8497 76.3518 37.3901C76.539 37.5302 76.7262 37.6702 76.9135 37.8569L89.9275 14.2839L110.9 14.6106L110.478 42.3848L93.0639 42.4782L93.2044 34.2159H93.0171L88.7572 42.5249C83.9823 42.5715 79.1605 42.5715 74.3856 42.6182L76.2113 39.304C76.1645 39.304 76.0709 39.2573 76.024 39.2573C74.5728 38.8372 73.0749 38.4171 71.6237 38.137C70.781 37.9503 69.9384 38.1837 69.1426 38.6038C69.0021 38.6972 68.8617 38.7905 68.7212 39.0239C69.8448 38.9772 70.9682 38.8839 72.0449 39.304C73.1216 39.7241 74.0111 40.3309 74.8537 41.1245C72.3726 40.1909 70.032 40.3309 67.6446 41.638C67.9255 41.778 68.1595 41.8713 68.3468 41.9647C68.6745 42.1514 69.0021 42.3848 69.1894 42.7116C64.1804 42.7583 59.1246 42.7583 54.1157 42.8049C54.1625 42.7116 54.2093 42.5715 54.2093 42.4315C54.2561 41.918 54.5838 41.638 55.0987 41.4979C55.3328 41.4512 55.6136 41.3579 55.8477 41.2645C56.2222 41.1245 56.269 40.8911 55.9882 40.5643C55.4732 39.9108 55.3328 39.8175 54.5838 40.1442C52.7581 40.9378 50.9792 41.8247 49.1535 42.6649C49.0599 42.7116 49.0131 42.7583 48.9194 42.8049C48.8726 42.8049 48.8258 42.8049 48.779 42.8049C48.7322 42.7583 48.7322 42.7583 48.6854 42.7116C49.0599 42.2915 49.3875 41.778 49.8088 41.4046C51.026 40.3776 52.2899 39.3973 53.5539 38.4171C53.6475 38.3237 53.7411 38.277 53.9284 38.1837C53.4134 37.9036 52.8517 37.9036 52.3367 37.9036C50.511 37.8569 48.779 38.3237 47.0469 38.7905C46.3915 38.9772 45.7362 39.2106 44.9403 39.444C45.1276 39.1639 45.2212 38.9772 45.3616 38.7905C46.5319 37.2034 48.1704 36.1298 49.9493 35.2896C51.4473 34.5894 52.9921 34.0759 54.7242 33.6558C54.6306 33.6091 54.5369 33.6091 54.4901 33.5624C53.6007 32.9089 52.8049 32.1621 52.1027 31.2751C51.4473 30.4349 50.4642 30.1548 49.4812 29.9681C49.3407 29.9214 49.2003 29.9214 49.0598 29.8748C49.1535 30.8083 49.2003 31.7886 49.2003 32.7689L31.1306 32.4888C31.0837 30.0148 30.6624 28.241 29.773 27.074C28.9771 26.0471 27.7132 25.5803 25.9343 25.5803C23.1255 25.5336 20.5976 27.7742 20.5508 32.4421L20.3636 42.9917C13.6694 42.945 7.06874 42.9917 0.468129 42.9917ZM51.775 27.7275C50.6983 27.1674 49.5748 26.7472 48.4513 26.4672C48.5917 26.9806 48.6854 27.4941 48.779 28.0076C49.7152 27.9142 50.7451 27.8209 51.775 27.7275ZM45.0807 19.8854C46.3447 21.2858 47.2342 22.8262 47.8427 24.5066C49.2939 24.5066 50.7451 24.6 52.1963 24.6467C52.29 24.6467 52.4304 24.6467 52.6176 24.6467C51.5877 23.0596 50.277 21.7992 48.6854 20.8657C47.5151 20.1655 46.2979 19.8854 45.0807 19.8854ZM19.0996 120.946C19.0996 121.786 19.6146 122.346 20.9253 122.346C22.1893 122.346 22.517 121.74 22.517 121.226C22.517 120.573 22.0956 120.339 21.253 120.153L20.4104 120.013C19.6614 119.872 19.4741 119.639 19.4741 119.219C19.4741 118.752 19.8018 118.379 20.7849 118.379C21.8616 118.379 22.0956 118.939 22.1424 119.359H22.4233C22.3765 118.519 21.7679 118.145 20.7381 118.145C19.755 118.145 19.2401 118.565 19.2401 119.172C19.2401 119.779 19.5678 120.013 20.4572 120.199L21.2062 120.339C22.0488 120.526 22.2829 120.713 22.2829 121.18C22.2829 121.646 21.9084 122.066 20.9253 122.066C19.8486 122.066 19.3805 121.646 19.3805 120.899H19.0996V120.946ZM28.4154 120.759C28.2749 121.646 27.5728 122.16 26.6833 122.16C25.4662 122.16 24.8108 121.32 24.8108 120.293C24.8108 119.266 25.5598 118.425 26.6833 118.425C27.4323 118.425 28.1345 118.799 28.3218 119.546H28.6026C28.4154 118.659 27.6664 118.192 26.6833 118.192C25.2321 118.192 24.5299 119.312 24.5299 120.293C24.5299 121.6 25.4662 122.393 26.6833 122.393C27.9005 122.393 28.5558 121.553 28.6494 120.806H28.4154V120.759ZM30.8965 122.253H31.1774V120.246H34.267V122.253H34.5479V118.239H34.267V120.013H31.1774V118.239H30.8965V122.253ZM36.6544 120.246C36.6544 121.039 37.1694 122.346 38.761 122.346C40.3995 122.346 40.8676 121.039 40.8676 120.246C40.8676 119.452 40.3527 118.145 38.761 118.145C37.1694 118.192 36.6544 119.452 36.6544 120.246ZM36.9353 120.246C36.9353 119.266 37.5907 118.379 38.8078 118.379C40.0249 118.379 40.6803 119.266 40.6803 120.246C40.6803 121.226 40.0249 122.113 38.8078 122.113C37.5907 122.113 36.9353 121.226 36.9353 120.246ZM43.3487 122.253H43.6296V120.293H46.1107V120.059H43.6296V118.472H46.2979V118.239H43.3955V122.253H43.3487ZM48.3576 122.253H48.6385V118.239H48.3576V122.253ZM50.9792 122.253H54.1625V122.02H51.2132V120.293H54.022V120.059H51.2132V118.472H54.1157V118.239H50.9324V122.253H50.9792ZM56.269 122.253H59.1714V122.02H56.5499V118.239H56.269V122.253V122.253ZM61.1844 122.253H63.0101C64.274 122.253 64.8358 121.413 64.8358 120.246C64.8358 118.706 63.9932 118.239 63.0569 118.239H61.1844V122.253V122.253ZM61.4652 118.472H63.0101C63.9464 118.472 64.6017 118.986 64.6017 120.246C64.6017 121.46 63.9463 122.02 63.0569 122.02H61.4184V118.472H61.4652ZM67.2701 122.253H67.3637V122.346C67.3637 122.533 67.3169 122.72 67.1765 122.813V123C67.4573 122.86 67.5509 122.627 67.5509 122.253V121.693H67.2701V122.253ZM73.0281 122.253H73.3089V120.246H76.3986V122.253H76.6794V118.239H76.3986V120.013H73.3089V118.239H73.0281V122.253ZM78.5519 122.253H78.8328L79.4414 120.946H81.6416L82.2502 122.253H82.531L80.7053 118.239H80.4245L78.5519 122.253ZM80.5649 118.565L81.548 120.759H79.535L80.5649 118.565ZM85.1994 122.253H85.5271L86.8379 118.612L88.1486 122.253H88.4763L89.787 118.239H89.5062L88.3358 121.88L87.0719 118.239H86.7442L85.4803 121.88L84.3099 118.239H84.0291L85.1994 122.253ZM91.0978 122.253H91.3787L91.9873 120.946H94.1874L94.796 122.253H95.0769L93.2512 118.239H92.9703L91.0978 122.253ZM93.0639 118.565L94.047 120.759H92.0341L93.0639 118.565ZM97.043 122.253H97.3239V118.239H97.043V122.253ZM99.6645 122.253H99.9455V118.239H99.6645V122.253Z" fill="#54362C"/>
</svg>
