<svg width="92" height="91" viewBox="0 0 92 91" fill="none" xmlns="http://www.w3.org/2000/svg">
<circle cx="45.668" cy="45.5" r="45.5" fill="#F1C650"/>
<path d="M59.1969 57.6221C58.6379 58.4351 57.8756 59.1973 57.469 59.1973C57.3165 59.1973 57.2149 59.0449 57.2149 58.8416C57.2149 58.1302 58.5362 56.4534 58.4854 55.2847C58.4854 54.5225 57.9264 53.9636 57.1641 53.9636C56.3509 53.9636 55.5378 54.4717 54.9279 55.3863C55.5378 53.7095 56.1477 52.0327 56.8084 50.3558H55.0804C54.0132 53.4554 52.5902 57.4697 51.5738 60.5693H53.2509C53.7591 58.7908 55.0296 55.488 56.3001 55.488C56.5542 55.488 56.7067 55.6404 56.7067 55.8945C56.7067 56.6567 55.487 58.0286 55.487 59.299C55.487 60.112 55.9952 60.7217 56.9608 60.7217C58.3329 60.7217 59.6035 59.4006 60.1117 58.4859L59.1969 57.6221ZM53.1492 56.2502C52.3361 57.9778 51.3197 59.1973 50.659 59.1973C49.8458 59.1973 49.8459 58.2827 50.8623 55.4371H52.2345L52.6918 54.1668H51.3197C51.5738 53.5062 51.8787 52.7441 52.2345 51.9311H50.5574L49.6934 54.1668H48.9819L48.5245 55.4371H49.236C48.2196 58.3843 47.8638 60.7725 50.1 60.7725C51.6754 60.7725 53.2001 58.4351 53.8099 57.0632L53.1492 56.2502ZM49.236 56.2502C48.4229 57.9778 47.4065 59.1973 46.7458 59.1973C45.8818 59.1973 46.8474 56.9107 47.8638 54.1668H46.1868C44.9163 57.5713 43.6966 60.7725 46.2376 60.7725C47.813 60.7725 49.3377 58.4351 49.9475 57.0632L49.236 56.2502ZM47.4065 53.303C48.0672 53.303 48.7278 52.5408 48.7278 51.8294C48.7278 51.3213 48.372 50.9656 47.8638 50.9656C47.1523 50.9656 46.5425 51.677 46.5425 52.4392C46.5425 52.9473 46.8475 53.303 47.4065 53.303ZM45.7802 55.7928C45.3736 56.4534 44.7129 56.7075 44.0523 56.6058C44.2556 55.8436 44.3572 55.0307 44.3064 54.2177H42.5785C42.6802 56.8599 41.2063 59.1973 40.3424 59.1973C39.9358 59.1973 39.8342 58.9433 39.8342 58.5876C39.8342 57.7237 40.5965 55.6912 41.0539 54.2177H39.3768C38.7669 56.1485 37.903 59.1973 36.7849 59.1973C36.48 59.1973 36.3275 58.9433 36.3275 58.5876C36.3275 57.5205 37.0899 55.6912 37.8013 54.2685H36.0226C35.3111 55.6404 34.5996 57.6729 34.5996 58.8924C34.5996 60.0103 35.1587 60.8742 36.3275 60.8742C37.2423 60.8742 37.903 60.366 38.3604 59.6546C38.5128 60.3152 39.021 60.8742 39.9866 60.8742C41.4096 60.8742 42.7309 59.6038 43.4933 57.927C44.7638 58.1811 46.0343 57.4189 46.4409 56.7075L45.7802 55.7928Z" fill="#56382E"/>
<path d="M76.171 46.9517H81.2023V34.8582H76.171V46.9517ZM69.3102 46.9517H74.3415V34.8582H69.3102V46.9517ZM60.1624 42.1753L61.1788 38.4659L61.9412 42.1753H60.1624ZM62.9068 46.9517H68.3446L64.7871 34.8582H59.4001L55.6394 46.9517H58.8411L59.3493 45.1732H62.6018L62.9068 46.9517ZM41.0538 46.9517H45.3736L46.6949 41.9212L47.9146 46.9517H52.1835L56.0968 34.8582H52.4376L50.7098 40.7017L49.1343 34.8582H45.9834L44.5096 40.8541L42.7309 34.8582H37.4964L41.0538 46.9517ZM29.5683 42.1753L30.5847 38.4659L31.347 42.1753H29.5683ZM32.3634 46.9517H37.8013L34.2438 34.8582H28.8568L25.0961 46.9517H28.2977L28.8059 45.1732H32.0585L32.3634 46.9517ZM19.0992 46.9517H24.1304V34.8582H19.0992V38.4659H17.1171V34.8582H12.0859V46.9517H17.1171V41.6163H19.0992V46.9517Z" fill="#56382E"/>
<path d="M25.2476 30.3864L26.9248 28.7604L22.9099 24.6954L28.3986 27.2868L28.9576 26.7279L26.4674 21.1384L30.4822 25.2543L32.1085 23.6283L25.0444 16.4636L23.2148 18.2929L25.9083 24.0856L19.9623 21.4941L18.1836 23.2218L25.2476 30.3864Z" fill="#56382E"/>
<path d="M34.4981 18.7501L34.2948 15.9554L36.1243 18.0895L34.4981 18.7501ZM32.5161 23.4249L34.803 22.4595L34.6505 20.7318L37.4457 19.5631L38.5638 20.8334L40.8507 19.868L33.6341 11.9919L31.9062 12.7033L32.5161 23.4249Z" fill="#56382E"/>
<path d="M43.5961 17.3783L43.2403 12.1954H43.5452C45.1206 12.0938 45.7305 12.856 45.883 14.6344C45.9847 16.3113 45.5272 17.2259 43.9518 17.3783H43.5961ZM41.3599 19.9698L43.6977 19.8174C45.019 19.7157 46.0354 19.36 46.7977 18.6995C47.9158 17.734 48.3732 16.4129 48.2208 14.3804C48.0683 12.5003 47.4584 11.1791 46.1879 10.4169C45.019 9.65475 43.8501 9.70555 42.2747 9.80718L40.6484 9.90881L41.3599 19.9698Z" fill="#56382E"/>
<path d="M49.5918 19.6647L55.5887 20.9859L56.0969 18.7501L52.4378 17.9371L52.8443 16.1078L55.6903 16.7176L56.0969 14.8375L53.3017 14.2277L53.6575 12.6017L57.3166 13.4655L57.8248 11.1789L51.7771 9.85779L49.5918 19.6647Z" fill="#56382E"/>
<path d="M64.9449 14.5159L59.5312 22.9973L61.5877 24.3095L67.0013 15.8281L64.9449 14.5159Z" fill="#56382E"/>
<path d="M62.957 25.1017L64.5325 26.7786L68.6489 22.9168L66.7178 29.0652L68.0391 30.4879L75.3573 23.6282L73.7818 21.9513L69.6654 25.7623L71.6982 19.7156L70.2752 18.1912L62.957 25.1017Z" fill="#56382E"/>
<path d="M41.3594 26.4739H52.0318V27.9983H41.3594" fill="#54362C"/>
<path d="M69.9707 52.6427H80.6431V54.1671H69.9707" fill="#54362C"/>
<path d="M23.4693 54.167H12.7969V52.6426H23.4693" fill="#54362C"/>
<path d="M21.4891 63.4659L24.8433 62.0432L22.5564 64.7871L21.4891 63.4659ZM19.6087 68.2932L22.8105 72.2566L29.6205 62.5513L26.4695 58.5879L15.3906 62.9578L17.271 65.2952L18.8464 64.5838L20.7268 66.9721L19.6087 68.2932Z" fill="#56382E"/>
<path d="M26.6211 74.8991L33.6343 78.6085L35.2606 75.5597L32.4147 74.0353L36.1246 67.0231L31.9573 64.8381L26.6211 74.8991Z" fill="#56382E"/>
<path d="M42.8323 74.5942C42.9848 72.5617 43.5438 71.6979 44.5602 71.7995C45.6274 71.9011 46.034 72.8666 45.8307 74.8991C45.6783 76.9824 45.1192 77.7954 44.052 77.6938C43.0356 77.5414 42.6291 76.6268 42.8323 74.5942ZM43.7979 80.9967C47.6603 81.3016 50.2013 79.2182 50.5063 75.5597C50.8112 71.9012 48.6259 69.4621 44.7635 69.1572C40.9519 68.8523 38.4109 70.8849 38.106 74.5434C37.6994 78.202 39.9355 80.6918 43.7979 80.9967Z" fill="#56382E"/>
<path d="M62.1958 77.3379L66.4648 75.4069L61.7892 64.9902L57.4695 66.972L58.8925 70.0715L57.1646 70.8337L55.7924 67.7342L51.4727 69.665L56.1481 80.0309L60.4679 78.1L58.3843 73.5269L60.1122 72.7138L62.1958 77.3379Z" fill="#56382E"/>
<path d="M69.7154 66.2097L67.581 63.2625L70.7827 64.8886L69.7154 66.2097ZM74.8484 67.0227L78.05 63.0593L67.1236 58.4861L63.9219 62.4495L70.5794 72.3581L72.4597 70.0207L71.4433 68.5979L73.3745 66.2097L74.8484 67.0227Z" fill="#56382E"/>
</svg>
