<svg width="132" height="96" viewBox="0 0 132 96" fill="none" xmlns="http://www.w3.org/2000/svg">
<path d="M2.19218 87.7872H13.2877V86.8936H2.19218V80.5958H13.7571V79.7021H1.16797V95.5745H13.8851V94.7234H2.19218V87.7872Z" fill="#54362C"/>
<path d="M33.2173 79.7021H31.8943L26.0052 86.7234L20.2014 79.7021H18.7931L25.3224 87.5319L18.5371 95.5745H19.86L26.0052 88.2979L32.065 95.5745H33.4307L26.688 87.5319L33.2173 79.7021Z" fill="#54362C"/>
<path d="M47.345 79.7021H39.0234V95.617H40.0476V88.6383H47.1743C50.6737 88.6383 52.1673 86.8085 52.1673 84.1277C52.21 80.4681 49.5641 79.7021 47.345 79.7021ZM47.1743 87.7021H40.0903V80.5958H46.961C48.3266 80.5958 51.1858 80.5958 51.1858 84.1702C51.1858 86.9362 49.0947 87.7021 47.1743 87.7021Z" fill="#54362C"/>
<path d="M68.6811 87.8719V87.8294C70.9429 87.3187 71.9244 85.5315 71.9244 83.8719C71.9244 80.5528 69.62 79.6592 66.5474 79.6592H58.3965V95.5741H59.4206V88.34H66.5047C69.6627 88.34 70.5588 89.106 70.6015 91.8719C70.6868 94.2975 70.7722 95.3187 71.0282 95.5741H72.0525C71.7537 94.9783 71.6684 94.0421 71.6257 91.1485C71.6257 89.489 70.6015 88.1273 68.6811 87.8719ZM66.3767 87.4464H59.4206V80.5953H66.6327C68.8945 80.5953 70.9002 81.2762 70.9002 83.8294C70.9002 87.4464 67.3582 87.4464 66.3767 87.4464Z" fill="#54362C"/>
<path d="M79.6062 87.7872H90.7017V86.8936H79.6062V80.5958H91.1711V79.7021H78.582V95.5745H91.3418V94.7234H79.6062V87.7872Z" fill="#54362C"/>
<path d="M105.511 87.2767L102.225 86.6384C99.1951 86.0427 98.4696 85.1916 98.4696 83.4895C98.4696 81.6597 99.7499 80.2554 103.633 80.2554C107.815 80.2554 108.84 82.3831 109.01 84.2129H110.035C109.906 80.8086 107.389 79.3618 103.377 79.3618C99.4084 79.3618 97.36 81.1065 97.36 83.4895C97.36 85.915 98.683 86.9363 102.182 87.6597L105.17 88.298C108.541 88.9788 109.352 89.7873 109.352 91.5746C109.352 93.4469 107.901 95.1065 104.017 95.1065C99.7498 95.1065 97.9148 93.3618 97.9148 90.3831H96.8906C96.8906 93.7448 98.8963 96.0001 104.145 96.0001C109.138 96.0001 110.547 93.6597 110.547 91.4895C110.461 88.8937 108.712 87.8724 105.511 87.2767Z" fill="#54362C"/>
<path d="M124.882 87.2767L121.596 86.6384C118.566 86.0427 117.841 85.1916 117.841 83.4895C117.841 81.6597 119.121 80.2554 123.004 80.2554C127.187 80.2554 128.211 82.3831 128.381 84.2129H129.406C129.278 80.8086 126.76 79.3618 122.748 79.3618C118.78 79.3618 116.731 81.1065 116.731 83.4895C116.731 85.915 118.054 86.9363 121.553 87.6597L124.541 88.298C127.912 88.9788 128.723 89.7873 128.723 91.5746C128.723 93.4469 127.272 95.1065 123.389 95.1065C119.121 95.1065 117.286 93.3618 117.286 90.3831H116.262C116.262 93.7448 118.267 96.0001 123.516 96.0001C128.509 96.0001 129.918 93.6597 129.918 91.4895C129.832 88.8937 128.083 87.8724 124.882 87.2767Z" fill="#54362C"/>
<path d="M64.201 8.63777C62.7074 8.76543 61.4271 9.57394 61.2137 10.4676C61.0004 11.4037 62.1099 12.042 63.7742 11.9144C65.4385 11.7867 66.8041 10.9356 66.8468 10.042C66.8895 9.10586 65.6946 8.51011 64.201 8.63777Z" fill="#54362C"/>
<path d="M54.0444 44.595C54.3858 45.829 55.7087 47.0205 57.0743 47.3609C58.4826 47.7014 59.4641 47.0205 59.2081 45.7439C58.952 44.5099 57.4584 43.1482 55.9648 42.8078C54.5138 42.5099 53.703 43.3609 54.0444 44.595Z" fill="#54362C"/>
<path d="M71.1134 41.0216C71.1987 39.3194 69.5771 37.8301 67.486 37.8301C65.3523 37.8301 63.7306 39.3194 63.8587 41.0216C63.944 42.7237 65.5656 44.0428 67.486 44.0428C69.3637 44.0003 71.028 42.7237 71.1134 41.0216Z" fill="#54362C"/>
<path d="M66.7594 46.4257C66.7167 45.1917 65.1804 44.0002 63.3027 43.8725C61.425 43.7449 60.1874 44.7236 60.4008 45.9577C60.6142 47.1917 62.1078 48.2555 63.7295 48.3832C65.4365 48.5108 66.8021 47.6598 66.7594 46.4257Z" fill="#54362C"/>
<path d="M71.1129 48.3832C72.7772 48.2555 74.2282 47.1917 74.4415 45.9577C74.6549 44.7236 73.4173 43.7449 71.5396 43.8725C69.6619 44.0002 68.1257 45.1917 68.083 46.4257C68.0403 47.6598 69.4486 48.5108 71.1129 48.3832Z" fill="#54362C"/>
<path d="M63.3476 16.4254C61.4699 16.553 59.891 17.9573 59.6776 19.6169C59.4642 21.2764 60.8725 22.6807 62.9209 22.553C64.9693 22.4679 66.6763 20.8935 66.719 19.1488C66.719 17.4892 65.1826 16.2977 63.3476 16.4254Z" fill="#54362C"/>
<path d="M52.2099 33.4469C52.3379 35.2341 53.5754 36.8086 55.0691 37.0214C56.6054 37.2341 57.8429 35.8299 57.7576 33.8299C57.6722 31.8299 56.2213 30.1703 54.685 30.1703C53.1913 30.1278 52.1245 31.6171 52.2099 33.4469Z" fill="#54362C"/>
<path d="M75.4671 43.4465C77.1741 43.1912 78.6677 41.7869 78.8811 40.1273C79.1372 38.5103 77.9849 37.2337 76.1926 37.4039C74.4002 37.5741 72.6932 39.1912 72.5652 40.8933C72.4372 42.5954 73.7601 43.7018 75.4671 43.4465Z" fill="#54362C"/>
<path d="M67.4445 11.7871C65.7375 11.7871 64.2866 12.7233 64.2012 13.9999C64.0732 15.2339 65.5241 16.2977 67.4445 16.2977C69.3649 16.2977 70.8158 15.2339 70.6878 13.9999C70.6024 12.7233 69.1515 11.7871 67.4445 11.7871Z" fill="#54362C"/>
<path d="M56.0086 17.4466C54.5149 17.7445 53.192 19.1913 52.936 20.7657C52.6799 22.3402 53.5761 23.4891 55.1124 23.3189C56.6487 23.1062 58.185 21.4891 58.3984 19.8296C58.6118 18.1274 57.4595 17.1487 56.0086 17.4466Z" fill="#54362C"/>
<path d="M60.3164 12.3405C58.7801 12.5958 57.3291 13.7447 57.073 14.9788C56.7743 16.2128 57.7985 17.1064 59.5055 16.8511C61.2125 16.5958 62.7915 15.3192 62.9622 14.0852C63.0475 12.8086 61.8527 12.0852 60.3164 12.3405Z" fill="#54362C"/>
<path d="M85.2824 27.106C85.197 25.4465 84.1301 23.9571 82.8925 23.7443C81.6123 23.5316 80.6308 24.8082 80.7161 26.6805C80.8015 28.5528 81.9964 30.1273 83.2766 30.1273C84.5142 30.1273 85.3677 28.7656 85.2824 27.106Z" fill="#54362C"/>
<path d="M73.2036 6.4262C71.9233 6.25599 70.9418 6.68152 71.0698 7.36237C71.1979 8.04323 72.4781 8.80918 73.8437 8.97939C75.252 9.19216 76.1055 8.76663 75.8921 8.04322C75.6361 7.31982 74.4412 6.59642 73.2036 6.4262Z" fill="#54362C"/>
<path d="M78.9663 15.1912C79.2651 16.4252 80.6733 17.8295 81.9109 18.1699C83.1485 18.5104 83.8313 17.7018 83.4899 16.4678C83.1485 15.2338 81.9536 14.0423 80.716 13.6593C79.4784 13.3189 78.6249 13.9572 78.9663 15.1912Z" fill="#54362C"/>
<path d="M76.7919 9.53207C75.5117 9.2342 74.5728 9.70229 74.7862 10.6385C74.9995 11.5746 76.4505 12.6385 77.8161 12.9363C79.2244 13.2768 79.9925 12.681 79.6511 11.7448C79.3097 10.7661 78.0722 9.78739 76.7919 9.53207Z" fill="#54362C"/>
<path d="M79.8192 37.021C81.3555 36.8082 82.5931 35.2337 82.6784 33.4465C82.8064 31.6593 81.6969 30.1699 80.1606 30.1699C78.6243 30.1699 77.1734 31.8295 77.088 33.8295C77.0027 35.8295 78.2829 37.1912 79.8192 37.021Z" fill="#54362C"/>
<path d="M67.4439 6.04248C66.1209 6.04248 64.9687 6.59567 64.8834 7.27652C64.798 7.95737 65.9502 8.51056 67.4439 8.51056C68.9375 8.51056 70.0897 7.95737 70.0043 7.27652C69.919 6.59567 68.8094 6.04248 67.4439 6.04248Z" fill="#54362C"/>
<path d="M68.041 10.042C68.041 10.9356 69.4493 11.7867 71.1136 11.9144C72.7779 12.042 73.8875 11.3612 73.6741 10.4676C73.4607 9.53139 72.1378 8.72288 70.6868 8.63777C69.2359 8.51011 68.041 9.10586 68.041 10.042Z" fill="#54362C"/>
<path d="M68.2118 19.1912C68.2118 20.8934 69.9614 22.4678 72.0098 22.5955C74.0582 22.6806 75.4665 21.3189 75.2532 19.6593C75.0398 17.9997 73.4608 16.5955 71.5831 16.4678C69.7054 16.2976 68.1691 17.4891 68.2118 19.1912Z" fill="#54362C"/>
<path d="M86.7328 21.9577C86.4767 20.5534 85.4952 19.2343 84.4284 18.8939C83.3615 18.5534 82.6787 19.447 82.9347 20.979C83.1908 22.5109 84.343 24.0002 85.3672 24.213C86.3914 24.3832 86.9888 23.3619 86.7328 21.9577Z" fill="#54362C"/>
<path d="M81.911 10.9788C80.8441 10.6383 80.2039 11.0639 80.5453 12C80.8867 12.9787 82.1243 14.1277 83.1912 14.5107C84.2581 14.8936 84.7702 14.3404 84.4288 13.3617C84.0447 12.3405 82.9778 11.3192 81.911 10.9788Z" fill="#54362C"/>
<path d="M87.5444 18.0005C87.2457 16.8516 86.2642 15.6601 85.368 15.3197C84.4292 14.9367 83.9171 15.5324 84.2585 16.7665C84.5999 17.958 85.6667 19.3197 86.5629 19.6175C87.4591 19.9154 87.8858 19.1495 87.5444 18.0005Z" fill="#54362C"/>
<path d="M62.3631 40.8933C62.2351 39.1912 60.5281 37.5741 58.7357 37.4039C56.9434 37.2337 55.7912 38.5103 56.0472 40.1273C56.3033 41.7443 57.7969 43.1912 59.4612 43.4465C61.1682 43.7018 62.4911 42.5954 62.3631 40.8933Z" fill="#54362C"/>
<path d="M92.067 21.4042L92.3658 20.851C92.0671 19.9148 91.683 18.9787 91.2989 18.0425C91.0856 18.2552 91.0002 18.7233 91.1709 19.4467C91.2989 20.2127 91.683 20.9786 92.067 21.4042Z" fill="#54362C"/>
<path d="M53.5723 49.8295C54.0844 50.17 54.6391 50.5104 55.1512 50.8083C54.7671 50.3402 54.1697 49.8721 53.5723 49.5742C53.5723 49.6593 53.5723 49.7444 53.5723 49.8295Z" fill="#54362C"/>
<path d="M90.5717 23.1488C90.6143 23.4041 90.657 23.6594 90.7424 23.9147L91.8519 21.7871C91.6812 21.5743 91.4679 21.4041 91.2972 21.3615C90.6997 21.1488 90.3583 21.9147 90.5717 23.1488Z" fill="#54362C"/>
<path d="M88.1415 18.2124C88.4402 19.3614 89.251 20.5529 89.9338 20.8082C90.6166 21.0635 90.9154 20.3401 90.6594 19.2763C90.4033 18.2124 89.6352 17.106 88.9097 16.8082C88.2269 16.4677 87.8428 17.0635 88.1415 18.2124Z" fill="#54362C"/>
<path d="M74.6126 12.34C73.0763 12.0847 71.8814 12.8507 72.0094 14.0847C72.1801 15.3187 73.7591 16.6379 75.4661 16.8507C77.1731 17.106 78.1973 16.2124 77.8986 14.9783C77.5998 13.7443 76.1489 12.5528 74.6126 12.34Z" fill="#54362C"/>
<path d="M88.6534 15.1065C88.9522 16.0853 89.763 17.1491 90.4032 17.447C90.6165 17.5321 90.8299 17.5321 90.9579 17.447C90.3604 16.2129 89.635 15.0214 88.8668 13.915C88.5254 14.0001 88.4401 14.4257 88.6534 15.1065Z" fill="#54362C"/>
<path d="M84.8531 9.5322C84.8958 9.5322 84.9384 9.57476 84.9811 9.57476C84.2983 8.93646 83.5728 8.38327 82.8047 7.83008C83.1888 8.46838 84.085 9.23433 84.8531 9.5322Z" fill="#54362C"/>
<path d="M32.7912 54.5953C32.7912 44.4251 31.3402 41.6592 26.9874 41.6592C23.0613 41.6592 21.1836 44.4677 21.1836 54.5953C21.1836 64.7655 22.6345 67.5315 26.9874 67.5315C30.8708 67.5315 32.7912 64.723 32.7912 54.5953Z" fill="#54362C"/>
<path d="M131.198 0H126.248V47.4042H131.198V0Z" fill="#54362C"/>
<path d="M41.1995 20.2128H32.5365C32.4084 17.5319 31.9817 15.617 30.9575 14.4255C30.0613 13.3192 28.7384 12.8511 26.8181 12.8511C23.7881 12.8511 21.0996 15.3192 21.0996 20.3404V32.9362H21.313C23.1053 29.1489 28.5677 26.6809 34.6275 26.6809C36.5052 26.6809 38.2549 26.8511 39.8766 27.1489C40.0473 24.766 40.5167 22.4255 41.1995 20.2128Z" fill="#54362C"/>
<path d="M81.7381 9.61695C82.0795 10.4255 83.1464 11.4042 84.0852 11.7446C85.0241 12.1276 85.4508 11.7021 85.1521 10.851C84.8107 10.0425 83.8292 9.10631 82.8903 8.80844C81.9515 8.46802 81.3967 8.80844 81.7381 9.61695Z" fill="#54362C"/>
<path d="M57.1173 49.0634C56.8186 48.1273 55.4957 46.9783 54.2581 46.6379C53.9594 46.5528 53.7033 46.5103 53.4473 46.5103C53.4899 47.3188 53.5326 48.1273 53.5753 48.9783C54.0874 49.489 54.7702 49.9145 55.453 50.0847C56.6052 50.4251 57.4161 49.9996 57.1173 49.0634Z" fill="#54362C"/>
<path d="M58.7386 22.8941C56.9463 23.0643 55.4527 24.7239 55.3673 26.6388C55.282 28.5537 56.5622 30.1707 58.4399 30.1707C60.275 30.1707 61.9393 28.426 62.0246 26.3409C62.0673 24.2132 60.531 22.7239 58.7386 22.8941Z" fill="#54362C"/>
<path d="M71.3705 26.255C71.3278 24.1273 69.5782 22.4678 67.4444 22.4678C65.3107 22.4678 63.561 24.1273 63.5183 26.255C63.4757 28.3827 65.2253 30.1273 67.4444 30.1273C69.6635 30.1273 71.4132 28.3827 71.3705 26.255Z" fill="#54362C"/>
<path d="M71.9663 37.7019C74.0147 37.6168 75.6364 35.9147 75.7217 33.8721C75.8071 31.8296 74.2281 30.1274 72.137 30.1274C70.0459 30.1274 68.2536 31.9147 68.2109 34.0423C68.2536 36.2125 69.9606 37.787 71.9663 37.7019Z" fill="#54362C"/>
<path d="M76.192 22.8941C74.3996 22.7239 72.8634 24.2132 72.9487 26.2984C72.9914 28.3835 74.6557 30.1281 76.5334 30.1281C78.3684 30.1281 79.6913 28.5111 79.606 26.5962C79.4353 24.7239 77.9843 23.0643 76.192 22.8941Z" fill="#54362C"/>
<path d="M81.9945 20.7658C81.7385 19.1914 80.3729 17.7871 78.922 17.4467C77.4283 17.1488 76.3188 18.1275 76.5322 19.7871C76.7456 21.4467 78.2818 23.0637 79.8181 23.2765C81.3544 23.4892 82.2506 22.2977 81.9945 20.7658Z" fill="#54362C"/>
<path d="M54.2146 26.7235C54.3 24.8511 53.3185 23.5745 52.0382 23.7873C50.758 24.0001 49.7338 25.4894 49.6485 27.149C49.5631 28.8086 50.4166 30.1703 51.6542 30.1703C52.9344 30.1277 54.1293 28.5958 54.2146 26.7235Z" fill="#54362C"/>
<path d="M66.6313 34.0848C66.6313 31.9572 64.8389 30.1699 62.7052 30.1699C60.6141 30.1699 59.0351 31.872 59.1205 33.9146C59.2058 35.9572 60.8702 37.6167 62.8759 37.7444C64.9243 37.7869 66.6313 36.2125 66.6313 34.0848Z" fill="#54362C"/>
<path d="M49.2211 30.1274C48.6236 30.1274 48.1542 30.553 47.8555 31.1913C49.0077 32.3402 50.0319 33.7445 50.8427 35.4466C51.1841 34.9359 51.3548 34.2125 51.3121 33.3189C51.1841 31.5742 50.2026 30.1274 49.2211 30.1274Z" fill="#54362C"/>
<path d="M53.0199 18.1699C54.2574 17.8295 55.6657 16.4678 55.9645 15.1912C56.2632 13.9572 55.4524 13.3189 54.2148 13.6593C53.1906 13.9572 52.1664 14.8933 51.6543 15.8721C51.7823 16.5955 51.825 17.3189 51.9103 18.0848C52.2091 18.255 52.5931 18.2976 53.0199 18.1699Z" fill="#54362C"/>
<path d="M54.3863 11.9993C54.7277 11.0206 54.0876 10.5951 53.0207 10.978C52.2526 11.2334 51.4418 11.8717 50.9297 12.5951C51.1431 13.2334 51.3137 13.9142 51.4418 14.5951C51.5271 14.5951 51.6124 14.5525 51.7405 14.5099C52.8073 14.127 54.0449 12.9355 54.3863 11.9993Z" fill="#54362C"/>
<path d="M42.2656 27.7873C42.3936 27.8298 42.5217 27.8724 42.6497 27.9149C42.6924 27.1915 42.5644 26.5958 42.3937 26.2554C42.3083 26.766 42.2656 27.2766 42.2656 27.7873Z" fill="#54362C"/>
<path d="M56.4343 5.74463C55.154 6.38293 53.9592 7.10633 52.8496 7.91484C52.9776 8.21271 53.447 8.29782 54.1725 8.08505C55.1967 7.74463 56.3063 6.97867 56.5623 6.34037C56.6477 6.08505 56.605 5.87229 56.4343 5.74463Z" fill="#54362C"/>
<path d="M52.0373 8.80844C51.7385 8.89355 51.4825 9.06376 51.1838 9.23397C50.885 9.48929 50.5863 9.74461 50.2876 10.0425C50.2022 10.1276 50.1169 10.2552 50.0742 10.3404C50.2876 10.8084 50.5009 11.2765 50.6716 11.7872C50.7143 11.7872 50.7997 11.7446 50.8423 11.7446C51.7812 11.3616 52.8907 10.3829 53.1895 9.61695C53.5309 8.80844 52.9761 8.46802 52.0373 8.80844Z" fill="#54362C"/>
<path d="M56.5191 7.44697C55.4096 7.74485 54.3 8.59591 53.9586 9.36187C53.6172 10.1278 54.2574 10.5534 55.4523 10.2129C56.6471 9.8725 57.8847 8.97889 58.1407 8.25548C58.3968 7.48953 57.6287 7.1491 56.5191 7.44697Z" fill="#54362C"/>
<path d="M47.5142 24.6377C46.6607 24.8079 45.9353 26.0845 45.8499 27.5313C45.7646 28.9781 46.362 30.1696 47.2155 30.1696C48.069 30.1696 48.8371 28.8504 48.9651 27.1909C49.0078 25.5739 48.3677 24.4249 47.5142 24.6377Z" fill="#54362C"/>
<path d="M48.1959 21.9571C47.9398 23.3614 48.5372 24.3826 49.5614 24.2124C50.5856 23.9997 51.7379 22.5103 51.9939 20.9784C52.0793 20.5954 52.0793 20.2124 52.0366 19.9146C52.0366 19.9997 52.0366 20.1273 52.0366 20.2124H48.9213C48.5799 20.7231 48.2812 21.3614 48.1959 21.9571Z" fill="#54362C"/>
<path d="M67.9143 3.06396C67.0608 3.06396 66.2073 3.10652 65.3965 3.19162C65.3965 3.65971 66.3353 4.00013 67.4876 4.00013C68.6825 4.00013 69.6213 3.61716 69.5786 3.10652C69.0239 3.06397 68.4691 3.06396 67.9143 3.06396Z" fill="#54362C"/>
<path d="M67.9141 4.97871C67.9141 5.5319 69.0236 6.04253 70.3466 6.12764C71.6695 6.21275 72.6083 5.82977 72.4803 5.27658C72.3523 4.72339 71.2854 4.1702 70.0905 4.08509C68.8956 3.99998 67.9141 4.42551 67.9141 4.97871Z" fill="#54362C"/>
<path d="M47.0456 20.2129H46.6189C46.5762 20.2129 46.5762 20.2129 46.5335 20.2554C45.7654 20.5533 44.9972 21.7448 44.8265 22.9788C44.6132 24.2554 45.0399 25.1491 45.7654 25.0214C46.4908 24.8512 47.3017 23.532 47.5577 22.1703C47.7284 21.1065 47.515 20.3831 47.0456 20.2129Z" fill="#54362C"/>
<path d="M64.8409 4.08509C63.646 4.1702 62.5792 4.68083 62.4511 5.27658C62.3231 5.82977 63.2619 6.21275 64.5422 6.12764C65.8651 6.04253 66.9747 5.5319 66.9747 4.97871C67.0173 4.42551 66.0358 3.99998 64.8409 4.08509Z" fill="#54362C"/>
<path d="M62.2779 4.29764C63.3448 4.16998 64.3263 3.74445 64.497 3.27637C63.1741 3.44658 61.8938 3.74445 60.6562 4.08488C60.955 4.29764 61.5098 4.38275 62.2779 4.29764Z" fill="#54362C"/>
<path d="M59.7611 4.68086C58.6515 4.89363 57.5847 5.53193 57.3286 6.17023C57.0726 6.80852 57.798 7.1064 58.9929 6.89363C60.1878 6.63831 61.3401 6.00001 61.5107 5.40427C61.7241 4.80852 60.8706 4.4681 59.7611 4.68086Z" fill="#54362C"/>
<path d="M23.5306 0H0.1875V25.0213C1.76647 9.87234 7.22884 1.06383 23.5306 0Z" fill="#54362C"/>
<path d="M70.3887 3.19189C70.474 3.70253 71.4982 4.17062 72.6504 4.34083C73.5893 4.46849 74.2721 4.25572 74.4428 3.9153C73.1199 3.53232 71.7969 3.31955 70.3887 3.19189Z" fill="#54362C"/>
<path d="M48.8365 8.21276C53.8295 3.57447 60.5294 0.723403 67.9122 0.723403C79.6051 0.723403 89.6764 7.87234 93.8586 18.0851L103.46 0H30.4863C40.2589 0.638298 45.8493 3.78723 48.8365 8.21276Z" fill="#54362C"/>
<path d="M0.1875 56.6807V76.3402H9.96006C4.71105 72.7658 1.42507 66.553 0.1875 56.6807Z" fill="#54362C"/>
<path d="M131.198 62.3833H126.248V76.3407H131.198V62.3833Z" fill="#54362C"/>
<path d="M107.429 47.4469V21.1064H107.215L94.2422 47.4469H107.429Z" fill="#54362C"/>
<path d="M45.2933 27.5746C45.3786 26.1704 44.9093 25.1916 44.3118 25.3193C43.6717 25.4469 43.1169 26.5959 43.0742 27.8299C43.0742 27.915 43.0742 27.9576 43.0742 28.0427C43.757 28.298 44.4398 28.6384 45.0799 28.9789C45.1653 28.6384 45.2506 28.1278 45.2933 27.5746Z" fill="#54362C"/>
<path d="M42.9883 25.6594C43.5431 25.5318 44.1406 24.3828 44.354 23.1488C44.5247 21.9147 44.2259 21.1488 43.5858 21.3615C43.4578 21.4041 43.3297 21.4892 43.2017 21.6169C42.8603 22.8509 42.6043 24.1275 42.4336 25.4041C42.6043 25.5743 42.775 25.702 42.9883 25.6594Z" fill="#54362C"/>
<path d="M61.7243 6.42486C60.444 6.59507 59.2918 7.31847 59.0358 8.04188C58.7797 8.76528 59.6759 9.19081 61.0841 8.97805C62.4924 8.76528 63.7727 8.04188 63.858 7.36103C63.986 6.63762 63.0045 6.25464 61.7243 6.42486Z" fill="#54362C"/>
<path d="M106.788 62.383H78.5803V57.1064C75.6357 59.532 70.6428 65.8298 69.5332 76.3405H106.788V62.383Z" fill="#54362C"/>
<path d="M56.0498 56.2561C55.1963 55.7455 54.5988 54.8944 54.5134 53.9157C54.5134 53.6178 54.5135 53.405 54.5562 53.2774C54.2148 53.1072 53.8734 52.8944 53.532 52.6816C53.1906 64.5965 49.6912 72.171 43.418 76.3412H66.249C65.0115 64.2561 58.5676 57.7029 56.0498 56.2561Z" fill="#54362C"/>
<path d="M44.9944 20.8511C45.2505 20.766 45.5065 20.5532 45.7625 20.2554H44.1836C44.2689 20.7235 44.5677 21.0213 44.9944 20.8511Z" fill="#54362C"/>
<path d="M78.5816 47.9146C78.2402 48.2975 77.9415 48.6805 77.8135 49.0209C77.6001 49.7018 77.9415 50.0848 78.5816 50.1699V47.9146Z" fill="#54362C"/>
<path d="M70.3445 50.1703C70.4298 49.2767 69.1495 48.5107 67.4852 48.5107C65.7782 48.5107 64.498 49.2767 64.626 50.1703C64.7114 51.0639 65.9916 51.7873 67.4852 51.7873C68.9788 51.7873 70.2591 51.1065 70.3445 50.1703Z" fill="#54362C"/>
<path d="M74.4012 53.3616C75.7668 53.0212 77.047 52.5531 78.3273 51.9999C78.4126 51.8723 78.498 51.7872 78.5406 51.6595C78.5833 51.617 78.5833 51.5318 78.5833 51.4893V51.234C78.498 50.7659 77.8152 50.5531 76.791 50.8084C75.5107 51.1063 74.2305 51.9148 74.0171 52.6382C73.8891 52.9361 74.0598 53.234 74.4012 53.3616Z" fill="#54362C"/>
<path d="M66.9318 53.1066C66.9318 52.4257 65.6943 51.7874 64.2006 51.6598C62.707 51.5321 61.7255 52.0428 61.8962 52.7236C61.9815 53.1066 62.3229 53.447 62.835 53.7023C63.7312 53.8725 64.67 54.0002 65.6089 54.0853C66.4197 53.9577 66.9318 53.5747 66.9318 53.1066Z" fill="#54362C"/>
<path d="M73.8419 51.3194C75.2502 51.1066 76.5304 50.213 76.8292 49.2768C77.1279 48.3407 76.1891 47.7449 74.6101 47.9577C73.0738 48.213 71.6228 49.1492 71.4948 50.0853C71.3668 50.979 72.4336 51.5321 73.8419 51.3194Z" fill="#54362C"/>
<path d="M69.5769 54.1703C70.2171 54.1278 70.8145 54.0852 71.4546 54.0001C72.2655 53.7448 72.9056 53.2767 73.0336 52.7661C73.2043 52.0852 72.1801 51.5746 70.7291 51.7023C69.2355 51.8299 68.0407 52.4682 67.998 53.1491C67.9553 53.6597 68.6381 54.0427 69.5769 54.1703Z" fill="#54362C"/>
<path d="M58.139 9.53207C56.8588 9.82995 55.5785 10.7661 55.2798 11.7448C54.9384 12.7236 55.7066 13.2768 57.1148 12.9363C58.5231 12.5959 59.9314 11.5321 60.1447 10.6385C60.3581 9.70229 59.4192 9.2342 58.139 9.53207Z" fill="#54362C"/>
<path d="M63.431 50.0851C63.3029 49.1915 61.852 48.2128 60.3157 47.9575C58.7794 47.7021 57.8406 48.3404 58.0966 49.2766C58.3527 50.2128 59.6756 51.1064 61.0838 51.3192C62.4921 51.5319 63.559 50.9787 63.431 50.0851Z" fill="#54362C"/>
<path d="M53.0195 42.1274C54.2571 42.4678 55.1533 41.5316 54.8972 39.9146C54.6412 38.2976 53.3183 36.7231 52.038 36.5104C51.782 36.4678 51.5259 36.4678 51.3125 36.5529C51.9953 38.1699 52.5074 39.9997 52.8915 42.0848C52.9342 42.1274 52.9768 42.1274 53.0195 42.1274Z" fill="#54362C"/>
<path d="M60.7441 53.191C60.9148 53.0208 60.9574 52.8506 60.9147 52.5953C60.7014 51.8719 59.4211 51.0634 58.1409 50.7655C56.946 50.5102 56.2205 50.8081 56.3486 51.4464C57.7568 52.1698 59.2078 52.7655 60.7441 53.191Z" fill="#54362C"/>
<path d="M89.0375 27.064C88.8242 25.8299 88.1841 24.7661 87.4159 24.5959C86.5624 24.4257 85.9223 25.532 86.0076 27.1491C86.093 28.5959 86.7331 29.7874 87.4586 30.0427L89.0375 27.064Z" fill="#54362C"/>
<path d="M87.799 13.2766C88.0977 13.4042 88.3111 13.4042 88.4818 13.3617C87.671 12.2553 86.7748 11.234 85.7933 10.2979C85.6653 10.4681 85.6653 10.7659 85.7933 11.1064C86.092 11.9574 87.0308 12.9361 87.799 13.2766Z" fill="#54362C"/>
<path d="M85.1115 13.6167C85.4529 14.5954 86.4771 15.7443 87.2879 16.0848C88.0987 16.4252 88.4401 15.872 88.1414 14.8933C87.8427 13.9146 86.9038 12.8933 86.093 12.5529C85.1968 12.1699 84.7274 12.638 85.1115 13.6167Z" fill="#54362C"/>
<path d="M79.0517 5.61719C78.4969 5.61719 78.1555 5.91506 78.3689 6.38314C79.0944 7.53208 80.9721 8.89378 81.8683 7.95761C82.039 7.74485 82.0816 7.53208 81.9963 7.31931C81.0574 6.63846 80.0759 6.08527 79.0517 5.61719Z" fill="#54362C"/>
<path d="M76.7897 8.21263C77.0457 8.93603 78.2833 9.8722 79.4782 10.1701C80.6731 10.5105 81.2705 10.1275 80.9718 9.31901C80.6304 8.55305 79.5635 7.70199 78.4113 7.40411C77.3017 7.1488 76.5336 7.48922 76.7897 8.21263Z" fill="#54362C"/>
<path d="M77.5141 5.14906C77.8128 5.19161 78.0263 5.23417 78.2396 5.23417C77.3861 4.85119 76.4899 4.51076 75.5938 4.21289C76.0205 4.63842 76.7886 4.97885 77.5141 5.14906Z" fill="#54362C"/>
<path d="M83.9171 36.7236C83.6184 36.5534 83.277 36.4683 82.8502 36.5534C81.57 36.7662 80.2471 38.3406 79.991 39.9577C79.7777 41.1491 80.2471 41.9577 81.0152 42.1704L83.9171 36.7236Z" fill="#54362C"/>
<path d="M90.0613 22.9782C89.8479 21.7016 89.0798 20.5101 88.3116 20.2548C87.5435 19.9569 87.074 20.7655 87.3301 22.1697C87.5861 23.5314 88.397 24.8506 89.1225 25.0208C89.8906 25.191 90.2747 24.2548 90.0613 22.9782Z" fill="#54362C"/>
<path d="M84.3847 35.8296L86.9452 30.9785C86.6465 30.4679 86.2198 30.1274 85.7077 30.1274C84.6835 30.1274 83.7019 31.5742 83.6166 33.3189C83.5312 34.5104 83.8726 35.404 84.3847 35.8296Z" fill="#54362C"/>
<path d="M78.5818 46.766L80.5449 43.1065C80.2035 42.8086 79.6487 42.6809 78.9233 42.8511C77.4296 43.149 75.936 44.5107 75.68 45.7873C75.4239 47.0213 76.4481 47.7022 77.8564 47.4043C78.1124 47.3618 78.3685 47.2767 78.6245 47.149V46.766H78.5818Z" fill="#54362C"/>
<path d="M73.3743 5.3612C73.545 5.95694 74.6972 6.59524 75.8921 6.85056C77.087 7.10588 77.8125 6.76545 77.5564 6.12715C77.3004 5.48886 76.2335 4.85056 75.124 4.63779C74.0144 4.46758 73.2036 4.80801 73.3743 5.3612Z" fill="#54362C"/>
</svg>
