<svg width="132" height="112" viewBox="0 0 132 112" fill="none" xmlns="http://www.w3.org/2000/svg">
<path d="M106.213 82.9473H90.5164C90.4233 83.7832 90.2836 84.5728 89.8178 85.2694C89.5849 85.5945 89.6315 86.1054 89.5384 86.5234C89.3986 87.2665 89.1192 87.9167 88.6534 88.5669C88.1876 89.2171 87.9082 90.053 87.5822 90.7961C87.2561 91.6321 86.837 92.2823 86.0452 92.6539C85.4397 92.9325 85.0205 93.3041 84.6945 93.9078C84.2753 94.558 83.6698 95.1618 83.1109 95.6726C82.9246 95.8584 82.5054 95.8584 82.2259 95.9978C81.7136 96.1371 81.2013 96.2764 80.7355 96.4622C79.9437 96.7873 79.1519 97.0659 78.2204 97.0195C77.5683 96.9731 76.8697 97.1588 76.2176 97.2517C75.845 97.2982 75.4259 97.391 75.0532 97.391C74.1217 97.3446 73.2368 97.391 72.3518 97.6697C71.4203 97.9484 70.4888 97.7626 69.5573 97.7161C67.6477 97.6233 65.6915 97.4375 63.7819 97.2982C62.9901 97.2517 62.2449 97.1124 61.4997 96.9731C61.2202 96.9266 60.9408 96.7873 60.6613 96.6015C59.9161 96.1835 59.2175 95.7655 58.5188 95.3476C58.3791 95.2547 58.2859 95.1618 58.1928 95.0225C57.9599 94.6973 57.727 94.3722 57.5407 94.0007C57.1681 93.3505 56.7489 92.7932 56.0037 92.4681C55.0722 92.0501 54.4667 91.2606 54.2804 90.1924C54.2338 90.0531 54.2338 89.9137 54.1873 89.7744C52.4174 93.2112 50.042 95.8584 47.1543 97.809H106.352V82.9473H106.213Z" fill="#54362C"/>
<path d="M23.2129 38.1294V51.5979H23.4458C25.3554 47.5574 31.2239 44.9101 37.6514 44.9101C45.9419 44.9101 52.3694 47.6502 55.5831 55.8242C55.9557 55.4991 56.3749 55.2669 56.7475 54.9418C57.2599 54.5238 57.5393 54.0129 57.4927 53.3627C57.4462 52.8983 57.679 52.4803 58.0517 52.2481C58.6571 51.8301 59.2626 51.505 59.8681 51.1335C60.2873 50.9013 60.7065 50.7155 61.0791 50.4368C61.638 50.1117 62.0106 49.6937 62.1038 48.9971C62.1503 48.4398 62.5229 48.0682 63.0819 47.9289C63.3613 47.8825 63.6408 47.7896 63.9202 47.6502C64.3394 47.4645 64.386 47.2323 64.1065 46.8607C63.501 46.1176 63.3147 46.0247 62.4764 46.3963C60.3804 47.3716 58.3311 48.3933 56.2818 49.3686C56.142 49.4151 56.0489 49.508 55.9092 49.5544C55.8626 49.508 55.816 49.4615 55.7694 49.4151C56.1886 48.9042 56.5147 48.3004 57.027 47.8825C58.4243 46.6749 59.8681 45.5603 61.2654 44.3528C61.3585 44.2599 61.4983 44.167 61.6846 44.0741C61.0791 43.7955 60.427 43.749 59.8215 43.749C57.7256 43.749 55.7229 44.2599 53.7667 44.8637C53.0215 45.0959 52.2297 45.3745 51.3913 45.6532C51.5776 45.3281 51.7173 45.0959 51.8571 44.8637C53.2078 43.0059 55.0242 41.752 57.0736 40.7302C58.7503 39.8943 60.5668 39.2905 62.5229 38.7332C62.4298 38.6867 62.3366 38.6867 62.2435 38.6403C61.1722 37.9437 60.2407 37.0612 59.4489 36.0859C58.6571 35.1571 57.5859 34.832 56.4215 34.6462C56.2818 34.5998 56.0955 34.5998 55.9557 34.5533C56.0955 35.6679 56.142 36.7826 56.142 37.8972H35.4158C35.276 35.0177 34.8103 33.0207 33.739 31.7203C32.7609 30.5128 31.3637 30.0483 29.3143 30.0483C26.1006 30.1412 23.2129 32.742 23.2129 38.1294Z" fill="#54362C"/>
<path d="M59.1705 32.2312C57.9129 31.581 56.6088 31.163 55.3047 30.8379C55.4444 31.3952 55.5841 31.999 55.6773 32.6027C56.7951 32.4634 57.9595 32.3705 59.1705 32.2312Z" fill="#54362C"/>
<path d="M29.4554 88.4744C33.6472 88.4744 35.6499 85.502 35.6499 74.6808C35.6499 63.8596 34.1129 60.8872 29.4554 60.8872C25.2635 60.8872 23.2608 63.8596 23.2608 74.6808C23.2142 85.502 24.7978 88.4744 29.4554 88.4744Z" fill="#54362C"/>
<path d="M60.0085 28.6554C58.7975 26.8441 57.2605 25.4044 55.4441 24.3362C54.14 23.5931 52.7427 23.3145 51.2988 23.3145C52.7427 24.8935 53.8139 26.7048 54.5591 28.609C56.2359 28.609 57.866 28.6554 59.5428 28.6554C59.6825 28.6554 59.8222 28.6554 60.0085 28.6554Z" fill="#54362C"/>
<path d="M131.176 16.4409H126.984V67.0174H131.176V16.4409Z" fill="#54362C"/>
<path d="M50.2287 22.2927C50.5547 22.0605 50.9274 21.8748 51.3465 21.7819C52.5575 21.4568 53.8151 21.5961 55.026 21.8283C56.8425 22.1999 58.5192 22.8036 60.196 23.5467C60.2891 23.5931 60.4288 23.6396 60.5686 23.6396C58.6589 21.0852 56.0507 19.2739 53.6288 17.2304C53.6288 17.184 53.6288 17.1376 53.6288 17.0911C54.1411 17.0447 54.6534 16.9518 55.1658 16.9982C56.7493 17.0911 58.2863 17.5556 59.7768 18.0664C59.9165 18.1129 60.0562 18.1593 60.2425 18.2058C60.2891 18.1593 60.2891 18.1129 60.2891 18.1129C60.0097 17.5556 59.6836 16.9982 59.311 16.4409H33.2285C41.3327 16.9518 46.7355 19.1346 50.2287 22.2927Z" fill="#54362C"/>
<path d="M0.90625 76.8633V97.8555H11.3392C5.70357 94.0472 2.21037 87.4523 0.90625 76.8633Z" fill="#54362C"/>
<path d="M25.8243 16.4409H0.90625V43.1457C2.53641 26.9835 8.35839 17.5556 25.8243 16.4409Z" fill="#54362C"/>
<path d="M77.5703 47.8364C77.8963 47.9757 78.1758 48.0686 78.4087 48.208C78.921 48.4402 79.3868 48.7653 79.5265 49.369C79.5731 49.4619 79.7128 49.5548 79.806 49.6012C80.2251 49.787 80.6443 49.9263 81.0635 50.1586C81.4361 50.3908 81.8087 50.7159 82.1813 50.9945C82.3676 51.1339 82.5539 51.2732 82.7402 51.4125C83.0197 51.5983 83.3457 51.7841 83.6252 51.9698C83.6718 52.0163 83.7183 52.0163 83.7649 52.0627L87.4444 45.1427C87.3513 45.1427 87.3047 45.0963 87.2115 45.0963C85.5348 44.6318 83.8115 44.2139 82.0882 43.8888C81.1101 43.703 80.132 43.9816 79.247 44.4461C79.0607 44.539 78.921 44.6783 78.7813 44.9105C80.0854 44.8176 81.3895 44.6783 82.6005 45.1892C83.8115 45.6536 84.8827 46.3038 85.8608 47.2327C83.0197 46.118 80.2717 46.3038 77.5703 47.8364Z" fill="#54362C"/>
<path d="M131.176 82.9473H126.984V97.8555H131.176V82.9473Z" fill="#54362C"/>
<path d="M92.8457 67.017H106.912V38.9189H106.679L92.8457 67.017Z" fill="#54362C"/>
<path d="M81.8073 18.2521C84.2292 17.7877 86.558 18.0663 88.7005 19.1809C89.0265 19.3203 89.2594 19.5989 89.632 19.8311C88.5142 20.0634 87.5361 20.2027 86.558 20.4813C85.021 20.8993 83.4374 21.3173 81.947 21.8282C79.6182 22.6642 77.988 24.3361 76.5908 26.2403C76.4045 26.4725 76.2182 26.7512 76.125 27.1227C76.6839 26.8905 77.2428 26.6583 77.7552 26.3796C79.8511 25.265 81.9004 24.1503 83.9497 23.0357C85.347 22.2462 86.7909 21.596 88.4676 21.4567C90.1909 21.3638 91.9142 22.2926 92.6129 23.8252L92.5663 23.8717C91.1224 22.8499 89.6786 22.9428 88.1882 23.6859C86.9306 24.2897 85.6731 24.8934 84.5087 25.5901C82.9717 26.5189 81.3881 28.0516 80.736 29.1662C83.7169 27.2156 87.0703 26.8905 90.3306 26.7047C89.306 27.2156 88.2347 27.8193 87.1635 28.3767C87.1635 28.4231 87.1635 28.4695 87.2101 28.516C88.8868 28.3767 90.3306 28.8411 91.495 30.2808C91.0293 30.3273 90.6567 30.4202 90.2841 30.4202C89.4923 30.4202 88.7005 30.4202 87.9087 30.3737C87.1169 30.3273 86.3251 30.513 85.5799 30.7917C83.8566 31.5348 82.4127 32.6494 81.062 33.8569C81.8073 33.6247 82.599 33.3461 83.4374 33.2067C85.5799 32.8352 87.769 32.9745 89.8649 33.5783C90.2841 33.7176 90.6567 33.9034 91.0759 34.1356C91.3087 34.2749 91.4485 34.4607 91.6813 34.6929C90.7964 34.7858 90.0512 34.8322 89.2594 34.9251C85.7662 35.2967 82.6456 36.5971 79.8511 38.6406C79.2922 39.0586 78.7332 39.523 78.2675 40.0339C77.8017 40.5447 77.662 41.1949 77.8483 41.938C78.5469 41.7987 79.2456 41.6129 79.9442 41.4736C82.7388 40.9627 85.3936 41.2878 87.769 43.0062C88.0019 43.1455 88.1882 43.3313 88.3745 43.5171L102.72 16.5337H82.6922C82.273 16.9517 81.947 17.5554 81.8073 18.2521Z" fill="#54362C"/>
<path d="M1.92969 0.278809H8.12428C10.4531 0.278809 12.223 0.929011 12.223 3.48338C12.223 4.73734 11.4777 6.08419 9.75444 6.50217V6.54862C11.2449 6.73439 12.0367 7.75614 12.0367 9.05654C12.0832 11.2394 12.1298 11.9824 12.3627 12.4004H11.5709C11.3846 12.2147 11.2914 11.4251 11.2449 9.56741C11.1983 7.47748 10.4996 6.87372 8.12428 6.87372H2.72148V12.4004H1.92969V0.278809ZM2.72148 6.22351H8.03113C8.77634 6.22351 11.4777 6.22351 11.4777 3.43693C11.4777 1.48633 9.94074 0.975454 8.21743 0.975454H2.72148V6.22351Z" fill="#54362C"/>
<path d="M15.6211 0.278809H25.2157V0.975454H16.4129V5.80553H24.8431V6.45573H16.4129V11.7038H25.3089V12.4004H15.6211V0.278809Z" fill="#54362C"/>
<path d="M28.5711 8.40619C28.5711 10.6819 29.9684 11.9823 33.2287 11.9823C36.2095 11.9823 37.2808 10.7283 37.2808 9.2886C37.2808 7.94176 36.6287 7.338 34.067 6.78068L31.7848 6.31625C29.13 5.75893 28.1053 4.9694 28.1053 3.15813C28.1053 1.34685 29.6889 0 32.7163 0C35.7903 0 37.7 1.11463 37.7931 3.71544H37.0013C36.9082 2.32215 36.1164 0.696645 32.9026 0.696645C29.9218 0.696645 28.9903 1.76484 28.9903 3.15813C28.9903 4.45853 29.5492 5.10873 31.878 5.52672L34.3931 6.03759C36.815 6.50202 38.1657 7.29155 38.1657 9.24216C38.1657 10.8677 37.0945 12.6789 33.2753 12.6789C29.3163 12.6789 27.7793 10.9606 27.7793 8.40619H28.5711Z" fill="#54362C"/>
<path d="M40.0762 0.278809H50.6955V0.975454H45.7584V12.4004H45.0132V0.975454H40.0762V0.278809Z" fill="#54362C"/>
<path d="M56.3316 0.278809H57.2165L62.8056 12.4004H61.9207L60.1508 8.49922H53.4439L51.674 12.4004H50.7891L56.3316 0.278809ZM53.7233 7.80258H59.8248L56.7974 1.16123L53.7233 7.80258Z" fill="#54362C"/>
<path d="M65.2266 0.278809H66.0184V7.89546C66.0184 10.4963 67.2293 11.9825 70.6294 11.9825C73.9828 11.9825 75.2404 10.4963 75.2404 7.89546V0.278809H76.0322V7.89546C76.0322 11.0071 74.2157 12.6327 70.6759 12.6327C67.0896 12.6327 65.3197 11.0071 65.3197 7.89546V0.278809H65.2266Z" fill="#54362C"/>
<path d="M79.6191 0.278809H85.8137C88.1425 0.278809 89.9124 0.929011 89.9124 3.48338C89.9124 4.73734 89.1672 6.08419 87.4439 6.50217V6.54862C88.9343 6.73439 89.7261 7.75614 89.7261 9.05654C89.7727 11.2394 89.8193 11.9824 90.0521 12.4004H89.2603C89.0275 12.2147 88.9809 11.4251 88.9343 9.56741C88.8877 7.47748 88.1891 6.87372 85.8137 6.87372H80.4109V12.4004H79.6191V0.278809V0.278809ZM80.3644 6.22351H85.674C86.4192 6.22351 89.1206 6.22351 89.1206 3.43693C89.1206 1.48633 87.5836 0.975454 85.8603 0.975454H80.3644V6.22351Z" fill="#54362C"/>
<path d="M97.6441 0.278809H98.529L104.118 12.4004H103.233L101.463 8.49922H94.7564L92.9865 12.4004H92.1016L97.6441 0.278809ZM95.0358 7.80258H101.137L98.1098 1.16123L95.0358 7.80258Z" fill="#54362C"/>
<path d="M106.633 0.278809H107.611L116.693 11.3322H116.74V0.278809H117.485V12.4004H116.507L107.471 1.39344H107.425V12.4004H106.633V0.278809Z" fill="#54362C"/>
<path d="M119.951 0.278809H130.524V0.975454H125.633V12.4004H124.842V0.975454H119.951V0.278809Z" fill="#54362C"/>
<path d="M0.0664062 102.268H4.07193C5.14318 102.268 6.40073 102.639 6.40073 104.404C6.40073 105.704 5.65551 106.587 3.97878 106.587H0.578741V109.977H0.0664062V102.268ZM0.578741 106.122H4.02536C4.95687 106.122 5.93497 105.751 5.93497 104.404C5.93497 102.686 4.53769 102.686 3.88563 102.686H0.578741V106.122Z" fill="#54362C"/>
<path d="M9.42773 102.268H15.5292V102.686H9.94007V105.751H15.2963V106.169H9.94007V109.513H15.5758V109.931H9.42773V102.268Z" fill="#54362C"/>
<path d="M21.3506 102.268H21.9095L25.4493 109.931H24.8904L23.7726 107.469H19.5342L18.4163 109.931H17.8574L21.3506 102.268ZM19.7205 107.051H23.5863L21.6766 102.825L19.7205 107.051Z" fill="#54362C"/>
<path d="M28.152 102.268H32.111C33.6014 102.268 34.7192 102.686 34.7192 104.311C34.7192 105.101 34.2535 105.983 33.1357 106.215C34.0672 106.355 34.5795 106.958 34.5795 107.794C34.5795 109.188 34.6261 109.652 34.8124 109.931H34.3001C34.1603 109.791 34.1138 109.327 34.0672 108.166C34.0206 106.819 33.6014 106.447 32.0644 106.447H28.6178V109.931H28.1055V102.268H28.152ZM28.6644 106.029H32.0178C32.4836 106.029 34.2069 106.029 34.2069 104.265C34.2069 103.011 33.2288 102.686 32.1576 102.686H28.6644V106.029V106.029Z" fill="#54362C"/>
<path d="M37.8867 102.268H38.3991V109.513H43.4758V109.931H37.8867V102.268Z" fill="#54362C"/>
<path d="M50.834 102.268H51.2997V105.704H57.2149V102.268H57.7272V109.931H57.2149V106.122H51.2997V109.931H50.834V102.268Z" fill="#54362C"/>
<path d="M63.9229 102.268H64.4818L68.0216 109.931H67.4626L66.3448 107.469H62.1064L60.9886 109.931H60.4297L63.9229 102.268ZM62.2927 107.051H66.1585L64.2489 102.825L62.2927 107.051Z" fill="#54362C"/>
<path d="M70.7224 102.268H74.6813C76.1717 102.268 77.2896 102.686 77.2896 104.311C77.2896 105.101 76.8238 105.983 75.706 106.215C76.6375 106.355 77.1498 106.958 77.1498 107.794C77.1498 109.188 77.1964 109.652 77.3827 109.931H76.8704C76.7306 109.791 76.6841 109.327 76.6375 108.166C76.5909 106.819 76.1717 106.447 74.6347 106.447H71.1881V109.931H70.6758V102.268H70.7224ZM71.2347 106.029H74.5882C75.0539 106.029 76.7772 106.029 76.7772 104.265C76.7772 103.011 75.7991 102.686 74.7279 102.686H71.2347V106.029V106.029Z" fill="#54362C"/>
<path d="M80.5039 102.268H84.6492C86.1396 102.268 86.8848 102.964 86.8848 104.172C86.8848 104.915 86.5588 105.704 85.3944 105.937C86.8848 106.076 87.1643 107.191 87.1643 107.841C87.1643 108.677 86.6985 109.931 84.6026 109.931H80.5039V102.268V102.268ZM80.9697 105.751H84.4163C84.8355 105.751 86.3725 105.751 86.3725 104.172C86.3725 102.686 85.1615 102.686 84.3231 102.686H80.9697V105.751ZM80.9697 109.513H84.4629C84.8355 109.513 86.6519 109.513 86.6519 107.794C86.6519 106.169 85.1615 106.169 84.3231 106.169H80.9697V109.513Z" fill="#54362C"/>
<path d="M94.1963 102.082C97.3169 102.082 98.295 104.589 98.295 106.076C98.295 107.562 97.3169 110.07 94.1963 110.07C91.0758 110.07 90.0977 107.562 90.0977 106.076C90.0977 104.589 91.0758 102.082 94.1963 102.082ZM94.1963 109.698C96.5251 109.698 97.7827 107.933 97.7827 106.122C97.7827 104.311 96.5251 102.546 94.1963 102.546C91.8675 102.546 90.61 104.311 90.61 106.122C90.61 107.933 91.8675 109.698 94.1963 109.698Z" fill="#54362C"/>
<path d="M101.416 102.268H105.375C106.865 102.268 107.983 102.686 107.983 104.311C107.983 105.101 107.517 105.983 106.399 106.215C107.331 106.355 107.843 106.958 107.843 107.794C107.843 109.188 107.89 109.652 108.076 109.931H107.564C107.424 109.791 107.377 109.327 107.331 108.166C107.284 106.819 106.865 106.447 105.328 106.447H101.881V109.931H101.369V102.268H101.416ZM101.928 106.029H105.282C105.747 106.029 107.471 106.029 107.471 104.265C107.471 103.011 106.492 102.686 105.421 102.686H101.928V106.029V106.029Z" fill="#54362C"/>
<path d="M111.428 108.862H111.987V109.93C111.987 110.581 111.801 111.092 111.242 111.324V110.952C111.568 110.813 111.615 110.395 111.615 110.07V109.93H111.428V108.862Z" fill="#54362C"/>
<path d="M120.277 102.268H120.79V105.704H126.705V102.268H127.171V109.931H126.705V106.122H120.79V109.931H120.277V102.268Z" fill="#54362C"/>
<path d="M131.176 102.268H130.664V109.931H131.176V102.268Z" fill="#54362C"/>
<path d="M70.9557 91.1677C75.1009 91.1677 76.0325 87.9167 76.0325 74.216C76.0325 60.376 75.1009 57.1714 70.9557 57.1714C66.9036 57.1714 65.8789 60.376 65.8789 74.216C65.9255 87.9167 66.9036 91.1677 70.9557 91.1677Z" fill="#54362C"/>
</svg>
