<svg width="91" height="91" viewBox="0 0 91 91" fill="none" xmlns="http://www.w3.org/2000/svg">
<circle cx="45.5" cy="45.5" r="45.5" fill="white"/>
<path d="M91 45.5C91 70.5853 70.6606 91 45.5 91C20.3394 91 0 70.5853 0 45.5C0 20.3394 20.3394 0 45.5 0C70.5853 0 91 20.3394 91 45.5ZM89.7947 45.5C89.7947 21.0927 69.9073 1.2053 45.5 1.2053C21.0174 1.2053 1.2053 21.0927 1.2053 45.5C1.2053 69.9073 21.0927 89.7947 45.5 89.7947C69.9073 89.7947 89.7947 69.9073 89.7947 45.5ZM11.5257 66.1407C7.83444 60.1142 5.72517 53.0331 5.72517 45.5C5.72517 34.6523 10.019 24.8593 17.1002 17.7028C17.2508 17.5522 16.2715 16.9495 16.2715 16.9495C9.03973 24.332 4.67053 34.351 4.67053 45.5C4.67053 53.3344 6.85513 60.6416 10.697 66.8187C10.923 66.5174 11.2243 66.3667 11.5257 66.1407ZM74.8791 17.1002L74.1258 17.9288C74.4271 17.7028 74.5025 17.7781 74.2012 18.0041C81.0563 25.1606 85.2748 34.8783 85.2748 45.5C85.2748 52.9578 83.0902 60.1142 79.5497 66.0654L79.625 66.1407C79.9263 66.1407 80.077 66.5174 80.3783 66.7434C84.2202 60.5662 86.4048 53.2591 86.4048 45.4247C86.3295 34.5017 81.9603 24.4826 74.8791 17.1002ZM18.5315 12.6556L20.0381 11.4503L20.4901 12.053L19.6614 12.731L20.4147 13.7103L21.0174 13.1829L21.4694 13.7856L20.8667 14.3129L21.6954 15.2922L22.5993 14.6142L23.0513 15.2169L21.4694 16.4975L18.5315 12.6556ZM22.1473 9.94371L23.202 9.26573L26.2906 12.957L25.6126 13.4089L24.8593 12.5803L24.2566 12.957L24.7086 13.9363L24.1813 14.3129L22.1473 9.94371ZM22.976 10.245L23.9553 12.279L24.4073 11.9776L22.976 10.245ZM25.9139 8.58775L25.2359 8.9644L24.8593 8.28642L26.9685 7.15646L27.3452 7.83444L26.6672 8.21109L28.5505 11.7517L27.7972 12.1283L25.9139 8.58775ZM31.4131 5.27318L32.1664 5.04719C33.5223 4.5952 33.9743 5.42384 34.4263 6.7798C34.8783 8.06043 35.029 9.11507 33.7483 9.49172L32.9197 9.79305L31.4131 5.27318ZM33.5223 8.81374C34.0497 8.66308 33.9743 8.43709 33.5223 7.08113C33.0704 5.72516 32.995 5.49917 32.4677 5.72517L33.5223 8.81374ZM35.7823 3.91722L36.7616 3.76656C37.5902 3.54056 38.1929 3.76656 38.4189 4.74586C38.4942 5.12252 38.4942 5.72517 38.1929 6.02649L39.1722 8.13576L38.2682 8.28642L37.4396 6.40315L37.2136 6.47848L37.6656 8.51242L36.8369 8.66308L35.7823 3.91722ZM37.0629 5.72517L37.2136 5.64983C37.5149 5.5745 37.5902 5.27318 37.5149 4.89652C37.4396 4.36921 37.2136 4.29387 36.9122 4.36921H36.7616L37.0629 5.72517ZM40.0762 3.16391L40.9801 3.01324L41.5828 7.75911L40.6788 7.90977L40.0762 3.16391ZM43.0894 2.86258H43.918L44.822 5.27318L44.7467 2.78725H45.4247L45.5753 7.53311H44.8973L43.8427 4.67053L43.918 7.53311H43.1647L43.0894 2.86258ZM47.7599 2.78725L48.6639 2.86258L48.5132 4.82119L49.3419 2.86258L50.0952 2.93791L49.3419 4.51987L49.8692 7.75911L49.0406 7.68377L48.7392 5.49917L48.3626 6.25248L48.2872 7.60844L47.3833 7.53311L47.7599 2.78725ZM55.519 3.84189L56.7243 4.14321L56.197 8.88907L55.3684 8.66308L55.519 7.60844L54.8411 7.53311L54.4644 8.51242L53.7864 8.36175L55.519 3.84189ZM55.8957 4.74586L55.067 6.85513L55.5944 7.00579L55.8957 4.74586ZM59.2856 4.89652L60.1142 5.19785L58.7583 8.9644L59.8129 9.34106L59.5869 10.019L57.7036 9.34106L59.2856 4.89652ZM64.1821 6.7798C64.8601 7.08113 65.0861 7.83444 64.2574 9.56705C63.4288 11.2997 62.7508 11.601 62.0728 11.2997C61.3949 10.9983 61.1689 10.245 61.9975 8.51242C62.7508 6.7798 63.5041 6.40315 64.1821 6.7798ZM62.6002 9.34106C62.1482 10.245 62.1482 10.5464 62.3742 10.6217C62.5248 10.697 62.7508 10.5464 63.2028 9.64238L63.6548 8.73841C64.0315 7.75911 64.0315 7.53311 63.8808 7.38245C63.7301 7.30712 63.5041 7.45778 63.0521 8.36175L62.6002 9.34106ZM67.1954 8.43709L67.9487 8.88907L66.9694 10.5464L67.4214 10.8477L68.4007 9.1904L69.154 9.64238L66.668 13.7103L65.9147 13.2583L66.9694 11.5257L66.5174 11.2243L65.4627 12.957L64.7094 12.505L67.1954 8.43709ZM71.3386 11.149L72.3179 11.9023L69.9073 16.0455L69.3046 15.5935L69.8319 14.6896L69.3046 14.2376L68.5513 14.9909L67.9487 14.5389L71.3386 11.149ZM71.3386 12.1283L69.7566 13.7856L70.2086 14.0869L71.3386 12.1283ZM15.1416 54.9164V50.6978C15.1416 39.0969 16.8742 32.4677 28.1738 32.4677C32.769 32.4677 35.707 33.5223 37.5149 35.1043C37.6656 35.029 37.8162 34.9536 38.0422 34.8783C38.5695 34.7276 39.1722 34.803 39.6995 34.8783C40.5281 35.029 41.2815 35.3303 42.0348 35.6316C42.1101 35.6316 42.1101 35.707 42.1854 35.707C41.3568 34.577 40.1515 33.7483 39.0969 32.8444V32.769C39.3228 32.769 39.5488 32.6937 39.7748 32.6937C40.4528 32.769 41.1308 32.9197 41.8088 33.1457L42.0348 33.221C41.6581 32.4677 41.2061 31.7897 40.6035 31.2624C40.1515 30.8104 39.6242 30.6598 39.0215 30.6598C38.5695 30.6598 38.1175 30.7351 37.6656 30.7351C37.8916 30.3584 38.1929 30.0571 38.7202 29.9818C39.3228 29.9065 39.8502 30.0571 40.4528 30.2831C41.4321 30.6598 42.2608 31.1871 43.0894 31.7897C43.1647 31.7897 43.1647 31.8651 43.3154 31.8651C43.2401 31.7144 43.2401 31.5637 43.1647 31.4884C42.6374 30.6598 42.1101 29.8311 41.5828 29.0778C41.2815 28.6258 40.9801 28.1738 40.6035 27.7219C40.6788 27.7219 40.7541 27.7219 40.8295 27.7219C41.2061 27.7219 41.5074 27.8725 41.8841 28.0985C42.6374 28.5505 43.2401 29.1531 43.8427 29.8311C44.0687 30.0571 44.2194 30.2078 44.4454 30.4338C44.5207 30.5091 44.596 30.5091 44.7467 30.5844C44.596 29.4545 44.144 28.3998 43.8427 27.2699C44.5207 28.0985 45.048 28.8518 45.726 29.6051H45.8013C45.8013 29.5298 45.8013 29.4545 45.8013 29.3038C45.6507 28.7765 45.5753 28.3245 45.4247 27.7972C45.4247 27.6465 45.3493 27.5712 45.3493 27.4205L45.4247 27.2699L45.5753 27.3452C45.726 27.4959 45.8013 27.6465 45.952 27.8725C46.1026 28.1738 46.2533 28.4752 46.4793 28.7012C46.4793 28.0985 46.404 27.4959 46.2533 26.8932H47.3833C47.3833 27.4205 47.3833 27.9478 47.3833 28.3998H47.4586C47.7599 27.8725 48.0613 27.3452 48.2872 26.8179H48.3626V29.6051C48.8146 29.0025 49.1912 28.4752 49.6432 27.8725H49.7185C49.5679 28.3245 49.4925 28.7765 49.3419 29.1531C49.1159 29.6805 48.8899 30.2078 48.7392 30.7351C48.6639 30.8858 48.6639 31.1118 48.5886 31.2624L48.6639 31.3377C48.7392 31.2624 48.8146 31.1871 48.8899 31.1118C49.2666 30.7351 49.5679 30.2831 49.8692 29.9065C50.7732 29.0025 51.8278 28.3998 52.8824 27.7972C52.2045 28.6258 51.7525 29.5298 51.2252 30.4338C51.0745 30.7351 50.8485 30.9611 50.6225 31.1871C50.5472 31.2624 50.4719 31.4131 50.4719 31.5637H50.5472C50.9992 31.3377 51.4512 31.0364 51.9031 30.8104C52.6565 30.5091 53.3344 30.1324 54.1631 29.9065C54.8411 29.6805 55.4437 29.9065 55.8957 30.4338C55.971 30.5091 55.971 30.5844 56.0464 30.6598C55.5944 30.4338 55.2177 30.5091 54.8411 30.5844C53.8618 30.8858 52.9578 31.2624 52.2798 32.0911C52.0538 32.3924 51.8278 32.6937 51.7525 33.1457C52.8071 32.9197 53.8618 33.0704 54.8411 33.5977C54.9917 33.673 55.0671 33.7483 55.293 33.899C54.7657 33.9743 54.3137 34.0497 53.9371 34.2003C53.2591 34.351 52.5811 34.577 51.9031 34.803C50.8485 35.1796 50.1705 35.9329 49.4925 36.7616C49.4172 36.9122 49.3419 36.9876 49.2666 37.1382C49.4925 37.0629 49.7939 36.9123 50.0199 36.8369C50.9238 36.3096 51.9031 35.8576 52.8071 35.3303C53.4098 34.9536 54.0877 34.6523 54.8411 34.6523C55.5944 34.577 56.423 35.029 56.7243 35.707C55.745 35.4056 55.067 35.4056 54.3891 35.7823C53.8617 36.0836 53.2591 36.3096 52.7318 36.6109C52.0538 36.9876 51.3758 37.7409 51.0745 38.1929C52.4305 37.2889 53.9371 37.2136 55.3684 37.0629C54.9164 37.2889 54.4644 37.5149 53.9371 37.8162V37.8916C54.6904 37.8162 55.3684 38.0422 55.8204 38.6449C55.5944 38.6449 55.4437 38.7202 55.293 38.7202C54.9164 38.7202 54.6151 38.7202 54.2384 38.7202C53.8618 38.7202 53.5604 38.7955 53.1838 38.9462C52.4305 39.2475 51.7525 39.7748 51.1498 40.3022C51.5265 40.2268 51.8278 40.0762 52.2045 40.0008C53.1838 39.8502 54.1631 39.9255 55.067 40.1515C55.2177 40.2268 55.4437 40.3021 55.5944 40.3775C55.6697 40.4528 55.745 40.5281 55.8957 40.6035C55.519 40.6035 55.1424 40.6788 54.8411 40.6788C53.2591 40.8295 51.9031 41.4321 50.6225 42.3361C50.3965 42.4868 50.0952 42.7127 49.9445 42.9387C49.7185 43.1647 49.6432 43.4661 49.7185 43.7674C50.0199 43.692 50.3212 43.6167 50.6225 43.5414C51.9031 43.3154 53.0331 43.4661 54.0877 44.2194C54.1631 44.2947 54.3137 44.37 54.3891 44.4454L60.9429 32.3924H71.7152V55.2177H75.0298V61.6209C77.6664 56.7997 79.0977 51.3758 79.0977 45.5C79.0977 26.9685 64.0315 11.827 45.4247 11.827C26.8932 11.827 11.7517 26.8932 11.7517 45.5C11.7517 51.0745 13.1076 56.2724 15.5182 60.8675C15.2922 59.1349 15.1416 57.1763 15.1416 54.9164ZM63.7301 21.394H67.2707V21.62H65.6134V25.9892H65.3121V21.62H63.6548V21.394H63.7301ZM59.2103 21.394H59.5116L62.4495 25.6126V21.394H62.7508V25.9892H62.4495L59.5116 21.7707V26.0646H59.2103V21.394ZM56.0464 21.394H56.3477L58.1556 25.9892H57.8543L57.2517 24.4826H55.067L54.4644 25.9892H54.2384L56.0464 21.394ZM49.9445 21.394H51.9031C52.1291 21.394 52.2798 21.394 52.5058 21.4694C52.6565 21.5447 52.8071 21.5447 52.9578 21.6954C53.1084 21.7707 53.1838 21.9214 53.2591 22.072C53.3344 22.2227 53.4098 22.4487 53.4098 22.5993C53.4098 22.9007 53.3344 23.202 53.1084 23.3526C52.9578 23.5786 52.6565 23.7293 52.3551 23.7293C52.5811 23.7293 52.7318 23.8046 52.8824 23.88C53.0331 23.9553 53.1084 24.106 53.1838 24.1813C53.2591 24.332 53.2591 24.4073 53.3344 24.5579C53.3344 24.7086 53.3344 24.8593 53.3344 25.0099V25.3113C53.3344 25.3866 53.3344 25.4619 53.3344 25.5373C53.3344 25.6126 53.3344 25.6879 53.4098 25.7632L53.4851 25.9139H53.1838C53.1084 25.8386 53.1084 25.6879 53.1084 25.5373C53.1084 25.3866 53.1084 25.2359 53.1084 25.0853C53.1084 24.9346 53.1084 24.7839 53.1084 24.6333C53.1084 24.4826 53.0331 24.332 52.9578 24.2566C52.8824 24.106 52.8071 24.0306 52.6565 23.9553C52.5058 23.88 52.2798 23.88 52.0538 23.88H50.3965V25.9892H50.0952V21.394H49.9445ZM44.9727 21.394H45.274V24.1813C45.274 24.2566 45.274 24.4073 45.274 24.4826C45.274 24.6333 45.274 24.7086 45.3493 24.8593C45.3493 25.0099 45.4247 25.0853 45.5 25.2359C45.5753 25.3866 45.6507 25.4619 45.726 25.5373C45.8013 25.6126 45.952 25.6879 46.1026 25.7632C46.2533 25.8386 46.4793 25.8386 46.7053 25.8386C47.0066 25.8386 47.2326 25.7632 47.4586 25.6879C47.6846 25.6126 47.8353 25.4619 47.9106 25.3113C48.0613 25.1606 48.1366 25.0099 48.1366 24.7839C48.2119 24.5579 48.2119 24.332 48.2119 24.106V21.3187H48.5132V24.106C48.5132 24.4073 48.5132 24.6333 48.4379 24.8593C48.3626 25.0853 48.2873 25.3113 48.1366 25.4619C47.9859 25.6126 47.8353 25.7632 47.6093 25.9139C47.3833 25.9892 47.082 26.0646 46.7053 26.0646C46.404 26.0646 46.178 26.0646 46.0273 25.9892C45.8013 25.9139 45.6507 25.8386 45.5753 25.6879C45.4247 25.6126 45.3493 25.4619 45.274 25.3113C45.1987 25.1606 45.1233 25.0099 45.1233 24.8593C45.048 24.7086 45.048 24.5579 45.048 24.4073C45.048 24.2566 45.048 24.1813 45.048 24.0306V21.394H44.9727ZM42.2608 21.394L44.0687 25.9892H43.7674L43.1647 24.4826H40.9801L40.3775 25.9892H40.0762L41.9594 21.394H42.2608ZM36.5356 21.394H40.0762V21.62H38.4189V25.9892H38.1175V21.62H36.4603V21.394H36.5356ZM32.6937 25.1606C32.769 25.3113 32.9197 25.4619 33.0704 25.6126C33.221 25.7632 33.3717 25.8386 33.5977 25.8386C33.8237 25.9139 34.0497 25.9139 34.2757 25.9139C34.4263 25.9139 34.577 25.9139 34.7276 25.8386C34.8783 25.8386 35.029 25.7632 35.1796 25.6879C35.3303 25.6126 35.4056 25.4619 35.481 25.3866C35.5563 25.2359 35.6316 25.0853 35.6316 24.8593C35.6316 24.6333 35.5563 24.4826 35.481 24.4073C35.4056 24.2566 35.255 24.1813 35.1043 24.106C34.9536 24.0306 34.803 23.9553 34.577 23.9553C34.4263 23.88 34.2003 23.88 33.9743 23.8046C33.7483 23.7293 33.5977 23.7293 33.3717 23.654C33.1457 23.5786 32.995 23.5033 32.8444 23.428C32.6937 23.3526 32.543 23.202 32.4677 23.0513C32.3924 22.9007 32.3171 22.75 32.3171 22.524C32.3171 22.298 32.3924 22.1474 32.4677 21.9214C32.543 21.7707 32.6937 21.62 32.8444 21.5447C32.995 21.4694 33.1457 21.394 33.3717 21.3187C33.5223 21.2434 33.7483 21.2434 33.899 21.2434C34.125 21.2434 34.351 21.2434 34.577 21.3187C34.803 21.394 34.9536 21.4694 35.1043 21.5447C35.255 21.62 35.4056 21.7707 35.481 21.9967C35.5563 22.1474 35.6316 22.3733 35.6316 22.6747H35.3303C35.3303 22.4487 35.255 22.298 35.1796 22.1473C35.1043 21.9967 35.029 21.846 34.8783 21.7707C34.7276 21.6954 34.577 21.62 34.4263 21.5447C34.2757 21.4694 34.0497 21.4694 33.8237 21.4694C33.673 21.4694 33.5223 21.4694 33.3717 21.5447C33.221 21.5447 33.0704 21.62 32.9197 21.6954C32.769 21.7707 32.6937 21.846 32.6184 21.9967C32.543 22.1474 32.4677 22.298 32.4677 22.4487C32.4677 22.5993 32.543 22.75 32.6184 22.9007C32.6937 23.0513 32.8444 23.1267 32.995 23.202C33.1457 23.2773 33.2964 23.3526 33.5223 23.3526C33.673 23.428 33.899 23.428 34.125 23.5033C34.351 23.5786 34.5017 23.5786 34.7276 23.654C34.8783 23.7293 35.1043 23.8046 35.255 23.88C35.4056 23.9553 35.5563 24.106 35.6316 24.2566C35.707 24.4073 35.7823 24.5579 35.7823 24.7839C35.7823 25.0099 35.707 25.2359 35.6316 25.3866C35.5563 25.5373 35.4056 25.6879 35.255 25.7632C35.1043 25.8386 34.9536 25.9139 34.7276 25.9892C34.5017 26.0646 34.351 26.0646 34.2003 26.0646C33.899 26.0646 33.673 26.0646 33.447 25.9892C33.221 25.9139 32.995 25.8386 32.8444 25.6879C32.6937 25.5372 32.543 25.3866 32.3924 25.1606C32.3171 24.9346 32.2417 24.7086 32.2417 24.4073H32.543C32.6184 24.7839 32.6184 24.9346 32.6937 25.1606ZM28.2492 21.394H31.3377V21.62H28.5505V23.5033H31.1871V23.7293H28.5505V25.7632H31.4131V25.9892H28.2492V21.394V21.394ZM23.5033 21.394H25.4619C25.6879 21.394 25.8386 21.394 26.0646 21.4694C26.2906 21.5447 26.3659 21.5447 26.5166 21.6954C26.6672 21.7707 26.7425 21.9214 26.8179 22.072C26.8932 22.2227 26.9685 22.4487 26.9685 22.5993C26.9685 22.9007 26.8932 23.202 26.7425 23.3526C26.5919 23.5786 26.2906 23.7293 25.9892 23.7293C26.2152 23.7293 26.3659 23.8046 26.5166 23.88C26.6672 23.9553 26.7425 24.106 26.8179 24.1813C26.8932 24.332 26.8932 24.4073 26.9685 24.5579C26.9685 24.7086 26.9685 24.8593 26.9685 25.0099V25.3113C26.9685 25.3866 26.9685 25.4619 26.9685 25.5373C26.9685 25.6126 26.9685 25.6879 27.0439 25.7632L27.1192 25.9139H26.8179C26.7425 25.8386 26.7425 25.6879 26.7425 25.5373C26.7425 25.3866 26.7425 25.2359 26.7425 25.0853C26.7425 24.9346 26.7425 24.7839 26.7425 24.6333C26.7425 24.4826 26.6672 24.332 26.5919 24.2566C26.5166 24.106 26.4412 24.0306 26.2906 23.9553C26.1399 23.88 25.9139 23.88 25.6879 23.88H24.0306V25.9892H23.7293V21.394H23.5033ZM71.7152 66.5174C72.7699 65.2368 73.7492 63.8055 74.5778 62.3742H71.7152V66.5174ZM62.7508 55.2177V42.6374H62.6755L56.4983 55.2177H62.7508ZM25.9139 23.654C26.0646 23.5786 26.2152 23.5786 26.2906 23.428C26.3659 23.2773 26.4412 23.202 26.5166 23.1267C26.5919 22.976 26.5919 22.8253 26.5919 22.6747C26.5919 22.524 26.5919 22.3733 26.5166 22.2227C26.4412 22.072 26.3659 21.9967 26.2906 21.9214C26.2152 21.846 26.0646 21.7707 25.9139 21.7707C25.7632 21.7707 25.6126 21.6954 25.4619 21.6954H23.8046V23.7293H25.4619C25.6126 23.654 25.7632 23.654 25.9139 23.654ZM56.197 21.6954L55.1424 24.332H57.2517L56.197 21.6954ZM52.3551 23.654C52.5058 23.5786 52.6565 23.5786 52.7318 23.428C52.8071 23.3526 52.8824 23.202 52.9578 23.1267C53.0331 22.976 53.0331 22.8253 53.0331 22.6747C53.0331 22.524 53.0331 22.3733 52.9578 22.2227C52.8824 22.072 52.8071 21.9967 52.7318 21.9214C52.6565 21.846 52.5058 21.7707 52.3551 21.7707C52.2045 21.7707 52.0538 21.6954 51.9031 21.6954H50.2459V23.7293H51.9031C52.0538 23.654 52.2045 23.654 52.3551 23.654ZM42.1101 21.6954L41.0555 24.332H43.0894L42.1101 21.6954ZM40.9048 48.5886C41.1308 48.4379 41.4321 48.2119 41.7334 48.0613C41.8841 47.9859 42.1101 47.8353 42.2608 47.7599C42.4868 47.6093 42.7127 47.4586 42.7127 47.082C42.7127 46.856 42.8634 46.63 43.1647 46.63C43.3154 46.63 43.3907 46.5546 43.5414 46.4793C43.7674 46.404 43.7674 46.3286 43.6167 46.1026C43.3154 45.8013 43.2401 45.726 42.8634 45.8767C41.9594 46.3286 41.0555 46.7806 40.0762 47.2326L39.9255 47.3079C40.0762 47.082 40.3022 46.7806 40.4528 46.63C41.0555 46.1026 41.7334 45.5753 42.3361 45.048C42.4114 44.9727 42.4114 44.9727 42.4868 44.8973C42.1854 44.7467 41.9594 44.7467 41.6581 44.7467C40.7541 44.7467 39.8502 44.9727 38.9462 45.274C38.5695 45.3493 38.2682 45.5 37.8916 45.6507C37.9669 45.5 38.0422 45.4247 38.1175 45.274C38.7202 44.4454 39.5488 43.8427 40.4528 43.4661C41.2061 43.0894 42.0348 42.7881 42.8634 42.5621L42.7127 42.4868C42.2608 42.1854 41.8088 41.8088 41.4321 41.3568C41.0555 40.9048 40.6035 40.8295 40.0762 40.6788C40.0008 40.6788 39.9255 40.6788 39.8502 40.6788C39.9255 41.2061 39.9255 41.6581 39.9255 42.1854H30.8104C30.7351 40.9048 30.5091 40.0008 30.0571 39.3982C29.6051 38.8709 29.0025 38.6449 28.0985 38.6449C26.6672 38.6449 25.3866 39.8502 25.3866 42.1854V48.2119H25.4619C26.2906 46.404 28.9272 45.1987 31.7897 45.1987C35.481 45.1987 38.3435 46.404 39.7748 50.0952C39.9255 49.9445 40.1515 49.8692 40.3022 49.7185C40.5281 49.5679 40.6788 49.3419 40.6788 49.0406C40.6788 48.8899 40.7541 48.6639 40.9048 48.5886ZM41.4321 39.6242C40.9048 39.3228 40.3022 39.1722 39.6995 39.0215C39.7748 39.2475 39.8502 39.5488 39.8502 39.7748C40.3775 39.6995 40.9048 39.6995 41.4321 39.6242ZM41.8088 38.0422C41.2815 37.2136 40.6035 36.6109 39.7748 36.0836C39.1722 35.707 38.5695 35.6316 37.8916 35.6316C38.5695 36.3096 39.0215 37.1382 39.3228 37.9669C40.0762 37.9669 40.8295 37.9669 41.5828 37.9669H41.8088M62.4495 69.38V62.3742H55.4437C55.3684 62.7508 55.293 63.1275 55.1424 63.4288C55.067 63.5795 55.067 63.8055 54.9917 64.0315C54.9164 64.3328 54.7657 64.6341 54.6151 64.9354C54.3891 65.2367 54.2384 65.6134 54.1631 65.9147C54.0124 66.2914 53.8618 66.5927 53.4851 66.7434C53.1838 66.894 53.0331 67.0447 52.8824 67.2707C52.7318 67.572 52.4305 67.798 52.2045 68.0993C52.1291 68.1747 51.9785 68.1747 51.8278 68.25C51.6018 68.3253 51.3758 68.4007 51.1498 68.476C50.7732 68.6267 50.3965 68.7773 50.0199 68.702C49.7185 68.702 49.4172 68.7773 49.1159 68.7773C48.9652 68.7773 48.7392 68.8526 48.5886 68.8526C48.2119 68.8526 47.7599 68.8526 47.3833 69.0033C46.9313 69.154 46.5546 69.0786 46.1026 69.0033C45.274 68.928 44.37 68.8526 43.5414 68.8526C43.1647 68.8526 42.8634 68.7773 42.4868 68.702C42.3361 68.702 42.2608 68.6267 42.1101 68.5513C41.8088 68.4007 41.4321 68.1747 41.1308 67.9487L40.9801 67.798C40.9048 67.6473 40.7541 67.4967 40.6788 67.346C40.5281 67.0447 40.3021 66.8187 40.0008 66.668C39.5488 66.442 39.3228 66.1407 39.2475 65.6134L39.1722 65.4627C37.1382 69.38 33.447 71.0373 28.1738 71.0373C26.1399 71.0373 24.332 70.8113 22.75 70.3593C28.7012 75.8584 36.6863 79.173 45.4247 79.173C54.6151 79.173 62.9768 75.4818 69.0786 69.4553H62.4495V69.38ZM46.7053 50.7732C44.8973 50.7732 44.4454 52.2045 44.4454 58.3816C44.4454 64.5588 44.8973 65.9901 46.7053 65.9901C48.5886 65.9901 48.9652 64.5588 48.9652 58.3816C48.9652 52.2045 48.5886 50.7732 46.7053 50.7732ZM49.6432 46.63C49.7939 46.7053 49.8692 46.7053 50.0199 46.7806C50.2459 46.9313 50.4719 47.0066 50.5472 47.3079L50.6978 47.3833C50.8485 47.4586 51.0745 47.5339 51.2252 47.6093C51.3758 47.6846 51.5265 47.8353 51.7525 47.9859C51.8278 48.0613 51.9031 48.1366 51.9785 48.1366C52.1291 48.2119 52.2798 48.2872 52.3551 48.3626H52.4305L54.0877 45.274H54.0124C53.2591 45.048 52.5058 44.8973 51.7525 44.7467C51.3005 44.6714 50.8485 44.822 50.4719 44.9727C50.3965 45.048 50.3212 45.048 50.2459 45.1987C50.8485 45.1233 51.3758 45.1233 51.9785 45.274C52.5058 45.5 53.0331 45.8013 53.4098 46.178C52.0538 45.8013 50.8485 45.952 49.6432 46.63ZM25.3866 58.6076C25.3866 63.4288 26.0646 64.7848 28.1738 64.7848C30.0571 64.7848 30.9611 63.4288 30.9611 58.6076C30.9611 53.7864 30.2831 52.4305 28.1738 52.4305C26.2906 52.4305 25.3866 53.7864 25.3866 58.6076ZM81.8849 45.5C81.8849 65.6134 65.6134 81.8849 45.5 81.8849C25.3866 81.8849 9.11507 65.6134 9.11507 45.5C9.11507 25.3866 25.3866 9.11507 45.5 9.11507C65.6134 9.11507 81.8849 25.3866 81.8849 45.5ZM80.9056 45.5C80.9056 25.9892 65.0108 10.019 45.4247 10.019C25.9139 10.019 10.019 25.9139 10.019 45.5C10.019 65.0108 25.9139 80.9056 45.4247 80.9056C65.0108 80.9056 80.9056 65.0108 80.9056 45.5ZM19.4354 72.6945L20.1134 73.2972C20.8667 73.9752 21.0174 74.6531 20.2641 75.4818C19.6614 76.1598 18.9834 76.3104 18.3808 75.7831L18.0795 75.5571L16.7235 76.9884L16.0455 76.3858L19.4354 72.6945ZM18.6068 74.9545C18.9081 75.2558 19.2094 75.2558 19.5861 74.8791C20.0381 74.3518 19.8874 74.1258 19.6614 73.9752L19.5861 73.8245L18.6068 74.9545ZM22.4487 75.3311L24.106 76.5364L23.654 77.1391L22.75 76.4611L21.9967 77.5157L22.6747 78.043L22.2227 78.721L21.5447 78.1937L20.7161 79.2483L21.6954 79.9263L21.2434 80.529L19.5861 79.2483L22.4487 75.3311ZM25.9139 77.7417L27.0439 78.4197L25.0099 83.0149L24.2566 82.5629L24.7086 81.5836L24.106 81.207L23.428 82.1109L22.75 81.7343L25.9139 77.7417ZM26.0646 78.721L24.6333 80.6043L25.0853 80.9056L26.0646 78.721ZM29.0778 79.4743L29.9818 79.9263C30.7351 80.303 31.1118 80.8303 30.7351 81.8096C30.5844 82.1863 30.2078 82.6382 29.7558 82.7136L29.3038 85.0488L28.4752 84.6722L29.0025 82.5629L28.7765 82.4876L27.8725 84.3709L27.0439 83.9942L29.0778 79.4743ZM29.0025 81.7343L29.1531 81.8096C29.4545 81.9603 29.6805 81.6589 29.8311 81.3576C30.0571 80.9056 29.9065 80.6796 29.6805 80.529L29.5298 80.4536L29.0025 81.7343ZM32.9197 81.0563L33.7483 81.3576L32.4677 85.3502L33.5977 85.7268L33.3717 86.4801L31.4131 85.8021L32.9197 81.0563ZM39.1722 82.7136L40.0762 82.8642L39.7748 84.8228L40.3022 84.8982L40.6035 82.9396L41.5074 83.0902L40.8295 87.9868L39.9255 87.8361L40.2268 85.7268L39.6242 85.6515L39.3228 87.7608L38.4189 87.6101L39.1722 82.7136ZM43.8427 83.2409H45.1233L45.5753 88.2127H44.6714L44.596 87.0828H43.8427L43.6921 88.2127H42.9387L43.8427 83.2409ZM44.37 83.9942L43.9934 86.3295H44.5207L44.37 83.9942ZM47.3833 83.1656L48.3626 83.0902C49.1912 83.0149 49.7939 83.3162 49.9445 84.3709C49.9445 84.8228 49.8692 85.3502 49.4925 85.6515L50.2459 87.9114L49.3419 87.9868L48.7392 85.8775H48.5132L48.6639 87.9868L47.7599 88.0621L47.3833 83.1656ZM48.5132 85.1995H48.6639C48.9652 85.1995 49.1159 84.8228 49.0406 84.4462C48.9652 83.9189 48.8146 83.7682 48.5132 83.7682H48.3626L48.5132 85.1995ZM51.5265 82.7136L52.6565 82.4876C53.1838 82.4122 53.9371 82.5629 54.0877 83.4669C54.1631 83.9942 54.0124 84.5215 53.4851 84.7475C54.0877 84.7475 54.4644 85.1242 54.6151 85.7268C54.7657 86.6308 54.3137 87.2334 53.6358 87.3088L52.5058 87.5348L51.5265 82.7136ZM52.8071 84.5969C53.2591 84.5215 53.3344 84.2955 53.2591 83.8435C53.1838 83.3162 53.0331 83.2409 52.5811 83.3162L52.8071 84.5969ZM53.2591 86.7061C53.7864 86.6308 53.8618 86.4048 53.7111 85.8775C53.6358 85.4255 53.4851 85.1995 52.9578 85.2748L53.2591 86.7061ZM56.7243 81.3576C57.4776 81.1316 58.1556 81.5083 58.7583 83.3915C59.3609 85.2748 59.0596 86.0281 58.3063 86.2541C57.553 86.4801 56.875 86.1035 56.2723 84.2202C55.5944 82.3369 55.8957 81.5836 56.7243 81.3576ZM57.327 84.4462C57.6283 85.5008 57.8543 85.6515 58.005 85.5762C58.231 85.5008 58.231 85.2748 57.9296 84.2202L57.6283 83.2409C57.327 82.1863 57.101 82.0356 56.9503 82.1109C56.7243 82.1863 56.7243 82.4122 57.0257 83.4669L57.327 84.4462ZM59.6622 80.3783L60.5662 79.9263C61.3195 79.5497 61.9975 79.7003 62.4495 80.6043C62.6002 80.981 62.7508 81.5836 62.4495 81.9603L63.8808 83.8435L63.0521 84.2202L61.7715 82.4876L61.5455 82.5629L62.4495 84.5215L61.6209 84.8982L59.6622 80.3783ZM61.3195 81.9603L61.4702 81.8849C61.7715 81.7343 61.7715 81.3576 61.6209 81.0563C61.3949 80.529 61.1689 80.529 60.8675 80.6043L60.7169 80.6796L61.3195 81.9603ZM66.0654 82.7889L65.7641 82.9396L65.3121 82.1863L66.0654 81.7343L66.5174 82.4876L66.5927 83.6929L66.2914 83.8435L66.0654 82.7889ZM67.8733 75.7078L68.5513 75.1051L69.8319 76.6871L70.2839 76.3104L69.0033 74.7285L69.6813 74.1258L72.7699 77.9677L72.0919 78.5704L70.7359 76.9131L70.2839 77.2897L71.6399 78.947L70.9619 79.5497L67.8733 75.7078ZM71.1126 72.9205L71.7906 72.3179L75.2558 75.8584L74.5778 76.4611L71.1126 72.9205Z" fill="#56382E"/>
</svg>
