<svg width="141" height="101" viewBox="0 0 141 101" fill="none" xmlns="http://www.w3.org/2000/svg">
<path d="M103.932 33.6008L103.896 33.5645C97.5541 21.6442 85.2353 14.2304 71.7502 14.2304C58.5566 14.2304 46.3471 21.4262 39.9326 32.983L39.8962 33.0193H39.8597C37.4907 32.8376 35.1582 32.5105 32.8621 32.1835C30.4202 31.8564 27.9054 31.493 25.3906 31.3112H25.2812L25.3177 31.2386C29.1081 22.2257 35.4133 14.5211 43.5408 8.99711C51.887 3.32772 61.6546 0.347656 71.7502 0.347656C81.9916 0.347656 91.832 3.4004 100.251 9.21516C108.451 14.8846 114.757 22.7345 118.438 31.9654L118.474 32.0744H118.365C113.809 32.2198 108.743 32.9103 103.932 33.6371V33.6008ZM71.7502 14.085C85.2717 14.085 97.627 21.4988 104.005 33.4554C108.743 32.7286 113.773 32.0744 118.292 31.8927C114.611 22.7345 108.342 14.9572 100.178 9.32419C91.7956 3.54577 81.9551 0.493025 71.7502 0.493025C61.691 0.493025 51.9599 3.47309 43.6501 9.10614C35.5591 14.5938 29.2903 22.2257 25.4999 31.1659C28.0147 31.3476 30.493 31.6747 32.8985 32.0381C35.1582 32.3652 37.4907 32.6923 39.8233 32.874C46.2743 21.2808 58.5202 14.085 71.7502 14.085Z" fill="#54362C"/>
<path d="M71.748 100.653C62.1626 100.653 52.8688 97.9634 44.8142 92.8392C36.9783 87.8603 30.6731 80.8462 26.5911 72.5602L26.5547 72.4875L26.6276 72.4512C27.7209 72.2331 28.7779 72.0151 29.7984 71.797C33.5523 71.0338 36.7961 70.3433 40.5136 69.144H40.55L40.5865 69.1804C43.7573 74.45 48.2766 78.8474 53.5978 81.9365C59.1011 85.0983 65.3699 86.77 71.748 86.77C84.249 86.77 95.6931 80.4828 102.436 69.9072L102.472 69.8709H102.509C107.137 70.7431 112.896 71.3246 117.196 71.3246C117.269 71.3246 117.306 71.3246 117.379 71.3246H117.488L117.452 71.4336C113.479 80.0467 107.174 87.3152 99.2284 92.5121C91.028 97.8181 81.552 100.653 71.748 100.653ZM26.7369 72.5602C30.8189 80.8099 37.0876 87.7513 44.8871 92.6938C52.9053 97.7817 62.1991 100.471 71.748 100.471C81.5156 100.471 90.9916 97.6727 99.1191 92.3304C107.028 87.1698 113.297 79.9377 117.269 71.3973H117.196C112.896 71.3973 107.137 70.8521 102.509 69.9799C95.7296 80.5555 84.249 86.8427 71.7115 86.8427C65.297 86.8427 59.0282 85.171 53.4884 81.9729C48.1673 78.8838 43.648 74.4864 40.4407 69.2167C36.7596 70.416 33.5159 71.0702 29.7984 71.8697C28.8508 72.1241 27.8303 72.3422 26.7369 72.5602Z" fill="#54362C"/>
<path d="M40.5168 15.2475C40.5168 15.2111 40.4803 15.2111 40.4803 15.1748C38.7309 16.6648 37.1273 18.3002 35.633 20.0447C32.6808 23.4972 30.2025 27.3858 28.3438 31.5288C31.1501 25.3143 35.3414 19.7539 40.5168 15.2475Z" fill="#54362C"/>
<path d="M42.6298 17.7556C42.5934 17.7556 42.5934 17.7192 42.557 17.7192C41.1355 18.9549 39.8235 20.2632 38.5843 21.6805C35.8144 24.806 33.5183 28.2948 31.7324 32.0381C34.3565 26.5867 38.1105 21.7169 42.6298 17.7556Z" fill="#54362C"/>
<path d="M101.707 14.6298C107.393 19.3543 111.948 25.3871 114.901 32.1831C113.115 28.0038 110.709 24.0788 107.794 20.5899C105.971 18.4094 103.967 16.3742 101.78 14.5571C101.707 14.5935 101.707 14.5935 101.707 14.6298Z" fill="#54362C"/>
<path d="M97.3717 20.4087C97.3353 20.445 97.3353 20.445 97.2988 20.4814C101.417 23.9702 104.807 28.2586 107.249 33.0558C105.609 29.785 103.531 26.7322 101.089 24.0066C99.923 22.7346 98.6838 21.5353 97.3717 20.4087Z" fill="#54362C"/>
<path d="M45.8724 20.1543C44.5967 21.2082 43.394 22.3348 42.2642 23.5705C39.7494 26.2598 37.6355 29.2762 35.959 32.547C38.4373 27.8225 41.8268 23.6068 45.9452 20.227C45.9088 20.1906 45.9088 20.1906 45.8724 20.1543Z" fill="#54362C"/>
<path d="M99.8489 17.2832C99.8489 17.3195 99.8125 17.3195 99.8125 17.3559C104.733 21.4989 108.742 26.6958 111.439 32.5106C109.726 28.731 107.43 25.2058 104.733 22.0804C103.238 20.336 101.598 18.7369 99.8489 17.2832Z" fill="#54362C"/>
<path d="M51.1938 85.0616C51.2302 85.0253 51.2302 85.0252 51.2667 84.9889C45.253 81.4637 40.187 76.3395 36.7246 70.3066C38.4376 73.3594 40.5515 76.1577 43.0298 78.6654C45.4717 81.1366 48.2052 83.2808 51.1938 85.0616Z" fill="#54362C"/>
<path d="M103.531 80.6998C106.264 77.7924 108.56 74.5216 110.419 71.0327C106.702 78.0468 101.052 84.0069 94.2734 88.1136C94.237 88.1499 94.2005 88.1499 94.1641 88.1863C94.1641 88.2226 94.2005 88.2589 94.2005 88.2589C94.2369 88.2226 94.2734 88.2226 94.3098 88.1863C97.6993 86.1147 100.797 83.6071 103.531 80.6998Z" fill="#54362C"/>
<path d="M92.1979 84.7706C94.9314 83.0988 97.4826 81.1 99.7423 78.8468C102.221 76.3755 104.371 73.5772 106.084 70.5244C102.731 76.3028 97.8835 81.209 92.125 84.6979C92.1614 84.7342 92.1979 84.7342 92.1979 84.7706Z" fill="#54362C"/>
<path d="M48.8618 88.3318C48.8982 88.3682 48.9711 88.4045 49.044 88.4409C49.044 88.4045 49.0805 88.3682 49.0805 88.3682C49.044 88.3318 48.9711 88.2955 48.9347 88.2591C42.1192 84.1888 36.4336 78.265 32.6797 71.251C34.5384 74.7398 36.871 78.0106 39.6045 80.8817C42.3379 83.7891 45.4723 86.2967 48.8618 88.3318Z" fill="#54362C"/>
<path d="M47.8421 91.4216C47.5141 91.2398 47.1861 91.0581 46.8581 90.8401C39.423 86.2973 33.2637 79.683 29.291 71.9058C31.2591 75.7944 33.7739 79.4286 36.726 82.6267C39.6782 85.8248 43.0677 88.6232 46.8216 90.9128C47.1497 91.1308 47.4777 91.3125 47.8421 91.4942C47.8057 91.4579 47.8421 91.4579 47.8421 91.4216Z" fill="#54362C"/>
<path d="M96.5341 90.5491C96.1697 90.8035 95.7688 91.0216 95.4043 91.2396C95.4043 91.276 95.4043 91.3123 95.4408 91.3487C95.8417 91.1306 96.2426 90.8762 96.607 90.6218C100.288 88.2959 103.678 85.4612 106.593 82.2268C109.509 78.9923 111.987 75.3581 113.883 71.4331C110.019 79.2467 103.933 85.9337 96.5341 90.5491Z" fill="#54362C"/>
<path d="M46.4923 14.8483L47.4399 14.1941L47.6951 14.5576L46.7475 15.2117L47.6586 16.5564L48.9342 15.6842L49.1529 16.0476L47.4764 17.1742L44.998 13.5763L46.6746 12.4497L46.8933 12.8131L45.6541 13.649L46.4923 14.8483Z" fill="#54362C"/>
<path d="M48.1685 11.5415L51.2664 14.776L50.8291 15.0304L49.9544 14.0855L49.1161 14.5943L49.5535 15.8299L49.1526 16.0843L47.7676 11.8322L48.1685 11.5415ZM49.6628 13.7947L48.2049 12.123L48.9703 14.1945L49.6628 13.7947Z" fill="#54362C"/>
<path d="M49.8812 11.0689L49.1158 11.4686L48.9336 11.1052L50.8652 10.0513L51.0475 10.451L50.3185 10.8508L52.1773 14.3033L51.74 14.5577L49.8812 11.0689Z" fill="#54362C"/>
<path d="M62.8184 6.01724L63.5473 5.90822C64.0575 5.83553 64.3855 5.83553 64.7135 6.05359C65.1509 6.30798 65.4789 7.03483 65.6247 7.76167C65.7705 8.5612 65.6247 9.32439 65.3331 9.68781C65.0416 10.0876 64.5313 10.1966 64.3491 10.2329L63.5473 10.3783L62.8184 6.01724ZM63.9482 9.83318L64.2762 9.76049C64.7865 9.68781 64.9322 9.36073 64.9687 9.28805C65.1145 8.99731 65.1873 8.52486 65.078 7.83436C64.9687 7.21654 64.8229 6.88946 64.6771 6.70775C64.3855 6.27164 64.0211 6.2353 63.6931 6.30798L63.4015 6.34432L63.9482 9.83318Z" fill="#54362C"/>
<path d="M66.1367 5.50886L67.1208 5.43617C67.4852 5.39983 67.8497 5.36349 68.1777 5.7996C68.3964 6.05399 68.4328 6.34473 68.4693 6.56278C68.5057 6.99889 68.4328 7.25329 68.3599 7.39866C68.2506 7.61671 68.1048 7.68939 67.9955 7.76208L68.8702 9.68822L68.3235 9.72456L67.5217 7.87111L66.9021 7.94379L67.0479 9.79724L66.5376 9.83359L66.1367 5.50886ZM66.8292 7.47134L67.303 7.435C67.5217 7.39866 67.6675 7.39866 67.8132 7.1806C67.9226 7.03523 67.959 6.7445 67.959 6.56278C67.959 6.45376 67.8861 6.16302 67.7039 5.94497C67.5946 5.83594 67.4123 5.7996 67.1572 5.83594L66.7198 5.87228L66.8292 7.47134Z" fill="#54362C"/>
<path d="M69.582 5.24504L69.0723 5.26807L69.2702 9.62477L69.78 9.60175L69.582 5.24504Z" fill="#54362C"/>
<path d="M70.5833 5.21777H71.1665L72.5514 8.63394V5.21777H72.9888L72.9523 9.57884H72.4785L70.9842 5.83559L71.0207 9.57884H70.5469L70.5833 5.21777Z" fill="#54362C"/>
<path d="M75.6504 9.79648L74.9215 7.43423L74.3383 8.23376L74.229 9.68745L73.7188 9.65111L74.0832 5.29004L74.557 5.32638L74.4112 7.50692L75.7962 5.39907L76.3064 5.47175L75.2495 6.96178L76.2335 9.83282L75.6504 9.79648Z" fill="#54362C"/>
<path d="M87.9691 8.30692L87.313 12.7043L86.8392 12.5226L87.0214 11.2506L86.1103 10.8872L85.4178 11.9775L84.9805 11.7958L87.4952 8.08887L87.9691 8.30692ZM87.1308 10.8509L87.5317 8.67034L86.3654 10.5601L87.1308 10.8509Z" fill="#54362C"/>
<path d="M89.4245 8.88818L89.8619 9.06989L88.2583 12.6678L89.4974 13.2493L89.3516 13.6127L87.6387 12.8495L89.4245 8.88818Z" fill="#54362C"/>
<path d="M92.8156 12.9218C92.4876 13.576 92.0867 14.0484 91.6493 14.3392C91.1391 14.6299 90.7382 14.4119 90.6288 14.3755C89.8635 13.9758 89.7906 13.1399 90.5195 11.7952C91.0297 10.8503 91.7951 9.86909 92.7427 10.3779C93.581 10.814 93.3987 11.8316 92.8156 12.9218ZM90.9933 11.9406C90.3008 13.2489 90.3737 13.7577 90.7746 13.9758C91.2848 14.2302 91.7951 13.7214 92.3053 12.7038C92.8885 11.6135 92.9614 10.9594 92.4876 10.705C92.0502 10.4869 91.54 10.8503 90.9933 11.9406Z" fill="#54362C"/>
<path d="M95.1475 14.0125L96.1315 12.4498L96.5689 12.7042L94.2363 16.4111L93.8354 16.1567L94.9288 14.3759L93.8354 13.6854L92.742 15.4662L92.3047 15.2118L94.6373 11.5049L95.0382 11.7593L94.0541 13.322L95.1475 14.0125Z" fill="#54362C"/>
<path d="M98.3177 13.9399L96.5683 18.0465L96.1674 17.7558L96.6777 16.5565L95.8758 15.975L94.9282 16.8473L94.5273 16.5565L97.9168 13.6128L98.3177 13.9399ZM96.8235 16.1931L97.771 14.1943L96.1674 15.7206L96.8235 16.1931Z" fill="#54362C"/>
<path d="M52.3595 89.4222L53.4165 89.8947L53.2342 90.2944L52.1773 89.822L51.4848 91.2757L52.8698 91.9298L52.6875 92.3296L50.8652 91.4574L52.6875 87.4961L54.5099 88.332L54.3276 88.7317L52.9791 88.1139L52.3595 89.4222Z" fill="#54362C"/>
<path d="M54.5472 88.4048L55.021 88.5865L54.2921 92.0027L56.1144 88.9863L56.5153 89.1316L55.9322 92.6205L57.6452 89.5677L58.0461 89.7131L55.7864 93.529L55.3491 93.3837L55.9322 90.0038L54.1828 92.9112L53.709 92.7659L54.5472 88.4048Z" fill="#54362C"/>
<path d="M59.5036 90.1131L59.1756 94.5832L58.7018 94.4379L58.8112 93.1659L57.8636 92.8752L57.244 94.0018L56.8066 93.8564L59.0299 89.9678L59.5036 90.1131ZM58.8476 92.7298L59.1027 90.5129L58.0823 92.4754L58.8476 92.7298Z" fill="#54362C"/>
<path d="M62.1644 90.8037L63.0756 90.9854C63.6223 91.0944 63.841 91.2762 63.9503 91.5306C64.0961 91.8213 64.0596 92.1484 64.0232 92.2937C63.9868 92.4391 63.9139 92.8025 63.6587 92.9842C63.5494 93.0933 63.4036 93.0933 63.2943 93.1296C63.4765 93.2386 63.9139 93.493 63.7681 94.3653C63.6952 94.765 63.4765 95.1648 63.112 95.3101C62.8569 95.4192 62.456 95.3465 62.2738 95.3101L61.3262 95.1284L62.1644 90.8037ZM61.8729 94.8014L62.3467 94.9104C62.7476 94.9831 63.112 94.9831 63.2578 94.2199C63.4036 93.4204 62.8934 93.3113 62.6382 93.275L62.2009 93.2023L61.8729 94.8014ZM62.2738 92.7662L62.6747 92.8389C63.1485 92.9479 63.4036 92.8389 63.5129 92.2574C63.6587 91.5306 63.1849 91.4579 62.9298 91.3852L62.5654 91.3125L62.2738 92.7662Z" fill="#54362C"/>
<path d="M65.1163 93.2753L66.2826 93.4206L66.2097 93.8567L65.0798 93.675L64.8611 95.3104L66.3919 95.4921L66.319 95.9282L64.3145 95.6738L64.8976 91.3491L66.8657 91.6035L66.7928 92.0033L65.3349 91.8216L65.1163 93.2753Z" fill="#54362C"/>
<path d="M68.3959 91.7121L69.0519 96.1459L68.5417 96.1095L68.3594 94.8376L67.3754 94.7649L67.0109 96.0005L66.5371 95.9642L67.8856 91.6758L68.3959 91.7121ZM68.2865 94.4014L68.0679 92.1846L67.4847 94.3288L68.2865 94.4014Z" fill="#54362C"/>
<path d="M71.4955 93.056C71.4591 92.6926 71.3497 92.1475 70.8759 92.1475C70.475 92.1475 70.3292 92.5109 70.2564 92.7289C70.1835 92.9833 70.1106 93.3104 70.1106 94.0009C70.1106 94.5461 70.147 95.2366 70.4386 95.6C70.5479 95.7453 70.7302 95.7817 70.8395 95.7817C71.3133 95.7817 71.4226 95.3456 71.4955 94.9458L71.9329 95.0185C71.7871 95.6363 71.5684 96.2178 70.803 96.1815C70.475 96.1815 70.2199 96.0361 70.0741 95.8907C69.6732 95.4546 69.5639 94.7278 69.6003 93.9646C69.6003 93.6375 69.6368 92.5472 70.147 91.9658C70.3657 91.7114 70.6937 91.6387 70.9124 91.6387C71.7506 91.6387 71.9329 92.3655 72.0058 92.8743L71.4955 93.056Z" fill="#54362C"/>
<path d="M74.3015 93.6017L74.1921 91.7483L74.7024 91.7119L74.921 96.073L74.4108 96.1093L74.3015 94.0015L73.0258 94.0742L73.1352 96.1457L72.6249 96.182L72.4062 91.8209L72.9165 91.7846L72.9894 93.6381L74.3015 93.6017Z" fill="#54362C"/>
<path d="M76.4158 95.2002L76.4887 95.927L76.1971 96.7629L75.942 96.7993L76.1607 95.9634H75.942L75.8691 95.2729L76.4158 95.2002Z" fill="#54362C"/>
<path d="M79.9869 92.8749L79.6589 91.0214L80.1327 90.9487L80.9345 95.2371L80.4243 95.3461L80.0598 93.2746L78.7842 93.4927L79.1487 95.5642L78.6749 95.6369L77.873 91.3485L78.3833 91.2758L78.7113 93.0929L79.9869 92.8749Z" fill="#54362C"/>
<path d="M81.9901 90.5122L83.9946 94.5099L83.4843 94.6189L82.9012 93.4559L81.9536 93.7103L81.9901 95.0186L81.5163 95.1277L81.4434 90.6576L81.9901 90.5122ZM82.7554 93.0925L81.8443 91.0573L81.9536 93.2742L82.7554 93.0925Z" fill="#54362C"/>
<path d="M82.9395 90.2948L83.4133 90.1494L85.0169 93.2385L84.5431 89.7497L84.9076 89.6406L86.657 92.6934L86.0374 89.2772L86.4747 89.1318L87.1672 93.4929L86.6934 93.6383L85.0169 90.6582L85.4907 94.038L85.0534 94.1834L82.9395 90.2948Z" fill="#54362C"/>
<path d="M87.8566 88.5146L90.4443 92.1852L89.9705 92.3669L89.2416 91.313L88.3304 91.6764L88.5491 92.9484L88.1117 93.1301L87.3828 88.6964L87.8566 88.5146ZM88.9865 90.9859L87.7837 89.1325L88.2211 91.313L88.9865 90.9859Z" fill="#54362C"/>
<path d="M89.5855 87.7748L89.123 87.9897L90.9709 91.9426L91.4334 91.7277L89.5855 87.7748Z" fill="#54362C"/>
<path d="M90.7874 87.1766L90.332 87.4062L92.3058 91.2981L92.7612 91.0684L90.7874 87.1766Z" fill="#54362C"/>
<path d="M16.6432 42.6133C16.6068 41.3413 16.3881 40.4327 15.8778 39.8512C15.4405 39.3061 14.8209 39.0881 13.9097 39.0881C12.4519 39.0881 11.1763 40.251 11.1763 42.6496V48.6824H11.2856C12.1603 46.8653 14.7844 45.7023 17.6637 45.7023C23.0577 45.7023 26.7024 48.319 26.7024 57.1865C26.7024 67.435 22.1466 71.4327 14.0191 71.4327C5.34488 71.4327 0.898438 67.6894 0.898438 55.3694V51.1537C0.898438 39.5242 2.68431 32.8735 13.9826 32.8735C23.7867 32.8735 25.937 37.5617 25.9734 42.5769H16.6432V42.6133ZM13.9826 65.2545C15.8414 65.2545 16.7525 63.9098 16.7525 59.0763C16.7525 54.2064 16.0601 52.8981 13.9826 52.8981C12.1239 52.8981 11.2127 54.2428 11.2127 59.0763C11.1763 63.9098 11.8688 65.2545 13.9826 65.2545Z" fill="#54362C"/>
<path d="M33.555 33.9277C26.5209 33.9277 20.7988 39.6335 20.7988 46.6475C20.7988 53.6616 26.5209 59.3673 33.555 59.3673C40.5891 59.3673 46.3112 53.6616 46.3112 46.6475C46.3112 39.6335 40.5891 33.9277 33.555 33.9277ZM45.0356 51.0086C44.9991 50.8632 44.9991 50.7179 45.0356 50.5361C45.1085 50.0637 45.2907 49.6276 45.5094 49.4822C45.4 49.991 45.2178 50.4998 45.0356 51.0086ZM43.9786 53.1528C43.9786 53.0438 43.9786 52.8984 44.0151 52.753C44.1609 52.2079 44.4889 51.6627 44.7805 51.5537H44.8169C44.5618 52.0989 44.2702 52.644 43.9786 53.1528ZM41.2452 56.2055C40.8443 56.3146 40.6256 56.0965 40.8078 55.6604C40.99 55.1879 41.5003 54.6428 41.9376 54.4611C42.375 54.2794 42.5937 54.5701 42.4115 55.0062C42.375 55.0789 42.375 55.1153 42.3386 55.1879C41.9741 55.5514 41.6096 55.8784 41.2452 56.2055ZM34.3568 58.8585C33.9195 58.8222 33.5915 58.6041 33.5915 58.3497C33.5915 58.0226 34.1746 57.7319 34.9035 57.6592C35.596 57.6229 36.1062 57.8409 35.9969 58.168C35.924 58.4224 35.6325 58.6405 35.2315 58.7495C34.9764 58.7858 34.6484 58.8222 34.3568 58.8585ZM31.1496 58.6405C30.8944 58.5314 30.7487 58.3497 30.6758 58.168C30.6029 57.8409 31.0767 57.5865 31.7692 57.6592C32.4616 57.6956 33.0448 58.0226 33.0812 58.3497C33.0812 58.5678 32.8261 58.7495 32.4616 58.8222C32.0243 58.7858 31.5869 58.7131 31.1496 58.6405ZM28.0152 57.5502C27.9788 57.2595 28.3068 57.1141 28.8899 57.2231C29.5095 57.3685 30.1291 57.7682 30.202 58.0953C30.2384 58.2043 30.202 58.3134 30.1291 58.3861C29.4001 58.168 28.7077 57.9136 28.0152 57.5502ZM23.8968 54.0977C23.8603 54.0977 23.8603 54.0613 23.8239 54.0613C23.4959 53.6252 23.2043 53.1891 22.9492 52.7167C22.8763 52.2442 23.0585 51.9535 23.3865 52.0989C23.751 52.2442 24.1883 52.8257 24.3706 53.4072C24.4799 53.9887 24.2612 54.243 23.8968 54.0977ZM21.8558 50.3181C21.8558 49.882 22.0016 49.5912 22.2567 49.6639C22.5482 49.7366 22.8763 50.3181 22.9856 50.9359C23.0949 51.5537 22.9127 51.9535 22.5847 51.8081C22.5118 51.7718 22.4389 51.7354 22.366 51.6627C22.1838 51.2266 22.0016 50.7905 21.8558 50.3181ZM21.3091 47.4834C21.382 47.4107 21.4549 47.3744 21.5278 47.3744C21.7829 47.3744 22.038 47.8832 22.0744 48.501C22.1109 49.1188 21.9287 49.5912 21.6371 49.5186C21.4913 48.8644 21.382 48.1739 21.3091 47.4834ZM25.5733 37.3439C25.7191 37.2712 25.8284 37.1985 25.9742 37.1259C26.4115 36.9805 26.7031 37.1259 26.5209 37.4893C26.3751 37.8527 25.8284 38.3251 25.3911 38.5069C24.9537 38.6886 24.735 38.4705 24.8808 38.0708C24.9173 37.9254 25.0266 37.8164 25.1359 37.671C25.2817 37.5983 25.4275 37.4893 25.5733 37.3439ZM28.0881 35.6722C28.161 35.7448 28.1974 35.8175 28.161 35.9629C28.0516 36.2536 27.5049 36.6534 27.0311 36.7988C26.7031 36.9078 26.448 36.8715 26.4116 36.7261C26.9218 36.3263 27.4685 35.9992 28.0881 35.6722ZM36.6894 34.7999C36.6165 34.9817 36.2885 35.0543 35.8511 34.9817C35.3044 34.909 34.7942 34.6909 34.7577 34.4365C35.4138 34.5092 36.0698 34.6182 36.6894 34.7999ZM43.6142 39.5971C43.9786 40.1423 44.3431 40.6874 44.6347 41.3052C44.5618 41.3416 44.4889 41.3416 44.3795 41.3052C44.0515 41.1598 43.6871 40.651 43.5413 40.1786C43.3955 39.8515 43.4319 39.6335 43.6142 39.5971ZM45.4 43.3767C45.1085 43.2677 44.7804 42.7589 44.6711 42.2501C44.5982 41.923 44.6347 41.6686 44.744 41.5959C44.9991 42.1774 45.2178 42.7589 45.4 43.3767ZM37.7099 42.3955C37.6005 41.5959 38.1472 41.1235 38.8397 41.2689C39.5322 41.4142 40.1882 42.1047 40.2976 42.8316C40.4433 43.5948 40.006 44.1399 39.2406 44.0309C38.5481 43.9945 37.8192 43.195 37.7099 42.3955ZM37.6734 47.3744C36.7987 47.3744 35.9969 46.5385 35.9605 45.5209C35.924 44.5033 36.6529 43.8128 37.5276 43.8855C38.4024 43.9582 39.0948 44.7577 39.1313 45.6663C39.2042 46.5748 38.5482 47.3744 37.6734 47.3744ZM40.7349 44.2853C41.3545 44.3943 41.8283 45.0848 41.9012 45.8843C41.9376 46.6839 41.5367 47.338 40.9171 47.338C40.334 47.338 39.7509 46.5748 39.7144 45.7026C39.6415 44.7941 40.1153 44.1762 40.7349 44.2853ZM40.7714 42.977C40.6256 42.2501 40.99 41.814 41.5003 41.9957C42.0105 42.1411 42.4843 42.7952 42.5937 43.4494C42.703 44.1399 42.4479 44.6124 41.9376 44.5397C41.4274 44.4306 40.8807 43.7038 40.7714 42.977ZM40.2611 41.6323C39.6415 41.4869 38.9855 40.7964 38.8397 40.2149C38.6939 39.6335 39.0948 39.3064 39.678 39.4881C40.2611 39.6698 40.8443 40.2513 40.99 40.8328C41.1723 41.3779 40.8807 41.7777 40.2611 41.6323ZM38.3295 39.1247C37.6734 38.9793 36.981 38.4705 36.8716 38.0344C36.7623 37.5983 37.1996 37.3802 37.8192 37.4893C38.4388 37.6346 39.0219 38.0707 39.2042 38.5432C39.35 39.0156 38.9855 39.27 38.3295 39.1247ZM38.3295 40.0696C38.4753 40.651 37.965 41.0872 37.1632 40.9781C36.3614 40.8691 35.596 40.2513 35.5231 39.6335C35.4502 39.052 36.0334 38.6886 36.7623 38.7976C37.5277 38.943 38.2201 39.4881 38.3295 40.0696ZM37.0903 42.3228C37.1996 43.1223 36.5072 43.7765 35.5231 43.7401C34.5391 43.7038 33.7372 42.9406 33.7008 42.1047C33.7008 41.2689 34.4297 40.7237 35.3044 40.7964C36.1791 40.8691 36.981 41.5233 37.0903 42.3228ZM35.2315 45.4846C35.268 46.5021 34.4297 47.338 33.3728 47.338C32.3158 47.338 31.4776 46.5021 31.4776 45.4846C31.514 44.467 32.3523 43.6675 33.3728 43.6675C34.3933 43.7038 35.2315 44.5033 35.2315 45.4846ZM31.186 43.7401C30.202 43.7765 29.5459 43.1223 29.6188 42.3228C29.7282 41.5233 30.4935 40.8691 31.3682 40.7964C32.2429 40.7237 33.0083 41.3052 32.9719 42.1047C32.9719 42.9406 32.17 43.7038 31.186 43.7401ZM27.5778 45.6663C27.6143 44.7577 28.3432 43.9582 29.1815 43.8855C30.0562 43.8128 30.7851 44.5033 30.7487 45.5209C30.7122 46.5385 29.9104 47.3744 29.0357 47.3744C28.161 47.3744 27.5049 46.5748 27.5778 45.6663ZM27.432 44.0672C26.7031 44.1762 26.2658 43.5948 26.3751 42.8679C26.5209 42.1047 27.1405 41.4506 27.833 41.3052C28.5254 41.1598 29.0721 41.6323 28.9628 42.4318C28.8899 43.195 28.161 43.9945 27.432 44.0672ZM31.186 39.6698C31.1131 40.2513 30.3477 40.8691 29.5459 41.0145C28.7441 41.1235 28.2339 40.6874 28.3797 40.1059C28.5254 39.5244 29.2179 38.943 29.9468 38.8339C30.6758 38.7249 31.2589 39.052 31.186 39.6698ZM29.8375 38.0344C29.7282 38.4705 29.0357 38.9793 28.3797 39.1247C27.7236 39.27 27.3592 39.0156 27.5049 38.5432C27.6507 38.0707 28.2703 37.6346 28.8899 37.4893C29.5095 37.3439 29.9468 37.562 29.8375 38.0344ZM27.8694 40.2149C27.7236 40.7964 27.0676 41.4869 26.448 41.6323C25.8284 41.7777 25.5368 41.4142 25.7191 40.8328C25.9013 40.2513 26.448 39.6698 27.0311 39.4881C27.6143 39.3064 28.0152 39.5971 27.8694 40.2149ZM25.9378 42.977C25.792 43.7038 25.2817 44.4306 24.7715 44.5397C24.2612 44.6487 24.0061 44.1399 24.1154 43.4494C24.2248 42.7589 24.6986 42.1411 25.2088 41.9957C25.7555 41.814 26.0835 42.2138 25.9378 42.977ZM24.8444 45.8843C24.8808 45.0848 25.3911 44.3943 26.0107 44.2853C26.6302 44.1762 27.104 44.7941 27.0311 45.7026C26.9947 46.6112 26.4116 47.338 25.8284 47.338C25.2088 47.3744 24.8079 46.6839 24.8444 45.8843ZM27.2498 47.3744C27.9787 47.3744 28.6712 48.1739 28.7077 49.1188C28.7441 50.0637 28.161 50.7542 27.432 50.6452C26.7031 50.5361 26.12 49.8093 26.0471 48.9371C26.0106 48.0649 26.5209 47.3744 27.2498 47.3744ZM29.1815 50.8269C30.0562 50.8996 30.858 51.6991 30.9309 52.4986C31.0038 53.2981 30.3477 53.8433 29.5459 53.6979C28.7441 53.5889 28.0152 52.8984 27.9058 52.0989C27.7601 51.372 28.3067 50.7542 29.1815 50.8269ZM29.3637 49.1551C29.3272 48.1739 30.0562 47.3744 31.0767 47.3744C32.0972 47.3744 32.9354 48.2466 32.9354 49.2642C32.9354 50.2817 32.1336 51.0449 31.1496 51.0086C30.202 50.9359 29.4001 50.1364 29.3637 49.1551ZM33.3728 51.0086C34.3933 51.0086 35.1587 51.6991 35.1222 52.535C35.0858 53.3345 34.2839 53.9887 33.3728 53.9887C32.4616 53.9887 31.6598 53.3708 31.6234 52.535C31.5505 51.7354 32.3523 51.0086 33.3728 51.0086ZM33.7372 49.2278C33.7372 48.2102 34.612 47.338 35.596 47.338C36.6165 47.338 37.3454 48.1375 37.309 49.1188C37.2725 50.1 36.4707 50.8996 35.4867 50.9359C34.5391 51.0086 33.7372 50.2454 33.7372 49.2278ZM35.7782 52.4986C35.8511 51.6991 36.6529 50.8996 37.5276 50.8269C38.4024 50.7542 38.949 51.372 38.8397 52.1352C38.7304 52.8984 38.0014 53.5889 37.1996 53.7343C36.3614 53.8433 35.7418 53.3345 35.7782 52.4986ZM37.965 49.1188C38.0015 48.1739 38.6939 47.3744 39.4229 47.3744C40.1518 47.3744 40.662 48.1012 40.6256 48.9371C40.5891 49.8093 39.9695 50.5361 39.2406 50.6452C38.5481 50.7542 37.9286 50.0637 37.965 49.1188ZM39.35 52.0625C39.4593 51.2993 40.1153 50.5361 40.6985 50.4271C41.3181 50.3181 41.6461 50.8632 41.5367 51.5537C41.4274 52.2806 40.8443 52.9347 40.2611 53.0801C39.678 53.2618 39.2406 52.8257 39.35 52.0625ZM41.0994 48.9007C41.1358 48.0649 41.6096 47.3744 42.0834 47.3744C42.5572 47.3744 42.9217 47.9922 42.8852 48.719C42.8488 49.4459 42.4114 50.1364 41.9376 50.2091C41.4274 50.3181 41.0265 49.7366 41.0994 48.9007ZM42.2292 45.957C42.1928 45.1938 42.4843 44.6487 42.8852 44.7214C43.2862 44.7941 43.6506 45.4119 43.6871 46.1024C43.7235 46.7929 43.4319 47.338 43.031 47.338C42.6666 47.3744 42.3021 46.7202 42.2292 45.957ZM43.1768 48.6827C43.2133 47.9558 43.5413 47.3744 43.8693 47.3744C44.1973 47.3744 44.4524 47.8832 44.416 48.5373C44.3795 49.1915 44.088 49.7366 43.7235 49.8456C43.3955 49.882 43.1404 49.4095 43.1768 48.6827ZM43.9786 46.1387C43.9422 45.4482 44.1609 44.9758 44.4524 45.0485C44.744 45.1211 45.0356 45.6663 45.0356 46.2478C45.072 46.8656 44.8533 47.338 44.5618 47.338C44.2702 47.3744 44.0151 46.7929 43.9786 46.1387ZM43.7235 44.9031C43.359 44.8304 42.9946 44.2126 42.8852 43.5221C42.7759 42.8679 42.9946 42.4682 43.359 42.6135C43.7235 42.7589 44.088 43.3404 44.1973 43.9219C44.2702 44.5397 44.088 44.9758 43.7235 44.9031ZM42.4843 42.2865C42.047 42.1411 41.5367 41.4869 41.3909 40.9054C41.2452 40.324 41.5003 40.0332 41.9376 40.2149C42.375 40.3967 42.8488 40.9418 42.9946 41.4869C43.1404 42.1047 42.9217 42.4682 42.4843 42.2865ZM41.3181 38.5432C40.8807 38.3615 40.334 37.889 40.1882 37.5256C40.0424 37.1622 40.2976 36.9805 40.7349 37.1622C41.1723 37.3076 41.6461 37.7437 41.8283 38.1434C41.9741 38.5432 41.7554 38.7249 41.3181 38.5432ZM40.2611 38.1798C40.7714 38.3615 41.2816 38.8339 41.4638 39.3064C41.6461 39.7788 41.391 40.0332 40.8807 39.8515C40.3705 39.6698 39.7873 39.1247 39.6051 38.6522C39.4593 38.2161 39.7873 37.9981 40.2611 38.1798ZM39.0948 37.8164C38.5481 37.671 37.9286 37.2349 37.8192 36.8715C37.7099 36.508 38.0379 36.3627 38.5846 36.508C39.1313 36.6534 39.6415 37.0532 39.7873 37.4166C39.9695 37.78 39.678 37.9617 39.0948 37.8164ZM37.3819 36.2173C36.7987 36.1083 36.252 35.7812 36.1791 35.4904C36.1062 35.1997 36.5071 35.0543 37.0174 35.1634C37.5641 35.2724 38.0743 35.5631 38.1837 35.8902C38.293 36.181 37.965 36.3263 37.3819 36.2173ZM37.3819 36.7624C37.4912 37.1259 37.0903 37.3076 36.3978 37.1985C35.7418 37.0895 35.1222 36.7624 35.0493 36.399C35.0129 36.0719 35.4502 35.8902 36.0698 35.9629C36.6894 36.0719 37.2725 36.4353 37.3819 36.7624ZM36.3249 37.9254C36.4343 38.3615 35.8876 38.6886 35.0857 38.6159C34.2839 38.5432 33.6279 38.1434 33.6279 37.7073C33.6279 37.2712 34.1746 36.9805 34.9035 37.0532C35.596 37.1259 36.252 37.4893 36.3249 37.9254ZM34.9035 39.5971C34.94 40.1786 34.2475 40.7237 33.3363 40.7237C32.4252 40.7237 31.7327 40.2149 31.7692 39.5971C31.8056 39.0156 32.4981 38.5432 33.3363 38.5432C34.1746 38.5432 34.8671 39.0156 34.9035 39.5971ZM31.5869 38.6159C30.7851 38.6886 30.2748 38.3615 30.3477 37.9254C30.4206 37.4893 31.0767 37.0895 31.7692 37.0532C32.4616 37.0168 33.0448 37.3076 33.0448 37.7073C33.0448 38.1434 32.3887 38.5795 31.5869 38.6159ZM31.6598 36.4353C31.6234 36.7624 31.0038 37.1259 30.3113 37.2349C29.6188 37.3439 29.2179 37.1259 29.3273 36.7988C29.4366 36.4353 30.0197 36.1083 30.6029 36.0356C31.2225 35.9266 31.6963 36.1083 31.6598 36.4353ZM30.53 35.4904C30.4571 35.7812 29.9104 36.0719 29.3273 36.2173C28.7441 36.3263 28.4161 36.181 28.5254 35.8902C28.6348 35.5995 29.145 35.2724 29.6917 35.1634C30.202 35.0907 30.6029 35.2361 30.53 35.4904ZM28.8899 36.8715C28.7806 37.2349 28.161 37.671 27.6143 37.8164C27.0676 37.9617 26.7396 37.78 26.9218 37.4166C27.0676 37.0532 27.6143 36.6534 28.1245 36.508C28.6348 36.3627 28.9992 36.508 28.8899 36.8715ZM27.104 38.6522C26.9583 39.1247 26.3387 39.6698 25.8284 39.8515C25.3182 40.0332 25.063 39.7788 25.2453 39.3064C25.4275 38.8339 25.9377 38.3615 26.448 38.1798C26.9582 37.9981 27.2498 38.2161 27.104 38.6522ZM25.3182 40.9418C25.1724 41.5233 24.6621 42.1411 24.2248 42.3228C23.7874 42.4682 23.6052 42.1047 23.751 41.5596C23.8968 41.0145 24.3706 40.433 24.8079 40.2876C25.2453 40.0696 25.5004 40.3603 25.3182 40.9418ZM23.8239 43.5221C23.7145 44.1762 23.3136 44.7941 22.9856 44.9031C22.6211 44.9758 22.4389 44.5397 22.5483 43.9219C22.6576 43.304 23.0221 42.7589 23.3865 42.6135C23.7145 42.4682 23.9332 42.8679 23.8239 43.5221ZM23.4594 41.6686C23.3136 42.2138 22.9127 42.7952 22.6211 42.9043C22.3296 43.0133 22.1473 42.6862 22.2567 42.1774C22.366 41.6686 22.7305 41.1235 23.095 40.9781C23.423 40.8328 23.6052 41.0872 23.4594 41.6686ZM22.7669 46.1387C22.7305 46.7929 22.4754 47.3744 22.1838 47.3744C21.8922 47.3744 21.6735 46.8656 21.71 46.2841C21.7464 45.6663 22.0016 45.1575 22.2931 45.0848C22.5847 44.9758 22.8034 45.4482 22.7669 46.1387ZM22.8398 47.3744C23.1678 47.3744 23.4958 47.9558 23.5323 48.6827C23.5687 49.4095 23.3136 49.9183 22.9856 49.8456C22.6211 49.773 22.3296 49.1915 22.2931 48.5373C22.2567 47.8832 22.5118 47.3744 22.8398 47.3744ZM22.9856 46.1024C23.022 45.4119 23.3865 44.7941 23.7874 44.7214C24.1883 44.6487 24.5163 45.1575 24.4434 45.957C24.407 46.7202 24.0061 47.3744 23.6052 47.3744C23.2043 47.3744 22.9492 46.7929 22.9856 46.1024ZM24.6257 47.3744C25.0995 47.3744 25.5733 48.0649 25.6097 48.9007C25.6462 49.7366 25.2817 50.3181 24.7715 50.2091C24.2612 50.1 23.8603 49.4459 23.8239 48.719C23.7874 47.9558 24.1154 47.3744 24.6257 47.3744ZM25.9742 50.4271C26.5938 50.5361 27.2134 51.2993 27.3227 52.0625C27.432 52.8257 27.0311 53.2618 26.4116 53.1164C25.792 52.9711 25.2453 52.2806 25.1359 51.5901C25.0266 50.8632 25.3911 50.3181 25.9742 50.4271ZM27.0311 55.2243C27.6143 55.406 28.2703 55.9511 28.4161 56.3872C28.5619 56.8233 28.1974 57.0414 27.6143 56.896C27.0676 56.7507 26.4844 56.2419 26.3387 55.7694C26.1564 55.3333 26.448 55.0789 27.0311 55.2243ZM28.3797 55.5877C27.7236 55.4423 27.0676 54.8609 26.9218 54.2794C26.776 53.6979 27.1405 53.2982 27.8694 53.4435C28.5619 53.5889 29.2908 54.243 29.4366 54.8245C29.5459 55.4423 29.0721 55.7331 28.3797 55.5877ZM29.9468 55.8784C30.6758 55.9875 31.3682 56.4599 31.4411 56.896C31.514 57.3321 31.0038 57.5865 30.3113 57.4775C29.6188 57.3685 29.0357 56.9324 28.8899 56.4963C28.7441 56.0602 29.1815 55.7694 29.9468 55.8784ZM29.9833 54.9335C29.8739 54.3521 30.4571 53.8796 31.3682 53.9523C32.2429 54.025 33.0083 54.5701 33.0083 55.1879C33.0083 55.7694 32.3887 56.1692 31.5869 56.1328C30.8216 56.0238 30.0926 55.515 29.9833 54.9335ZM33.3728 56.1692C34.1746 56.1692 34.7942 56.5326 34.7577 56.9687C34.7213 57.4048 34.1017 57.7319 33.3728 57.7319C32.6438 57.7319 32.0243 57.4048 31.9878 56.9687C31.9514 56.5326 32.5345 56.1692 33.3728 56.1692ZM33.6644 55.1516C33.6644 54.5701 34.4297 53.9886 35.3044 53.916C36.1791 53.8433 36.7987 54.3157 36.6894 54.8972C36.5801 55.4787 35.8876 55.9875 35.0857 56.0602C34.3204 56.1328 33.6644 55.7331 33.6644 55.1516ZM35.3044 56.896C35.3773 56.4599 36.0698 55.9875 36.7987 55.8784C37.5276 55.7694 38.0015 56.0602 37.8557 56.4963C37.7099 56.9324 37.0903 57.3685 36.4343 57.4775C35.7418 57.5865 35.2315 57.3321 35.3044 56.896ZM37.2725 54.8245C37.3819 54.243 38.1108 53.5889 38.8397 53.4435C39.5322 53.2982 39.9331 53.6979 39.7873 54.2794C39.6415 54.8609 38.9855 55.4423 38.3295 55.5877C37.637 55.7331 37.1632 55.4423 37.2725 54.8245ZM38.3295 56.3872C38.4753 55.9511 39.0948 55.406 39.7144 55.2243C40.2976 55.0426 40.5891 55.3333 40.4433 55.7694C40.2611 56.2419 39.7144 56.7143 39.1677 56.896C38.5481 57.0777 38.1837 56.8597 38.3295 56.3872ZM40.2247 54.1704C40.3705 53.5889 40.99 52.9347 41.4638 52.753C41.9741 52.6076 42.2292 52.9711 42.047 53.5525C41.8648 54.134 41.391 54.6792 40.8807 54.8609C40.3705 55.0426 40.0424 54.7518 40.2247 54.1704ZM41.9376 51.4447C42.047 50.7542 42.5208 50.0637 42.9217 49.991C43.3226 49.9183 43.5777 50.3544 43.4684 51.0086C43.359 51.6627 42.9581 52.2442 42.5208 52.3896C42.047 52.5713 41.7918 52.1715 41.9376 51.4447ZM42.375 53.4072C42.5208 52.8257 42.9581 52.2442 43.359 52.0989C43.7235 51.9535 43.9057 52.3169 43.7599 52.862C43.6142 53.4072 43.2133 53.9523 42.8124 54.0977C42.4479 54.243 42.2292 53.9887 42.375 53.4072ZM43.7235 50.9359C43.8328 50.3181 44.1609 49.7366 44.4524 49.6639C44.744 49.5912 44.9262 50.0273 44.8533 50.5725C44.7804 51.154 44.4524 51.6991 44.1244 51.8081C43.7964 51.9171 43.6142 51.5537 43.7235 50.9359ZM44.6347 48.501C44.6711 47.8832 44.8898 47.3744 45.1814 47.3744C45.4365 47.3744 45.6552 47.8468 45.6187 48.3919C45.5823 48.9734 45.3636 49.4459 45.072 49.5186C44.7805 49.5912 44.5982 49.1188 44.6347 48.501ZM45.072 45.1938C44.8169 45.1211 44.5253 44.576 44.416 43.9945C44.3067 43.4131 44.4889 43.0496 44.7805 43.1587C45.072 43.2677 45.3636 43.7765 45.4365 44.3216C45.5094 44.8667 45.3271 45.2665 45.072 45.1938ZM43.6506 40.9781C43.9786 41.1235 44.3795 41.6323 44.4889 42.1774C44.5982 42.6862 44.4524 43.0496 44.1244 42.9043C43.7964 42.7589 43.3955 42.2138 43.2861 41.6686C43.1039 41.0872 43.2861 40.8328 43.6506 40.9781ZM42.8488 40.6147C42.4479 40.433 41.9741 39.8879 41.8283 39.4154C41.6461 38.943 41.8647 38.7249 42.2657 38.9066C42.6666 39.0883 43.1039 39.5608 43.2497 40.0332C43.3955 40.5057 43.2132 40.7964 42.8488 40.6147ZM41.6825 37.4893C41.3181 37.3439 40.8807 36.9805 40.6985 36.6897C41.0629 36.9441 41.4274 37.2349 41.7554 37.5256C41.719 37.4893 41.719 37.4893 41.6825 37.4893ZM40.2976 36.399C40.334 36.508 40.334 36.6171 40.2611 36.7261C39.8238 37.1985 38.9491 36.508 38.5846 35.9629C38.5117 35.7448 38.6575 35.5995 38.9126 35.5995C39.3864 35.8539 39.8602 36.1083 40.2976 36.399ZM38.1837 35.3814C37.8192 35.3087 37.4548 35.127 37.2725 34.9453C37.7099 35.0907 38.1472 35.2361 38.5481 35.4178C38.4388 35.4178 38.293 35.4178 38.1837 35.3814ZM34.612 34.8726C35.1951 34.909 35.7053 35.1634 35.7418 35.4541C35.8147 35.7448 35.3773 35.9266 34.7213 35.8539C34.1017 35.8175 33.555 35.5631 33.555 35.3087C33.555 35.0543 34.0288 34.8363 34.612 34.8726ZM34.5755 36.399C34.612 36.7261 34.0653 36.9805 33.3363 36.9805C32.6074 36.9805 32.0607 36.7261 32.0972 36.399C32.1336 36.0719 32.6803 35.8175 33.3363 35.8175C33.9924 35.8175 34.5391 36.0719 34.5755 36.399ZM31.9514 35.8539C31.3318 35.8902 30.858 35.7085 30.9309 35.4541C31.0038 35.1634 31.514 34.909 32.0607 34.8726C32.6439 34.8363 33.0812 35.018 33.0812 35.3087C33.1177 35.5631 32.6074 35.8175 31.9514 35.8539ZM31.9514 34.5092C31.8785 34.7273 31.4047 34.9453 30.8944 35.018C30.53 35.0543 30.2749 35.018 30.1291 34.909C30.7122 34.7273 31.2954 34.5819 31.9514 34.5092ZM24.9173 39.4518C24.735 39.9242 24.2612 40.4693 23.8968 40.651C23.4958 40.8328 23.3501 40.542 23.4959 40.0696C23.6416 39.5971 24.079 39.1247 24.4799 38.943C24.8808 38.7613 25.0995 38.9793 24.9173 39.4518ZM23.2043 40.1786C23.095 40.542 22.8398 40.9054 22.5847 41.1235C22.7669 40.7237 22.9856 40.3603 23.2407 39.9969C23.2407 40.0696 23.2407 40.1059 23.2043 40.1786ZM21.9287 43.1587C22.2202 43.0496 22.366 43.4131 22.2931 43.9945C22.1838 44.576 21.9287 45.1211 21.6371 45.1938C21.5278 45.2302 21.4549 45.1575 21.382 45.0848C21.4549 44.467 21.6007 43.8492 21.7464 43.2677C21.8193 43.2313 21.8922 43.1587 21.9287 43.1587ZM21.3091 46.6475C21.3091 46.2478 21.3455 45.8843 21.3455 45.4846C21.4549 45.6663 21.4913 45.957 21.4913 46.2841C21.4913 46.6112 21.4184 46.8656 21.3091 47.0836C21.3091 46.9383 21.3091 46.7929 21.3091 46.6475ZM24.2248 52.4259C23.7874 52.2806 23.3865 51.6627 23.2772 51.0449C23.1678 50.3908 23.3865 49.9547 23.8239 50.0273C24.2248 50.1 24.6986 50.7905 24.8079 51.481C24.9173 52.1715 24.6621 52.5713 24.2248 52.4259ZM25.2453 52.753C25.7555 52.8984 26.3387 53.5525 26.4845 54.1704C26.6302 54.7518 26.3387 55.0426 25.8284 54.8609C25.3182 54.6792 24.8079 54.0977 24.6621 53.5525C24.4799 52.9711 24.735 52.5713 25.2453 52.753ZM26.448 56.5326C26.8125 56.678 27.2498 56.9687 27.5049 57.2595C27.104 57.0414 26.7031 56.787 26.3387 56.4963C26.3387 56.5326 26.4115 56.5326 26.448 56.5326ZM36.4707 58.0953C36.58 57.7682 37.1632 57.3685 37.7828 57.2231C38.4024 57.0777 38.7668 57.2958 38.621 57.6592C38.5846 57.7319 38.5846 57.7682 38.5117 57.8409C37.9286 58.0953 37.2725 58.3134 36.6529 58.4951C36.5071 58.3861 36.4343 58.277 36.4707 58.0953ZM39.0584 57.5502C39.2042 57.1868 39.7509 56.7143 40.2611 56.5689C40.4798 56.4963 40.662 56.4963 40.7714 56.5326C40.2247 56.9324 39.6415 57.2958 39.0219 57.5865C39.0584 57.5865 39.0584 57.5502 39.0584 57.5502ZM43.5048 53.8069C43.2862 54.134 43.031 54.4248 42.7759 54.7155C42.9217 54.3521 43.2133 53.9887 43.5048 53.8069ZM45.728 47.3744C45.4729 47.3744 45.2907 46.9019 45.2543 46.3204C45.2178 45.739 45.4 45.3029 45.6552 45.3392C45.6916 45.3392 45.7645 45.3755 45.8009 45.4119C45.8374 45.8116 45.8738 46.2114 45.8738 46.6475C45.8738 46.8656 45.8738 47.12 45.8374 47.338C45.8009 47.338 45.7645 47.3744 45.728 47.3744ZM45.6187 44.2126C45.6552 44.3943 45.6916 44.576 45.728 44.7577C45.6916 44.6124 45.6552 44.467 45.6552 44.358C45.6187 44.3216 45.6187 44.2489 45.6187 44.2126ZM43.3955 39.3064C43.3226 39.3427 43.2133 39.3427 43.0675 39.27C42.703 39.1247 42.2656 38.6159 42.1199 38.2525C42.047 38.0708 42.047 37.9254 42.1199 37.8527C42.5937 38.3251 43.031 38.7976 43.3955 39.3064ZM34.3568 34.4002C34.3568 34.4365 34.3568 34.4365 34.3568 34.4002C34.3933 34.6546 33.9195 34.8363 33.3728 34.8363C32.8261 34.8363 32.3887 34.6546 32.3887 34.4365C32.7897 34.4002 33.1906 34.3638 33.5915 34.3638C33.8466 34.4002 34.1017 34.4002 34.3568 34.4002ZM24.5528 38.3251C24.407 38.6159 24.1154 38.943 23.8603 39.161C24.079 38.8703 24.2977 38.5795 24.5528 38.3251ZM24.2612 54.6065C24.2977 54.4248 24.4799 54.3521 24.7715 54.4611C25.2088 54.6428 25.7555 55.1879 25.9013 55.6604C25.9742 55.9148 25.9742 56.0965 25.8284 56.1692C25.2817 55.6967 24.7715 55.1879 24.2612 54.6065Z" fill="#54362C"/>
<path d="M39.2416 58.2775C36.581 59.3677 33.5559 59.3677 33.5559 59.3677C33.5559 59.3677 30.5673 59.3677 27.8703 58.2775C27.8703 58.2775 27.0685 57.8777 27.1414 58.7499C27.1778 59.2224 27.4694 59.6221 27.8703 59.8765C29.0731 60.567 32.2074 63.7288 32.7906 69.6163H33.4466H34.3213C34.9045 63.7288 38.0024 60.567 39.2416 59.8765C39.6425 59.6585 39.934 59.2224 39.9705 58.7499C40.0434 57.8777 39.2416 58.2775 39.2416 58.2775Z" fill="#54362C"/>
<path d="M44.0879 34.6182H64.4249V42.25H53.5639V47.447H63.696V54.7881H53.5639V68.2711H44.0879V34.6182Z" fill="#54362C"/>
<path d="M78.1268 33.9644C90.2634 33.9644 90.2634 41.0511 90.2634 51.445C90.2634 62.2023 90.2634 68.9256 78.1268 68.9256C65.9903 68.9256 65.9902 62.2023 65.9902 51.445C65.9902 41.0148 65.9903 33.9644 78.1268 33.9644ZM78.1268 40.1789C76.0859 40.1789 75.7214 41.5962 75.7214 51.445C75.7214 61.2937 76.0859 62.7111 78.1268 62.7111C80.1678 62.7111 80.5323 61.2937 80.5323 51.445C80.5323 41.5962 80.1678 40.1789 78.1268 40.1789Z" fill="#54362C"/>
<path d="M93.1074 34.6182H107.285C113.809 34.6182 116.615 37.8163 116.615 43.4493C116.615 48.828 114.283 51.0812 111.003 51.5536V51.6627C112.898 51.808 114.611 52.7529 115.485 54.352C116.324 55.8784 116.397 58.1316 116.397 60.0941V62.8924C116.397 64.7822 116.579 66.3813 116.834 66.8537C117.053 67.3262 117.417 67.6533 117.818 67.835V68.3074H107.795C107.176 67.5442 107.103 65.1093 107.103 63.4376C107.103 61.8022 106.957 60.0941 106.957 58.4587C106.957 55.5876 106.009 55.0788 104.369 55.0788H102.62V68.3074H93.1803V34.6182H93.1074ZM102.547 48.7916H103.932C105.499 48.7916 107.139 48.1011 107.139 44.8303C107.139 42.032 105.754 41.3778 103.64 41.3778H102.547V48.7916V48.7916Z" fill="#54362C"/>
<path d="M120.225 34.6182H140.562V42.25H129.701V47.447H139.869V54.7881H129.701V60.6392H140.999V68.2711H120.225V34.6182Z" fill="#54362C"/>
<path d="M82.755 8.2341C82.755 8.96095 82.1718 9.54242 81.4429 9.54242C80.714 9.54242 80.1309 8.96095 80.1309 8.2341C80.1309 7.50726 80.714 6.92578 81.4429 6.92578C82.1718 6.92578 82.755 7.50726 82.755 8.2341Z" fill="#54362C"/>
<path d="M59.1398 10.1965C59.1398 10.9233 58.5566 11.5048 57.8277 11.5048C57.0988 11.5048 56.5156 10.9233 56.5156 10.1965C56.5156 9.46966 57.0988 8.88818 57.8277 8.88818C58.5566 8.88818 59.1398 9.46966 59.1398 10.1965Z" fill="#54362C"/>
</svg>
