<svg width="155" height="96" viewBox="0 0 155 96" fill="none" xmlns="http://www.w3.org/2000/svg">
<path d="M15.9356 87.6454L15.1727 88.8287C15.1727 88.8287 16.0203 90.4768 15.9356 90.4345C15.8508 90.3923 15.1727 89.9697 14.8761 90.2655C14.5794 90.5613 14.2404 92.5898 14.2404 92.5898C14.2404 92.5898 14.0709 90.4768 14.2404 89.7584C14.4099 89.04 14.4099 88.9132 14.4099 88.9132L13.2656 88.9555C13.2656 88.9555 13.3928 87.9413 13.9437 87.4341L14.4947 86.927C14.4947 86.927 13.9437 85.9551 14.0285 84.7718C14.1556 83.5886 14.5794 82.3208 14.5794 82.3208C14.5794 82.3208 14.2828 83.5463 14.5794 84.476C14.7913 85.1522 15.0032 85.0254 15.0032 85.0254L15.2999 84.645L15.8084 84.8986L15.1727 86.1664L15.9356 87.6454Z" fill="#54362C"/>
<path d="M13.9424 86.7573C13.9424 86.7573 13.7305 86.2925 13.6457 85.4896C13.561 84.6866 13.6457 84.5176 13.6457 84.5176C13.6457 84.5176 13.0524 83.9682 12.9676 83.1231C12.8829 82.3201 12.9676 82.1934 12.9676 82.1934C12.9676 82.1934 12.3319 83.4189 12.5014 84.4753C12.7557 86.0812 13.9424 86.7573 13.9424 86.7573Z" fill="#54362C"/>
<path d="M11.7402 93.4351C11.7402 93.4351 11.8249 91.5757 12.2064 90.6038C12.5454 89.6318 12.9268 89.2515 12.9268 89.2515H13.944V90.9418C13.944 90.9418 13.2235 91.2376 12.6726 91.956C12.164 92.6744 11.7402 93.4351 11.7402 93.4351Z" fill="#54362C"/>
<path d="M12.8419 88.6174L13.7319 87.2228L12.7572 86.4199C12.7572 86.4199 11.9943 86.4622 11.5705 86.8848C11.1043 87.3074 11.0195 87.4764 11.0195 87.4764C11.0195 87.4764 11.4434 87.9835 11.952 88.1948C12.5029 88.4061 12.7996 88.5751 12.7996 88.5751H12.8419V88.6174Z" fill="#54362C"/>
<path d="M11.4003 86.462C11.4003 86.462 12.2055 86.1661 12.3326 86.1239L12.4598 86.0816L12.2055 85.321C12.2055 85.321 11.1036 84.7716 10.1712 82.6586C9.23883 80.5457 9.15411 79.5737 9.15411 79.5737C9.15411 79.5737 8.94217 82.3206 9.74739 83.8842C10.5526 85.4477 11.5698 86.5465 11.5698 86.5465L11.4003 86.462Z" fill="#54362C"/>
<path d="M11.0616 86.8422C10.9768 86.7154 9.7054 85.3209 9.57826 84.6447L9.4511 84.0109C9.4511 84.0109 5.72166 80.6301 5.425 79.954C5.12834 79.3201 5.08594 79.4469 5.08594 79.4469C5.08594 79.4469 5.21308 81.0105 7.20494 84.0531C9.23917 87.0535 10.553 88.0255 10.553 88.0255L10.4683 87.5184L11.0616 86.8422Z" fill="#54362C"/>
<path d="M10.7653 88.2368C10.7653 88.2368 8.98537 89.3356 8.13777 90.9837C7.29018 92.6318 6.10352 95.7167 6.10352 95.7167C6.10352 95.7167 8.85815 93.5192 9.32433 92.7163C9.74813 91.9556 10.0025 90.6456 10.5534 89.8427C11.1044 89.0397 11.4858 88.6171 11.4858 88.6171L10.7653 88.2368Z" fill="#54362C"/>
<path d="M11.8245 88.6175C11.8245 88.6175 10.426 90.2233 9.79027 92.7166C9.11219 95.2099 9.49363 95.717 9.49363 95.717C9.49363 95.717 10.1293 93.7308 10.6379 92.8434C11.1464 91.9982 11.8668 90.8994 11.8668 90.8994C11.8668 90.8994 11.6126 90.6459 12.0787 89.843C12.5449 89.0823 12.7569 88.7865 12.7569 88.7865L11.9517 88.5752H11.8245V88.6175Z" fill="#54362C"/>
<path d="M4.66211 93.1389C4.66211 93.1389 5.38263 90.1385 6.52689 89.2933C7.62877 88.4481 10.002 88.2368 10.002 88.2368C10.002 88.2368 8.30687 89.5468 7.92545 90.5188L7.54397 91.4908C7.54397 91.4908 6.27255 91.1104 5.50971 91.9556C4.74687 92.8008 4.66211 93.1389 4.66211 93.1389Z" fill="#54362C"/>
<path d="M9.83304 88.0258C9.83304 88.0258 8.43442 87.9835 8.053 88.0258L7.67162 88.068C7.67162 88.068 6.48498 87.5609 5.55262 85.9128C4.62026 84.2647 3.85742 82.3208 3.85742 82.3208C3.85742 82.3208 6.0612 84.9409 6.95118 85.2789L7.79878 85.617L9.83304 88.0258Z" fill="#54362C"/>
<path d="M5.38234 89.674C5.38234 89.674 7.28935 88.3639 7.20459 88.3217C7.11983 88.2794 5.33992 86.7158 5.33992 86.7158L0 88.7443L5.38234 89.674Z" fill="#54362C"/>
<path d="M138.117 87.518L138.88 88.7013C138.88 88.7013 138.033 90.3494 138.117 90.3071C138.202 90.2648 138.88 89.8423 139.177 90.1381C139.473 90.4339 139.812 92.4623 139.812 92.4623C139.812 92.4623 139.982 90.3494 139.812 89.631C139.643 88.9125 139.643 88.7858 139.643 88.7858L140.787 88.828C140.787 88.828 140.66 87.8138 140.109 87.3067L139.558 86.7996C139.558 86.7996 140.109 85.8276 140.024 84.6444C139.94 83.4611 139.473 82.1934 139.473 82.1934C139.473 82.1934 139.77 83.4189 139.473 84.3486C139.262 85.0247 139.05 84.8979 139.05 84.8979L138.753 84.5176L138.244 84.7712L138.88 86.0389L138.117 87.518Z" fill="#54362C"/>
<path d="M140.107 86.6309C140.107 86.6309 140.319 86.166 140.404 85.3631C140.489 84.5602 140.404 84.3911 140.404 84.3911C140.404 84.3911 140.997 83.8418 141.082 82.9966C141.167 82.1937 141.082 82.0669 141.082 82.0669C141.082 82.0669 141.718 83.2924 141.548 84.3489C141.294 85.9547 140.107 86.6309 140.107 86.6309Z" fill="#54362C"/>
<path d="M142.311 93.3501C142.311 93.3501 142.226 91.4908 141.845 90.5188C141.506 89.5468 141.124 89.1665 141.124 89.1665H140.107V90.8569C140.107 90.8569 140.828 91.1527 141.379 91.8711C141.887 92.5895 142.311 93.3501 142.311 93.3501Z" fill="#54362C"/>
<path d="M141.21 88.4904L140.32 87.0959L141.295 86.293C141.295 86.293 142.058 86.3352 142.482 86.7578C142.948 87.1804 143.033 87.3494 143.033 87.3494C143.033 87.3494 142.609 87.8566 142.1 88.0678C141.549 88.2791 141.253 88.4482 141.253 88.4482H141.21V88.4904Z" fill="#54362C"/>
<path d="M142.651 86.3355C142.651 86.3355 141.846 86.0397 141.719 85.9974L141.592 85.9552L141.846 85.1945C141.846 85.1945 142.948 84.6451 143.88 82.5322C144.813 80.4192 144.897 79.4473 144.897 79.4473C144.897 79.4473 145.109 82.1941 144.304 83.7577C143.499 85.3213 142.482 86.42 142.482 86.42L142.651 86.3355Z" fill="#54362C"/>
<path d="M142.99 86.7582C143.075 86.6314 144.346 85.2369 144.474 84.5607L144.601 83.9269C144.601 83.9269 148.33 80.5461 148.627 79.87C148.923 79.2361 148.966 79.3629 148.966 79.3629C148.966 79.3629 148.839 80.9265 146.847 83.9691C144.813 86.9695 143.499 87.9415 143.499 87.9415L143.584 87.4344L142.99 86.7582Z" fill="#54362C"/>
<path d="M143.287 88.1099C143.287 88.1099 145.067 89.2086 145.914 90.8567C146.762 92.5048 147.949 95.5897 147.949 95.5897C147.949 95.5897 145.194 93.3922 144.728 92.5893C144.304 91.8287 144.05 90.5186 143.499 89.7157C142.948 88.9128 142.566 88.4902 142.566 88.4902L143.287 88.1099Z" fill="#54362C"/>
<path d="M142.228 88.4905C142.228 88.4905 143.626 90.0963 144.262 92.5896C144.94 95.0829 144.601 95.59 144.601 95.59C144.601 95.59 143.965 93.6038 143.457 92.7164C142.948 91.8712 142.228 90.7725 142.228 90.7725C142.228 90.7725 142.482 90.5189 142.016 89.716C141.55 88.9554 141.338 88.6595 141.338 88.6595L142.143 88.4482H142.228V88.4905Z" fill="#54362C"/>
<path d="M149.391 93.0119C149.391 93.0119 148.67 90.0115 147.526 89.1663C146.424 88.3212 144.051 88.1099 144.051 88.1099C144.051 88.1099 145.746 89.4199 146.127 90.3919L146.509 91.3638C146.509 91.3638 147.78 90.9835 148.543 91.8287C149.306 92.7161 149.391 93.0119 149.391 93.0119Z" fill="#54362C"/>
<path d="M144.219 87.8983C144.219 87.8983 145.617 87.8561 145.999 87.8983L146.38 87.9406C146.38 87.9406 147.567 87.4335 148.499 85.7854C149.432 84.1373 150.194 82.1934 150.194 82.1934C150.194 82.1934 147.991 84.8134 147.101 85.1515L146.253 85.4896L144.219 87.8983Z" fill="#54362C"/>
<path d="M148.669 89.5475C148.669 89.5475 146.762 88.2375 146.846 88.1952C146.931 88.1529 148.711 86.5894 148.711 86.5894L154.051 88.6178L148.669 89.5475Z" fill="#54362C"/>
<path d="M27.3348 93.7307C26.7415 93.942 25.3007 94.3223 23.8174 94.3223C20.0879 94.3223 17.418 92.0403 17.418 88.1947C17.418 84.3492 20.0032 82.0249 23.6902 82.0249C25.1735 82.0249 26.3178 82.2785 27.2078 82.5743V85.1943H26.911L26.6991 84.2224C26.4449 83.1659 24.8768 82.7433 23.7325 82.7433C20.7659 82.7433 19.4945 85.1943 19.4945 87.8567C19.4945 91.0261 21.105 93.6039 24.2835 93.6039C25.4278 93.6039 26.6992 93.139 27.1654 92.1248L27.5467 91.2374L27.8435 91.3219L27.3348 93.7307Z" fill="#54362C"/>
<path d="M39.3298 94.0686H31.0234V93.815L31.7862 93.6037C32.5067 93.3924 32.5915 93.3079 32.5915 91.8288V84.6025C32.5915 83.1235 32.5067 82.9967 31.7862 82.8276L31.0234 82.6163V82.3628H36.3209V82.6163L35.3038 82.8276C34.5833 82.9544 34.4138 83.1235 34.4138 84.6025V91.5753C34.4138 93.2234 34.668 93.3502 35.3885 93.3502H36.4904C38.2704 93.3502 38.8637 93.0966 39.1179 92.3782L39.5417 91.2372L39.9232 91.3217L39.3298 94.0686Z" fill="#54362C"/>
<path d="M54.1619 82.7854C53.4838 82.9967 53.3567 83.3348 53.3567 86.1239V88.5326C53.3567 91.5753 52.4243 94.3644 48.6101 94.3644C45.474 94.3644 43.9059 92.2937 43.9059 89.2933V84.6025C43.9059 83.1235 43.8212 82.9967 43.1008 82.8276L42.3379 82.6163V82.3628H47.2963V82.6163L46.5335 82.8276C45.813 83.0389 45.7283 83.1235 45.7283 84.6025V88.9129C45.7283 91.0682 46.4487 93.4347 49.1187 93.4347C52.0005 93.4347 52.4243 90.8146 52.4243 88.4904V87.0536C52.4243 83.3348 52.2548 83.0389 51.5343 82.8699L50.6867 82.6586V82.4051H54.9671V82.6586L54.1619 82.7854Z" fill="#54362C"/>
<path d="M62.2131 94.0686H57.5938V93.815L58.3566 93.6037C59.0771 93.3924 59.1618 93.3079 59.1618 91.8288V84.6025C59.1618 83.1235 59.0771 82.9967 58.3566 82.8276L57.5938 82.6163V82.3628H62.2555C63.7388 82.3628 66.5783 82.3628 66.5783 84.8983C66.5783 86.4197 64.8407 87.3494 64.0779 87.5184V87.6029C65.6036 87.6452 67.1292 88.6594 67.1292 90.5188C67.1716 93.1389 64.5864 94.0686 62.2131 94.0686ZM61.747 82.9544H60.9417V87.5184H62.0012C62.7641 87.5184 64.7136 87.3071 64.7136 85.1941C64.7136 83.0812 63.0184 82.9544 61.747 82.9544ZM62.1284 88.11H60.9417V91.6598C60.9417 93.3079 61.196 93.4347 61.9165 93.4347H62.1708C63.6541 93.4347 65.1374 92.8008 65.1374 90.7301C65.1374 88.5749 63.6964 88.11 62.1284 88.11Z" fill="#54362C"/>
<path d="M78.4884 94.0686V93.815L79.2511 93.6037C79.9716 93.3924 80.0564 93.3079 80.0564 91.8288V88.2368H73.8689V91.8288C73.8689 93.3079 73.9537 93.4347 74.6742 93.6037L75.437 93.815V94.0686H70.4785V93.815L71.2414 93.6037C71.9618 93.3924 72.0466 93.3079 72.0466 91.8288V84.6025C72.0466 83.1235 71.9618 82.9967 71.2414 82.8276L70.4785 82.6163V82.3628H75.437V82.6163L74.6742 82.8276C73.9537 83.0389 73.8689 83.1235 73.8689 84.6025V87.4761H80.0564V84.6025C80.0564 83.1235 79.9716 82.9967 79.2511 82.8276L78.4884 82.6163V82.3628H83.4468V82.6163L82.684 82.8276C81.9635 83.0389 81.8788 83.1235 81.8788 84.6025V91.8288C81.8788 93.3079 81.9635 93.4347 82.684 93.6037L83.4468 93.815V94.0686H78.4884V94.0686Z" fill="#54362C"/>
<path d="M92.3455 94.3646C88.7856 94.3646 86.2852 92.2939 86.2852 88.237C86.2852 84.3914 89.3365 82.0249 92.3455 82.0249C95.5664 82.0249 98.4059 83.9266 98.4059 88.237C98.4482 91.7868 95.6511 94.3646 92.3455 94.3646ZM92.3455 82.7011C90.4808 82.7011 88.3194 84.1801 88.3194 88.237C88.3194 92.1671 90.3113 93.6461 92.3455 93.6461C94.4221 93.6461 96.3716 92.1671 96.3716 88.237C96.414 84.2646 94.3374 82.7011 92.3455 82.7011Z" fill="#54362C"/>
<path d="M112.943 82.7854C112.265 82.9967 112.138 83.3348 112.138 86.1239V88.5326C112.138 91.5753 111.206 94.3644 107.391 94.3644C104.255 94.3644 102.687 92.2937 102.687 89.2933V84.6025C102.687 83.1235 102.602 82.9967 101.882 82.8276L101.119 82.6163V82.3628H106.078V82.6163L105.315 82.8276C104.594 83.0389 104.51 83.1235 104.51 84.6025V88.9129C104.51 91.0682 105.23 93.4347 107.9 93.4347C110.782 93.4347 111.206 90.8146 111.206 88.4904V87.0536C111.206 83.3348 111.036 83.0389 110.316 82.8699L109.468 82.6586V82.4051H113.748V82.6586L112.943 82.7854Z" fill="#54362C"/>
<path d="M119.68 94.3645C118.79 94.3645 117.646 94.1532 116.883 93.7729L116.502 91.3218L116.799 91.2373L117.18 92.167C117.519 92.9277 118.324 93.6038 119.808 93.6038C121.164 93.6038 122.435 92.8432 122.435 91.3641C122.435 90.1809 121.46 89.5047 120.528 89.0399L119.384 88.4905C118.112 87.8989 116.926 86.9269 116.926 85.3633C116.926 83.3349 118.748 82.1094 120.655 82.1094C121.121 82.1094 122.308 82.1516 123.41 82.6587V85.152H123.113L122.901 84.2223C122.732 83.5462 122.096 82.8278 120.57 82.8278C119.426 82.8278 118.367 83.5039 118.367 84.7294C118.367 85.7437 119.341 86.3775 120.358 86.8846L121.503 87.3918C122.774 87.9834 124.046 88.8708 124.046 90.5612C123.961 93.0967 121.842 94.3645 119.68 94.3645Z" fill="#54362C"/>
<path d="M135.615 94.0686H127.139V93.815L127.902 93.6037C128.622 93.3924 128.707 93.3079 128.707 91.8288V84.6025C128.707 83.1235 128.622 82.9967 127.902 82.8276L127.139 82.6163V82.3628H135.36V84.687H135.064L134.852 83.8841C134.682 83.2502 134.301 83.0812 132.351 83.0812H130.487V87.5607H132.351C133.962 87.5607 134.216 87.5184 134.386 86.8845L134.598 86.2506H134.852V89.6736H134.598L134.386 88.9552C134.216 88.3636 134.004 88.2791 132.394 88.2791H130.529V91.6175C130.529 93.2656 130.783 93.3924 131.504 93.3924H132.86C134.64 93.3924 135.149 93.0966 135.488 92.4205L135.869 91.6175L136.166 91.7021L135.615 94.0686Z" fill="#54362C"/>
<path d="M62.4687 70.0654C62.2145 70.319 61.7483 70.319 61.494 70.0654C61.1973 69.7696 61.1973 69.347 61.494 69.0935C61.7483 68.8399 62.2145 68.8399 62.4687 69.0935C62.7654 69.347 62.7654 69.8119 62.4687 70.0654Z" fill="#54362C"/>
<path d="M89.125 42.4282L91.6255 44.7102L91.6678 42.555L89.8454 40.6533L89.125 42.4282Z" fill="#54362C"/>
<path d="M69.1638 38.7095L68.4857 37.3149L65.7734 39.5124L66.1972 41.6676L69.1638 38.7095Z" fill="#54362C"/>
<path d="M64.8852 40.3999L62.8509 42.5551L62.8086 45.2174L65.7752 42.5551L64.8852 40.3999Z" fill="#54362C"/>
<path d="M68.6979 44.7101L71.7492 42.3436L69.5879 39.8926L66.918 42.3859L68.6979 44.7101Z" fill="#54362C"/>
<path d="M67.428 45.8085L66.199 43.2729L62.8086 45.8085L64.2919 49.4005L67.428 45.8085Z" fill="#54362C"/>
<path d="M63.3589 50.7112C63.3589 50.7112 62.3842 48.2179 62.2994 48.0488L60.0957 50.9224L61.3671 55.3596L63.3589 50.7112Z" fill="#54362C"/>
<path d="M65.0957 51.1756L67.8504 54.9367L70.6475 51.1756L68.0199 47.3301L65.0957 51.1756Z" fill="#54362C"/>
<path d="M62.2148 57.2189L64.2067 61.4448L66.8766 56.6273C66.8766 56.6273 64.2915 52.993 64.2491 52.3169L62.2148 57.2189Z" fill="#54362C"/>
<path d="M60.9437 57.5566L60.0538 54.9365L58.4434 57.6411L60.0538 60.9373L60.9437 57.5566Z" fill="#54362C"/>
<path d="M61.6611 59.543L60.0508 62.8392L62.2121 66.4735L63.314 62.4166L61.6611 59.543Z" fill="#54362C"/>
<path d="M60.4336 69.0937L62.1712 70.7841V68.333L60.0098 65.5439L60.4336 69.0937Z" fill="#54362C"/>
<path d="M64.5027 63.3887L62.7227 66.7271L65.6469 70.5305L67.3421 67.6991L64.5027 63.3887Z" fill="#54362C"/>
<path d="M71.2422 62.8395L67.3856 58.4868C67.3856 58.4868 65.2666 62.1634 65.0547 62.4169L68.1484 66.178L71.2422 62.8395Z" fill="#54362C"/>
<path d="M66.832 75.6016L69.1629 76.7848L69.7138 75.2213L67.1287 73.2773L66.832 75.6016Z" fill="#54362C"/>
<path d="M67.3427 71.9253L70.5635 74.2073L71.7501 71.9253L68.826 68.6714C68.826 68.6714 67.3003 71.5873 67.3427 71.9253Z" fill="#54362C"/>
<path d="M73.2767 72.9395L71.5391 75.0102L74.3785 77.0386L76.0314 75.2637L73.2767 72.9395Z" fill="#54362C"/>
<path d="M70.5215 76.4889V77.0382L73.3185 77.6299L71.1995 75.855L70.5215 76.4889Z" fill="#54362C"/>
<path d="M75.5638 68.1642L72.5972 64.3608L69.7578 67.9106L73.0635 70.5307C73.1059 70.5729 75.5638 68.1642 75.5638 68.1642Z" fill="#54362C"/>
<path d="M72.2166 52.5703L68.8262 57.1766L72.6827 61.1066L75.607 56.8807L72.2166 52.5703Z" fill="#54362C"/>
<path d="M75.6478 46.0198L73.105 43.2729L69.8418 46.0198L72.2574 49.4005L75.6478 46.0198Z" fill="#54362C"/>
<path d="M73.1061 41.0337C73.318 41.0337 75.6914 38.8785 75.6914 38.8785L74.1656 37.3149L71.75 39.2166C71.75 39.2166 72.8942 41.0337 73.1061 41.0337Z" fill="#54362C"/>
<path d="M80.6917 62.5433L77.1741 58.6978L73.8262 62.6278L77.1317 67.3609L80.6917 62.5433Z" fill="#54362C"/>
<path d="M88.9144 39.4279L86.2021 37.2305L85.5664 38.6673L88.4906 41.5832L88.9144 39.4279Z" fill="#54362C"/>
<path d="M91.8383 45.133V42.4706L89.8041 40.3154L88.9141 42.4706L91.8383 45.133Z" fill="#54362C"/>
<path d="M85.9464 44.6252L87.7264 42.3009L85.0988 39.8076L82.9375 42.3009L85.9464 44.6252Z" fill="#54362C"/>
<path d="M91.8382 45.724L88.4901 43.1885L87.2188 45.724L90.3549 49.316L91.8382 45.724Z" fill="#54362C"/>
<path d="M93.1937 55.2747L94.5074 50.8375L92.3461 47.9639C92.2189 48.1329 91.2441 50.6262 91.2441 50.6262L93.1937 55.2747Z" fill="#54362C"/>
<path d="M83.9961 51.0912L86.7084 54.8522L89.5055 51.0912L86.6236 47.2456L83.9961 51.0912Z" fill="#54362C"/>
<path d="M92.3473 57.134L90.3555 52.2319C90.3131 52.8658 87.6855 56.5424 87.6855 56.5424L90.3131 61.3599L92.3473 57.134Z" fill="#54362C"/>
<path d="M94.5058 54.8525L93.6582 57.4726L94.5058 60.8533L96.1163 57.5571L94.5058 54.8525Z" fill="#54362C"/>
<path d="M91.2441 62.3316L92.3036 66.3885L94.5074 62.7542L92.8546 59.458L91.2441 62.3316Z" fill="#54362C"/>
<path d="M92.3027 70.6996L94.0404 69.0092L94.4642 65.4595L92.3027 68.2486V70.6996Z" fill="#54362C"/>
<path d="M88.7852 74.1648L91.2009 72.0519V69.5586C90.5652 69.6854 88.7852 71.3335 88.7852 71.3335V74.1648Z" fill="#54362C"/>
<path d="M87.1328 67.6569L88.7856 70.446L91.7522 66.6427L90.0147 63.3042L87.1328 67.6569Z" fill="#54362C"/>
<path d="M89.4629 62.332C89.2934 62.0784 87.1744 58.4019 87.1744 58.4019L83.2754 62.7545L86.3691 66.093L89.4629 62.332Z" fill="#54362C"/>
<path d="M84.7168 75.1368L85.2253 76.7004L87.5987 75.5171L87.3443 73.1929L84.7168 75.1368Z" fill="#54362C"/>
<path d="M85.6502 68.5864L82.6836 71.8404L83.8703 74.1224L87.0911 71.8404C87.1758 71.5023 85.6502 68.5864 85.6502 68.5864Z" fill="#54362C"/>
<path d="M81.1995 72.8545L78.4023 75.1787L80.0128 76.9536L82.8947 74.9252L81.1995 72.8545Z" fill="#54362C"/>
<path d="M81.1152 77.5881L83.8699 76.9542V76.4471L83.2342 75.771L81.1152 77.5881Z" fill="#54362C"/>
<path d="M84.7181 67.8256L81.921 64.2759L78.9121 68.0792C78.9121 68.0792 81.3701 70.488 81.4125 70.4457L84.7181 67.8256Z" fill="#54362C"/>
<path d="M85.7359 57.0926L82.3879 52.4863L78.9551 56.839L81.8369 61.0227L85.7359 57.0926Z" fill="#54362C"/>
<path d="M78.9961 45.9353L82.3865 49.316L84.8021 45.9353L81.5812 43.1885L78.9961 45.9353Z" fill="#54362C"/>
<path d="M82.9361 39.1321L80.5628 37.2305L79.0371 38.7941C79.0371 38.7941 81.368 40.9493 81.5799 40.9493C81.7918 40.9915 82.9361 39.1321 82.9361 39.1321Z" fill="#54362C"/>
<path d="M74.5898 42.301L77.3022 44.7943L80.0992 42.2165L77.2598 40.1035L74.5898 42.301Z" fill="#54362C"/>
<path d="M80.7764 51.0065L77.3436 47.668L77.2589 47.5835L73.8262 51.091L77.2166 55.2747L80.7764 51.0065Z" fill="#54362C"/>
<path d="M79.5894 71.9247C79.3775 72.0092 77.2161 69.5582 77.0466 69.3892C76.8771 69.6005 74.7157 72.0092 74.5038 71.9247C74.2919 71.8402 77.0466 74.2067 77.0466 74.2067C77.0466 74.2067 79.8013 71.8402 79.5894 71.9247Z" fill="#54362C"/>
<path d="M77.0032 76.2354L75.2656 77.6299L77.0032 78.137L78.7408 77.6299L77.0032 76.2354Z" fill="#54362C"/>
<path d="M77.4701 38.1175L74.6307 36.3004C74.6307 36.3004 70.6046 38.3288 70.6893 38.1175C70.8165 37.9062 71.8336 36.3004 71.0708 35.582C70.308 34.8635 65.4766 34.0184 65.4766 34.0184C65.4766 34.0184 70.5198 33.638 72.2998 34.0184C74.0797 34.3987 74.334 34.3987 74.334 34.3987L74.2916 31.6519C74.2916 31.6519 76.7496 31.9899 77.9787 33.3422L79.2077 34.6945C79.2077 34.6945 81.5386 33.3422 84.3781 33.5958C87.2175 33.8493 90.3113 34.9058 90.3113 34.9058C90.3113 34.9058 87.387 34.1451 85.0985 34.9058C83.4881 35.4129 83.7424 35.8778 83.7424 35.8778L84.6747 36.6384L84.0814 37.8217L80.9877 36.3004L77.4701 38.1175Z" fill="#54362C"/>
<path d="M79.6309 33.3004C79.6309 33.3004 80.7327 32.7933 82.6822 32.582C84.6317 32.3707 85.0555 32.582 85.0555 32.582C85.0555 32.582 86.4116 31.1029 88.3611 30.9762C90.3105 30.8071 90.6072 30.9762 90.6072 30.9762C90.6072 30.9762 87.683 29.4126 85.0978 29.8352C81.1989 30.5113 79.6309 33.3004 79.6309 33.3004Z" fill="#54362C"/>
<path d="M63.4434 28.0181C63.4434 28.0181 67.8933 28.2716 70.2242 29.1591C72.5551 30.0042 73.4874 30.8917 73.4874 30.8917V33.3427H69.3766C69.3766 33.3427 68.6984 31.5678 66.9608 30.3001C65.2656 29.0323 63.4434 28.0181 63.4434 28.0181Z" fill="#54362C"/>
<path d="M75.0971 30.6799L78.4027 32.7929L80.3098 30.4264C80.3098 30.4264 80.225 28.6092 79.1655 27.5105C78.1484 26.4118 77.6822 26.1582 77.6822 26.1582C77.6822 26.1582 76.4956 27.1302 75.987 28.4402C75.4785 29.7502 75.0547 30.5109 75.0547 30.5109L75.0971 30.6799Z" fill="#54362C"/>
<path d="M80.3525 27.2148C80.3525 27.2148 81.0729 29.1587 81.1577 29.4545L81.2849 29.7503L83.0648 29.1164C83.0648 29.1164 84.3787 26.4964 89.5066 24.2566C94.6346 22.0169 96.9654 21.8056 96.9654 21.8056C96.9654 21.8056 90.3118 21.2562 86.5824 23.1579C82.8105 25.0596 80.1406 27.5106 80.1406 27.5106L80.3525 27.2148Z" fill="#54362C"/>
<path d="M79.3771 26.4538C79.6314 26.2847 83.1065 23.1998 84.6746 22.904L86.2426 22.6082C86.2426 22.6082 94.5068 13.7338 96.0749 12.9731C97.6429 12.2124 97.3463 12.1279 97.3463 12.1279C97.3463 12.1279 93.532 12.4237 86.2426 17.199C78.9533 22.0166 76.5801 25.186 76.5801 25.186L77.8091 24.9747L79.3771 26.4538Z" fill="#54362C"/>
<path d="M76.072 25.7358C76.072 25.7358 73.4445 21.3831 69.4608 19.3547C65.4771 17.3263 58.0605 14.4526 58.0605 14.4526C58.0605 14.4526 63.3581 21.1296 65.2228 22.186C67.0875 23.2425 70.2661 23.8342 72.1308 25.1864C74.0379 26.5387 75.0974 27.4684 75.0974 27.4684L76.072 25.7358Z" fill="#54362C"/>
<path d="M75.139 28.229C75.139 28.229 71.2825 24.8905 65.2222 23.2424C59.1618 21.6366 58.0176 22.4395 58.0176 22.4395C58.0176 22.4395 62.8489 23.9608 64.9255 25.2286C67.0022 26.4964 69.6296 28.229 69.6296 28.229C69.6296 28.229 70.2654 27.6374 72.1301 28.7784C73.9948 29.9194 74.6305 30.4687 74.6305 30.4687L75.139 28.5248V28.229Z" fill="#54362C"/>
<path d="M64.248 11.0298C64.248 11.0298 71.5374 12.8047 73.5292 15.5092C75.5211 18.2138 76.072 23.8343 76.072 23.8343C76.072 23.8343 72.936 19.7774 70.5203 18.8477L68.147 17.918C68.147 17.918 69.0794 14.8754 67.0452 13.0582C65.0109 11.1988 64.248 11.0298 64.248 11.0298Z" fill="#54362C"/>
<path d="M76.5385 23.5377C76.5385 23.5377 76.6233 20.1992 76.5385 19.3118L76.4961 18.4243C76.4961 18.4243 77.7676 15.593 81.7513 13.3533C85.735 11.0713 90.3967 9.29639 90.3967 9.29639C90.3967 9.29639 83.9974 14.621 83.1921 16.6495L82.387 18.7202L76.5385 23.5377Z" fill="#54362C"/>
<path d="M72.5977 12.8045C72.5977 12.8045 75.6914 17.4107 75.8186 17.2417C75.9457 17.0304 79.7175 12.8045 79.7175 12.8045L74.8438 0L72.5977 12.8045Z" fill="#54362C"/>
<path d="M43.78 49.0627C50.9422 49.0627 56.4093 54.5564 56.4093 62.0785C56.4093 69.4738 50.8575 76.5311 41.6187 76.5311C31.0661 76.5311 25.1328 67.9102 25.1328 56.7961C25.1328 42.7238 33.9479 33.2578 44.2462 33.2578C50.4337 33.2578 53.7393 36.7653 53.7393 40.3996C53.7393 43.6113 51.027 45.3016 48.908 45.3016C46.6195 45.3016 44.1615 43.4 44.1615 40.7377C44.1615 37.3147 47.5518 36.8076 48.7384 36.6808C47.8061 36.0469 46.7042 35.3708 44.5429 35.3708C40.4744 35.3708 38.0587 38.0331 37.2111 39.9347C36.1516 42.4703 35.4312 46.823 35.4736 53.0351C36.4483 51.8095 38.6096 49.0627 43.78 49.0627ZM30.7269 42.09C28.057 46.1046 26.7009 50.7108 26.7009 56.7116C26.7009 60.7685 27.3366 64.7831 29.5404 68.7132C31.3204 71.7981 32.9308 72.8546 34.8379 73.9533C32.7613 71.7981 29.1166 67.9102 29.1166 57.0919C29.1166 43.1887 34.6683 38.2021 36.8297 36.3005C34.8379 37.4837 32.9307 38.7092 30.7269 42.09ZM37.2958 54.3451C36.4906 55.6551 35.7702 57.43 35.7702 61.4869C35.7702 64.2337 36.0245 69.0935 36.9569 71.7136C37.2112 72.432 38.2706 74.4604 41.11 74.4604C44.2462 74.4604 46.1533 72.5587 46.1533 62.7124C46.1533 52.3167 43.6105 51.8095 41.661 51.8095C41.0677 51.8095 38.5249 52.2321 37.2958 54.3451ZM47.6789 62.3321C47.6789 70.6148 46.3228 72.432 45.1361 73.9956C46.238 73.3194 47.34 72.6855 48.3995 70.6148C49.2471 68.9667 50.0523 66.558 50.0523 63.0505C50.0523 55.5283 46.9162 53.2041 45.4329 52.1476C46.45 53.7957 47.6789 55.8242 47.6789 62.3321ZM45.4329 40.8222C45.4329 41.118 45.4328 43.1464 48.4418 44.3297C47.8909 43.6958 47.2128 42.9774 47.2128 41.3716C47.2128 39.3431 48.2723 38.5402 49.1199 37.8218C48.4842 37.8641 45.4329 38.1176 45.4329 40.8222Z" fill="#54362C"/>
<path d="M124.385 59.2049H131.378V62.4589H124.385V64.4873C124.385 69.2626 124.385 70.4036 130.403 70.4881L130.276 72.9391H108.365V70.4881C114.722 69.9388 115.146 69.2204 115.146 64.4873V62.4589H99.3809V59.2049L117.138 31.314H124.385V59.2049ZM115.146 59.2049V39.9348L102.771 59.2049H115.146ZM118.664 34.0185L116.545 37.0189V64.4873C116.545 68.84 116.545 69.3049 114.426 70.4881C118.664 70.1078 118.664 68.0371 118.664 64.4873V34.0185Z" fill="#54362C"/>
<path d="M60.6463 58.0217L59.7563 55.3594L58.1035 58.1907L59.7987 61.5715L60.6463 58.0217Z" fill="#54362C"/>
<path d="M63.2305 73.1086L65.7308 75.2638V72.3479C65.7308 72.3479 63.9085 70.6575 63.2305 70.5308V73.1086Z" fill="#54362C"/>
</svg>
