<svg width="130" height="126" viewBox="0 0 130 126" fill="none" xmlns="http://www.w3.org/2000/svg">
<path d="M65.1138 60.1005C66.2489 60.1005 67.2293 59.3802 67.2293 58.4541V51.457C64.7526 52.486 63.7207 54.9556 63.7207 57.528C63.7207 57.8882 63.7723 58.4541 63.9787 59.0201C64.1335 59.6375 64.4946 60.1005 65.1138 60.1005Z" fill="#54362C"/>
<path d="M83.7917 113.814C82.9662 113.711 82.2438 114.74 82.1406 115.357C82.1406 115.409 82.1406 115.769 82.1406 115.923C82.1922 115.923 82.2954 115.923 82.347 115.923C82.4502 115.923 82.4502 116.232 82.605 116.232C83.2758 116.335 83.9981 114.997 84.0497 114.483C84.1013 114.225 84.1013 113.865 83.7917 113.814Z" fill="#54362C"/>
<path d="M33.2795 60.3063C34.0534 60.3063 34.621 59.586 34.621 58.6599V43.328C34.621 42.4019 34.0018 41.6816 33.2795 41.6816C32.5056 41.6816 31.7832 42.5048 31.7832 43.328V58.6599C31.7832 59.586 32.5571 60.3063 33.2795 60.3063Z" fill="#54362C"/>
<path d="M97.7246 114.277C97.3118 114.225 97.0538 114.277 96.6926 114.585C96.1251 115.048 95.5575 115.974 95.4543 116.489C95.4027 116.901 95.5575 117.93 96.3314 118.084C97.5698 118.29 98.3953 116.901 98.5501 115.82C98.6533 115.357 98.7049 114.431 97.7246 114.277Z" fill="#54362C"/>
<path d="M84.9283 31.5978C85.4958 31.4434 86.0118 31.0319 86.0118 30.5174C86.0118 30.2601 85.7538 30.1572 85.4958 30.2087C84.7735 30.2601 83.9479 30.8775 83.5352 31.4949C83.7931 31.6492 84.4123 31.7521 84.9283 31.5978Z" fill="#54362C"/>
<path d="M100.098 117.672C100.82 117.621 101.439 117.621 102.058 117.569C102.265 116.797 102.471 115.871 102.729 115.1C102.265 115.46 100.356 117.312 100.098 117.672Z" fill="#54362C"/>
<path d="M129.094 54.7498C125.844 50.0165 121.716 46.1063 117.64 42.1447C117.227 41.7331 116.814 41.2701 116.402 40.807C116.453 40.6527 116.505 40.5498 116.556 40.3955C117.072 40.4984 117.64 40.6013 118.156 40.6013C118.827 40.6013 119.497 40.5498 120.117 40.4983C119.859 39.9324 119.704 39.2121 119.239 38.8005C115.989 36.0223 112.687 33.2955 109.281 30.6715C107.269 29.1281 105.102 27.7904 102.987 26.3498C102.78 26.2469 102.625 26.144 102.419 26.0411C102.471 25.9382 102.522 25.8353 102.522 25.7324C103.245 25.5266 103.967 25.3208 104.689 25.115C104.689 25.0121 104.689 24.8578 104.689 24.7549C103.76 23.9831 102.574 23.8802 101.387 23.623C99.7875 23.2628 98.1881 22.8512 96.5886 22.3368C96.1242 22.1824 95.763 21.7194 95.3503 21.4107C95.4019 21.3078 95.505 21.2049 95.5566 21.0505C96.4338 21.3592 97.2593 21.7708 98.1881 22.0281C98.6008 22.131 99.0652 22.0795 99.478 22.0795C99.2716 21.7194 99.1684 21.2563 98.9104 20.9991C95.8146 17.8607 92.0997 15.5455 88.4879 13.0759C86.94 12.0469 85.4437 11.0179 83.8959 9.98893C83.5347 9.78313 83.1735 9.57734 82.9671 9.21719C84.5666 8.5998 85.6501 9.73168 87.0948 9.83458C85.5985 7.67371 83.4831 6.43893 81.3676 5.46139C78.891 4.27806 76.4144 3.19763 73.8345 2.16864C72.9058 1.55125 71.8223 0.985306 70.068 0.573712C68.2621 0.162118 66.4562 0.00776962 64.702 0.00776962C62.9477 -0.0436797 61.1418 0.162118 59.3359 0.573712C57.4269 0.985306 54.5891 2.42589 52.2672 3.50632C51.5449 3.81502 50.8225 4.12371 50.1002 4.48386C49.4294 4.79255 48.7071 5.10125 48.0363 5.46139C45.8693 6.49038 43.7538 7.67371 42.3091 9.83458C43.7022 9.73168 44.8373 8.5998 46.4368 9.21719C46.2304 9.57734 45.8692 9.78313 45.5081 9.98893C43.9602 11.0179 42.4123 12.0469 40.916 13.0759C37.3042 15.494 33.5893 17.8092 30.4935 20.9991C30.2355 21.3078 30.0807 21.7194 29.9259 22.0795C30.3387 22.0795 30.8031 22.1824 31.2159 22.0281C32.093 21.7708 32.9701 21.4107 33.8473 21.0505C33.8989 21.1534 34.0021 21.2563 34.0537 21.4107C33.6409 21.7194 33.2797 22.1824 32.8154 22.3368C31.2159 22.8512 29.6164 23.2628 28.0169 23.623C26.8302 23.8802 25.6434 23.9831 24.7147 24.7549C24.7147 24.8578 24.7147 25.0121 24.7147 25.115C25.4371 25.3208 26.1594 25.5266 26.8818 25.7324C26.9334 25.8353 26.9849 25.9382 26.9849 26.0411C26.7786 26.144 26.5722 26.2469 26.4174 26.3498C24.3019 27.7904 22.1349 29.0766 20.1226 30.6715C16.7173 33.2955 13.4667 36.0737 10.1645 38.8005C9.70013 39.1607 9.59694 39.9324 9.28736 40.4983C9.95812 40.5498 10.6289 40.6527 11.248 40.6013C11.764 40.6013 12.3316 40.4469 12.8475 40.3955C12.8991 40.5498 12.9507 40.6527 13.0023 40.807C12.5895 41.2701 12.1768 41.6817 11.764 42.1447C7.68787 46.1063 3.50856 50.0165 0.309582 54.7498C0.103196 55.007 0.103193 55.4186 0 55.7273C0.361175 55.7273 0.825534 55.8817 1.13511 55.7273C3.19897 54.8527 5.15965 53.9266 7.2235 53.052C7.53308 52.8976 7.94586 52.8976 8.51342 52.8462C7.63628 54.5955 6.81072 56.1389 6.03678 57.6824C6.13997 57.7853 6.24317 57.8368 6.34636 57.9397C6.75913 57.7339 7.2235 57.631 7.58467 57.3737C8.35862 56.8592 9.08098 56.2933 9.85493 55.7273C10.9385 54.9556 11.0416 55.007 11.248 56.2933C11.2996 56.7049 11.4544 57.1165 11.6092 57.631C13.3119 56.7049 12.1768 54.6984 13.4667 53.7723C13.4667 54.9556 13.2087 56.1389 13.0539 57.2708C12.8475 58.8143 12.6927 60.4092 12.5379 62.0041C12.5379 62.2614 12.7959 62.5186 12.9507 62.8273C13.2087 62.673 13.4667 62.5186 13.6731 62.2614C13.8794 62.0556 13.931 61.7469 14.0858 61.4897C14.4986 60.8723 14.9114 60.2034 15.3241 59.586L15.6337 59.7404C15.6853 59.9976 15.7369 60.2034 15.7369 60.4607C15.7369 65.0911 15.7369 69.7215 15.7369 74.4034C15.7369 79.1368 15.7369 83.9215 15.7369 88.6549C15.7369 88.9636 15.7369 89.2723 15.6853 89.4781C15.5821 89.5295 15.4789 89.581 15.3241 89.6324C14.9114 89.6839 14.6534 89.8897 14.5502 90.1469C14.2406 90.4041 14.189 90.8157 14.189 91.2788C14.189 92.1534 14.1374 93.0281 14.189 93.9541C14.189 94.0056 14.189 94.057 14.189 94.1085C14.1374 94.8802 14.0858 95.6005 14.1374 95.9092C14.189 96.8353 21.8769 96.8867 21.9801 99.5621C22.0833 99.6136 22.1865 99.665 22.2897 99.7165C22.2897 100.282 22.2897 100.848 22.2897 101.414C22.2897 103.061 22.2897 104.758 22.3413 106.405C22.3413 107.177 22.0833 107.588 21.2577 107.794C18.8843 108.308 16.5625 108.926 14.189 109.492C15.3757 113.608 14.8082 118.187 12.9507 122.2C45.8693 116.54 78.8394 117.827 111.913 125.853C111.5 122.714 111.758 119.422 112.738 116.592C112.325 116.437 111.81 116.283 111.294 116.026C112.016 115.82 111.242 114.894 110.004 115.203C109.694 115.306 109.333 115.254 108.972 115.254C109.075 114.945 109.127 114.585 109.281 114.328C109.591 113.814 108.714 113.453 107.94 113.968C107.837 113.608 107.733 113.351 107.733 113.145C107.733 107.743 107.733 102.34 107.733 96.9382C107.733 96.4237 107.888 96.115 108.146 95.9607H114.957C115.163 95.9092 115.267 95.7549 115.37 95.6005C115.679 95.3947 115.782 94.9831 115.782 94.2114C115.782 93.2853 115.782 92.3592 115.782 91.4331C115.782 90.5585 115.782 89.7353 114.596 89.5295C114.338 89.4781 114.08 88.7063 114.08 88.2433C114.028 83.0469 114.08 77.902 114.08 72.7056C113.977 72.7056 113.925 72.7056 113.822 72.7056C113.822 72.4998 113.822 72.294 113.822 72.0367C113.822 67.9208 113.822 63.7534 113.822 59.6375L114.028 59.5346C114.441 60.152 114.854 60.7694 115.266 61.4382C115.421 61.6955 115.524 62.0041 115.679 62.2099C115.886 62.4157 116.144 62.5701 116.402 62.7759C116.556 62.5186 116.866 62.2099 116.814 61.9527C116.711 60.3578 116.505 58.8143 116.298 57.2194C116.144 56.036 115.886 54.9041 115.886 53.7208C117.227 54.6469 116.04 56.6534 117.743 57.5795C117.898 57.065 118.053 56.6534 118.104 56.2418C118.311 54.9556 118.414 54.9041 119.497 55.6759C120.271 56.1904 120.994 56.8078 121.768 57.3223C122.129 57.5795 122.593 57.7339 123.006 57.8882C123.109 57.7853 123.212 57.7339 123.316 57.631C122.542 56.0875 121.768 54.5955 120.839 52.7947C121.406 52.8976 121.819 52.8976 122.129 53.0005C124.141 53.8752 126.153 54.8012 128.217 55.6759C128.527 55.8302 128.94 55.6759 129.352 55.6759C129.301 55.4186 129.301 55.007 129.094 54.7498ZM102.213 78.3136V81.2462H98.8072V89.0665H103.554V91.7933H96.1758V68.0237H103.554V70.7505H98.8072V78.2621H102.213V78.3136ZM96.6918 98.636C97.2077 98.3273 97.6721 98.173 97.6721 98.9962C97.6721 101.877 97.6721 104.758 97.6205 107.64C97.6205 107.691 97.5689 107.794 97.3625 108.103C94.5247 106.508 91.6869 104.964 88.5395 103.215C90.2422 102.237 91.6353 101.466 92.9768 100.694C94.2667 99.9737 95.505 99.3049 96.6918 98.636ZM89.9326 97.607C88.23 98.5331 86.5788 99.4592 84.8762 100.385C84.515 100.54 83.999 100.643 83.6895 100.488C81.1096 99.1505 78.633 97.7614 76.1048 96.3723C76.0532 96.3208 76.0016 96.2179 75.8468 96.0121H92.4609L92.5125 96.2179C91.6353 96.6295 90.8098 97.144 89.9326 97.607ZM84.4118 83.5614C84.257 83.3556 84.1538 83.1498 84.0506 82.9954C83.8442 82.6868 83.6379 82.3781 83.4315 82.0694C82.6575 80.9889 81.8836 79.857 81.1096 78.6737C80.2841 77.4389 79.7165 76.2041 79.3554 74.9694C79.149 74.352 79.0458 73.7346 79.0458 73.1172C79.0458 71.6766 79.407 70.3904 80.0261 69.5157C80.8001 68.4353 81.9352 67.8694 83.3283 67.8694H83.4315C85.1858 67.8694 86.3725 68.4868 87.0948 69.773C87.714 70.9563 87.9204 72.3455 87.9204 73.4259L85.3405 73.6831C85.3405 73.0143 85.2374 72.2425 85.031 71.6766C84.6182 70.4418 83.8958 70.1846 83.3283 70.1846C81.574 70.236 81.574 72.4483 81.574 73.1686C81.574 74.2491 82.09 75.2781 82.5543 76.1012C82.9671 76.8215 83.4831 77.5933 84.0506 78.365C84.2054 78.6223 84.4118 78.8795 84.5666 79.0853C85.3405 80.2172 86.2177 81.5549 86.8884 82.7897C87.6108 84.1273 87.9204 85.3107 87.9204 86.4425C87.9204 88.1918 87.6108 89.581 86.94 90.507C86.1661 91.6389 84.9794 92.1534 83.3283 92.1534C81.3676 92.1534 80.0777 91.536 79.3554 90.1983C78.6846 88.9636 78.5298 87.3172 78.5298 85.9281L81.1096 85.6708C81.1096 86.5454 81.2128 87.4201 81.4192 88.1404C81.7288 89.2723 82.3996 89.8382 83.3283 89.8382C84.1022 89.8382 85.3405 89.4266 85.3405 86.5969C85.4437 85.7737 85.1342 84.8476 84.4118 83.5614ZM83.1219 30.8259C83.6895 30.157 84.5666 29.4882 85.3405 29.4882C85.8049 29.4882 86.7337 29.7454 86.7337 30.5172C86.7337 31.9063 85.3406 32.4208 84.1538 32.4208C84.0506 32.4208 83.2767 32.3179 83.1735 32.3179C83.0187 33.1926 83.4831 34.0157 84.3602 34.1186C85.031 34.2215 85.6501 33.9643 86.3725 33.5012C86.5273 33.3984 86.7852 33.1926 86.8884 33.1926C87.0948 33.1926 87.2496 33.5013 87.2496 33.6556C87.2496 34.0672 85.4953 34.8904 84.4118 34.8904C83.3799 34.8904 82.2964 33.9643 82.2964 32.8839C82.348 32.0092 82.6059 31.4433 83.1219 30.8259ZM86.7337 38.5947C87.8172 39.7781 88.3848 41.7331 88.3848 44.7686V46.9295H83.2767V43.6368C83.2767 41.9904 82.9671 41.4244 81.832 41.4244C80.4905 41.4244 80.4389 42.6078 80.4389 43.6368V58.3513C80.4389 59.3288 80.4905 60.5636 81.832 60.5636C82.9671 60.5636 83.2767 59.9976 83.2767 58.3513V54.544H88.3848V57.1679C88.3848 60.2034 87.8172 62.1585 86.7337 63.3418C85.6501 64.5252 83.999 64.9882 81.832 64.9882C80.0261 64.9882 78.375 64.4737 77.1883 63.2389C76.0532 62.0041 75.3308 59.9462 75.3308 56.9107V45.0259C75.3308 41.9904 76.0532 39.9324 77.1883 38.6976C78.3234 37.4628 80.0261 36.9483 81.832 36.9483C83.999 36.9483 85.6501 37.3599 86.7337 38.5947ZM77.4979 25.5266C77.7043 25.5266 77.8075 25.7324 77.8591 26.0411C77.9107 26.5556 77.7559 27.3788 77.7559 28.202L77.8075 31.1346C78.0654 30.4657 78.891 29.694 79.5617 29.694C80.5937 29.694 81.6772 33.9643 81.6772 34.5817C81.6772 34.7875 81.4708 34.8389 81.316 34.8389C81.2128 34.8389 81.058 34.7875 81.0064 34.6846C80.7485 34.2215 80.0777 30.4657 79.4586 30.4657C78.9942 30.4657 77.9623 31.752 77.9107 32.3694C77.8591 32.9353 77.9107 34.3244 77.8075 34.6331C77.7559 34.8389 77.6011 34.8389 77.3947 34.8389C77.2399 34.8389 77.0851 34.6331 77.0851 34.1701C77.0851 32.5752 77.0851 27.2759 77.0851 25.9382C77.0851 25.7839 77.2399 25.5266 77.4979 25.5266ZM72.0802 30.4143C72.5962 30.2599 72.8542 30.157 73.6797 29.9512C73.6281 29.0252 73.9377 26.4527 74.3505 26.4527C74.5053 26.4527 74.8665 26.5041 74.8665 26.8128C74.8665 27.2759 74.7117 27.3788 74.6085 28.0991C74.5053 28.7165 74.4537 29.1795 74.4537 29.8483C75.0213 29.7455 75.7436 29.4368 76.2596 29.5397C76.2596 29.5397 76.5175 29.7455 76.5175 29.8483C76.5175 30.0541 76.3628 30.157 76.2596 30.157C75.5888 30.2085 75.2276 30.4143 74.4537 30.5686C74.4537 31.2889 74.4537 31.5976 74.5053 32.3694C74.5569 33.1926 74.7633 34.4788 74.7633 35.1476C74.7633 35.4563 74.6601 35.5592 74.2989 35.5592C73.9893 35.5592 73.8861 33.5012 73.8345 32.781C73.7829 32.1121 73.7313 31.4433 73.7313 30.6715C73.009 30.9288 72.493 31.2375 72.0802 31.2375C71.8739 31.2375 71.8223 30.9288 71.8223 30.8259C71.7191 30.5686 71.8223 30.4657 72.0802 30.4143ZM43.1346 44.0998C43.2894 41.4759 44.1666 39.5208 45.9725 38.0288C46.8496 37.257 48.0879 36.9483 49.739 36.9483C52.9896 36.9483 54.6923 38.7491 55.4662 40.4983C55.9306 41.5273 56.2401 42.7107 56.2917 43.9969V51.9201H47.8815V57.8882C47.9331 58.9172 48.2427 59.6889 48.7071 60.2549C48.965 60.5121 49.3262 60.6665 49.739 60.6665C50.7193 60.6665 51.1321 60.0491 51.3385 59.3288C51.4933 58.9172 51.5449 58.5056 51.5449 57.9397V54.9556H56.2917V58.094C56.137 60.7179 55.3114 62.5701 53.5055 64.0621C52.5768 64.8339 51.3385 65.1426 49.6874 65.1426C46.4368 65.1426 44.7341 63.3418 43.9602 61.5411C43.4958 60.5121 43.1862 59.2773 43.1346 57.9397V44.0998V44.0998ZM53.1444 72.7056V87.3172C53.0928 88.2433 52.938 89.0665 52.5768 89.7867C52.2672 90.4556 51.8544 91.0215 51.2869 91.4331C50.6677 91.9476 49.8422 92.1534 48.7587 92.1534C47.6751 92.1534 46.8496 91.8962 46.2304 91.4331C45.6629 91.0215 45.2501 90.507 44.9405 89.7867C44.5793 89.0665 44.4246 88.2433 44.373 87.2657V72.6541C44.4246 71.7281 44.5793 70.9049 44.9405 70.1846C45.2501 69.4643 45.6629 68.8983 46.2304 68.5382C46.9012 68.0752 47.7783 67.8179 48.7587 67.8179C49.7906 67.8179 50.6161 68.0752 51.2869 68.5382C51.9576 69.0527 52.3704 69.7215 52.5768 70.1846C52.938 70.9049 53.0928 71.7795 53.1444 72.7056ZM26.6754 27.9447H31.7834V39.1092C32.6606 38.286 33.3829 37.7201 34.4148 37.257C34.8792 36.9998 35.3952 36.8969 35.8079 36.8969C37.201 36.8969 38.1814 37.7201 38.8521 38.6976C39.4713 39.7266 39.7809 41.1157 39.7809 42.2476V59.6889C39.7809 60.8208 39.4713 62.2099 38.8521 63.1875C38.1814 64.2165 37.2526 65.0397 35.8079 65.0397C34.8276 65.0397 33.8473 64.4737 33.0733 63.9592C32.609 63.5991 32.1962 63.2389 31.7834 62.8788V64.6795H26.6754V27.9447ZM29.2036 91.8447H26.5722V68.0752H29.2036V78.3136H33.0733V68.0752H35.7047V91.8447H33.0733V81.0404H29.2036V91.8447ZM39.7809 104.347C37.717 105.839 35.2404 105.427 32.9185 105.685C32.7122 105.685 32.2994 105.17 32.2994 104.913C32.2478 102.906 32.2478 100.9 32.2478 98.9447C32.2478 98.3788 32.4542 97.9157 33.1249 98.2759C35.8595 99.8194 38.5942 101.363 41.3288 102.906C41.3804 102.958 41.3804 103.009 41.5352 103.318C41.0192 103.627 40.3484 103.935 39.7809 104.347ZM45.7145 100.385C43.1862 99.0476 40.7096 97.7099 38.233 96.3208C38.1814 96.2694 38.1298 96.1665 37.975 95.9607H54.5375C54.5375 96.0121 54.5891 96.115 54.5891 96.1665C53.8151 96.5781 52.9896 97.0411 52.2156 97.4527C50.4613 98.4302 48.7587 99.4078 46.9528 100.334C46.6948 100.54 46.0756 100.591 45.7145 100.385ZM60.2131 103.884C60.2131 104.553 59.9035 104.81 59.2843 104.81C57.5301 104.758 55.7242 104.81 53.9699 104.707C52.8348 104.604 51.906 103.884 50.7709 103.164C52.938 101.929 54.847 100.9 56.7045 99.8194C57.5301 99.3563 58.304 98.8933 59.1295 98.4817C59.9035 98.0186 60.2131 98.173 60.2647 99.0476C60.2647 100.643 60.2131 102.289 60.2131 103.884ZM60.2647 63.8049C59.3875 62.8788 58.7168 61.181 58.7168 58.2998C58.7168 55.2643 59.6455 53.052 60.8322 51.5599C62.0189 50.0679 63.5668 49.0904 64.8052 48.473C66.0435 47.8041 67.0238 47.3926 67.2302 46.8266V43.8426C67.2302 43.3795 67.2302 42.7107 67.0754 42.1962C66.869 41.6817 66.4562 41.373 65.8371 41.373C64.9599 41.373 64.6504 42.0418 64.4956 42.8136C64.444 43.2252 64.3924 43.6368 64.3924 44.0998V45.386H59.2843V44.2541C59.2843 42.2476 60.0583 40.4469 61.245 39.1092C62.4317 37.7715 64.186 36.9483 66.1467 36.9483C67.7977 36.9483 69.2941 37.6172 70.4808 38.6976C71.6159 39.7781 72.3382 41.3215 72.3382 43.1223V59.8947C72.3382 62.3643 72.493 63.4447 72.6994 64.6281H67.6945C67.2302 64.0621 67.2302 62.7759 67.2302 62.4157H66.869C66.611 62.8788 66.1467 63.4962 65.4759 64.0621C64.7536 64.6281 63.8248 64.9882 62.7929 64.9882C62.1221 65.0397 61.0902 64.7824 60.2647 63.8049ZM68.6233 91.3817C68.0041 91.8962 67.1786 92.102 66.0951 92.102C65.0115 92.102 64.186 91.8447 63.5668 91.3817C62.9993 90.9701 62.5865 90.4556 62.2769 89.7353C61.9157 89.015 61.761 88.1918 61.7094 87.2143V68.0237H64.3408V87.2143C64.3408 88.0375 64.5472 88.6549 64.9599 89.1179C65.2695 89.4266 65.6307 89.581 66.0435 89.581C66.8174 89.581 67.385 89.1179 67.643 88.3462C67.7462 88.0889 67.7977 87.7288 67.7977 87.2657V68.0752H70.4292V87.2657C70.3776 88.1918 70.2228 89.015 69.8616 89.7353C69.6552 90.4041 69.1909 90.9701 68.6233 91.3817ZM78.6846 103.832C77.3947 104.501 76.1564 105.222 74.8665 105.89C73.3702 106.662 71.9771 105.993 70.584 105.582C70.3776 105.53 70.2228 104.964 70.2228 104.656C70.1712 103.73 70.2228 102.803 70.2228 101.877C70.2228 100.951 70.2228 100.025 70.2228 99.0991C70.2228 98.2244 70.584 97.9672 71.3063 98.3788C73.7829 99.7679 76.2596 101.157 78.7362 102.546C79.5617 103.061 79.5617 103.369 78.6846 103.832ZM82.4511 116.746C82.3479 116.746 82.2448 116.592 82.1416 116.437C82.09 116.489 81.9352 116.489 81.832 116.489C81.6256 116.437 81.6256 116.335 81.574 116.026C81.574 114.38 81.9868 112.63 82.2448 110.984C82.2964 110.778 82.3479 110.264 82.6575 110.315C83.1219 110.366 82.8123 110.932 82.7607 111.138C82.5027 112.373 82.3995 113.145 82.2448 114.174C82.7091 113.659 83.2251 113.145 83.999 113.299C84.3602 113.351 84.6182 113.916 84.5666 114.328C84.4634 115.254 83.6895 116.952 82.4511 116.746ZM87.8172 114.225C87.8172 114.328 86.8369 115.974 86.5789 116.437C86.5789 116.437 86.6305 116.643 86.5789 116.695C86.5273 116.849 86.4241 116.901 86.2693 116.901C86.2693 116.901 85.5985 117.93 85.4437 118.187C85.1858 118.598 85.031 118.907 84.9278 119.113C84.8246 119.267 84.6698 119.216 84.6182 119.216C84.515 119.216 84.4634 119.061 84.4634 118.958C84.515 118.804 85.6501 116.952 85.8565 116.643C85.6501 115.872 85.4438 115.1 85.289 114.277C85.2374 113.916 85.0826 113.711 85.1341 113.453C85.1341 113.299 85.2889 113.248 85.4953 113.248C85.5985 113.248 85.6501 113.608 85.7533 114.071C85.9081 114.688 86.1145 115.614 86.2177 116.077C86.4757 115.614 87.0948 114.585 87.3528 114.019C87.4044 113.916 87.5592 113.865 87.6108 113.865C87.8172 113.916 87.8172 114.122 87.8172 114.225ZM82.1416 107.691C81.9352 107.64 81.7288 107.434 81.5224 107.331C81.6772 107.125 81.7804 106.919 81.9868 106.765C83.2767 105.89 84.5666 105.53 86.0629 106.611C87.4044 107.588 89.0039 108.257 90.5002 109.08C90.4486 109.183 90.397 109.337 90.3454 109.44C89.9326 109.389 89.4683 109.389 89.0555 109.286C86.7337 108.72 84.4634 108.206 82.1416 107.691ZM94.3699 115.82C94.2151 116.901 93.08 118.444 91.5321 118.187C91.0678 118.135 90.8098 117.724 90.6034 117.415C90.5002 117.518 90.397 117.775 90.1906 117.775C90.0358 117.724 89.9326 117.724 89.9842 117.569C90.0358 117.209 90.397 116.746 90.4486 116.746C90.4486 116.335 90.4486 115.872 90.5518 115.408C90.7582 114.431 91.5321 113.248 92.2545 112.322C92.822 111.601 93.3896 110.984 93.5444 111.035C93.8024 111.087 93.9055 111.241 93.9055 111.344C93.9055 111.344 93.2864 111.91 92.9768 112.373C92.4609 113.042 91.8933 113.711 91.5321 114.482C91.2225 115.048 91.0678 115.717 90.9646 116.335C91.4805 115.563 92.6672 114.791 93.6476 114.894C94.0087 114.945 94.4215 115.357 94.3699 115.82ZM99.1168 115.923C98.962 116.798 98.0849 118.804 96.3822 118.547C95.4019 118.393 94.7311 117.415 94.8859 116.386C95.0407 115.408 96.279 113.505 97.8269 113.762C99.1168 113.968 99.22 115.357 99.1168 115.923ZM103.864 117.981C103.657 117.93 102.729 117.981 102.522 117.981C102.367 118.753 102.213 119.473 102.058 120.348C102.006 120.708 101.903 121.068 101.851 121.377C101.748 121.685 101.645 121.891 101.49 121.84C101.387 121.84 101.335 121.685 101.335 121.48C101.335 120.759 101.593 119.987 101.748 119.319C101.851 118.907 101.903 118.495 102.006 118.032C101.697 118.032 101.335 118.135 101.026 118.135C100.665 118.187 100.304 118.187 99.9423 118.135C99.7875 118.135 99.478 117.93 99.478 117.724C99.5296 117.364 102.832 114.122 103.193 114.174C103.451 114.225 103.502 114.277 103.451 114.482C103.141 115.46 102.883 116.386 102.625 117.466C103.038 117.518 103.503 117.415 103.915 117.466C104.173 117.518 104.225 117.621 104.225 117.724C104.173 117.878 104.07 117.981 103.864 117.981ZM104.638 64.6281H99.5296V43.0194C99.5296 41.9904 98.9104 41.836 98.3429 41.836C97.7753 41.836 97.4657 42.1447 97.1561 42.5049C97.0014 42.7107 96.8466 42.9165 96.6918 43.1737V64.6795H91.5837V27.9447H96.6918V39.6237C96.795 39.5723 97.0014 39.3665 97.3109 39.0578C97.8785 38.4918 98.6008 37.7715 99.5296 37.257C99.9939 36.9998 100.407 36.8969 100.819 36.8969C102.161 36.8969 103.141 37.7201 103.76 38.6976C104.38 39.7266 104.689 41.1157 104.689 42.2476V64.6281H104.638Z" fill="#54362C"/>
<path d="M48.7582 70.3389C47.9842 70.3389 47.4167 70.8019 47.1587 71.6251C47.0555 71.8823 47.0039 72.2425 47.0039 72.7055V87.3171C47.0039 88.1403 47.2103 88.7577 47.6231 89.2207C47.9326 89.5294 48.2938 89.6838 48.7066 89.6838C49.4805 89.6838 50.0481 89.2207 50.3061 88.449C50.4093 88.1918 50.4609 87.8316 50.4609 87.3686V72.757C50.4609 71.9338 50.2545 71.3679 49.8417 70.8534C49.5837 70.4932 49.171 70.3389 48.7582 70.3389Z" fill="#54362C"/>
<path d="M51.5442 44.0997C51.5442 43.0707 51.3378 42.299 50.8219 41.6816C50.5639 41.4244 50.1511 41.27 49.7383 41.27C48.758 41.27 48.3968 41.9389 48.1388 42.6592C47.9841 43.0707 47.9325 43.4823 47.8809 44.0483V47.907H51.5442V44.0997Z" fill="#54362C"/>
<path d="M93.4404 115.357C92.8213 115.254 91.0154 116.283 90.9122 116.952C90.8606 117.209 91.3249 117.672 91.5829 117.672C92.5632 117.827 93.6984 116.798 93.75 115.872C93.8016 115.666 93.75 115.409 93.4404 115.357Z" fill="#54362C"/>
</svg>
