<svg width="1010" height="631" viewBox="0 0 1010 631" fill="none" xmlns="http://www.w3.org/2000/svg">
<path d="M1009.31 229.316C1009.59 176.032 1009.35 129.878 1005.65 109.522H1005.74C1005.51 108.49 1005.27 107.458 1005.04 106.426C1005.04 106.379 1004.99 106.285 1004.99 106.239C990.026 45.6381 935.28 0.703613 870.073 0.703613C830.949 0.703613 805.382 8.53665 780.331 22.2796C767.477 29.3153 764.24 44.7938 770.48 56.0977C770.808 56.7075 771.136 57.2704 771.559 57.8332C773.81 61.1634 776.906 64.0246 780.941 66.0415L788.822 69.9815L790.276 70.7319C796.422 73.8276 801.394 78.3304 804.96 83.8183C809.182 90.2442 811.433 97.9365 811.433 105.957V119.419C811.433 115.479 812.043 111.445 813.357 107.458C819.971 87.1016 841.785 75.9852 862.145 82.5987C864.584 83.3961 866.93 84.428 869.088 85.6475C868.618 83.2085 868.337 80.6757 868.337 78.049C868.337 73.0771 869.275 68.3398 870.964 63.9777C874.06 56.0039 879.783 49.2966 887.008 44.9345C892.825 41.3698 899.674 39.3529 906.992 39.3529C928.384 39.3529 945.694 56.6606 945.694 78.049V78.2835C947.055 79.9721 944.287 83.3023 945.46 85.0847C946.257 84.7563 951.089 82.8802 951.886 82.5987C958.454 80.4411 965.209 80.1597 971.542 81.473C984.349 84.0528 995.514 93.1053 1000.21 106.192H871.762V229.269H745.288C746.086 229.644 746.977 229.879 747.868 229.972C747.493 230.254 747.118 230.535 746.789 230.864C745.382 232.271 744.537 234.194 744.537 236.351C744.537 240.62 748.009 244.091 752.278 244.091C753.216 244.091 754.107 243.903 754.952 243.622V272.233C754.952 280.019 761.238 286.352 769.072 286.352H794.404C805.476 286.352 819.174 282.974 831.981 277.252C844.787 271.53 856.797 263.415 864.35 253.847C867.399 250.001 869.697 245.873 871.105 241.605V335.038C871.105 343.481 869.369 350.798 866.414 356.99C863.458 363.181 859.33 368.294 854.545 372.374C844.975 380.489 832.778 384.429 822.551 384.382C811.621 384.382 802.192 380.817 793.419 374.86C784.647 368.903 776.578 360.601 768.415 351.08C752.09 332.083 735.39 308.444 711.934 290.198C711.746 290.057 711.559 289.916 711.371 289.776C710.949 289.494 710.527 289.119 710.104 288.791L710.011 288.744C709.87 288.65 709.776 288.556 709.776 288.556L709.635 288.462C698.893 280.395 686.649 273.453 672.434 268.622H672.388C672.341 268.575 672.247 268.575 672.247 268.575C672.2 268.575 672.153 268.528 672.153 268.528C663.005 265.432 652.966 263.228 641.989 262.102C636.735 261.586 631.293 261.305 625.57 261.305H541.129C540.988 261.305 540.848 261.305 540.754 261.305H488.354C488.213 261.305 488.072 261.305 487.978 261.305H452.888H383.882C381.255 261.258 378.581 261.211 375.813 261.211C364.648 261.211 352.404 261.774 339.456 262.806C330.262 263.462 321.724 264.307 314.171 265.198C271.153 269.982 223.21 278.378 181.036 286.821C116.955 299.579 66.1028 312.384 66.1028 312.384C54.2342 329.316 46.8221 347.703 42.7408 370.217C39.0817 390.292 38.5657 411.258 38.0028 433.397C37.9089 437.149 37.8151 440.902 37.7213 444.701L36.9238 471.999C36.9238 472.093 37.0176 481.943 33.4524 494.279C30.1685 505.677 23.0849 521.53 7.74483 532.506C4.7894 534.617 2.67838 537.806 1.83397 541.418C-2.05969 558.303 0.285892 576.033 8.49541 591.277C15.3445 604.035 26.5094 614.589 39.457 621.249H891.277C895.733 621.249 901.128 621.577 905.444 621.343C952.684 618.576 972.199 598.266 990.917 571.53C1002.6 554.879 1009.35 535.086 1009.35 513.885V229.316H1009.31Z" fill="#8BCEDE"/>
<path d="M1001.52 110.46C1001.28 109.475 1001 108.49 1000.67 107.458C996.218 93.715 984.772 84.1934 971.59 81.473C965.256 80.1596 958.501 80.4411 951.934 82.5987C951.089 82.8801 950.292 83.1615 949.494 83.4899C947.899 84.0996 946.398 84.8032 944.944 85.6475C945.413 83.2553 945.694 80.8163 945.694 78.2835V78.0489C945.694 56.6605 928.337 39.3528 906.992 39.3528C899.674 39.3528 892.825 41.3697 887.008 44.9344C879.784 49.2965 874.06 56.0039 870.964 63.9776C869.275 68.3397 868.337 73.0771 868.337 78.0489C868.337 80.6287 868.619 83.1615 869.088 85.6475C866.93 84.4279 864.584 83.396 862.145 82.5987C841.785 75.9851 819.971 87.1015 813.357 107.458C812.043 111.445 811.434 115.479 811.434 119.419C811.434 135.741 821.848 150.892 838.173 156.192C840.659 156.989 843.146 157.505 845.585 157.833C843.756 159.522 842.067 161.398 840.519 163.509C827.946 180.77 831.793 204.972 849.057 217.543C855.906 222.515 863.881 224.954 871.762 224.954C883.724 224.954 895.499 219.419 903.099 209.006C903.193 208.865 903.333 208.725 903.427 208.537C904.834 206.567 906.007 204.55 906.945 202.439C907.978 204.691 909.291 206.895 910.792 209.006C916.891 217.355 925.663 222.608 935.092 224.297C937.391 224.719 939.784 224.954 942.129 224.954C948.931 224.954 955.78 223.171 961.973 219.466V219.513C962.207 219.372 962.629 219.091 963.099 218.809C963.146 218.762 963.239 218.762 963.286 218.715C963.943 218.293 964.6 217.824 964.881 217.637C982.192 205.066 985.991 180.863 973.419 163.603C971.871 161.492 970.182 159.616 968.353 157.927C970.839 157.646 973.325 157.083 975.812 156.286C980.315 154.831 984.396 152.627 987.915 149.813C999.455 140.619 1005.08 125.376 1001.52 110.46ZM853.795 109.991C855.202 109.522 856.656 110.272 857.125 111.679C857.548 113.04 856.797 114.541 855.437 114.963C854.592 115.244 853.748 115.057 853.091 114.587C852.669 114.259 852.294 113.79 852.153 113.274C851.684 111.914 852.434 110.413 853.795 109.991ZM845.257 121.905C844.788 123.265 843.333 124.062 841.973 123.593C840.566 123.124 839.815 121.67 840.284 120.263C840.753 118.903 842.208 118.152 843.568 118.574C844.412 118.856 845.022 119.466 845.257 120.263C845.444 120.779 845.444 121.342 845.257 121.905ZM847.086 114.587C846.664 114.916 846.148 115.103 845.538 115.103C844.084 115.103 842.911 113.931 842.911 112.477C842.911 111.023 844.084 109.85 845.538 109.85C846.993 109.85 848.165 111.023 848.165 112.477C848.212 113.321 847.743 114.118 847.086 114.587ZM852.247 127.908C851.402 129.081 849.76 129.362 848.588 128.471C847.415 127.627 847.18 125.985 848.025 124.813C848.541 124.109 849.338 123.734 850.136 123.734C850.699 123.734 851.215 123.921 851.684 124.25C852.81 125.094 853.091 126.783 852.247 127.908ZM913.513 139.494L913.466 140.573L911.074 143.574L907.461 144.606L906.429 144.888L902.77 143.574L898.22 141.417L896.203 140.479L862.989 124.766L859.19 122.936C859.096 123.03 859.049 123.077 858.955 123.124C857.782 123.968 856.14 123.734 855.296 122.561C854.921 122.045 854.78 121.436 854.827 120.873L850.089 118.621L855.155 119.747C855.343 119.419 855.577 119.137 855.906 118.903C857.078 118.058 858.72 118.34 859.565 119.466C859.846 119.888 860.034 120.31 860.034 120.779L899.909 129.503L902.16 129.972L906.992 131.004L910.698 131.801L911.355 132.646L913.701 135.601L913.513 139.494Z" fill="#D03F36"/>
<path d="M913.701 135.742L913.56 139.494L913.513 140.573L911.121 143.575L907.508 144.606L906.476 144.888L902.817 143.575L898.267 141.417L896.25 140.479L863.036 124.766L859.236 122.937C859.846 122.374 860.128 121.576 860.081 120.779L899.956 129.503L902.207 129.972L907.039 131.004L910.745 131.802L911.402 132.646L913.701 135.742Z" fill="#F1C45F"/>
<path d="M767.946 152.017L794.404 134.381H766.257C763.583 134.381 761.425 138.321 761.425 143.152C761.425 148.03 763.583 151.97 766.257 151.97C766.773 151.97 767.242 151.83 767.711 151.595L767.946 152.017ZM764.474 190.667L764.38 190.573C764.193 190.338 764.005 190.104 763.817 189.916C763.583 189.682 763.348 189.447 763.114 189.259C762.879 189.072 762.644 188.884 762.363 188.697C762.128 188.556 761.894 188.415 761.612 188.274C761.425 188.181 761.19 188.087 761.003 187.993C760.909 187.946 760.862 187.899 760.768 187.899C760.58 187.805 760.44 187.759 760.252 187.712C760.111 187.665 759.971 187.618 759.877 187.571C759.689 187.524 759.501 187.477 759.267 187.43C758.985 187.383 758.704 187.336 758.423 187.289C758.094 187.243 757.766 187.243 757.437 187.243C754.529 187.243 751.996 188.65 750.401 190.76H764.474V190.667ZM753.919 204.738C752.324 202.58 749.744 201.22 746.882 201.22C744.068 201.22 741.534 202.58 739.939 204.644C732.95 203.8 727.555 197.89 727.555 190.667C727.555 188.228 728.165 185.976 729.243 183.959L745.569 153.753C747.633 149.954 748.665 145.685 748.665 141.37V124.015L797.922 123.828C797.922 123.828 778.078 116.792 766.257 116.792C752.183 116.792 748.665 123.828 748.665 124.015V109.756C748.665 89.2123 757.484 70.6851 771.558 57.8333C773.809 61.1635 776.906 64.0246 780.94 66.0415L788.821 69.9815L790.275 70.732C796.421 73.8277 801.393 78.3305 804.959 83.8183C809.181 90.2442 811.433 97.9365 811.433 105.957V119.419C811.433 135.742 821.847 150.892 838.172 156.192C840.658 156.989 843.145 157.505 845.584 157.833C843.755 159.522 842.066 161.398 840.518 163.509C827.945 180.77 831.792 204.972 849.056 217.543C855.905 222.515 863.88 224.954 871.761 224.954V232.834C871.761 261.961 823.489 285.601 794.357 285.601H769.024C761.612 285.601 755.608 279.597 755.608 272.186V242.543L787.273 229.316L751.245 215.76C750.401 215.432 749.509 215.245 748.571 215.245C746.226 215.245 744.114 216.417 742.848 218.246L752.089 204.738H753.919Z" fill="#B46C51"/>
<path d="M859.188 122.983C859.094 123.077 859.047 123.124 858.953 123.171C857.781 124.015 856.139 123.781 855.294 122.608C854.919 122.092 854.778 121.482 854.825 120.92C854.825 120.544 854.919 120.169 855.153 119.794C855.341 119.466 855.576 119.184 855.904 118.95C857.077 118.105 858.719 118.387 859.563 119.512C859.845 119.935 860.032 120.357 860.032 120.826C860.079 121.623 859.798 122.467 859.188 122.983Z" fill="#F1C45F"/>
<path d="M853.091 114.588C852.669 114.259 852.293 113.79 852.153 113.274C851.684 111.914 852.481 110.413 853.842 109.991C855.249 109.522 856.703 110.272 857.172 111.679C857.595 113.04 856.844 114.541 855.483 114.963C854.592 115.244 853.748 115.057 853.091 114.588Z" fill="#F1C45F"/>
<path d="M851.636 124.25C852.809 125.094 853.043 126.736 852.199 127.908C851.355 129.081 849.713 129.362 848.54 128.471C847.367 127.627 847.133 125.985 847.977 124.813C848.493 124.109 849.291 123.734 850.088 123.734C850.651 123.781 851.167 123.922 851.636 124.25Z" fill="#F1C45F"/>
<path d="M848.211 112.477C848.211 113.321 847.789 114.118 847.132 114.587C846.71 114.916 846.194 115.103 845.584 115.103C844.13 115.103 842.957 113.931 842.957 112.477C842.957 111.023 844.13 109.85 845.584 109.85C846.991 109.85 848.211 111.023 848.211 112.477Z" fill="#F1C45F"/>
<path d="M845.257 120.263C845.444 120.779 845.444 121.342 845.257 121.905C844.788 123.265 843.333 124.062 841.973 123.593C840.566 123.124 839.815 121.67 840.284 120.263C840.753 118.903 842.208 118.152 843.568 118.575C844.412 118.856 845.022 119.466 845.257 120.263Z" fill="#F1C45F"/>
<path d="M797.923 123.828L748.666 124.015C748.666 123.828 752.184 116.792 766.258 116.792C778.08 116.792 797.923 123.828 797.923 123.828Z" fill="#965442"/>
<path d="M794.405 134.381L767.947 152.017L767.665 151.595C769.635 150.47 771.043 147.139 771.043 143.199C771.043 138.368 768.885 134.428 766.211 134.428H794.405V134.381Z" fill="#DDE2EA"/>
<path d="M787.32 229.41L755.655 242.637L754.998 242.918C754.153 243.246 753.215 243.481 752.277 243.481C748.383 243.481 745.24 240.338 745.24 236.445C745.24 232.552 748.383 229.41 752.277 229.41H787.32V229.41Z" fill="#965442"/>
<path d="M787.321 229.41H752.278H748.619C744.725 229.41 741.582 226.267 741.582 222.374C741.582 221.014 741.957 219.747 742.661 218.622C742.755 218.528 742.802 218.387 742.896 218.293C744.162 216.511 746.273 215.292 748.619 215.292C749.557 215.292 750.448 215.479 751.293 215.807L787.321 229.41Z" fill="#965442"/>
<path d="M766.211 134.381C768.885 134.381 771.043 138.321 771.043 143.152C771.043 147.092 769.588 150.47 767.665 151.548C767.196 151.83 766.727 151.924 766.211 151.924C763.537 151.924 761.379 147.984 761.379 143.106C761.426 138.321 763.584 134.381 766.211 134.381Z" fill="#965442"/>
<path d="M764.474 190.667H750.4C751.995 188.509 754.529 187.149 757.437 187.149C757.766 187.149 758.094 187.149 758.422 187.196C758.704 187.242 758.985 187.289 759.267 187.336C759.454 187.383 759.689 187.43 759.877 187.477C760.017 187.524 760.158 187.571 760.252 187.618C760.439 187.665 760.627 187.712 760.768 187.805C760.862 187.852 760.956 187.899 761.002 187.899C761.19 187.993 761.425 188.087 761.612 188.181C761.847 188.321 762.081 188.462 762.363 188.603C762.644 188.79 762.879 188.978 763.113 189.166C763.348 189.353 763.583 189.588 763.817 189.822C764.005 190.057 764.192 190.244 764.38 190.479L764.474 190.667Z" fill="#965442"/>
<path d="M753.921 204.738H752.138H747.869H741.63C741.02 204.738 740.457 204.691 739.895 204.644C741.49 202.58 744.023 201.22 746.837 201.22C749.793 201.22 752.326 202.627 753.921 204.738Z" fill="#965442"/>
<path d="M804.959 404.457C804.959 395.733 797.876 388.603 789.103 388.603C787.555 388.603 786.007 388.838 784.6 389.26C784.131 389.119 783.615 388.978 783.146 388.885C783.615 387.712 783.849 386.446 783.849 385.085C783.849 379.269 779.111 374.532 773.294 374.532C771.699 374.532 770.151 374.907 768.791 375.564C767.806 375.095 766.773 374.813 765.648 374.673C764.24 370.498 760.3 367.543 755.702 367.543C755.092 367.543 754.436 367.59 753.873 367.684C743.365 320.123 719.111 297.093 711.512 290.807C711.324 290.667 711.136 290.526 710.949 290.338C710.386 289.916 709.964 289.588 709.682 289.353L709.588 289.26C709.541 289.213 709.494 289.213 709.494 289.166L709.448 289.119C709.401 289.119 709.401 289.072 709.354 289.072L709.213 288.978C698.47 280.911 686.32 274.063 672.153 269.231C672.059 269.184 671.965 269.138 671.871 269.138C662.771 266.042 652.825 263.837 641.895 262.759C636.688 262.243 631.246 261.961 625.57 261.961H600.941H583.725H517.72H513.029H400.207H378.064C349.964 262.055 323.459 264.4 305.305 267.027C305.305 268.246 310.84 269.372 319.284 270.169C327.728 270.967 339.175 271.483 350.95 271.483H518.424H523.115H557.689C573.451 271.483 588.932 276.595 601.035 286.633C613.513 296.999 621.958 311.68 621.958 332.318C621.958 367.496 598.173 388.134 587.618 391.652L589.495 395.545C603.005 388.791 656.766 364.541 661.082 326.783C661.269 325.188 661.363 323.594 661.363 321.999C661.363 323.641 661.269 325.235 661.082 326.783C660.894 344.607 656.766 358.772 653.294 367.684C648.416 368.622 644.71 372.89 644.71 378.05C644.71 378.706 644.757 379.316 644.897 379.926C643.396 378.753 641.52 378.05 639.456 378.05C634.577 378.05 630.636 381.99 630.636 386.868C630.636 387.524 630.73 388.134 630.824 388.744C630.167 388.65 629.51 388.603 628.854 388.603C620.128 388.603 612.997 395.686 612.997 404.457H795.952H804.959V404.457Z" fill="#DDE2EA"/>
<path d="M900.518 466.042C895.498 466.042 890.573 464.964 886.022 462.853L868.947 454.973C824.474 434.429 776.062 423.828 727.086 423.828H692.981H463.631C463.631 429.082 471.371 433.303 519.549 433.303H683.552C712.543 433.584 754.67 434.241 779.017 436.493C839.861 442.027 877.766 467.731 901.972 465.995C901.503 465.995 900.987 466.042 900.518 466.042Z" fill="#DDE2EA"/>
<path d="M587.62 593.388H338.707V591.981H587.62" fill="#54362C"/>
<path d="M808.009 538.51H51.7947C49.1677 538.51 47.0566 540.62 47.0566 543.247C47.0566 545.874 49.1677 547.985 51.7947 547.985H125.493C125.493 550.611 127.604 552.722 130.231 552.722H299.347C299.347 555.348 301.458 557.459 304.085 557.459H623.083C625.71 557.459 627.821 555.348 627.821 552.722H706.445C709.072 552.722 711.183 550.611 711.183 547.985H808.009C832.121 547.985 840.237 541.09 840.237 538.463L808.009 538.51Z" fill="#DDE2EA"/>
<path d="M49.7304 621.343C48.4169 621.343 47.3379 622.422 47.3379 623.735C47.3379 625.048 48.4169 626.127 49.7304 626.127H125.586C125.962 628.378 127.932 630.114 130.277 630.114H307.04C309.433 630.114 311.356 628.378 311.731 626.127H632.653C633.028 628.378 634.999 630.114 637.344 630.114H814.107C816.499 630.114 818.423 628.378 818.798 626.127H880.158C892.825 626.408 904.599 624.814 915.389 621.39H49.7304V621.343Z" fill="#DDE2EA"/>
<path d="M1006.44 109.381C992.606 46.8106 936.781 0 870.026 0C850.417 0 834.185 1.96999 819.69 5.62853C805.194 9.33398 792.481 14.728 779.909 21.6229C775.499 24.062 772.168 27.4391 769.917 31.3791C767.712 35.2721 766.586 39.6342 766.586 44.0433C766.586 48.3116 767.665 52.5799 769.776 56.426C770.01 56.8482 770.292 57.3172 770.573 57.7393C756.641 70.7319 747.915 89.2122 747.915 109.756V141.37C747.915 145.544 746.883 149.719 744.866 153.424L728.541 183.631C727.415 185.742 726.758 188.134 726.758 190.666C726.758 198.218 732.434 204.456 739.753 205.348C740.315 205.394 740.925 205.441 741.535 205.441H750.73L742.239 217.871C742.098 218.059 742.051 218.152 742.004 218.246C741.254 219.419 740.831 220.826 740.831 222.374C740.831 225.47 742.614 228.096 745.241 229.363C746.039 229.738 746.93 229.972 747.821 230.066C747.446 230.348 747.071 230.629 746.742 230.957C745.335 232.365 744.491 234.288 744.491 236.445C744.491 240.714 747.962 244.184 752.231 244.184C753.169 244.184 754.061 243.997 754.905 243.715V272.327C754.905 280.113 761.191 286.445 769.025 286.445H794.358C805.429 286.445 819.127 283.068 831.934 277.346C844.741 271.624 856.75 263.509 864.303 253.941C867.352 250.094 869.651 245.967 871.058 241.699V335.132C871.058 343.575 869.322 350.892 866.367 357.083C863.411 363.275 859.283 368.387 854.498 372.468C844.928 380.583 832.731 384.522 822.504 384.476C811.574 384.476 802.145 380.911 793.372 374.954C784.6 368.997 776.531 360.695 768.369 351.173C752.043 332.177 735.343 308.537 711.887 290.292C711.699 290.151 711.512 290.01 711.324 289.869C710.902 289.588 710.48 289.213 710.057 288.884L709.964 288.837C709.823 288.744 709.729 288.65 709.729 288.65L709.588 288.556C698.846 280.488 686.602 273.547 672.388 268.715H672.341C672.294 268.669 672.2 268.669 672.2 268.669C672.153 268.669 672.106 268.622 672.106 268.622C662.958 265.526 652.919 263.321 641.942 262.196C636.688 261.68 631.246 261.398 625.523 261.398H541.082C540.941 261.398 540.801 261.398 540.707 261.398H488.307C488.166 261.398 488.025 261.398 487.931 261.398H452.842H383.882C381.255 261.351 378.581 261.305 375.813 261.305C364.648 261.305 352.404 261.867 339.456 262.899C330.262 263.556 321.724 264.4 314.171 265.291C271.153 270.076 223.21 278.472 181.036 286.914C116.955 299.579 66.1028 312.383 66.1028 312.383C54.2342 329.316 46.8221 347.703 42.7408 370.217C39.0817 390.292 38.5657 411.258 38.0028 433.397C37.9089 437.149 37.8151 440.902 37.7213 444.701L36.9238 471.999C36.9238 472.093 37.0176 481.943 33.4524 494.279C30.1685 505.677 23.0849 521.53 7.74483 532.506C4.7894 534.617 2.67838 537.806 1.83397 541.418C-2.05969 558.303 0.285892 576.033 8.49541 591.277C15.3445 604.035 26.5094 614.589 39.457 621.249C41.8495 622.469 44.2889 623.594 46.7752 624.532C47.1505 625.799 48.3233 626.737 49.7307 626.737H125.024C125.68 629.035 127.791 630.724 130.278 630.724H307.04C309.574 630.724 311.638 629.035 312.295 626.737H632.091C632.372 627.816 632.982 628.707 633.779 629.411C634.718 630.255 635.984 630.724 637.345 630.724H814.107C815.468 630.724 816.687 630.208 817.673 629.411C818.47 628.707 819.08 627.769 819.361 626.737H880.159C881.097 626.784 882.035 626.784 882.927 626.784C894.607 626.784 905.491 625.189 915.624 621.953L919.518 620.733C942.41 617.075 962.958 605.63 978.579 589.354C997.766 569.373 1009.63 542.074 1009.63 512.759V139.681C1009.73 129.269 1008.6 119.137 1006.44 109.381ZM741.629 204.034C741.535 204.034 741.488 204.034 741.441 204.034C742.849 202.721 744.772 201.924 746.883 201.924C748.994 201.924 750.917 202.721 752.372 204.034H741.629ZM744.162 226.83C743.036 225.704 742.286 224.109 742.286 222.374C742.286 221.154 742.661 219.982 743.271 218.997C743.365 218.856 743.412 218.762 743.459 218.762C744.584 217.121 746.508 216.089 748.619 216.089C749.463 216.089 750.261 216.276 751.011 216.558L783.427 228.753H748.666C746.883 228.706 745.335 227.956 744.162 226.83ZM755.421 241.98L754.764 242.261C753.967 242.59 753.169 242.73 752.325 242.73C750.589 242.73 748.994 242.027 747.868 240.854C746.742 239.729 745.992 238.134 745.992 236.398C745.992 232.88 748.853 230.066 752.325 230.066H783.849L755.421 241.98ZM866.554 248.218C863.646 253.096 859.518 257.693 854.545 261.867C844.6 270.216 831.418 276.877 818.564 280.864C809.979 283.537 801.582 284.991 794.358 284.991H769.025C765.507 284.991 762.364 283.584 760.065 281.286C757.767 278.988 756.359 275.798 756.359 272.327V243.153L787.602 230.066C787.602 230.066 787.649 230.066 787.649 230.019C787.649 230.019 787.696 230.019 787.696 229.972C787.696 229.972 787.743 229.972 787.743 229.926L787.79 229.879L787.837 229.832L787.884 229.785C787.884 229.785 787.884 229.738 787.931 229.738L787.978 229.691V229.644C787.978 229.644 787.978 229.597 787.978 229.55V229.503V229.456V229.41V229.363V229.316V229.269C787.978 229.222 787.978 229.222 787.931 229.175C787.931 229.175 787.931 229.128 787.884 229.128L787.837 229.081C787.837 229.081 787.837 229.034 787.79 229.034L787.743 228.987C787.743 228.987 787.696 228.987 787.696 228.941L787.649 228.894H787.602C787.602 228.894 787.555 228.894 787.555 228.847L751.527 215.291C750.636 214.916 749.651 214.728 748.619 214.728C747.681 214.728 746.742 214.916 745.898 215.244L752.466 205.629H757.391V205.582C759.831 205.348 762.598 204.363 764.1 202.815C765.788 201.079 766.867 198.734 766.867 196.107C766.867 193.95 766.164 191.98 764.991 190.432L764.428 190.854L764.991 190.432L764.897 190.338C764.897 190.338 764.897 190.338 764.85 190.291C764.663 190.057 764.475 189.822 764.287 189.635C764.1 189.4 763.865 189.166 763.584 188.978L763.537 188.931C763.443 188.837 763.349 188.79 763.255 188.743C763.161 188.697 763.068 188.603 762.974 188.556C762.88 188.509 762.833 188.415 762.739 188.368C762.505 188.227 762.223 188.04 761.989 187.899C761.754 187.758 761.519 187.665 761.332 187.571C761.285 187.524 761.191 187.477 761.05 187.43C760.863 187.336 760.675 187.289 760.487 187.242C760.347 187.196 760.206 187.149 760.065 187.102C759.878 187.055 759.643 186.961 759.408 186.961C759.127 186.914 758.845 186.867 758.564 186.82C758.236 186.773 757.86 186.773 757.485 186.773C755.937 186.773 754.436 187.149 753.169 187.805C751.856 188.462 750.777 189.4 749.885 190.573L751.011 191.417C752.466 189.447 754.811 188.181 757.485 188.181C757.72 188.181 758.001 188.181 758.236 188.227C758.283 188.227 758.329 188.227 758.376 188.227C758.658 188.274 758.939 188.321 759.127 188.368C759.315 188.415 759.502 188.462 759.643 188.509C759.784 188.556 759.878 188.556 759.971 188.603H760.018H760.065C760.253 188.65 760.394 188.697 760.487 188.743C760.534 188.79 760.581 188.79 760.675 188.837C760.863 188.931 761.097 189.025 761.238 189.119C761.473 189.212 761.66 189.353 761.895 189.541C762.129 189.728 762.364 189.869 762.598 190.057C762.833 190.244 763.068 190.479 763.255 190.666C763.443 190.901 763.63 191.089 763.771 191.276L763.818 191.37C764.85 192.73 765.413 194.372 765.413 196.201C765.413 198.453 764.522 200.47 763.068 201.924C761.613 203.378 758.658 204.269 756.406 204.269H754.154C752.419 202.111 749.745 200.751 746.742 200.751C743.834 200.751 741.207 202.064 739.471 204.128C733.044 203.143 728.072 197.608 728.072 190.901C728.072 188.603 728.681 186.445 729.667 184.522L745.992 154.316C748.103 150.422 749.182 146.06 749.182 141.604V124.391C749.229 124.344 749.229 124.297 749.276 124.25C749.369 124.062 749.557 123.828 749.792 123.499C750.308 122.89 751.105 121.998 752.372 121.154C754.905 119.466 759.127 117.73 766.023 117.73C771.465 117.73 778.736 119.278 784.881 120.92C791.074 122.561 796.14 124.297 797.219 124.672C797.36 124.719 797.454 124.766 797.454 124.766L797.923 123.452C797.923 123.452 786.758 119.466 776.109 117.496C772.544 116.839 769.072 116.37 766.023 116.37C761.191 116.37 757.532 117.167 754.858 118.293C752.137 119.419 750.401 120.826 749.322 121.952C749.276 121.998 749.229 122.045 749.182 122.092V109.756C749.182 89.6813 757.673 71.6231 771.23 58.8651C773.482 62.0077 776.531 64.6812 780.378 66.6512L788.259 70.5912L789.713 71.3416C795.718 74.3435 800.597 78.7994 804.115 84.1934C808.243 90.4786 810.495 98.0302 810.495 105.957V119.419V120.122C810.777 136.445 821.285 151.548 837.751 156.848C839.768 157.505 841.832 157.974 843.896 158.302C842.442 159.756 841.035 161.351 839.815 163.087C837.282 166.558 835.405 170.357 834.139 174.25C832.872 178.143 832.262 182.177 832.262 186.211C832.262 198.406 837.891 210.413 848.493 218.106C855.296 223.031 863.13 225.47 870.917 225.61V232.834C871.105 238.228 869.463 243.34 866.554 248.218ZM987.492 149.203C984.068 151.97 980.08 154.128 975.624 155.535C973.184 156.332 970.745 156.848 968.306 157.13C966.945 157.317 965.585 157.364 964.271 157.364C963.943 157.364 963.614 157.364 963.333 157.364C958.689 157.317 954.185 156.379 950.01 154.738L945.929 153.049L935.467 148.781L914.263 140.104V139.494L914.404 136.21L946.163 125.891L950.714 124.391L950.292 123.03L945.741 124.531L913.982 134.85L912.293 132.74L937.438 103.143C937.766 102.768 938.095 102.345 938.376 101.97C941.894 97.3736 944.381 91.9796 945.6 86.1165C946.914 85.3661 948.321 84.7094 949.775 84.1465C950.526 83.8182 951.324 83.5368 952.121 83.2554C956.015 81.9889 959.955 81.3792 963.849 81.3792C966.429 81.3792 968.962 81.6606 971.449 82.1766C977.922 83.4899 983.974 86.4918 988.947 90.8539C993.919 95.216 997.813 100.938 1000.02 107.693C1000.35 108.678 1000.63 109.663 1000.86 110.648C1001.57 113.603 1001.89 116.557 1001.89 119.466C1001.89 131.051 996.546 142.027 987.492 149.203ZM942.176 224.297C939.877 224.297 937.532 224.062 935.233 223.64C925.991 221.952 917.36 216.839 911.355 208.631C909.854 206.567 908.587 204.409 907.602 202.205C905.35 197.374 904.224 192.261 904.131 187.102C904.131 186.773 904.131 186.445 904.131 186.164C904.131 185.882 904.131 185.554 904.131 185.226C904.131 184.803 904.131 184.381 904.177 184.053L907.086 145.544L907.649 145.404L910.792 144.513L933.263 175.423L934.388 174.578L911.918 143.715L913.654 141.558L934.811 150.235L945.272 154.503L949.4 156.192C953.763 157.927 958.454 158.865 963.239 158.912C963.567 158.912 963.896 158.912 964.224 158.912C965.538 158.912 966.804 158.818 968.118 158.678C969.807 160.272 971.402 162.055 972.856 164.025C977.782 170.779 980.127 178.565 980.127 186.351C980.127 198.124 974.686 209.663 964.459 217.121C963.943 217.496 963.427 217.824 962.864 218.199C956.531 222.28 949.306 224.297 942.176 224.297ZM902.864 208.209C902.77 208.349 902.676 208.49 902.582 208.631C895.124 218.856 883.583 224.297 871.808 224.297C864.068 224.297 856.234 221.952 849.479 217.027C839.252 209.569 833.81 197.984 833.81 186.257C833.81 178.518 836.156 170.685 841.081 163.931C842.536 161.961 844.084 160.179 845.819 158.584C847.227 158.725 848.681 158.818 850.088 158.818C855.108 158.818 859.987 157.88 864.537 156.051L872.043 152.955L898.22 142.214L901.738 143.856L879.502 174.438L880.628 175.282L903.052 144.466L905.679 145.404L902.77 183.865C902.723 184.287 902.723 184.71 902.723 185.085C902.723 185.413 902.723 185.742 902.723 186.07C902.723 186.398 902.723 186.727 902.723 187.055C902.77 189.681 903.099 192.261 903.661 194.841C904.224 197.421 905.069 199.954 906.195 202.393C905.303 204.456 904.177 206.333 902.864 208.209ZM911.214 131.473C911.12 131.332 910.98 131.239 910.792 131.239L907.649 130.535V92.1672H906.242V130.254L902.536 129.456L883.302 98.2648C879.924 92.9646 875.28 88.4617 869.604 85.2253C869.181 82.927 868.9 80.5349 868.9 78.0959C868.9 73.2178 869.838 68.5743 871.48 64.2591C874.529 56.426 880.159 49.8594 887.242 45.5442C890.104 43.8087 893.2 42.4485 896.531 41.5104C899.815 40.5723 903.286 40.0564 906.898 40.0564C917.407 40.0564 926.883 44.3247 933.779 51.1727C940.675 58.0677 944.897 67.5424 944.897 78.049V78.2835C944.897 80.7694 944.615 83.1616 944.146 85.5068C943.02 91.276 940.534 96.5762 937.109 101.079C936.828 101.454 936.5 101.876 936.218 102.205L911.261 131.614L911.214 131.473ZM912.95 135.976L912.809 139.494L912.762 140.338L910.651 143.012L907.274 143.997L906.476 144.231L903.098 143.012L898.595 140.854L896.578 139.916L863.364 124.203L860.362 122.749C860.55 122.421 860.69 122.092 860.737 121.717L899.815 130.254L902.066 130.723L906.898 131.755L910.37 132.505L910.886 133.162L912.95 135.976ZM870.448 63.2741C866.977 62.9926 863.364 62.8988 859.565 62.8988C854.31 62.8988 849.056 63.2741 843.943 64.1184C838.83 64.9626 833.904 66.1352 829.119 67.8238C819.924 71.0602 811.621 75.9852 804.913 82.7394C801.3 77.4861 796.422 73.124 790.417 70.1221L789.854 69.8407C808.009 52.4861 831.371 43.2928 858.626 43.2928C863.458 43.2928 868.056 43.4804 872.418 43.8087C876.828 44.184 881.003 44.6999 884.991 45.3566C878.564 49.7187 873.45 55.957 870.448 63.2741ZM829.682 69.1371C838.97 65.8538 849.244 64.306 859.611 64.306C863.224 64.306 866.648 64.4467 869.932 64.6343C868.384 68.8088 867.54 73.3585 867.54 78.049C867.54 80.1597 867.727 82.2704 868.056 84.3342C866.226 83.3961 864.256 82.5518 862.239 81.8951C858.204 80.5818 854.076 79.972 850.042 79.972C833.435 79.972 818.001 90.5725 812.559 107.224C812.372 107.833 812.184 108.443 811.996 109.053V105.957C811.996 97.9833 809.791 90.3379 805.71 83.912C812.325 77.2047 820.534 72.3735 829.682 69.1371ZM812.09 119.419C812.09 115.526 812.7 111.586 813.967 107.693C819.174 91.6043 834.092 81.4261 850.088 81.4261C853.982 81.4261 857.923 82.0358 861.816 83.3023C864.256 84.0996 866.508 85.0846 868.665 86.3041C874.248 89.3998 878.845 93.8558 882.129 99.0152L900.659 129.034L900.049 128.893L860.644 120.263C860.55 119.841 860.362 119.466 860.128 119.09C859.471 118.199 858.439 117.73 857.407 117.73C856.75 117.73 856.046 117.918 855.436 118.34C855.202 118.527 854.967 118.715 854.827 118.95L851.308 118.199L853.278 115.479C853.701 115.666 854.123 115.76 854.592 115.76C854.92 115.76 855.296 115.713 855.624 115.619C856.328 115.385 856.891 114.916 857.313 114.353C857.688 113.79 857.923 113.133 857.923 112.43C857.923 112.102 857.876 111.773 857.782 111.445C857.313 110.038 855.999 109.147 854.592 109.147C854.264 109.147 853.888 109.194 853.56 109.287C852.153 109.756 851.261 111.07 851.261 112.477C851.261 112.805 851.308 113.133 851.402 113.509C851.543 113.978 851.777 114.353 852.106 114.681L850.042 117.496L847.977 114.681C848.493 114.072 848.822 113.321 848.822 112.477C848.822 110.648 847.321 109.147 845.491 109.147C843.662 109.147 842.16 110.648 842.16 112.477C842.16 114.306 843.662 115.807 845.491 115.807C845.96 115.807 846.429 115.713 846.805 115.526L848.869 118.34L845.585 119.419C845.21 118.715 844.553 118.199 843.755 117.918C843.427 117.824 843.052 117.777 842.723 117.777C841.316 117.777 840.002 118.668 839.58 120.075C839.486 120.404 839.393 120.779 839.393 121.107C839.393 122.514 840.284 123.828 841.691 124.297C842.02 124.391 842.395 124.484 842.723 124.484C844.131 124.484 845.444 123.593 845.913 122.186C846.007 121.858 846.101 121.482 846.101 121.154C846.101 121.013 846.101 120.92 846.054 120.826L849.385 119.747V123.218C848.634 123.359 847.884 123.828 847.414 124.531C846.992 125.094 846.805 125.798 846.805 126.454V126.501C846.805 127.533 847.274 128.518 848.165 129.175C848.775 129.597 849.432 129.831 850.088 129.831H850.135C851.167 129.831 852.199 129.362 852.856 128.471C853.278 127.861 853.466 127.205 853.466 126.548C853.466 125.516 852.997 124.484 852.106 123.828C851.73 123.546 851.261 123.359 850.839 123.265V119.935L854.17 121.482C854.217 122.045 854.404 122.655 854.78 123.124C855.436 124.015 856.468 124.484 857.454 124.484C858.11 124.484 858.767 124.297 859.33 123.922L862.755 125.563L895.968 141.276L896.531 141.558L871.527 151.783L864.021 154.878C859.658 156.614 854.92 157.552 850.088 157.552C848.634 157.552 847.133 157.458 845.632 157.271C843.192 156.989 840.753 156.473 838.314 155.676C822.27 150.376 812.09 135.46 812.09 119.419ZM855.53 121.154C855.53 121.107 855.53 121.06 855.53 120.967V120.873C855.53 120.591 855.577 120.357 855.765 120.075C855.906 119.841 856.046 119.653 856.281 119.466C856.609 119.231 857.031 119.09 857.407 119.09C858.017 119.09 858.579 119.372 858.955 119.888C859.189 120.169 859.283 120.497 859.283 120.826C859.283 120.873 859.283 120.967 859.283 121.013C859.283 121.529 859.095 122.045 858.673 122.374L858.626 122.421L858.579 122.467C858.579 122.467 858.579 122.514 858.486 122.561C858.11 122.796 857.735 122.937 857.36 122.937C856.75 122.937 856.187 122.655 855.812 122.139C855.624 121.905 855.53 121.529 855.53 121.154ZM852.669 112.477C852.669 111.679 853.185 110.929 853.982 110.648C854.17 110.601 854.404 110.554 854.592 110.554C855.389 110.554 856.14 111.07 856.421 111.867C856.468 112.055 856.515 112.242 856.515 112.43C856.515 112.852 856.375 113.227 856.14 113.556C855.905 113.884 855.577 114.118 855.202 114.259C855.014 114.306 854.78 114.353 854.592 114.353C854.17 114.353 853.794 114.212 853.466 113.978C853.138 113.743 852.903 113.368 852.762 112.993C852.716 112.852 852.669 112.664 852.669 112.477ZM851.214 124.813C851.73 125.188 852.012 125.798 852.012 126.361C852.012 126.736 851.871 127.158 851.637 127.486C851.261 128.002 850.651 128.284 850.088 128.284C849.713 128.284 849.291 128.143 848.963 127.908C848.447 127.533 848.165 126.97 848.165 126.361C848.165 125.985 848.306 125.563 848.54 125.235C848.916 124.719 849.479 124.437 850.088 124.437C850.464 124.484 850.886 124.578 851.214 124.813ZM847.508 112.477C847.508 113.087 847.18 113.696 846.711 114.025C846.382 114.259 846.007 114.4 845.585 114.4C845.069 114.4 844.6 114.165 844.224 113.837C843.849 113.509 843.662 112.993 843.662 112.477C843.662 111.961 843.896 111.492 844.224 111.117C844.553 110.741 845.069 110.554 845.585 110.554C846.101 110.554 846.57 110.788 846.945 111.117C847.274 111.445 847.508 111.914 847.508 112.477ZM844.694 121.06C844.694 121.248 844.647 121.436 844.6 121.623C844.318 122.421 843.568 122.983 842.77 122.983C842.583 122.983 842.395 122.937 842.207 122.89C841.785 122.749 841.457 122.514 841.222 122.186C840.988 121.858 840.847 121.482 840.847 121.06C840.847 120.873 840.894 120.685 840.941 120.451C841.222 119.653 841.973 119.137 842.77 119.137C842.958 119.137 843.146 119.184 843.38 119.231C843.99 119.419 844.459 119.888 844.6 120.451C844.647 120.685 844.694 120.873 844.694 121.06ZM945.882 84.3811C946.116 83.0677 946.257 81.7075 946.351 80.3473C947.055 81.2854 947.758 82.2704 948.415 83.2554C947.571 83.5368 946.726 83.9589 945.882 84.3811ZM963.849 80.019C959.815 80.019 955.733 80.6287 951.699 81.942C951.042 82.1296 950.385 82.4111 949.729 82.6456C948.696 81.0978 947.571 79.5968 946.398 78.049C946.398 56.2853 928.759 38.6492 906.992 38.6492C899.627 38.6492 892.731 40.6661 886.867 44.184C878.423 42.6361 869.041 41.7918 858.72 41.7918C830.995 41.7918 807.117 51.2196 788.634 69.0902L781.222 65.3379C777.329 63.3679 774.279 60.6005 772.121 57.3641C771.84 56.9889 771.605 56.5667 771.371 56.1446C794.451 34.9907 825.413 22.2796 859.142 22.2796V21.576V22.2796C860.69 22.2327 862.239 22.2327 863.787 22.2327C894.138 22.2327 916.984 29.5967 934.248 40.713C950.995 51.5011 962.488 65.8538 970.323 80.5349C968.165 80.2066 966.007 80.019 963.849 80.019ZM754.905 337.102C767.571 352.627 779.205 367.027 792.622 376.08C801.535 382.13 811.293 385.836 822.551 385.836C830.479 385.836 839.486 383.584 847.649 378.941C855.812 374.297 863.13 367.215 867.68 357.646C870.73 351.267 872.512 343.763 872.512 335.085V225.704C883.959 225.516 895.17 220.31 902.77 210.695V317.308V342.215C902.77 359.194 895.874 374.579 884.756 385.695C873.638 396.811 858.251 403.706 841.269 403.706H796.656C796.281 394.888 789.01 387.9 780.143 387.9C778.314 387.9 776.578 388.181 774.983 388.744C775.358 387.618 775.593 386.399 775.593 385.085C775.593 378.847 770.526 373.828 764.334 373.828C761.895 373.828 759.643 374.626 757.767 375.986C757.391 374.016 756.5 372.187 755.233 370.733C748.525 337.618 735.155 315.854 724.6 303.096C735.906 313.978 745.663 325.798 754.905 337.102ZM631.481 388.65C631.387 388.087 631.293 387.477 631.293 386.915C631.293 384.663 632.184 382.646 633.686 381.192C635.14 379.738 637.157 378.8 639.409 378.8C641.285 378.8 643.068 379.457 644.428 380.536L645.883 381.708L645.554 379.879C645.46 379.316 645.413 378.706 645.413 378.097C645.413 373.265 648.885 369.279 653.435 368.434C654.045 368.294 654.608 368.247 655.265 368.247C656.907 368.247 658.455 368.669 659.815 369.372C661.176 370.076 662.348 371.108 663.24 372.327L663.943 373.265L664.459 372.234C666.617 367.825 671.168 364.776 676.422 364.776C679.19 364.776 681.676 365.62 683.834 367.027C685.147 367.918 686.32 369.044 687.258 370.31L688.056 371.389L688.525 370.123C690.355 364.963 695.28 361.258 701.097 361.258C703.631 361.258 705.976 361.961 707.993 363.181C710.011 364.4 711.652 366.136 712.825 368.2L713.435 369.325L714.045 368.2C714.842 366.746 715.875 365.479 717.141 364.447C719.44 362.477 722.442 361.258 725.726 361.258C731.871 361.258 736.985 365.385 738.58 371.014L738.908 372.187L739.753 371.295C741.535 369.419 744.021 368.294 746.836 368.294C749.745 368.294 752.372 369.56 754.154 371.577C755.562 373.172 756.453 375.189 756.641 377.44L756.734 378.894L757.813 377.909C759.549 376.314 761.848 375.329 764.428 375.329C767.149 375.329 769.635 376.455 771.418 378.237C773.2 380.02 774.326 382.459 774.326 385.226C774.326 386.915 773.904 388.416 773.2 389.776L772.215 391.605L774.092 390.761C776.015 389.916 778.079 389.447 780.284 389.447C784.459 389.447 788.259 391.136 790.98 393.903C793.56 396.483 795.202 400.001 795.39 403.894H794.404H613.842C614.03 400.001 615.671 396.483 618.252 393.903C621.019 391.183 624.772 389.447 628.947 389.447C629.557 389.447 630.214 389.494 630.777 389.588L631.762 389.729L631.481 388.65ZM708.744 289.588L708.885 289.682C708.979 289.776 709.025 289.776 709.025 289.776L709.072 289.822L709.119 289.869L709.213 289.916C709.213 289.916 709.213 289.916 709.26 289.916C709.682 290.198 710.057 290.526 710.527 290.854C710.714 290.995 710.902 291.136 711.043 291.276C714.843 294.372 722.864 301.783 731.215 314.4C739.565 327.018 748.29 344.888 753.404 368.997C751.527 367.59 749.182 366.746 746.695 366.746C743.928 366.746 741.394 367.731 739.424 369.419C737.36 363.744 731.965 359.71 725.585 359.71C722.583 359.71 719.815 360.601 717.516 362.149C718.642 355.395 719.158 349.11 719.158 343.2C719.158 329.738 716.484 318.434 712.403 309.053C708.322 299.672 702.88 292.168 697.251 286.305C692.043 280.817 686.696 276.783 682.286 273.969C692.09 278.331 700.816 283.631 708.744 289.588ZM671.59 269.841C671.637 269.888 671.731 269.888 671.731 269.888H671.778H671.825H671.872C673.373 270.498 680.175 273.547 688.056 279.832C696.031 286.164 705.085 295.779 711.09 309.616C715.077 318.856 717.704 329.926 717.704 343.2C717.704 349.438 717.141 356.145 715.828 363.415C714.842 364.26 713.951 365.245 713.247 366.37C712.028 364.541 710.433 362.993 708.556 361.821C706.305 360.461 703.724 359.71 700.91 359.71C694.905 359.71 689.792 363.275 687.446 368.387C686.696 367.496 685.804 366.699 684.866 365.995C688.056 352.768 689.416 341.183 689.416 331.051C689.416 316.136 686.461 304.363 682.004 295.076C677.548 285.789 671.637 279.034 665.679 274.156C659.674 269.185 653.623 266.183 649.166 264.4C657.235 265.667 664.647 267.496 671.59 269.841ZM625.476 262.665C631.105 262.665 636.5 262.946 641.707 263.462V263.509H641.754C641.801 263.509 641.895 263.509 641.989 263.556C642.176 263.603 642.458 263.65 642.833 263.744C643.584 263.931 644.616 264.213 645.976 264.682C648.603 265.573 652.309 267.074 656.344 269.372C664.506 274.016 674.264 282.083 680.785 295.686C685.147 304.785 688.056 316.323 688.056 331.051C688.056 340.948 686.742 352.252 683.646 365.198C681.488 363.978 679.002 363.275 676.328 363.275C670.886 363.275 666.148 366.183 663.615 370.545C662.724 369.513 661.598 368.669 660.378 368.012C659.581 367.637 658.783 367.309 657.892 367.074C657.001 366.84 656.109 366.746 655.171 366.746C654.89 366.746 654.608 366.746 654.28 366.793C657.704 357.787 661.504 343.95 661.692 326.783C661.879 325.188 661.973 323.594 661.973 321.952C661.973 311.07 660.144 301.877 656.907 294.091C653.67 286.352 649.026 280.113 643.349 275.188C635.703 268.622 626.274 264.541 616.047 262.571H625.476V262.665ZM39.0817 444.795C39.1756 440.995 39.2694 437.196 39.3632 433.491C40.4891 388.791 41.4742 350.142 66.9472 313.603C67.3225 313.509 67.9323 313.368 68.7298 313.181C70.231 312.806 72.4827 312.243 75.3444 311.539C81.1145 310.132 89.4647 308.115 99.8322 305.723C104.007 304.738 108.511 303.706 113.343 302.627C97.9557 333.444 93.4991 374.766 93.4522 402.675H94.8596C94.8596 374.626 99.4569 332.834 115.078 302.252C131.779 298.5 151.857 294.138 173.671 289.682C163.069 305.066 156.267 324.907 152.045 344.935C147.729 365.573 146.181 386.446 146.181 402.675H147.588C147.588 386.492 149.136 365.761 153.405 345.217C157.674 324.766 164.711 304.55 175.641 289.26C177.518 288.884 179.394 288.509 181.271 288.134C198.862 284.616 217.486 281.098 236.345 277.862C221.708 292.027 212.467 313.556 206.837 336.117C200.973 359.569 198.956 384.1 198.956 402.675H200.364C200.364 384.194 202.334 359.757 208.198 336.445C214.015 313.228 223.679 291.23 238.878 277.393C260.27 273.734 281.896 270.451 302.631 267.871C292.967 273.078 285.039 281.004 278.565 290.62C271.575 301.033 266.227 313.462 262.287 326.502C254.359 352.674 251.779 381.474 251.779 402.628H253.186C253.186 386.868 254.64 366.746 258.675 346.764C262.709 326.736 269.37 306.802 279.738 291.417C286.54 281.286 294.937 273.124 305.258 268.106C305.492 268.246 305.727 268.387 305.961 268.528C306.665 268.856 307.65 269.138 308.917 269.419C311.403 269.982 314.922 270.451 319.144 270.826C327.119 271.577 337.674 272.046 348.698 272.139C346.868 273.5 345.086 274.954 343.397 276.502C333.076 285.929 325.336 299.016 319.566 313.603C308.073 342.778 304.554 378.003 304.554 402.675H305.961C305.961 384.241 307.932 359.898 313.749 336.68C319.519 313.462 329.183 291.417 344.335 277.533C346.493 275.564 348.745 273.781 351.137 272.139H401.473C399.644 273.5 397.861 274.954 396.172 276.502C385.852 285.929 378.111 299.016 372.341 313.603C360.848 342.778 357.33 378.003 357.33 402.675H358.737C358.737 384.241 360.707 359.898 366.524 336.68C372.294 313.462 381.958 291.417 397.111 277.533C399.269 275.564 401.52 273.781 403.913 272.139H454.249C452.419 273.5 450.637 274.954 448.948 276.502C438.627 285.929 430.887 299.016 425.117 313.603C413.623 342.778 410.105 378.003 410.105 402.675H411.512C411.512 384.241 413.483 359.898 419.3 336.68C425.07 313.462 434.734 291.417 449.886 277.533C452.044 275.564 454.296 273.781 456.688 272.139H507.071C505.242 273.5 503.459 274.954 501.77 276.502C491.45 285.929 483.709 299.016 477.939 313.603C466.446 342.778 462.928 378.003 462.928 402.675H464.335C464.335 384.241 466.305 359.898 472.122 336.68C477.939 313.462 487.556 291.417 502.708 277.533C504.866 275.564 507.118 273.781 509.511 272.139H557.689C558.393 272.139 559.096 272.139 559.8 272.186C551.356 278.378 544.46 286.821 538.83 296.577C532.826 306.989 528.275 318.95 524.851 331.38C518.002 356.192 515.75 382.834 515.75 402.675H517.157C517.157 387.9 518.424 369.279 521.942 350.47C525.461 331.708 531.184 312.759 540.097 297.28C546.008 287.055 553.232 278.378 562.145 272.28C575.468 273.078 588.369 277.627 598.877 285.742C586.962 301.08 579.409 321.811 574.812 342.871C570.167 364.213 568.525 385.883 568.525 402.675H569.933C569.933 385.977 571.575 364.354 576.172 343.153C580.722 322.233 588.275 301.689 599.956 286.586C600.191 286.774 600.378 286.914 600.613 287.102C606.758 292.215 611.965 298.406 615.578 305.864C619.19 313.322 621.301 322.046 621.301 332.271C621.301 345.357 617.97 356.38 613.326 365.245C608.635 374.11 602.583 380.817 597.048 385.226C593.389 388.181 589.964 390.057 587.431 390.902L587.853 392.215C590.621 391.277 594.139 389.307 597.892 386.305C601.645 383.303 605.679 379.222 609.338 374.204C616.704 364.119 622.661 350.001 622.661 332.271C622.661 321.858 620.503 312.899 616.797 305.254C613.091 297.609 607.743 291.276 601.457 286.023C589.213 275.845 573.545 270.685 557.642 270.685H350.715C339.034 270.685 327.682 270.169 319.331 269.372C314.218 268.903 310.23 268.293 307.932 267.637C307.65 267.543 307.369 267.496 307.134 267.402C309.339 267.074 311.685 266.792 314.124 266.464C322.943 265.479 331.575 264.635 339.879 264.025C349.073 263.368 358.925 262.899 369.104 262.665C372.06 262.618 375.109 262.571 378.111 262.571H600.894C612.669 262.571 624.022 264.916 633.639 270.123C643.209 275.282 651.043 283.303 655.734 294.607C658.877 302.158 660.66 311.211 660.66 321.905C660.66 323.5 660.566 325.095 660.378 326.642C659.581 333.584 657.094 340.104 653.435 346.108C649.776 352.158 644.991 357.693 639.643 362.759C628.901 372.843 615.953 380.864 605.445 386.586C598.455 390.386 592.591 393.153 589.213 394.841L589.823 396.108C594.89 393.575 605.632 388.556 617.313 381.286C628.994 374.016 641.66 364.494 650.527 352.862C654.655 347.468 657.939 341.558 659.956 335.226C658.83 348.734 655.593 359.663 652.732 367.027C647.712 368.153 643.959 372.656 643.959 378.003C643.959 378.19 643.959 378.331 644.006 378.472C642.646 377.721 641.051 377.299 639.409 377.299C634.155 377.299 629.886 381.568 629.886 386.821C629.886 387.196 629.933 387.524 629.933 387.9C629.557 387.853 629.182 387.853 628.807 387.853C619.659 387.853 612.247 395.264 612.247 404.41V405.114H796.609H841.175C875.937 405.114 904.131 376.924 904.131 342.168V314.729V208.819C905.21 207.318 906.148 205.723 906.945 204.128C907.883 205.957 908.962 207.74 910.229 209.475C913.278 213.65 916.984 217.074 921.066 219.653C925.194 222.233 929.697 224.016 934.388 224.954V431.474C934.388 440.855 930.589 449.298 924.443 455.442C918.626 461.211 910.792 464.964 902.02 465.339H901.832C901.363 465.339 900.894 465.386 900.425 465.386C895.499 465.386 890.667 464.307 886.21 462.243L869.135 454.363C824.569 433.772 776.062 423.172 726.993 423.172H331.481C271.951 423.172 212.608 430.114 154.672 443.904L38.2842 471.577L39.0817 444.795ZM885.225 463.275C883.208 462.759 881.144 462.196 878.986 461.54C871.152 459.194 862.379 456.005 852.528 452.628C832.778 445.873 808.619 438.463 779.111 435.789C764.897 434.476 746.273 433.725 727.415 433.256C726.946 433.256 726.477 433.256 726.007 433.209C714.983 432.928 703.912 432.787 693.685 432.646C691.856 432.6 690.073 432.6 688.291 432.6H519.55C518.471 432.6 517.439 432.6 516.407 432.6C515.938 432.6 515.468 432.6 514.999 432.6C503.412 432.506 494.358 432.177 487.322 431.661C479.393 431.052 474.046 430.16 470.574 429.082C468.229 428.378 466.727 427.581 465.789 426.783C465.273 426.314 464.898 425.892 464.71 425.423C464.569 425.142 464.476 424.813 464.429 424.532H727.086C775.968 424.532 824.287 435.132 868.665 455.63L885.225 463.275ZM8.54232 533.679C24.2108 522.468 31.4352 506.286 34.7659 494.701C37.7213 484.429 38.1904 475.845 38.2842 473.031L88.8549 461.024C88.5734 463.463 85.6649 483.725 71.7791 494.935L72.6704 496.014C87.8697 483.772 90.2622 461.117 90.3091 460.883L90.356 460.648L141.724 448.406C139.144 456.661 135.579 465.151 131.497 472.89C127.229 481.005 122.397 488.228 117.565 493.388C114.328 496.812 111.091 499.298 107.995 500.517L108.511 501.83C111.842 500.47 115.219 497.844 118.55 494.326C121.881 490.808 125.164 486.352 128.261 481.38C134.359 471.53 139.754 459.476 143.319 447.984L155.047 445.17C169.167 441.793 183.382 438.838 197.643 436.305C195.813 445.451 192.342 455.77 187.932 465.433C183.382 475.47 177.799 484.804 172.076 491.418C168.276 495.827 164.382 499.063 160.817 500.47L161.333 501.784C165.274 500.189 169.261 496.859 173.155 492.309C177.049 487.759 180.848 482.084 184.32 475.799C191.169 463.369 196.705 448.641 199.144 436.024C216.548 432.975 234.046 430.489 251.591 428.66C250.7 437.9 247.51 449.204 243.006 460.132C238.362 471.389 232.31 482.271 226.071 490.011C221.896 495.17 217.58 498.922 213.593 500.517L214.109 501.83C218.471 500.095 222.881 496.155 227.15 490.902C231.419 485.648 235.547 479.035 239.206 471.812C246.431 457.647 251.872 441.23 252.998 428.519C270.121 426.736 287.338 425.564 304.601 424.954C304.413 432.74 302.209 442.543 298.69 452.487C295.031 462.947 289.965 473.594 284.382 482.224C280.676 487.994 276.736 492.919 272.842 496.296C270.637 498.219 268.432 499.673 266.321 500.517L266.837 501.83C266.837 501.83 266.884 501.83 266.884 501.784V501.83C271.247 500.095 275.657 496.155 279.926 490.902C284.195 485.648 288.323 479.035 291.982 471.812C299.3 457.412 304.789 440.714 305.868 427.909H305.774C305.868 426.877 305.915 425.845 305.961 424.86C314.452 424.579 322.943 424.438 331.481 424.438H357.33C357.189 432.271 354.984 442.309 351.419 452.44C347.76 462.9 342.693 473.547 337.111 482.178C333.405 487.947 329.464 492.872 325.571 496.249C323.366 498.172 321.161 499.626 319.05 500.47L319.566 501.784C322.99 500.376 326.509 497.656 329.933 493.951C333.358 490.245 336.735 485.602 339.879 480.395C346.212 469.982 351.7 457.271 355.125 445.404C357.33 437.806 358.643 430.536 358.737 424.438H410.105C409.964 432.271 407.76 442.309 404.194 452.44C400.535 462.9 395.469 473.547 389.886 482.178C386.18 487.947 382.24 492.872 378.346 496.249C376.141 498.172 373.936 499.626 371.825 500.47L372.341 501.784C375.766 500.376 379.284 497.656 382.709 493.951C386.133 490.245 389.511 485.602 392.654 480.395C398.987 469.982 404.476 457.271 407.9 445.404C410.105 437.806 411.419 430.536 411.512 424.438H462.881C462.74 432.271 460.535 442.309 456.97 452.44C453.311 462.9 448.244 473.547 442.662 482.178C438.956 487.947 435.015 492.872 431.121 496.249C428.917 498.172 426.712 499.626 424.601 500.47L425.117 501.784C428.541 500.376 432.06 497.656 435.484 493.951C438.909 490.245 442.286 485.602 445.429 480.395C451.763 469.982 457.251 457.271 460.676 445.404C462.552 438.885 463.772 432.6 464.147 427.112C464.429 427.393 464.71 427.721 465.085 428.003C466.727 429.222 469.261 430.301 473.295 431.145C480.801 432.787 493.514 433.819 514.718 433.913C513.873 439.448 512.185 445.264 509.698 452.44C506.039 462.9 500.973 473.547 495.39 482.178C491.684 487.947 487.744 492.872 483.85 496.249C481.645 498.172 479.44 499.626 477.329 500.47L477.845 501.784C481.317 500.376 484.788 497.656 488.213 493.951C491.637 490.245 495.015 485.602 498.158 480.395C504.491 469.982 509.98 457.271 513.404 445.404C514.718 440.855 515.609 437.29 516.125 433.913C517.204 433.913 518.33 433.913 519.456 433.913H567.399C566.602 439.448 564.96 445.404 562.474 452.44C558.815 462.9 553.748 473.547 548.166 482.178C544.46 487.947 540.519 492.872 536.626 496.249C534.421 498.172 532.216 499.626 530.105 500.47L530.621 501.784C534.092 500.376 537.564 497.656 540.988 493.951C544.413 490.245 547.79 485.602 550.934 480.395C557.267 469.982 562.755 457.271 566.18 445.404C567.446 440.949 568.291 437.337 568.807 433.913H620.175C619.377 439.448 617.736 445.311 615.249 452.44C611.59 462.9 606.524 473.547 600.941 482.178C597.235 487.947 593.295 492.872 589.401 496.249C587.196 498.172 584.991 499.626 582.88 500.47L583.396 501.784C586.868 500.376 590.339 497.656 593.764 493.951C597.188 490.245 600.566 485.602 603.709 480.395C610.042 469.982 615.531 457.271 618.955 445.404C620.269 440.855 621.113 437.29 621.582 433.913H672.95C672.106 439.494 670.417 445.545 668.025 452.44C664.366 462.9 659.299 473.547 653.717 482.178C650.011 487.947 646.07 492.872 642.177 496.249C639.972 498.172 637.767 499.626 635.656 500.47L636.172 501.784C639.596 500.376 643.115 497.656 646.539 493.951C649.964 490.245 653.341 485.602 656.485 480.395C662.818 469.982 668.306 457.271 671.731 445.404C672.95 441.089 673.842 437.384 674.358 433.913H688.103C699.737 434.007 712.685 434.194 725.632 434.523C724.741 439.964 723.099 445.827 720.753 452.44C717.094 462.9 712.028 473.547 706.445 482.178C702.739 487.947 698.799 492.872 694.905 496.249C692.7 498.172 690.495 499.626 688.384 500.47L688.9 501.784C692.325 500.376 695.843 497.656 699.268 493.951C702.692 490.245 706.07 485.602 709.213 480.395C715.546 469.982 721.035 457.271 724.459 445.404C725.632 441.371 726.477 437.853 727.039 434.57C745.523 435.039 763.818 435.789 777.892 437.009C775.968 446.155 772.45 456.427 768.04 466.042C763.49 475.892 757.954 485.086 752.325 491.558C748.572 495.921 744.725 499.063 741.207 500.47L741.723 501.784C745.616 500.236 749.557 496.905 753.404 492.496C757.25 488.087 761.003 482.459 764.428 476.314C771.183 464.166 776.719 449.673 779.299 437.196C797.688 438.932 813.967 442.449 828.415 446.53C825.694 454.926 821.191 465.995 817.016 473.735C812.794 481.615 808.056 488.603 803.318 493.622C800.128 496.952 796.938 499.345 793.982 500.564L794.498 501.877C797.782 500.564 801.066 498.031 804.35 494.607C807.587 491.183 810.823 486.915 813.873 482.037C819.877 472.468 826.164 458.256 829.776 446.952C847.696 452.065 862.755 457.928 875.468 461.962C872.606 468.575 868.947 475.658 865.429 481.286C861.816 487.009 857.97 491.981 854.17 495.498C851.637 497.844 849.103 499.579 846.711 500.564L847.227 501.877C849.854 500.845 852.481 498.969 855.108 496.53C857.735 494.091 860.315 491.042 862.848 487.572C867.821 480.677 872.887 471.389 876.781 462.384C877.344 462.571 877.86 462.712 878.376 462.9C886.257 465.245 893.2 466.793 899.393 466.793C900.19 466.793 900.987 466.793 901.785 466.699H901.879V465.949L901.926 466.699C911.073 466.277 919.236 462.431 925.288 456.38C928.478 453.191 931.058 449.391 932.84 445.17C934.623 440.949 935.608 436.305 935.608 431.427V225.188C937.719 225.516 939.83 225.704 941.941 225.704C948.931 225.704 956.015 223.828 962.348 219.982V317.308V412.759C962.348 447.281 948.368 478.519 925.71 501.127C903.099 523.735 871.855 537.712 837.329 537.712H4.7894C5.72763 536.165 6.99424 534.757 8.54232 533.679ZM130.231 552.065C129.105 552.065 128.12 551.596 127.369 550.892C126.619 550.142 126.196 549.157 126.196 548.031V547.328H51.7948C50.6689 547.328 49.6837 546.859 48.9332 546.155C48.1826 545.405 47.7604 544.42 47.7604 543.294C47.7604 542.168 48.2295 541.183 48.9332 540.433C49.6837 539.682 50.6689 539.26 51.7948 539.26H808.009H839.299C839.299 539.307 839.252 539.307 839.252 539.354C839.017 539.729 838.642 540.151 838.126 540.62C837.047 541.559 835.358 542.637 832.919 543.622C827.993 545.639 820.018 547.328 808.056 547.328H710.527V548.031C710.527 549.157 710.057 550.142 709.354 550.892C708.603 551.643 707.618 552.065 706.492 552.065H627.165V552.769C627.165 553.894 626.696 554.879 625.992 555.63C625.241 556.38 624.256 556.802 623.13 556.802H304.132C303.006 556.802 302.021 556.333 301.27 555.63C300.52 554.879 300.098 553.894 300.098 552.769V552.065H130.231V552.065ZM882.973 625.424C882.035 625.424 881.144 625.424 880.206 625.377H818.236L818.142 625.986C818.001 626.971 817.485 627.816 816.781 628.426C816.078 629.035 815.139 629.411 814.154 629.411H637.392C636.359 629.411 635.468 629.035 634.764 628.426C634.061 627.816 633.545 626.971 633.404 625.986L633.31 625.377H311.169L311.075 625.986C310.934 626.971 310.418 627.816 309.714 628.426C309.011 629.035 308.073 629.411 307.087 629.411H130.278C129.246 629.411 128.354 629.035 127.651 628.426C126.947 627.816 126.431 626.971 126.29 625.986L126.196 625.377H49.7307C49.2615 625.377 48.8393 625.189 48.5579 624.908C48.2764 624.579 48.0887 624.204 48.0887 623.735C48.0887 623.266 48.2764 622.844 48.5579 622.562C48.8862 622.234 49.2615 622.046 49.7307 622.046H910.511C901.879 624.298 892.731 625.424 882.973 625.424ZM977.641 588.416C958.876 607.928 933.028 620.358 904.459 620.639C904.177 620.639 903.849 620.639 903.568 620.639H49.7307C49.027 620.639 48.3702 620.874 47.8542 621.296C47.2913 621.718 46.916 622.328 46.7752 622.985C45.3679 622.469 44.0074 621.906 42.647 621.296C12.4829 607.741 -4.35835 574.345 3.24132 541.746C3.42896 540.855 3.75735 540.011 4.13264 539.166H48.2764C47.1505 540.151 46.4468 541.605 46.4468 543.247C46.4468 546.249 48.8862 548.688 51.8886 548.688H124.93C125.258 551.362 127.557 553.425 130.325 553.425H298.784C299.112 556.099 301.411 558.163 304.179 558.163H623.177C625.945 558.163 628.244 556.099 628.572 553.425H706.445C709.213 553.425 711.512 551.362 711.84 548.688H808.009C815.937 548.688 822.223 547.938 827.008 546.859C831.793 545.733 835.171 544.279 837.422 542.825C838.923 541.84 839.909 540.902 840.425 540.011C840.612 539.729 840.753 539.401 840.8 539.119C909.103 537.384 963.943 481.474 963.943 412.759V311.68V219.091C964.365 218.809 964.834 218.481 965.256 218.152C970.557 214.306 974.639 209.381 977.359 203.894C980.08 198.406 981.488 192.355 981.488 186.257C981.488 178.237 979.048 170.122 973.935 163.134C972.668 161.398 971.308 159.803 969.807 158.349C971.871 158.021 973.888 157.552 975.952 156.895C980.08 155.582 983.833 153.612 987.117 151.173V461.117C987.117 497.234 971.261 529.926 945.6 553.613C919.94 577.3 884.475 591.981 845.303 591.981H807.164V593.388H845.303C884.85 593.388 920.643 578.613 946.585 554.692C972.528 530.77 988.571 497.656 988.571 461.117V150.094C997.813 142.636 1003.25 131.332 1003.25 119.419C1003.25 116.417 1002.88 113.321 1002.18 110.272C1001.94 109.287 1001.66 108.255 1001.33 107.27C996.828 93.3867 985.334 83.7244 972.012 80.9101C964.084 65.76 952.309 50.7975 934.951 39.5873C917.453 28.3303 894.326 20.8725 863.74 20.8725C862.192 20.8725 860.644 20.8725 859.095 20.9194C842.113 20.9194 825.835 24.1089 810.87 29.9719C795.906 35.835 782.301 44.3247 770.667 54.9251C768.931 51.548 768.087 47.7956 768.087 43.9964C768.087 39.8688 769.119 35.7412 771.23 32.0357C773.341 28.3772 776.437 25.1408 780.659 22.8425C793.138 15.9944 805.757 10.6004 820.112 6.94186C834.467 3.28331 850.558 1.31332 870.073 1.31332C936.171 1.31332 991.386 47.6549 1005.08 109.569C1007.24 119.231 1008.37 129.269 1008.37 139.588V512.759C1008.37 534.101 1001.99 554.41 990.964 571.484C987.07 577.628 982.614 583.257 977.641 588.416Z" fill="#53352B"/>
<path d="M759.175 133.678C757.908 133.678 756.782 133.162 755.938 132.317C755.093 131.473 754.577 130.347 754.577 129.081H753.17C753.17 132.411 755.844 135.085 759.128 135.085H763.256C762.834 135.507 762.458 136.023 762.13 136.633C761.192 138.368 760.629 140.666 760.629 143.199C760.629 145.122 760.957 146.858 761.473 148.359C762.036 149.86 762.834 151.079 763.819 151.877C764.382 152.299 764.992 152.58 765.648 152.674L762.224 154.972C760.347 156.098 759.315 158.068 759.315 160.132C759.315 161.164 759.597 162.196 760.113 163.134L761.333 162.43C760.91 161.727 760.723 160.929 760.723 160.132C760.723 158.537 761.52 157.036 762.974 156.192L762.599 155.582L762.974 156.145L768.229 152.674L796.61 133.771H766.117H759.175V133.678ZM763.444 149.062C762.646 147.608 762.13 145.498 762.13 143.199C762.13 141.464 762.412 139.869 762.928 138.556C763.397 137.242 764.1 136.257 764.804 135.695C765.273 135.319 765.742 135.132 766.258 135.132C766.727 135.132 767.243 135.319 767.712 135.695C768.182 136.07 768.651 136.633 769.073 137.383C769.87 138.837 770.386 140.948 770.386 143.246C770.386 145.122 770.058 146.858 769.495 148.265C768.932 149.625 768.135 150.61 767.384 151.079C767.009 151.314 766.68 151.361 766.305 151.361C765.836 151.361 765.32 151.173 764.851 150.798C764.288 150.376 763.819 149.813 763.444 149.062ZM770.34 149.578C770.48 149.297 770.621 149.015 770.762 148.734C771.419 147.186 771.794 145.263 771.794 143.199C771.794 141.323 771.465 139.541 770.903 138.04C770.48 136.867 769.87 135.882 769.167 135.132H792.06L770.34 149.578Z" fill="#5B3A1C"/>
<path d="M587.619 391.652L589.496 395.545C589.496 395.545 571.904 405.301 564.82 406.005C557.737 406.708 557.221 400.705 557.221 400.705C561.161 400.658 566.744 399.063 571.857 397.234C577.299 395.264 582.178 393.059 584.242 392.074C584.852 391.793 585.227 391.605 585.227 391.605C585.884 391.84 586.916 391.887 587.619 391.652Z" fill="#F1C650"/>
<path d="M585.601 385.555C584.382 384.054 581.426 380.723 579.644 378.988C575.328 374.767 575.515 372.374 573.17 371.202C573.967 370.639 574.436 369.982 574.53 369.795C570.824 369.842 569.839 367.684 570.121 366.511C570.496 364.682 568.901 365.526 568.244 364.917C568.01 364.682 567.963 364.401 567.963 364.354L562.615 363.65C558.909 360.648 554.171 361.399 553.983 361.399C553.092 361.399 552.107 360.554 550.746 360.32C549.526 360.085 547.087 360.601 545.445 360.601C543.428 360.601 539.487 358.35 537.752 358.303C536.72 358.256 535.688 358.866 535.688 359.569C535.688 360.789 539.816 360.695 539.816 360.977C539.769 361.352 537.236 361.774 537.189 361.915C537.329 362.431 546.149 362.431 548.682 363.181C550.371 363.65 554.311 365.057 556.094 365.151C556.094 365.151 551.637 373.594 551.309 376.971C550.981 380.395 561.536 378.707 561.536 378.707C561.536 378.707 563.178 374.532 566.79 374.532C567.869 374.532 569.417 375.236 570.824 376.033V382.74C572.185 383.116 574.249 383.397 575.985 382.928C575.985 382.928 579.221 388.416 584.194 392.027L584.241 392.121C584.851 391.84 585.226 391.652 585.226 391.652C585.977 391.84 587.009 391.887 587.712 391.652C588.275 391.464 588.651 391.136 588.651 390.573C588.557 389.307 587.009 387.196 585.601 385.555Z" fill="#B46C51"/>
<path d="M574.484 369.795C570.778 369.842 569.793 367.684 570.074 366.511C570.449 364.682 568.854 365.526 568.198 364.917C567.963 364.682 567.916 364.401 567.916 364.354C568.854 362.712 570.637 362.29 572.044 362.29H572.091C576.172 362.337 577.345 366.98 576.689 369.232H578.237C576.782 369.607 575.563 369.795 574.484 369.795Z" fill="#965442"/>
<path d="M574.485 396.155L571.764 397.187C571.764 397.187 565.149 394.044 562.851 387.712C562.851 387.712 560.552 387.478 559.191 386.868L559.567 381.896C559.567 381.896 563.179 380.864 565.478 384.241C565.571 384.382 565.665 384.523 565.759 384.663C568.011 388.463 574.485 396.155 574.485 396.155Z" fill="#B46C51"/>
<path d="M559.237 386.821C548.775 385.789 551.309 376.971 551.309 376.971C550.98 380.395 561.535 378.706 561.535 378.706C561.535 378.706 563.177 374.532 566.79 374.532C567.869 374.532 569.417 375.236 570.824 376.033V382.74V384.57C569.51 384.523 567.212 384.335 565.57 384.194C563.318 380.864 559.659 381.849 559.659 381.849L559.237 386.821Z" fill="#D03F36"/>
<path d="M588.792 391.746C589.074 391.464 589.214 390.995 589.214 390.573C589.214 390.104 589.074 389.682 588.886 389.213C588.698 388.744 588.464 388.322 588.135 387.853C587.526 386.915 586.775 385.977 586.071 385.085C584.805 383.584 581.896 380.254 580.067 378.472C578.472 376.924 577.533 375.658 576.83 374.579C576.126 373.5 575.657 372.609 575.047 371.858C574.812 371.577 574.578 371.342 574.296 371.108C574.39 371.014 574.484 370.873 574.578 370.78C574.672 370.639 574.766 370.545 574.812 370.451C575.845 370.404 577.017 370.217 578.425 369.841L578.049 368.481C577.862 368.528 577.721 368.575 577.533 368.622C577.58 368.387 577.58 368.106 577.58 367.871C577.58 366.886 577.346 365.808 576.877 364.776C576.407 363.744 575.657 362.806 574.578 362.196C573.874 361.774 573.03 361.539 572.045 361.539H571.998C571.2 361.539 570.309 361.633 569.465 362.008C568.714 362.29 568.057 362.806 567.494 363.556L562.756 362.946C561.49 361.962 560.082 361.352 558.816 361.023C557.502 360.695 556.282 360.601 555.344 360.601C554.687 360.601 554.218 360.648 553.937 360.648C553.89 360.648 553.843 360.648 553.796 360.648C553.702 360.648 553.515 360.601 553.327 360.554C553.139 360.507 552.905 360.367 552.623 360.273C552.107 360.038 551.451 359.757 550.653 359.616C550.372 359.569 550.043 359.522 549.715 359.522C549.011 359.522 548.214 359.616 547.416 359.71C546.619 359.804 545.821 359.851 545.211 359.851C544.93 359.851 544.508 359.804 544.085 359.663C543.616 359.522 543.147 359.382 542.584 359.194C541.505 358.819 540.379 358.303 539.394 357.975C538.737 357.74 538.128 357.552 537.565 357.552H537.424C536.955 357.552 536.486 357.646 536.064 357.834C535.641 358.022 535.266 358.256 535.031 358.631C534.844 358.866 534.75 359.194 534.75 359.522C534.75 359.71 534.797 359.945 534.891 360.085C534.985 360.273 535.125 360.414 535.219 360.507C535.454 360.742 535.782 360.836 536.064 360.977C536.298 361.07 536.58 361.117 536.814 361.164C536.767 361.164 536.72 361.211 536.626 361.258C536.58 361.305 536.533 361.305 536.439 361.446C536.392 361.492 536.345 361.586 536.298 361.68L536.251 361.868L536.298 362.055C536.345 362.149 536.392 362.243 536.439 362.337C536.486 362.384 536.533 362.431 536.58 362.477C536.673 362.571 536.72 362.571 536.814 362.618C536.955 362.665 537.049 362.712 537.189 362.759C537.424 362.806 537.752 362.853 538.128 362.9C538.878 362.993 539.816 363.04 540.895 363.087C543.006 363.228 545.54 363.369 547.182 363.603C547.651 363.65 548.026 363.744 548.307 363.838C548.917 364.025 549.856 364.307 550.888 364.635C551.92 364.963 553.045 365.292 554.078 365.526C554.359 365.573 554.594 365.62 554.828 365.667C554.031 367.215 552.389 370.545 551.357 373.406C550.888 374.673 550.559 375.798 550.465 376.783C550.418 376.971 550.184 377.909 550.184 379.175C550.184 380.254 550.372 381.568 550.981 382.881C551.591 384.194 552.717 385.461 554.5 386.305C555.673 386.868 557.174 387.29 558.956 387.478C559.707 387.759 560.551 387.947 561.255 388.087C561.63 388.134 561.959 388.228 562.193 388.228C563.46 391.371 565.618 393.669 567.541 395.264C568.479 396.014 569.324 396.577 569.981 396.999C567.87 397.703 565.759 398.406 563.694 398.922C561.208 399.532 558.863 399.954 556.986 400.001H556.236L556.282 400.751C556.282 400.798 556.376 401.596 556.798 402.675C557.221 403.706 558.065 404.973 559.566 405.817C560.551 406.38 561.865 406.755 563.46 406.755C563.835 406.755 564.257 406.755 564.68 406.708C566.556 406.521 569.042 405.77 571.716 404.738C574.39 403.706 577.252 402.44 579.926 401.174C585.227 398.641 589.637 396.202 589.637 396.202L590.199 395.873L588.37 391.98C588.651 391.887 588.745 391.84 588.792 391.746ZM570.074 363.322C570.684 363.04 571.388 362.946 572.045 362.946H572.092C572.842 362.946 573.405 363.134 573.921 363.416C574.437 363.697 574.859 364.119 575.188 364.588C575.844 365.526 576.173 366.84 576.173 367.871C576.173 368.294 576.126 368.669 576.032 368.95C575.422 369.044 574.906 369.091 574.437 369.091H574.343C572.842 369.091 571.904 368.716 571.388 368.247C570.872 367.778 570.684 367.262 570.684 366.886C570.684 366.793 570.684 366.699 570.731 366.652C570.778 366.417 570.825 366.23 570.825 366.042C570.825 365.714 570.778 365.432 570.59 365.151C570.403 364.87 570.168 364.729 569.934 364.635C569.793 364.588 569.652 364.541 569.511 364.541C569.324 364.494 569.183 364.494 569.089 364.494C568.902 364.494 568.808 364.447 568.761 364.447C569.089 363.885 569.558 363.556 570.074 363.322ZM552.013 377.065C552.06 376.361 552.342 375.329 552.764 374.204C553.186 373.031 553.702 371.765 554.218 370.592C555.297 368.2 556.376 366.042 556.658 365.62C556.705 365.573 556.705 365.526 556.705 365.526L557.221 364.541L556.142 364.494C555.766 364.494 555.203 364.401 554.594 364.213C553.984 364.072 553.28 363.885 552.576 363.65C551.169 363.228 549.762 362.759 548.917 362.524C548.354 362.337 547.604 362.243 546.759 362.149C545.915 362.055 544.93 361.962 543.898 361.915C542.631 361.821 541.318 361.774 540.192 361.68C540.239 361.633 540.286 361.586 540.332 361.539C540.426 361.446 540.52 361.305 540.52 361.117V361.07V361.023C540.52 360.883 540.473 360.742 540.426 360.648C540.379 360.554 540.332 360.507 540.286 360.461C540.192 360.367 540.098 360.32 540.051 360.32C539.91 360.273 539.863 360.273 539.723 360.226C539.535 360.179 539.3 360.179 539.066 360.132C538.55 360.085 537.94 359.992 537.377 359.898C537.002 359.804 536.72 359.71 536.533 359.616C536.486 359.569 536.439 359.569 536.439 359.569C536.439 359.569 536.439 359.569 536.439 359.522C536.486 359.476 536.58 359.382 536.673 359.288C536.908 359.147 537.283 359.007 537.658 359.007H537.752C537.987 359.007 538.315 359.1 538.737 359.241C539.16 359.382 539.629 359.569 540.145 359.757C541.177 360.132 542.35 360.648 543.382 360.977C544.085 361.211 544.789 361.352 545.399 361.352C546.103 361.352 546.947 361.258 547.744 361.164C548.542 361.07 549.293 361.023 549.902 361.023C550.184 361.023 550.418 361.023 550.559 361.07C550.981 361.164 551.404 361.305 551.779 361.492C552.201 361.68 552.576 361.868 552.999 362.008C553.28 362.102 553.562 362.196 553.937 362.196H554.031H554.078H554.171C554.265 362.196 554.359 362.196 554.453 362.149C554.687 362.149 555.063 362.102 555.438 362.102C556.282 362.102 557.361 362.196 558.534 362.477C559.707 362.806 560.974 363.322 562.099 364.26L562.24 364.401L567.354 365.057C567.447 365.198 567.541 365.339 567.682 365.479C567.823 365.62 567.963 365.714 568.151 365.808C568.292 365.855 568.432 365.901 568.573 365.948C568.855 365.995 569.089 365.995 569.23 366.042C569.324 366.042 569.371 366.042 569.371 366.089V366.136C569.371 366.23 569.371 366.324 569.324 366.464C569.277 366.652 569.277 366.793 569.277 366.98C569.277 367.778 569.652 368.716 570.497 369.419C571.106 369.935 571.904 370.311 572.983 370.498C572.889 370.592 572.795 370.639 572.701 370.733C572.185 371.108 571.482 371.389 570.59 371.389C570.497 371.389 570.45 371.389 570.356 371.389C569.84 371.342 569.465 371.202 569.183 370.967C568.902 370.733 568.667 370.404 568.479 370.076C568.104 369.419 568.01 368.669 568.01 368.622L567.963 367.965H567.307H565.618V369.372H566.744C566.791 369.513 566.837 369.701 566.884 369.935C567.119 370.592 567.494 371.389 568.245 371.999C568.761 372.421 569.418 372.703 570.215 372.75C570.309 372.75 570.45 372.75 570.544 372.75C571.529 372.75 572.373 372.468 573.077 372.046C573.405 372.234 573.64 372.468 573.921 372.796C574.25 373.172 574.578 373.688 574.953 374.344C575.751 375.611 576.83 377.346 579.035 379.504C580.817 381.192 583.726 384.569 584.945 386.023C585.461 386.633 586.024 387.29 586.493 387.947C586.963 388.603 587.338 389.26 587.572 389.776C587.713 390.104 587.807 390.433 587.76 390.573C587.76 390.714 587.713 390.761 587.666 390.808C587.619 390.855 587.525 390.948 587.338 390.995C587.103 391.089 586.822 391.136 586.446 391.136C586.212 391.136 585.93 391.089 585.649 391.089C585.602 390.855 585.508 390.573 585.461 390.198C585.274 389.401 584.945 388.416 584.57 387.571C584.289 386.962 584.007 386.446 583.585 386.023C583.538 385.977 583.444 385.93 583.397 385.883C583.35 385.836 583.257 385.789 583.21 385.742C583.069 385.648 582.928 385.554 582.694 385.414C582.318 385.179 581.755 384.804 581.099 384.241C579.738 383.162 577.768 381.38 575.282 378.378L575.235 378.331L575.188 378.284C575.094 378.237 574.953 378.097 574.719 377.909C574.484 377.721 574.156 377.487 573.78 377.252C573.03 376.736 572.092 376.08 571.06 375.517C570.309 375.095 569.558 374.72 568.808 374.438C568.057 374.157 567.354 373.922 566.65 373.922C565.618 373.922 564.68 374.204 563.976 374.673C563.225 375.095 562.615 375.705 562.146 376.267C561.537 377.018 561.161 377.721 560.927 378.144H560.88C560.598 378.19 560.223 378.237 559.754 378.284C558.816 378.378 557.549 378.472 556.282 378.472C555.485 378.472 554.687 378.425 553.984 378.331C553.28 378.237 552.717 378.05 552.389 377.815C552.154 377.674 552.06 377.534 551.967 377.393C551.92 377.299 551.92 377.252 551.92 377.159L552.013 377.065ZM576.548 382.553L576.267 382.083L575.751 382.224C575.188 382.412 574.578 382.459 573.921 382.459C573.077 382.459 572.232 382.318 571.482 382.177V377.299C572.514 377.956 573.452 378.613 573.968 378.988C574.156 379.129 574.25 379.222 574.343 379.269C577.58 383.162 579.973 385.085 581.38 386.117C581.849 386.446 582.224 386.68 582.459 386.821C582.6 386.915 582.647 386.962 582.694 386.962C582.881 387.149 583.163 387.524 583.35 387.993C583.585 388.463 583.773 388.978 583.913 389.494C584.101 390.151 584.289 390.761 584.382 391.23H584.335C579.785 387.9 576.689 382.834 576.548 382.553ZM582.881 391.933C581.052 392.778 578.143 394.091 574.766 395.357C574.672 395.264 574.578 395.123 574.437 394.935C574.062 394.466 573.499 393.81 572.889 393.059C571.622 391.511 570.028 389.494 568.667 387.618C568.01 386.68 567.354 385.789 566.884 385.039C568.292 385.179 569.793 385.273 570.778 385.32H571.482V384.616V383.678C572.232 383.819 573.03 383.913 573.921 383.913C574.484 383.913 575.047 383.866 575.61 383.772C575.985 384.335 576.642 385.367 577.627 386.586C578.894 388.181 580.676 390.198 582.881 391.933ZM558.956 381.333L558.581 386.07H558.534C556.423 385.742 554.969 385.085 553.937 384.288C552.811 383.397 552.248 382.318 551.967 381.239C551.779 380.536 551.685 379.832 551.685 379.222C551.685 379.129 551.685 379.082 551.685 378.988C551.967 379.175 552.295 379.269 552.623 379.41C553.702 379.738 555.016 379.832 556.329 379.832C558.956 379.832 561.536 379.41 561.583 379.41L561.959 379.363L562.099 378.988L562.146 378.941C562.193 378.894 562.193 378.8 562.287 378.706C562.381 378.472 562.569 378.19 562.756 377.862C563.178 377.205 563.882 376.408 564.726 375.892C565.289 375.564 565.946 375.329 566.697 375.329C567.072 375.329 567.682 375.47 568.339 375.705C568.855 375.939 569.465 376.22 570.027 376.502V382.74V383.866C568.808 383.819 567.166 383.678 565.852 383.538C565.102 382.553 564.257 381.943 563.413 381.568C562.475 381.145 561.583 381.052 560.88 381.052C560.035 381.052 559.472 381.192 559.425 381.239L558.956 381.333ZM568.62 394.279C566.744 392.731 564.586 390.479 563.507 387.478L563.366 387.055L562.944 387.008H562.85C562.803 387.008 562.709 387.008 562.569 386.962C562.334 386.915 562.006 386.868 561.677 386.821C561.114 386.727 560.504 386.586 559.941 386.399L560.223 382.506C560.411 382.506 560.598 382.459 560.833 382.459C561.396 382.459 562.099 382.553 562.803 382.834C563.507 383.162 564.21 383.678 564.867 384.616C564.914 384.71 565.008 384.804 565.102 384.992C565.665 385.977 566.509 387.196 567.447 388.463C568.386 389.729 569.418 391.089 570.356 392.262C571.529 393.763 572.608 395.076 573.264 395.873L571.763 396.436C571.576 396.342 571.341 396.202 571.013 396.014C570.45 395.592 569.558 395.029 568.62 394.279ZM588.558 395.264C588.276 395.404 587.901 395.592 587.479 395.827C586.447 396.389 584.945 397.187 583.21 398.031C579.738 399.766 575.328 401.924 571.388 403.425C568.761 404.41 566.368 405.16 564.726 405.301C564.351 405.348 564.023 405.348 563.647 405.348C562.287 405.348 561.255 405.067 560.504 404.645C559.754 404.222 559.191 403.66 558.816 403.05C558.393 402.44 558.206 401.83 558.065 401.361C559.941 401.267 562.053 400.845 564.257 400.282C566.791 399.626 569.511 398.781 572.045 397.843C577.486 395.873 582.412 393.669 584.476 392.684C584.805 392.543 585.086 392.402 585.274 392.309C585.649 392.402 586.118 392.449 586.54 392.449C586.775 392.449 587.009 392.449 587.244 392.402L588.558 395.264Z" fill="#5B3A1C"/>
</svg>
