<svg id="Слой_1" data-name="Слой 1" xmlns="http://www.w3.org/2000/svg" viewBox="0 0 522.03 121.09">
  <defs>
    <style>
      .cls-1 {
        opacity: 0.13;
      }

      .cls-2 {
        fill: #d03f36;
      }
    </style>
  </defs>
  <title>mary-bot</title>
  <g class="cls-1">
    <path d="M1216.57,121.47h47V72.93L1300,8.21h-31.32l-19.9,37.16L1228.24,8.21h-50.85l39,65.35v47.91ZM1111.2,54.73v-23h6c7.36,0,11.8,4.55,11.8,11.51s-4.57,11.5-11.8,11.5Zm-47,66.74h47V79.13l18.14,42.34h51.6l-28.53-54.73c12.81-3,21.3-13.78,21.3-28.32,0-18-13.69-30.08-34.1-30.08h-75.45V121.47ZM978.71,76.72l9.76-34.88,7.1,34.88Zm25.86,44.75h51L1022.32,8.21H971.73L936.35,121.47h30.06L971,104.79h30.3Zm-216.82,0h27.64V60.16l21.81,61.31h21.43L880.69,60.8v60.67h47V8.21H876l-18.26,43-17.37-43H787.75Z" transform="translate(-777.97 -0.38)"/>
    <path d="M1216.57,121.47h47V72.93L1300,8.21h-31.32l-19.9,37.16L1228.24,8.21h-50.85l39,65.35v47.91ZM1111.2,54.73v-23h6c7.36,0,11.8,4.55,11.8,11.51s-4.57,11.5-11.8,11.5Zm-47,66.74h47V79.13l18.14,42.34h51.6l-28.53-54.73c12.81-3,21.3-13.78,21.3-28.32,0-18-13.69-30.08-34.1-30.08h-75.45V121.47ZM978.71,76.72l9.76-34.88,7.1,34.88Zm25.86,44.75h51L1022.32,8.21H971.73L936.35,121.47h30.06L971,104.79h30.3Zm-216.82,0h27.64V60.16l21.81,61.31h21.43L880.69,60.8v60.67h47V8.21H876l-18.26,43-17.37-43H787.75Z" transform="translate(-777.97 -0.38)"/>
    <path d="M1216.57,121.47h47V72.93L1300,8.21h-31.32l-19.9,37.16L1228.24,8.21h-50.85l39,65.35v47.91ZM1111.2,54.73v-23h6c7.36,0,11.8,4.55,11.8,11.51s-4.57,11.5-11.8,11.5Zm-47,66.74h47V79.13l18.14,42.34h51.6l-28.53-54.73c12.81-3,21.3-13.78,21.3-28.32,0-18-13.69-30.08-34.1-30.08h-75.45V121.47ZM978.71,76.72l9.76-34.88,7.1,34.88Zm25.86,44.75h51L1022.32,8.21H971.73L936.35,121.47h30.06L971,104.79h30.3Zm-216.82,0h27.64V60.16l21.81,61.31h21.43L880.69,60.8v60.67h47V8.21H876l-18.26,43-17.37-43H787.75Z" transform="translate(-777.97 -0.38)"/>
    <path d="M1216.57,121.47h47V72.93L1300,8.21h-31.32l-19.9,37.16L1228.24,8.21h-50.85l39,65.35v47.91ZM1111.2,54.73v-23h6c7.36,0,11.8,4.55,11.8,11.51s-4.57,11.5-11.8,11.5Zm-47,66.74h47V79.13l18.14,42.34h51.6l-28.53-54.73c12.81-3,21.3-13.78,21.3-28.32,0-18-13.69-30.08-34.1-30.08h-75.45V121.47ZM978.71,76.72l9.76-34.88,7.1,34.88Zm25.86,44.75h51L1022.32,8.21H971.73L936.35,121.47h30.06L971,104.79h30.3Zm-216.82,0h27.64V60.16l21.81,61.31h21.43L880.69,60.8v60.67h47V8.21H876l-18.26,43-17.37-43H787.75Z" transform="translate(-777.97 -0.38)"/>
    <path d="M1216.57,121.47h47V72.93L1300,8.21h-31.32l-19.9,37.16L1228.24,8.21h-50.85l39,65.35v47.91ZM1111.2,54.73v-23h6c7.36,0,11.8,4.55,11.8,11.51s-4.57,11.5-11.8,11.5Zm-47,66.74h47V79.13l18.14,42.34h51.6l-28.53-54.73c12.81-3,21.3-13.78,21.3-28.32,0-18-13.69-30.08-34.1-30.08h-75.45V121.47ZM978.71,76.72l9.76-34.88,7.1,34.88Zm25.86,44.75h51L1022.32,8.21H971.73L936.35,121.47h30.06L971,104.79h30.3Zm-216.82,0h27.64V60.16l21.81,61.31h21.43L880.69,60.8v60.67h47V8.21H876l-18.26,43-17.37-43H787.75Z" transform="translate(-777.97 -0.38)"/>
  </g>
  <path class="cls-2" d="M1206.78,113.64h47V65.1L1290.21.38H1258.9L1239,37.55,1218.45.38H1167.6l39.06,65.35v47.91ZM1101.42,46.9v-23h6c7.35,0,11.79,4.55,11.79,11.51s-4.57,11.5-11.79,11.5Zm-47,66.74h47V71.3l18.13,42.34h51.6l-28.52-54.73c12.8-3,21.3-13.78,21.3-28.32,0-17.95-13.7-30.08-34.11-30.08h-75.44V113.64ZM968.92,68.89,978.68,34l7.1,34.88Zm25.86,44.75h51L1012.53.38H961.94L926.57,113.64h30L961.18,97h30.31Zm-216.81,0h27.64V52.34l21.8,61.3h21.43L870.91,53v60.67h47V.38H866.21L848,43.36,830.59.38H778Z" transform="translate(-777.97 -0.38)"/>
  <path class="cls-2" d="M1206.78,113.64h47V65.1L1290.21.38H1258.9L1239,37.55,1218.45.38H1167.6l39.06,65.35v47.91ZM1101.42,46.9v-23h6c7.35,0,11.79,4.55,11.79,11.51s-4.57,11.5-11.79,11.5Zm-47,66.74h47V71.3l18.13,42.34h51.6l-28.52-54.73c12.8-3,21.3-13.78,21.3-28.32,0-17.95-13.7-30.08-34.11-30.08h-75.44V113.64ZM968.92,68.89,978.68,34l7.1,34.88Zm25.86,44.75h51L1012.53.38H961.94L926.57,113.64h30L961.18,97h30.31Zm-216.81,0h27.64V52.34l21.8,61.3h21.43L870.91,53v60.67h47V.38H866.21L848,43.36,830.59.38H778Z" transform="translate(-777.97 -0.38)"/>
  <path class="cls-2" d="M1206.78,113.64h47V65.1L1290.21.38H1258.9L1239,37.55,1218.45.38H1167.6l39.06,65.35v47.91ZM1101.42,46.9v-23h6c7.35,0,11.79,4.55,11.79,11.51s-4.57,11.5-11.79,11.5Zm-47,66.74h47V71.3l18.13,42.34h51.6l-28.52-54.73c12.8-3,21.3-13.78,21.3-28.32,0-17.95-13.7-30.08-34.11-30.08h-75.44V113.64ZM968.92,68.89,978.68,34l7.1,34.88Zm25.86,44.75h51L1012.53.38H961.94L926.57,113.64h30L961.18,97h30.31Zm-216.81,0h27.64V52.34l21.8,61.3h21.43L870.91,53v60.67h47V.38H866.21L848,43.36,830.59.38H778Z" transform="translate(-777.97 -0.38)"/>
  <path class="cls-2" d="M1206.78,113.64h47V65.1L1290.21.38H1258.9L1239,37.55,1218.45.38H1167.6l39.06,65.35v47.91ZM1101.42,46.9v-23h6c7.35,0,11.79,4.55,11.79,11.51s-4.57,11.5-11.79,11.5Zm-47,66.74h47V71.3l18.13,42.34h51.6l-28.52-54.73c12.8-3,21.3-13.78,21.3-28.32,0-17.95-13.7-30.08-34.11-30.08h-75.44V113.64ZM968.92,68.89,978.68,34l7.1,34.88Zm25.86,44.75h51L1012.53.38H961.94L926.57,113.64h30L961.18,97h30.31Zm-216.81,0h27.64V52.34l21.8,61.3h21.43L870.91,53v60.67h47V.38H866.21L848,43.36,830.59.38H778Z" transform="translate(-777.97 -0.38)"/>
  <path class="cls-2" d="M1206.78,113.64h47V65.1L1290.21.38H1258.9L1239,37.55,1218.45.38H1167.6l39.06,65.35v47.91ZM1101.42,46.9v-23h6c7.35,0,11.79,4.55,11.79,11.51s-4.57,11.5-11.79,11.5Zm-47,66.74h47V71.3l18.13,42.34h51.6l-28.52-54.73c12.8-3,21.3-13.78,21.3-28.32,0-17.95-13.7-30.08-34.11-30.08h-75.44V113.64ZM968.92,68.89,978.68,34l7.1,34.88Zm25.86,44.75h51L1012.53.38H961.94L926.57,113.64h30L961.18,97h30.31Zm-216.81,0h27.64V52.34l21.8,61.3h21.43L870.91,53v60.67h47V.38H866.21L848,43.36,830.59.38H778Z" transform="translate(-777.97 -0.38)"/>
</svg>
