<?xml version="1.0" encoding="utf-8"?>
<!-- Generator: Adobe Illustrator 23.0.5, SVG Export Plug-In . SVG Version: 6.00 Build 0)  -->
<svg version="1.1" id="Слой_1" xmlns="http://www.w3.org/2000/svg" xmlns:xlink="http://www.w3.org/1999/xlink" x="0px" y="0px"
	 viewBox="0 0 1522 481" style="enable-background:new 0 0 1522 481;" xml:space="preserve">
<style type="text/css">
	.st0{fill:#88BE55;}
	.st1{fill:#54362C;}
</style>
<path class="st0" d="M1152.2,52l44,25.4c-1.9-9.2-7.6-17.5-16.3-22.6c-2.1-1.2-4.2-2.2-6.4-2.9h29.6c-6.2-7-15.3-11.4-25.4-11.4
	c-2.4,0-4.7,0.2-6.9,0.7l25.6-14.8c-8.9-2.9-19-2.2-27.7,2.9c-2.1,1.2-3.9,2.6-5.7,4.1l14.8-25.6c-9.2,1.9-17.5,7.6-22.6,16.3
	c-1.2,2.1-2.2,4.2-2.9,6.4V1.1c-7,6.2-11.4,15.3-11.4,25.4c0,2.4,0.2,4.7,0.7,6.9c-1.7-1.5-3.6-2.9-5.7-4.1
	c-8.8-5.1-18.8-5.8-27.7-2.9l25.6,14.8c-2.3-0.5-4.6-0.7-6.9-0.7c-10.1,0-19.2,4.4-25.4,11.4h29.6c-2.2,0.7-4.3,1.6-6.4,2.9
	c-8.8,5.1-14.4,13.4-16.3,22.6l25.6-14.8c-1.5,1.7-2.9,3.6-4.1,5.7c-5.1,8.8-5.8,18.8-2.9,27.7l14.8-25.6c-0.5,2.3-0.7,4.6-0.7,6.9
	c0,10.1,4.4,19.2,11.4,25.4L1152.2,52z"/>
<path class="st1" d="M1203.6,51.5c-6.4-7.1-15.6-11.6-25.9-11.6c-1.1,0-2.3,0-3.4,0.2l22.3-12.9c0.2-0.1,0.4-0.4,0.3-0.7
	c-0.1-0.3-0.2-0.5-0.5-0.6c-3.5-1.2-7.2-1.7-10.9-1.7c-5.9,0-11.9,1.5-17.4,4.6c-1,0.6-1.9,1.2-2.9,1.8l12.9-22.3
	c0.1-0.2,0.1-0.5-0.1-0.8c-0.2-0.2-0.4-0.3-0.7-0.3c-9.4,2-17.9,7.7-23,16.7c-0.6,1-1.1,2-1.6,3V1.1c0-0.3-0.1-0.5-0.4-0.7
	c-0.2-0.1-0.6,0-0.8,0.1c-7.1,6.4-11.6,15.7-11.6,25.9c0,1.7,0.1,3.5,0.4,5.2c-1.3-1.1-2.8-2-4.3-2.9c-5.5-3.1-11.5-4.6-17.4-4.6
	c-3.7,0-7.4,0.6-10.9,1.7c-0.3,0.1-0.5,0.3-0.5,0.6c-0.1,0.3,0.1,0.6,0.3,0.7l22.3,12.9c-1.1-0.1-2.3-0.2-3.4-0.2
	c-10.3,0-19.6,4.5-25.9,11.6c-0.2,0.2-0.2,0.5-0.1,0.8c0.1,0.2,0.4,0.4,0.7,0.4h25.8c-1,0.5-2,1-3,1.5c-8.9,5.2-14.7,13.7-16.7,23
	c-0.1,0.3,0.1,0.6,0.3,0.7c0.2,0.2,0.5,0.2,0.8,0l22.3-12.9c-0.7,0.9-1.3,1.9-1.8,2.8c-3.1,5.5-4.7,11.5-4.7,17.4
	c0,3.7,0.6,7.4,1.7,10.9c0.1,0.3,0.3,0.5,0.6,0.5c0.3,0,0.6-0.1,0.7-0.3l12.9-22.3c-0.1,1.1-0.2,2.3-0.2,3.4
	c0,10.3,4.5,19.6,11.6,25.9c0.2,0.2,0.5,0.2,0.8,0.1c0.2-0.1,0.4-0.4,0.4-0.7V59c14.5,27.3,22.2,57.8,22.2,88.9v277.4h5.6V147.9
	c0-32.1-8-63.7-23.1-92l38.3,22.1c0.2,0.1,0.5,0.1,0.8,0c0.2-0.1,0.3-0.4,0.3-0.7c-2-9.4-7.7-17.9-16.7-23c-1-0.6-2-1.1-3-1.5h25.8
	c0.3,0,0.5-0.1,0.7-0.4C1203.8,52,1203.7,51.7,1203.6,51.5z M1168.8,30c5.3-3,11-4.5,16.7-4.5c3,0,6,0.4,8.9,1.2l-24.1,13.9
	l-5.4,3.1l-7.8,4.5l-3.1,1.8l1.2-2.1l8.1-14C1165,32.5,1166.9,31.2,1168.8,30z M1152.9,46.9V30.8c0.7-2.1,1.6-4.1,2.8-6.1
	c4.7-8.1,12.2-13.5,20.5-15.6l-13.9,24.1l-3.1,5.4l-4.5,7.8l-1.8,3.1V46.9L1152.9,46.9z M1150.7,49.5c-0.2-0.2-0.5-0.5-0.7-0.7
	c-3.3-3.7-5.9-8.2-7.2-13.1c-0.2-0.8-0.4-1.7-0.6-2.5c-0.4-2.1-0.7-4.3-0.7-6.6c0-9.3,3.8-17.7,10-23.8v27.8v6.3v8.9v1.2v3.2
	c-0.2-0.2-0.4-0.4-0.6-0.6L1150.7,49.5z M1109.9,26.8c2.9-0.8,5.9-1.2,8.9-1.2c5.7,0,11.4,1.5,16.7,4.5c2,1.1,3.8,2.4,5.3,3.8
	c0.9,4.2,2.6,8.2,4.8,11.6c0.8,1.2,1.6,2.3,2.5,3.4l-1-0.6l-7.8-4.5l-5.4-3.1L1109.9,26.8z M1102.9,51.3c6.1-6.1,14.5-10,23.8-10
	c2.3,0,4.6,0.2,6.7,0.7l14,8.1l2.1,1.2h-3.6h-9h-6.2L1102.9,51.3L1102.9,51.3z M1109.2,76c2.2-8.3,7.6-15.9,15.6-20.5
	c2-1.2,4-2.1,6.2-2.8h16.2c-5.3,1.9-10,5.1-13.9,9.4L1109.2,76z M1126.9,94.3c-0.8-2.9-1.2-5.9-1.2-8.9c0-5.7,1.5-11.4,4.5-16.7
	c1.1-2,2.4-3.8,3.9-5.4c1.4-1.5,2.9-3,4.5-4.2c2.4-1.9,5-3.4,7.8-4.5c1.1-0.5,2.2-0.8,3.3-1.2c-0.6,0.6-1.1,1.2-1.6,1.8
	c-3.6,4.3-6.2,9.4-7.4,15.1L1126.9,94.3z M1151.5,101.2c-6.2-6.1-10-14.5-10-23.8c0-2.3,0.2-4.5,0.7-6.7c0.4-2.1,1-4,1.8-5.9
	c1.1-2.8,2.7-5.4,4.5-7.8c0.6-0.8,1.3-1.6,2-2.3c0.3,0.6,0.7,1.2,1,1.8L1151.5,101.2L1151.5,101.2z M1179.5,55.4
	c8.1,4.6,13.5,12.2,15.6,20.5l-38.9-22.4c-0.3-0.6-0.7-1.1-1-1.7c1-0.2,2-0.4,3-0.6c1.5-0.2,3-0.3,4.5-0.3s3,0.1,4.5,0.3
	c2,0.3,4,0.8,6,1.4C1175.5,53.4,1177.5,54.3,1179.5,55.4z M1173.6,51.3c-3.5-1.2-7.2-1.7-10.7-1.7c-2,0-4,0.2-6,0.5l14-8.1
	c2.2-0.4,4.4-0.7,6.7-0.7c9.3,0,17.7,3.8,23.8,10H1173.6z"/>
<path class="st0" d="M1129,230c-2.1-1.2-4.2-2.2-6.4-2.9h29.6c-6.2-7-15.3-11.4-25.4-11.4c-2.4,0-4.7,0.2-6.9,0.7l25.6-14.8
	c-8.9-2.9-18.9-2.2-27.7,2.9c-2.1,1.2-3.9,2.6-5.7,4.1l14.8-25.6c-9.2,1.9-17.5,7.6-22.6,16.3c-1.2,2.1-2.2,4.2-2.9,6.4
	c-0.7-2.2-1.6-4.3-2.9-6.4c-5.1-8.8-13.4-14.4-22.6-16.3l14.8,25.6c-1.7-1.5-3.6-2.9-5.7-4.1c-8.8-5.1-18.8-5.8-27.7-2.9l25.6,14.8
	c-2.3-0.5-4.6-0.7-6.9-0.7c-10.1,0-19.2,4.4-25.4,11.4h29.6c-2.2,0.7-4.3,1.6-6.4,2.9c-8.8,5.1-14.4,13.4-16.3,22.6l25.6-14.8
	c-1.6,1.7-2.9,3.6-4.1,5.7c-5.1,8.8-5.8,18.8-2.9,27.7l25.4-44l25.4,44c2.9-8.9,2.2-18.9-2.9-27.7c-1.2-2.1-2.6-3.9-4.1-5.7
	l25.6,14.8C1143.4,243.4,1137.8,235,1129,230z M1101.3,227.2C1101.3,227.2,1101.3,227.2,1101.3,227.2L1101.3,227.2z"/>
<path class="st1" d="M1152.7,226.7c-6.4-7.1-15.6-11.6-25.9-11.6c-1.1,0-2.3,0-3.4,0.1l22.3-12.9c0.2-0.1,0.4-0.4,0.3-0.7
	c-0.1-0.3-0.2-0.5-0.5-0.6c-3.5-1.2-7.2-1.7-10.9-1.7c-5.9,0-11.9,1.5-17.4,4.7c-1,0.6-1.9,1.2-2.9,1.8l12.9-22.3
	c0.1-0.2,0.1-0.6,0-0.8c-0.1-0.2-0.4-0.3-0.7-0.3c-9.3,2-17.9,7.7-23,16.7c-0.9,1.5-1.6,3.1-2.3,4.6c-0.6-1.6-1.4-3.1-2.3-4.6
	c-5.2-8.9-13.7-14.7-23-16.7c-0.3,0-0.6,0-0.7,0.3c-0.1,0.2-0.2,0.5,0,0.8l12.9,22.3c-0.9-0.7-1.9-1.3-2.9-1.8
	c-5.5-3.2-11.5-4.7-17.4-4.7c-3.7,0-7.4,0.6-10.9,1.7c-0.3,0.1-0.5,0.3-0.5,0.6c-0.1,0.3,0.1,0.6,0.4,0.7l22.3,12.9
	c-1.1-0.1-2.3-0.1-3.4-0.1c-10.3,0-19.6,4.5-25.9,11.6c-0.2,0.2-0.2,0.5-0.1,0.8c0.1,0.2,0.4,0.4,0.7,0.4h25.8c-1,0.5-2,1-3,1.5
	c-8.9,5.2-14.7,13.6-16.7,23c0,0.3,0,0.6,0.3,0.7c0.2,0.2,0.5,0.2,0.8,0l22.3-12.9c-0.7,0.9-1.3,1.8-1.8,2.9
	c-3.2,5.5-4.7,11.4-4.7,17.4c0,3.7,0.6,7.4,1.7,10.9c0.1,0.3,0.3,0.5,0.6,0.5c0.3,0,0.6-0.1,0.7-0.3l21.4-37.1V481h5.6V232.5
	l22.6,39.1c0.1,0.2,0.4,0.4,0.7,0.3c0.3,0,0.5-0.2,0.6-0.5c1.2-3.5,1.7-7.2,1.7-10.9c0-5.9-1.5-11.9-4.7-17.4
	c-0.6-1-1.2-1.9-1.8-2.9l22.3,12.9c0.2,0.1,0.6,0.1,0.8,0c0.2-0.1,0.3-0.4,0.3-0.7c-2-9.3-7.7-17.9-16.6-23c-1-0.6-2-1.1-3-1.5h25.8
	c0.3,0,0.5-0.1,0.7-0.4C1152.9,227.2,1152.9,226.9,1152.7,226.7z M1118,205.2c5.3-3,11-4.5,16.7-4.5c3,0,6,0.4,8.9,1.2l-24.1,13.9
	l-5.4,3.1l-7.8,4.5l-3,1.8l1.2-2.1l8.1-14C1114.2,207.6,1116,206.3,1118,205.2z M1101.3,224.2c-0.1-0.3-0.1-0.5-0.3-0.8
	c-0.5-2.3-0.7-4.6-0.7-6.8c0-2.7,0.3-5.4,1-8.1c0.2-0.8,0.5-1.7,0.8-2.5c0.7-2.1,1.6-4.1,2.7-6c4.6-8.1,12.1-13.5,20.5-15.6
	l-13.9,24.1l-3.1,5.4l-4.5,7.8l-0.6,1l-1.6,2.8c0-0.3-0.1-0.6-0.2-0.8L1101.3,224.2z M1077.3,184.1c8.3,2.2,15.9,7.6,20.5,15.6
	c1.1,2,2,3.9,2.7,6c-1.1,3.5-1.7,7.1-1.7,10.6c0,0.6,0,1.2,0,1.8c0,1.4,0.2,2.8,0.5,4.1l-0.6-1l-4.5-7.8l-3.1-5.4L1077.3,184.1z
	 M1059,201.9c2.9-0.8,5.9-1.2,8.9-1.2c5.7,0,11.4,1.5,16.6,4.5c2,1.1,3.8,2.5,5.5,3.9l8.1,14l1.2,2.1l-3-1.7l-7.8-4.5l-5.4-3.1
	L1059,201.9z M1052.1,226.4c6.1-6.1,14.5-10,23.8-10c2.3,0,4.6,0.2,6.7,0.7l14,8.1c-2-0.3-4-0.5-6-0.5c-3.6,0-7.2,0.6-10.8,1.7
	H1052.1L1052.1,226.4z M1058.3,251.2c2.2-8.3,7.5-15.9,15.6-20.5c2-1.1,4-2.1,6.1-2.8c2-0.7,4-1.1,6.1-1.4c1.5-0.2,3-0.3,4.5-0.3
	s3,0.1,4.5,0.3c1.2,0.1,2.3,0.4,3.5,0.7c0,0-0.1,0-0.1,0h-0.5v0.2c-0.5,0.2-1.1,0.3-1.6,0.5c-5.3,1.9-10,5.1-13.9,9.4L1058.3,251.2z
	 M1076.1,269.4c-0.8-2.9-1.2-5.9-1.2-8.9c0-5.7,1.5-11.4,4.5-16.7c1.1-2,2.5-3.8,3.9-5.4c1.4-1.5,2.9-3,4.6-4.2
	c2.4-1.9,5-3.4,7.8-4.5c0.8-0.3,1.5-0.6,2.3-0.8v2.9L1076.1,269.4z M1123.3,243.8c3,5.3,4.5,11,4.5,16.7c0,3-0.4,6-1.2,8.9l-23-39.8
	v-1.2c1.2,0.3,2.3,0.8,3.5,1.2c2.8,1.1,5.4,2.6,7.8,4.5c1.6,1.3,3.1,2.7,4.5,4.2C1120.8,240,1122.1,241.8,1123.3,243.8z
	 M1128.7,230.6c8.1,4.6,13.5,12.2,15.6,20.5l-24.1-13.9c-3.8-4.3-8.7-7.5-13.9-9.4h16.2C1124.6,228.6,1126.7,229.5,1128.7,230.6z
	 M1122.8,226.4h-6.3h-9h-3.6l2.1-1.2l14-8.1c2.1-0.4,4.4-0.7,6.7-0.7c9.3,0,17.7,3.8,23.8,10L1122.8,226.4L1122.8,226.4z"/>
<path class="st0" d="M1502.4,198.1c-1.5-0.8-3-1.5-4.5-2h20.9c-4.4-4.9-10.8-8.1-18-8.1c-1.7,0-3.4,0.2-4.9,0.5l18.1-10.4
	c-6.3-2.1-13.4-1.6-19.6,2c-1.5,0.8-2.8,1.8-4,2.9l10.4-18.1c-6.5,1.4-12.4,5.4-16,11.5c-0.8,1.5-1.5,3-2,4.5
	c-0.5-1.6-1.2-3.1-2-4.5c-3.6-6.2-9.5-10.2-15.9-11.5l10.4,18.1c-1.2-1.1-2.6-2.1-4-2.9c-6.2-3.6-13.3-4.1-19.6-2l18.1,10.4
	c-1.6-0.3-3.3-0.5-4.9-0.5c-7.1,0-13.6,3.1-18,8.1h20.9c-1.6,0.5-3.1,1.2-4.5,2c-6.2,3.6-10.2,9.5-11.5,16l18.1-10.4
	c-1.1,1.2-2.1,2.6-2.9,4c-3.6,6.2-4.1,13.3-2,19.6l18-31.1l18,31.1c2.1-6.3,1.6-13.4-2-19.6c-0.8-1.5-1.8-2.8-2.9-4l18.1,10.4
	C1512.6,207.6,1508.6,201.7,1502.4,198.1z"/>
<path class="st1" d="M1519.1,195.8c-4.5-5-11.1-8.2-18.3-8.2c-0.8,0-1.6,0-2.4,0.1l15.8-9.1c0.2-0.1,0.3-0.3,0.3-0.5
	s-0.2-0.4-0.3-0.4c-2.5-0.8-5.1-1.2-7.7-1.2c-4.2,0-8.4,1.1-12.3,3.3c-0.7,0.4-1.4,0.8-2,1.3l9.1-15.8c0.1-0.2,0.1-0.4,0-0.5
	c-0.1-0.2-0.3-0.2-0.5-0.2c-6.6,1.4-12.6,5.5-16.3,11.8c-0.6,1.1-1.2,2.2-1.6,3.3c-0.4-1.1-1-2.2-1.6-3.3
	c-3.7-6.3-9.7-10.4-16.3-11.8c-0.2,0-0.4,0-0.5,0.2c-0.1,0.2-0.1,0.4,0,0.5l9.1,15.8c-0.6-0.5-1.3-0.9-2-1.3
	c-3.9-2.3-8.1-3.3-12.3-3.3c-2.6,0-5.2,0.4-7.7,1.2c-0.2,0.1-0.3,0.2-0.3,0.4s0.1,0.4,0.2,0.5l15.8,9.1c-0.8-0.1-1.6-0.1-2.4-0.1
	c-7.3,0-13.8,3.2-18.3,8.2c-0.1,0.1-0.2,0.4-0.1,0.5c0.1,0.2,0.3,0.3,0.5,0.3h18.3c-0.7,0.3-1.4,0.7-2.1,1.1
	c-6.3,3.6-10.4,9.7-11.8,16.3c0,0.2,0,0.4,0.2,0.5c0.2,0.1,0.4,0.1,0.5,0l15.8-9.1c-0.5,0.6-0.9,1.3-1.3,2
	c-2.3,3.9-3.3,8.1-3.3,12.3c0,2.6,0.4,5.2,1.2,7.7c0.1,0.2,0.2,0.3,0.4,0.3c0.2,0,0.4-0.1,0.5-0.2l15.1-26.2v174.3h4V199.8l16,27.7
	c0.1,0.2,0.3,0.3,0.5,0.2c0.2,0,0.4-0.2,0.4-0.3c0.8-2.5,1.2-5.1,1.2-7.7c0-4.2-1.1-8.4-3.3-12.3c-0.4-0.7-0.8-1.4-1.3-2l15.8,9.1
	c0.2,0.1,0.4,0.1,0.5,0c0.2-0.1,0.2-0.3,0.2-0.5c-1.4-6.6-5.5-12.6-11.8-16.3c-0.7-0.4-1.4-0.8-2.1-1.1h18.2c0.2,0,0.4-0.1,0.5-0.3
	C1519.3,196.2,1519.2,196,1519.1,195.8z M1494.6,180.6c3.7-2.2,7.8-3.2,11.8-3.2c2.1,0,4.2,0.3,6.3,0.9l-17,9.8l-3.8,2.2l-5.5,3.2
	l-2.2,1.3l0.8-1.5l5.7-9.9C1491.9,182.4,1493.2,181.4,1494.6,180.6z M1482.8,194.1c-0.1-0.2-0.1-0.5-0.2-0.7
	c-0.3-1.6-0.5-3.2-0.5-4.8c0-1.9,0.2-3.8,0.7-5.7c0.1-0.6,0.3-1.2,0.5-1.8c0.5-1.5,1.1-2.9,1.9-4.2c3.3-5.7,8.6-9.5,14.5-11l-9.8,17
	l-2.2,3.8l-3.2,5.5l-0.4,0.7l-1.2,2C1482.9,194.6,1482.9,194.4,1482.8,194.1L1482.8,194.1z M1465.8,165.7c5.9,1.5,11.2,5.3,14.5,11
	c0.8,1.4,1.4,2.8,1.9,4.2c-0.8,2.5-1.2,5-1.2,7.5c0,0.4,0,0.9,0,1.3c0.1,1,0.2,2,0.3,2.9l-0.4-0.7l-3.2-5.5l-2.2-3.8L1465.8,165.7z
	 M1452.9,178.3c2.1-0.6,4.2-0.9,6.3-0.9c4,0,8.1,1,11.8,3.2c1.4,0.8,2.7,1.8,3.8,2.8l5.7,10l0.8,1.5l-2.2-1.3l-5.5-3.2l-3.8-2.2
	L1452.9,178.3z M1448,195.6c4.3-4.3,10.3-7.1,16.8-7.1c1.6,0,3.2,0.2,4.7,0.5l9.9,5.7c-1.4-0.2-2.8-0.4-4.3-0.4
	c-2.6,0-5.1,0.4-7.6,1.2H1448z M1452.4,213.1c1.5-5.9,5.3-11.2,11.1-14.5c1.4-0.8,2.8-1.5,4.3-2c1.4-0.5,2.8-0.8,4.3-1
	c1.1-0.1,2.1-0.2,3.2-0.2c1.1,0,2.1,0.1,3.2,0.2c0.8,0.1,1.6,0.3,2.4,0.5c0,0-0.1,0-0.1,0l-0.2,0.1l-0.2,0.1
	c-0.4,0.1-0.8,0.2-1.1,0.4c-3.7,1.4-7.1,3.6-9.9,6.7L1452.4,213.1z M1464.9,226c-0.6-2.1-0.9-4.2-0.9-6.3c0-4,1-8.1,3.1-11.8
	c0.8-1.4,1.8-2.7,2.8-3.8c1-1.1,2.1-2.1,3.2-3c1.7-1.3,3.5-2.4,5.5-3.2c0.5-0.2,1.1-0.4,1.6-0.6v2L1464.9,226z M1498.3,207.9
	c2.2,3.7,3.2,7.8,3.2,11.8c0,2.1-0.3,4.3-0.9,6.3l-16.3-28.2V197c0.8,0.2,1.7,0.5,2.5,0.9c2,0.8,3.8,1.9,5.5,3.2
	c1.1,0.9,2.2,1.9,3.2,3C1496.5,205.2,1497.5,206.5,1498.3,207.9z M1502.1,198.6c5.7,3.3,9.5,8.6,11.1,14.5l-17-9.8
	c-2.7-3.1-6.1-5.3-9.8-6.7h11.4C1499.3,197.1,1500.7,197.8,1502.1,198.6z M1497.9,195.6h-4.4h-6.4h-2.5l1.5-0.9l9.9-5.7
	c1.5-0.3,3.1-0.5,4.7-0.5c6.6,0,12.5,2.7,16.8,7.1H1497.9z"/>
<path class="st0" d="M1483.5,262.1l31.2,18c-1.4-6.5-5.4-12.4-11.5-16c-1.5-0.8-3-1.5-4.5-2h20.9c-4.4-4.9-10.8-8.1-18-8.1
	c-1.7,0-3.3,0.2-4.9,0.5l18.1-10.4c-6.3-2.1-13.4-1.6-19.6,2c-1.5,0.8-2.8,1.8-4,2.9l10.4-18.1c-6.5,1.4-12.4,5.4-16,11.5
	c-0.8,1.5-1.5,3-2,4.5v-20.9c-4.9,4.4-8.1,10.8-8.1,18c0,1.7,0.2,3.3,0.5,4.9c-1.2-1.1-2.6-2.1-4-2.9c-6.2-3.6-13.3-4.1-19.6-2
	l18.1,10.4c-1.6-0.3-3.3-0.5-4.9-0.5c-7.1,0-13.6,3.1-18,8.1h20.9c-1.6,0.5-3.1,1.2-4.5,2c-6.2,3.6-10.2,9.5-11.5,16l18.1-10.4
	c-1.1,1.2-2.1,2.6-2.9,4c-3.6,6.2-4.1,13.3-2,19.6l10.5-18.1c-0.3,1.6-0.5,3.3-0.5,4.9c0,7.1,3.1,13.6,8.1,18L1483.5,262.1z"/>
<path class="st1" d="M1519.8,261.8c-4.5-5-11.1-8.2-18.3-8.2c-0.8,0-1.6,0-2.4,0.1l15.8-9.1c0.2-0.1,0.3-0.3,0.2-0.5
	c0-0.2-0.2-0.4-0.3-0.4c-2.5-0.8-5.1-1.2-7.7-1.2c-4.2,0-8.4,1.1-12.3,3.3c-0.7,0.4-1.4,0.8-2,1.3l9.1-15.8c0.1-0.2,0.1-0.4,0-0.5
	c-0.1-0.2-0.3-0.2-0.5-0.2c-6.6,1.4-12.6,5.5-16.3,11.8c-0.4,0.7-0.8,1.4-1.1,2.1v-18.2c0-0.2-0.1-0.4-0.3-0.5
	c-0.2-0.1-0.4,0-0.5,0.1c-5,4.5-8.2,11-8.2,18.3c0,1.2,0.1,2.5,0.3,3.6c-0.9-0.8-2-1.4-3-2.1c-3.9-2.2-8.1-3.3-12.3-3.3
	c-2.6,0-5.2,0.4-7.7,1.2c-0.2,0.1-0.3,0.2-0.3,0.4c0,0.2,0.1,0.4,0.2,0.5l15.8,9.1c-0.8-0.1-1.6-0.1-2.4-0.1
	c-7.3,0-13.8,3.2-18.3,8.2c-0.1,0.1-0.2,0.4-0.1,0.5c0.1,0.2,0.3,0.3,0.5,0.3h18.3c-0.7,0.3-1.4,0.7-2.1,1.1
	c-6.3,3.6-10.4,9.7-11.8,16.3c0,0.2,0,0.4,0.2,0.5c0.2,0.1,0.4,0.1,0.5,0l15.8-9.1c-0.5,0.6-0.9,1.3-1.3,2
	c-2.3,3.9-3.3,8.1-3.3,12.3c0,2.6,0.4,5.2,1.2,7.7c0.1,0.2,0.2,0.3,0.4,0.3c0.2,0,0.4-0.1,0.5-0.2l9.1-15.8
	c-0.1,0.8-0.1,1.6-0.1,2.4c0,7.3,3.2,13.8,8.2,18.3c0.1,0.1,0.4,0.2,0.5,0.1c0.2-0.1,0.3-0.3,0.3-0.5v-30.9
	c10.3,19.3,15.7,40.9,15.7,62.9v102.5h4V330c0-22.7-5.6-45.1-16.3-65.1l27.1,15.6c0.2,0.1,0.4,0.1,0.5,0c0.2-0.1,0.2-0.3,0.2-0.5
	c-1.4-6.6-5.5-12.6-11.8-16.3c-0.7-0.4-1.4-0.8-2.1-1.1h18.2c0.2,0,0.4-0.1,0.5-0.3C1520,262.2,1519.9,261.9,1519.8,261.8z
	 M1495.3,246.6c3.7-2.2,7.8-3.2,11.8-3.2c2.2,0,4.3,0.3,6.3,0.9l-17,9.8l-3.8,2.2l-5.5,3.2l-2.2,1.3l0.8-1.5l5.7-9.9
	C1492.6,248.3,1493.9,247.4,1495.3,246.6z M1485.9,242.8c3.3-5.7,8.6-9.5,14.5-11l-9.8,17l-2.2,3.8l-3.2,5.5l-1.3,2.2v-1.7v-11.5
	C1484.5,245.6,1485.1,244.2,1485.9,242.8z M1482.5,260.4c-0.2-0.2-0.4-0.4-0.5-0.5c-2.4-2.6-4.1-5.8-5.1-9.3
	c-0.2-0.6-0.3-1.2-0.4-1.8c-0.3-1.5-0.5-3.1-0.5-4.6c0-6.6,2.7-12.5,7.1-16.8V247v4.4v6.4v0.8v2.3
	C1482.8,260.7,1482.6,260.5,1482.5,260.4z M1453.6,244.3c2.1-0.6,4.2-0.9,6.3-0.9c4,0,8.1,1,11.8,3.2c1.4,0.8,2.7,1.7,3.8,2.7
	c0.6,3,1.8,5.8,3.4,8.2c0.5,0.8,1.1,1.6,1.8,2.4l-0.7-0.4l-5.5-3.2l-3.8-2.2L1453.6,244.3z M1448.7,261.6c4.3-4.3,10.3-7.1,16.8-7.1
	c1.6,0,3.2,0.2,4.8,0.5l9.9,5.7l1.5,0.8h-2.5h-6.4h-4.4L1448.7,261.6L1448.7,261.6z M1453.1,279.1c1.5-5.9,5.3-11.2,11-14.5
	c1.4-0.8,2.9-1.5,4.3-2h11.5c-3.7,1.4-7.1,3.6-9.8,6.7L1453.1,279.1z M1465.7,292c-0.6-2.1-0.9-4.2-0.9-6.3c0-4,1-8.1,3.2-11.8
	c0.8-1.4,1.7-2.7,2.8-3.8c1-1.1,2.1-2.1,3.2-3c1.7-1.3,3.5-2.4,5.5-3.2c0.8-0.3,1.6-0.6,2.3-0.8c-0.4,0.4-0.8,0.8-1.1,1.3
	c-2.5,3-4.3,6.7-5.2,10.7L1465.7,292z M1483,296.9c-4.3-4.3-7.1-10.2-7.1-16.8c0-1.6,0.2-3.2,0.5-4.7c0.3-1.5,0.7-2.9,1.3-4.2
	c0.8-2,1.9-3.8,3.2-5.5c0.4-0.6,0.9-1.1,1.4-1.7c0.1,0.2,0.2,0.4,0.3,0.6c0.1,0.2,0.3,0.4,0.4,0.7L1483,296.9L1483,296.9z
	 M1502.8,264.6c5.7,3.3,9.5,8.6,11,14.5l-27.5-15.9c-0.1-0.2-0.2-0.4-0.3-0.6c-0.1-0.2-0.2-0.4-0.3-0.6c0.7-0.2,1.4-0.3,2.1-0.4
	c1.1-0.1,2.1-0.2,3.2-0.2c1.1,0,2.1,0.1,3.2,0.2c1.4,0.2,2.9,0.5,4.3,1C1500,263.1,1501.4,263.7,1502.8,264.6z M1498.7,261.6
	c-2.5-0.8-5.1-1.2-7.6-1.2c-1.4,0-2.9,0.1-4.3,0.4l9.9-5.7c1.5-0.3,3.1-0.5,4.7-0.5c6.6,0,12.5,2.7,16.8,7.1L1498.7,261.6
	L1498.7,261.6z"/>
<path class="st0" d="M1328.8,265.2c1.2-0.7,2.4-1.2,3.6-1.6h-16.6c3.5-3.9,8.6-6.4,14.3-6.4c1.3,0,2.7,0.1,3.9,0.4l-14.4-8.3
	c5-1.6,10.7-1.2,15.6,1.6c1.2,0.7,2.2,1.4,3.2,2.3l-8.3-14.4c5.2,1.1,9.8,4.3,12.7,9.2c0.7,1.2,1.2,2.4,1.6,3.6
	c0.4-1.2,0.9-2.4,1.6-3.6c2.8-4.9,7.5-8.1,12.7-9.2l-8.3,14.4c1-0.9,2-1.6,3.2-2.3c4.9-2.8,10.6-3.2,15.6-1.6l-14.4,8.3
	c1.3-0.3,2.6-0.4,3.9-0.4c5.7,0,10.8,2.5,14.3,6.4h-16.6c1.2,0.4,2.4,0.9,3.6,1.6c4.9,2.8,8.1,7.5,9.2,12.7l-14.4-8.3
	c0.9,1,1.6,2,2.3,3.2c2.8,4.9,3.2,10.6,1.6,15.6l-14.3-24.8l-14.3,24.8c-1.6-5-1.2-10.6,1.6-15.6c0.7-1.2,1.5-2.2,2.3-3.2l-14.4,8.3
	C1320.6,272.8,1323.8,268.1,1328.8,265.2z"/>
<path class="st1" d="M1315.5,263.4c3.6-4,8.8-6.5,14.6-6.5c0.6,0,1.3,0,1.9,0.1l-12.6-7.3c-0.1-0.1-0.2-0.2-0.2-0.4s0.1-0.3,0.3-0.3
	c2-0.7,4-1,6.1-1c3.3,0,6.7,0.8,9.8,2.6c0.5,0.3,1.1,0.7,1.6,1l-7.3-12.5c-0.1-0.1-0.1-0.3,0-0.4c0.1-0.1,0.2-0.2,0.4-0.2
	c5.3,1.1,10,4.3,12.9,9.4c0.5,0.8,0.9,1.7,1.3,2.6c0.3-0.9,0.8-1.8,1.3-2.6c2.9-5,7.7-8.3,12.9-9.4c0.2,0,0.3,0,0.4,0.2
	c0.1,0.1,0.1,0.3,0,0.4l-7.3,12.5c0.5-0.4,1-0.7,1.6-1c3.1-1.8,6.4-2.6,9.8-2.6c2.1,0,4.2,0.3,6.2,1c0.1,0.1,0.3,0.2,0.3,0.3
	s0,0.3-0.2,0.4l-12.6,7.3c0.6-0.1,1.3-0.1,1.9-0.1c5.8,0,11,2.5,14.6,6.5c0.1,0.1,0.1,0.3,0.1,0.4c-0.1,0.1-0.2,0.2-0.4,0.2h-14.5
	c0.6,0.3,1.1,0.6,1.7,0.9c5,2.9,8.3,7.7,9.4,12.9c0,0.2,0,0.3-0.2,0.4c-0.1,0.1-0.3,0.1-0.4,0l-12.5-7.2c0.4,0.5,0.7,1.1,1,1.6
	c1.8,3.1,2.6,6.4,2.6,9.8c0,2.1-0.3,4.2-1,6.1c-0.1,0.2-0.2,0.3-0.3,0.3c-0.2,0-0.3-0.1-0.4-0.2l-12-20.9v138.6h-3.2V266.6l-12.7,22
	c-0.1,0.1-0.2,0.2-0.4,0.2c-0.2,0-0.3-0.1-0.3-0.3c-0.6-2-1-4-1-6.1c0-3.3,0.8-6.7,2.6-9.8c0.3-0.6,0.7-1.1,1-1.6l-12.5,7.2
	c-0.1,0.1-0.3,0.1-0.4,0c-0.1-0.1-0.2-0.2-0.2-0.4c1.1-5.2,4.4-10,9.4-12.9c0.5-0.3,1.1-0.6,1.7-0.9h-14.5c-0.2,0-0.3-0.1-0.4-0.2
	C1315.3,263.7,1315.3,263.5,1315.5,263.4z M1335,251.3c-3-1.7-6.2-2.5-9.4-2.5c-1.7,0-3.4,0.2-5,0.7l13.5,7.8l3.1,1.8l4.4,2.5l1.7,1
	l-0.7-1.2l-4.6-7.9C1337.1,252.7,1336.1,252,1335,251.3z M1344.3,262c0-0.2,0.1-0.4,0.2-0.6c0.3-1.3,0.4-2.6,0.4-3.8
	c0-1.5-0.2-3.1-0.5-4.6c-0.1-0.5-0.3-0.9-0.4-1.4c-0.4-1.2-0.9-2.3-1.5-3.4c-2.6-4.5-6.8-7.6-11.5-8.8l7.8,13.5l1.8,3.1l2.5,4.3
	l0.3,0.6l0.9,1.6C1344.2,262.4,1344.2,262.2,1344.3,262L1344.3,262z M1357.8,239.5c-4.7,1.2-8.9,4.2-11.6,8.8
	c-0.6,1.1-1.1,2.2-1.5,3.4c0.6,2,1,4,1,6c0,0.3,0,0.7,0,1.1c-0.1,0.8-0.1,1.6-0.3,2.3l0.3-0.6l2.5-4.4l1.8-3.1L1357.8,239.5z
	 M1368.1,249.5c-1.6-0.4-3.3-0.7-5-0.7c-3.2,0-6.4,0.8-9.4,2.5c-1.1,0.6-2.1,1.4-3.1,2.2l-4.6,7.9l-0.7,1.2l1.7-1l4.3-2.5l3.1-1.8
	L1368.1,249.5z M1372,263.2c-3.4-3.5-8.1-5.6-13.4-5.6c-1.3,0-2.6,0.1-3.8,0.4l-7.9,4.6c1.1-0.2,2.3-0.3,3.4-0.3c2,0,4.1,0.3,6,1
	H1372z M1368.5,277.1c-1.2-4.7-4.3-8.9-8.8-11.5c-1.1-0.6-2.3-1.2-3.5-1.6c-1.1-0.4-2.2-0.6-3.4-0.8c-0.8-0.1-1.7-0.2-2.5-0.2
	c-0.8,0-1.7,0.1-2.5,0.2c-0.7,0.1-1.3,0.2-2,0.4c0,0,0.1,0,0.1,0l0.2,0.1l0.2,0.1c0.3,0.1,0.6,0.2,0.9,0.3c3,1.1,5.6,2.9,7.8,5.3
	L1368.5,277.1z M1358.5,287.4c0.5-1.6,0.7-3.3,0.7-5c0-3.2-0.8-6.4-2.5-9.4c-0.6-1.1-1.4-2.1-2.2-3.1c-0.8-0.9-1.6-1.7-2.5-2.4
	c-1.3-1.1-2.8-1.9-4.4-2.5c-0.4-0.2-0.9-0.3-1.3-0.5v1.6L1358.5,287.4z M1332,273c-1.7,3-2.5,6.2-2.5,9.4c0,1.7,0.2,3.4,0.7,5
	l12.9-22.4v-0.7c-0.7,0.2-1.3,0.4-2,0.7c-1.5,0.6-3,1.5-4.4,2.5c-0.9,0.7-1.8,1.5-2.5,2.4C1333.4,270.9,1332.6,271.9,1332,273z
	 M1329,265.6c-4.5,2.6-7.6,6.9-8.8,11.5l13.5-7.8c2.2-2.4,4.9-4.2,7.8-5.3h-9.1C1331.2,264.4,1330.1,264.9,1329,265.6z
	 M1332.3,263.2h3.5h5.1h2l-1.2-0.7l-7.9-4.6c-1.2-0.2-2.5-0.4-3.8-0.4c-5.3,0-10,2.1-13.4,5.6H1332.3z"/>
<path class="st0" d="M1343.8,316.1l-24.8,14.3c1.1-5.2,4.3-9.8,9.2-12.7c1.2-0.7,2.4-1.2,3.6-1.6h-16.6c3.5-3.9,8.6-6.4,14.3-6.4
	c1.3,0,2.7,0.1,3.9,0.4l-14.4-8.3c5-1.6,10.7-1.2,15.6,1.6c1.2,0.7,2.2,1.5,3.2,2.3l-8.3-14.4c5.2,1.1,9.8,4.3,12.7,9.2
	c0.7,1.2,1.2,2.4,1.6,3.6v-16.6c3.9,3.5,6.4,8.6,6.4,14.3c0,1.3-0.1,2.7-0.4,3.9c1-0.9,2-1.6,3.2-2.3c4.9-2.8,10.6-3.2,15.6-1.6
	l-14.4,8.3c1.3-0.3,2.6-0.4,3.9-0.4c5.7,0,10.8,2.5,14.3,6.4h-16.6c1.2,0.4,2.4,0.9,3.6,1.6c4.9,2.8,8.1,7.5,9.2,12.7l-14.4-8.3
	c0.9,1,1.6,2,2.3,3.2c2.8,4.9,3.2,10.6,1.6,15.6l-8.3-14.4c0.3,1.3,0.4,2.6,0.4,3.9c0,5.7-2.5,10.8-6.4,14.3L1343.8,316.1z"/>
<path class="st1" d="M1314.9,315.8c3.6-4,8.8-6.5,14.6-6.5c0.6,0,1.3,0,1.9,0.1l-12.5-7.2c-0.1-0.1-0.2-0.2-0.2-0.4
	c0-0.2,0.1-0.3,0.3-0.3c2-0.6,4-1,6.1-1c3.3,0,6.7,0.8,9.8,2.6c0.6,0.3,1.1,0.7,1.6,1l-7.3-12.5c-0.1-0.1-0.1-0.3,0-0.4
	c0.1-0.1,0.2-0.2,0.4-0.2c5.2,1.1,10,4.3,12.9,9.4c0.3,0.6,0.6,1.1,0.9,1.7v-14.5c0-0.2,0.1-0.3,0.2-0.4c0.1-0.1,0.3,0,0.4,0.1
	c4,3.6,6.5,8.8,6.5,14.6c0,1-0.1,2-0.2,2.9c0.7-0.6,1.5-1.1,2.4-1.6c3.1-1.8,6.4-2.6,9.8-2.6c2.1,0,4.2,0.3,6.2,1
	c0.2,0.1,0.3,0.2,0.3,0.3c0,0.2,0,0.3-0.2,0.4l-12.6,7.2c0.6-0.1,1.3-0.1,1.9-0.1c5.8,0,11,2.5,14.6,6.5c0.1,0.1,0.1,0.3,0.1,0.4
	c-0.1,0.1-0.2,0.2-0.4,0.2h-14.5c0.6,0.3,1.1,0.6,1.7,0.9c5,2.9,8.3,7.7,9.4,12.9c0,0.2,0,0.3-0.2,0.4c-0.1,0.1-0.3,0.1-0.4,0
	l-12.6-7.3c0.4,0.5,0.7,1.1,1,1.6c1.8,3.1,2.6,6.4,2.6,9.8c0,2.1-0.3,4.2-1,6.1c-0.1,0.2-0.2,0.3-0.3,0.3c-0.2,0-0.3-0.1-0.4-0.2
	l-7.3-12.5c0,0.6,0.1,1.3,0.1,1.9c0,5.8-2.5,11-6.5,14.6c-0.1,0.1-0.3,0.1-0.4,0.1c-0.1-0.1-0.2-0.2-0.2-0.4v-24.6
	c-8.2,15.4-12.5,32.5-12.5,50v81.5h-3.2V370c0-18.1,4.5-35.8,13-51.7l-21.5,12.4c-0.1,0.1-0.3,0.1-0.4,0c-0.1-0.1-0.2-0.3-0.2-0.4
	c1.1-5.3,4.4-10,9.4-12.9c0.6-0.3,1.1-0.6,1.7-0.9h-14.5c-0.2,0-0.3-0.1-0.4-0.2C1314.8,316.1,1314.8,315.9,1314.9,315.8z
	 M1334.4,303.7c-2.9-1.7-6.2-2.5-9.4-2.5c-1.7,0-3.4,0.2-5,0.7l13.5,7.8l3,1.8l4.4,2.5l1.7,1l-0.7-1.2l-4.6-7.9
	C1336.5,305.1,1335.5,304.4,1334.4,303.7z M1341.8,300.7c-2.6-4.5-6.8-7.6-11.5-8.8l7.8,13.5l1.8,3.1l2.5,4.4l1,1.7v-1.3v-9.1
	C1343,303,1342.5,301.8,1341.8,300.7z M1344.5,314.7c0.1-0.1,0.3-0.3,0.4-0.4c1.9-2.1,3.3-4.6,4.1-7.4c0.1-0.5,0.2-0.9,0.3-1.4
	c0.2-1.2,0.4-2.4,0.4-3.7c0-5.2-2.1-10-5.6-13.4v15.6v3.5v5.1v0.6v1.8C1344.3,315,1344.4,314.8,1344.5,314.7z M1367.5,301.9
	c-1.6-0.4-3.3-0.7-5-0.7c-3.2,0-6.4,0.8-9.4,2.5c-1.1,0.6-2.1,1.3-3,2.2c-0.5,2.4-1.4,4.6-2.7,6.5c-0.4,0.7-0.9,1.3-1.4,1.9l0.6-0.3
	l4.4-2.5l3.1-1.8L1367.5,301.9z M1371.4,315.7c-3.4-3.5-8.2-5.6-13.4-5.6c-1.3,0-2.6,0.1-3.8,0.4l-7.9,4.6l-1.2,0.7h2h5.1h3.5
	L1371.4,315.7L1371.4,315.7z M1367.9,329.6c-1.2-4.7-4.2-8.9-8.8-11.5c-1.1-0.7-2.3-1.2-3.4-1.6h-9.1c2.9,1.1,5.6,2.9,7.8,5.3
	L1367.9,329.6z M1357.9,339.8c0.4-1.6,0.7-3.3,0.7-5c0-3.2-0.8-6.4-2.5-9.4c-0.6-1.1-1.4-2.1-2.2-3.1c-0.8-0.9-1.6-1.7-2.5-2.4
	c-1.3-1.1-2.8-1.9-4.4-2.5c-0.6-0.2-1.2-0.5-1.9-0.7c0.3,0.3,0.6,0.7,0.9,1c2,2.4,3.5,5.3,4.1,8.5L1357.9,339.8z M1344.2,343.7
	c3.4-3.4,5.6-8.1,5.6-13.4c0-1.3-0.1-2.6-0.4-3.8c-0.2-1.2-0.6-2.3-1-3.3c-0.6-1.6-1.5-3.1-2.5-4.4c-0.3-0.4-0.7-0.9-1.1-1.3
	c-0.1,0.2-0.2,0.3-0.3,0.5c-0.1,0.2-0.2,0.3-0.3,0.5L1344.2,343.7L1344.2,343.7z M1328.4,318c-4.5,2.6-7.6,6.9-8.8,11.5l21.9-12.6
	c0.1-0.2,0.2-0.3,0.3-0.5c0.1-0.2,0.2-0.3,0.3-0.5c-0.6-0.1-1.1-0.2-1.7-0.3c-0.8-0.1-1.7-0.2-2.5-0.2s-1.7,0.1-2.5,0.2
	c-1.1,0.2-2.3,0.4-3.4,0.8C1330.7,316.9,1329.5,317.4,1328.4,318z M1331.7,315.7c2-0.7,4-0.9,6.1-0.9c1.1,0,2.3,0.1,3.4,0.3
	l-7.9-4.6c-1.2-0.3-2.5-0.4-3.8-0.4c-5.2,0-10,2.1-13.4,5.6L1331.7,315.7L1331.7,315.7z"/>
<path class="st0" d="M587.7,241.3c-1.7-8-6.6-15.2-14.2-19.7c-1.8-1-3.7-1.9-5.6-2.5h25.8c-5.4-6.1-13.4-9.9-22.2-9.9
	c-2.1,0-4.1,0.2-6.1,0.6l22.3-12.9c-7.8-2.5-16.5-1.9-24.2,2.5c-1.8,1-3.4,2.2-4.9,3.6l12.9-22.3c-8,1.7-15.3,6.6-19.7,14.2
	c-1,1.8-1.9,3.7-2.5,5.6v-25.8c-6.1,5.4-9.9,13.4-9.9,22.2c0,2.1,0.2,4.1,0.6,6.1c-1.5-1.4-3.1-2.5-4.9-3.6
	c-7.6-4.4-16.4-5-24.2-2.5l22.3,12.9c-2-0.4-4-0.6-6.1-0.6c-8.8,0-16.7,3.8-22.2,9.9h25.8c-1.9,0.6-3.8,1.4-5.6,2.5
	c-7.6,4.4-12.6,11.7-14.2,19.7l22.3-12.9c-1.3,1.5-2.5,3.1-3.6,4.9c-4.4,7.6-5,16.4-2.5,24.2l12.9-22.3c-0.4,2-0.6,4-0.6,6
	c0,8.8,3.8,16.7,9.9,22.2v-44.3L587.7,241.3z"/>
<path class="st1" d="M594.1,218.8c-5.6-6.2-13.7-10.1-22.6-10.1c-1,0-2,0-2.9,0.1l19.5-11.2c0.2-0.1,0.3-0.4,0.3-0.6
	c0-0.2-0.2-0.4-0.4-0.5c-3.1-1-6.3-1.5-9.5-1.5c-5.2,0-10.4,1.3-15.1,4.1c-0.9,0.5-1.7,1-2.5,1.6l11.2-19.5c0.1-0.2,0.1-0.5,0-0.7
	c-0.2-0.2-0.4-0.3-0.6-0.2c-8.2,1.7-15.6,6.7-20.1,14.5c-0.5,0.9-0.9,1.8-1.3,2.6v-22.5c0-0.2-0.1-0.4-0.4-0.6
	c-0.2-0.1-0.5-0.1-0.7,0.1c-6.2,5.6-10.1,13.6-10.1,22.6c0,1.5,0.1,3,0.3,4.5c-1.1-0.9-2.4-1.8-3.7-2.5c-4.8-2.7-10-4.1-15.1-4.1
	c-3.2,0-6.5,0.5-9.5,1.5c-0.2,0.1-0.4,0.3-0.4,0.5c0,0.2,0.1,0.5,0.3,0.6l19.5,11.2c-1-0.1-2-0.1-2.9-0.1c-9,0-17.1,3.9-22.6,10.1
	c-0.2,0.2-0.2,0.4-0.1,0.7c0.1,0.2,0.3,0.4,0.6,0.4h22.5c-0.9,0.4-1.8,0.9-2.6,1.3c-7.8,4.5-12.8,11.9-14.5,20.1
	c0,0.2,0,0.5,0.2,0.6c0.2,0.1,0.5,0.2,0.7,0l19.5-11.2c-0.6,0.8-1.1,1.6-1.6,2.5c-2.8,4.8-4.1,10-4.1,15.1c0,3.2,0.5,6.5,1.5,9.5
	c0.1,0.2,0.3,0.4,0.5,0.4c0.2,0,0.5-0.1,0.6-0.3l11.2-19.5c-0.1,1-0.2,2-0.2,2.9c0,9,3.9,17,10.1,22.6c0.2,0.2,0.5,0.2,0.7,0.1
	c0.2-0.1,0.4-0.3,0.4-0.6v-38.2C567,256.9,576,292.4,576,328.4v132.8h4.9V328.4c0-37-9.3-73.4-27-105.8l33.4,19.3
	c0.2,0.1,0.5,0.1,0.7,0c0.2-0.1,0.3-0.4,0.2-0.6c-1.7-8.1-6.7-15.6-14.5-20.1c-0.9-0.5-1.7-0.9-2.6-1.3h22.5c0.2,0,0.4-0.2,0.6-0.4
	C594.3,219.2,594.2,218.9,594.1,218.8z M563.8,200c4.6-2.7,9.6-3.9,14.5-3.9c2.7,0,5.3,0.4,7.8,1.1l-21,12.1l-4.7,2.7l-6.8,3.9
	l-2.7,1.6l1-1.8l7.1-12.2C560.5,202.2,562.1,201,563.8,200z M552.3,195.3c4-7,10.6-11.7,17.9-13.6l-12.1,21l-2.7,4.7l-3.9,6.8
	l-1.6,2.7v-2.1v-14.1C550.5,198.8,551.3,197,552.3,195.3z M548,217c-0.2-0.2-0.5-0.4-0.7-0.6c-2.9-3.2-5.1-7.2-6.3-11.4
	c-0.2-0.7-0.4-1.5-0.5-2.2c-0.4-1.8-0.6-3.8-0.6-5.7c0-8.1,3.3-15.5,8.7-20.7v24.2v5.5v7.8v1v2.8c-0.2-0.2-0.4-0.4-0.5-0.5L548,217z
	 M512.4,197.2c2.5-0.7,5.2-1.1,7.8-1.1c4.9,0,9.9,1.3,14.5,3.9c1.7,1,3.3,2.1,4.7,3.4c0.8,3.7,2.2,7.1,4.2,10.1c0.7,1,1.4,2,2.2,2.9
	l-0.9-0.5l-6.8-3.9l-4.7-2.7L512.4,197.2z M506.4,218.5c5.3-5.4,12.6-8.7,20.7-8.7c2,0,4,0.2,5.8,0.6l12.2,7.1l1.8,1h-3.1H536h-5.5
	H506.4z M511.8,240.1c1.9-7.3,6.6-13.8,13.6-17.9c1.7-1,3.5-1.8,5.4-2.4h14.1c-4.6,1.7-8.8,4.5-12.1,8.2L511.8,240.1z M527.3,256
	c-0.7-2.5-1.1-5.2-1.1-7.8c0-4.9,1.3-9.9,3.9-14.5c1-1.7,2.2-3.3,3.4-4.7c1.2-1.4,2.5-2.6,4-3.7c2.1-1.6,4.4-2.9,6.7-3.9
	c0.9-0.4,1.9-0.7,2.9-1c-0.5,0.5-0.9,1-1.4,1.6c-3.1,3.7-5.4,8.2-6.4,13.2L527.3,256z M548.7,262c-5.4-5.3-8.7-12.6-8.7-20.7
	c0-2,0.2-4,0.6-5.8c0.4-1.8,0.9-3.5,1.6-5.2c1-2.5,2.3-4.7,3.9-6.8c0.5-0.7,1.1-1.4,1.7-2c0.3,0.5,0.6,1,0.9,1.6L548.7,262
	L548.7,262z M573.1,222.2c7,4,11.7,10.6,13.6,17.9l-33.9-19.5c-0.3-0.5-0.6-1-0.9-1.5c0.9-0.2,1.8-0.4,2.7-0.5
	c1.3-0.2,2.6-0.3,3.9-0.3s2.6,0.1,3.9,0.3c1.8,0.2,3.6,0.7,5.3,1.2C569.6,220.4,571.4,221.2,573.1,222.2z M568,218.5
	c-3.1-1-6.3-1.5-9.4-1.5c-1.8,0-3.5,0.2-5.2,0.4l12.2-7.1c1.9-0.4,3.8-0.6,5.8-0.6c8.1,0,15.5,3.3,20.7,8.7H568z"/>
<path class="st0" d="M549.3,112l38.4,22.2c-1.7-8-6.6-15.2-14.2-19.7c-1.8-1-3.7-1.9-5.6-2.5h25.8c-5.4-6.1-13.4-9.9-22.2-9.9
	c-2.1,0-4.1,0.2-6.1,0.6l22.3-12.9c-7.8-2.5-16.5-1.9-24.2,2.5c-1.8,1-3.4,2.2-4.9,3.6l12.9-22.3c-8,1.7-15.3,6.6-19.7,14.2
	c-1,1.8-1.9,3.7-2.5,5.6V67.6c-6.1,5.4-9.9,13.4-9.9,22.2c0,2.1,0.2,4.1,0.6,6.1c-1.5-1.3-3.1-2.5-4.9-3.6c-7.6-4.4-16.4-5-24.2-2.5
	l22.3,12.9c-2-0.4-4-0.6-6.1-0.6c-8.8,0-16.7,3.8-22.2,9.9h25.8c-1.9,0.6-3.8,1.4-5.6,2.5c-7.6,4.4-12.6,11.7-14.2,19.7l22.3-12.9
	c-1.3,1.5-2.5,3.1-3.6,4.9c-4.4,7.6-5,16.4-2.5,24.2L540,128c-0.4,2-0.6,4-0.6,6.1c0,8.8,3.8,16.7,9.9,22.2L549.3,112z"/>
<path class="st1" d="M571.1,137.1l-15.5-20.8l31.8,18.4c0.2,0.1,0.5,0.1,0.7,0c0.2-0.1,0.3-0.4,0.2-0.6c-1.7-8.2-6.7-15.6-14.5-20.1
	c-0.9-0.5-1.7-0.9-2.6-1.3h22.5c0.2,0,0.4-0.1,0.6-0.4c0.1-0.2,0-0.5-0.1-0.7c-5.5-6.2-13.6-10.1-22.6-10.1c-1,0-2,0-2.9,0.1
	l19.5-11.2c0.2-0.1,0.3-0.4,0.3-0.6c0-0.2-0.2-0.4-0.4-0.5c-3.1-1-6.3-1.5-9.5-1.5c-5.2,0-10.4,1.3-15.1,4.1c-0.9,0.5-1.7,1-2.5,1.6
	L572,73.9c0.1-0.2,0.1-0.4,0-0.7c-0.2-0.2-0.4-0.3-0.6-0.2c-8.2,1.7-15.6,6.7-20.1,14.5c-0.5,0.9-0.9,1.8-1.3,2.6V67.6
	c0-0.2-0.1-0.4-0.4-0.6c-0.2-0.1-0.5,0-0.7,0.1c-6.2,5.6-10.1,13.7-10.1,22.6c0,1.5,0.1,3,0.3,4.5c-1.1-0.9-2.4-1.8-3.7-2.5
	c-4.8-2.7-10-4.1-15.1-4.1c-3.2,0-6.5,0.5-9.5,1.5c-0.2,0.1-0.4,0.3-0.4,0.5c0,0.2,0.1,0.5,0.3,0.6l19.5,11.2c-1-0.1-2-0.1-2.9-0.1
	c-9,0-17.1,3.9-22.6,10.1c-0.2,0.2-0.2,0.5-0.1,0.7c0.1,0.2,0.3,0.4,0.6,0.4h22.5c-0.9,0.4-1.8,0.9-2.6,1.3
	c-7.8,4.5-12.8,11.9-14.5,20.1c0,0.2,0,0.5,0.2,0.6c0.2,0.1,0.5,0.2,0.7,0l19.5-11.2c-0.6,0.8-1.1,1.6-1.6,2.5
	c-2.8,4.8-4.1,10-4.1,15.1c0,3.2,0.5,6.5,1.5,9.5c0.1,0.2,0.3,0.4,0.5,0.4c0.2,0,0.5-0.1,0.6-0.3l11.2-19.5c-0.1,1-0.2,2-0.2,2.9
	c0,9,3.9,17,10.1,22.6c0.2,0.2,0.5,0.2,0.7,0.1c0.2-0.1,0.4-0.3,0.4-0.6v-39.4l17.3,23.1c18.1,24.3,27.9,53.7,27.9,84v239.2h4.9V224
	C599.9,192.7,589.8,162.2,571.1,137.1z M573.1,115c7,4,11.7,10.6,13.6,17.9l-33-19.1l-1.5-2c0.8-0.2,1.6-0.3,2.5-0.4
	c1.3-0.2,2.6-0.3,3.9-0.3s2.6,0.1,3.9,0.3c1.8,0.2,3.5,0.7,5.2,1.2C569.6,113.2,571.4,114,573.1,115z M571.4,102.6
	c8.1,0,15.5,3.3,20.7,8.7H568c-3.1-1-6.3-1.5-9.4-1.5c-1.8,0-3.5,0.2-5.2,0.4l12.2-7.1C567.5,102.9,569.4,102.6,571.4,102.6z
	 M563.8,92.8c4.6-2.7,9.6-3.9,14.5-3.9c2.7,0,5.3,0.4,7.8,1.1l-21,12.1l-4.7,2.7l-6.8,3.9l-2.7,1.6l1-1.8l7.1-12.2
	C560.5,95,562.1,93.8,563.8,92.8z M549.9,107.6V93.4c0.6-1.8,1.4-3.6,2.4-5.4c4-7,10.6-11.7,17.9-13.6l-12.1,21l-2.7,4.7l-3.9,6.8
	l-1.6,2.7V107.6L549.9,107.6z M548,109.8c-0.2-0.2-0.4-0.4-0.7-0.6c-2.9-3.2-5.1-7.1-6.3-11.4c-0.2-0.7-0.4-1.5-0.5-2.2
	c-0.4-1.8-0.6-3.8-0.6-5.7c0-8.1,3.3-15.5,8.7-20.7v24.2v5.5v7.8v1v2.8c-0.2-0.2-0.4-0.4-0.5-0.5L548,109.8z M512.4,90
	c2.5-0.7,5.2-1.1,7.8-1.1c4.9,0,9.9,1.3,14.5,3.9c1.7,1,3.3,2.1,4.7,3.4c0.8,3.7,2.2,7.1,4.2,10.1c0.7,1,1.4,2,2.2,2.9l-0.9-0.5
	l-6.8-3.9l-4.7-2.7L512.4,90z M506.4,111.4c5.3-5.4,12.6-8.7,20.7-8.7c2,0,4,0.2,5.8,0.6l12.2,7.1l1.8,1h-3.1H536h-5.4L506.4,111.4
	L506.4,111.4z M511.8,132.9c1.9-7.3,6.6-13.9,13.6-17.9c1.7-1,3.5-1.8,5.4-2.4h14.1c-4.6,1.7-8.8,4.5-12.1,8.2L511.8,132.9z
	 M527.3,148.8c-0.7-2.5-1.1-5.2-1.1-7.8c0-4.9,1.3-9.9,3.9-14.5c1-1.7,2.1-3.3,3.4-4.7c1.2-1.3,2.5-2.6,3.9-3.7
	c2.1-1.6,4.4-2.9,6.8-3.9c0.9-0.4,1.9-0.7,2.9-1c-0.5,0.5-0.9,1-1.4,1.6c-3.1,3.7-5.4,8.2-6.4,13.2L527.3,148.8z M548.7,154.9
	c-5.4-5.3-8.7-12.6-8.7-20.7c0-2,0.2-4,0.6-5.8c0.4-1.8,0.9-3.5,1.6-5.2c1-2.5,2.3-4.7,4-6.8c0.6-0.7,1.2-1.4,1.8-2.1l0.8,1.1
	L548.7,154.9L548.7,154.9z"/>
<path class="st0" d="M663.9,177.3c-1.8-1-3.7-1.9-5.6-2.5h25.8c-5.4-6.1-13.4-9.9-22.2-9.9c-2.1,0-4.1,0.2-6.1,0.6l22.3-12.9
	c-7.8-2.5-16.5-1.9-24.2,2.5c-1.8,1-3.4,2.2-4.9,3.6l12.9-22.3c-8,1.7-15.3,6.6-19.7,14.2c-1,1.8-1.9,3.7-2.5,5.6
	c-0.6-1.9-1.4-3.8-2.5-5.6c-4.4-7.6-11.7-12.6-19.7-14.2l12.9,22.3c-1.5-1.3-3.1-2.5-4.9-3.6c-7.6-4.4-16.4-5-24.2-2.5l22.3,12.9
	c-2-0.4-4-0.6-6.1-0.6c-8.8,0-16.7,3.8-22.2,9.9h25.8c-1.9,0.6-3.8,1.4-5.6,2.5c-7.6,4.4-12.6,11.7-14.2,19.7l22.3-12.9
	c-1.3,1.5-2.5,3.1-3.6,4.9c-4.4,7.6-5,16.4-2.5,24.2l22.2-38.4l22.2,38.4c2.5-7.8,1.9-16.5-2.5-24.2c-1-1.8-2.2-3.4-3.6-4.9
	l22.3,12.9C676.5,189,671.5,181.8,663.9,177.3z"/>
<path class="st1" d="M684.5,174.4c-5.6-6.2-13.7-10.1-22.6-10.1c-1,0-2,0-2.9,0.2l19.5-11.2c0.2-0.1,0.3-0.4,0.3-0.6
	c0-0.2-0.2-0.4-0.4-0.5c-3.1-1-6.3-1.5-9.5-1.5c-5.2,0-10.3,1.3-15.1,4.1c-0.9,0.5-1.7,1-2.5,1.6l11.2-19.5c0.1-0.2,0.1-0.4,0-0.7
	c-0.1-0.2-0.4-0.3-0.6-0.2c-8.2,1.7-15.6,6.7-20.1,14.5c-0.8,1.3-1.4,2.7-2,4c-0.5-1.4-1.2-2.7-2-4c-4.5-7.8-11.9-12.8-20.1-14.5
	c-0.2,0-0.5,0-0.6,0.2c-0.1,0.2-0.2,0.4,0,0.7l11.2,19.5c-0.8-0.6-1.6-1.1-2.5-1.6c-4.8-2.7-10-4.1-15.1-4.1c-3.2,0-6.5,0.5-9.5,1.5
	c-0.2,0.1-0.4,0.3-0.4,0.5c0,0.2,0.1,0.5,0.3,0.6l19.5,11.2c-1-0.1-2-0.2-2.9-0.2c-9,0-17,3.9-22.6,10.1c-0.2,0.2-0.2,0.4-0.1,0.7
	c0.1,0.2,0.3,0.4,0.6,0.4h22.5c-0.9,0.4-1.8,0.9-2.6,1.3c-7.8,4.5-12.8,11.9-14.5,20.1c0,0.2,0,0.5,0.2,0.6c0.2,0.1,0.5,0.2,0.7,0
	l19.5-11.2c-0.6,0.8-1.1,1.6-1.6,2.5c-2.7,4.8-4,10-4,15.1c0,3.2,0.5,6.5,1.5,9.5c0.1,0.2,0.3,0.4,0.5,0.4c0.2,0,0.5-0.1,0.6-0.3
	l18.6-32.3v238.1h4.9V179.4l19.7,34.1c0.1,0.2,0.4,0.3,0.6,0.3c0.2,0,0.4-0.2,0.5-0.4c1-3.1,1.5-6.3,1.5-9.5c0-5.2-1.3-10.4-4-15.1
	c-0.5-0.9-1-1.7-1.6-2.5l19.5,11.2c0.2,0.1,0.5,0.1,0.7,0c0.2-0.1,0.3-0.4,0.2-0.6c-1.7-8.2-6.7-15.6-14.5-20.1
	c-0.9-0.5-1.7-0.9-2.6-1.3h22.5c0.2,0,0.4-0.1,0.6-0.4C684.7,174.9,684.7,174.6,684.5,174.4z M654.3,155.7c4.6-2.7,9.6-3.9,14.5-3.9
	c2.7,0,5.3,0.4,7.8,1.1l-21,12.1l-4.7,2.7l-6.7,3.9l-2.7,1.6l1-1.8l7.1-12.2C651,157.9,652.5,156.7,654.3,155.7z M639.8,172.3
	c-0.1-0.3-0.2-0.6-0.2-0.8c-0.4-2-0.6-4-0.6-6c0-2.4,0.3-4.7,0.9-7.1c0.2-0.7,0.4-1.5,0.7-2.2c0.6-1.8,1.4-3.6,2.4-5.2
	c4-7,10.6-11.7,17.9-13.6l-12.1,21l-2.7,4.7l-3.9,6.8l-0.5,0.9l-1.4,2.5c-0.1-0.2-0.1-0.5-0.2-0.7L639.8,172.3z M618.8,137.4
	c7.3,1.9,13.8,6.6,17.9,13.6c1,1.7,1.8,3.5,2.4,5.2c-1,3-1.5,6.2-1.5,9.3c0,0.5,0,1.1,0,1.6c0,1.2,0.2,2.4,0.4,3.6l-0.5-0.9
	l-3.9-6.8l-2.7-4.7L618.8,137.4z M602.9,152.9c2.5-0.7,5.2-1.1,7.8-1.1c4.9,0,9.9,1.3,14.5,3.9c1.7,1,3.3,2.2,4.7,3.4l7.1,12.2
	l1.1,1.8l-2.7-1.6l-6.8-3.9l-4.7-2.7L602.9,152.9z M596.9,174.2c5.3-5.4,12.6-8.7,20.7-8.7c2,0,3.9,0.2,5.8,0.6l12.2,7.1
	c-1.7-0.3-3.5-0.4-5.2-0.4c-3.1,0-6.3,0.5-9.4,1.5L596.9,174.2L596.9,174.2z M602.3,195.8c1.9-7.3,6.6-13.8,13.6-17.9
	c1.7-1,3.5-1.8,5.4-2.4c1.7-0.6,3.5-1,5.3-1.2c1.3-0.2,2.6-0.2,3.9-0.2c1.3,0,2.6,0.1,3.9,0.2c1,0.1,2,0.3,3,0.6c0,0-0.1,0-0.1,0
	h-0.5v0.1c-0.5,0.2-0.9,0.3-1.4,0.5c-4.6,1.7-8.7,4.5-12.1,8.2L602.3,195.8z M617.8,211.7c-0.7-2.5-1.1-5.2-1.1-7.8
	c0-4.9,1.3-9.9,3.9-14.5c1-1.7,2.2-3.3,3.4-4.7c1.2-1.4,2.5-2.6,4-3.7c2.1-1.6,4.4-2.9,6.8-3.9c0.7-0.3,1.3-0.5,2-0.7v2.5
	L617.8,211.7z M658.9,189.4c2.7,4.6,3.9,9.6,3.9,14.5c0,2.6-0.4,5.3-1.1,7.8l-20-34.7v-1c1,0.3,2,0.7,3,1.1c2.4,1,4.7,2.3,6.8,3.9
	c1.4,1.1,2.7,2.3,3.9,3.7C656.7,186,657.9,187.6,658.9,189.4z M663.6,177.9c7,4,11.7,10.6,13.6,17.9l-21-12.1
	c-3.4-3.8-7.6-6.5-12.1-8.2h14.1C660.1,176.1,661.9,176.8,663.6,177.9z M658.4,174.2H653h-7.9H642l1.8-1l12.2-7.1
	c1.9-0.4,3.8-0.6,5.8-0.6c8.1,0,15.5,3.3,20.7,8.7L658.4,174.2L658.4,174.2z"/>
<path class="st0" d="M79.3,104.6c-2.1-1.2-4.2-2.2-6.4-2.9h29.6c-6.2-7-15.3-11.4-25.4-11.4c-2.4,0-4.7,0.2-6.9,0.7l25.6-14.8
	c-8.9-2.9-19-2.2-27.7,2.9c-2.1,1.2-3.9,2.6-5.7,4.1L77,57.7c-9.2,1.9-17.5,7.6-22.6,16.3c-1.2,2.1-2.2,4.2-2.9,6.4
	c-0.7-2.2-1.6-4.3-2.9-6.4c-5.1-8.8-13.4-14.4-22.6-16.3L41,83.2c-1.7-1.5-3.6-2.9-5.7-4.1c-8.8-5.1-18.8-5.8-27.7-2.9L33.1,91
	c-2.3-0.5-4.6-0.7-6.9-0.7c-10.1,0-19.2,4.4-25.4,11.4h29.6c-2.2,0.7-4.3,1.6-6.4,2.9c-8.8,5.1-14.4,13.4-16.3,22.6l25.6-14.8
	c-1.5,1.7-2.9,3.6-4.1,5.7c-5.1,8.8-5.8,18.8-2.9,27.7l25.4-44l25.4,44c2.9-8.9,2.2-18.9-2.9-27.7c-1.2-2.1-2.6-3.9-4.1-5.7
	l25.6,14.8C93.7,118,88.1,109.6,79.3,104.6z"/>
<path class="st1" d="M103,101.2C96.6,94.1,87.3,89.6,77,89.6c-1.1,0-2.3,0-3.4,0.2L96,76.9c0.2-0.1,0.4-0.4,0.4-0.7
	c0-0.3-0.2-0.5-0.5-0.6c-3.5-1.2-7.2-1.7-10.9-1.7c-5.9,0-11.9,1.5-17.4,4.7c-1,0.6-1.9,1.2-2.9,1.8L77.6,58c0.1-0.2,0.1-0.6,0-0.8
	c-0.2-0.2-0.4-0.3-0.7-0.3c-9.4,2-17.9,7.7-23,16.7c-0.9,1.5-1.6,3-2.3,4.6c-0.6-1.6-1.4-3.1-2.3-4.6c-5.2-8.9-13.7-14.7-23-16.7
	c-0.3,0-0.6,0-0.7,0.3c-0.2,0.2-0.2,0.5,0,0.8l12.9,22.3c-0.9-0.7-1.9-1.3-2.9-1.8c-5.5-3.2-11.4-4.7-17.4-4.7
	c-3.7,0-7.4,0.6-10.9,1.7c-0.3,0.1-0.5,0.3-0.5,0.6c0,0.3,0.1,0.6,0.3,0.7l22.3,12.9c-1.1-0.1-2.3-0.2-3.4-0.2
	c-10.3,0-19.6,4.5-25.9,11.6C0,101.4,0,101.8,0,102c0.1,0.2,0.4,0.4,0.7,0.4h25.8c-1,0.5-2,1-3,1.5c-8.9,5.2-14.7,13.7-16.7,23
	c0,0.3,0,0.6,0.3,0.7c0.2,0.1,0.5,0.2,0.8,0l22.3-12.9c-0.7,0.9-1.3,1.9-1.8,2.9c-3.2,5.5-4.7,11.4-4.7,17.4c0,3.7,0.6,7.4,1.7,10.9
	c0.1,0.3,0.3,0.5,0.6,0.5c0.3,0,0.5-0.1,0.7-0.3L48.1,109v246.5h5.6V107l22.6,39.1c0.1,0.2,0.4,0.4,0.7,0.3c0.3,0,0.5-0.2,0.6-0.5
	c1.1-3.5,1.7-7.2,1.7-10.9c0-5.9-1.5-11.9-4.6-17.4c-0.6-1-1.2-1.9-1.8-2.9l22.3,12.9c0.2,0.1,0.5,0.1,0.8,0
	c0.2-0.1,0.3-0.4,0.3-0.7c-2-9.3-7.7-17.9-16.7-23c-1-0.6-2-1.1-3-1.5h25.8c0.3,0,0.5-0.1,0.7-0.4
	C103.2,101.8,103.2,101.5,103,101.2z M68.3,79.8c5.3-3,11-4.5,16.7-4.5c3,0,6,0.4,8.9,1.2L69.8,90.4l-5.4,3.1l-7.8,4.5l-3.1,1.8
	l1.2-2.1l8.1-14C64.5,82.2,66.3,80.9,68.3,79.8z M51.6,98.9c-0.1-0.3-0.2-0.7-0.3-1c-0.5-2.3-0.7-4.5-0.7-6.8c0-2.7,0.3-5.4,1-8.1
	c0.2-0.8,0.5-1.7,0.8-2.5c0.7-2.1,1.6-4.1,2.7-6c4.6-8.1,12.1-13.5,20.5-15.6L61.7,82.8l-3.1,5.4L54.1,96l-0.6,1l-1.6,2.8
	C51.8,99.5,51.7,99.2,51.6,98.9L51.6,98.9z M27.6,58.7c8.4,2.2,15.9,7.6,20.5,15.6c1.1,2,2,3.9,2.7,6c-1.1,3.5-1.7,7.1-1.7,10.6
	c0,0.6,0,1.2,0,1.9c0.1,1.4,0.2,2.8,0.5,4.1l-0.6-1l-4.5-7.8l-3.1-5.4L27.6,58.7z M9.3,76.5c2.9-0.8,5.9-1.2,8.9-1.2
	c5.7,0,11.4,1.5,16.7,4.5c2,1.1,3.8,2.5,5.4,3.9l8.1,14.1l1.2,2.1l-3.1-1.8l-7.7-4.5l-5.4-3.1L9.3,76.5z M2.4,101
	c6.1-6.1,14.5-10,23.8-10c2.3,0,4.6,0.2,6.7,0.7l14,8.1c-2-0.3-4-0.5-6-0.5c-3.6,0-7.2,0.6-10.7,1.7H2.4z M8.6,125.7
	c2.2-8.3,7.6-15.9,15.6-20.5c2-1.1,4-2.1,6.1-2.8c2-0.7,4-1.1,6-1.4c1.5-0.2,3-0.3,4.5-0.3c1.5,0,3,0.1,4.5,0.3
	c1.2,0.1,2.3,0.4,3.5,0.7c0,0-0.1,0-0.1,0l-0.3,0.1l-0.3,0.1c-0.5,0.2-1.1,0.3-1.6,0.6c-5.3,1.9-10,5.1-13.9,9.4L8.6,125.7z
	 M26.4,144c-0.8-2.9-1.2-5.9-1.2-8.9c0-5.7,1.5-11.4,4.5-16.7c1.1-2,2.5-3.8,3.9-5.4c1.4-1.5,2.9-3,4.5-4.2c2.4-1.9,5-3.4,7.8-4.5
	c0.8-0.3,1.5-0.6,2.3-0.8v2.9L26.4,144z M73.6,118.4c3,5.3,4.5,11,4.5,16.7c0,3-0.4,6-1.2,8.9l-23-39.8V103c1.2,0.3,2.3,0.8,3.5,1.2
	c2.8,1.1,5.4,2.6,7.8,4.5c1.6,1.3,3.1,2.7,4.5,4.2C71.1,114.6,72.4,116.4,73.6,118.4z M79,105.2c8.1,4.6,13.5,12.2,15.6,20.5
	l-24.1-13.9c-3.8-4.3-8.7-7.5-13.9-9.4h16.2C74.9,103.1,77,104.1,79,105.2z M73,101h-6.2h-9h-3.6l2.1-1.2l14-8.1
	c2.2-0.4,4.4-0.7,6.7-0.7c9.3,0,17.7,3.8,23.8,10H73z"/>
<path class="st0" d="M52.6,195.1l44,25.4c-1.9-9.2-7.6-17.5-16.3-22.6c-2.1-1.2-4.2-2.2-6.4-2.9h29.6c-6.2-7-15.3-11.4-25.4-11.4
	c-2.4,0-4.7,0.2-6.9,0.7l25.6-14.8c-8.9-2.9-19-2.2-27.7,2.9c-2.1,1.2-3.9,2.6-5.7,4.1L78.1,151c-9.2,1.9-17.5,7.6-22.6,16.3
	c-1.2,2.1-2.2,4.2-2.9,6.4v-29.6c-7,6.2-11.4,15.3-11.4,25.4c0,2.4,0.2,4.7,0.7,6.9c-1.7-1.5-3.6-2.9-5.7-4.1
	c-8.8-5.1-18.8-5.8-27.7-2.9l25.6,14.8c-2.3-0.5-4.6-0.7-6.9-0.7C17.1,183.6,8,188,1.7,195h29.6c-2.2,0.7-4.3,1.6-6.4,2.9
	c-8.8,5.1-14.4,13.4-16.3,22.6l25.6-14.8c-1.5,1.7-2.9,3.6-4.1,5.7c-5.1,8.8-5.8,18.8-2.9,27.7l14.8-25.6c-0.5,2.3-0.7,4.6-0.7,6.9
	c0,10.1,4.4,19.2,11.4,25.4L52.6,195.1z"/>
<path class="st1" d="M104,194.6c-6.4-7.1-15.7-11.6-25.9-11.6c-1.1,0-2.3,0-3.4,0.2L97,170.2c0.2-0.1,0.4-0.4,0.3-0.7
	c0-0.3-0.2-0.5-0.5-0.6c-3.5-1.1-7.2-1.7-10.9-1.7c-5.9,0-11.9,1.5-17.4,4.6c-1,0.6-1.9,1.2-2.8,1.8l12.9-22.3
	c0.1-0.2,0.1-0.6,0-0.8c-0.2-0.2-0.4-0.3-0.7-0.3c-9.3,2-17.9,7.7-23,16.7c-0.6,1-1.1,2-1.5,3v-25.8c0-0.3-0.2-0.5-0.4-0.7
	c-0.2-0.1-0.6,0-0.8,0.1c-7.1,6.4-11.6,15.6-11.6,25.9c0,1.7,0.1,3.5,0.4,5.2c-1.3-1.1-2.8-2-4.3-2.9c-5.5-3.1-11.4-4.6-17.4-4.6
	c-3.7,0-7.4,0.6-10.9,1.7c-0.3,0.1-0.5,0.3-0.5,0.6c0,0.3,0.1,0.6,0.3,0.7l22.3,12.9c-1.1-0.1-2.3-0.2-3.4-0.2
	c-10.3,0-19.6,4.5-25.9,11.6c-0.2,0.2-0.2,0.5-0.1,0.8c0.1,0.2,0.4,0.4,0.7,0.4h25.8c-1,0.5-2,1-3,1.5c-8.9,5.2-14.7,13.7-16.7,23
	c0,0.3,0,0.6,0.3,0.7c0.2,0.1,0.5,0.2,0.8,0l22.3-12.9c-0.7,0.9-1.3,1.9-1.8,2.9c-3.2,5.5-4.6,11.4-4.6,17.4c0,3.7,0.6,7.4,1.7,10.9
	c0.1,0.3,0.3,0.5,0.6,0.5c0.3,0,0.6-0.1,0.7-0.3l12.9-22.3c-0.1,1.1-0.1,2.3-0.1,3.4c0,10.3,4.5,19.6,11.6,25.9
	c0.2,0.2,0.5,0.2,0.8,0.1c0.2-0.1,0.4-0.4,0.4-0.7v-43.8c14.5,27.3,22.2,57.8,22.2,88.9V436h5.6V291.1c0-32.1-8-63.7-23.1-92
	l38.3,22.1c0.2,0.1,0.5,0.1,0.8,0c0.2-0.2,0.3-0.5,0.3-0.7c-2-9.4-7.7-17.9-16.7-23c-1-0.6-2-1.1-3-1.5h25.8c0.3,0,0.5-0.1,0.7-0.4
	C104.2,195.1,104.1,194.8,104,194.6z M69.3,173.1c5.3-3,11-4.5,16.7-4.5c3,0,6.1,0.4,8.9,1.2l-24.1,13.9l-5.4,3.1l-7.8,4.5l-3,1.8
	l1.2-2.1l8.1-14C65.5,175.5,67.3,174.2,69.3,173.1z M56.1,167.7c4.6-8.1,12.2-13.5,20.5-15.6l-13.9,24.1l-3.1,5.4l-4.5,7.8l-1.8,3
	V190v-16.2C54,171.7,54.9,169.7,56.1,167.7z M51.2,192.6c-0.2-0.2-0.5-0.5-0.8-0.7c-3.3-3.7-5.9-8.2-7.2-13.1
	c-0.2-0.8-0.4-1.7-0.6-2.5c-0.4-2.1-0.7-4.3-0.7-6.6c0-9.3,3.8-17.7,10-23.8v27.8v6.2v9.1v1.1v3.2C51.7,193.1,51.4,192.8,51.2,192.6
	z M10.3,169.8c2.9-0.8,5.9-1.2,8.9-1.2c5.7,0,11.4,1.5,16.7,4.5c2,1.1,3.8,2.4,5.3,3.8c0.9,4.2,2.6,8.2,4.8,11.6
	c0.8,1.2,1.6,2.3,2.5,3.3l-1-0.6l-7.8-4.5l-5.4-3.1L10.3,169.8z M3.4,194.3c6.1-6.1,14.5-10,23.8-10c2.3,0,4.6,0.2,6.7,0.7l14,8.1
	l2.1,1.2h-3.6h-9h-6.3L3.4,194.3L3.4,194.3z M9.6,219.1c2.2-8.3,7.6-15.9,15.6-20.5c2-1.2,4-2.1,6.1-2.8h16.2
	c-5.3,1.9-10,5.1-13.9,9.4L9.6,219.1z M27.4,237.3c-0.8-2.9-1.2-5.9-1.2-8.9c0-5.7,1.5-11.4,4.5-16.7c1.1-2,2.4-3.8,3.9-5.4
	c1.4-1.5,2.9-3,4.5-4.2c2.4-1.9,5-3.4,7.8-4.5c1.1-0.4,2.2-0.8,3.3-1.2c-0.6,0.6-1.1,1.2-1.6,1.8c-3.6,4.3-6.1,9.4-7.4,15.1
	L27.4,237.3z M51.9,244.3c-6.1-6.1-10-14.5-10-23.8c0-2.3,0.2-4.6,0.7-6.7c0.4-2.1,1-4,1.8-5.9c1.1-2.8,2.7-5.4,4.5-7.8
	c0.6-0.8,1.3-1.6,2-2.3c0.2,0.3,0.3,0.6,0.5,0.8c0.2,0.3,0.4,0.6,0.5,0.9L51.9,244.3L51.9,244.3z M79.9,198.5
	c8.1,4.6,13.5,12.2,15.6,20.5l-38.9-22.4c-0.1-0.3-0.3-0.6-0.5-0.8c-0.1-0.3-0.3-0.6-0.5-0.8c1-0.2,2-0.4,3-0.6
	c1.5-0.2,3-0.3,4.5-0.3c1.5,0,3,0.1,4.5,0.3c2,0.3,4.1,0.8,6.1,1.4C75.9,196.5,78,197.4,79.9,198.5z M74.1,194.3
	c-3.5-1.2-7.2-1.7-10.8-1.7c-2,0-4,0.2-6,0.5l14-8.1c2.2-0.5,4.4-0.7,6.7-0.7c9.3,0,17.7,3.8,23.8,10L74.1,194.3L74.1,194.3z"/>
</svg>
