<svg width="1522" height="660" viewBox="0 0 1522 660" fill="none" xmlns="http://www.w3.org/2000/svg">
<path d="M1152.18 230.965L1196.23 256.387C1194.31 247.194 1188.63 238.892 1179.91 233.826C1177.84 232.654 1175.68 231.669 1173.52 230.965H1203.08C1196.84 223.976 1187.74 219.567 1177.65 219.567C1175.26 219.567 1172.92 219.802 1170.71 220.271L1196.28 205.496C1187.36 202.588 1177.32 203.291 1168.55 208.357C1166.49 209.53 1164.61 210.937 1162.88 212.485L1177.65 186.922C1168.46 188.845 1160.16 194.52 1155.09 203.245C1153.92 205.308 1152.93 207.466 1152.23 209.624V180.074C1145.24 186.312 1140.83 195.411 1140.83 205.496C1140.83 207.888 1141.06 210.233 1141.53 212.438C1139.8 210.89 1137.92 209.53 1135.86 208.31C1127.08 203.245 1117.04 202.541 1108.13 205.449L1133.7 220.224C1131.45 219.755 1129.1 219.52 1126.75 219.52C1116.67 219.52 1107.57 223.929 1101.33 230.918H1130.88C1128.68 231.622 1126.57 232.56 1124.5 233.779C1115.73 238.845 1110.1 247.194 1108.18 256.34L1133.74 241.565C1132.2 243.301 1130.84 245.177 1129.62 247.241C1124.55 256.012 1123.85 266.05 1126.75 274.961L1141.53 249.398C1141.06 251.65 1140.83 253.995 1140.83 256.34C1140.83 266.425 1145.24 275.524 1152.23 281.763L1152.18 230.965Z" fill="#88BE55"/>
<path d="M1203.55 230.496C1197.17 223.366 1187.93 218.864 1177.61 218.864C1176.48 218.864 1175.36 218.911 1174.23 219.051L1196.56 206.153C1196.79 206.012 1196.93 205.73 1196.89 205.449C1196.84 205.168 1196.65 204.933 1196.42 204.839C1192.9 203.667 1189.24 203.104 1185.49 203.104C1179.58 203.104 1173.57 204.605 1168.13 207.747C1167.15 208.31 1166.21 208.92 1165.27 209.577L1178.17 187.25C1178.31 187.016 1178.31 186.734 1178.12 186.5C1177.94 186.265 1177.7 186.171 1177.42 186.218C1168.04 188.188 1159.55 193.957 1154.39 202.869C1153.82 203.854 1153.31 204.886 1152.84 205.871V180.074C1152.84 179.792 1152.7 179.558 1152.42 179.417C1152.18 179.323 1151.85 179.37 1151.66 179.558C1144.53 185.937 1140.03 195.224 1140.03 205.496C1140.03 207.231 1140.17 208.967 1140.41 210.655C1139.09 209.577 1137.64 208.638 1136.14 207.747C1130.65 204.605 1124.69 203.104 1118.78 203.104C1115.07 203.104 1111.37 203.714 1107.85 204.839C1107.57 204.933 1107.38 205.168 1107.38 205.449C1107.33 205.73 1107.47 206.012 1107.71 206.153L1130.04 219.051C1128.91 218.957 1127.79 218.864 1126.66 218.864C1116.34 218.864 1107.1 223.366 1100.72 230.496C1100.53 230.684 1100.48 231.012 1100.58 231.246C1100.67 231.481 1100.95 231.669 1101.23 231.669H1127.04C1126 232.138 1125.02 232.654 1124.03 233.216C1115.12 238.376 1109.3 246.912 1107.38 256.246C1107.33 256.528 1107.43 256.809 1107.66 256.95C1107.9 257.138 1108.18 257.138 1108.41 256.997L1130.74 244.098C1130.09 244.989 1129.48 245.974 1128.91 246.913C1125.77 252.4 1124.22 258.404 1124.22 264.267C1124.22 267.973 1124.83 271.678 1125.96 275.196C1126.05 275.477 1126.29 275.665 1126.57 275.665C1126.85 275.712 1127.13 275.571 1127.27 275.337L1140.17 253.01C1140.08 254.136 1139.98 255.262 1139.98 256.387C1139.98 266.706 1144.49 275.946 1151.62 282.325C1151.81 282.513 1152.13 282.56 1152.37 282.466C1152.6 282.372 1152.79 282.091 1152.79 281.809V238.048C1167.33 265.393 1174.98 295.881 1174.98 326.931V604.324H1180.61V326.931C1180.61 294.802 1172.63 263.188 1157.48 234.905L1195.76 256.997C1196 257.138 1196.28 257.138 1196.51 256.95C1196.75 256.809 1196.84 256.528 1196.79 256.246C1194.82 246.866 1189.05 238.376 1180.14 233.216C1179.16 232.654 1178.17 232.138 1177.14 231.669H1202.94C1203.22 231.669 1203.46 231.528 1203.6 231.246C1203.78 231.012 1203.74 230.73 1203.55 230.496ZM1168.83 209.014C1174.09 205.965 1179.81 204.558 1185.49 204.558C1188.49 204.558 1191.49 204.98 1194.4 205.777L1170.34 219.661L1164.89 222.804L1157.11 227.306L1154.01 229.089L1155.18 227.025L1163.3 213.001C1165.03 211.5 1166.86 210.186 1168.83 209.014ZM1152.88 225.946V209.764C1153.59 207.653 1154.48 205.637 1155.65 203.62C1160.3 195.552 1167.85 190.158 1176.2 188.001L1162.31 212.063L1159.17 217.503L1154.67 225.29L1152.88 228.385V225.946V225.946ZM1150.73 228.479C1150.49 228.245 1150.26 228.01 1150.02 227.822C1146.69 224.117 1144.16 219.614 1142.8 214.689C1142.56 213.845 1142.38 213.001 1142.19 212.156C1141.77 210.046 1141.53 207.841 1141.53 205.59C1141.53 196.256 1145.33 187.86 1151.52 181.809V209.577V215.862V224.774V225.946V229.183C1151.34 228.995 1151.1 228.76 1150.91 228.573L1150.73 228.479ZM1109.87 205.777C1112.78 204.98 1115.78 204.558 1118.78 204.558C1124.46 204.558 1130.18 206.012 1135.43 209.014C1137.4 210.139 1139.19 211.406 1140.78 212.86C1141.67 217.081 1143.36 221.021 1145.61 224.492C1146.36 225.665 1147.21 226.79 1148.1 227.869L1147.07 227.26L1139.28 222.757L1133.84 219.614L1109.87 205.777ZM1102.92 230.261C1108.98 224.117 1117.42 220.271 1126.71 220.271C1129.01 220.271 1131.26 220.505 1133.42 220.927L1147.44 229.042L1149.51 230.215H1145.94H1136.93H1130.7H1102.92V230.261ZM1109.16 254.98C1111.32 246.631 1116.72 239.126 1124.78 234.436C1126.75 233.263 1128.82 232.372 1130.93 231.669H1147.16C1141.91 233.592 1137.12 236.781 1133.23 241.096L1109.16 254.98ZM1126.94 273.273C1126.14 270.365 1125.72 267.363 1125.72 264.361C1125.72 258.686 1127.18 252.963 1130.18 247.71C1131.31 245.74 1132.62 243.911 1134.12 242.269C1135.53 240.721 1137.03 239.314 1138.62 238.048C1141.02 236.171 1143.64 234.67 1146.41 233.545C1147.49 233.076 1148.62 232.7 1149.74 232.372C1149.18 232.935 1148.66 233.545 1148.15 234.154C1144.53 238.423 1142 243.582 1140.78 249.258L1126.94 273.273ZM1151.48 280.168C1145.33 274.117 1141.48 265.674 1141.48 256.387C1141.48 254.089 1141.72 251.837 1142.14 249.68C1142.56 247.616 1143.17 245.646 1143.92 243.77C1145.05 240.956 1146.6 238.329 1148.43 235.984C1149.04 235.186 1149.69 234.389 1150.4 233.639C1150.73 234.248 1151.1 234.858 1151.43 235.421V280.168H1151.48ZM1179.53 234.436C1187.6 239.079 1192.99 246.631 1195.15 254.98L1156.26 232.56C1155.93 231.997 1155.61 231.434 1155.28 230.824C1156.26 230.59 1157.29 230.402 1158.33 230.261C1159.83 230.074 1161.33 229.933 1162.83 229.933C1164.33 229.933 1165.83 230.027 1167.33 230.261C1169.35 230.543 1171.37 231.012 1173.34 231.669C1175.5 232.372 1177.51 233.31 1179.53 234.436ZM1173.62 230.261C1170.1 229.089 1166.44 228.526 1162.88 228.526C1160.86 228.526 1158.84 228.714 1156.87 229.042L1170.9 220.927C1173.06 220.505 1175.31 220.271 1177.61 220.271C1186.94 220.271 1195.34 224.07 1201.39 230.261H1173.62Z" fill="#54362C"/>
<path d="M1129.01 409.014C1126.94 407.842 1124.78 406.857 1122.63 406.153H1152.18C1145.94 399.164 1136.84 394.755 1126.75 394.755C1124.36 394.755 1122.02 394.99 1119.81 395.459L1145.38 380.684C1136.47 377.776 1126.43 378.48 1117.65 383.545C1115.59 384.718 1113.71 386.125 1111.98 387.673L1126.75 362.11C1117.56 364.033 1109.26 369.708 1104.19 378.433C1103.02 380.496 1102.03 382.654 1101.33 384.812C1100.63 382.607 1099.69 380.496 1098.47 378.433C1093.4 369.661 1085.05 364.033 1075.9 362.11L1090.68 387.673C1088.94 386.125 1087.07 384.765 1085 383.545C1076.23 378.48 1066.19 377.776 1057.28 380.684L1082.85 395.459C1080.59 394.99 1078.25 394.755 1075.9 394.755C1065.82 394.755 1056.72 399.164 1050.48 406.153H1080.03C1077.83 406.857 1075.71 407.795 1073.65 409.014C1064.88 414.08 1059.25 422.429 1057.33 431.575L1082.89 416.8C1081.34 418.536 1079.98 420.412 1078.76 422.476C1073.7 431.247 1072.99 441.285 1075.9 450.196L1101.33 406.153L1126.75 450.196C1129.66 441.285 1128.96 431.247 1123.89 422.476C1122.72 420.412 1121.31 418.536 1119.76 416.8L1145.33 431.575C1143.41 422.382 1137.78 414.033 1129.01 409.014ZM1101.28 406.153C1101.33 406.153 1101.33 406.153 1101.28 406.153V406.153Z" fill="#88BE55"/>
<path d="M1152.7 405.684C1146.32 398.555 1137.08 394.052 1126.76 394.052C1125.63 394.052 1124.5 394.099 1123.38 394.192L1145.71 381.294C1145.94 381.153 1146.08 380.872 1146.04 380.59C1145.99 380.309 1145.8 380.074 1145.57 379.98C1142.05 378.808 1138.39 378.245 1134.64 378.245C1128.73 378.245 1122.72 379.746 1117.28 382.935C1116.29 383.498 1115.36 384.108 1114.42 384.765L1127.32 362.438C1127.46 362.204 1127.46 361.875 1127.27 361.688C1127.13 361.453 1126.85 361.359 1126.57 361.406C1117.23 363.376 1108.69 369.146 1103.53 378.057C1102.64 379.558 1101.89 381.153 1101.28 382.701C1100.67 381.106 1099.92 379.558 1099.03 378.057C1093.87 369.146 1085.33 363.329 1076 361.406C1075.72 361.359 1075.43 361.453 1075.29 361.688C1075.15 361.922 1075.11 362.204 1075.25 362.438L1088.15 384.765C1087.26 384.108 1086.27 383.498 1085.29 382.935C1079.8 379.746 1073.84 378.245 1067.93 378.245C1064.22 378.245 1060.52 378.855 1057 379.98C1056.72 380.074 1056.53 380.309 1056.53 380.59C1056.48 380.872 1056.62 381.153 1056.9 381.294L1079.23 394.192C1078.11 394.099 1076.98 394.052 1075.86 394.052C1065.54 394.052 1056.29 398.555 1049.91 405.684C1049.73 405.872 1049.68 406.2 1049.77 406.435C1049.87 406.669 1050.15 406.857 1050.43 406.857H1076.23C1075.2 407.326 1074.21 407.842 1073.23 408.404C1064.32 413.564 1058.5 422.054 1056.58 431.435C1056.53 431.716 1056.62 431.997 1056.86 432.138C1057.09 432.326 1057.37 432.326 1057.61 432.185L1079.94 419.286C1079.28 420.177 1078.67 421.116 1078.11 422.148C1074.96 427.635 1073.46 433.592 1073.46 439.502C1073.46 443.208 1074.07 446.913 1075.2 450.431C1075.29 450.712 1075.53 450.9 1075.81 450.9C1076.09 450.947 1076.37 450.806 1076.47 450.572L1097.86 413.517V660.047H1103.49V411.453L1126.1 450.572C1126.24 450.806 1126.52 450.947 1126.76 450.9C1127.04 450.853 1127.27 450.665 1127.37 450.431C1128.54 446.913 1129.1 443.255 1129.1 439.502C1129.1 433.592 1127.6 427.588 1124.41 422.148C1123.85 421.163 1123.24 420.224 1122.58 419.286L1144.91 432.185C1145.14 432.326 1145.47 432.326 1145.66 432.138C1145.9 431.997 1145.99 431.716 1145.94 431.435C1143.97 422.101 1138.2 413.564 1129.29 408.404C1128.3 407.842 1127.32 407.326 1126.29 406.857H1152.09C1152.37 406.857 1152.6 406.716 1152.74 406.435C1152.93 406.2 1152.89 405.872 1152.7 405.684ZM1117.98 384.202C1123.24 381.153 1129.01 379.746 1134.64 379.746C1137.69 379.746 1140.69 380.168 1143.55 380.965L1119.48 394.849L1114.09 397.992L1106.25 402.495L1103.21 404.277L1104.38 402.213L1112.49 388.189C1114.18 386.641 1116.01 385.328 1117.98 384.202ZM1101.28 403.151C1101.19 402.823 1101.14 402.635 1101 402.354C1100.53 400.102 1100.3 397.804 1100.3 395.506C1100.3 392.785 1100.63 390.065 1101.33 387.391C1101.52 386.547 1101.8 385.703 1102.08 384.858C1102.78 382.795 1103.67 380.778 1104.8 378.855C1109.44 370.787 1116.95 365.393 1125.35 363.236L1111.46 387.298L1108.32 392.692L1103.82 400.478L1103.21 401.51L1101.56 404.324C1101.52 404.042 1101.42 403.761 1101.33 403.48L1101.28 403.151ZM1077.31 363.142C1085.66 365.299 1093.17 370.693 1097.86 378.761C1098.98 380.731 1099.88 382.701 1100.58 384.765C1099.45 388.236 1098.89 391.847 1098.89 395.412C1098.89 396.022 1098.89 396.631 1098.94 397.241C1098.98 398.648 1099.17 400.009 1099.41 401.369L1098.84 400.384L1094.34 392.598L1091.2 387.157L1077.31 363.142ZM1059.02 380.919C1061.92 380.121 1064.93 379.699 1067.93 379.699C1073.6 379.699 1079.33 381.153 1084.58 384.155C1086.55 385.281 1088.38 386.641 1090.07 388.095L1098.19 402.119L1099.36 404.183L1096.31 402.448L1088.48 397.945L1083.08 394.802L1059.02 380.919ZM1052.07 405.449C1058.12 399.305 1066.57 395.459 1075.86 395.459C1078.15 395.459 1080.41 395.693 1082.56 396.116L1096.59 404.23C1094.62 403.902 1092.6 403.714 1090.59 403.714C1086.97 403.714 1083.36 404.277 1079.84 405.449H1052.07V405.449ZM1058.31 430.168C1060.47 421.819 1065.86 414.314 1073.93 409.624C1075.9 408.498 1077.97 407.56 1080.08 406.857C1082.05 406.2 1084.11 405.731 1086.13 405.449C1087.63 405.262 1089.13 405.121 1090.63 405.121C1092.13 405.121 1093.64 405.215 1095.14 405.449C1096.31 405.59 1097.48 405.825 1098.61 406.106C1098.56 406.106 1098.51 406.153 1098.47 406.153H1097.95V406.341C1097.44 406.528 1096.87 406.669 1096.36 406.857C1091.1 408.78 1086.32 411.969 1082.42 416.284L1058.31 430.168ZM1076.09 448.414C1075.29 445.506 1074.87 442.504 1074.87 439.502C1074.87 433.827 1076.33 428.104 1079.37 422.851C1080.5 420.881 1081.86 419.052 1083.32 417.41C1084.72 415.862 1086.22 414.408 1087.87 413.189C1090.26 411.313 1092.89 409.812 1095.65 408.686C1096.4 408.358 1097.15 408.123 1097.95 407.842V410.703L1076.09 448.414ZM1123.28 422.804C1126.33 428.057 1127.74 433.78 1127.74 439.455C1127.74 442.504 1127.32 445.459 1126.52 448.367L1103.53 408.545V407.373C1104.71 407.701 1105.88 408.123 1107.01 408.592C1109.77 409.718 1112.4 411.219 1114.79 413.095C1116.43 414.361 1117.94 415.768 1119.34 417.316C1120.8 419.005 1122.11 420.834 1123.28 422.804ZM1128.68 409.624C1136.75 414.268 1142.14 421.819 1144.3 430.168L1120.23 416.284C1116.39 411.969 1111.56 408.78 1106.3 406.857H1122.53C1124.6 407.56 1126.66 408.451 1128.68 409.624ZM1122.77 405.449H1116.48H1107.52H1103.96L1106.02 404.277L1120.05 396.162C1122.2 395.74 1124.46 395.506 1126.76 395.506C1136.09 395.506 1144.49 399.305 1150.54 405.496H1122.77V405.449Z" fill="#54362C"/>
<path d="M1496.28 47.5729C1494.22 46.4003 1492.06 45.4153 1489.9 44.7117H1519.45C1513.22 37.723 1504.11 33.3139 1494.03 33.3139C1491.64 33.3139 1489.29 33.5485 1487.09 34.0175L1512.65 19.2426C1503.74 16.3345 1493.7 17.0381 1484.93 22.1038C1482.86 23.2764 1480.99 24.6835 1479.25 26.2314L1494.03 0.668457C1484.83 2.59154 1476.53 8.26698 1471.46 16.9912C1470.29 19.055 1469.31 21.2126 1468.6 23.3702C1467.9 21.1657 1466.96 19.055 1465.74 16.9912C1460.67 8.22007 1452.32 2.59154 1443.18 0.668457L1457.95 26.2314C1456.22 24.6835 1454.34 23.3233 1452.28 22.1038C1443.5 17.0381 1433.47 16.3345 1424.55 19.2426L1450.12 34.0175C1447.87 33.5485 1445.52 33.3139 1443.18 33.3139C1433.09 33.3139 1423.99 37.723 1417.75 44.7117H1447.3C1445.1 45.4153 1442.99 46.3534 1440.92 47.5729C1432.15 52.6386 1426.52 60.9876 1424.6 70.1339L1450.17 55.359C1448.62 57.0945 1447.26 58.9707 1446.04 61.0345C1440.97 69.8056 1440.27 79.8431 1443.18 88.755L1468.6 44.7117L1494.03 88.755C1496.94 79.8431 1496.23 69.8056 1491.17 61.0345C1489.99 58.9707 1488.59 57.0945 1487.04 55.359L1512.61 70.1339C1510.73 60.9876 1505.05 52.6386 1496.28 47.5729Z" fill="#88BE55"/>
<path d="M1519.97 44.2426C1513.59 37.1131 1504.3 32.6103 1494.03 32.6103C1492.9 32.6103 1491.78 32.6572 1490.65 32.7979L1512.98 19.8992C1513.22 19.7585 1513.36 19.4771 1513.36 19.1956C1513.36 18.9142 1513.12 18.6797 1512.89 18.5859C1509.37 17.4133 1505.71 16.8504 1501.96 16.8504C1496.05 16.8504 1490.04 18.3514 1484.6 21.5409C1483.61 22.1037 1482.68 22.7135 1481.74 23.3701L1494.64 1.04362C1494.78 0.8091 1494.78 0.48077 1494.59 0.293152C1494.4 0.0586299 1494.17 -0.0351783 1493.89 0.0117262C1484.51 1.98171 1476.01 7.75096 1470.85 16.6628C1469.96 18.1637 1469.21 19.7116 1468.6 21.3063C1467.99 19.7116 1467.24 18.1637 1466.35 16.6628C1461.19 7.75096 1452.7 1.93481 1443.32 0.0117262C1443.04 -0.0351783 1442.75 0.0586299 1442.61 0.293152C1442.43 0.527674 1442.43 0.8091 1442.57 1.04362L1455.47 23.3701C1454.58 22.7135 1453.59 22.1037 1452.61 21.5409C1447.12 18.3514 1441.16 16.8504 1435.25 16.8504C1431.54 16.8504 1427.84 17.4602 1424.32 18.5859C1424.04 18.6797 1423.85 18.9142 1423.85 19.1956C1423.85 19.4771 1423.94 19.7585 1424.18 19.8992L1446.51 32.7979C1445.38 32.7041 1444.26 32.6103 1443.13 32.6103C1432.81 32.6103 1423.57 37.1131 1417.19 44.2426C1417 44.4302 1416.95 44.7585 1417.05 44.9931C1417.14 45.2276 1417.42 45.4152 1417.7 45.4152H1443.5C1442.47 45.8843 1441.49 46.4002 1440.5 46.9631C1431.59 52.1225 1425.77 60.6591 1423.85 69.9931C1423.8 70.2746 1423.9 70.556 1424.13 70.6967C1424.37 70.8374 1424.65 70.8843 1424.88 70.7436L1447.21 57.8449C1446.55 58.7361 1445.94 59.7211 1445.38 60.706C1442.19 66.1939 1440.69 72.1507 1440.69 78.0607C1440.69 81.7661 1441.3 85.4716 1442.43 88.9894C1442.52 89.2708 1442.75 89.4585 1443.04 89.4585C1443.32 89.5054 1443.55 89.3646 1443.69 89.1301L1465.08 52.0287V298.558H1470.71V49.9649L1493.32 89.0832C1493.47 89.3178 1493.75 89.4585 1494.03 89.4116C1494.31 89.3647 1494.54 89.177 1494.64 88.9425C1495.76 85.4247 1496.37 81.7661 1496.37 78.0138C1496.37 72.1038 1494.87 66.1001 1491.73 60.6591C1491.17 59.6742 1490.56 58.7361 1489.9 57.798L1512.23 70.6967C1512.46 70.8374 1512.75 70.8374 1512.98 70.6498C1513.22 70.5091 1513.31 70.2276 1513.26 69.9462C1511.29 60.6122 1505.52 52.0756 1496.61 46.9162C1495.62 46.3533 1494.64 45.8374 1493.61 45.3683H1519.41C1519.69 45.3683 1519.92 45.2276 1520.06 44.9462C1520.21 44.7586 1520.16 44.4771 1519.97 44.2426ZM1485.26 22.7604C1490.51 19.7116 1496.23 18.3045 1501.91 18.3045C1504.91 18.3045 1507.91 18.7266 1510.82 19.524L1486.76 33.4077L1481.32 36.5503L1473.53 41.0531L1470.43 42.8355L1471.61 40.7717L1479.72 26.7473C1481.46 25.2463 1483.29 23.933 1485.26 22.7604ZM1468.6 41.8505C1468.51 41.5221 1468.42 41.1938 1468.32 40.8655C1467.85 38.6141 1467.62 36.3158 1467.62 34.0174C1467.62 31.297 1467.95 28.5765 1468.6 25.903C1468.79 25.0587 1469.07 24.2144 1469.35 23.3701C1470.06 21.3063 1470.95 19.2894 1472.07 17.3664C1476.72 9.2988 1484.22 3.90479 1492.62 1.74719L1478.74 25.8092L1475.59 31.2501L1471.09 38.9893L1470.53 39.9743L1468.88 42.7886C1468.84 42.5071 1468.74 42.2257 1468.65 41.9443L1468.6 41.8505ZM1444.58 1.74719C1452.93 3.90479 1460.44 9.2988 1465.13 17.3664C1466.26 19.3364 1467.15 21.3063 1467.85 23.3701C1466.73 26.8411 1466.16 30.4527 1466.16 34.0174C1466.16 34.6272 1466.16 35.237 1466.21 35.8936C1466.3 37.3007 1466.44 38.661 1466.68 40.0212L1466.07 38.9893L1461.57 31.2032L1458.42 25.7623L1444.58 1.74719ZM1426.34 19.524C1429.24 18.7266 1432.25 18.3045 1435.25 18.3045C1440.92 18.3045 1446.65 19.7585 1451.9 22.7604C1453.87 23.8861 1455.7 25.2463 1457.34 26.7003L1465.46 40.7717L1466.63 42.8355L1463.54 41.0531L1455.8 36.5972L1450.35 33.4546L1426.34 19.524ZM1419.39 44.0081C1425.44 37.8636 1433.89 34.0174 1443.18 34.0174C1445.48 34.0174 1447.73 34.252 1449.88 34.6741L1463.91 42.7886C1461.94 42.4602 1459.92 42.2726 1457.91 42.2726C1454.29 42.2726 1450.68 42.8355 1447.16 44.0081H1419.39ZM1425.63 68.7267C1427.79 60.3777 1433.18 52.873 1441.25 48.1826C1443.22 47.0569 1445.29 46.1188 1447.4 45.4152C1449.37 44.7586 1451.39 44.2895 1453.4 44.0081C1454.9 43.8205 1456.41 43.6797 1457.91 43.6797C1459.41 43.6797 1460.91 43.7736 1462.41 44.0081C1463.58 44.1488 1464.71 44.3833 1465.88 44.6647C1465.83 44.6647 1465.79 44.7116 1465.74 44.7116L1465.46 44.8055L1465.18 44.8993C1464.66 45.0869 1464.1 45.2276 1463.58 45.4621C1458.33 47.3852 1453.54 50.5747 1449.65 54.8899L1425.63 68.7267ZM1443.36 87.0194C1442.57 84.1114 1442.14 81.1095 1442.14 78.1076C1442.14 72.4322 1443.6 66.7098 1446.6 61.4565C1447.73 59.4865 1449.09 57.6573 1450.54 56.0156C1451.95 54.4678 1453.45 53.0606 1455.05 51.7942C1457.44 49.918 1460.06 48.4171 1462.83 47.2914C1463.58 46.9631 1464.38 46.6816 1465.13 46.4471V49.3083L1443.36 87.0194ZM1490.56 61.4096C1493.61 66.6629 1495.06 72.3853 1495.06 78.0607C1495.06 81.0626 1494.64 84.1114 1493.84 86.9725L1470.85 47.1507V45.9781C1472.03 46.3064 1473.2 46.7285 1474.33 47.1976C1477.09 48.3233 1479.72 49.8242 1482.16 51.7004C1483.76 52.9668 1485.3 54.374 1486.66 55.9218C1488.07 57.6104 1489.38 59.3927 1490.56 61.4096ZM1495.95 48.1826C1504.02 52.8261 1509.42 60.3777 1511.57 68.7267L1487.51 54.843C1483.66 50.5278 1478.83 47.3383 1473.58 45.4152H1489.76C1491.92 46.1188 1493.98 47.0569 1495.95 48.1826ZM1490.04 44.0081H1483.8H1474.79H1471.23L1473.29 42.7886L1487.32 34.6741C1489.48 34.252 1491.73 34.0174 1494.03 34.0174C1503.36 34.0174 1511.76 37.8167 1517.81 44.0081H1490.04Z" fill="#54362C"/>
<path d="M1469.59 138.051L1513.64 163.474C1511.71 154.28 1506.04 145.978 1497.31 140.913C1495.25 139.74 1493.09 138.755 1490.93 138.051H1520.49C1514.25 131.063 1505.15 126.654 1495.06 126.654C1492.67 126.654 1490.32 126.888 1488.12 127.357L1513.68 112.582C1504.77 109.674 1494.73 110.378 1485.96 115.444C1483.89 116.616 1482.02 118.023 1480.28 119.571L1495.06 94.0082C1485.86 95.9313 1477.56 101.607 1472.5 110.331C1471.32 112.395 1470.34 114.552 1469.63 116.71V87.1602C1462.64 93.3984 1458.23 102.498 1458.23 112.582C1458.23 114.974 1458.47 117.32 1458.94 119.524C1457.2 117.976 1455.33 116.616 1453.26 115.397C1444.49 110.331 1434.45 109.627 1425.54 112.535L1451.1 127.31C1448.85 126.841 1446.51 126.607 1444.16 126.607C1434.07 126.607 1424.97 131.016 1418.73 138.005H1448.29C1446.08 138.708 1443.97 139.646 1441.91 140.866C1433.14 145.931 1427.51 154.28 1425.58 163.427L1451.15 148.652C1449.6 150.387 1448.24 152.263 1447.02 154.327C1441.96 163.098 1441.25 173.136 1444.16 182.048L1458.94 156.485C1458.47 158.736 1458.23 161.082 1458.23 163.427C1458.23 173.511 1462.64 182.611 1469.63 188.849L1469.59 138.051Z" fill="#88BE55"/>
<path d="M1521 137.582C1514.62 130.453 1505.33 125.95 1495.06 125.95C1493.93 125.95 1492.81 125.997 1491.68 126.138L1514.01 113.239C1514.25 113.098 1514.39 112.817 1514.34 112.535C1514.29 112.254 1514.11 112.019 1513.87 111.926C1510.35 110.8 1506.69 110.19 1502.94 110.19C1497.03 110.19 1491.03 111.691 1485.58 114.834C1484.6 115.397 1483.66 116.006 1482.77 116.663L1495.67 94.3365C1495.81 94.102 1495.81 93.7736 1495.62 93.586C1495.44 93.3515 1495.2 93.2577 1494.92 93.3046C1485.58 95.2746 1477.05 101.044 1471.89 109.956C1471.32 110.941 1470.81 111.926 1470.34 112.958V87.1601C1470.34 86.8787 1470.15 86.6442 1469.92 86.5034C1469.68 86.4096 1469.35 86.4565 1469.16 86.6442C1462.03 93.0232 1457.53 102.263 1457.53 112.582C1457.53 114.318 1457.67 116.053 1457.91 117.742C1456.59 116.663 1455.14 115.725 1453.64 114.834C1448.15 111.691 1442.19 110.19 1436.28 110.19C1432.57 110.19 1428.87 110.8 1425.35 111.926C1425.07 112.019 1424.88 112.254 1424.88 112.535C1424.83 112.817 1424.97 113.098 1425.21 113.239L1447.54 126.138C1446.41 126.044 1445.29 125.95 1444.16 125.95C1433.84 125.95 1424.6 130.453 1418.22 137.582C1418.03 137.77 1417.98 138.098 1418.08 138.333C1418.17 138.567 1418.45 138.755 1418.73 138.755H1444.54C1443.5 139.224 1442.52 139.74 1441.53 140.303C1432.62 145.462 1426.8 153.999 1424.88 163.333C1424.83 163.614 1424.93 163.896 1425.16 164.036C1425.4 164.177 1425.68 164.224 1425.91 164.083L1448.24 151.185C1447.59 152.076 1446.98 153.061 1446.41 154.046C1443.22 159.534 1441.77 165.49 1441.77 171.4C1441.77 175.106 1442.38 178.811 1443.5 182.329C1443.6 182.611 1443.83 182.798 1444.11 182.798C1444.4 182.798 1444.68 182.704 1444.77 182.47L1457.67 160.143C1457.58 161.269 1457.53 162.395 1457.53 163.521C1457.53 173.839 1462.03 183.08 1469.16 189.459C1469.35 189.646 1469.68 189.693 1469.92 189.599C1470.15 189.506 1470.34 189.224 1470.34 188.943V145.181C1484.88 172.526 1492.53 203.014 1492.53 234.065V378.999H1498.16V234.065C1498.16 201.935 1490.18 170.322 1475.03 142.038L1513.31 164.13C1513.54 164.271 1513.82 164.271 1514.06 164.083C1514.29 163.896 1514.39 163.614 1514.34 163.38C1512.37 153.999 1506.6 145.509 1497.69 140.35C1496.7 139.787 1495.72 139.271 1494.68 138.802H1520.49C1520.77 138.802 1521 138.661 1521.14 138.38C1521.19 138.098 1521.14 137.77 1521 137.582ZM1486.29 116.1C1491.54 113.051 1497.31 111.644 1502.94 111.644C1505.99 111.644 1508.99 112.066 1511.85 112.864L1487.79 126.747L1482.39 129.89L1474.61 134.393L1471.56 136.175L1472.73 134.111L1480.85 120.087C1482.49 118.539 1484.32 117.226 1486.29 116.1ZM1473.06 110.706C1477.7 102.639 1485.21 97.2446 1493.61 95.087L1479.72 119.149L1476.58 124.59L1472.07 132.376L1470.29 135.425V133.033V116.804C1470.99 114.74 1471.93 112.676 1473.06 110.706ZM1468.23 135.612C1467.99 135.378 1467.71 135.096 1467.48 134.909C1464.15 131.203 1461.61 126.701 1460.25 121.776C1460.02 120.931 1459.83 120.087 1459.64 119.243C1459.22 117.132 1458.98 114.928 1458.98 112.676C1458.98 103.342 1462.78 94.9462 1468.98 88.8956V116.663V122.901V131.954V133.08V136.316C1468.7 136.081 1468.41 135.8 1468.23 135.612ZM1427.32 112.817C1430.23 112.019 1433.23 111.597 1436.23 111.597C1441.91 111.597 1447.63 113.051 1452.89 116.053C1454.86 117.179 1456.64 118.445 1458.23 119.899C1459.13 124.121 1460.81 128.061 1463.07 131.532C1463.82 132.704 1464.66 133.83 1465.55 134.862L1464.52 134.252L1456.73 129.749L1451.29 126.607L1427.32 112.817ZM1420.38 137.348C1426.43 131.203 1434.87 127.357 1444.16 127.357C1446.46 127.357 1448.71 127.592 1450.87 128.014L1464.9 136.128L1466.96 137.301H1463.39H1454.39H1448.1H1420.38V137.348ZM1426.62 162.066C1428.77 153.717 1434.17 146.166 1442.24 141.522C1444.21 140.35 1446.27 139.459 1448.38 138.755H1464.61C1459.36 140.678 1454.58 143.868 1450.73 148.183L1426.62 162.066ZM1444.4 180.312C1443.6 177.404 1443.18 174.402 1443.18 171.4C1443.18 165.725 1444.63 160.003 1447.68 154.749C1448.81 152.779 1450.12 150.95 1451.62 149.308C1453.03 147.761 1454.53 146.307 1456.12 145.087C1458.52 143.211 1461.14 141.71 1463.91 140.584C1464.99 140.162 1466.12 139.74 1467.24 139.412C1466.68 139.974 1466.16 140.584 1465.65 141.194C1462.08 145.462 1459.5 150.622 1458.28 156.297L1444.4 180.312ZM1468.88 187.254C1462.74 181.203 1458.89 172.761 1458.89 163.474C1458.89 161.175 1459.13 158.924 1459.55 156.766C1459.97 154.702 1460.58 152.732 1461.33 150.856C1462.46 148.042 1464 145.415 1465.83 143.07C1466.44 142.273 1467.15 141.475 1467.8 140.725C1467.99 141.006 1468.13 141.288 1468.27 141.569C1468.46 141.898 1468.65 142.179 1468.79 142.507V187.254H1468.88ZM1496.94 141.522C1505.01 146.166 1510.4 153.717 1512.56 162.066L1473.67 139.646C1473.53 139.365 1473.34 139.083 1473.2 138.802C1473.06 138.52 1472.87 138.239 1472.73 137.958C1473.72 137.723 1474.75 137.535 1475.73 137.395C1477.23 137.207 1478.73 137.113 1480.24 137.113C1481.74 137.113 1483.24 137.207 1484.74 137.395C1486.76 137.676 1488.82 138.145 1490.79 138.802C1492.9 139.459 1494.97 140.35 1496.94 141.522ZM1491.07 137.348C1487.55 136.175 1483.9 135.659 1480.28 135.659C1478.27 135.659 1476.25 135.847 1474.28 136.175L1488.3 128.061C1490.46 127.592 1492.71 127.404 1495.01 127.404C1504.35 127.404 1512.75 131.203 1518.8 137.395H1491.07V137.348Z" fill="#54362C"/>
<path d="M1329.98 319.736C1331.14 319.077 1332.36 318.524 1333.57 318.128H1316.96C1320.47 314.201 1325.58 311.723 1331.25 311.723C1332.59 311.723 1333.91 311.854 1335.15 312.118L1320.78 303.814C1325.79 302.18 1331.43 302.576 1336.36 305.422C1337.52 306.081 1338.58 306.872 1339.55 307.742L1331.25 293.376C1336.42 294.457 1341.08 297.646 1343.93 302.549C1344.59 303.709 1345.14 304.922 1345.54 306.134C1345.93 304.895 1346.46 303.709 1347.15 302.549C1349.99 297.62 1354.69 294.457 1359.83 293.376L1351.52 307.742C1352.5 306.872 1353.55 306.108 1354.71 305.422C1359.64 302.576 1365.29 302.18 1370.29 303.814L1355.93 312.118C1357.19 311.854 1358.51 311.723 1359.83 311.723C1365.5 311.723 1370.61 314.201 1374.12 318.128H1357.51C1358.75 318.524 1359.93 319.051 1361.09 319.736C1366.02 322.583 1369.19 327.275 1370.27 332.416L1355.9 324.112C1356.77 325.087 1357.53 326.142 1358.22 327.302C1361.07 332.231 1361.46 337.872 1359.83 342.881L1345.54 318.128L1331.25 342.881C1329.61 337.872 1330.01 332.231 1332.86 327.302C1333.52 326.142 1334.31 325.087 1335.18 324.112L1320.81 332.416C1321.86 327.275 1325.05 322.583 1329.98 319.736Z" fill="#88BE55"/>
<path d="M1316.67 317.865C1320.25 313.858 1325.47 311.327 1331.25 311.327C1331.88 311.327 1332.51 311.354 1333.15 311.433L1320.6 304.183C1320.47 304.104 1320.39 303.946 1320.39 303.788C1320.39 303.63 1320.52 303.498 1320.65 303.445C1322.63 302.786 1324.68 302.47 1326.79 302.47C1330.11 302.47 1333.49 303.314 1336.55 305.106C1337.1 305.422 1337.63 305.765 1338.16 306.134L1330.91 293.587C1330.83 293.455 1330.83 293.27 1330.93 293.165C1331.04 293.033 1331.17 292.98 1331.33 293.007C1336.6 294.114 1341.37 297.356 1344.27 302.365C1344.77 303.208 1345.2 304.078 1345.54 304.974C1345.88 304.078 1346.3 303.208 1346.8 302.365C1349.7 297.356 1354.48 294.087 1359.75 293.007C1359.91 292.98 1360.06 293.033 1360.14 293.165C1360.25 293.297 1360.25 293.455 1360.17 293.587L1352.92 306.134C1353.42 305.765 1353.97 305.422 1354.53 305.106C1357.61 303.314 1360.96 302.47 1364.28 302.47C1366.37 302.47 1368.45 302.813 1370.43 303.445C1370.58 303.498 1370.69 303.63 1370.69 303.788C1370.69 303.946 1370.64 304.104 1370.51 304.183L1357.96 311.433C1358.59 311.38 1359.22 311.327 1359.85 311.327C1365.65 311.327 1370.85 313.858 1374.43 317.865C1374.54 317.97 1374.57 318.155 1374.51 318.286C1374.46 318.418 1374.3 318.524 1374.14 318.524H1359.64C1360.22 318.787 1360.78 319.077 1361.33 319.393C1366.34 322.293 1369.61 327.091 1370.69 332.336C1370.72 332.495 1370.66 332.653 1370.53 332.732C1370.4 332.811 1370.24 332.837 1370.11 332.758L1357.56 325.509C1357.93 326.01 1358.27 326.564 1358.59 327.117C1360.38 330.201 1361.23 333.549 1361.23 336.87C1361.23 338.953 1360.88 341.035 1360.25 343.012C1360.2 343.171 1360.06 343.276 1359.91 343.276C1359.75 343.302 1359.62 343.223 1359.54 343.092L1347.52 322.24V460.791H1344.35V321.081L1331.64 343.065C1331.56 343.197 1331.41 343.276 1331.25 343.25C1331.09 343.223 1330.96 343.118 1330.91 342.986C1330.27 341.009 1329.93 338.953 1329.93 336.844C1329.93 333.523 1330.77 330.149 1332.54 327.091C1332.86 326.537 1333.2 326.01 1333.57 325.483L1321.02 332.732C1320.89 332.811 1320.73 332.811 1320.6 332.706C1320.47 332.626 1320.41 332.468 1320.44 332.31C1321.55 327.064 1324.79 322.267 1329.8 319.367C1330.35 319.051 1330.91 318.761 1331.49 318.497H1316.99C1316.83 318.497 1316.7 318.418 1316.62 318.26C1316.54 318.155 1316.56 317.996 1316.67 317.865ZM1336.18 305.791C1333.23 304.078 1330.01 303.287 1326.82 303.287C1325.13 303.287 1323.44 303.524 1321.81 303.973L1335.34 311.775L1338.39 313.541L1342.77 316.072L1344.51 317.074L1343.85 315.914L1339.29 308.032C1338.31 307.189 1337.29 306.45 1336.18 305.791ZM1345.54 316.52C1345.59 316.336 1345.64 316.151 1345.7 315.967C1345.96 314.701 1346.09 313.41 1346.09 312.118C1346.09 310.589 1345.91 309.06 1345.54 307.558C1345.43 307.083 1345.27 306.609 1345.12 306.134C1344.72 304.974 1344.22 303.841 1343.59 302.76C1340.98 298.226 1336.76 295.195 1332.04 293.982L1339.84 307.505L1341.61 310.563L1344.14 314.912L1344.46 315.466L1345.38 317.047C1345.41 316.889 1345.46 316.731 1345.51 316.573L1345.54 316.52ZM1359.04 293.982C1354.34 295.195 1350.13 298.226 1347.49 302.76C1346.86 303.867 1346.36 304.974 1345.96 306.134C1346.59 308.085 1346.91 310.115 1346.91 312.118C1346.91 312.461 1346.91 312.803 1346.88 313.172C1346.83 313.963 1346.75 314.728 1346.62 315.492L1346.96 314.912L1349.49 310.536L1351.26 307.479L1359.04 293.982ZM1369.29 303.973C1367.66 303.524 1365.97 303.287 1364.28 303.287C1361.09 303.287 1357.88 304.104 1354.92 305.791C1353.82 306.424 1352.79 307.189 1351.87 308.006L1347.3 315.914L1346.65 317.074L1348.39 316.072L1352.74 313.568L1355.79 311.802L1369.29 303.973ZM1373.19 317.733C1369.79 314.28 1365.05 312.118 1359.83 312.118C1358.54 312.118 1357.27 312.25 1356.06 312.487L1348.17 317.047C1349.28 316.863 1350.42 316.757 1351.55 316.757C1353.58 316.757 1355.61 317.074 1357.59 317.733H1373.19ZM1369.69 331.625C1368.48 326.933 1365.44 322.715 1360.91 320.079C1359.8 319.446 1358.64 318.919 1357.45 318.524C1356.35 318.155 1355.21 317.891 1354.08 317.733C1353.24 317.627 1352.39 317.548 1351.55 317.548C1350.71 317.548 1349.86 317.601 1349.02 317.733C1348.36 317.812 1347.73 317.944 1347.07 318.102C1347.09 318.102 1347.12 318.128 1347.15 318.128L1347.3 318.181L1347.46 318.234C1347.75 318.339 1348.07 318.418 1348.36 318.55C1351.31 319.631 1354 321.423 1356.19 323.848L1369.69 331.625ZM1359.72 341.905C1360.17 340.271 1360.41 338.584 1360.41 336.897C1360.41 333.707 1359.59 330.491 1357.9 327.539C1357.27 326.432 1356.51 325.404 1355.69 324.481C1354.9 323.611 1354.05 322.82 1353.16 322.109C1351.81 321.054 1350.34 320.211 1348.78 319.578C1348.36 319.393 1347.91 319.235 1347.49 319.103V320.711L1359.72 341.905ZM1333.2 327.512C1331.49 330.465 1330.67 333.681 1330.67 336.87C1330.67 338.558 1330.91 340.271 1331.35 341.879L1344.27 319.499V318.84C1343.61 319.024 1342.95 319.262 1342.32 319.525C1340.77 320.158 1339.29 321.001 1337.92 322.056C1337.02 322.768 1336.15 323.558 1335.39 324.428C1334.6 325.377 1333.86 326.379 1333.2 327.512ZM1330.17 320.079C1325.63 322.689 1322.6 326.933 1321.39 331.625L1334.91 323.822C1337.08 321.397 1339.79 319.604 1342.74 318.524H1333.65C1332.43 318.919 1331.27 319.446 1330.17 320.079ZM1333.49 317.733H1337H1342.06H1344.06L1342.9 317.047L1335.02 312.487C1333.81 312.25 1332.54 312.118 1331.25 312.118C1326 312.118 1321.28 314.253 1317.88 317.733H1333.49Z" fill="#54362C"/>
<path d="M1344.99 370.586L1320.23 384.873C1321.31 379.706 1324.5 375.04 1329.4 372.194C1330.56 371.535 1331.78 370.981 1332.99 370.586H1316.38C1319.89 366.658 1325 364.18 1330.67 364.18C1332.01 364.18 1333.33 364.312 1334.57 364.575L1320.2 356.272C1325.21 354.637 1330.85 355.033 1335.78 357.88C1336.94 358.539 1338 359.33 1338.97 360.199L1330.67 345.833C1335.84 346.914 1340.5 350.103 1343.35 355.006C1344.01 356.166 1344.56 357.379 1344.96 358.591V341.984C1348.89 345.49 1351.37 350.604 1351.37 356.272C1351.37 357.616 1351.23 358.934 1350.97 360.173C1351.95 359.303 1353 358.539 1354.16 357.853C1359.09 355.006 1364.73 354.611 1369.74 356.245L1355.37 364.549C1356.64 364.285 1357.96 364.154 1359.27 364.154C1364.94 364.154 1370.06 366.631 1373.56 370.559H1356.95C1358.19 370.955 1359.38 371.482 1360.54 372.167C1365.47 375.014 1368.63 379.706 1369.72 384.847L1355.35 376.543C1356.22 377.518 1356.98 378.573 1357.67 379.733C1360.51 384.662 1360.91 390.303 1359.27 395.312L1350.97 380.945C1351.23 382.211 1351.37 383.529 1351.37 384.847C1351.37 390.514 1348.89 395.628 1344.96 399.134L1344.99 370.586Z" fill="#88BE55"/>
<path d="M1316.09 370.322C1319.67 366.315 1324.89 363.784 1330.67 363.784C1331.3 363.784 1331.93 363.811 1332.57 363.89L1320.02 356.641C1319.89 356.562 1319.81 356.403 1319.83 356.245C1319.86 356.087 1319.96 355.955 1320.1 355.903C1322.07 355.27 1324.13 354.927 1326.24 354.927C1329.56 354.927 1332.94 355.771 1335.99 357.537C1336.55 357.853 1337.08 358.196 1337.58 358.565L1330.33 346.017C1330.25 345.886 1330.25 345.701 1330.35 345.596C1330.46 345.464 1330.59 345.411 1330.75 345.438C1335.99 346.545 1340.79 349.787 1343.69 354.795C1344.01 355.349 1344.3 355.903 1344.56 356.483V341.984C1344.56 341.826 1344.67 341.694 1344.8 341.615C1344.93 341.563 1345.12 341.589 1345.22 341.694C1349.23 345.279 1351.76 350.472 1351.76 356.272C1351.76 357.247 1351.68 358.222 1351.55 359.171C1352.29 358.565 1353.1 358.038 1353.95 357.537C1357.03 355.771 1360.38 354.927 1363.7 354.927C1365.79 354.927 1367.87 355.27 1369.85 355.903C1370 355.955 1370.11 356.087 1370.11 356.245C1370.14 356.403 1370.06 356.562 1369.93 356.641L1357.38 363.89C1358.01 363.837 1358.64 363.784 1359.27 363.784C1365.07 363.784 1370.27 366.315 1373.85 370.322C1373.96 370.427 1373.99 370.612 1373.93 370.744C1373.88 370.875 1373.72 370.981 1373.56 370.981H1359.06C1359.64 371.244 1360.2 371.534 1360.75 371.851C1365.76 374.75 1369.03 379.548 1370.11 384.794C1370.14 384.952 1370.08 385.11 1369.95 385.189C1369.82 385.268 1369.66 385.295 1369.53 385.216L1356.98 377.966C1357.35 378.467 1357.69 379.021 1358.01 379.574C1359.8 382.659 1360.62 386.006 1360.62 389.328C1360.62 391.41 1360.28 393.493 1359.64 395.47C1359.59 395.628 1359.46 395.733 1359.3 395.733C1359.14 395.733 1358.98 395.681 1358.93 395.549L1351.68 383.001C1351.73 383.634 1351.76 384.267 1351.76 384.899C1351.76 390.698 1349.23 395.892 1345.22 399.477C1345.12 399.582 1344.93 399.608 1344.8 399.556C1344.67 399.503 1344.56 399.345 1344.56 399.187V374.592C1336.39 389.96 1332.09 407.095 1332.09 424.545V505.999H1328.93V424.545C1328.93 406.488 1333.41 388.721 1341.93 372.826L1320.41 385.242C1320.28 385.321 1320.12 385.321 1319.99 385.216C1319.86 385.11 1319.81 384.952 1319.83 384.82C1320.94 379.548 1324.18 374.777 1329.19 371.877C1329.75 371.561 1330.3 371.271 1330.88 371.007H1316.38C1316.22 371.007 1316.09 370.928 1316.01 370.77C1315.98 370.612 1316.01 370.427 1316.09 370.322ZM1335.6 358.249C1332.65 356.535 1329.4 355.744 1326.24 355.744C1324.53 355.744 1322.84 355.982 1321.23 356.43L1334.75 364.233L1337.79 365.999L1342.16 368.529L1343.88 369.531L1343.22 368.371L1338.66 360.489C1337.73 359.619 1336.71 358.881 1335.6 358.249ZM1343.03 355.217C1340.42 350.683 1336.21 347.652 1331.49 346.439L1339.29 359.962L1341.06 363.02L1343.59 367.396L1344.59 369.109V367.765V358.644C1344.19 357.484 1343.67 356.324 1343.03 355.217ZM1345.75 369.215C1345.88 369.083 1346.04 368.925 1346.17 368.819C1348.04 366.737 1349.47 364.206 1350.23 361.438C1350.36 360.964 1350.47 360.489 1350.57 360.015C1350.81 358.829 1350.94 357.59 1350.94 356.324C1350.94 351.079 1348.81 346.36 1345.33 342.96V358.565V362.071V367.159V367.791V369.61C1345.49 369.478 1345.64 369.32 1345.75 369.215ZM1368.74 356.403C1367.1 355.955 1365.42 355.718 1363.73 355.718C1360.54 355.718 1357.32 356.535 1354.37 358.222C1353.26 358.855 1352.26 359.567 1351.36 360.384C1350.86 362.756 1349.91 364.971 1348.65 366.921C1348.23 367.58 1347.75 368.213 1347.25 368.793L1347.83 368.45L1352.21 365.92L1355.27 364.153L1368.74 356.403ZM1372.64 370.19C1369.24 366.737 1364.49 364.575 1359.27 364.575C1357.98 364.575 1356.72 364.707 1355.5 364.944L1347.62 369.505L1346.46 370.164H1348.46H1353.53H1357.06H1372.64V370.19ZM1369.13 384.082C1367.92 379.39 1364.89 375.146 1360.35 372.536C1359.25 371.877 1358.09 371.376 1356.9 370.981H1347.78C1350.73 372.062 1353.42 373.854 1355.58 376.279L1369.13 384.082ZM1359.14 394.336C1359.59 392.702 1359.83 391.015 1359.83 389.328C1359.83 386.138 1359.01 382.922 1357.3 379.97C1356.66 378.863 1355.93 377.835 1355.08 376.912C1354.29 376.042 1353.45 375.225 1352.55 374.54C1351.21 373.485 1349.73 372.642 1348.17 372.009C1347.57 371.772 1346.94 371.534 1346.3 371.35C1346.62 371.666 1346.91 372.009 1347.2 372.352C1349.2 374.75 1350.65 377.65 1351.34 380.84L1359.14 394.336ZM1345.38 398.238C1348.83 394.837 1351 390.092 1351 384.873C1351 383.581 1350.86 382.316 1350.63 381.103C1350.39 379.943 1350.05 378.836 1349.62 377.782C1348.99 376.2 1348.12 374.724 1347.09 373.406C1346.75 372.958 1346.36 372.51 1345.99 372.088C1345.88 372.246 1345.8 372.404 1345.72 372.562C1345.62 372.747 1345.51 372.905 1345.43 373.09V398.238H1345.38ZM1329.61 372.536C1325.08 375.146 1322.05 379.39 1320.83 384.082L1342.69 371.482C1342.77 371.324 1342.88 371.165 1342.95 371.007C1343.03 370.849 1343.14 370.691 1343.22 370.533C1342.66 370.401 1342.08 370.295 1341.53 370.216C1340.69 370.111 1339.84 370.058 1339 370.058C1338.16 370.058 1337.31 370.111 1336.47 370.216C1335.33 370.375 1334.17 370.638 1333.07 371.007C1331.88 371.376 1330.72 371.877 1329.61 372.536ZM1332.91 370.19C1334.89 369.531 1336.94 369.241 1338.97 369.241C1340.11 369.241 1341.24 369.346 1342.35 369.531L1334.46 364.971C1333.25 364.707 1331.99 364.602 1330.69 364.602C1325.45 364.602 1320.73 366.737 1317.33 370.216H1332.91V370.19Z" fill="#54362C"/>
<path d="M586.652 387.626C584.729 378.433 579.052 370.131 570.327 365.065C568.263 363.892 566.105 362.907 563.947 362.204H593.501C587.262 355.215 578.161 350.806 568.075 350.806C565.683 350.806 563.337 351.041 561.132 351.51L586.699 336.735C577.786 333.827 567.747 334.53 558.974 339.596C556.91 340.768 555.034 342.176 553.298 343.723L568.075 318.161C558.88 320.084 550.577 325.759 545.511 334.483C544.338 336.547 543.353 338.705 542.649 340.862V311.312C535.659 317.551 531.25 326.65 531.25 336.735C531.25 339.127 531.484 341.472 531.953 343.677C530.217 342.129 528.341 340.768 526.277 339.549C517.504 334.483 507.465 333.78 498.552 336.688L524.119 351.463C521.867 350.994 519.522 350.759 517.176 350.759C507.09 350.759 497.989 355.168 491.75 362.157H521.304C519.099 362.86 516.988 363.799 514.924 365.018C506.152 370.084 500.522 378.433 498.599 387.579L524.166 372.804C522.618 374.54 521.257 376.416 520.038 378.48C514.971 387.251 514.268 397.288 517.176 406.2L531.953 380.637C531.484 382.889 531.25 385.234 531.25 387.579C531.25 397.664 535.659 406.763 542.649 413.001V362.204L586.652 387.626Z" fill="#88BE55"/>
<path d="M594.018 361.735C587.638 354.605 578.349 350.102 568.076 350.102C566.95 350.102 565.824 350.149 564.698 350.243L587.028 337.344C587.262 337.204 587.403 336.922 587.356 336.641C587.309 336.359 587.122 336.125 586.887 336.031C583.369 334.859 579.71 334.296 575.957 334.296C570.046 334.296 564.041 335.797 558.6 338.986C557.614 339.549 556.676 340.159 555.738 340.815L568.639 318.489C568.779 318.254 568.779 317.926 568.592 317.738C568.404 317.504 568.169 317.41 567.888 317.457C558.506 319.427 550.015 325.196 544.854 334.108C544.292 335.093 543.775 336.125 543.306 337.11V311.312C543.306 311.031 543.166 310.797 542.884 310.656C542.65 310.515 542.321 310.562 542.134 310.797C535.003 317.176 530.5 326.416 530.5 336.735C530.5 338.47 530.64 340.206 530.875 341.894C529.561 340.815 528.107 339.877 526.606 338.986C521.117 335.843 515.113 334.296 509.249 334.296C505.543 334.296 501.837 334.905 498.318 336.031C498.037 336.125 497.849 336.359 497.849 336.641C497.802 336.922 497.943 337.204 498.177 337.344L520.507 350.243C519.381 350.149 518.256 350.102 517.13 350.102C506.809 350.102 497.568 354.605 491.188 361.735C491 361.922 490.953 362.251 491.047 362.485C491.141 362.72 491.422 362.907 491.704 362.907H517.505C516.473 363.376 515.488 363.892 514.503 364.455C505.589 369.615 499.772 378.151 497.849 387.485C497.802 387.767 497.896 388.048 498.131 388.189C498.365 388.33 498.647 388.376 498.881 388.236L521.211 375.337C520.554 376.228 519.944 377.213 519.381 378.198C516.192 383.686 514.69 389.643 514.69 395.553C514.69 399.258 515.3 402.964 516.426 406.482C516.52 406.763 516.754 406.951 517.036 406.951C517.317 406.998 517.599 406.857 517.74 406.622L530.64 384.296C530.546 385.421 530.453 386.547 530.453 387.673C530.453 397.992 534.956 407.232 542.087 413.611C542.274 413.799 542.603 413.846 542.837 413.752C543.072 413.658 543.259 413.377 543.259 413.095V369.239C562.962 405.543 573.33 446.21 573.33 487.579V639.972H578.959V487.579C578.959 445.131 568.31 403.386 547.998 366.191L586.277 388.283C586.512 388.423 586.84 388.423 587.028 388.236C587.262 388.095 587.356 387.814 587.309 387.532C585.339 378.198 579.569 369.662 570.656 364.502C569.671 363.939 568.686 363.423 567.653 362.954H593.455C593.736 362.954 593.971 362.767 594.112 362.532C594.252 362.298 594.158 361.922 594.018 361.735ZM559.303 340.253C564.557 337.204 570.327 335.75 575.957 335.75C579.006 335.75 582.008 336.172 584.87 336.969L560.804 350.853L555.41 353.996L547.575 358.498L544.526 360.281L545.699 358.217L553.815 344.192C555.503 342.738 557.286 341.378 559.303 340.253ZM546.074 334.859C550.718 326.791 558.271 321.397 566.621 319.239L552.736 343.301L549.593 348.695L545.089 356.481L543.306 359.577V357.185V340.956C544.01 338.892 544.948 336.828 546.074 334.859ZM541.195 359.718C540.961 359.483 540.679 359.249 540.445 359.014C537.114 355.309 534.628 350.806 533.22 345.881C532.986 345.037 532.798 344.192 532.611 343.348C532.188 341.237 531.954 339.033 531.954 336.782C531.954 327.448 535.754 319.052 541.946 313.001V340.768V347.054V356.059V357.232V360.468C541.758 360.281 541.524 360.046 541.336 359.859L541.195 359.718ZM500.335 336.969C503.244 336.172 506.246 335.75 509.249 335.75C514.925 335.75 520.648 337.204 525.902 340.253C527.872 341.378 529.655 342.692 531.297 344.099C532.188 348.32 533.877 352.26 536.129 355.731C536.879 356.904 537.724 358.029 538.615 359.061L537.583 358.451L529.796 353.949L524.401 350.806L500.335 336.969ZM493.392 361.5C499.444 355.356 507.888 351.51 517.177 351.51C519.475 351.51 521.727 351.744 523.885 352.166L537.912 360.328L539.976 361.5H536.41H527.403H521.117H493.392ZM499.632 386.219C501.79 377.87 507.184 370.365 515.253 365.675C517.224 364.549 519.288 363.611 521.399 362.907H537.583C532.329 364.83 527.544 368.02 523.697 372.288L499.632 386.219ZM517.411 404.465C516.614 401.557 516.192 398.555 516.192 395.553C516.192 389.877 517.646 384.155 520.648 378.902C521.774 376.932 523.134 375.103 524.589 373.461C525.996 371.866 527.497 370.459 529.139 369.239C531.532 367.41 534.159 365.909 536.879 364.737C537.958 364.314 539.084 363.892 540.21 363.564C539.647 364.127 539.131 364.737 538.615 365.346C535.05 369.615 532.47 374.774 531.25 380.45L517.411 404.465ZM541.899 411.407C535.754 405.356 531.907 396.913 531.907 387.626C531.907 385.328 532.141 383.076 532.564 380.919C532.986 378.855 533.596 376.885 534.346 375.009C535.472 372.194 537.02 369.568 538.85 367.223C539.46 366.425 540.116 365.628 540.82 364.877C541.148 365.487 541.477 366.05 541.852 366.66V411.407H541.899ZM569.952 365.675C578.021 370.318 583.416 377.87 585.574 386.219L546.684 363.799C546.356 363.236 546.027 362.673 545.699 362.11C546.684 361.875 547.716 361.688 548.748 361.547C550.249 361.359 551.75 361.219 553.252 361.219C554.753 361.219 556.254 361.313 557.708 361.547C559.725 361.829 561.79 362.298 563.76 362.954C565.918 363.611 567.982 364.502 569.952 365.675ZM564.041 361.5C560.523 360.328 556.864 359.765 553.299 359.765C551.281 359.765 549.264 359.952 547.294 360.281L561.32 352.166C563.478 351.697 565.73 351.51 568.029 351.51C577.364 351.51 585.761 355.309 591.813 361.5H564.041Z" fill="#54362C"/>
<path d="M542.602 239.22L586.652 264.643C584.729 255.449 579.052 247.147 570.327 242.082C568.263 240.909 566.105 239.924 563.947 239.22H593.501C587.262 232.232 578.161 227.823 568.075 227.823C565.683 227.823 563.337 228.057 561.132 228.526L586.699 213.751C577.786 210.843 567.747 211.547 558.974 216.612C556.91 217.785 555.034 219.192 553.298 220.74L568.075 195.177C558.88 197.1 550.577 202.776 545.511 211.5C544.338 213.564 543.353 215.721 542.649 217.879V188.329C535.659 194.567 531.25 203.667 531.25 213.751C531.25 216.143 531.484 218.489 531.953 220.693C530.217 219.145 528.341 217.785 526.277 216.566C517.504 211.5 507.465 210.796 498.552 213.704L524.119 228.479C521.867 228.01 519.522 227.776 517.176 227.776C507.09 227.776 497.989 232.185 491.75 239.174H521.304C519.099 239.877 516.988 240.815 514.924 242.035C506.152 247.1 500.522 255.449 498.599 264.596L524.166 249.821C522.618 251.556 521.257 253.432 520.038 255.496C514.971 264.267 514.268 274.305 517.176 283.217L531.953 257.654C531.484 259.905 531.25 262.251 531.25 264.596C531.25 274.68 535.659 283.78 542.649 290.018L542.602 239.22Z" fill="#88BE55"/>
<path d="M567.607 268.02L549.827 244.192L586.277 265.252C586.512 265.393 586.84 265.393 587.028 265.205C587.262 265.065 587.356 264.783 587.309 264.502C585.339 255.121 579.569 246.631 570.656 241.472C569.671 240.909 568.686 240.393 567.653 239.924H593.455C593.736 239.924 593.971 239.783 594.112 239.502C594.205 239.267 594.158 238.939 593.971 238.751C587.638 231.622 578.349 227.119 568.029 227.119C566.903 227.119 565.777 227.166 564.651 227.26L586.981 214.361C587.216 214.22 587.356 213.939 587.309 213.657C587.262 213.376 587.075 213.141 586.84 213.048C583.322 211.922 579.663 211.312 575.91 211.312C569.999 211.312 563.994 212.813 558.553 216.003C557.567 216.566 556.629 217.175 555.738 217.832L568.639 195.505C568.779 195.271 568.779 194.989 568.592 194.755C568.404 194.52 568.169 194.427 567.888 194.474C558.506 196.444 550.015 202.213 544.854 211.125C544.292 212.11 543.775 213.141 543.306 214.126V188.329C543.306 188.048 543.166 187.813 542.884 187.672C542.65 187.579 542.321 187.625 542.134 187.813C535.003 194.192 530.5 203.479 530.5 213.751C530.5 215.487 530.64 217.222 530.875 218.911C529.561 217.832 528.107 216.894 526.606 216.003C521.117 212.86 515.113 211.312 509.249 211.312C505.543 211.312 501.837 211.922 498.318 213.048C498.037 213.141 497.849 213.376 497.849 213.657C497.802 213.939 497.943 214.22 498.177 214.361L520.507 227.26C519.381 227.166 518.256 227.119 517.13 227.119C506.809 227.119 497.568 231.622 491.188 238.751C491 238.939 490.953 239.267 491.047 239.502C491.141 239.736 491.422 239.924 491.704 239.924H517.505C516.473 240.393 515.488 240.909 514.503 241.472C505.589 246.631 499.772 255.121 497.849 264.502C497.802 264.783 497.896 265.065 498.131 265.205C498.365 265.346 498.647 265.393 498.881 265.252L521.211 252.354C520.554 253.245 519.944 254.23 519.381 255.215C516.192 260.703 514.69 266.659 514.69 272.569C514.69 276.275 515.3 279.98 516.426 283.498C516.52 283.78 516.754 283.967 517.036 283.967C517.317 284.014 517.599 283.873 517.74 283.639L530.64 261.312C530.546 262.438 530.453 263.564 530.453 264.689C530.453 275.008 534.956 284.249 542.087 290.628C542.274 290.815 542.603 290.862 542.837 290.768C543.072 290.675 543.259 290.393 543.259 290.112V244.896L563.056 271.397C583.838 299.258 595.05 333.029 595.05 367.785V642.176H600.679V367.785C600.726 331.81 589.139 296.819 567.607 268.02ZM569.952 242.691C578.021 247.335 583.416 254.886 585.574 263.235L547.669 241.378L545.933 239.033C546.872 238.845 547.81 238.657 548.748 238.517C550.249 238.329 551.75 238.188 553.252 238.188C554.753 238.188 556.254 238.282 557.755 238.517C559.772 238.798 561.79 239.267 563.76 239.924C565.918 240.627 567.982 241.519 569.952 242.691ZM568.029 228.526C577.364 228.526 585.761 232.325 591.813 238.517H564.041C560.523 237.344 556.864 236.781 553.252 236.781C551.234 236.781 549.264 236.969 547.247 237.297L561.273 229.183C563.525 228.761 565.73 228.526 568.029 228.526ZM559.303 217.269C564.557 214.22 570.327 212.813 575.957 212.813C579.006 212.813 582.008 213.235 584.87 214.033L560.804 227.916L555.363 231.059L547.528 235.562L544.479 237.344L545.652 235.28L553.768 221.256C555.503 219.708 557.333 218.395 559.303 217.269ZM543.306 234.202V217.973C544.01 215.862 544.948 213.845 546.074 211.828C550.718 203.761 558.271 198.367 566.621 196.209L552.736 220.271L549.593 225.712L545.089 233.498L543.306 236.547V234.202V234.202ZM541.195 236.734C540.961 236.5 540.726 236.265 540.445 236.078C537.114 232.372 534.628 227.916 533.22 222.945C532.986 222.1 532.798 221.256 532.611 220.412C532.188 218.301 531.954 216.096 531.954 213.845C531.954 204.511 535.754 196.115 541.946 190.065V217.832V224.117V233.123V234.295V237.532C541.758 237.344 541.524 237.11 541.336 236.922L541.195 236.734ZM500.335 213.986C503.244 213.188 506.246 212.766 509.249 212.766C514.925 212.766 520.648 214.22 525.902 217.222C527.872 218.348 529.655 219.661 531.297 221.068C532.188 225.29 533.877 229.23 536.129 232.701C536.879 233.873 537.724 234.999 538.615 236.031L537.583 235.421L529.796 230.918L524.354 227.776L500.335 213.986ZM493.392 238.517C499.444 232.325 507.888 228.526 517.177 228.526C519.475 228.526 521.727 228.761 523.885 229.183L537.912 237.297L539.976 238.47H536.41H527.403H521.164H493.392V238.517ZM499.632 263.189C501.79 254.84 507.184 247.288 515.253 242.644C517.224 241.472 519.288 240.581 521.399 239.877H537.583C532.329 241.8 527.544 244.99 523.697 249.305L499.632 263.189ZM517.411 281.481C516.614 278.573 516.192 275.571 516.192 272.569C516.192 266.894 517.646 261.172 520.648 255.918C521.774 253.948 523.087 252.119 524.589 250.477C525.996 248.93 527.497 247.476 529.092 246.256C531.485 244.38 534.112 242.879 536.879 241.753C537.958 241.331 539.084 240.909 540.21 240.581C539.647 241.143 539.131 241.753 538.615 242.363C535.003 246.631 532.47 251.791 531.25 257.466L517.411 281.481ZM541.899 288.423C535.754 282.372 531.907 273.93 531.907 264.643C531.907 262.344 532.141 260.093 532.564 257.935C532.986 255.871 533.596 253.901 534.346 252.025C535.519 249.211 537.02 246.584 538.897 244.192C539.553 243.348 540.257 242.551 540.961 241.753L541.852 242.973V288.423H541.899Z" fill="#54362C"/>
<path d="M674.143 314.221C672.079 313.048 669.921 312.063 667.763 311.359H697.318C691.078 304.371 681.977 299.962 671.891 299.962C669.499 299.962 667.153 300.196 664.949 300.665L690.515 285.89C681.602 282.982 671.563 283.686 662.791 288.751C660.727 289.924 658.85 291.331 657.114 292.879L671.891 267.316C662.697 269.239 654.393 274.915 649.327 283.639C648.154 285.703 647.169 287.86 646.465 290.018C645.762 287.813 644.823 285.703 643.604 283.639C638.537 274.868 630.187 269.239 621.039 267.316L635.816 292.879C634.081 291.331 632.204 289.971 630.14 288.751C621.368 283.686 611.329 282.982 602.415 285.89L627.982 300.665C625.73 300.196 623.385 299.962 621.039 299.962C610.953 299.962 601.853 304.371 595.613 311.359H625.168C622.963 312.063 620.852 313.001 618.788 314.221C610.015 319.286 604.386 327.635 602.462 336.782L628.029 322.007C626.481 323.742 625.121 325.618 623.901 327.682C618.834 336.453 618.131 346.491 621.039 355.403L646.465 311.359L671.891 355.403C674.8 346.491 674.096 336.453 669.03 327.682C667.857 325.618 666.45 323.742 664.902 322.007L690.468 336.782C688.545 327.588 682.869 319.286 674.143 314.221Z" fill="#88BE55"/>
<path d="M697.785 310.89C691.405 303.761 682.117 299.258 671.843 299.258C670.717 299.258 669.591 299.305 668.466 299.446L690.795 286.547C691.03 286.406 691.171 286.125 691.171 285.843C691.124 285.562 690.936 285.327 690.702 285.234C687.183 284.061 683.524 283.498 679.771 283.498C673.86 283.498 667.903 284.999 662.414 288.189C661.429 288.751 660.491 289.361 659.552 290.018L672.453 267.691C672.594 267.457 672.594 267.175 672.406 266.941C672.265 266.706 671.984 266.613 671.702 266.659C662.32 268.629 653.829 274.399 648.669 283.311C647.778 284.811 647.027 286.359 646.417 287.954C645.807 286.359 645.057 284.811 644.165 283.311C639.005 274.399 630.467 268.583 621.132 266.659C620.85 266.613 620.569 266.706 620.428 266.941C620.287 267.175 620.24 267.457 620.381 267.691L633.282 290.018C632.391 289.361 631.405 288.751 630.467 288.189C624.979 285.046 618.974 283.498 613.11 283.498C609.404 283.498 605.698 284.108 602.18 285.234C601.898 285.327 601.71 285.562 601.71 285.843C601.664 286.125 601.804 286.406 602.039 286.547L624.369 299.446C623.243 299.352 622.117 299.258 620.991 299.258C610.671 299.258 601.429 303.761 595.049 310.89C594.861 311.078 594.814 311.406 594.908 311.641C595.002 311.875 595.284 312.063 595.565 312.063H621.366C620.334 312.532 619.349 313.048 618.364 313.611C609.451 318.77 603.634 327.307 601.71 336.641C601.664 336.922 601.757 337.204 601.992 337.344C602.226 337.485 602.508 337.532 602.742 337.391L625.072 324.493C624.416 325.384 623.806 326.369 623.243 327.307C620.1 332.795 618.599 338.798 618.599 344.661C618.599 348.367 619.208 352.072 620.334 355.59C620.428 355.872 620.663 356.059 620.944 356.059C621.226 356.106 621.507 355.965 621.648 355.731L643.039 318.63V591.801H648.669V316.613L671.28 355.731C671.421 355.965 671.702 356.106 671.984 356.059C672.265 356.012 672.5 355.825 672.594 355.59C673.72 352.072 674.33 348.414 674.33 344.661C674.33 338.752 672.828 332.748 669.685 327.307C669.122 326.322 668.512 325.384 667.856 324.493L690.186 337.391C690.42 337.532 690.748 337.532 690.936 337.344C691.171 337.204 691.265 336.922 691.218 336.641C689.247 327.26 683.477 318.77 674.564 313.611C673.579 313.048 672.594 312.532 671.562 312.063H697.363C697.645 312.063 697.879 311.922 698.02 311.641C698.02 311.406 697.973 311.078 697.785 310.89ZM663.118 289.408C668.372 286.359 674.142 284.952 679.771 284.952C682.82 284.952 685.823 285.374 688.684 286.172L664.619 300.055L659.177 303.198L651.437 307.654L648.34 309.436L649.513 307.372L657.629 293.348C659.271 291.894 661.1 290.534 663.118 289.408ZM646.417 308.451C646.323 308.123 646.229 307.795 646.136 307.513C645.667 305.262 645.432 302.963 645.432 300.665C645.432 297.945 645.76 295.224 646.464 292.551C646.652 291.706 646.933 290.862 647.215 290.018C647.918 287.954 648.81 285.937 649.935 284.014C654.58 275.947 662.086 270.553 670.483 268.395L656.597 292.457L653.454 297.898L648.95 305.684L648.387 306.669L646.745 309.483C646.652 309.202 646.605 308.92 646.511 308.639L646.417 308.451ZM622.398 268.395C630.749 270.553 638.255 275.947 642.946 284.014C644.072 285.984 644.963 288.001 645.667 290.018C644.541 293.489 643.978 297.1 643.978 300.665C643.978 301.275 643.978 301.885 644.025 302.541C644.072 303.948 644.259 305.309 644.494 306.669L643.884 305.637L639.38 297.851L636.237 292.41L622.398 268.395ZM604.15 286.125C607.058 285.327 610.061 284.905 613.063 284.905C618.739 284.905 624.463 286.359 629.717 289.361C631.687 290.534 633.516 291.847 635.158 293.301L643.274 307.326L644.494 309.389L641.398 307.607L633.61 303.104L628.169 299.962L604.15 286.125ZM597.207 310.656C603.259 304.511 611.703 300.665 620.991 300.665C623.29 300.665 625.495 300.9 627.652 301.322L641.679 309.436C639.709 309.108 637.692 308.92 635.674 308.92C632.062 308.92 628.45 309.483 624.932 310.609H597.207V310.656ZM603.446 335.374C605.604 327.025 610.999 319.521 619.068 314.83C621.038 313.705 623.102 312.766 625.213 312.063C627.183 311.406 629.247 310.937 631.265 310.656C632.766 310.468 634.267 310.374 635.768 310.374C637.269 310.374 638.771 310.468 640.272 310.656C641.444 310.796 642.57 311.031 643.743 311.312C643.696 311.312 643.649 311.359 643.602 311.359H642.993V311.5C642.43 311.688 641.914 311.828 641.398 312.063C636.143 313.986 631.359 317.176 627.465 321.491L603.446 335.374ZM621.179 353.62C620.381 350.712 619.959 347.71 619.959 344.708C619.959 339.033 621.413 333.311 624.416 328.057C625.588 326.087 626.902 324.258 628.356 322.616C629.717 321.022 631.265 319.615 632.907 318.395C635.299 316.519 637.926 315.018 640.694 313.892C641.444 313.564 642.242 313.282 642.993 313.048V315.909L621.179 353.62ZM668.372 328.01C671.421 333.264 672.875 339.033 672.875 344.661C672.875 347.663 672.453 350.712 671.656 353.573L648.669 313.751V312.579C649.842 312.907 651.014 313.329 652.14 313.798C654.908 314.924 657.535 316.425 659.928 318.301C661.523 319.568 663.071 320.975 664.431 322.523C665.885 324.211 667.199 326.04 668.372 328.01ZM673.767 314.83C681.835 319.474 687.23 327.025 689.388 335.374L665.322 321.491C661.476 317.176 656.644 313.986 651.437 312.063H667.621C669.732 312.766 671.796 313.658 673.767 314.83ZM667.856 310.656H661.57H652.563H648.997L651.061 309.483L665.088 301.369C667.246 300.9 669.498 300.712 671.796 300.712C681.132 300.712 689.529 304.511 695.58 310.703H667.856V310.656Z" fill="#54362C"/>
<path d="M79.2799 283.573C77.2158 282.4 75.0579 281.415 72.9 280.712H102.454C96.215 273.723 87.1141 269.314 77.0281 269.314C74.6356 269.314 72.2901 269.548 70.0853 270.018L95.6521 255.243C86.7389 252.335 76.6998 253.038 67.9273 258.104C65.8632 259.276 63.9867 260.684 62.251 262.231L77.0281 236.668C67.8334 238.592 59.5302 244.267 54.4637 252.991C53.2909 255.055 52.3057 257.213 51.6021 259.37C50.8984 257.166 49.9602 255.055 48.7405 252.991C43.6741 244.22 35.3238 238.592 26.176 236.668L40.9532 262.231C39.2174 260.684 37.3409 259.323 35.2768 258.104C26.5044 253.038 16.4654 252.335 7.55217 255.243L33.119 270.018C30.8672 269.548 28.5216 269.314 26.176 269.314C16.09 269.314 6.98923 273.723 0.75 280.712H30.3043C28.0994 281.415 25.9884 282.353 23.9243 283.573C15.1518 288.639 9.52239 296.988 7.59902 306.134L33.1658 291.359C31.6177 293.094 30.2574 294.971 29.0377 297.034C23.9712 305.806 23.2675 315.843 26.176 324.755L51.6021 280.712L77.0281 324.755C79.9366 315.843 79.233 305.806 74.1666 297.034C72.9938 294.971 71.5864 293.094 70.0383 291.359L95.6051 306.134C93.7286 296.988 88.0523 288.639 79.2799 283.573Z" fill="#88BE55"/>
<path d="M102.971 280.243C96.5908 273.113 87.3023 268.61 77.0287 268.61C75.9028 268.61 74.7769 268.657 73.6511 268.798L95.981 255.899C96.2156 255.758 96.3563 255.477 96.3563 255.196C96.3563 254.914 96.1218 254.68 95.8872 254.586C92.3688 253.413 88.7097 252.85 84.9568 252.85C79.0459 252.85 73.0413 254.351 67.5995 257.541C66.6144 258.104 65.6761 258.713 64.7379 259.37L77.6385 237.044C77.7793 236.809 77.7793 236.481 77.5917 236.293C77.4041 236.059 77.1695 235.965 76.888 236.012C67.5057 237.982 59.0147 243.751 53.8544 252.663C52.9631 254.164 52.2125 255.712 51.6026 257.306C50.9928 255.712 50.2422 254.164 49.3509 252.663C44.1906 243.751 35.6997 237.935 26.3174 236.012C26.0359 235.965 25.7544 236.059 25.6137 236.293C25.426 236.528 25.426 236.809 25.5667 237.044L38.4674 259.37C37.5761 258.713 36.591 258.104 35.6059 257.541C30.1172 254.351 24.1595 252.85 18.2486 252.85C14.5426 252.85 10.8366 253.46 7.31819 254.586C7.03672 254.68 6.84908 254.914 6.84908 255.196C6.84908 255.477 6.94288 255.758 7.17744 255.899L29.5074 268.798C28.3815 268.704 27.2555 268.61 26.1297 268.61C15.8091 268.61 6.56763 273.113 0.187663 280.243C1.69726e-05 280.43 -0.0469175 280.759 0.0469056 280.993C0.140729 281.228 0.422152 281.415 0.703621 281.415H26.505C25.4729 281.884 24.4878 282.4 23.5027 282.963C14.5895 288.123 8.77245 296.659 6.84908 305.993C6.80217 306.275 6.89592 306.556 7.13048 306.697C7.36504 306.837 7.64655 306.884 7.88111 306.744L30.211 293.845C29.5543 294.736 28.9444 295.721 28.3814 296.706C25.1914 302.194 23.6903 308.151 23.6903 314.061C23.6903 317.766 24.3001 321.472 25.426 324.989C25.5198 325.271 25.7544 325.458 26.0359 325.458C26.3173 325.505 26.5519 325.365 26.6927 325.13L48.0843 288.029V534.558H53.7137V285.965L76.325 325.083C76.4657 325.318 76.7472 325.458 77.0287 325.412C77.3101 325.365 77.5447 325.177 77.6385 324.943C78.7644 321.425 79.3742 317.766 79.3742 314.014C79.3742 308.104 77.8731 302.1 74.7301 296.659C74.1671 295.674 73.5573 294.736 72.9005 293.798L95.2304 306.697C95.4649 306.837 95.7464 306.837 95.981 306.65C96.2156 306.509 96.3093 306.228 96.2624 305.946C94.2921 296.612 88.522 288.076 79.6088 282.916C78.6237 282.353 77.6386 281.837 76.6065 281.368H102.408C102.689 281.368 102.924 281.228 103.065 280.946C103.205 280.759 103.158 280.477 102.971 280.243ZM68.2562 258.76C73.5103 255.712 79.2335 254.304 84.9098 254.304C87.9122 254.304 90.9145 254.727 93.823 255.524L69.7574 269.408L64.3157 272.55L56.5284 277.053L53.4323 278.835L54.605 276.772L62.7207 262.747C64.4564 261.246 66.286 259.933 68.2562 258.76ZM51.6026 277.85C51.5088 277.522 51.4151 277.194 51.3212 276.865C50.8521 274.614 50.6176 272.316 50.6176 270.017C50.6176 267.297 50.9459 264.577 51.6026 261.903C51.7903 261.059 52.0718 260.214 52.3533 259.37C53.0569 257.306 53.9483 255.289 55.0742 253.366C59.7184 245.299 67.2242 239.905 75.6213 237.747L61.7356 261.809L58.5925 267.25L54.089 274.989L53.5261 275.974L51.8842 278.789C51.8372 278.507 51.7434 278.226 51.6496 277.944L51.6026 277.85ZM27.584 237.747C35.9342 239.905 43.4401 245.299 48.1312 253.366C49.2571 255.336 50.1485 257.306 50.8521 259.37C49.7262 262.841 49.1633 266.453 49.1633 270.017C49.1633 270.627 49.1633 271.237 49.2102 271.894C49.304 273.301 49.4448 274.661 49.6793 276.021L49.0695 274.989L44.5659 267.203L41.4229 261.762L27.584 237.747ZM9.33541 255.524C12.2439 254.727 15.2463 254.304 18.2486 254.304C23.9249 254.304 29.6481 255.758 34.9022 258.76C36.8725 259.886 38.702 261.246 40.3439 262.7L48.4596 276.772L49.6324 278.835L46.5362 277.053L38.7958 272.597L33.3541 269.455L9.33541 255.524ZM2.39248 280.008C8.44407 273.864 16.8881 270.017 26.1766 270.017C28.4753 270.017 30.7271 270.252 32.885 270.674L46.9115 278.789C44.9412 278.46 42.924 278.273 40.9068 278.273C37.2946 278.273 33.6825 278.835 30.1641 280.008H2.39248ZM8.63174 304.727C10.7897 296.378 16.1844 288.873 24.2532 284.183C26.2235 283.057 28.2876 282.119 30.3986 281.415C32.3689 280.759 34.3862 280.29 36.4033 280.008C37.9045 279.82 39.4056 279.68 40.9068 279.68C42.408 279.68 43.9092 279.774 45.4103 280.008C46.5831 280.149 47.709 280.383 48.8817 280.665C48.8348 280.665 48.788 280.712 48.7411 280.712L48.4596 280.805L48.1781 280.899C47.662 281.087 47.0992 281.228 46.5831 281.462C41.329 283.385 36.5441 286.575 32.6504 290.89L8.63174 304.727ZM26.3642 323.019C25.5667 320.111 25.1446 317.109 25.1446 314.108C25.1446 308.432 26.5988 302.71 29.6012 297.457C30.7271 295.487 32.0874 293.657 33.5417 292.016C34.949 290.468 36.4503 289.061 38.0453 287.794C40.4377 285.918 43.0647 284.417 45.8325 283.291C46.5831 282.963 47.3806 282.682 48.1312 282.447V285.308L26.3642 323.019ZM73.5573 297.41C76.6065 302.663 78.0608 308.385 78.0608 314.061C78.0608 317.063 77.6386 320.111 76.8411 322.973L53.8544 283.151V281.978C55.0272 282.306 56.1999 282.729 57.3258 283.198C60.0936 284.323 62.7207 285.824 65.1601 287.7C66.7551 288.967 68.3031 290.374 69.6636 291.922C71.0709 293.61 72.3845 295.393 73.5573 297.41ZM78.9521 284.183C87.0209 288.826 92.4157 296.378 94.5737 304.727L70.508 290.843C66.6613 286.528 61.8294 283.338 56.5753 281.415H72.7598C74.9177 282.119 76.9818 283.057 78.9521 284.183ZM73.0412 280.008H66.802H57.7949H54.2297L56.2938 278.789L70.3204 270.674C72.4783 270.252 74.73 270.017 77.0287 270.017C86.3641 270.017 94.7613 273.817 100.813 280.008H73.0412Z" fill="#54362C"/>
<path d="M52.5865 374.051L96.6364 399.474C94.7131 390.28 89.0367 381.978 80.3112 376.913C78.2471 375.74 76.0892 374.755 73.9313 374.051H103.486C97.2463 367.063 88.1455 362.654 78.0595 362.654C75.667 362.654 73.3214 362.888 71.1166 363.357L96.6834 348.582C87.7702 345.674 77.7311 346.378 68.9586 351.444C66.8945 352.616 65.0181 354.023 63.2824 355.571L78.0595 330.008C68.8649 331.931 60.5615 337.607 55.495 346.331C54.3223 348.395 53.3371 350.552 52.6334 352.71V323.16C45.6436 329.398 41.234 338.498 41.234 348.582C41.234 350.974 41.4685 353.32 41.9377 355.524C40.2019 353.976 38.3254 352.616 36.2613 351.397C27.4889 346.331 17.4497 345.627 8.53655 348.535L34.1033 363.31C31.8516 362.841 29.5061 362.607 27.1605 362.607C17.0745 362.607 7.97361 367.016 1.73438 374.005H31.2886C29.0838 374.708 26.9728 375.646 24.9087 376.866C16.1363 381.931 10.5069 390.28 8.5835 399.427L34.1503 384.652C32.6022 386.387 31.2418 388.263 30.0221 390.327C24.9556 399.098 24.252 409.136 27.1605 418.048L41.9377 392.485C41.4685 394.736 41.234 397.082 41.234 399.427C41.234 409.511 45.6436 418.611 52.6334 424.849L52.5865 374.051Z" fill="#88BE55"/>
<path d="M104.002 373.582C97.6221 366.453 88.3337 361.95 78.06 361.95C76.9342 361.95 75.8082 361.997 74.6823 362.138L97.0123 349.239C97.2468 349.098 97.3875 348.817 97.3406 348.535C97.2937 348.254 97.1061 348.019 96.8715 347.926C93.3531 346.8 89.694 346.19 85.9411 346.19C80.0302 346.19 74.0256 347.691 68.5838 350.834C67.5987 351.397 66.6604 352.006 65.7691 352.663L78.6698 330.336C78.8105 330.102 78.8106 329.774 78.623 329.586C78.4353 329.351 78.2007 329.258 77.9193 329.305C68.5839 331.275 60.0459 337.044 54.8857 345.956C54.3227 346.941 53.8067 347.926 53.3376 348.958V323.16C53.3376 322.879 53.15 322.644 52.9154 322.503C52.6808 322.41 52.3524 322.457 52.1648 322.644C45.0342 329.023 40.5308 338.263 40.5308 348.582C40.5308 350.318 40.6714 352.053 40.906 353.742C39.5925 352.663 38.1383 351.725 36.6371 350.834C31.1485 347.691 25.1907 346.19 19.2799 346.19C15.5738 346.19 11.8678 346.8 8.34944 347.926C8.06797 348.019 7.88033 348.254 7.88033 348.535C7.83342 348.817 7.97413 349.098 8.20869 349.239L30.5386 362.138C29.4127 362.044 28.2869 361.95 27.161 361.95C16.8405 361.95 7.59888 366.453 1.21891 373.582C1.03127 373.77 0.984333 374.098 1.07816 374.333C1.17198 374.567 1.4534 374.755 1.73487 374.755H27.5362C26.5042 375.224 25.5191 375.74 24.5339 376.303C15.6207 381.462 9.8037 389.999 7.88033 399.333C7.83342 399.614 7.92729 399.896 8.16184 400.036C8.3964 400.177 8.6778 400.224 8.91236 400.083L31.2423 387.185C30.5855 388.076 29.9756 389.061 29.4127 390.046C26.2227 395.534 24.7685 401.49 24.7685 407.4C24.7685 411.106 25.3783 414.811 26.5042 418.329C26.598 418.611 26.8326 418.798 27.1141 418.798C27.3955 418.798 27.677 418.704 27.7708 418.47L40.6714 396.143C40.5776 397.269 40.5308 398.395 40.5308 399.521C40.5308 409.839 45.0342 419.08 52.1648 425.459C52.3524 425.646 52.6808 425.693 52.9154 425.599C53.15 425.506 53.3376 425.224 53.3376 424.943V381.181C67.8801 408.526 75.5267 439.014 75.5267 470.065V614.999H81.1561V470.065C81.1561 437.935 73.1811 406.322 58.0287 378.038L96.3086 400.13C96.5431 400.271 96.8247 400.271 97.0592 400.083C97.2938 399.896 97.3875 399.614 97.3406 399.38C95.3703 389.999 89.6002 381.509 80.687 376.35C79.7019 375.787 78.7168 375.271 77.6847 374.802H103.486C103.768 374.802 104.002 374.661 104.143 374.38C104.19 374.098 104.143 373.77 104.002 373.582ZM69.2875 352.1C74.5416 349.051 80.3117 347.644 85.9411 347.644C88.9903 347.644 91.9927 348.066 94.8543 348.864L70.7887 362.747L65.3939 365.89L57.6066 370.393L54.5573 372.175L55.7301 370.111L63.8458 356.087C65.4877 354.539 67.3172 353.226 69.2875 352.1ZM56.0585 346.706C60.7027 338.639 68.2086 333.245 76.6057 331.087L62.7199 355.149L59.5768 360.59L55.0734 368.376L53.2907 371.425V369.033V352.804C53.9944 350.74 54.9326 348.676 56.0585 346.706ZM51.2265 371.612C50.992 371.378 50.7106 371.096 50.476 370.909C47.1453 367.203 44.612 362.701 43.2516 357.776C43.017 356.931 42.8295 356.087 42.6418 355.243C42.2196 353.132 41.985 350.928 41.985 348.676C41.985 339.342 45.7849 330.946 51.9772 324.896V352.663V358.901V367.954V369.08V372.316C51.6957 372.081 51.4142 371.8 51.2265 371.612ZM10.3197 348.817C13.2282 348.019 16.2306 347.597 19.2329 347.597C24.9092 347.597 30.6324 349.051 35.8865 352.053C37.8568 353.179 39.6395 354.445 41.2345 355.899C42.1258 360.121 43.8145 364.061 46.0663 367.532C46.8169 368.704 47.6613 369.83 48.5526 370.862L47.5206 370.252L39.7332 365.749L34.2915 362.607L10.3197 348.817ZM3.37678 373.348C9.42836 367.203 17.8725 363.357 27.161 363.357C29.4597 363.357 31.7113 363.592 33.8693 364.014L47.8959 372.128L49.96 373.301H46.3947H37.3876H31.1015H3.37678V373.348ZM9.61603 398.066C11.774 389.717 17.1688 382.166 25.2376 377.522C27.2079 376.35 29.272 375.459 31.3831 374.755H47.6144C42.3603 376.678 37.5754 379.868 33.7286 384.183L9.61603 398.066ZM27.3956 416.312C26.5981 413.404 26.1758 410.402 26.1758 407.4C26.1758 401.725 27.6301 396.003 30.6794 390.749C31.8053 388.779 33.1187 386.95 34.6199 385.308C36.0273 383.761 37.5285 382.307 39.1235 381.087C41.5159 379.211 44.1429 377.71 46.9107 376.584C47.9897 376.162 49.1156 375.74 50.2415 375.412C49.6785 375.974 49.1624 376.584 48.6464 377.194C45.0811 381.462 42.501 386.622 41.2813 392.297L27.3956 416.312ZM51.8834 423.254C45.738 417.203 41.8912 408.761 41.8912 399.474C41.8912 397.175 42.1257 394.924 42.5479 392.766C42.9701 390.702 43.58 388.732 44.3306 386.856C45.4564 384.042 47.0046 381.415 48.8341 379.07C49.444 378.273 50.1476 377.475 50.8044 376.725C50.992 377.006 51.1328 377.288 51.2735 377.569C51.4611 377.898 51.6488 378.179 51.7896 378.507V423.254H51.8834ZM79.9365 377.522C88.0053 382.166 93.4 389.717 95.5579 398.066L56.6683 375.646C56.5276 375.365 56.3399 375.083 56.1992 374.802C56.0585 374.52 55.8708 374.239 55.7301 373.958C56.7152 373.723 57.7472 373.535 58.7324 373.395C60.2336 373.207 61.7348 373.113 63.2359 373.113C64.7371 373.113 66.2383 373.207 67.7395 373.395C69.7567 373.676 71.8208 374.145 73.791 374.802C75.9021 375.459 77.9662 376.35 79.9365 377.522ZM74.0726 373.348C70.5542 372.175 66.8951 371.659 63.2829 371.659C61.2657 371.659 59.2485 371.847 57.2782 372.175L71.3047 364.061C73.4626 363.592 75.7144 363.404 78.0131 363.404C87.3485 363.404 95.7456 367.203 101.797 373.395H74.0726V373.348Z" fill="#54362C"/>
</svg>
