<svg width="145" height="525" viewBox="0 0 145 525" fill="none" xmlns="http://www.w3.org/2000/svg">
<path d="M110.176 65.899C107.317 64.2746 104.328 62.9102 101.338 61.9356H142.278C133.635 52.2546 121.028 46.1471 107.057 46.1471C103.743 46.1471 100.494 46.472 97.4395 47.1217L132.855 26.6552C120.508 22.6268 106.602 23.6014 94.4502 30.6185C91.5909 32.2428 88.9916 34.192 86.5872 36.3362L107.057 0.925781C94.3202 3.58968 82.8183 11.4514 75.8001 23.5364C74.1755 26.3953 72.8108 29.384 71.8361 32.3728C70.8613 29.3191 69.5618 26.3953 67.8722 23.5364C60.854 11.3865 49.287 3.58968 36.6153 0.925781L57.0849 36.3362C54.6806 34.192 52.0812 32.3078 49.2219 30.6185C37.0701 23.6014 23.1638 22.6268 10.8171 26.6552L46.2328 47.1217C43.1136 46.472 39.8644 46.1471 36.6153 46.1471C22.6439 46.1471 10.0373 52.2546 1.39453 61.9356H42.3338C39.2796 62.9102 36.3553 64.2097 33.4961 65.899C21.3443 72.9161 13.5463 84.4813 10.882 97.1511L46.2977 76.6845C44.1533 79.0885 42.2689 81.6874 40.5793 84.5463C33.5612 96.6962 32.5864 110.601 36.6153 122.945L71.8361 61.9356L107.057 122.945C111.086 110.601 110.111 96.6962 103.093 84.5463C101.468 81.6874 99.5189 79.0885 97.3744 76.6845L132.79 97.1511C130.191 84.4813 122.328 72.9161 110.176 65.899Z" fill="#88BE55"/>
<path d="M142.995 61.286C134.157 51.41 121.291 45.1726 107.059 45.1726C105.5 45.1726 103.94 45.2376 102.381 45.4325L133.313 27.5649C133.638 27.3699 133.833 26.9801 133.833 26.5903C133.833 26.2004 133.508 25.8756 133.183 25.7456C128.309 24.1213 123.24 23.3416 118.042 23.3416C109.854 23.3416 101.536 25.4208 93.998 29.8389C92.6333 30.6186 91.3336 31.4633 90.0339 32.3729L107.904 1.44565C108.099 1.12079 108.099 0.665974 107.839 0.406081C107.579 0.0812155 107.255 -0.0487298 106.865 0.0162434C93.868 2.74512 82.106 10.7368 74.9579 23.0817C73.7232 25.1609 72.6835 27.305 71.8387 29.5141C70.9939 27.305 69.9541 25.1609 68.7195 23.0817C61.5713 10.7368 49.8095 2.68014 36.8129 0.0162434C36.423 -0.0487298 36.0331 0.0812155 35.8381 0.406081C35.5782 0.730947 35.5781 1.12079 35.7731 1.44565L53.6434 32.3729C52.4088 31.4633 51.0442 30.6186 49.6796 29.8389C42.0765 25.4208 33.8237 23.3416 25.6358 23.3416C20.5022 23.3416 15.3685 24.1863 10.4948 25.7456C10.1049 25.8756 9.84493 26.2004 9.84493 26.5903C9.84493 26.9801 9.97487 27.3699 10.2998 27.5649L41.2318 45.4325C39.6722 45.3025 38.1125 45.1726 36.5529 45.1726C22.2566 45.1726 9.45507 51.41 0.617377 61.286C0.357445 61.5458 0.292431 62.0006 0.422397 62.3255C0.552363 62.6504 0.942197 62.9103 1.3321 62.9103H37.0728C35.6431 63.56 34.2786 64.2747 32.9139 65.0544C20.5671 72.2014 12.5092 84.0266 9.84493 96.9562C9.77995 97.3461 9.90982 97.7359 10.2347 97.9308C10.5597 98.1257 10.9496 98.1907 11.2745 97.9958L42.2065 80.1282C41.2968 81.3627 40.4519 82.7271 39.6721 84.0915C35.2532 91.6934 33.1738 99.945 33.1738 108.132C33.1738 113.264 34.0185 118.397 35.5781 123.27C35.7081 123.66 36.033 123.92 36.4229 123.92C36.8128 123.985 37.1378 123.79 37.3328 123.465L66.965 72.0715V413.57H74.7629V69.2127L106.085 123.4C106.28 123.725 106.67 123.92 107.059 123.855C107.449 123.79 107.774 123.53 107.904 123.205C109.464 118.332 110.309 113.264 110.309 108.067C110.309 99.88 108.229 91.5634 103.875 84.0266C103.096 82.6621 102.251 81.3627 101.341 80.0632L132.273 97.9308C132.598 98.1257 132.988 98.1257 133.313 97.8658C133.638 97.6709 133.767 97.2811 133.702 96.8912C130.973 83.9616 122.98 72.1365 110.634 64.9894C109.269 64.2097 107.904 63.495 106.475 62.8453H142.215C142.605 62.8453 142.93 62.6504 143.125 62.2605C143.32 62.0007 143.255 61.6108 142.995 61.286ZM94.9076 31.5282C102.186 27.305 110.114 25.3558 117.977 25.3558C122.136 25.3558 126.294 25.9405 130.323 27.0451L96.9871 46.2771L89.4491 50.6303L78.6619 56.8678L74.3731 59.3368L75.9977 56.4779L87.2396 37.051C89.644 34.9718 92.1784 33.1526 94.9076 31.5282ZM71.8387 57.9723C71.7087 57.5175 71.5788 57.0627 71.4489 56.6079C70.799 53.4892 70.4741 50.3055 70.4741 47.1218C70.4741 43.3534 70.9289 39.5849 71.8387 35.8814C72.0986 34.7119 72.4886 33.5424 72.8785 32.3729C73.8532 29.5141 75.0879 26.7202 76.6475 24.0563C83.0808 12.8809 93.478 5.40901 105.11 2.42025L85.8751 35.7515L81.5212 43.2884L75.2828 54.0089L74.503 55.3734L72.2286 59.2718C72.1637 58.8819 72.0337 58.4921 71.9037 58.1023L71.8387 57.9723ZM38.5674 2.42025C50.1344 5.40901 60.5317 12.8809 67.03 24.0563C68.5896 26.7852 69.8243 29.5141 70.799 32.3729C69.2395 37.1809 68.4596 42.1838 68.4596 47.1218C68.4596 47.9664 68.4597 48.8111 68.5246 49.7207C68.6546 51.6699 68.8496 53.5541 69.1745 55.4384L68.3297 54.0089L62.0912 43.2234L57.7374 35.6865L38.5674 2.42025ZM13.2891 27.0451C17.318 25.9405 21.4769 25.3558 25.6358 25.3558C33.4988 25.3558 41.4267 27.37 48.7048 31.5282C51.4341 33.0876 53.9683 34.9718 56.2428 36.986L67.4848 56.4779L69.1094 59.3368L64.8205 56.8678L54.0983 50.6953L46.5603 46.3421L13.2891 27.0451ZM3.67155 60.9611C12.0544 52.4496 23.7513 47.1218 36.6179 47.1218C39.8021 47.1218 42.9213 47.4467 45.9105 48.0314L65.3404 59.2718C62.6111 58.817 59.8168 58.5571 57.0225 58.5571C52.0188 58.5571 47.0152 59.3368 42.1415 60.9611H3.67155ZM12.3143 95.2019C15.3035 83.6367 22.7765 73.241 33.9535 66.7437C36.6828 65.1843 39.5421 63.8849 42.4664 62.9103C45.1957 62.0007 47.99 61.3509 50.7842 60.9611C52.8637 60.7012 54.9431 60.5063 57.0225 60.5063C59.102 60.5063 61.1815 60.6362 63.2609 60.9611C64.8855 61.156 66.4451 61.4809 68.0696 61.8707C68.0046 61.8707 67.9398 61.9357 67.8748 61.9357L67.4848 62.0656L67.0949 62.1956C66.3801 62.4555 65.6003 62.6504 64.8855 62.9752C57.6074 65.6391 50.9792 70.0573 45.5856 76.0349L12.3143 95.2019ZM36.8778 120.541C35.7731 116.513 35.1883 112.355 35.1883 108.197C35.1883 100.335 37.2028 92.4081 41.3617 85.1311C42.9213 82.4022 44.8057 79.8683 46.8202 77.5942C48.7697 75.4501 50.8492 73.5009 53.0586 71.7466C56.3728 69.1477 60.0117 67.0686 63.8457 65.5092C64.8855 65.0544 65.9903 64.6646 67.03 64.3397V68.303L36.8778 120.541ZM102.251 85.0661C106.475 92.3431 108.489 100.27 108.489 108.132C108.489 112.29 107.904 116.513 106.8 120.477L74.9579 65.3143V63.69C76.5825 64.1448 78.207 64.7295 79.7666 65.3793C83.6006 66.9386 87.2397 69.0178 90.6189 71.6167C92.8283 73.371 94.9726 75.3202 96.8571 77.4643C98.8066 79.8033 100.626 82.2723 102.251 85.0661ZM109.724 66.7437C120.901 73.176 128.374 83.6367 131.363 95.2019L98.0269 75.9699C92.6983 69.9924 86.005 65.5742 78.7269 62.9103H101.146C104.135 63.8849 106.995 65.1843 109.724 66.7437ZM101.536 60.9611H92.8933H80.4164H75.4778L78.337 59.2718L97.767 48.0314C100.756 47.4467 103.875 47.1218 107.059 47.1218C119.991 47.1218 131.623 52.3846 140.006 60.9611H101.536Z" fill="#54362C"/>
<path d="M73.2034 191.232L134.222 226.448C131.558 213.713 123.695 202.213 111.608 195.196C108.749 193.571 105.76 192.207 102.771 191.232H143.71C135.067 181.551 122.461 175.444 108.489 175.444C105.175 175.444 101.926 175.769 98.8717 176.418L134.287 155.952C121.941 151.923 108.034 152.898 95.8824 159.915C93.0232 161.539 90.4239 163.489 88.0196 165.633L108.489 130.222C95.7525 132.886 84.2505 140.748 77.2323 152.833C75.6077 155.692 74.243 158.681 73.2683 161.669V120.736C63.5858 129.378 57.4775 141.983 57.4775 155.952C57.4775 159.265 57.8025 162.514 58.4523 165.568C56.0479 163.424 53.4485 161.539 50.5893 159.85C38.4375 152.833 24.531 151.858 12.1843 155.887L47.6 176.353C44.4808 175.704 41.2318 175.379 37.9826 175.379C24.0113 175.379 11.4045 181.486 2.76172 191.167H43.701C40.6468 192.142 37.7227 193.441 34.8634 195.131C22.7116 202.148 14.9136 213.713 12.2493 226.383L47.665 205.916C45.5206 208.32 43.6361 210.919 41.9465 213.778C34.9283 225.928 33.9537 239.832 37.9826 252.177L58.4523 216.767C57.8025 219.885 57.4775 223.134 57.4775 226.383C57.4775 240.352 63.5858 252.957 73.2683 261.598L73.2034 191.232Z" fill="#88BE55"/>
<path d="M144.425 190.582C135.587 180.707 122.721 174.469 108.489 174.469C106.93 174.469 105.37 174.534 103.81 174.729L134.742 156.861C135.067 156.666 135.262 156.277 135.197 155.887C135.132 155.497 134.872 155.172 134.547 155.042C129.674 153.483 124.605 152.638 119.406 152.638C111.218 152.638 102.901 154.717 95.3626 159.07C93.9979 159.85 92.6983 160.695 91.4636 161.604L109.334 130.677C109.529 130.352 109.529 129.898 109.269 129.638C109.009 129.313 108.684 129.183 108.294 129.248C95.3627 131.977 83.5357 139.968 76.3876 152.313C75.6078 153.678 74.8929 155.042 74.2431 156.472V120.736C74.2431 120.346 73.9832 120.022 73.6583 119.827C73.3334 119.697 72.8785 119.762 72.6185 120.022C62.7411 128.858 56.5029 141.658 56.5029 155.952C56.5029 158.356 56.6977 160.76 57.0226 163.099C55.2031 161.604 53.1887 160.305 51.1092 159.07C43.5062 154.717 35.2534 152.638 27.0655 152.638C21.9319 152.638 16.7982 153.483 11.9245 155.042C11.5346 155.172 11.2746 155.497 11.2746 155.887C11.2096 156.277 11.4046 156.666 11.7295 156.861L42.6615 174.729C41.1019 174.599 39.5423 174.469 37.9827 174.469C23.6864 174.469 10.8848 180.707 2.04706 190.582C1.78713 190.842 1.72212 191.297 1.85208 191.622C1.98205 191.947 2.37188 192.207 2.76178 192.207H38.5024C37.0728 192.857 35.7082 193.571 34.3436 194.351C21.9968 201.498 13.9389 213.323 11.2746 226.253C11.2096 226.643 11.3397 227.032 11.6646 227.227C11.9895 227.422 12.3793 227.487 12.7042 227.292L43.6362 209.425C42.7264 210.659 41.8816 212.024 41.1018 213.388C36.6829 220.99 34.6685 229.242 34.6685 237.428C34.6685 242.561 35.5133 247.694 37.0729 252.567C37.2028 252.957 37.5278 253.217 37.9177 253.217C38.3076 253.217 38.6974 253.087 38.8274 252.762L56.6977 221.835C56.5677 223.394 56.5029 224.953 56.5029 226.513C56.5029 240.807 62.7411 253.606 72.6185 262.443C72.8785 262.703 73.3334 262.768 73.6583 262.638C73.9832 262.508 74.2431 262.118 74.2431 261.728V201.108C94.3878 238.987 104.98 281.22 104.98 324.232V524.999H112.778V324.232C112.778 279.726 101.731 235.934 80.7414 196.755L133.768 227.357C134.093 227.552 134.482 227.552 134.807 227.292C135.132 227.032 135.262 226.643 135.197 226.318C132.468 213.323 124.475 201.563 112.128 194.416C110.764 193.636 109.399 192.922 107.969 192.272H143.71C144.1 192.272 144.425 192.077 144.62 191.687C144.685 191.297 144.62 190.842 144.425 190.582ZM96.3373 160.825C103.615 156.601 111.608 154.652 119.406 154.652C123.63 154.652 127.789 155.237 131.753 156.342L98.4169 175.574L90.9439 179.927L80.1566 186.164L75.9327 188.633L77.5573 185.774L88.7994 166.347C91.0738 164.203 93.6081 162.384 96.3373 160.825ZM78.0122 153.353C84.4455 142.177 94.8428 134.706 106.475 131.717L87.2397 165.048L82.8859 172.585L76.6476 183.37L74.1782 187.594V184.28V161.799C75.153 158.941 76.4526 156.082 78.0122 153.353ZM71.3189 187.854C70.994 187.529 70.6042 187.139 70.2792 186.879C65.6654 181.746 62.1563 175.509 60.2718 168.687C59.9468 167.517 59.687 166.347 59.4271 165.178C58.8423 162.254 58.5173 159.2 58.5173 156.082C58.5173 143.152 63.7809 131.522 72.3587 123.14V161.604V170.246V182.786V184.345V188.828C71.9688 188.503 71.5788 188.113 71.3189 187.854ZM14.6537 156.277C18.6827 155.172 22.8416 154.587 27.0005 154.587C34.8634 154.587 42.7914 156.602 50.0695 160.76C52.7987 162.319 55.2682 164.073 57.4776 166.088C58.7123 171.935 61.0516 177.393 64.1707 182.201C65.2105 183.825 66.3802 185.385 67.6149 186.814L66.1853 185.969L55.398 179.732L47.8601 175.379L14.6537 156.277ZM5.03619 190.258C13.419 181.746 25.1161 176.418 37.9827 176.418C41.1669 176.418 44.2859 176.743 47.2752 177.328L66.7052 188.568L69.5644 190.193H64.6257H52.1489H43.4412H5.03619V190.258ZM13.679 224.498C16.6682 212.933 24.1413 202.473 35.3183 196.04C38.0476 194.416 40.9069 193.181 43.8312 192.207H66.3152C59.0371 194.871 52.4089 199.289 47.0803 205.266L13.679 224.498ZM38.3076 249.773C37.2029 245.745 36.618 241.586 36.618 237.428C36.618 229.566 38.6325 221.64 42.8564 214.363C44.416 211.634 46.2355 209.1 48.3149 206.826C50.2644 204.682 52.344 202.667 54.5534 200.978C57.8675 198.379 61.5065 196.3 65.3405 194.741C66.8351 194.156 68.3947 193.571 69.9543 193.116C69.1745 193.896 68.4596 194.741 67.7448 195.585C62.8061 201.498 59.2321 208.645 57.5425 216.507L38.3076 249.773ZM72.2287 259.389C63.716 251.008 58.3873 239.312 58.3873 226.448C58.3873 223.264 58.7122 220.145 59.297 217.156C59.8819 214.298 60.7267 211.569 61.7664 208.97C63.326 205.071 65.4705 201.433 68.0048 198.184C68.8496 197.08 69.8243 195.975 70.7341 194.936C70.994 195.326 71.189 195.715 71.3839 196.105C71.6439 196.56 71.9038 196.95 72.0988 197.405V259.389H72.2287ZM111.089 196.04C122.266 202.473 129.739 212.933 132.728 224.498L78.857 193.441C78.662 193.051 78.4021 192.662 78.2071 192.272C78.0122 191.882 77.7523 191.492 77.5573 191.102C78.922 190.777 80.3515 190.518 81.7162 190.323C83.7956 190.063 85.8751 189.933 87.9546 189.933C90.034 189.933 92.1136 190.063 94.193 190.323C96.9873 190.712 99.8465 191.362 102.576 192.272C105.5 193.181 108.359 194.416 111.089 196.04ZM102.966 190.258C98.092 188.633 93.0233 187.919 88.0196 187.919C85.2254 187.919 82.4311 188.178 79.7018 188.633L99.1316 177.393C102.121 176.743 105.24 176.483 108.424 176.483C121.356 176.483 132.988 181.746 141.371 190.323H102.966V190.258Z" fill="#54362C"/>
</svg>
