<svg width="231" height="549" viewBox="0 0 231 549" fill="none" xmlns="http://www.w3.org/2000/svg">
<path d="M106.771 267.44C104.631 257.215 98.3183 247.982 88.6137 242.348C86.318 241.044 83.918 239.948 81.518 239.166H114.388C107.449 231.393 97.327 226.489 86.1094 226.489C83.4484 226.489 80.8397 226.75 78.3875 227.272L106.823 210.839C96.9096 207.605 85.7441 208.387 75.9874 214.021C73.6917 215.325 71.6047 216.89 69.6742 218.612L86.1094 190.181C75.8831 192.32 66.6481 198.632 61.0132 208.335C59.7088 210.63 58.6131 213.03 57.8305 215.43V182.564C50.0565 189.503 45.152 199.623 45.152 210.839C45.152 213.5 45.4129 216.108 45.9346 218.56C44.0042 216.838 41.9172 215.325 39.6215 213.969C29.8648 208.335 18.6993 207.552 8.78607 210.787L37.2214 227.219C34.717 226.698 32.1083 226.437 29.4995 226.437C18.2819 226.437 8.15997 231.341 1.2207 239.114H34.0909C31.6387 239.896 29.2908 240.939 26.9951 242.296C17.2384 247.93 10.9774 257.215 8.83826 267.388L37.2736 250.955C35.5518 252.886 34.0388 254.972 32.6822 257.268C27.0473 267.023 26.2647 278.187 29.4995 288.098L45.9346 259.667C45.4129 262.171 45.152 264.78 45.152 267.388C45.152 278.604 50.0565 288.724 57.8305 295.663V239.166L106.771 267.44Z" fill="#88BE55"/>
<path d="M114.963 238.644C107.867 230.715 97.5365 225.707 86.1102 225.707C84.858 225.707 83.6058 225.759 82.3536 225.863L107.189 211.517C107.45 211.361 107.606 211.048 107.554 210.735C107.502 210.422 107.293 210.161 107.032 210.057C103.119 208.752 99.0495 208.126 94.8755 208.126C88.3015 208.126 81.6231 209.796 75.5708 213.343C74.4751 213.969 73.4317 214.647 72.3882 215.378L86.7363 190.546C86.8928 190.285 86.8928 189.92 86.6841 189.711C86.4754 189.451 86.2145 189.346 85.9015 189.398C75.4665 191.589 66.0228 198.006 60.2836 207.918C59.6575 209.013 59.0835 210.161 58.5618 211.256V182.564C58.5618 182.251 58.4053 181.991 58.0922 181.834C57.8313 181.678 57.4661 181.73 57.2574 181.991C49.3268 189.085 44.318 199.362 44.318 210.839C44.318 212.769 44.4746 214.699 44.7354 216.577C43.2745 215.378 41.6571 214.334 39.9875 213.343C33.8831 209.848 27.2047 208.126 20.6828 208.126C16.561 208.126 12.4391 208.804 8.526 210.057C8.21295 210.161 8.00425 210.422 8.00425 210.735C7.95208 211.048 8.10861 211.361 8.36949 211.517L33.2048 225.863C31.9526 225.759 30.7004 225.707 29.4482 225.707C17.9697 225.707 7.69123 230.715 0.595437 238.644C0.386738 238.853 0.334537 239.218 0.438887 239.479C0.543237 239.74 0.856299 239.948 1.16935 239.948H29.8656C28.7177 240.47 27.622 241.044 26.5264 241.67C16.6131 247.408 10.1434 256.903 8.00425 267.284C7.95208 267.597 8.05645 267.91 8.31732 268.066C8.5782 268.223 8.89124 268.275 9.15211 268.118L33.9874 253.772C33.257 254.764 32.5787 255.859 31.9526 256.955C28.4047 263.058 26.7351 269.683 26.7351 276.256C26.7351 280.378 27.4134 284.499 28.6656 288.411C28.7699 288.724 29.0308 288.933 29.3438 288.933C29.6569 288.985 29.9699 288.829 30.1264 288.568L44.4746 263.736C44.3702 264.988 44.2658 266.24 44.2658 267.492C44.2658 278.969 49.2747 289.246 57.2053 296.341C57.414 296.549 57.7792 296.602 58.04 296.497C58.3009 296.393 58.5096 296.08 58.5096 295.767V246.991C80.4231 287.368 91.9538 332.597 91.9538 378.608V548.099H98.2148V378.608C98.2148 331.397 86.371 284.968 63.7793 243.6L106.354 268.171C106.615 268.327 106.98 268.327 107.189 268.118C107.45 267.962 107.554 267.649 107.502 267.336C105.311 256.955 98.893 247.46 88.9798 241.722C87.8841 241.096 86.7885 240.522 85.6406 240H114.337C114.65 240 114.911 239.792 115.067 239.531C115.224 239.27 115.119 238.853 114.963 238.644ZM76.3534 214.752C82.197 211.361 88.6146 209.743 94.8755 209.743C98.2669 209.743 101.606 210.213 104.789 211.1L78.023 226.541L72.0229 230.036L63.3097 235.045L59.9183 237.027L61.2227 234.732L70.249 219.134C72.1273 217.516 74.1099 216.004 76.3534 214.752ZM61.6401 208.752C66.8055 199.78 75.2056 193.78 84.4928 191.381L69.0489 218.142L65.5533 224.142L60.5444 232.801L58.5618 236.244V233.584V215.534C59.3444 213.239 60.3879 210.943 61.6401 208.752ZM56.2139 236.401C55.953 236.14 55.64 235.879 55.3791 235.618C51.6747 231.497 48.9094 226.489 47.3442 221.012C47.0833 220.073 46.8746 219.134 46.6659 218.195C46.1963 215.847 45.9355 213.395 45.9355 210.891C45.9355 200.51 50.1616 191.172 57.0487 184.442V215.325V222.316V232.332V233.636V237.236C56.84 237.027 56.5791 236.766 56.3704 236.557L56.2139 236.401ZM10.7696 211.1C14.0044 210.213 17.3436 209.743 20.6828 209.743C26.996 209.743 33.3613 211.361 39.2049 214.752C41.3962 216.004 43.3789 217.464 45.205 219.029C46.1963 223.724 48.0746 228.106 50.579 231.967C51.4138 233.271 52.353 234.523 53.3443 235.671L52.1964 234.992L43.5354 229.984L37.5353 226.489L10.7696 211.1ZM3.04763 238.383C9.7782 231.549 19.1697 227.272 29.5003 227.272C32.0569 227.272 34.5613 227.532 36.9614 228.002L52.5617 237.079L54.8574 238.383H50.8921H40.8745H33.8831H3.04763ZM9.98693 265.875C12.387 256.589 18.3871 248.243 27.3612 243.026C29.5525 241.774 31.8482 240.731 34.1961 239.948H52.1964C46.3529 242.087 41.031 245.634 36.7527 250.382L9.98693 265.875ZM29.7612 286.168C28.8742 282.934 28.4047 279.595 28.4047 276.256C28.4047 269.944 30.0221 263.58 33.3613 257.737C34.6135 255.546 36.1266 253.512 37.744 251.686C39.3092 249.912 40.9788 248.347 42.805 246.991C45.4659 244.956 48.3877 243.287 51.4138 241.983C52.6138 241.513 53.8661 241.044 55.1183 240.679C54.4922 241.305 53.9182 241.983 53.3443 242.661C49.379 247.408 46.5094 253.146 45.1528 259.459L29.7612 286.168ZM56.9965 293.889C50.1616 287.159 45.8833 277.769 45.8833 267.44C45.8833 264.884 46.1441 262.38 46.6137 259.98C47.0833 257.685 47.7616 255.494 48.5964 253.407C49.8486 250.277 51.5704 247.356 53.6052 244.748C54.2834 243.861 55.0139 242.974 55.7965 242.139C56.1618 242.817 56.527 243.443 56.9444 244.122V293.889H56.9965ZM88.1972 243.026C97.1713 248.191 103.171 256.589 105.571 265.875L62.3184 240.939C61.9532 240.313 61.5879 239.687 61.2227 239.061C62.3184 238.801 63.4662 238.592 64.6141 238.435C66.2837 238.227 67.9533 238.07 69.6229 238.07C71.2925 238.07 72.9621 238.175 74.5795 238.435C76.823 238.748 79.1187 239.27 81.3101 240C83.7101 240.731 86.0058 241.722 88.1972 243.026ZM81.6231 238.383C77.71 237.079 73.6403 236.453 69.6751 236.453C67.4315 236.453 65.188 236.662 62.9967 237.027L78.597 228.002C80.997 227.48 83.5014 227.272 86.058 227.272C96.4408 227.272 105.78 231.497 112.511 238.383H81.6231Z" fill="#54362C"/>
<path d="M57.7784 57.3837L106.771 85.6583C104.631 75.4335 98.3183 66.2 88.6137 60.5659C86.318 59.2617 83.918 58.1662 81.518 57.3837H114.388C107.449 49.6108 97.327 44.7071 86.1094 44.7071C83.4484 44.7071 80.8397 44.968 78.3875 45.4896L106.823 29.057C96.9096 25.8227 85.7441 26.6052 75.9874 32.2392C73.6917 33.5434 71.6047 35.1084 69.6742 36.8299L86.1094 8.39888C75.8831 10.5377 66.6481 16.8499 61.0132 26.553C59.7088 28.8484 58.6131 31.248 57.8305 33.6477V0.782471C50.0565 7.72069 45.152 17.8411 45.152 29.057C45.152 31.7175 45.4129 34.3259 45.9346 36.7777C44.0042 35.0562 41.9172 33.5434 39.6215 32.187C29.8648 26.553 18.6993 25.7705 8.78607 29.0049L37.2214 45.4375C34.717 44.9158 32.1083 44.655 29.4995 44.655C18.2819 44.655 8.15997 49.5587 1.2207 57.3316H34.0909C31.6387 58.1141 29.2908 59.1574 26.9951 60.5137C17.2384 66.1478 10.9774 75.4335 8.83826 85.6061L37.2736 69.1735C35.5518 71.1037 34.0388 73.1903 32.6822 75.4857C27.0473 85.2409 26.2647 96.4047 29.4995 106.316L45.9346 77.8854C45.4129 80.3894 45.152 82.9978 45.152 85.6061C45.152 96.822 50.0565 106.942 57.8305 113.881L57.7784 57.3837Z" fill="#88BE55"/>
<path d="M85.5884 89.4143L65.8141 62.9135L106.354 86.3364C106.615 86.4929 106.98 86.4929 107.189 86.2843C107.45 86.1278 107.554 85.8148 107.502 85.5018C105.311 75.0684 98.893 65.6261 88.9798 59.8877C87.8841 59.2617 86.7885 58.6879 85.6406 58.1662H114.337C114.65 58.1662 114.911 58.0098 115.067 57.6967C115.172 57.4359 115.119 57.0707 114.911 56.8621C107.867 48.9327 97.5365 43.9246 86.058 43.9246C84.8058 43.9246 83.5536 43.9768 82.3014 44.0811L107.137 29.7352C107.398 29.5787 107.554 29.2657 107.502 28.9527C107.45 28.6397 107.241 28.3789 106.98 28.2745C103.067 27.0225 98.9974 26.3443 94.8234 26.3443C88.2493 26.3443 81.5709 28.0137 75.5187 31.561C74.423 32.187 73.3795 32.8652 72.3882 33.5956L86.7363 8.76404C86.8928 8.5032 86.8928 8.19021 86.6841 7.92938C86.4754 7.66854 86.2145 7.56422 85.9015 7.61639C75.4665 9.80741 66.0228 16.224 60.2836 26.1357C59.6575 27.2312 59.0835 28.3789 58.5618 29.4744V0.782488C58.5618 0.469486 58.4053 0.20867 58.0922 0.0521687C57.8313 -0.0521654 57.4661 -4.72628e-06 57.2574 0.208663C49.3268 7.30338 44.318 17.6324 44.318 29.057C44.318 30.9872 44.4746 32.9174 44.7354 34.7954C43.2745 33.5956 41.6571 32.5522 39.9875 31.561C33.8831 28.0658 27.2047 26.3443 20.6828 26.3443C16.561 26.3443 12.4391 27.0225 8.526 28.2745C8.21295 28.3789 8.00425 28.6397 8.00425 28.9527C7.95208 29.2657 8.10861 29.5787 8.36949 29.7352L33.2048 44.0811C31.9526 43.9768 30.7004 43.9246 29.4482 43.9246C17.9697 43.9246 7.69123 48.9327 0.595437 56.8621C0.386738 57.0707 0.334537 57.4359 0.438887 57.6967C0.543237 57.9576 0.856299 58.1662 1.16935 58.1662H29.8656C28.7177 58.6879 27.622 59.2617 26.5264 59.8877C16.6131 65.6261 10.1434 75.0684 8.00425 85.5018C7.95208 85.8148 8.05645 86.1278 8.31732 86.2843C8.5782 86.4408 8.89124 86.4929 9.15211 86.3364L33.9874 71.9905C33.257 72.9817 32.5787 74.0772 31.9526 75.1727C28.4047 81.2763 26.7351 87.9015 26.7351 94.4745C26.7351 98.5957 27.4134 102.717 28.6656 106.629C28.7699 106.942 29.0308 107.151 29.3438 107.151C29.6569 107.203 29.9699 107.047 30.1264 106.786L44.4746 81.9544C44.3702 83.2064 44.2658 84.4584 44.2658 85.7104C44.2658 97.1872 49.2747 107.464 57.2053 114.559C57.414 114.767 57.7792 114.82 58.04 114.715C58.3009 114.611 58.5096 114.298 58.5096 113.985V63.696L80.5274 93.1703C103.641 124.158 116.111 161.718 116.111 200.374V505.551H122.372V200.374C122.424 160.361 109.537 121.445 85.5884 89.4143ZM88.1972 61.2441C97.1713 66.4086 103.171 74.8075 105.571 84.0933L63.4141 59.7834L61.4836 57.1751C62.5271 56.9664 63.5706 56.7577 64.6141 56.6012C66.2837 56.3926 67.9533 56.236 69.6229 56.236C71.2925 56.236 72.9621 56.3404 74.6317 56.6012C76.8752 56.9142 79.1187 57.4359 81.3101 58.1662C83.7101 58.9487 86.0058 59.9399 88.1972 61.2441ZM86.058 45.4896C96.4408 45.4896 105.78 49.7152 112.511 56.6012H81.6231C77.71 55.297 73.6404 54.671 69.6229 54.671C67.3794 54.671 65.188 54.8797 62.9445 55.2449L78.5448 46.22C81.0492 45.7505 83.5014 45.4896 86.058 45.4896ZM76.3534 32.9696C82.197 29.5787 88.6146 28.0137 94.8755 28.0137C98.2669 28.0137 101.606 28.4832 104.789 29.37L78.023 44.8115L71.9708 48.3067L63.2575 53.3147L59.8662 55.297L61.1705 53.0017L70.1968 37.4038C72.1273 35.6822 74.1621 34.2216 76.3534 32.9696ZM58.5618 51.8018V33.7521C59.3444 31.4045 60.3879 29.1614 61.6401 26.9182C66.8055 17.9455 75.2056 11.9462 84.4928 9.54654L69.0489 36.3083L65.5533 42.3596L60.5444 51.0193L58.5618 54.4102V51.8018V51.8018ZM56.2139 54.6189C55.953 54.358 55.6922 54.0972 55.3791 53.8885C51.6747 49.7673 48.9094 44.8115 47.3442 39.2818C47.0833 38.3428 46.8746 37.4038 46.6659 36.4648C46.1963 34.1172 45.9355 31.6654 45.9355 29.1614C45.9355 18.7801 50.1616 9.44222 57.0487 2.71268V33.5956V40.5859V50.602V51.9062V55.5057C56.84 55.2971 56.5791 55.0362 56.3704 54.8276L56.2139 54.6189ZM10.7696 29.3179C14.0044 28.431 17.3436 27.9615 20.6828 27.9615C26.996 27.9615 33.3613 29.5787 39.2049 32.9174C41.3962 34.1694 43.3789 35.6301 45.205 37.1951C46.1963 41.8901 48.0746 46.2722 50.579 50.1325C51.4138 51.4367 52.353 52.6887 53.3443 53.8364L52.1964 53.1582L43.5354 48.1502L37.4831 44.655L10.7696 29.3179ZM3.04763 56.6012C9.7782 49.7152 19.1697 45.4896 29.5003 45.4896C32.0569 45.4896 34.5613 45.7505 36.9614 46.22L52.5617 55.2449L54.8574 56.5491H50.8921H40.8745H33.9352H3.04763V56.6012ZM9.98693 84.0411C12.387 74.7554 18.3871 66.3565 27.3612 61.1919C29.5525 59.8877 31.8482 58.8966 34.1961 58.1141H52.1964C46.3529 60.2529 41.031 63.8003 36.7527 68.5996L9.98693 84.0411ZM29.7612 104.386C28.8742 101.152 28.4047 97.8132 28.4047 94.4745C28.4047 88.1623 30.0221 81.7979 33.3613 75.9552C34.6135 73.7642 36.0744 71.7297 37.744 69.9038C39.3092 68.1823 40.9788 66.5651 42.7528 65.2088C45.4137 63.1221 48.3355 61.4528 51.4138 60.2008C52.6138 59.7313 53.8661 59.2618 55.1183 58.8966C54.4922 59.5226 53.9182 60.2008 53.3443 60.8789C49.3268 65.6261 46.5094 71.3645 45.1528 77.6767L29.7612 104.386ZM56.9965 112.107C50.1616 105.377 45.8833 95.9873 45.8833 85.6583C45.8833 83.1021 46.1441 80.5981 46.6137 78.1984C47.0833 75.903 47.7616 73.712 48.5964 71.6253C49.9008 68.4953 51.5703 65.574 53.6573 62.9135C54.3878 61.9744 55.1704 61.0876 55.953 60.2008L56.9444 61.5571V112.107H56.9965Z" fill="#54362C"/>
<path d="M204.079 185.799C201.783 184.495 199.383 183.399 196.983 182.617H229.854C222.914 174.844 212.792 169.94 201.575 169.94C198.914 169.94 196.305 170.201 193.853 170.723L222.288 154.29C212.375 151.056 201.21 151.838 191.453 157.472C189.157 158.776 187.07 160.341 185.14 162.063L201.575 133.632C191.348 135.771 182.113 142.083 176.479 151.786C175.174 154.081 174.079 156.481 173.296 158.881C172.513 156.429 171.47 154.081 170.113 151.786C164.478 142.031 155.191 135.771 145.017 133.632L161.452 162.063C159.522 160.341 157.435 158.829 155.139 157.472C145.382 151.838 134.217 151.056 124.304 154.29L152.739 170.723C150.235 170.201 147.626 169.94 145.017 169.94C133.799 169.94 123.678 174.844 116.738 182.617H149.608C147.156 183.399 144.808 184.443 142.513 185.799C132.756 191.433 126.495 200.719 124.356 210.891L152.791 194.459C151.069 196.389 149.556 198.475 148.2 200.771C142.565 210.526 141.782 221.69 145.017 231.602L173.296 182.617L201.575 231.602C204.81 221.69 204.027 210.526 198.392 200.771C197.088 198.475 195.522 196.389 193.801 194.459L222.236 210.891C220.097 200.666 213.784 191.433 204.079 185.799Z" fill="#88BE55"/>
<path d="M230.374 182.095C223.278 174.166 212.948 169.158 201.521 169.158C200.269 169.158 199.017 169.21 197.765 169.366L222.6 155.02C222.861 154.864 223.018 154.551 223.018 154.238C222.965 153.925 222.757 153.664 222.496 153.56C218.583 152.255 214.513 151.629 210.339 151.629C203.765 151.629 197.139 153.299 191.034 156.846C189.939 157.472 188.895 158.15 187.852 158.881L202.2 134.049C202.356 133.788 202.356 133.475 202.148 133.214C201.991 132.954 201.678 132.849 201.365 132.901C190.93 135.092 181.486 141.509 175.747 151.421C174.756 153.09 173.921 154.812 173.243 156.585C172.564 154.812 171.73 153.09 170.738 151.421C164.999 141.509 155.503 135.04 145.12 132.901C144.807 132.849 144.494 132.954 144.338 133.214C144.181 133.475 144.129 133.788 144.286 134.049L158.634 158.881C157.642 158.15 156.547 157.472 155.503 156.846C149.399 153.351 142.72 151.629 136.198 151.629C132.077 151.629 127.955 152.308 124.042 153.56C123.729 153.664 123.52 153.925 123.52 154.238C123.468 154.551 123.624 154.864 123.885 155.02L148.72 169.366C147.468 169.262 146.216 169.158 144.964 169.158C133.485 169.158 123.207 174.166 116.111 182.095C115.902 182.304 115.85 182.669 115.955 182.93C116.059 183.191 116.372 183.399 116.685 183.399H145.381C144.233 183.921 143.138 184.495 142.042 185.121C132.129 190.859 125.659 200.353 123.52 210.735C123.468 211.048 123.572 211.361 123.833 211.517C124.094 211.674 124.407 211.726 124.668 211.569L149.503 197.223C148.773 198.215 148.094 199.31 147.468 200.353C143.972 206.457 142.303 213.134 142.303 219.655C142.303 223.776 142.981 227.898 144.233 231.81C144.338 232.123 144.599 232.332 144.912 232.332C145.225 232.384 145.538 232.228 145.694 231.967L169.486 190.703V494.523H175.747V188.459L200.895 231.967C201.052 232.228 201.365 232.384 201.678 232.332C201.991 232.28 202.252 232.071 202.356 231.81C203.608 227.898 204.287 223.829 204.287 219.655C204.287 213.082 202.617 206.405 199.121 200.353C198.495 199.258 197.817 198.215 197.087 197.223L221.922 211.569C222.183 211.726 222.548 211.726 222.757 211.517C223.018 211.361 223.122 211.048 223.07 210.735C220.878 200.301 214.461 190.859 204.548 185.121C203.452 184.495 202.356 183.921 201.208 183.399H229.905C230.218 183.399 230.479 183.243 230.635 182.93C230.635 182.669 230.583 182.304 230.374 182.095ZM191.817 158.202C197.661 154.812 204.078 153.247 210.339 153.247C213.73 153.247 217.07 153.716 220.252 154.603L193.486 170.044L187.434 173.54L178.825 178.495L175.382 180.478L176.686 178.182L185.712 162.585C187.539 160.967 189.573 159.454 191.817 158.202ZM173.243 179.382C173.138 179.017 173.034 178.652 172.93 178.339C172.408 175.835 172.147 173.279 172.147 170.723C172.147 167.697 172.512 164.671 173.295 161.698C173.504 160.759 173.817 159.82 174.13 158.881C174.912 156.585 175.904 154.342 177.156 152.203C182.321 143.231 190.669 137.231 200.008 134.832L184.565 161.593L181.069 167.645L176.06 176.304L175.434 177.4L173.608 180.53C173.503 180.217 173.451 179.904 173.347 179.591L173.243 179.382ZM146.529 134.832C155.816 137.231 164.164 143.231 169.382 152.203C170.634 154.394 171.625 156.637 172.408 158.881C171.156 162.741 170.53 166.758 170.53 170.723C170.53 171.401 170.53 172.079 170.582 172.809C170.634 174.374 170.843 175.887 171.103 177.4L170.425 176.252L165.416 167.593L161.921 161.541L146.529 134.832ZM126.233 154.551C129.468 153.664 132.807 153.194 136.146 153.194C142.459 153.194 148.825 154.812 154.668 158.15C156.86 159.455 158.895 160.915 160.721 162.532L169.747 178.13L171.103 180.426L167.66 178.443L158.999 173.435L152.947 169.94L126.233 154.551ZM118.511 181.834C125.242 175 134.633 170.723 144.964 170.723C147.52 170.723 149.973 170.983 152.373 171.453L167.973 180.478C165.782 180.113 163.538 179.904 161.295 179.904C157.277 179.904 153.26 180.53 149.346 181.782H118.511V181.834ZM125.45 209.326C127.85 200.04 133.851 191.694 142.825 186.477C145.016 185.225 147.312 184.182 149.66 183.399C151.851 182.669 154.147 182.147 156.39 181.834C158.06 181.625 159.729 181.521 161.399 181.521C163.068 181.521 164.738 181.625 166.408 181.834C167.712 181.991 168.964 182.251 170.269 182.565C170.216 182.565 170.164 182.617 170.112 182.617H169.434V182.773C168.808 182.982 168.234 183.138 167.66 183.399C161.816 185.538 156.494 189.085 152.164 193.885L125.45 209.326ZM145.172 229.619C144.286 226.385 143.816 223.046 143.816 219.707C143.816 213.395 145.433 207.031 148.773 201.188C150.077 198.997 151.538 196.963 153.155 195.137C154.668 193.363 156.39 191.798 158.216 190.442C160.877 188.355 163.799 186.686 166.877 185.434C167.712 185.069 168.599 184.756 169.434 184.495V187.677L145.172 229.619ZM197.66 201.136C201.052 206.979 202.669 213.395 202.669 219.655C202.669 222.994 202.2 226.385 201.313 229.567L175.747 185.277V183.973C177.051 184.338 178.356 184.808 179.608 185.329C182.686 186.581 185.608 188.251 188.269 190.337C190.043 191.746 191.765 193.311 193.278 195.032C194.895 196.91 196.356 198.945 197.66 201.136ZM203.661 186.477C212.635 191.642 218.635 200.04 221.035 209.326L194.269 193.885C189.991 189.085 184.617 185.538 178.825 183.399H196.826C199.174 184.182 201.469 185.173 203.661 186.477ZM197.087 181.834H190.095H180.078H176.112L178.408 180.53L194.008 171.505C196.408 170.983 198.913 170.775 201.469 170.775C211.852 170.775 221.191 175 227.922 181.886H197.087V181.834Z" fill="#54362C"/>
</svg>
