<svg id="Слой_1" data-name="Слой 1" xmlns="http://www.w3.org/2000/svg" viewBox="0 0 1353.72 480.68">
  <defs>
    <style>
      .cls-1 {
        fill: #88be55;
      }

      .cls-2 {
        fill: #54362c;
      }
    </style>
  </defs>
  <title>palms_1_mob-large</title>
  <path class="cls-1" d="M1302.18,52l44,25.42a34,34,0,0,0-16.32-22.56,34.49,34.49,0,0,0-6.39-2.86h29.56a34,34,0,0,0-25.43-11.4,33.48,33.48,0,0,0-6.94.7l25.57-14.77a34.05,34.05,0,0,0-27.73,2.86,33.28,33.28,0,0,0-5.67,4.12l14.77-25.56a34.09,34.09,0,0,0-22.56,16.32,35.38,35.38,0,0,0-2.86,6.38V1.07a34,34,0,0,0-11.4,25.43,33.48,33.48,0,0,0,.7,6.94,35.66,35.66,0,0,0-5.67-4.13,34.06,34.06,0,0,0-27.73-2.86l25.57,14.77a34.19,34.19,0,0,0-32.37,10.7h29.55a31,31,0,0,0-6.38,2.86,34,34,0,0,0-16.32,22.56l25.56-14.77a36.24,36.24,0,0,0-4.12,5.67A34.08,34.08,0,0,0,1276.75,96l14.78-25.56a34.17,34.17,0,0,0,10.7,32.36Z" transform="translate(0 -0.37)"/>
  <path class="cls-2" d="M1353.55,51.5a34.7,34.7,0,0,0-25.94-11.64,27.36,27.36,0,0,0-3.38.19l22.33-12.9a.71.71,0,0,0,.33-.7.81.81,0,0,0-.47-.61,34.91,34.91,0,0,0-28.29,2.91c-1,.56-1.92,1.17-2.86,1.83l12.9-22.33a.63.63,0,0,0-.05-.75.69.69,0,0,0-.7-.28,34.76,34.76,0,0,0-23,16.65c-.57,1-1.08,2-1.55,3V1.07a.7.7,0,0,0-.42-.65.73.73,0,0,0-.76.14A34.76,34.76,0,0,0,1290,26.5a36.87,36.87,0,0,0,.38,5.16,34.7,34.7,0,0,0-21.63-7.56,35.85,35.85,0,0,0-10.93,1.74.65.65,0,0,0-.47.61.68.68,0,0,0,.33.7L1280,40.05c-1.13-.09-2.25-.19-3.38-.19a34.7,34.7,0,0,0-25.94,11.64.71.71,0,0,0-.14.75.73.73,0,0,0,.65.42H1277c-1,.47-2,1-3,1.55a34.69,34.69,0,0,0-16.65,23,.67.67,0,0,0,.28.7.63.63,0,0,0,.75,0l22.33-12.9c-.65.89-1.26,1.87-1.83,2.81a35,35,0,0,0-4.69,17.36A35.9,35.9,0,0,0,1276,96.2a.64.64,0,0,0,.61.46.69.69,0,0,0,.7-.32L1290.17,74c-.09,1.13-.19,2.25-.19,3.38a34.67,34.67,0,0,0,11.64,25.93.74.74,0,0,0,.75.15.76.76,0,0,0,.42-.66V59.05A189.23,189.23,0,0,1,1325,147.93V425.32h5.63V147.93a195,195,0,0,0-23.13-92L1345.76,78a.63.63,0,0,0,.75,0,.65.65,0,0,0,.28-.7,34.76,34.76,0,0,0-16.65-23c-1-.57-2-1.08-3-1.55h25.8a.71.71,0,0,0,.66-.42A.58.58,0,0,0,1353.55,51.5ZM1318.83,30a33,33,0,0,1,16.66-4.45,33.65,33.65,0,0,1,8.91,1.22l-24.06,13.88-5.45,3.14-7.78,4.51-3.1,1.78,1.17-2.06,8.12-14A38.83,38.83,0,0,1,1318.83,30ZM1302.88,47V30.76A33.44,33.44,0,0,1,1326.2,9l-13.89,24.06-3.14,5.44-4.5,7.79-1.79,3.1V47Zm-2.15,2.53a8.55,8.55,0,0,0-.71-.66,32.77,32.77,0,0,1-7.22-13.13c-.24-.85-.42-1.69-.61-2.53a33.73,33.73,0,0,1-.66-6.57,33.08,33.08,0,0,1,10-23.78V50.18l-.61-.61Zm-40.86-22.7A33.3,33.3,0,0,1,1285.43,30a30.15,30.15,0,0,1,5.35,3.85,34.53,34.53,0,0,0,4.83,11.63,35.4,35.4,0,0,0,2.49,3.38l-1-.61-7.79-4.5-5.44-3.15Zm-6.95,24.48a33.4,33.4,0,0,1,23.79-10,35.18,35.18,0,0,1,6.71.66l14,8.11,2.07,1.17h-46.59ZM1259.16,76a33.4,33.4,0,0,1,15.62-20.54,30.72,30.72,0,0,1,6.15-2.77h16.23a34.81,34.81,0,0,0-13.93,9.43Zm17.78,18.29a33.25,33.25,0,0,1,3.24-25.56,30.58,30.58,0,0,1,3.94-5.44,38,38,0,0,1,4.5-4.22,32.52,32.52,0,0,1,7.79-4.51,30.58,30.58,0,0,1,3.33-1.17c-.56.57-1.08,1.17-1.59,1.78a34.46,34.46,0,0,0-7.37,15.11Zm24.54,6.9a33.34,33.34,0,0,1-10-23.78,35.18,35.18,0,0,1,.66-6.71,34.58,34.58,0,0,1,1.78-5.91,32.45,32.45,0,0,1,4.51-7.79,30.52,30.52,0,0,1,2-2.34c.33.61.7,1.22,1,1.78v44.75Zm28-45.73A33.23,33.23,0,0,1,1345.15,76l-38.89-22.42c-.33-.56-.65-1.13-1-1.74,1-.23,2-.42,3-.56a35.85,35.85,0,0,1,4.5-.33,29.63,29.63,0,0,1,4.5.33,33.38,33.38,0,0,1,6,1.41A34.17,34.17,0,0,1,1329.53,55.44Zm-5.91-4.18a34.18,34.18,0,0,0-10.74-1.73,36.47,36.47,0,0,0-6,.51l14-8.11a35.18,35.18,0,0,1,6.71-.66,33.08,33.08,0,0,1,23.78,10Z" transform="translate(0 -0.37)"/>
  <path class="cls-1" d="M1279,230a36.09,36.09,0,0,0-6.38-2.86h29.55a34,34,0,0,0-25.43-11.39,33.48,33.48,0,0,0-6.94.7l25.57-14.78a33.94,33.94,0,0,0-33.4,7l14.77-25.56a34.09,34.09,0,0,0-22.56,16.32,35.07,35.07,0,0,0-2.86,6.38,31,31,0,0,0-2.86-6.38,34,34,0,0,0-22.57-16.32l14.78,25.56a36.38,36.38,0,0,0-5.68-4.13,34.11,34.11,0,0,0-27.72-2.86l25.57,14.78a34.21,34.21,0,0,0-32.37,10.69H1230a31.27,31.27,0,0,0-6.38,2.86,34,34,0,0,0-16.32,22.56l25.56-14.77a35.75,35.75,0,0,0-4.13,5.68,34.07,34.07,0,0,0-2.86,27.72l25.43-44,25.42,44a34,34,0,0,0-2.86-27.72,32.88,32.88,0,0,0-4.13-5.68l25.57,14.77A33.82,33.82,0,0,0,1279,230Zm-27.73-2.86Z" transform="translate(0 -0.37)"/>
  <path class="cls-2" d="M1302.7,226.68a34.7,34.7,0,0,0-25.94-11.63c-1.13,0-2.26,0-3.38.14l22.33-12.9a.71.71,0,0,0,.33-.7.81.81,0,0,0-.47-.61,34.74,34.74,0,0,0-28.29,3c-1,.57-1.92,1.18-2.86,1.83l12.9-22.32a.63.63,0,0,0,0-.75.65.65,0,0,0-.7-.28,34.87,34.87,0,0,0-23,16.65,32.43,32.43,0,0,0-2.25,4.64,30.49,30.49,0,0,0-2.25-4.64,34.71,34.71,0,0,0-23-16.65.66.66,0,0,0-.71.28.72.72,0,0,0,0,.75l12.9,22.32a33.18,33.18,0,0,0-2.86-1.83,34.49,34.49,0,0,0-17.36-4.69A35.85,35.85,0,0,0,1207,201a.72.72,0,0,0-.1,1.31l22.33,12.9c-1.12-.09-2.25-.14-3.37-.14a34.72,34.72,0,0,0-25.95,11.63.76.76,0,0,0-.14.75.75.75,0,0,0,.66.43h25.8c-1,.47-2,1-3,1.54a34.6,34.6,0,0,0-16.65,23,.66.66,0,0,0,.28.71.62.62,0,0,0,.75,0l22.33-12.89a24.09,24.09,0,0,0-1.83,2.86,34.68,34.68,0,0,0-4.65,17.35,35.85,35.85,0,0,0,1.74,10.93.65.65,0,0,0,.61.47.6.6,0,0,0,.66-.33l21.39-37V481.05h5.63V232.45l22.61,39.12a.65.65,0,0,0,.66.33.81.81,0,0,0,.61-.47,34.79,34.79,0,0,0-3-28.28,33,33,0,0,0-1.83-2.86l22.33,12.89a.61.61,0,0,0,.75,0,.66.66,0,0,0,.28-.71,34.87,34.87,0,0,0-16.65-23c-1-.56-2-1.07-3-1.54h25.8a.69.69,0,0,0,.65-.43A.56.56,0,0,0,1302.7,226.68ZM1268,205.2a33.14,33.14,0,0,1,16.66-4.45,33.49,33.49,0,0,1,8.91,1.21l-24.07,13.89-5.39,3.14-7.84,4.5-3,1.79,1.17-2.07,8.11-14A30.54,30.54,0,0,1,1268,205.2Zm-16.7,19a3.77,3.77,0,0,0-.28-.8,33.5,33.5,0,0,1-.7-6.84,32.06,32.06,0,0,1,1-8.12c.19-.84.47-1.69.75-2.53a32.36,32.36,0,0,1,2.72-6,33.1,33.1,0,0,1,20.55-15.61l-13.89,24.06-3.14,5.39-4.5,7.79-.61,1-1.65,2.81a5.25,5.25,0,0,0-.23-.84Zm-24-40a33.38,33.38,0,0,1,20.55,15.62,34.54,34.54,0,0,1,2.72,6,34.55,34.55,0,0,0-1.69,10.65c0,.61,0,1.22,0,1.83a28.22,28.22,0,0,0,.47,4.13l-.57-1-4.5-7.78-3.14-5.44ZM1209,201.92a33.3,33.3,0,0,1,25.56,3.23,35.42,35.42,0,0,1,5.49,3.95l8.12,14,1.17,2.06-3-1.73-7.83-4.5-5.4-3.15Zm-7,24.53a33.34,33.34,0,0,1,23.79-10,34.29,34.29,0,0,1,6.7.66l14,8.11a36.45,36.45,0,0,0-6-.52,34,34,0,0,0-10.75,1.74Zm6.24,24.72a33.38,33.38,0,0,1,15.62-20.55,34.47,34.47,0,0,1,6.15-2.76,33.8,33.8,0,0,1,6.05-1.41,35.85,35.85,0,0,1,4.5-.33,28.52,28.52,0,0,1,4.51.33,26.89,26.89,0,0,1,3.47.66s-.1,0-.14,0H1248v.19c-.51.19-1.08.33-1.59.52a34.92,34.92,0,0,0-13.94,9.42Zm17.78,18.24a33.59,33.59,0,0,1-1.22-8.91,33.13,33.13,0,0,1,4.5-16.65,32.77,32.77,0,0,1,4-5.44,31.24,31.24,0,0,1,4.55-4.22,32.09,32.09,0,0,1,7.78-4.5c.75-.33,1.5-.57,2.3-.85v2.86Zm47.19-25.61a33,33,0,0,1,4.46,16.65,33.44,33.44,0,0,1-1.22,8.92l-23-39.83v-1.17a30.52,30.52,0,0,1,3.48,1.22,32.46,32.46,0,0,1,7.78,4.51,34.23,34.23,0,0,1,4.55,4.22A38.14,38.14,0,0,1,1273.28,243.8Zm5.4-13.18a33.28,33.28,0,0,1,15.62,20.55l-24.07-13.89a34.48,34.48,0,0,0-13.93-9.42h16.23A33.79,33.79,0,0,1,1278.68,230.62Zm-5.91-4.17H1254l2.06-1.17,14-8.12a35.1,35.1,0,0,1,6.71-.65,33,33,0,0,1,23.78,10h-27.77Z" transform="translate(0 -0.37)"/>
  <path class="cls-1" d="M587.66,241.32a29.7,29.7,0,0,0-14.23-19.67,30.48,30.48,0,0,0-5.56-2.49h25.76a29.67,29.67,0,0,0-22.16-9.94,29.14,29.14,0,0,0-6.05.62L587.7,197a29.72,29.72,0,0,0-24.16,2.49,29.16,29.16,0,0,0-4.95,3.6l12.88-22.28A29.72,29.72,0,0,0,551.8,195a30.48,30.48,0,0,0-2.49,5.56V174.8A29.67,29.67,0,0,0,539.37,197a29.14,29.14,0,0,0,.62,6,32,32,0,0,0-5-3.6,29.69,29.69,0,0,0-24.16-2.49l22.28,12.88A29.7,29.7,0,0,0,505,219.12h25.76a26.76,26.76,0,0,0-5.56,2.49,29.64,29.64,0,0,0-14.23,19.66L533.2,228.4a30.81,30.81,0,0,0-3.6,4.94,29.71,29.71,0,0,0-2.49,24.17L540,235.23a29.68,29.68,0,0,0,9.32,28.2V219.16Z" transform="translate(0 -0.37)"/>
  <path class="cls-2" d="M594.08,218.75a30.33,30.33,0,0,0-22.61-10.14q-1.47,0-2.94.12L588,197.49a.62.62,0,0,0,.29-.61.71.71,0,0,0-.41-.53,30.25,30.25,0,0,0-24.66,2.57,28.44,28.44,0,0,0-2.49,1.6L572,181.06a.57.57,0,0,0,0-.66.61.61,0,0,0-.61-.24,30.3,30.3,0,0,0-20.08,14.51c-.49.86-.94,1.76-1.35,2.62V174.8a.61.61,0,0,0-.37-.57.51.51,0,0,0-.65.12A30.27,30.27,0,0,0,538.72,197a32,32,0,0,0,.33,4.5,30.38,30.38,0,0,0-18.85-6.63,31.45,31.45,0,0,0-9.53,1.52.56.56,0,0,0-.41.53.6.6,0,0,0,.29.61L530,208.73q-1.47-.12-2.94-.12a30.25,30.25,0,0,0-22.61,10.14.63.63,0,0,0-.13.65.65.65,0,0,0,.58.37h22.48c-.9.41-1.75.86-2.61,1.35a30.28,30.28,0,0,0-14.52,20.07.59.59,0,0,0,.25.62.63.63,0,0,0,.65,0l19.46-11.25a26.51,26.51,0,0,0-1.59,2.5,29.94,29.94,0,0,0-4.09,15.13,31.42,31.42,0,0,0,1.51,9.52.58.58,0,0,0,.53.41.61.61,0,0,0,.62-.29l11.24-19.46c-.08,1-.16,2-.16,3A30.21,30.21,0,0,0,548.82,264a.63.63,0,0,0,.65.13.64.64,0,0,0,.37-.58V225.29a216.27,216.27,0,0,1,26.21,103.14V461.26H581V328.43a220.82,220.82,0,0,0-27-105.8l33.37,19.26a.55.55,0,0,0,.65,0,.58.58,0,0,0,.24-.62,30.36,30.36,0,0,0-14.51-20.07c-.86-.49-1.72-.94-2.62-1.35h22.49a.68.68,0,0,0,.57-.36A.72.72,0,0,0,594.08,218.75ZM563.82,200a28.86,28.86,0,0,1,22.29-2.87l-21,12.1-4.7,2.74-6.83,3.93L551,217.48l1-1.8L559,203.46A29,29,0,0,1,563.82,200Zm-11.53-4.71a29,29,0,0,1,17.91-13.61l-12.1,21-2.74,4.7-3.92,6.79-1.56,2.7V200.64A30.79,30.79,0,0,1,552.29,195.32ZM548,217c-.2-.2-.45-.41-.65-.61a29.08,29.08,0,0,1-6.3-11.45c-.2-.73-.37-1.47-.53-2.21a29,29,0,0,1,8.14-26.45v41.38l-.54-.54Zm-35.61-19.83a29.65,29.65,0,0,1,7.77-1.06A28.77,28.77,0,0,1,534.71,200a29.92,29.92,0,0,1,4.7,3.35,30.07,30.07,0,0,0,4.22,10.14,26,26,0,0,0,2.16,2.9l-.9-.53L538.11,212l-4.7-2.74Zm-6,21.38a29.07,29.07,0,0,1,20.73-8.7,30.46,30.46,0,0,1,5.85.57l12.22,7.11,1.8,1h-40.6Zm5.44,21.55a29.09,29.09,0,0,1,13.61-17.91,29.85,29.85,0,0,1,5.36-2.41h14.1a30.34,30.34,0,0,0-12.1,8.18ZM527.31,256a29.57,29.57,0,0,1-1.06-7.76,29.25,29.25,0,0,1,3.88-14.52,28.3,28.3,0,0,1,3.44-4.74,25.39,25.39,0,0,1,4-3.68,32.18,32.18,0,0,1,6.75-3.92c.94-.37,1.92-.74,2.9-1-.49.5-.94,1-1.39,1.56a30.67,30.67,0,0,0-6.42,13.16ZM548.66,262A29,29,0,0,1,540,241.32a28.88,28.88,0,0,1,2.12-11,28,28,0,0,1,3.93-6.79,25.11,25.11,0,0,1,1.72-2c.28.53.57,1,.89,1.55v39Zm24.45-39.86a29,29,0,0,1,13.61,17.91l-33.89-19.54c-.29-.49-.58-1-.86-1.47a25,25,0,0,1,2.66-.49,30.28,30.28,0,0,1,3.92-.29,23.71,23.71,0,0,1,3.88.29,29.68,29.68,0,0,1,5.28,1.22A24.42,24.42,0,0,1,573.11,222.18ZM568,218.54a29.71,29.71,0,0,0-9.36-1.51,32.58,32.58,0,0,0-5.23.45l12.22-7.07a27.51,27.51,0,0,1,5.85-.57,28.84,28.84,0,0,1,20.73,8.7Z" transform="translate(0 -0.37)"/>
  <path class="cls-1" d="M549.27,112l38.39,22.16a29.7,29.7,0,0,0-14.23-19.67,30.48,30.48,0,0,0-5.56-2.49h25.76A29.66,29.66,0,0,0,571.47,102a29.14,29.14,0,0,0-6.05.61L587.7,89.77a29.72,29.72,0,0,0-24.16,2.49,29.16,29.16,0,0,0-4.95,3.6l12.88-22.28A29.72,29.72,0,0,0,551.8,87.81a30.48,30.48,0,0,0-2.49,5.56V67.61a29.67,29.67,0,0,0-9.94,22.16,29.07,29.07,0,0,0,.62,6,32,32,0,0,0-5-3.6,29.72,29.72,0,0,0-24.16-2.49l22.28,12.88A29.7,29.7,0,0,0,505,111.93h25.76a26.76,26.76,0,0,0-5.56,2.49,29.63,29.63,0,0,0-14.23,19.67l22.28-12.88a31.27,31.27,0,0,0-3.6,4.94,29.71,29.71,0,0,0-2.49,24.17L540,128a29.68,29.68,0,0,0,9.32,28.2Z" transform="translate(0 -0.37)"/>
  <path class="cls-2" d="M571.06,137.07,555.57,116.3l31.77,18.36a.55.55,0,0,0,.65,0,.58.58,0,0,0,.24-.62,30.27,30.27,0,0,0-14.51-20.07c-.86-.49-1.72-.94-2.62-1.35h22.49a.6.6,0,0,0,.57-.37.64.64,0,0,0-.12-.65,30.2,30.2,0,0,0-22.61-10.14q-1.47,0-2.94.12L588,90.3a.59.59,0,0,0,.28-.61.68.68,0,0,0-.4-.53,31.25,31.25,0,0,0-9.53-1.52,29.86,29.86,0,0,0-15.13,4.09,22.94,22.94,0,0,0-2.45,1.6L572,73.87a.57.57,0,0,0,0-.66.61.61,0,0,0-.61-.24,30.3,30.3,0,0,0-20.08,14.51c-.49.86-.94,1.76-1.35,2.62V67.61a.61.61,0,0,0-.37-.57.64.64,0,0,0-.65.12,30.33,30.33,0,0,0-10.14,22.61,32,32,0,0,0,.33,4.5,30.38,30.38,0,0,0-18.85-6.63,31.45,31.45,0,0,0-9.53,1.52.56.56,0,0,0-.41.53.6.6,0,0,0,.29.61L530,101.54q-1.47-.12-2.94-.12a30.25,30.25,0,0,0-22.61,10.14.63.63,0,0,0-.13.65.65.65,0,0,0,.58.37h22.48c-.9.41-1.75.86-2.61,1.35A30.19,30.19,0,0,0,510.26,134a.59.59,0,0,0,.25.62.63.63,0,0,0,.65,0l19.46-11.24a25.13,25.13,0,0,0-1.59,2.49A29.94,29.94,0,0,0,524.94,141a31.42,31.42,0,0,0,1.51,9.52.57.57,0,0,0,.53.41.61.61,0,0,0,.62-.29l11.24-19.46c-.08,1-.16,2-.16,2.95a30.21,30.21,0,0,0,10.14,22.6.63.63,0,0,0,.65.13.64.64,0,0,0,.37-.58v-39.4L567.09,140A140.41,140.41,0,0,1,595,224V463.18h4.91V224A144.84,144.84,0,0,0,571.06,137.07ZM573.11,115a29,29,0,0,1,13.61,17.91l-33-19.05-1.51-2c.82-.17,1.64-.33,2.46-.45a30.28,30.28,0,0,1,3.92-.29,24.54,24.54,0,0,1,3.92.29,29.26,29.26,0,0,1,5.24,1.22A26.6,26.6,0,0,1,573.11,115Zm-1.68-12.34a28.81,28.81,0,0,1,20.73,8.71H568a29.5,29.5,0,0,0-9.4-1.52,33,33,0,0,0-5.23.45l12.22-7.07A31.44,31.44,0,0,1,571.43,102.65Zm-7.6-9.81A28.92,28.92,0,0,1,586.11,90l-21,12.1-4.74,2.74-6.83,3.92-2.66,1.55,1-1.79L559,96.31A28,28,0,0,1,563.83,92.84Zm-14,14.76V93.45a31.16,31.16,0,0,1,2.41-5.36A29,29,0,0,1,570.2,74.48l-12.1,21-2.74,4.74L551.44,107l-1.56,2.66v-2ZM548,109.8a4.42,4.42,0,0,0-.65-.57,28.74,28.74,0,0,1-6.3-11.45c-.2-.73-.37-1.47-.53-2.2a29.15,29.15,0,0,1-.57-5.73,28.8,28.8,0,0,1,8.71-20.72V110.5l-.54-.53ZM512.43,90a29.65,29.65,0,0,1,7.77-1.06,29.13,29.13,0,0,1,14.51,3.89,29.92,29.92,0,0,1,4.7,3.35,30.07,30.07,0,0,0,4.22,10.14,26,26,0,0,0,2.16,2.9l-.9-.53-6.78-3.93L533.36,102Zm-6,21.39a28.87,28.87,0,0,1,20.73-8.71,30.46,30.46,0,0,1,5.85.57l12.22,7.07,1.8,1h-40.6Zm5.44,21.5A29,29,0,0,1,525.43,115a27.28,27.28,0,0,1,5.36-2.41h14.1a30,30,0,0,0-12.1,8.22Zm15.49,15.94a29.57,29.57,0,0,1-1.06-7.76,29.25,29.25,0,0,1,3.88-14.52,26.58,26.58,0,0,1,3.44-4.74,29.46,29.46,0,0,1,3.92-3.68,28.48,28.48,0,0,1,6.79-3.92c.94-.37,1.92-.74,2.9-1-.49.49-.94,1-1.39,1.56a30.28,30.28,0,0,0-6.42,13.16Zm21.35,6A29,29,0,0,1,540,134.13a28.88,28.88,0,0,1,2.12-11,29.15,29.15,0,0,1,4-6.83c.57-.73,1.18-1.43,1.8-2.12l.77,1.06v39.61Z" transform="translate(0 -0.37)"/>
  <path class="cls-1" d="M663.92,177.34a31,31,0,0,0-5.57-2.5h25.76A29.65,29.65,0,0,0,662,164.91a29.14,29.14,0,0,0-6.05.61l22.28-12.87A29.65,29.65,0,0,0,654,155.14a29,29,0,0,0-4.95,3.6L662,136.46a29.67,29.67,0,0,0-19.66,14.22,30.53,30.53,0,0,0-2.5,5.56,27,27,0,0,0-2.49-5.56,29.67,29.67,0,0,0-19.67-14.22l12.88,22.28a30.9,30.9,0,0,0-5-3.6,29.64,29.64,0,0,0-24.16-2.49l22.28,12.87a29.8,29.8,0,0,0-28.21,9.32h25.76a27,27,0,0,0-5.56,2.5A29.65,29.65,0,0,0,601.44,197l22.28-12.88a31.3,31.3,0,0,0-3.59,4.95,29.68,29.68,0,0,0-2.5,24.16l22.16-38.39L662,213.23a29.64,29.64,0,0,0-2.49-24.16,29,29,0,0,0-3.6-4.95L678.14,197A29.67,29.67,0,0,0,663.92,177.34Z" transform="translate(0 -0.37)"/>
  <path class="cls-2" d="M684.52,174.43a30.31,30.31,0,0,0-22.61-10.13,24.14,24.14,0,0,0-2.94.16l19.46-11.24a.63.63,0,0,0-.08-1.15,30.33,30.33,0,0,0-24.66,2.58c-.85.49-1.67,1-2.49,1.59l11.24-19.46a.53.53,0,0,0,0-.65.59.59,0,0,0-.61-.25,30.31,30.31,0,0,0-20.08,14.52,26.84,26.84,0,0,0-2,4,25.91,25.91,0,0,0-2-4,30.28,30.28,0,0,0-20.08-14.52.59.59,0,0,0-.61.25.63.63,0,0,0,0,.65l11.24,19.46c-.77-.57-1.63-1.1-2.45-1.59a30.48,30.48,0,0,0-15.13-4.09,31.33,31.33,0,0,0-9.52,1.51.56.56,0,0,0-.41.53.6.6,0,0,0,.28.62l19.46,11.24c-1-.08-2-.16-2.94-.16A30.24,30.24,0,0,0,595,174.43a.66.66,0,0,0-.12.66.64.64,0,0,0,.57.37h22.49c-.9.41-1.76.86-2.62,1.35a30.19,30.19,0,0,0-14.51,20.07.57.57,0,0,0,.24.61.64.64,0,0,0,.65,0l19.47-11.24c-.57.78-1.11,1.64-1.6,2.45a30.45,30.45,0,0,0-4,15.13,31.33,31.33,0,0,0,1.51,9.52.55.55,0,0,0,.53.41.61.61,0,0,0,.61-.28l18.65-32.34V419.27h4.9V179.42l19.71,34.1a.61.61,0,0,0,.61.28.7.7,0,0,0,.54-.41,31.13,31.13,0,0,0,1.51-9.52A30.24,30.24,0,0,0,660,188.74a25.72,25.72,0,0,0-1.59-2.45l19.46,11.24a.55.55,0,0,0,.65,0,.58.58,0,0,0,.25-.61,30.27,30.27,0,0,0-14.52-20.07c-.86-.49-1.71-.94-2.61-1.35h22.49a.64.64,0,0,0,.57-.37A1,1,0,0,0,684.52,174.43Zm-30.21-18.72a28.84,28.84,0,0,1,14.51-3.88,29.14,29.14,0,0,1,7.77,1.06l-21,12.1-4.74,2.74-6.74,3.88-2.7,1.56,1-1.8,7.07-12.22A27.16,27.16,0,0,1,654.31,155.71Zm-14.56,16.6c-.08-.29-.16-.57-.24-.82a29.16,29.16,0,0,1-.62-6,27.86,27.86,0,0,1,.9-7.07c.17-.74.41-1.47.66-2.21a28.5,28.5,0,0,1,2.37-5.23,28.88,28.88,0,0,1,17.91-13.61l-12.11,21-2.74,4.74L642,169.9l-.49.86L640,173.21c-.08-.25-.13-.49-.21-.74ZM618.82,137.4A29.12,29.12,0,0,1,636.73,151a32.35,32.35,0,0,1,2.37,5.23,30.24,30.24,0,0,0-1.47,9.28c0,.53,0,1.07,0,1.64a25.43,25.43,0,0,0,.41,3.6l-.54-.9-3.92-6.79-2.74-4.74Zm-15.91,15.45a29.07,29.07,0,0,1,22.29,2.82,31.89,31.89,0,0,1,4.74,3.43L637,171.33l1.07,1.8-2.7-1.56-6.79-3.92-4.74-2.74Zm-6,21.38a29.1,29.1,0,0,1,20.73-8.71,30,30,0,0,1,5.81.58l12.22,7.07a31.47,31.47,0,0,0-5.23-.45,30.65,30.65,0,0,0-9.36,1.47H596.86Zm5.44,21.54a29.1,29.1,0,0,1,13.61-17.9,29.25,29.25,0,0,1,10.63-3.64,32.3,32.3,0,0,1,7.86,0,26.72,26.72,0,0,1,3,.57s-.08,0-.12,0h-.53V175a12,12,0,0,0-1.39.49,30.41,30.41,0,0,0-12.15,8.21Zm15.45,15.91a29.65,29.65,0,0,1-1.06-7.77,29.13,29.13,0,0,1,3.89-14.51,31.28,31.28,0,0,1,3.43-4.75,23.72,23.72,0,0,1,4-3.67,27.93,27.93,0,0,1,6.78-3.93,18,18,0,0,1,2-.73v2.49Zm41.14-22.32a28.94,28.94,0,0,1,3.92,14.51,29.42,29.42,0,0,1-1.06,7.77l-20-34.71v-1a24.7,24.7,0,0,1,3,1.06,28.48,28.48,0,0,1,6.79,3.92,30.29,30.29,0,0,1,3.92,3.68A34.08,34.08,0,0,1,658.89,189.36Zm4.7-11.49a29,29,0,0,1,13.61,17.9l-21-12.1a30.24,30.24,0,0,0-12.1-8.21h14.1A27.28,27.28,0,0,1,663.59,177.87Zm-5.15-3.64H642l1.8-1L656,166.14a27.58,27.58,0,0,1,5.85-.58,28.85,28.85,0,0,1,20.73,8.71H658.44Z" transform="translate(0 -0.37)"/>
  <path class="cls-1" d="M79.28,104.57a35.46,35.46,0,0,0-6.38-2.86h29.55A34,34,0,0,0,77,90.31a33.4,33.4,0,0,0-6.94.71L95.65,76.24A34.07,34.07,0,0,0,67.93,79.1a33.42,33.42,0,0,0-5.68,4.13L77,57.67A34.08,34.08,0,0,0,54.46,74a35.77,35.77,0,0,0-2.86,6.38A31,31,0,0,0,48.74,74,34,34,0,0,0,26.18,57.67L41,83.23a35.66,35.66,0,0,0-5.67-4.13A34.09,34.09,0,0,0,7.55,76.24L33.12,91A34.1,34.1,0,0,0,.75,101.71H30.3a31.52,31.52,0,0,0-6.38,2.86A34,34,0,0,0,7.6,127.13l25.57-14.77A35.66,35.66,0,0,0,29,118a34.06,34.06,0,0,0-2.86,27.73l25.42-44L77,145.76A34.09,34.09,0,0,0,74.17,118,33.34,33.34,0,0,0,70,112.36l25.57,14.77A33.93,33.93,0,0,0,79.28,104.57Z" transform="translate(0 -0.37)"/>
  <path class="cls-2" d="M103,101.24A34.78,34.78,0,0,0,77,89.61a27.36,27.36,0,0,0-3.38.19L96,76.9a.81.81,0,0,0,.38-.7.71.71,0,0,0-.47-.61,34.74,34.74,0,0,0-28.29,3c-1,.56-1.92,1.17-2.86,1.83L77.64,58a.63.63,0,0,0,0-.75.7.7,0,0,0-.7-.28,34.78,34.78,0,0,0-23,16.65,30.15,30.15,0,0,0-2.25,4.65,30.15,30.15,0,0,0-2.25-4.65A34.6,34.6,0,0,0,26.32,57a.68.68,0,0,0-.71.28.65.65,0,0,0,0,.75l12.9,22.33a29,29,0,0,0-2.86-1.83,34.39,34.39,0,0,0-17.36-4.69A35.85,35.85,0,0,0,7.32,75.59a.64.64,0,0,0-.47.61.77.77,0,0,0,.33.7L29.51,89.8c-1.13-.1-2.25-.19-3.38-.19A34.7,34.7,0,0,0,.19,101.24a.72.72,0,0,0-.14.75.72.72,0,0,0,.65.43H26.5c-1,.46-2,1-3,1.54A34.71,34.71,0,0,0,6.85,127a.67.67,0,0,0,.28.71.73.73,0,0,0,.75,0l22.33-12.89a27.85,27.85,0,0,0-1.83,2.86,34.32,34.32,0,0,0-4.69,17.35A35.85,35.85,0,0,0,25.43,146a.64.64,0,0,0,.61.47.61.61,0,0,0,.65-.33L48.08,109V355.56h5.63V107l22.61,39.12a.7.7,0,0,0,.71.33.79.79,0,0,0,.61-.47A35.85,35.85,0,0,0,79.37,135a34.66,34.66,0,0,0-4.64-17.35c-.56-1-1.17-1.92-1.83-2.86l22.33,12.9a.63.63,0,0,0,.75,0,.65.65,0,0,0,.28-.7,34.85,34.85,0,0,0-16.65-23c-1-.57-2-1.08-3-1.55h25.8a.72.72,0,0,0,.66-.42A.59.59,0,0,0,103,101.24ZM68.26,79.76A33,33,0,0,1,84.91,75.3a34.06,34.06,0,0,1,8.91,1.22L69.76,90.41l-5.44,3.14-7.79,4.5-3.1,1.79,1.17-2.07,8.12-14A38.71,38.71,0,0,1,68.26,79.76ZM51.6,98.85c-.09-.33-.18-.66-.28-1a33.6,33.6,0,0,1-.7-6.85,34.42,34.42,0,0,1,1-8.12c.19-.84.47-1.69.75-2.53a33.63,33.63,0,0,1,2.72-6A33.11,33.11,0,0,1,75.62,58.75L61.74,82.81l-3.15,5.44L54.09,96l-.56,1-1.65,2.82a5.67,5.67,0,0,0-.23-.85Zm-24-40.1A33.35,33.35,0,0,1,48.13,74.37a33.81,33.81,0,0,1,2.72,6A34.76,34.76,0,0,0,49.16,91c0,.61,0,1.22.05,1.87A37.26,37.26,0,0,0,49.68,97l-.61-1-4.5-7.79-3.15-5.44ZM9.34,76.52a34,34,0,0,1,8.91-1.22,33.1,33.1,0,0,1,22.09,8.4l8.12,14.07,1.17,2.07-3.09-1.79L38.8,93.6l-5.45-3.15ZM2.39,101A33.34,33.34,0,0,1,26.18,91a35,35,0,0,1,6.7.65l14,8.12a36.45,36.45,0,0,0-6-.52A34,34,0,0,0,30.16,101Zm6.24,24.72a33.38,33.38,0,0,1,15.62-20.55,34.47,34.47,0,0,1,6.15-2.76,33.47,33.47,0,0,1,6-1.41,36,36,0,0,1,4.51-.33,28.4,28.4,0,0,1,4.5.33,28.25,28.25,0,0,1,3.47.66c-.05,0-.09,0-.14,0l-.28.1-.28.09c-.52.19-1.08.33-1.6.56a34.92,34.92,0,0,0-13.93,9.43ZM26.36,144a34.06,34.06,0,0,1-1.22-8.91A33.1,33.1,0,0,1,33.54,113a38.19,38.19,0,0,1,4.51-4.23,32.56,32.56,0,0,1,7.78-4.5,21.29,21.29,0,0,1,2.3-.84v2.86Zm47.2-25.61a33,33,0,0,1,4.5,16.65A33.37,33.37,0,0,1,76.84,144l-23-39.82V103a30.52,30.52,0,0,1,3.48,1.22,33.37,33.37,0,0,1,7.83,4.5,34.5,34.5,0,0,1,4.5,4.22A40,40,0,0,1,73.56,118.41ZM79,105.18a33.24,33.24,0,0,1,15.62,20.55L70.51,111.84a34.62,34.62,0,0,0-13.93-9.42H72.76A33.3,33.3,0,0,1,79,105.18ZM73,101H54.23l2.06-1.22,14-8.12A35.18,35.18,0,0,1,77,91a33.08,33.08,0,0,1,23.78,10Z" transform="translate(0 -0.37)"/>
  <path class="cls-1" d="M52.59,195.05l44.05,25.42a34.1,34.1,0,0,0-16.33-22.56,35.46,35.46,0,0,0-6.38-2.86h29.56a34,34,0,0,0-25.43-11.4,33.4,33.4,0,0,0-6.94.71l25.56-14.78A34.07,34.07,0,0,0,69,172.44a33.42,33.42,0,0,0-5.68,4.13L78.06,151a34.08,34.08,0,0,0-22.57,16.32,35.77,35.77,0,0,0-2.86,6.38V144.16a34,34,0,0,0-11.4,25.42,33.4,33.4,0,0,0,.71,6.94,36.33,36.33,0,0,0-5.68-4.12,34,34,0,0,0-27.72-2.86L34.1,184.31A34.19,34.19,0,0,0,1.73,195H31.29a30.51,30.51,0,0,0-6.38,2.86A34,34,0,0,0,8.58,220.43l25.57-14.78A35.75,35.75,0,0,0,30,211.33a34.07,34.07,0,0,0-2.86,27.72l14.78-25.56a34.08,34.08,0,0,0,10.69,32.36Z" transform="translate(0 -0.37)"/>
  <path class="cls-2" d="M104,194.58A34.78,34.78,0,0,0,78.06,183a27.36,27.36,0,0,0-3.38.19L97,170.24a.68.68,0,0,0,.33-.7.78.78,0,0,0-.47-.61,35.66,35.66,0,0,0-10.93-1.74,34.73,34.73,0,0,0-17.36,4.64,32.29,32.29,0,0,0-2.81,1.83l12.9-22.32a.63.63,0,0,0,0-.75.7.7,0,0,0-.7-.29,34.83,34.83,0,0,0-23,16.66c-.57,1-1.08,2-1.55,3v-25.8a.81.81,0,0,0-.42-.66.78.78,0,0,0-.76.14,34.7,34.7,0,0,0-11.63,25.94,36.76,36.76,0,0,0,.38,5.16,35.63,35.63,0,0,0-4.27-2.91,34.84,34.84,0,0,0-17.36-4.64,35.85,35.85,0,0,0-10.93,1.74.64.64,0,0,0-.47.61.68.68,0,0,0,.33.7l22.33,12.9c-1.13-.1-2.25-.19-3.38-.19A34.7,34.7,0,0,0,1.22,194.58a.7.7,0,0,0,.51,1.18H27.54c-1,.46-2,1-3,1.54a34.71,34.71,0,0,0-16.65,23,.68.68,0,0,0,.28.71.73.73,0,0,0,.75,0l22.33-12.9a33.36,33.36,0,0,0-1.83,2.87,34.26,34.26,0,0,0-4.64,17.35,36.15,36.15,0,0,0,1.73,10.93.66.66,0,0,0,.61.47.67.67,0,0,0,.66-.33l12.9-22.33c-.09,1.13-.14,2.26-.14,3.38a34.7,34.7,0,0,0,11.63,25.94.75.75,0,0,0,.76.14.74.74,0,0,0,.42-.66V202.18a189.27,189.27,0,0,1,22.19,88.89V436h5.63V291.07A194.92,194.92,0,0,0,58,199l38.28,22.09a.63.63,0,0,0,.75,0,.73.73,0,0,0,.28-.7,34.76,34.76,0,0,0-16.65-23c-1-.56-2-1.08-3-1.55h25.81a.7.7,0,0,0,.65-.42A1.12,1.12,0,0,0,104,194.58ZM69.29,173.1a33.09,33.09,0,0,1,16.65-4.46,33.5,33.5,0,0,1,8.91,1.22L70.79,183.75l-5.4,3.14-7.78,4.5-3,1.79,1.17-2.07,8.12-14A28.52,28.52,0,0,1,69.29,173.1Zm-13.23-5.39a33.08,33.08,0,0,1,20.55-15.62L62.72,176.15l-3.14,5.44-4.51,7.79-1.78,3.05V173.8A34.88,34.88,0,0,1,56.06,167.71Zm-4.83,24.9c-.24-.23-.52-.51-.75-.7a32.86,32.86,0,0,1-7.23-13.13c-.23-.85-.42-1.69-.61-2.54a33.63,33.63,0,0,1-.65-6.56A33,33,0,0,1,52,145.9v47.42C51.7,193.08,51.41,192.8,51.23,192.61ZM10.32,169.82a33.32,33.32,0,0,1,25.57,3.23,30.07,30.07,0,0,1,5.34,3.85,34.55,34.55,0,0,0,4.84,11.63,29.37,29.37,0,0,0,2.48,3.33l-1-.61-7.79-4.5-5.44-3.14ZM3.38,194.35a33.31,33.31,0,0,1,23.78-10,35.18,35.18,0,0,1,6.71.65l14,8.12L50,194.3H3.38Zm6.24,24.72a33.24,33.24,0,0,1,15.62-20.55,31.17,31.17,0,0,1,6.14-2.76H47.61a34.45,34.45,0,0,0-13.88,9.42ZM27.4,237.31a33.65,33.65,0,0,1-1.22-8.91,33,33,0,0,1,4.5-16.65,30.58,30.58,0,0,1,3.94-5.44,34.93,34.93,0,0,1,4.5-4.22,32.52,32.52,0,0,1,7.79-4.51c1.08-.42,2.21-.84,3.33-1.17-.56.56-1.08,1.17-1.59,1.78a35,35,0,0,0-7.37,15.11Zm24.48,6.94a33.35,33.35,0,0,1-10-23.78,35.07,35.07,0,0,1,.66-6.7,34.05,34.05,0,0,1,1.78-5.91,32,32,0,0,1,4.5-7.79c.61-.8,1.32-1.59,2-2.34a7.08,7.08,0,0,1,.47.84,8.8,8.8,0,0,1,.52.94v44.74Zm28.06-45.73a33.28,33.28,0,0,1,15.62,20.55L56.67,196.65c-.14-.28-.33-.57-.47-.85s-.33-.56-.47-.84c1-.24,2-.42,3-.56a35.14,35.14,0,0,1,9,0,34.65,34.65,0,0,1,6.05,1.4A28.91,28.91,0,0,1,79.94,198.52Zm-5.87-4.17a34.16,34.16,0,0,0-10.79-1.69,36.45,36.45,0,0,0-6,.52l14-8.12A31.56,31.56,0,0,1,78,184.4a33.06,33.06,0,0,1,23.79,10H74.07Z" transform="translate(0 -0.37)"/>
</svg>
