<svg width="244" height="164" viewBox="0 0 244 164" fill="none" xmlns="http://www.w3.org/2000/svg">
<path d="M226.012 17.556L241.069 26.2063C240.412 23.0781 238.472 20.2532 235.489 18.5296C234.783 18.1306 234.046 17.7954 233.308 17.556H243.411C241.278 15.178 238.167 13.6778 234.719 13.6778C233.901 13.6778 233.1 13.7576 232.346 13.9172L241.085 8.88978C238.039 7.90027 234.607 8.13966 231.608 9.86333C230.903 10.2623 230.261 10.7411 229.668 11.2678L234.719 2.56965C231.576 3.224 228.738 5.15515 227.006 8.1237C226.605 8.82593 226.268 9.5601 226.028 10.2943V0.239502C223.638 2.36217 222.131 5.4584 222.131 8.88978C222.131 9.70374 222.211 10.5017 222.372 11.2518C221.778 10.7252 221.137 10.2623 220.431 9.84738C217.433 8.1237 214.001 7.8843 210.954 8.87381L219.694 13.9012C218.924 13.7416 218.122 13.6618 217.32 13.6618C213.873 13.6618 210.762 15.162 208.629 17.54H218.731C217.978 17.7794 217.256 18.0987 216.551 18.5136C213.552 20.2373 211.628 23.0781 210.97 26.1903L219.71 21.163C219.18 21.7535 218.715 22.3919 218.299 23.0941C216.567 26.0786 216.326 29.494 217.32 32.5264L222.372 23.8283C222.211 24.5943 222.131 25.3923 222.131 26.1903C222.131 29.6217 223.638 32.7179 226.028 34.8406L226.012 17.556Z" fill="#88BE55"/>
<path d="M243.572 17.3963C241.391 14.9704 238.232 13.4383 234.704 13.4383C234.319 13.4383 233.935 13.4542 233.55 13.5021L241.183 9.11311C241.263 9.06523 241.311 8.96947 241.295 8.87372C241.279 8.77796 241.215 8.69816 241.135 8.66624C239.932 8.26724 238.681 8.07572 237.398 8.07572C235.378 8.07572 233.325 8.58644 231.465 9.65575C231.128 9.84727 230.808 10.0547 230.487 10.2782L234.897 2.68127C234.945 2.60147 234.945 2.50571 234.881 2.42591C234.817 2.34611 234.736 2.31419 234.64 2.33015C231.433 3.00047 228.53 4.96354 226.767 7.99592C226.574 8.33108 226.398 8.6822 226.237 9.01736V0.239403C226.237 0.143644 226.189 0.0638402 226.093 0.0159604C226.013 -0.0159594 225.901 -1.44595e-06 225.836 0.0638382C223.399 2.23439 221.86 5.39446 221.86 8.88968C221.86 9.4802 221.908 10.0707 221.988 10.6453C221.539 10.2782 221.042 9.95899 220.529 9.65575C218.652 8.58644 216.616 8.07572 214.595 8.07572C213.329 8.07572 212.062 8.2832 210.859 8.66624C210.763 8.69816 210.699 8.77796 210.699 8.87372C210.683 8.96947 210.731 9.06523 210.811 9.11311L218.444 13.5021C218.059 13.4702 217.674 13.4383 217.289 13.4383C213.761 13.4383 210.602 14.9704 208.422 17.3963C208.357 17.4602 208.341 17.5719 208.373 17.6517C208.406 17.7315 208.502 17.7953 208.598 17.7953H217.418C217.065 17.9549 216.728 18.1305 216.391 18.322C213.345 20.0776 211.356 22.9823 210.699 26.1583C210.683 26.2541 210.715 26.3498 210.795 26.3977C210.875 26.4615 210.971 26.4615 211.051 26.4137L218.684 22.0247C218.46 22.3279 218.252 22.6631 218.059 22.9823C216.985 24.8496 216.456 26.8925 216.456 28.8875C216.456 30.1483 216.664 31.4091 217.049 32.6061C217.081 32.7019 217.161 32.7657 217.257 32.7657C217.354 32.7817 217.45 32.7338 217.498 32.654L221.908 25.0571C221.876 25.4401 221.844 25.8232 221.844 26.2062C221.844 29.7174 223.383 32.8615 225.82 35.032C225.885 35.0959 225.997 35.1118 226.077 35.0799C226.157 35.048 226.221 34.9522 226.221 34.8565V19.9659C231.192 29.2705 233.806 39.6444 233.806 50.2099V144.597H235.731V50.2099C235.731 39.2774 233.004 28.5204 227.825 18.8965L240.91 26.4137C240.99 26.4615 241.087 26.4615 241.167 26.3977C241.247 26.3498 241.279 26.2541 241.263 26.1583C240.589 22.9663 238.617 20.0776 235.57 18.322C235.233 18.1305 234.897 17.9549 234.544 17.7953H243.364C243.46 17.7953 243.54 17.7474 243.588 17.6517C243.652 17.5719 243.636 17.4761 243.572 17.3963ZM231.706 10.0867C233.502 9.04928 235.458 8.57048 237.398 8.57048C238.425 8.57048 239.451 8.71412 240.445 8.98544L232.219 13.7096L230.359 14.7789L227.697 16.311L226.638 16.9175L227.039 16.2153L229.813 11.4433C230.407 10.9326 231.032 10.4857 231.706 10.0867ZM226.253 15.8482V10.342C226.494 9.62383 226.799 8.93756 227.2 8.25128C228.787 5.50618 231.369 3.67078 234.223 2.93662L229.477 11.1241L228.402 12.9754L226.863 15.6248L226.253 16.6781V15.8482V15.8482ZM225.516 16.71C225.436 16.6302 225.355 16.5504 225.275 16.4866C224.137 15.2258 223.271 13.6936 222.806 12.0178C222.726 11.7305 222.661 11.4433 222.597 11.156C222.453 10.4378 222.373 9.68767 222.373 8.92159C222.373 5.74557 223.672 2.88875 225.788 0.829922V10.2782V12.4168V15.4492V15.8482V16.9494C225.724 16.8856 225.644 16.8058 225.58 16.742L225.516 16.71ZM211.549 8.98544C212.543 8.71412 213.569 8.57048 214.595 8.57048C216.536 8.57048 218.492 9.06524 220.288 10.0867C220.962 10.4697 221.571 10.9006 222.116 11.3954C222.421 12.8318 222.998 14.1724 223.768 15.3534C224.024 15.7524 224.313 16.1355 224.618 16.5026L224.265 16.2951L221.603 14.7629L219.743 13.6936L211.549 8.98544ZM209.175 17.3165C211.244 15.2258 214.13 13.9171 217.305 13.9171C218.091 13.9171 218.861 13.9968 219.599 14.1405L224.393 16.9016L225.099 17.3006H223.88H220.801H218.668H209.175V17.3165ZM211.308 25.7274C212.046 22.8865 213.89 20.3329 216.648 18.7369C217.321 18.3379 218.027 18.0347 218.749 17.7953H224.297C222.501 18.4497 220.865 19.5349 219.534 21.0033L211.308 25.7274ZM217.386 31.9518C217.113 30.9622 216.969 29.9408 216.969 28.9194C216.969 26.9882 217.466 25.0411 218.492 23.2536C218.877 22.5833 219.326 21.9608 219.839 21.4023C220.32 20.8756 220.833 20.3968 221.378 19.9659C222.196 19.3275 223.094 18.8167 224.04 18.4337C224.409 18.2741 224.794 18.1464 225.179 18.0347C224.987 18.2262 224.81 18.4337 224.634 18.6412C223.399 20.0935 222.533 21.8491 222.116 23.7803L217.386 31.9518ZM225.772 34.2979C223.672 32.239 222.357 29.3663 222.357 26.2062C222.357 25.4242 222.437 24.6581 222.581 23.9239C222.726 23.2217 222.934 22.5514 223.191 21.913C223.575 20.9554 224.105 20.0616 224.73 19.2636C224.938 18.9923 225.163 18.721 225.403 18.4656C225.516 18.6731 225.644 18.8806 225.756 19.0721V34.2979H225.772ZM235.362 18.7369C238.12 20.317 239.964 22.8865 240.702 25.7274L227.408 18.0985C227.296 17.907 227.183 17.7155 227.071 17.508C227.408 17.4282 227.761 17.3644 228.114 17.3165C228.627 17.2527 229.14 17.2048 229.653 17.2048C230.166 17.2048 230.679 17.2367 231.192 17.3165C231.882 17.4123 232.571 17.5719 233.245 17.7953C233.983 18.0347 234.672 18.3539 235.362 18.7369ZM233.341 17.3165C232.139 16.9175 230.888 16.726 229.669 16.726C228.979 16.726 228.29 16.7898 227.616 16.9016L232.411 14.1405C233.149 13.9968 233.918 13.9171 234.704 13.9171C237.895 13.9171 240.766 15.2098 242.834 17.3165H233.341Z" fill="#54362C"/>
<path d="M218.09 78.1399C217.384 77.7409 216.647 77.4057 215.909 77.1663H226.012C223.879 74.7883 220.768 73.288 217.32 73.288C216.503 73.288 215.701 73.3678 214.947 73.5274L223.687 68.5001C220.64 67.5106 217.208 67.7499 214.209 69.4736C213.504 69.8726 212.862 70.3514 212.269 70.8781L217.32 62.1799C214.177 62.8343 211.339 64.7654 209.607 67.734C209.206 68.4362 208.869 69.1704 208.629 69.9045C208.388 69.1544 208.068 68.4362 207.651 67.734C205.919 64.7495 203.064 62.8343 199.938 62.1799L204.989 70.8781C204.395 70.3514 203.754 69.8886 203.048 69.4736C200.05 67.7499 196.618 67.5106 193.571 68.5001L202.311 73.5274C201.541 73.3678 200.739 73.288 199.938 73.288C196.49 73.288 193.379 74.7883 191.246 77.1663H201.349C200.595 77.4057 199.873 77.7249 199.168 78.1399C196.169 79.8635 194.245 82.7044 193.587 85.8166L202.327 80.7892C201.798 81.3797 201.333 82.0181 200.916 82.7204C199.184 85.7049 198.943 89.1203 199.938 92.1527L208.629 77.1663L217.32 92.1527C218.315 89.1203 218.074 85.7049 216.342 82.7204C215.941 82.0181 215.46 81.3797 214.931 80.7892L223.671 85.8166C223.013 82.6884 221.089 79.8476 218.09 78.1399ZM208.613 77.1663C208.629 77.1663 208.629 77.1663 208.613 77.1663V77.1663Z" fill="#88BE55"/>
<path d="M226.189 77.0067C224.008 74.5808 220.849 73.0486 217.321 73.0486C216.936 73.0486 216.551 73.0646 216.166 73.0965L223.8 68.7075C223.88 68.6596 223.928 68.5639 223.912 68.4681C223.896 68.3724 223.832 68.2926 223.751 68.2606C222.549 67.8616 221.298 67.6701 220.015 67.6701C217.995 67.6701 215.942 68.1808 214.082 69.2661C213.745 69.4576 213.424 69.6651 213.104 69.8886L217.513 62.2916C217.562 62.2118 217.562 62.1001 217.497 62.0363C217.449 61.9565 217.353 61.9246 217.257 61.9405C214.066 62.6108 211.147 64.5739 209.383 67.6063C209.079 68.117 208.822 68.6596 208.614 69.1863C208.405 68.6437 208.149 68.117 207.844 67.6063C206.08 64.5739 203.161 62.5949 199.97 61.9405C199.874 61.9246 199.778 61.9565 199.73 62.0363C199.682 62.1161 199.666 62.2118 199.714 62.2916L204.124 69.8886C203.819 69.6651 203.482 69.4576 203.145 69.2661C201.269 68.1808 199.233 67.6701 197.212 67.6701C195.945 67.6701 194.678 67.8776 193.476 68.2606C193.38 68.2926 193.315 68.3724 193.315 68.4681C193.299 68.5639 193.348 68.6596 193.444 68.7075L201.077 73.0965C200.692 73.0646 200.307 73.0486 199.922 73.0486C196.394 73.0486 193.235 74.5808 191.054 77.0067C190.99 77.0705 190.974 77.1822 191.006 77.262C191.038 77.3418 191.135 77.4057 191.231 77.4057H200.05C199.698 77.5653 199.361 77.7408 199.024 77.9324C195.977 79.6879 193.989 82.5767 193.331 85.7687C193.315 85.8644 193.348 85.9602 193.428 86.0081C193.508 86.0719 193.604 86.0719 193.684 86.024L201.317 81.635C201.093 81.9383 200.884 82.2575 200.692 82.6086C199.618 84.4759 199.104 86.5028 199.104 88.5138C199.104 89.7746 199.313 91.0354 199.698 92.2324C199.73 92.3282 199.81 92.392 199.906 92.392C200.002 92.408 200.099 92.3601 200.131 92.2803L207.443 79.672V163.557H209.367V78.9697L217.097 92.2803C217.145 92.3601 217.241 92.408 217.321 92.392C217.417 92.3761 217.497 92.3122 217.53 92.2324C217.93 91.0354 218.123 89.7906 218.123 88.5138C218.123 86.5028 217.61 84.46 216.519 82.6086C216.327 82.2735 216.118 81.9542 215.894 81.635L223.527 86.024C223.607 86.0719 223.719 86.0719 223.783 86.0081C223.864 85.9602 223.896 85.8644 223.88 85.7687C223.206 82.5926 221.234 79.6879 218.187 77.9324C217.85 77.7408 217.513 77.5653 217.161 77.4057H225.98C226.077 77.4057 226.157 77.3578 226.205 77.262C226.269 77.1822 226.253 77.0705 226.189 77.0067ZM214.322 69.697C216.118 68.6596 218.091 68.1808 220.015 68.1808C221.057 68.1808 222.084 68.3245 223.062 68.5958L214.835 73.3199L212.991 74.3893L210.313 75.9214L209.271 76.5279L209.672 75.8257L212.446 71.0536C213.023 70.527 213.649 70.0801 214.322 69.697ZM208.614 76.1448C208.582 76.0331 208.565 75.9693 208.517 75.8735C208.357 75.1074 208.277 74.3254 208.277 73.5434C208.277 72.6177 208.389 71.692 208.63 70.7823C208.694 70.495 208.79 70.2078 208.886 69.9205C209.127 69.2182 209.431 68.532 209.816 67.8776C211.404 65.1325 213.97 63.2971 216.84 62.563L212.093 70.7504L211.019 72.5858L209.48 75.2351L209.271 75.5863L208.71 76.5438C208.694 76.4481 208.662 76.3523 208.63 76.2566L208.614 76.1448ZM200.419 62.531C203.274 63.2652 205.839 65.1006 207.443 67.8457C207.828 68.516 208.133 69.1863 208.373 69.8886C207.988 71.0696 207.796 72.2985 207.796 73.5115C207.796 73.7189 207.796 73.9264 207.812 74.1339C207.828 74.6127 207.892 75.0755 207.972 75.5384L207.78 75.2032L206.24 72.5539L205.166 70.7025L200.419 62.531ZM194.165 68.5798C195.16 68.3085 196.186 68.1649 197.212 68.1649C199.152 68.1649 201.109 68.6596 202.905 69.6811C203.578 70.0641 204.204 70.5269 204.781 71.0217L207.555 75.7937L207.956 76.496L206.914 75.9055L204.236 74.3733L202.392 73.304L194.165 68.5798ZM191.792 76.9269C193.861 74.8361 196.747 73.5274 199.922 73.5274C200.708 73.5274 201.478 73.6072 202.215 73.7509L207.01 76.5119C206.337 76.4002 205.647 76.3364 204.957 76.3364C203.723 76.3364 202.488 76.5279 201.285 76.9269H191.792V76.9269ZM193.925 85.3378C194.662 82.4969 196.507 79.9433 199.265 78.3473C199.938 77.9643 200.644 77.6451 201.365 77.4057C202.039 77.1822 202.744 77.0226 203.434 76.9269C203.947 76.863 204.46 76.8152 204.973 76.8152C205.487 76.8152 206 76.8471 206.513 76.9269C206.914 76.9747 207.315 77.0546 207.7 77.1503C207.684 77.1503 207.667 77.1663 207.651 77.1663H207.475V77.2301C207.299 77.294 207.106 77.3418 206.93 77.4057C205.134 78.06 203.498 79.1453 202.167 80.6136L193.925 85.3378ZM200.002 91.5462C199.73 90.5567 199.585 89.5352 199.585 88.5138C199.585 86.5826 200.083 84.6355 201.125 82.848C201.51 82.1777 201.975 81.5552 202.472 80.9966C202.953 80.47 203.466 79.9752 204.027 79.5603C204.845 78.9219 205.743 78.4111 206.689 78.0281C206.946 77.9164 207.202 77.8366 207.475 77.7408V78.7144L200.002 91.5462ZM216.134 82.832C217.177 84.6196 217.658 86.5667 217.658 88.4978C217.658 89.5352 217.513 90.5407 217.241 91.5302L209.383 77.9802V77.5812C209.784 77.693 210.185 77.8366 210.57 77.9962C211.516 78.3792 212.414 78.8899 213.232 79.5283C213.793 79.9593 214.306 80.4381 214.787 80.9647C215.284 81.5393 215.733 82.1617 216.134 82.832ZM217.979 78.3473C220.737 79.9273 222.581 82.4969 223.318 85.3378L215.092 80.6136C213.777 79.1453 212.125 78.06 210.329 77.4057H215.878C216.583 77.6451 217.289 77.9483 217.979 78.3473ZM215.958 76.9269H213.809H210.746H209.528L210.233 76.5279L215.028 73.7668C215.766 73.6232 216.535 73.5434 217.321 73.5434C220.512 73.5434 223.383 74.8361 225.451 76.9428H215.958V76.9269Z" fill="#54362C"/>
<path d="M32.6963 70.8623C32.0388 67.7341 30.0985 64.9092 27.1158 63.1856C26.4103 62.7866 25.6726 62.4514 24.935 62.212H35.0375C32.9048 59.834 29.7938 58.3338 26.3461 58.3338C25.5283 58.3338 24.7265 58.4136 23.9728 58.5732L32.7123 53.5458C29.6655 52.5563 26.2339 52.7957 23.2352 54.5193C22.5296 54.9183 21.8882 55.3971 21.2948 55.9238L26.3461 47.2257C23.2031 47.88 20.3648 49.8112 18.6329 52.7797C18.232 53.4819 17.8952 54.2161 17.6547 54.9503V44.8955C15.2654 47.0182 13.758 50.1144 13.758 53.5458C13.758 54.3597 13.8382 55.1577 13.9985 55.9079C13.4052 55.3812 12.7638 54.9183 12.0582 54.5034C9.05952 52.7797 5.62786 52.5403 2.58105 53.5298L11.3206 58.5572C10.5508 58.3976 9.74906 58.3178 8.94727 58.3178C5.49957 58.3178 2.38862 59.818 0.255859 62.1961H10.3584C9.60474 62.4355 8.88313 62.7547 8.17755 63.1696C5.17886 64.8933 3.25456 67.7341 2.59709 70.8463L11.3366 65.819C10.8074 66.4095 10.3424 67.0479 9.92546 67.7501C8.19359 70.7346 7.95305 74.15 8.94727 77.1824L13.9985 68.4843C13.8382 69.2504 13.758 70.0483 13.758 70.8463C13.758 74.2777 15.2654 77.3739 17.6547 79.4966V62.212L32.6963 70.8623Z" fill="#88BE55"/>
<path d="M35.2146 62.0523C33.0338 59.6264 29.8587 58.0942 26.3468 58.0942C25.962 58.0942 25.5771 58.1102 25.1923 58.1421L32.8253 53.7531C32.9055 53.7053 32.9536 53.6095 32.9376 53.5137C32.9215 53.418 32.8574 53.3382 32.7772 53.3063C31.5745 52.9073 30.3237 52.7158 29.0408 52.7158C27.0203 52.7158 24.9678 53.2265 23.1076 54.3117C22.7708 54.5033 22.4501 54.7107 22.1294 54.9342L26.5393 47.3373C26.5874 47.2575 26.5874 47.1457 26.5232 47.0819C26.4591 47.0021 26.3789 46.9702 26.2827 46.9861C23.0755 47.6565 20.173 49.6195 18.4091 52.6519C18.2167 52.9871 18.0403 53.3382 17.8799 53.6733V44.8954C17.8799 44.7996 17.8318 44.7198 17.7356 44.6719C17.6554 44.6241 17.5432 44.64 17.479 44.7198C15.0416 46.8904 13.5022 50.0345 13.5022 53.5457C13.5022 54.1362 13.5503 54.7267 13.6304 55.3013C13.1814 54.9342 12.6843 54.615 12.1712 54.3117C10.295 53.2424 8.24241 52.7158 6.23794 52.7158C4.97111 52.7158 3.70427 52.9232 2.50158 53.3063C2.40537 53.3382 2.34123 53.418 2.34123 53.5137C2.32519 53.6095 2.3733 53.7053 2.45348 53.7531L10.0865 58.1421C9.70167 58.1102 9.31681 58.0942 8.93195 58.0942C5.40407 58.0942 2.24502 59.6264 0.064149 62.0523C5.80176e-06 62.1161 -0.0160378 62.2279 0.0160338 62.3077C0.0481054 62.3875 0.144324 62.4513 0.240539 62.4513H9.06023C8.70745 62.6109 8.37069 62.7865 8.03394 62.978C4.98713 64.7336 2.99869 67.6383 2.34123 70.8143C2.32519 70.9101 2.35727 71.0058 2.43745 71.0537C2.51763 71.1016 2.61384 71.1175 2.69402 71.0697L10.3271 66.6807C10.1026 66.9839 9.8941 67.3191 9.70167 67.6542C8.61123 69.5215 8.09809 71.5485 8.09809 73.5594C8.09809 74.8202 8.30655 76.0811 8.69141 77.2781C8.72348 77.3738 8.80366 77.4377 8.89988 77.4377C8.99609 77.4536 9.09231 77.4057 9.14041 77.3259L13.5503 69.729C13.5182 70.1121 13.4861 70.4951 13.4861 70.8781C13.4861 74.3893 15.0256 77.5334 17.463 79.704C17.5271 79.7678 17.6394 79.7838 17.7196 79.7519C17.7998 79.7199 17.8639 79.6242 17.8639 79.5284V64.6059C24.5989 76.9589 28.1428 90.7961 28.1428 104.873V156.727H30.0671V104.873C30.0671 90.4291 26.427 76.2247 19.4835 63.5685L32.5687 71.0856C32.6489 71.1335 32.7612 71.1335 32.8253 71.0697C32.9055 71.0218 32.9376 70.926 32.9215 70.8303C32.248 67.6542 30.2756 64.7495 27.2288 62.9939C26.8921 62.8024 26.5553 62.6269 26.2025 62.4673H35.0222C35.1184 62.4673 35.1986 62.4034 35.2467 62.3236C35.2948 62.2438 35.2627 62.1161 35.2146 62.0523ZM23.3481 54.7427C25.1441 53.7053 27.1166 53.2105 29.0408 53.2105C30.0832 53.2105 31.1095 53.3542 32.0877 53.6255L23.8613 58.3496L22.0172 59.4189L19.3392 60.9511L18.2969 61.5576L18.6978 60.8553L21.472 56.0833C22.0492 55.5885 22.6586 55.1257 23.3481 54.7427ZM18.826 52.9073C20.4136 50.1622 22.9954 48.3268 25.8497 47.5926L21.1031 55.7801L20.0287 57.6154L18.4893 60.2648L17.8799 61.3182V60.5042V54.9821C18.1205 54.2798 18.4412 53.5776 18.826 52.9073ZM17.1583 61.366C17.0781 61.2862 16.9819 61.2064 16.9017 61.1266C15.7632 59.8658 14.9133 58.3336 14.4322 56.6579C14.3521 56.3706 14.2879 56.0833 14.2238 55.796C14.0794 55.0778 13.9993 54.3277 13.9993 53.5616C13.9993 50.3856 15.2982 47.5288 17.4149 45.4699V54.9182V57.0569V60.1212V60.5202V61.6214C17.3507 61.5575 17.2706 61.4777 17.2064 61.4139L17.1583 61.366ZM3.19113 53.6255C4.18535 53.3542 5.21164 53.2105 6.23794 53.2105C8.17827 53.2105 10.1346 53.7053 11.9306 54.7427C12.6042 55.1257 13.2135 55.5726 13.7748 56.0514C14.0794 57.4878 14.6567 58.8284 15.4265 60.0094C15.683 60.4084 15.9717 60.7915 16.2763 61.1426L15.9236 60.9351L13.2616 59.403L11.4175 58.3336L3.19113 53.6255ZM0.817824 61.9725C2.88644 59.8818 5.77289 58.573 8.94798 58.573C9.73374 58.573 10.5035 58.6528 11.2411 58.7965L16.0358 61.5735L16.7414 61.9725H15.5227H12.4438H10.295H0.817824ZM2.95059 70.3834C3.68824 67.5425 5.53236 64.9889 8.29052 63.3929C8.96402 63.0099 9.66959 62.6907 10.3912 62.4513H15.9236C14.1275 63.1057 12.4919 64.1909 11.177 65.6433L2.95059 70.3834ZM9.02816 76.5918C8.75555 75.6023 8.61123 74.5808 8.61123 73.5594C8.61123 71.6283 9.10834 69.6811 10.1346 67.8936C10.5195 67.2233 10.9845 66.6009 11.4816 66.0423C11.9627 65.4996 12.4759 65.0209 13.0371 64.6059C13.8549 63.9835 14.7529 63.4727 15.683 63.0737C16.0518 62.9301 16.4367 62.7865 16.8216 62.6747C16.6291 62.8663 16.4527 63.0737 16.2763 63.2812C15.0576 64.7336 14.1757 66.4892 13.7587 68.4203L9.02816 76.5918ZM17.3989 78.9539C15.2982 76.895 13.9832 74.0222 13.9832 70.8622C13.9832 70.0801 14.0634 69.3141 14.2077 68.5799C14.352 67.8777 14.5605 67.2074 14.8171 66.569C15.202 65.6114 15.7311 64.7176 16.3565 63.9196C16.565 63.6483 16.7895 63.377 17.03 63.1216C17.1423 63.3291 17.2545 63.5206 17.3828 63.7281V78.9539H17.3989ZM26.9883 63.3929C29.7464 64.973 31.5905 67.5425 32.3282 70.3834L19.0345 62.7545C18.9223 62.563 18.81 62.3715 18.6978 62.18C19.0345 62.1002 19.3873 62.0363 19.7401 61.9885C20.2532 61.9246 20.7664 61.8768 21.2795 61.8768C21.7927 61.8768 22.3058 61.9087 22.8029 61.9885C23.4925 62.0842 24.198 62.2438 24.8715 62.4673C25.6092 62.6907 26.3148 62.9939 26.9883 63.3929ZM24.9678 61.9725C23.7651 61.5735 22.5143 61.382 21.2956 61.382C20.606 61.382 19.9165 61.4458 19.243 61.5576L24.0377 58.7965C24.7753 58.6369 25.545 58.573 26.3308 58.573C29.5219 58.573 32.3923 59.8658 34.461 61.9725H24.9678Z" fill="#54362C"/>
<path d="M17.6387 20.3651L32.6963 29.0154C32.0388 25.8872 30.0985 23.0623 27.1158 21.3387C26.4103 20.9397 25.6726 20.6045 24.935 20.3651H35.0375C32.9048 17.9871 29.7938 16.4868 26.3461 16.4868C25.5283 16.4868 24.7265 16.5666 23.9728 16.7262L32.7123 11.6989C29.6655 10.7093 26.2339 10.9487 23.2352 12.6724C22.5296 13.0714 21.8882 13.5502 21.2948 14.0769L26.3461 5.37874C23.2031 6.03309 20.3648 7.96424 18.6329 10.9328C18.232 11.635 17.8952 12.3692 17.6547 13.1033V3.04858C15.2654 5.17125 13.758 8.26748 13.758 11.6989C13.758 12.5128 13.8382 13.3108 13.9985 14.0609C13.4052 13.5343 12.7638 13.0714 12.0582 12.6565C9.05952 10.9328 5.62786 10.6934 2.58105 11.6829L11.3206 16.7103C10.5508 16.5507 9.74906 16.4709 8.94727 16.4709C5.49957 16.4709 2.38862 17.9711 0.255859 20.3491H10.3584C9.60474 20.5885 8.88313 20.9077 8.17755 21.3227C5.17886 23.0464 3.25456 25.8872 2.59709 28.9994L11.3366 23.972C10.8074 24.5626 10.3424 25.201 9.92546 25.9032C8.19359 28.8877 7.95305 32.3031 8.94727 35.3355L13.9985 26.6373C13.8382 27.4034 13.758 28.2014 13.758 28.9994C13.758 32.4308 15.2654 35.527 17.6547 37.6497L17.6387 20.3651Z" fill="#88BE55"/>
<path d="M26.1865 30.1644L20.1089 22.0567L32.5687 29.2227C32.6489 29.2706 32.7612 29.2706 32.8253 29.2068C32.9055 29.1589 32.9375 29.0631 32.9215 28.9674C32.248 25.7754 30.2756 22.8867 27.2288 21.1311C26.892 20.9395 26.5553 20.764 26.2025 20.6044H35.0222C35.1184 20.6044 35.1986 20.5565 35.2467 20.4608C35.2788 20.381 35.2627 20.2692 35.1986 20.2054C33.0338 17.7795 29.8587 16.2473 26.3308 16.2473C25.9459 16.2473 25.5611 16.2633 25.1762 16.2952L32.8093 11.9062C32.8894 11.8583 32.9375 11.7626 32.9215 11.6668C32.9055 11.5711 32.8413 11.4913 32.7612 11.4594C31.5585 11.0763 30.3077 10.8688 29.0248 10.8688C27.0043 10.8688 24.9517 11.3796 23.0916 12.4648C22.7548 12.6563 22.4341 12.8638 22.1294 13.0873L26.5393 5.49034C26.5874 5.41054 26.5874 5.31479 26.5232 5.23499C26.4591 5.15519 26.3789 5.12327 26.2827 5.13923C23.0755 5.80955 20.173 7.77262 18.4091 10.805C18.2167 11.1402 18.0403 11.4913 17.8799 11.8264V3.04848C17.8799 2.95272 17.8318 2.87292 17.7356 2.82504C17.6554 2.79312 17.5432 2.80908 17.479 2.87292C15.0416 5.04347 13.5022 8.20353 13.5022 11.6988C13.5022 12.2893 13.5503 12.8798 13.6304 13.4543C13.1814 13.0873 12.6843 12.7681 12.1712 12.4648C10.295 11.3955 8.24241 10.8688 6.23793 10.8688C4.97111 10.8688 3.70427 11.0763 2.50158 11.4594C2.40537 11.4913 2.34123 11.5711 2.34123 11.6668C2.32519 11.7626 2.3733 11.8583 2.45348 11.9062L10.0865 16.2952C9.70167 16.2633 9.31681 16.2473 8.93195 16.2473C5.40407 16.2473 2.24502 17.7795 0.064149 20.2054C5.80176e-06 20.2692 -0.0160378 20.381 0.0160338 20.4608C0.0481054 20.5406 0.144324 20.6044 0.240539 20.6044H9.06023C8.70745 20.764 8.37069 20.9395 8.03394 21.1311C4.98713 22.8867 2.99869 25.7754 2.34123 28.9674C2.32519 29.0631 2.35727 29.1589 2.43745 29.2068C2.51763 29.2547 2.61384 29.2706 2.69402 29.2227L10.3271 24.8338C10.1026 25.137 9.89409 25.4722 9.70167 25.8073C8.61123 27.6746 8.09808 29.7015 8.09808 31.7125C8.09808 32.9733 8.30655 34.2342 8.69141 35.4312C8.72348 35.5269 8.80366 35.5908 8.89987 35.5908C8.99609 35.6067 9.0923 35.5588 9.14041 35.479L13.5503 27.8821C13.5182 28.2652 13.4861 28.6482 13.4861 29.0312C13.4861 32.5424 15.0256 35.6865 17.463 37.8571C17.5271 37.9209 17.6394 37.9369 17.7196 37.9049C17.7997 37.873 17.8639 37.7773 17.8639 37.6815V22.2961L24.631 31.3135C31.7349 40.7937 35.5674 52.2848 35.5674 64.1111V157.477H37.4917V64.1111C37.5078 51.8699 33.5469 39.9638 26.1865 30.1644ZM26.9883 21.546C29.7464 23.1261 31.5905 25.6956 32.3282 28.5365L19.3713 21.0991L18.7779 20.3012C19.0986 20.2373 19.4194 20.1735 19.7401 20.1256C20.2532 20.0617 20.7664 20.0139 21.2795 20.0139C21.7927 20.0139 22.3058 20.0458 22.819 20.1256C23.5085 20.2213 24.198 20.3809 24.8715 20.6044C25.6092 20.8438 26.3148 21.147 26.9883 21.546ZM26.3308 16.7261C29.5219 16.7261 32.3923 18.0189 34.461 20.1256H24.9678C23.7651 19.7266 22.5143 19.5351 21.2795 19.5351C20.59 19.5351 19.9165 19.5989 19.2269 19.7106L24.0216 16.9496C24.7914 16.8059 25.545 16.7261 26.3308 16.7261ZM23.3481 12.8957C25.1441 11.8584 27.1165 11.3796 29.0408 11.3796C30.0832 11.3796 31.1095 11.5232 32.0876 11.7945L23.8613 16.5186L22.0011 17.588L19.3232 19.1201L18.2808 19.7266L18.6817 19.0244L21.4559 14.2523C22.0492 13.7257 22.6746 13.2788 23.3481 12.8957ZM17.8799 18.6573V13.1351C18.1205 12.4169 18.4412 11.7307 18.826 11.0444C20.4136 8.29929 22.9954 6.4639 25.8497 5.72974L21.1031 13.9172L20.0287 15.7685L18.4893 18.4179L17.8799 19.4553V18.6573V18.6573ZM17.1583 19.5191C17.0781 19.4393 16.998 19.3595 16.9017 19.2957C15.7632 18.0348 14.9133 16.5186 14.4322 14.8269C14.352 14.5396 14.2879 14.2523 14.2238 13.9651C14.0794 13.2469 13.9993 12.4968 13.9993 11.7307C13.9993 8.55465 15.2982 5.69782 17.4149 3.63899V13.0873V15.2259V18.2902V18.6892V19.7904C17.3507 19.7266 17.2706 19.6468 17.2064 19.583L17.1583 19.5191ZM3.19113 11.7786C4.18535 11.5072 5.21164 11.3636 6.23793 11.3636C8.17827 11.3636 10.1346 11.8584 11.9306 12.8798C12.6042 13.2628 13.2135 13.7097 13.7748 14.1885C14.0794 15.6249 14.6567 16.9655 15.4265 18.1466C15.683 18.5456 15.9717 18.9286 16.2763 19.2797L15.9236 19.0722L13.2616 17.5401L11.4015 16.4708L3.19113 11.7786ZM0.817824 20.1256C2.88644 18.0189 5.77289 16.7261 8.94798 16.7261C9.73373 16.7261 10.5035 16.8059 11.2411 16.9496L16.0358 19.7106L16.7414 20.1096H15.5227H12.4438H10.311H0.817824V20.1256ZM2.95059 28.5205C3.68824 25.6796 5.53236 23.1101 8.29052 21.5301C8.96402 21.1311 9.66959 20.8278 10.3912 20.5884H15.9236C14.1275 21.2428 12.4919 22.3281 11.177 23.7964L2.95059 28.5205ZM9.02816 34.7449C8.75555 33.7554 8.61123 32.7339 8.61123 31.7125C8.61123 29.7813 9.10834 27.8342 10.1346 26.0467C10.5195 25.3764 10.9685 24.754 11.4816 24.1954C11.9627 23.6687 12.4759 23.1739 13.0211 22.759C13.8389 22.1206 14.7369 21.6099 15.683 21.2268C16.0518 21.0832 16.4367 20.9395 16.8216 20.8278C16.6291 21.0193 16.4527 21.2268 16.2763 21.4343C15.0416 22.8867 14.1757 24.6422 13.7587 26.5734L9.02816 34.7449ZM17.3989 37.1069C15.2982 35.0481 13.9832 32.1753 13.9832 29.0153C13.9832 28.2332 14.0634 27.4672 14.2077 26.733C14.352 26.0308 14.5605 25.3604 14.8171 24.722C15.218 23.7644 15.7311 22.8707 16.3726 22.0567C16.5971 21.7695 16.8376 21.4981 17.0781 21.2268L17.3828 21.6418V37.1069H17.3989Z" fill="#54362C"/>
<path d="M62.6057 45.885C61.9001 45.486 61.1624 45.1508 60.4248 44.9114H70.5274C68.3946 42.5334 65.2836 41.0331 61.8359 41.0331C61.0181 41.0331 60.2163 41.1129 59.4626 41.2725L68.2022 36.2452C65.1554 35.2557 61.7237 35.4951 58.725 37.2187C58.0194 37.6177 57.378 38.0965 56.7847 38.6232L61.8359 29.925C58.6929 30.5794 55.8546 32.5106 54.1227 35.4791C53.7218 36.1813 53.3851 36.9155 53.1445 37.6496C52.904 36.8995 52.5833 36.1813 52.1664 35.4791C50.4345 32.4946 47.5801 30.5794 44.4531 29.925L49.5044 38.6232C48.9111 38.0965 48.2696 37.6337 47.5641 37.2187C44.5654 35.4951 41.1337 35.2557 38.0869 36.2452L46.8264 41.2725C46.0567 41.1129 45.2549 41.0331 44.4531 41.0331C41.0054 41.0331 37.8945 42.5334 35.7617 44.9114H45.8643C45.1106 45.1508 44.389 45.47 43.6834 45.885C40.6847 47.6086 38.7604 50.4495 38.1029 53.5617L46.8425 48.5343C46.3133 49.1248 45.8482 49.7632 45.4313 50.4655C43.6994 53.45 43.4589 56.8654 44.4531 59.8978L53.1445 44.9114L61.8359 59.8978C62.8302 56.8654 62.5896 53.45 60.8578 50.4655C60.4569 49.7632 59.9758 49.1248 59.4466 48.5343L68.1861 53.5617C67.5287 50.4335 65.5883 47.6086 62.6057 45.885Z" fill="#88BE55"/>
<path d="M70.6865 44.7517C68.5056 42.3258 65.3305 40.7936 61.8187 40.7936C61.4338 40.7936 61.049 40.8096 60.6641 40.8575L68.2971 36.4685C68.3773 36.4206 68.4254 36.3249 68.4254 36.2291C68.4094 36.1334 68.3452 36.0536 68.2651 36.0216C67.0624 35.6226 65.8116 35.4311 64.5287 35.4311C62.5082 35.4311 60.4717 35.9418 58.5955 37.0271C58.2587 37.2186 57.938 37.4261 57.6173 37.6495L62.0271 30.0526C62.0753 29.9728 62.0752 29.8771 62.0111 29.7973C61.963 29.7175 61.8668 29.6855 61.7706 29.7015C58.5634 30.3718 55.6609 32.3349 53.897 35.3673C53.5923 35.878 53.3357 36.4047 53.1273 36.9473C52.9188 36.4047 52.6622 35.878 52.3575 35.3673C50.5936 32.3349 47.6751 30.3559 44.484 29.7015C44.3877 29.6855 44.2915 29.7175 44.2434 29.7973C44.1953 29.8771 44.1793 29.9728 44.2274 30.0526L48.6372 37.6495C48.3326 37.4261 47.9958 37.2186 47.6751 37.0271C45.7989 35.9578 43.7463 35.4311 41.7418 35.4311C40.475 35.4311 39.2082 35.6386 38.0055 36.0216C37.9093 36.0536 37.8451 36.1334 37.8451 36.2291C37.8291 36.3249 37.8772 36.4206 37.9574 36.4685L45.5904 40.8575C45.2056 40.8256 44.8207 40.7936 44.4358 40.7936C40.908 40.7936 37.7489 42.3258 35.568 44.7517C35.5039 44.8155 35.4879 44.9273 35.5199 45.0071C35.552 45.0869 35.6482 45.1507 35.7444 45.1507H44.5641C44.2114 45.3103 43.8746 45.4859 43.5378 45.6774C40.491 47.433 38.5026 50.3377 37.8451 53.5137C37.8291 53.6095 37.8612 53.7052 37.9413 53.7531C38.0215 53.801 38.1177 53.8169 38.1979 53.7691L45.831 49.3801C45.6065 49.6833 45.398 50.0185 45.2056 50.3377C44.1312 52.205 43.618 54.2479 43.618 56.2428C43.618 57.5037 43.8265 58.7645 44.2114 59.9615C44.2434 60.0573 44.3236 60.1211 44.4198 60.1211C44.516 60.1371 44.6122 60.0892 44.6604 60.0094L51.9727 47.3851V140.336H53.897V46.6988L61.6262 60.0094C61.6744 60.0892 61.7706 60.1371 61.8668 60.1211C61.963 60.1052 62.0432 60.0413 62.0752 59.9615C62.4601 58.7645 62.6686 57.5196 62.6686 56.2428C62.6686 54.2319 62.1554 52.189 61.081 50.3377C60.8886 50.0025 60.6801 49.6833 60.4556 49.3801L68.0887 53.7691C68.1688 53.8169 68.2811 53.8169 68.3452 53.7531C68.4254 53.7052 68.4575 53.6095 68.4415 53.5137C67.768 50.3217 65.7956 47.433 62.7488 45.6774C62.412 45.4859 62.0752 45.3103 61.7225 45.1507H70.5422C70.6384 45.1507 70.7186 45.1028 70.7667 45.0071C70.7667 44.9273 70.7506 44.8155 70.6865 44.7517ZM58.836 37.4421C60.632 36.4047 62.6044 35.9259 64.5287 35.9259C65.5711 35.9259 66.5973 36.0695 67.5755 36.3408L59.3492 41.065L57.489 42.1343L54.8431 43.6505L53.7847 44.2569L54.1856 43.5547L56.9598 38.7827C57.5211 38.2879 58.1465 37.8251 58.836 37.4421ZM53.1273 43.9218C53.0952 43.8101 53.0631 43.6984 53.031 43.6026C52.8707 42.8365 52.7905 42.0545 52.7905 41.2724C52.7905 40.3468 52.9028 39.4211 53.1433 38.5114C53.2074 38.2241 53.3037 37.9368 53.3999 37.6495C53.6404 36.9473 53.9451 36.261 54.3299 35.6067C55.9175 32.8616 58.4832 31.0262 61.3536 30.292L56.607 38.4795L55.5326 40.3308L53.9932 42.9802L53.8008 43.3153L53.2395 44.2729C53.2074 44.1771 53.1914 44.0814 53.1593 43.9856L53.1273 43.9218ZM44.9169 30.292C47.7713 31.0262 50.337 32.8616 51.9406 35.6067C52.3255 36.277 52.6302 36.9633 52.8707 37.6495C52.4858 38.8306 52.2934 40.0595 52.2934 41.2724C52.2934 41.4799 52.2934 41.6874 52.3094 41.9108C52.3255 42.3896 52.3896 42.8525 52.4698 43.3153L52.2613 42.9642L50.7219 40.3148L49.6475 38.4635L44.9169 30.292ZM38.679 36.3249C39.6732 36.0535 40.6995 35.9099 41.7258 35.9099C43.6661 35.9099 45.6225 36.4047 47.4185 37.4261C48.092 37.8251 48.7174 38.272 49.2787 38.7667L52.0529 43.5388L52.4698 44.241L51.4114 43.6345L48.7495 42.1024L46.8893 41.033L38.679 36.3249ZM36.3057 44.6719C38.3743 42.5812 41.2608 41.2724 44.4358 41.2724C45.2216 41.2724 45.9753 41.3522 46.7129 41.4959L51.5076 44.2569C50.8341 44.1452 50.1446 44.0814 49.4551 44.0814C48.2203 44.0814 46.9855 44.2729 45.7829 44.6559H36.3057V44.6719ZM38.4385 53.0828C39.1761 50.2419 41.0202 47.6883 43.7784 46.0923C44.4519 45.7093 45.1575 45.3901 45.8791 45.1507C46.5526 44.9273 47.2582 44.7677 47.9477 44.6719C48.4608 44.6081 48.974 44.5761 49.4871 44.5761C50.0003 44.5761 50.5134 44.6081 51.0266 44.6719C51.4275 44.7198 51.8123 44.7996 52.2132 44.8953C52.1972 44.8953 52.1811 44.9113 52.1651 44.9113H51.9566V44.9592C51.7642 45.023 51.5878 45.0709 51.4114 45.1507C49.6154 45.8051 47.9798 46.8903 46.6488 48.3587L38.4385 53.0828ZM44.5 59.2912C44.2274 58.3017 44.0831 57.2802 44.0831 56.2588C44.0831 54.3277 44.5802 52.3806 45.6065 50.593C46.0074 49.9227 46.4564 49.3003 46.9535 48.7417C47.4185 48.199 47.9477 47.7202 48.5089 47.3053C49.3268 46.6669 50.2248 46.1562 51.1709 45.7731C51.4275 45.6614 51.7001 45.5657 51.9566 45.4859V46.4594L44.5 59.2912ZM60.632 50.5771C61.6743 52.3646 62.1715 54.3277 62.1715 56.2428C62.1715 57.2643 62.0271 58.3017 61.7545 59.2752L53.897 45.7253V45.3263C54.2979 45.438 54.6988 45.5816 55.0836 45.7412C56.0297 46.1243 56.9277 46.635 57.7456 47.2734C58.2908 47.7043 58.82 48.1831 59.285 48.7098C59.7821 49.2843 60.2311 49.9068 60.632 50.5771ZM62.4761 46.0923C65.2343 47.6724 67.0784 50.2419 67.8161 53.0828L59.5897 48.3587C58.2748 46.8903 56.6231 45.8051 54.8431 45.1507H60.3754C61.0971 45.3901 61.8026 45.6933 62.4761 46.0923ZM60.4556 44.6719H58.3068H55.228H54.0092L54.7148 44.2729L59.5095 41.5118C60.2472 41.3522 61.0169 41.2884 61.8026 41.2884C64.9938 41.2884 67.8642 42.5812 69.9328 44.6879H60.4556V44.6719Z" fill="#54362C"/>
</svg>
