<svg width="52" height="56" viewBox="0 0 52 56" fill="none" xmlns="http://www.w3.org/2000/svg">
<g clip-path="url(#clip0_74_22777)">
<path d="M26.2127 26.4201L47.9358 39.0143C46.9873 34.4599 44.1881 30.3471 39.8851 27.8375C38.8672 27.2566 37.803 26.7687 36.7388 26.4201H51.3134C48.2366 22.9579 43.7485 20.7736 38.7746 20.7736C37.5948 20.7736 36.4381 20.8898 35.3507 21.1222L47.959 13.8027C43.5634 12.362 38.6127 12.7106 34.2866 15.2201C33.2687 15.801 32.3433 16.4981 31.4873 17.2649L38.7746 4.60103C34.2403 5.55372 30.1455 8.36534 27.647 12.6873C27.0687 13.7097 26.5828 14.7786 26.2358 15.8475V1.2085C22.7888 4.29895 20.6142 8.80684 20.6142 13.8027C20.6142 14.9877 20.7298 16.1496 20.9612 17.2417C20.1052 16.4749 19.1798 15.801 18.1619 15.1969C13.8358 12.6873 8.88507 12.3388 4.48955 13.7795L17.1209 21.1454C16.0104 20.9131 14.8537 20.7969 13.697 20.7969C8.72313 20.7969 4.23507 22.9811 1.1582 26.4434H15.7328C14.6455 26.7919 13.6045 27.2566 12.5866 27.8608C8.26044 30.3703 5.48432 34.5064 4.53582 39.0375L17.144 31.718C16.3806 32.5778 15.7097 33.5073 15.1082 34.5297C12.6097 38.8749 12.2627 43.8475 13.697 48.2624L20.9843 35.5985C20.753 36.7139 20.6373 37.8757 20.6373 39.0375C20.6373 44.0334 22.8119 48.5413 26.2589 51.6317L26.2127 26.4201Z" fill="#6ABF4B"/>
<path d="M51.5455 26.1877C48.3992 22.6557 43.8186 20.425 38.7522 20.425C38.197 20.425 37.6417 20.4482 37.0865 20.518L48.0985 14.1279C48.2141 14.0582 48.2835 13.9188 48.2604 13.7794C48.2373 13.6399 48.1447 13.5238 48.0291 13.4773C46.294 12.9196 44.4895 12.6175 42.6388 12.6175C39.7238 12.6175 36.7626 13.3611 34.0791 14.918C33.5932 15.1968 33.1306 15.4989 32.691 15.8242L39.0529 4.7636C39.1223 4.64741 39.1223 4.48476 39.0298 4.39181C38.9373 4.27563 38.8216 4.22916 38.6828 4.25239C34.0791 5.22833 29.8686 8.08642 27.3238 12.5014C27.0462 12.9893 26.7917 13.4773 26.5604 13.9885V1.20841C26.5604 1.06899 26.4679 0.952809 26.3522 0.8831C26.2365 0.836627 26.0746 0.859863 25.982 0.952809C22.4656 4.11298 20.2447 8.69057 20.2447 13.8026C20.2447 14.6624 20.3141 15.5221 20.4298 16.3586C19.782 15.8242 19.0649 15.3594 18.3246 14.918C15.6179 13.3611 12.6798 12.6175 9.76488 12.6175C7.93727 12.6175 6.10965 12.9196 4.37458 13.4773C4.23577 13.5238 4.14324 13.6399 4.14324 13.7794C4.1201 13.9188 4.18951 14.0582 4.30518 14.1279L15.3171 20.518C14.7619 20.4715 14.2067 20.425 13.6514 20.425C8.56189 20.425 4.00443 22.6557 0.858162 26.1877C0.765625 26.2806 0.742491 26.4433 0.788759 26.5594C0.835028 26.6756 0.973834 26.7686 1.11264 26.7686H13.8365C13.3276 27.0009 12.8417 27.2565 12.3559 27.5354C7.9604 30.0914 5.09174 34.3204 4.14324 38.9445C4.1201 39.0839 4.16637 39.2234 4.28204 39.2931C4.39771 39.3628 4.53652 39.386 4.65219 39.3163L15.6641 32.9263C15.3403 33.3677 15.0395 33.8557 14.7619 34.3437C13.1888 37.0624 12.4716 40.0134 12.4716 42.9412C12.4716 44.7769 12.7723 46.6126 13.3276 48.3553C13.3738 48.4947 13.4895 48.5877 13.6283 48.5877C13.7671 48.5877 13.9059 48.5412 13.9522 48.425L20.3141 37.3644C20.2679 37.9221 20.2447 38.4798 20.2447 39.0375C20.2447 44.1495 22.4656 48.7271 25.982 51.8873C26.0746 51.9802 26.2365 52.0034 26.3522 51.957C26.4679 51.9105 26.5604 51.7711 26.5604 51.6316V29.952C33.732 43.4989 37.5029 58.6026 37.5029 73.9852V145.786H40.2791V73.9852C40.2791 58.0682 36.3462 42.4068 28.8738 28.3951L47.7514 39.3395C47.8671 39.4092 48.0059 39.4092 48.1216 39.3163C48.2373 39.2233 48.2835 39.0839 48.2604 38.9677C47.2888 34.3204 44.4432 30.1146 40.0477 27.5586C39.5619 27.2798 39.0761 27.0242 38.5671 26.7918H51.291C51.4298 26.7918 51.5455 26.7221 51.6149 26.5827C51.6611 26.4433 51.638 26.2806 51.5455 26.1877ZM34.4492 15.5453C37.0402 14.035 39.8858 13.3379 42.6619 13.3379C44.1656 13.3379 45.6462 13.547 47.0574 13.942L35.1895 20.82L32.5291 22.3769L28.6888 24.6076L27.185 25.4906L27.7634 24.4682L31.7656 17.5204C32.5753 16.7536 33.4544 16.103 34.4492 15.5453ZM27.9253 12.8731C30.2156 8.87646 33.9171 6.20426 38.0582 5.13538L31.2104 17.0557L29.6604 19.7512L27.4395 23.6084L26.5604 25.1188V23.9337V15.8939C26.9074 14.8715 27.3701 13.8491 27.9253 12.8731ZM25.5425 25.2117C25.4268 25.0955 25.288 24.9561 25.1723 24.8632C23.5298 23.0275 22.2806 20.7968 21.6097 18.357C21.494 17.9387 21.4014 17.5204 21.3089 17.1022C21.1007 16.0565 20.985 14.9644 20.985 13.8491C20.985 9.22501 22.8589 5.06567 25.9126 2.06816V15.8242V18.9146V23.3993V23.957V25.5603C25.7738 25.4441 25.635 25.3047 25.5425 25.2117ZM5.36936 13.9188C6.80368 13.5238 8.28428 13.3146 9.76488 13.3146C12.5641 13.3146 15.3865 14.035 17.9776 15.5221C18.9492 16.0798 19.8283 16.7072 20.6149 17.4275C21.0544 19.5188 21.8873 21.4707 22.9977 23.1902C23.3679 23.7711 23.7843 24.3287 24.2238 24.8399L23.7149 24.5379L19.8746 22.3072L17.191 20.7503L5.36936 13.9188ZM1.94548 26.0715C4.9298 23.0275 9.09398 21.1221 13.6746 21.1221C14.8082 21.1221 15.9186 21.2383 16.9828 21.4474L23.9 25.4673L24.9179 26.0482H23.1597H18.741H15.641H1.94548V26.0715ZM5.02234 38.3171C6.08652 34.181 8.74697 30.4399 12.7261 28.1395C13.6977 27.5586 14.7156 27.1171 15.7567 26.7686H23.7611C21.1701 27.7213 18.8104 29.3014 16.9134 31.4391L5.02234 38.3171ZM13.7903 47.3561C13.397 45.9155 13.1888 44.4283 13.1888 42.9412C13.1888 40.1296 13.9059 37.2947 15.4097 34.6922C15.9649 33.7163 16.6126 32.8101 17.3529 31.9968C18.047 31.23 18.7873 30.5097 19.5738 29.9055C20.7537 28.976 22.0492 28.2325 23.4141 27.6748C23.9462 27.4657 24.5014 27.2565 25.0567 27.0939C24.7791 27.3727 24.5246 27.6748 24.2701 27.9769C22.5119 30.0914 21.2395 32.6474 20.638 35.459L13.7903 47.3561ZM25.8664 50.7951C22.8358 47.7976 20.9388 43.615 20.9388 39.0142C20.9388 37.8756 21.0544 36.7603 21.2626 35.6914C21.4708 34.669 21.7716 33.6931 22.1417 32.7636C22.697 31.3694 23.4604 30.0682 24.3626 28.9063C24.6634 28.5113 25.0104 28.1163 25.3343 27.7445C25.4268 27.8839 25.4962 28.0233 25.5656 28.1628C25.6582 28.3254 25.7507 28.4648 25.8201 28.6275V50.7951H25.8664ZM39.7007 28.1395C43.6798 30.4399 46.3402 34.181 47.4044 38.3171L28.2492 27.1868C28.1798 27.0474 28.0873 26.908 28.0179 26.7686C27.9485 26.6292 27.8559 26.4897 27.7865 26.3503C28.2723 26.2341 28.7813 26.1412 29.2671 26.0715C30.0074 25.9785 30.7477 25.9321 31.488 25.9321C32.2283 25.9321 32.9686 25.9785 33.7089 26.0715C34.7037 26.2109 35.7216 26.4433 36.6932 26.7686C37.7111 27.1171 38.7291 27.5586 39.7007 28.1395ZM36.8089 26.0715C35.0738 25.4906 33.2694 25.235 31.488 25.235C30.4932 25.235 29.4985 25.3279 28.5268 25.4906L35.444 21.4707C36.5082 21.2383 37.6186 21.1453 38.7522 21.1453C43.3559 21.1453 47.497 23.0275 50.4813 26.0947H36.8089V26.0715Z" fill="#5C3327"/>
</g>
<defs>
<clipPath id="clip0_74_22777">
<rect width="52" height="56" fill="white"/>
</clipPath>
</defs>
</svg>
