<svg width="91" height="91" viewBox="0 0 91 91" fill="none" xmlns="http://www.w3.org/2000/svg">
<circle cx="45.0974" cy="45.0974" r="42.6814" fill="#88BE55"/>
<circle cx="45.0972" cy="45.0972" r="29.7965" fill="#54362C"/>
<path d="M62.7578 69.2707L62.1745 68.4929C69.2717 63.3402 73.8898 54.9791 73.8898 45.4999C73.8898 42.4374 73.4036 39.4721 72.48 36.7013C70.6328 31.0138 67.0356 26.1041 62.3203 22.6041C57.605 19.1041 51.7717 17.0624 45.4523 17.0624C39.1328 17.0624 33.2995 19.1041 28.5842 22.6041C23.8689 26.1041 20.2717 31.0138 18.4245 36.7013C17.5009 39.4721 17.0148 42.4374 17.0148 45.4999C17.0148 54.9791 21.6328 63.3402 28.73 68.4929C33.3967 71.9443 39.1814 73.9374 45.4523 73.9374C51.7231 73.9374 57.4592 71.9443 62.1745 68.4929L62.7578 69.2707L63.3411 70.0485C58.3342 73.6943 52.1606 75.8818 45.4523 75.8818C38.7925 75.8818 32.6189 73.7429 27.612 70.0485C20.0286 64.5554 15.0703 55.5624 15.0703 45.4513C15.0703 42.1943 15.605 39.0346 16.5773 36.0693C18.5703 29.9929 22.4106 24.7429 27.4175 20.9999C32.4731 17.2568 38.6953 15.0693 45.4523 15.0693C52.2092 15.0693 58.4314 17.2568 63.487 20.9999C68.5425 24.7429 72.3828 29.9929 74.3759 36.0693C75.3481 39.0346 75.8828 42.1943 75.8828 45.4513C75.8828 55.5624 70.9245 64.5068 63.3411 70.0485L62.7578 69.2707Z" fill="#5B3A1C"/>
<path d="M69.9527 79.139L69.3694 78.3612C79.5291 70.9723 86.0916 59.014 86.0916 45.5001C86.0916 41.1251 85.411 36.8959 84.0985 32.9584C81.4735 24.7917 76.3207 17.7917 69.5638 12.7848C62.8555 7.77786 54.543 4.86119 45.5013 4.86119C36.4596 4.86119 28.1471 7.77786 21.3902 12.7848C14.6332 17.7431 9.48047 24.7917 6.85547 32.9098C5.54297 36.8959 4.86241 41.1251 4.86241 45.5001C4.86241 59.014 11.4735 70.9723 21.6332 78.3612C28.3416 83.2223 36.6055 86.0904 45.5013 86.0904C54.4457 86.0904 62.7096 83.2223 69.3694 78.3612L69.9527 79.139L70.536 79.9167C63.536 85.0209 54.8346 88.0348 45.5013 88.0348C36.168 88.0348 27.5152 85.0209 20.4666 79.9167C9.82075 72.1876 2.91797 59.6459 2.91797 45.5001C2.91797 40.9306 3.64714 36.507 5.00825 32.3265C7.77908 23.7709 13.1749 16.4306 20.2235 11.2292C27.2721 5.97925 36.0221 2.91675 45.5013 2.91675C54.9805 2.91675 63.6819 5.97925 70.7791 11.2292C77.8277 16.4306 83.2235 23.8195 85.9944 32.3265C87.3555 36.4584 88.0846 40.882 88.0846 45.5001C88.0846 59.6459 81.1819 72.1876 70.536 79.9654L69.9527 79.139Z" fill="#5B3A1C"/>
<path d="M44.5273 45.5V16.0903V3.88892H46.4718V16.0903V45.5H44.5273Z" fill="#5B3A1C"/>
<path d="M45.207 44.5763L73.1584 35.486L84.7765 31.6943L85.3598 33.5416L73.7417 37.3332L45.7904 46.4235L45.207 44.5763Z" fill="#5B3A1C"/>
<path d="M46.2782 44.9167L63.5838 68.6876L70.7296 78.5556L69.174 79.7223L61.9796 69.8542L44.7227 46.0348L46.2782 44.9167Z" fill="#5B3A1C"/>
<path d="M46.2765 46.0348L28.9709 69.8542L21.8251 79.7223L20.2695 78.5556L27.4154 68.6876L44.7209 44.9167L46.2765 46.0348Z" fill="#5B3A1C"/>
<path d="M45.2081 46.4235L17.2081 37.3332L5.63867 33.5416L6.22201 31.6943L17.7914 35.486L45.7914 44.5763L45.2081 46.4235Z" fill="#5B3A1C"/>
<path d="M45.5 3.88889C68.4931 3.88889 87.1111 22.5069 87.1111 45.5C87.1111 68.4931 68.4931 87.1111 45.5 87.1111C22.5069 87.1111 3.88889 68.4444 3.88889 45.5C3.88889 22.5556 22.5069 3.88889 45.5 3.88889ZM45.5 0C20.4167 0 0 20.4167 0 45.5C0 70.5833 20.4167 91 45.5 91C70.5833 91 91 70.5833 91 45.5C91 20.4167 70.5833 0 45.5 0Z" fill="#54362C"/>
<path d="M69.5623 39.375C68.979 40.25 68.1526 41.0764 67.7151 41.0764C67.5206 41.0764 67.4234 40.9306 67.4234 40.6875C67.4234 39.9583 68.8331 38.1111 68.7845 36.8472C68.7845 36.0208 68.2012 35.4375 67.3748 35.4375C66.4998 35.4375 65.6248 35.9722 64.9928 36.9931C65.6248 35.1944 66.3053 33.3958 66.9859 31.5486H65.1387C63.972 34.8542 62.4651 39.2292 61.347 42.5347H63.1456C63.6803 40.5903 65.0414 37.0417 66.4512 37.0417C66.7428 37.0417 66.8887 37.2361 66.8887 37.4792C66.8887 38.3056 65.5762 39.8125 65.5762 41.125C65.5762 42 66.1109 42.6806 67.1803 42.6806C68.6387 42.6806 69.9998 41.2222 70.5345 40.2986L69.5623 39.375ZM58.0414 41.3194C57.4581 41.3194 57.0206 40.9792 56.7776 40.6389C57.4095 39.8125 58.1387 38.5486 58.5762 37.1389C58.9651 37.9167 59.3053 38.7917 59.3053 39.7153C59.3539 40.4931 58.8678 41.3194 58.0414 41.3194ZM63.0484 37.8194C62.222 39.6667 61.2498 40.8333 60.3748 41.2222C60.8609 40.7847 61.1039 40.0556 61.1039 39.3264C61.1039 38.0139 60.2289 36.3611 59.6942 35.3403H57.7012C57.1664 37.1875 56.5345 38.4514 55.5623 39.9097C55.222 40.3958 55.1248 40.7361 55.3192 41.125C55.8053 42.1944 57.1664 42.7778 58.4303 42.7778C61.2498 42.7778 62.5623 41.3681 63.729 38.7431L63.0484 37.8194ZM52.9859 36.9444C53.3748 36.9444 53.6178 37.2361 53.5692 37.625C53.5692 38.5972 52.2567 39.1806 51.1387 39.0833C51.3817 37.8681 52.1109 36.9444 52.9859 36.9444ZM56.7289 37.8681C55.4651 40.3472 54.4442 41.2222 52.7428 41.2222C51.722 41.2222 51.2359 40.7847 51.0901 40.1042C52.8401 40.4931 55.222 39.5694 55.222 37.4792C55.222 36.4097 54.4928 35.4375 53.0831 35.4375C50.7984 35.4375 49.2428 37.625 49.2428 39.9097C49.2428 41.7083 50.6039 42.7292 52.3053 42.7292C55.3678 42.7292 56.4373 40.7361 57.4581 38.7431L56.7289 37.8681ZM39.5692 45.6944C38.4512 45.6944 39.3262 43.0208 40.4928 39.6667C41.3678 41.7083 41.1248 45.6944 39.5692 45.6944ZM50.1664 37.9167C49.3887 39.6181 48.222 41.0764 47.5415 41.0764C47.2984 41.0764 47.1526 40.8819 47.1526 40.6389C47.1526 39.8125 48.1734 37.4792 48.8539 36.0208C48.222 36.0208 46.9581 35.9722 46.0831 35.8264C46.1803 35.5833 46.2776 35.2917 46.3262 35H44.722C44.0901 37.4306 43.1664 38.7431 41.6109 38.8889C41.4651 38.5972 41.2706 38.3056 41.0762 38.0139C41.9026 36.0694 42.4859 34.2708 43.6039 31.5H41.8053C40.8331 34.0764 39.9095 36.7986 39.1803 38.6458C36.9442 44.5278 36.847 47.1528 39.3748 47.1528C41.9512 47.1528 43.0692 43.5556 42.1942 40.3472C43.5553 40.0556 44.6734 39.0347 45.5484 37.2361C45.8887 37.2847 46.2289 37.3819 46.5206 37.3819C45.8401 38.8403 45.3053 39.9583 45.3053 41.0278C45.3053 41.9028 45.8887 42.6806 46.9581 42.6806C48.6109 42.6806 50.2637 40.1528 50.9442 38.6944L50.1664 37.9167ZM35.9234 36.9444C36.3123 36.9444 36.5553 37.2361 36.5067 37.625C36.5067 38.5972 35.1942 39.1806 34.0762 39.0833C34.3192 37.8681 35.0484 36.9444 35.9234 36.9444ZM39.7151 37.8681C38.4512 40.3472 37.4303 41.2222 35.7289 41.2222C34.7081 41.2222 34.222 40.7847 34.0762 40.1042C35.8262 40.4931 38.2081 39.5694 38.2081 37.4792C38.2081 36.4097 37.4789 35.4375 36.0692 35.4375C33.7845 35.4375 32.2776 37.625 32.2776 39.9097C32.2776 41.7083 33.6387 42.7292 35.3401 42.7292C38.4026 42.7292 39.472 40.7361 40.4928 38.7431L39.7151 37.8681ZM32.6178 34.5625C32.6178 32.1319 30.6248 30.1875 27.6595 30.1875C25.6664 30.1875 24.1109 30.8681 22.9442 31.5972L23.8192 33.1528C24.7914 32.4722 26.0553 31.9375 27.6109 31.9375C29.3123 31.9375 30.6248 33.1042 30.6248 34.6111C30.6248 36.8472 28.6317 38.5486 25.6178 38.6944C26.1526 37.1389 26.6873 35.6319 27.1734 34.1736H25.2776C24.1109 37.3819 22.8956 40.9306 21.8262 44.1389H23.8192C24.2081 42.9236 24.597 41.7083 25.0345 40.4444C25.6178 40.4444 26.2012 40.3958 26.7845 40.2986C27.1734 41.5139 27.7081 42.9722 28.2428 44.1389H30.3817C29.7498 42.8264 29.0692 41.2222 28.5345 39.8125C30.9164 38.8889 32.6178 36.9931 32.6178 34.5625Z" fill="#88BE55"/>
<path d="M59.8889 49.7293V60.7154H65.9653V58.0904H62.5139V49.7293H59.8889ZM51.3333 60.7154H58.0903V58.1876H53.9583V56.1459H57.1181V54.0071H53.9583V52.2084H58.0417V49.6807H51.2847V60.7154H51.3333ZM47.2986 49.7293L45.5486 56.8265L43.75 49.7293H40.9792L44.4306 60.7154H46.6667L50.0694 49.7293H47.2986V49.7293ZM33.2014 60.7154H39.9583V58.1876H35.875V56.1459H39.0347V54.0071H35.875V52.2084H39.9583V49.6807H33.2014V60.7154ZM25.8125 49.7293V60.7154H31.8889V58.0904H28.4375V49.7293H25.8125Z" fill="#88BE55"/>
</svg>
