<svg width="148" height="131" viewBox="0 0 148 131" fill="none" xmlns="http://www.w3.org/2000/svg">
<path d="M140.551 90.6535L145.54 101.003C145.54 101.003 98.7718 126.94 79.94 128.81C61.1081 130.681 59.7363 114.72 59.7363 114.72C70.2123 114.595 85.0533 110.355 98.6471 105.492C113.114 100.255 126.084 94.3944 131.572 91.7758C133.193 91.0276 134.191 90.5288 134.191 90.5288C135.937 91.1523 138.68 91.277 140.551 90.6535Z" fill="#F1C650"/>
<path d="M135.186 74.443C131.944 70.4528 124.087 61.5994 119.347 56.9857C107.874 45.7631 108.373 39.4036 102.137 36.2863C104.257 34.7899 105.504 33.0442 105.754 32.5454C95.9013 32.6701 93.2822 26.9341 94.0305 23.8167C95.0282 18.9536 90.788 21.1981 89.042 19.577C88.4184 18.9536 88.2937 18.2054 88.2937 18.0807L74.0762 16.2103C64.2238 8.22975 51.6277 10.2249 51.1288 10.2249C48.7592 10.2249 46.1402 7.98039 42.5235 7.35692C39.2809 6.73344 32.7959 8.10506 28.4309 8.10506C23.0681 8.10506 12.5921 2.11973 7.97769 1.99503C5.23398 1.87034 2.49023 3.49131 2.49023 5.36175C2.49023 8.60382 13.4651 8.35443 13.4651 9.10261C13.3404 10.1002 6.60574 11.2224 6.48103 11.5965C6.85517 12.9682 30.3015 12.9682 37.036 14.9633C41.5257 16.2103 52.0018 19.9511 56.7409 20.2005C56.7409 20.2005 44.8931 42.6457 44.0201 51.6238C43.1471 60.7265 71.2078 56.2375 71.2078 56.2375C71.2078 56.2375 75.5728 45.1396 85.1758 45.1396C88.0443 45.1396 92.1598 47.01 95.9012 49.1299V66.9613C99.518 67.9588 105.005 68.707 109.62 67.4601C109.62 67.4601 118.225 82.0494 131.445 91.651L131.569 91.9004C133.191 91.1522 134.188 90.6534 134.188 90.6534C136.184 91.1522 138.928 91.2769 140.798 90.6534C142.295 90.1546 143.293 89.2818 143.293 87.7854C143.043 84.4187 138.928 78.8073 135.186 74.443Z" fill="#B46C51"/>
<path d="M105.63 32.545C95.7775 32.6697 93.1586 26.9337 93.9069 23.8163C94.9046 18.9532 90.6643 21.1977 88.9183 19.5767C88.2948 18.9532 88.1699 18.205 88.1699 18.0803C90.6642 13.716 95.4034 12.5938 99.1448 12.5938H99.2695C110.12 12.7184 113.238 25.0633 111.492 31.0486H115.607C111.741 32.0462 108.498 32.545 105.63 32.545Z" fill="#965442"/>
<path d="M105.631 102.625L98.3981 105.368C98.3981 105.368 80.8134 97.0135 74.7024 80.1796C74.7024 80.1796 68.5913 79.5562 64.9746 77.9351L65.9724 64.7174C65.9724 64.7174 75.5754 61.9742 81.6863 70.9522C81.9358 71.3263 82.1852 71.7003 82.4346 72.0744C88.4209 82.1748 105.631 102.625 105.631 102.625Z" fill="#B46C51"/>
<path d="M65.0963 77.8098C37.285 75.0665 44.0197 51.6238 44.0197 51.6238C43.1467 60.7266 71.2073 56.2376 71.2073 56.2376C71.2073 56.2376 75.5724 45.1396 85.1754 45.1396C88.0439 45.1396 92.1594 47.0101 95.9008 49.1299V66.9613V71.8245C92.4088 71.6998 86.2977 71.2009 81.9327 70.8269C75.9465 61.9735 66.2188 64.5921 66.2188 64.5921L65.0963 77.8098Z" fill="#D03F36"/>
<path d="M143.671 90.9029C144.419 90.1548 144.793 88.9078 144.793 87.7856C144.793 86.5386 144.419 85.4163 143.92 84.1694C143.421 82.9224 142.798 81.8002 141.925 80.5532C140.304 78.0593 138.308 75.5654 136.437 73.1962C133.07 69.2059 125.338 60.3526 120.474 55.6142C116.234 51.4992 113.739 48.1324 111.869 45.2644C109.998 42.3964 108.751 40.0272 107.13 38.0321C106.506 37.2839 105.882 36.6605 105.134 36.037C105.384 35.7876 105.633 35.4135 105.882 35.1641C106.132 34.79 106.381 34.5406 106.506 34.2912C109.25 34.1665 112.368 33.6678 116.109 32.6702L115.111 29.054C114.612 29.1787 114.238 29.3035 113.739 29.4281C113.864 28.8047 113.864 28.0565 113.864 27.433C113.864 24.8144 113.241 21.9464 111.993 19.2031C110.746 16.4598 108.751 13.9659 105.882 12.3449C104.012 11.2226 101.767 10.5991 99.1478 10.5991H99.0232C96.903 10.5991 94.5334 10.8485 92.2886 11.8461C90.2931 12.5942 88.5472 13.9659 87.0506 15.961L74.4544 14.34C71.0871 11.7214 67.3458 10.1004 63.9785 9.22749C60.4865 8.35462 57.2439 8.1052 54.7496 8.1052C53.0036 8.1052 51.7565 8.22994 51.0082 8.22994C50.8835 8.22994 50.7587 8.22994 50.634 8.22994C50.3845 8.22994 49.8857 8.10523 49.3868 7.98053C48.888 7.85584 48.2644 7.48171 47.5161 7.23232C46.1442 6.60884 44.3983 5.86071 42.2782 5.48663C41.5299 5.36193 40.6569 5.23722 39.7839 5.23722C37.9132 5.23722 35.793 5.48664 33.6729 5.73603C31.5527 5.98542 29.4326 6.1101 27.8113 6.1101C27.0631 6.1101 25.9406 5.98538 24.8182 5.61129C23.571 5.2372 22.3238 4.86312 20.8272 4.36434C17.9588 3.36677 14.9657 1.99516 12.3467 1.12229C10.6007 0.498812 8.97943 0 7.48286 0H7.10865C5.86151 0 4.61449 0.249436 3.49206 0.748218C2.36963 1.247 1.37183 1.87041 0.748255 2.86798C0.249398 3.49145 0 4.36435 0 5.23722C0 5.736 0.124775 6.35949 0.374204 6.73358C0.623632 7.23236 0.997714 7.6064 1.24714 7.85579C1.87071 8.47927 2.74377 8.72866 3.49206 9.10275C4.11563 9.35214 4.86389 9.47686 5.48746 9.60156C5.36274 9.60156 5.238 9.72627 4.98857 9.85096C4.86386 9.97566 4.73911 9.97561 4.48968 10.3497C4.36497 10.4744 4.24035 10.7238 4.11563 10.9732L3.9908 11.472L4.11563 11.9708C4.24035 12.2202 4.36497 12.4696 4.48968 12.7189C4.6144 12.8436 4.73917 12.9683 4.86389 13.093C5.11332 13.3424 5.23803 13.3424 5.48746 13.4671C5.8616 13.5918 6.11094 13.7165 6.48508 13.8412C7.10865 13.9659 7.98165 14.0906 8.97937 14.2153C10.9748 14.4647 13.4691 14.5893 16.3375 14.714C21.9497 15.0881 28.6843 15.4623 33.0493 16.0857C34.2964 16.2104 35.2942 16.4598 36.0425 16.7092C37.6637 17.208 40.158 17.9562 42.9017 18.829C45.6455 19.7019 48.6385 20.5747 51.3822 21.1982C52.1305 21.3229 52.7542 21.4476 53.3778 21.5723C51.2576 25.6872 46.8926 34.5406 44.1489 42.147C42.9017 45.5138 42.0287 48.5065 41.7793 51.1251C41.6546 51.6239 41.031 54.1178 41.031 57.4846C41.031 60.3526 41.5298 63.844 43.1511 67.3355C44.7724 70.827 47.7655 74.1937 52.5047 76.4382C55.6225 77.9346 59.6134 79.0568 64.3525 79.5556C66.348 80.3038 68.5928 80.8026 70.4636 81.1767C71.4613 81.3014 72.3343 81.5508 72.9578 81.5508C76.3251 89.9054 82.062 96.0154 87.1753 100.255C89.6696 102.25 91.9144 103.747 93.6604 104.869C88.0482 106.739 82.4361 108.61 76.9486 109.981C70.3388 111.602 64.1032 112.725 59.1146 112.849H57.1192L57.2439 114.844C57.2439 114.969 57.4933 117.089 58.6157 119.957C59.7381 122.7 61.983 126.067 65.9739 128.312C68.5929 129.808 72.0848 130.805 76.3251 130.805C77.3228 130.805 78.4453 130.805 79.5678 130.681C84.5563 130.182 91.1662 128.187 98.2749 125.444C105.384 122.7 112.991 119.333 120.1 115.967C134.193 109.233 145.916 102.749 145.916 102.749L147.412 101.876L142.548 91.5264C143.297 91.277 143.546 91.1523 143.671 90.9029ZM93.9099 15.3375C95.5312 14.5893 97.4018 14.34 99.1478 14.34H99.2725C101.268 14.34 102.765 14.8387 104.136 15.5869C105.508 16.3351 106.631 17.4573 107.504 18.7043C109.25 21.1982 110.123 24.6897 110.123 27.433C110.123 28.5552 109.998 29.5528 109.749 30.301C108.127 30.5503 106.755 30.6751 105.508 30.6751H105.259C101.268 30.6751 98.7737 29.6775 97.4018 28.4305C96.03 27.1836 95.5311 25.812 95.5311 24.8144C95.5311 24.565 95.5311 24.3156 95.6558 24.1909C95.7805 23.5675 95.9053 23.0687 95.9053 22.5699C95.9053 21.697 95.7806 20.9488 95.2817 20.2007C94.7829 19.4525 94.1593 19.0784 93.5357 18.829C93.1616 18.7043 92.7874 18.5796 92.4132 18.5796C91.9144 18.4549 91.5402 18.4549 91.2908 18.4549C90.7919 18.4549 90.5426 18.3302 90.4178 18.3302C91.2908 16.8339 92.538 15.961 93.9099 15.3375ZM45.8949 51.8733C46.0196 50.0029 46.7679 47.2595 47.8903 44.2668C49.0127 41.1495 50.3846 37.7827 51.7564 34.6653C54.6248 28.3058 57.4932 22.5699 58.2415 21.4476C58.3662 21.3229 58.3663 21.1982 58.3663 21.1982L59.7382 18.5796L56.8697 18.4549C55.872 18.4549 54.3755 18.2055 52.7542 17.7068C51.1329 17.3327 49.2621 16.8339 47.3914 16.2104C43.65 15.0881 39.9085 13.8412 37.6636 13.2178C36.1671 12.719 34.1717 12.4695 31.9268 12.2201C29.682 11.9707 27.063 11.7213 24.3193 11.5967C20.952 11.3473 17.46 11.2226 14.4668 10.9732C14.5915 10.8485 14.7163 10.7238 14.841 10.5991C15.0905 10.3497 15.3399 9.97567 15.3399 9.47689V9.35215V9.22749C15.3399 8.8534 15.2151 8.47933 15.0904 8.22994C14.9657 7.98055 14.8411 7.85582 14.7163 7.73113C14.4669 7.48174 14.2175 7.35706 14.0928 7.35706C13.7186 7.23236 13.5938 7.23235 13.2197 7.10765C12.7208 6.98295 12.0972 6.98294 11.4737 6.85824C10.1018 6.73355 8.48054 6.48416 6.98397 6.23477C5.98625 5.98538 5.23806 5.73602 4.7392 5.48663C4.61449 5.36193 4.48968 5.36188 4.48968 5.36188C4.48968 5.36188 4.48968 5.36192 4.48968 5.23722C4.6144 5.11252 4.86383 4.86313 5.11325 4.61374C5.73683 4.23966 6.73451 3.8656 7.73222 3.8656H7.98174C8.60531 3.8656 9.47828 4.11499 10.6007 4.48908C11.7231 4.86316 12.9703 5.36192 14.3421 5.8607C17.0859 6.85826 20.2037 8.22988 22.9475 9.10275C24.8182 9.72622 26.6888 10.1004 28.3101 10.1004C30.1808 10.1004 32.4256 9.85095 34.5458 9.60156C36.6659 9.35217 38.6615 9.22749 40.2828 9.22749C41.0311 9.22749 41.6545 9.22746 42.0286 9.35215C43.1511 9.60154 44.2736 9.97566 45.2713 10.4744C46.3938 10.9732 47.3915 11.472 48.5139 11.8461C49.2622 12.0954 50.0105 12.3449 51.0082 12.3449H51.2575H51.3822H51.6317C51.8812 12.3449 52.1306 12.3448 52.38 12.2201C53.0036 12.2201 54.0012 12.0955 54.999 12.0955C57.2438 12.0955 60.1122 12.3448 63.2301 13.093C66.3479 13.9659 69.7153 15.3375 72.7085 17.8314L73.0825 18.2056L86.6764 19.9513C86.9258 20.3253 87.1752 20.6995 87.5494 21.0735C87.9235 21.4476 88.2976 21.697 88.7965 21.9464C89.1706 22.0711 89.5448 22.1958 89.919 22.3205C90.6672 22.4452 91.2908 22.4452 91.665 22.5699C91.9144 22.5699 92.0392 22.5699 92.0392 22.6946V22.8192C92.0392 23.0686 92.0391 23.318 91.9144 23.6921C91.7896 24.1909 91.7897 24.565 91.7897 25.0638C91.7897 27.1836 92.7874 29.6775 95.0322 31.5479C96.6535 32.9196 98.7737 33.9172 101.642 34.416C101.393 34.6654 101.143 34.79 100.894 35.0394C99.522 36.037 97.6513 36.7851 95.2817 36.7851C95.0323 36.7851 94.9076 36.7851 94.6582 36.7851C93.2863 36.6604 92.2886 36.2864 91.5403 35.6629C90.792 35.0394 90.1684 34.1665 89.6696 33.2937C88.6719 31.5479 88.4224 29.5528 88.4224 29.4281L88.2978 27.6824H86.5517H82.062V31.4232H85.0551C85.1798 31.7973 85.3046 32.2961 85.4293 32.9196C86.0528 34.6653 87.0506 36.7851 89.046 38.4062C90.4179 39.5284 92.1638 40.2766 94.284 40.4013C94.5334 40.4013 94.9076 40.4013 95.157 40.4013C97.776 40.4013 100.021 39.6532 101.891 38.5309C102.764 39.0297 103.388 39.6531 104.136 40.526C105.009 41.5236 105.882 42.8952 106.88 44.6409C109 48.0077 111.869 52.6214 117.73 58.3574C122.469 62.8464 130.202 71.8245 133.444 75.6901C134.816 77.3111 136.313 79.0568 137.56 80.8026C138.807 82.5483 139.805 84.2941 140.428 85.6657C140.802 86.5386 141.052 87.4115 140.927 87.7856C140.927 88.1596 140.802 88.2843 140.678 88.409C140.553 88.5337 140.304 88.7831 139.805 88.9078C139.181 89.1572 138.433 89.2819 137.435 89.2819C136.811 89.2819 136.063 89.1572 135.315 89.1572C135.19 88.5337 134.941 87.7856 134.816 86.788C134.317 84.6682 133.444 82.0495 132.446 79.805C131.698 78.184 130.95 76.8124 129.828 75.6901C129.703 75.5654 129.453 75.4407 129.329 75.316C129.204 75.1913 128.955 75.0666 128.83 74.942C128.456 74.6926 128.081 74.4432 127.458 74.0691C126.46 73.4456 124.964 72.448 123.218 70.9517C119.601 68.0837 114.363 63.3453 107.753 55.3648L107.628 55.24L107.504 55.1154C107.254 54.9907 106.88 54.6166 106.256 54.1178C105.633 53.619 104.76 52.9955 103.762 52.372C101.767 51.0004 99.2726 49.2546 96.5289 47.7583C94.5334 46.636 92.538 45.6385 90.5425 44.8903C88.5471 44.1422 86.6764 43.5187 84.8057 43.5187C82.062 43.5187 79.5678 44.2668 77.697 45.5138C75.7016 46.6361 74.0803 48.2571 72.8332 49.7535C71.2119 51.7486 70.2142 53.619 69.5906 54.7413H69.4658C68.7175 54.866 67.7199 54.9907 66.4728 55.1154C63.9785 55.3648 60.6112 55.6142 57.2439 55.6142C55.1237 55.6142 53.0036 55.4894 51.1328 55.24C49.2621 54.9906 47.7655 54.4919 46.8925 53.8684C46.269 53.4943 46.0195 53.1202 45.7701 52.7461C45.6454 52.4967 45.6454 52.372 45.6454 52.1226L45.8949 51.8733ZM111.12 66.4626L110.372 65.2157L109 65.5898C107.504 66.0886 105.882 66.2133 104.136 66.2133C101.892 66.2133 99.6468 65.8391 97.6513 65.4651V52.4968C100.395 54.2425 102.889 55.9882 104.261 56.9858C104.76 57.3599 105.009 57.6092 105.259 57.7339C113.864 68.0836 120.225 73.1962 123.966 75.9395C125.213 76.8124 126.211 77.4358 126.834 77.8099C127.208 78.0593 127.333 78.184 127.458 78.184C127.957 78.6828 128.705 79.6804 129.204 80.9273C129.828 82.1743 130.326 83.5459 130.701 84.9176C131.199 86.6633 131.698 88.2843 131.948 89.5312H131.823C119.726 80.6779 111.495 67.2108 111.12 66.4626ZM127.957 91.4017C123.093 93.6462 115.361 97.1377 106.381 100.504C106.132 100.255 105.882 99.881 105.508 99.3822C104.511 98.1353 103.014 96.3895 101.393 94.3944C98.0255 90.2794 93.7852 84.9176 90.1685 79.9298C88.4225 77.4359 86.6764 75.0666 85.4293 73.0715C89.1707 73.4456 93.1616 73.695 95.7806 73.8197H97.6513V71.9492V69.4553C99.6468 69.8294 101.767 70.0788 104.136 70.0788C105.633 70.0788 107.13 69.9541 108.626 69.7047C109.624 71.2011 111.37 73.9444 113.989 77.1865C117.356 81.4261 122.095 86.7879 127.957 91.4017ZM64.3525 63.2206L63.3549 75.8148H63.2301C57.6179 74.9419 53.7519 73.1962 51.0082 71.0763C48.015 68.7071 46.5184 65.8391 45.7701 62.9712C45.2712 61.1007 45.0218 59.2303 45.0218 57.6093C45.0218 57.3599 45.0218 57.2352 45.0218 56.9858C45.7701 57.4846 46.6431 57.734 47.5161 58.1081C50.3845 58.9809 53.8766 59.2303 57.3686 59.2303C64.3526 59.2303 71.2118 58.1081 71.3365 58.1081L72.3343 57.9833L72.7085 56.9858L72.8332 56.8611C72.9579 56.7364 72.9578 56.487 73.2072 56.2376C73.4566 55.6142 73.9555 54.8659 74.4544 53.9931C75.5768 52.2473 77.4476 50.1276 79.6924 48.7559C81.189 47.8831 82.935 47.2596 84.9304 47.2596C85.9281 47.2596 87.5494 47.6336 89.2954 48.2571C90.6672 48.8806 92.2885 49.6288 93.7851 50.377V66.9614V69.9541C90.5425 69.8294 86.1776 69.4553 82.6856 69.0813C80.6902 66.4627 78.4452 64.8416 76.2004 63.844C73.7061 62.7218 71.3365 62.4724 69.4658 62.4724C67.2209 62.4724 65.7244 62.8465 65.5997 62.9712L64.3525 63.2206ZM90.0436 97.6364C85.0551 93.5215 79.3183 87.5361 76.4499 79.5556L76.0757 78.4334L74.9532 78.3087H74.7039C74.5792 78.3087 74.3298 78.3087 73.9556 78.184C73.3321 78.0593 72.459 77.9346 71.586 77.8099C70.0894 77.5605 68.4681 77.1864 66.9715 76.6876L67.7199 66.3379C68.2188 66.3379 68.7175 66.2133 69.3411 66.2133C70.8377 66.2133 72.7085 66.4627 74.5792 67.2108C76.4499 68.0837 78.3205 69.4553 80.0665 71.9492C80.1912 72.1986 80.4406 72.448 80.6901 72.9468C82.1866 75.5654 84.4315 78.8075 86.9258 82.1743C89.4201 85.541 92.1639 89.1572 94.6582 92.2746C97.776 96.2648 100.644 99.7563 102.39 101.876L98.3996 103.372C97.9007 103.123 97.2772 102.749 96.4042 102.25C94.9076 101.128 92.5379 99.6316 90.0436 97.6364ZM143.047 100.255C142.299 100.629 141.301 101.128 140.179 101.751C137.435 103.248 133.444 105.368 128.83 107.612C119.601 112.226 107.878 117.962 97.4018 121.952C90.4178 124.571 84.0574 126.566 79.6924 126.94C78.6947 127.065 77.8217 127.065 76.824 127.065C73.2072 127.065 70.4636 126.316 68.4682 125.194C66.4727 124.072 64.9762 122.576 63.9785 120.954C62.8561 119.333 62.3571 117.712 61.9829 116.465C66.9715 116.216 72.5837 115.094 78.4453 113.598C85.1799 111.852 92.4133 109.607 99.1478 107.113C113.615 101.876 126.71 96.0154 132.197 93.3968C133.07 93.0228 133.818 92.6487 134.317 92.3993C135.315 92.6487 136.562 92.7734 137.685 92.7734C138.308 92.7734 138.932 92.7733 139.555 92.6486L143.047 100.255Z" fill="#5B3A1C"/>
</svg>
