<svg width="191" height="188" viewBox="0 0 191 188" fill="none" xmlns="http://www.w3.org/2000/svg">
<circle cx="108" cy="108" r="80" fill="#8BCEDE"/>
<path d="M101.987 99.3261C153.379 89.1286 192.189 67.1444 188.877 50.0603C185.566 32.9762 141.193 27.2816 89.8008 37.479C32.9777 48.736 2.91045 86.7448 2.91045 86.7448C2.91045 86.7448 45.1635 110.451 101.987 99.3261Z" fill="#F1C650"/>
<path d="M1.32454 85.421C1.457 85.2886 9.00693 75.6208 23.8419 64.6287C38.6768 53.5042 60.6643 41.0554 89.407 35.3607C106.759 31.9174 123.448 30.3281 137.886 30.3281C148.614 30.3281 158.284 31.2552 166.363 32.9768C174.443 34.6985 180.801 37.3472 185.172 40.9229C188.086 43.3067 190.073 46.2203 190.735 49.6636C190.867 50.4582 191 51.3853 191 52.1799C191 54.6961 190.338 57.08 189.013 59.5962C187.821 61.98 185.967 64.3639 183.715 66.7477C179.212 71.3829 172.721 76.0181 164.906 80.2561C149.012 88.8643 127.157 96.5455 102.388 101.446C91.3939 103.565 81.0624 104.492 71.3932 104.492C30.1997 104.492 2.25173 88.7319 1.98682 88.5994L-5.43626e-06 87.4075L1.32454 85.421ZM22.5173 92.5725C34.4383 96.4131 51.2601 100.254 71.3932 100.254C80.7975 100.254 90.9965 99.4591 101.725 97.3401C117.752 94.1617 132.587 89.7914 145.171 84.8913C157.754 79.8588 168.218 74.2965 175.503 68.6018C180.404 64.8936 183.847 61.053 185.569 57.6097C186.629 55.6232 187.026 53.7691 187.026 52.0474C187.026 51.5177 187.026 50.8555 186.894 50.3258C186.497 48.0744 185.039 45.9555 182.655 43.9689C180.271 41.9824 176.827 40.2607 172.589 38.8039C163.979 35.8904 152.058 34.3012 137.886 34.3012C123.581 34.3012 107.288 35.8904 90.0693 39.3337C62.5187 44.7635 41.1935 56.6826 26.8884 67.2774C16.0271 75.3559 9.00705 82.7723 6.09305 86.0832C6.75532 86.4805 7.68251 86.8778 8.74214 87.2751C11.9211 88.7319 16.5569 90.7184 22.5173 92.5725Z" fill="#54362C"/>
<path d="M71.1281 72.1772C72.7176 72.1772 73.5123 73.634 83.5789 85.4207C86.6253 84.2288 94.3076 84.0964 96.5594 84.0964C96.8243 84.0964 96.9567 84.0964 97.2216 84.0964C102.652 84.6261 109.143 95.2209 109.143 95.2209L94.8376 100.386C94.5726 99.7237 94.3076 99.0615 94.0427 98.3993C73.9096 100.253 67.022 82.5071 67.022 80.5206C67.2869 76.1503 70.2009 72.1772 71.1281 72.1772Z" fill="#CA8453"/>
<path d="M150.209 86.2146C150.209 86.2146 167.825 72.9711 167.031 64.098C166.368 55.2248 161.467 47.5436 157.626 47.4112C153.785 47.2788 154.58 52.4437 155.242 56.0195C155.904 59.5952 157.229 65.1575 155.507 66.2169C153.785 67.2764 145.44 72.9711 145.44 72.9711L150.209 86.2146Z" fill="#CA8453"/>
<path d="M109.273 95.3525L94.9684 100.517C94.9684 100.517 98.1473 106.874 102.518 114.556C107.419 107.139 108.479 100.517 109.273 95.3525Z" fill="#8BCEDE"/>
<path d="M118.281 114.026C116.559 118.131 114.042 122.502 110.201 126.607C113.777 131.772 117.354 136.142 120.268 137.997C128.877 143.426 156.295 139.586 157.223 118.131C155.898 118.661 140.003 125.15 129.142 123.164C125.168 122.369 121.46 118.529 118.281 114.026Z" fill="#8BCEDE"/>
<path d="M110.198 126.607C114.039 122.502 116.556 118.132 118.278 114.026C121.457 118.661 125.033 122.502 129.139 123.164C140 125.151 155.895 118.661 157.22 118.132C157.352 116.675 157.219 115.086 156.955 113.364C152.054 46.8816 108.344 13.508 99.3367 7.01871C90.3297 0.396972 85.429 0.264562 83.7071 6.09169C81.9852 11.9188 94.8333 14.7 94.8333 14.7C94.8333 14.7 116.688 28.0759 125.033 50.4573C125.033 50.4573 129.404 51.5168 130.993 58.9332C131.788 62.244 132.45 72.8388 117.086 77.474L119.47 83.566C111.258 84.2282 110.33 88.5985 109.138 95.3527L102.516 114.423C100.661 117.337 98.2771 120.383 95.0982 123.561C82.2501 136.407 63.3089 143.824 58.2757 146.605C52.9775 149.519 59.0705 153.359 62.5143 153.227C67.8125 153.094 99.4691 137.335 108.609 128.064C108.873 127.799 110.86 125.68 111.125 125.415" fill="#B46C51"/>
<path d="M116.826 49.0006C116.826 49.0006 107.422 48.4709 107.819 61.7144C111.66 59.3306 118.68 62.1117 119.078 65.1577C119.342 67.4091 116.031 69.3956 116.031 69.3956C118.415 71.7794 121.462 73.2362 126.098 72.9713C129.277 70.4551 131.661 66.7469 131.396 61.4495C130.866 49.1331 121.064 48.8682 116.826 49.0006Z" fill="#965442"/>
<path d="M119.081 65.0251C118.684 61.9791 111.664 59.198 107.822 61.5818C108.352 76.0172 109.677 78.6659 113.783 78.1362C116.167 77.8713 121.73 76.4145 125.969 72.8388C121.465 73.1036 118.286 71.6468 115.902 69.263C116.035 69.263 119.346 67.2765 119.081 65.0251Z" fill="#B46C51"/>
<path d="M55.1002 146.738C55.63 146.076 56.4246 145.413 57.3518 144.884C58.8088 144.089 60.928 143.162 63.5771 141.838C66.2262 140.513 69.4052 138.924 72.849 137.07C79.7366 133.362 87.5515 128.329 93.7769 122.105C96.5585 119.456 98.6778 116.807 100.267 114.291C96.1611 107.14 93.2471 101.313 93.2471 101.313L92.8498 100.518C92.32 100.518 91.9225 100.65 91.3927 100.65C84.6375 100.65 79.3393 98.5315 75.3657 95.6179C71.392 92.7044 68.8754 89.1286 67.2859 86.2151C66.2263 84.2285 65.564 82.6393 65.4315 81.5798C65.4315 81.315 65.2991 81.0501 65.2991 80.6528C65.2991 79.0636 65.564 77.4744 66.0938 76.15C66.6236 74.8257 67.1535 73.6337 67.8158 72.7067C68.2132 72.0445 68.6105 71.5148 69.1403 71.1175C69.4052 70.8526 69.6701 70.5878 70.1999 70.4553C70.4648 70.3229 70.7298 70.3229 71.1272 70.3229C71.5245 70.3229 71.9219 70.3229 72.3193 70.4553C72.7167 70.5878 73.1139 70.8526 73.5113 70.9851C74.1735 71.5148 74.8359 72.0445 75.6307 73.104C77.2201 74.8257 79.7368 77.8716 84.2402 83.169C84.77 83.0366 85.4322 82.9042 85.962 82.7717C87.1541 82.6393 88.3463 82.5069 89.6708 82.3745C92.1875 82.242 94.704 82.1096 96.0286 82.1096C96.2935 82.1096 96.4259 82.1096 96.6908 82.1096H96.8234C96.9559 82.1096 97.0882 82.1096 97.2207 82.1096H97.3531C98.2803 82.1096 99.0751 82.3744 99.8698 82.7717C100.797 83.1691 101.592 83.6988 102.386 84.2285C103.976 85.4205 105.433 86.8772 106.758 88.334C107.287 88.9962 107.817 89.6584 108.347 90.3205C108.479 90.0557 108.479 89.7908 108.479 89.5259C109.009 87.8043 109.672 86.3475 110.864 85.0232C111.658 84.0961 112.585 83.4339 113.778 82.9042C114.705 82.5069 115.632 82.1096 116.824 81.9771L116.029 79.8582C115.367 79.9906 114.705 80.1231 114.175 80.2555C113.778 80.2555 113.38 80.3879 112.85 80.3879C111.923 80.3879 110.996 80.2555 110.201 79.7258C109.407 79.196 108.744 78.5338 108.215 77.6068C107.287 75.8851 106.757 73.5013 106.36 70.1904C106.095 67.9391 105.963 65.1579 105.83 61.8471C105.83 61.4498 105.83 61.1849 105.83 60.7876C105.83 56.2848 107.022 52.9739 108.744 50.855C110.466 48.736 112.585 47.6765 114.307 47.2792C115.367 47.0144 116.294 47.0144 116.692 47.0144C116.824 47.0144 116.824 47.0144 116.957 47.0144C117.221 47.0144 117.486 47.0144 117.751 47.0144C118.943 47.0144 120.268 47.1468 121.857 47.4116C117.884 38.6709 111.791 31.5195 106.36 26.2221C100.532 20.6598 95.4989 17.349 94.3068 16.5543C93.7769 16.4219 92.8498 16.157 91.6577 15.7597C89.9357 15.23 87.684 14.3029 85.8296 13.111C84.5051 12.3164 83.313 11.257 82.5182 9.93261C82.1209 9.138 81.7235 8.21095 81.7235 7.15147C81.7235 6.62173 81.8559 6.09202 81.9884 5.56228C82.5182 3.97306 83.1806 2.51628 84.3726 1.58923C85.5647 0.529755 87.0217 0 88.6111 0C90.333 0 92.1875 0.529747 94.1743 1.45679C96.1612 2.38383 98.2804 3.70819 100.797 5.56228C105.433 8.87315 118.678 19.0706 131.527 36.6845C137.884 45.4252 143.977 56.0199 149.011 68.4688C150.07 67.6742 151.262 66.8796 152.322 66.2174C153.249 65.5552 154.044 65.1579 154.441 64.7606C154.441 64.6282 154.574 64.0984 154.574 63.5687C154.574 62.6417 154.441 61.4497 154.176 60.2578C153.911 59.0659 153.646 57.7416 153.514 56.5497C153.249 55.0929 152.984 53.2388 152.984 51.5171C152.984 50.7225 152.984 50.0603 153.249 49.3982C153.382 48.736 153.646 47.9414 154.176 47.2792C154.441 46.8819 154.971 46.4846 155.501 46.0873C156.163 45.69 156.958 45.5576 157.885 45.5576H158.15C158.945 45.5576 159.739 45.8224 160.402 46.2197C161.064 46.617 161.726 47.0143 162.389 47.5441C163.581 48.6036 164.64 50.0604 165.7 51.6496C167.687 54.9604 169.144 59.3308 169.541 64.0984C169.541 64.3633 169.541 64.6282 169.541 64.7606C169.541 67.6742 168.217 70.3229 166.627 72.9716C164.905 75.6203 162.786 78.0041 160.534 80.2555C158.547 82.3745 156.428 84.0961 154.971 85.4204C157.223 94.0287 158.812 103.299 159.607 113.364C159.739 114.689 159.872 115.88 159.872 117.205C159.872 117.602 159.872 117.999 159.872 118.397C159.739 122.635 158.547 126.343 156.693 129.521C154.839 132.567 152.322 135.083 149.408 137.07C143.712 140.911 136.692 142.5 130.732 142.5C126.493 142.5 122.652 141.705 119.87 139.984C118.149 138.792 116.427 137.202 114.572 135.083C113.248 133.494 111.923 131.773 110.466 129.919C108.479 131.773 105.83 133.759 102.784 135.746C99.3401 138.129 95.3663 140.513 91.2602 142.897C83.048 147.532 74.4384 151.77 68.8753 154.022C67.2859 154.684 65.8289 155.081 64.7693 155.346C64.107 155.478 63.5773 155.611 63.0474 155.611H62.9149C61.5903 155.611 60.2659 155.214 59.0738 154.684C57.8817 154.154 56.6896 153.359 55.7624 152.3C55.2326 151.638 54.7027 150.578 54.7027 149.519C54.3054 148.459 54.5703 147.532 55.1002 146.738ZM91.2602 95.3531C90.7304 93.499 90.4655 91.6449 90.4655 89.9232C90.4655 88.5989 90.598 87.407 91.1278 86.2151C89.6708 86.3475 88.0813 86.4799 86.7567 86.6123C85.6971 86.7448 84.9024 87.0096 84.5051 87.1421L83.1805 87.6719L82.2534 86.6123C79.0745 83.0366 76.8227 80.3879 75.2332 78.4014C73.6438 76.5473 72.5841 75.3554 71.9219 74.6932C71.7894 74.5608 71.6569 74.4284 71.5244 74.4284C71.2595 74.6932 70.9946 75.0905 70.7297 75.6203C70.0675 76.9446 69.4052 78.6663 69.4052 80.5203C69.4052 80.6528 69.4052 80.7852 69.5376 80.9177C69.6701 81.1825 69.8026 81.7123 69.935 82.242C70.3324 83.3015 70.9947 84.6258 71.9219 86.0826C73.7762 88.9962 76.8227 92.1746 81.0613 94.2936C83.8428 95.7504 87.2867 96.6774 91.5252 96.6774H91.6577C91.5252 96.2801 91.3927 95.7504 91.2602 95.3531ZM157.355 118.132H158.415H157.355ZM105.83 93.6314C104.638 92.0422 103.181 90.0557 101.459 88.5989C100.4 87.5394 99.2076 86.7448 98.2804 86.3475C97.7506 86.0826 97.4856 86.0826 97.0883 86.0826C97.0883 86.0826 97.0883 86.0826 96.9559 86.0826H96.8234C96.691 86.0826 96.426 86.0826 96.2936 86.2151C95.4989 86.4799 95.1015 86.8772 94.8366 87.407C94.5717 87.9367 94.3068 88.7313 94.3068 89.9232C94.3068 91.1151 94.5717 92.7044 94.969 94.2936C95.2339 95.4855 95.7638 96.6774 96.1612 97.8693L106.228 94.2936C106.095 94.1612 105.963 93.8963 105.83 93.6314ZM97.883 101.578C98.1479 102.24 98.5453 102.902 98.9427 103.696C99.8699 105.551 101.194 107.934 102.651 110.451C104.903 106.08 105.963 101.975 106.758 98.399L97.883 101.578ZM110.599 71.5148C110.864 73.8986 111.393 75.223 111.791 75.7527C112.056 76.15 112.188 76.15 112.321 76.2825C112.453 76.2825 112.586 76.4149 112.85 76.4149C112.983 76.4149 113.248 76.4149 113.513 76.4149C114.175 76.2825 115.102 76.15 116.294 75.7527L116.559 75.6203C117.884 75.223 119.076 74.6932 120.135 74.2959C119.738 74.1635 119.341 74.031 118.943 73.8986C117.221 73.104 115.632 72.0445 114.44 70.8526L112.585 68.9985L114.837 67.6742L114.97 67.5417C115.102 67.4093 115.367 67.2769 115.5 67.1445C115.897 66.7472 116.427 66.3498 116.692 65.9525C116.824 65.6876 116.824 65.5552 116.824 65.4228C116.824 65.4228 116.824 65.1579 116.559 64.8931C116.294 64.6282 115.897 64.2309 115.235 63.966C114.042 63.3038 112.453 62.9065 111.128 62.9065C110.599 62.9065 110.069 63.039 109.671 63.039C110.069 66.6147 110.334 69.3958 110.599 71.5148ZM117.751 50.9874C117.486 50.9874 117.221 50.9874 116.957 50.9874H116.824H116.692C116.427 50.9874 115.367 50.9874 114.175 51.5171C112.983 52.0469 111.791 52.9739 110.864 54.9604C110.466 56.0199 110.069 57.2118 109.936 58.9335C110.466 58.801 110.996 58.801 111.393 58.801C112.983 58.801 114.572 59.1984 116.029 59.7281C117.486 60.2578 118.811 61.0524 119.738 62.1119C120.4 62.7741 120.93 63.7011 121.063 64.7606C121.063 64.893 121.063 65.0255 121.063 65.2903C121.063 66.3498 120.665 67.1445 120.268 67.8066C119.871 68.3364 119.473 68.8661 119.076 69.2634C119.606 69.5283 120.003 69.7931 120.533 70.058C121.725 70.5877 123.182 70.8526 125.036 70.8526H125.169C125.301 70.7202 125.434 70.5878 125.566 70.4553C126.096 69.9256 126.626 69.2634 127.023 68.7337C128.083 67.2769 128.612 65.8201 129.01 64.4958C129.142 63.7012 129.275 62.9065 129.275 61.9795C129.275 61.847 129.275 61.5822 129.275 61.4497C129.275 60.5227 129.142 59.5957 129.01 58.801C128.612 57.3443 128.215 56.1524 127.685 55.2253C126.891 54.0334 125.963 53.1064 124.904 52.4442C124.771 52.3118 124.506 52.1793 124.242 52.1793L123.579 52.0469V51.9145C121.725 51.1198 119.473 50.9874 117.751 50.9874ZM162.786 70.7202C164.243 68.4688 165.17 66.2174 165.17 64.7606C165.17 64.6282 165.17 64.4958 165.17 64.3633C164.905 61.7146 164.375 59.0659 163.448 56.8145C162.521 54.5631 161.461 52.709 160.402 51.3847C159.739 50.4576 158.945 49.9279 158.415 49.663C158.15 49.5306 157.885 49.5306 157.753 49.3982H157.62C157.355 49.3982 157.355 49.3982 157.223 49.3982L157.09 49.5306C156.958 49.7955 156.825 50.4576 156.825 51.3847C156.825 52.5766 157.09 54.1658 157.355 55.6226C157.62 56.6821 157.885 58.1389 158.018 59.4632C158.282 60.7876 158.415 62.2443 158.415 63.4363C158.415 63.966 158.415 64.6282 158.282 65.1579C158.15 65.6877 158.017 66.2174 157.62 66.8796C157.355 67.2769 157.09 67.6742 156.561 67.939C156.031 68.3363 154.441 69.3958 152.719 70.5877C151.925 71.1175 151.13 71.6472 150.335 72.177C151.395 75.0905 152.322 78.0041 153.249 81.1825C153.514 80.9176 153.911 80.6528 154.176 80.3879C157.223 77.6068 160.667 74.031 162.786 70.7202ZM117.089 132.17C118.678 134.024 120.268 135.481 121.46 136.275C123.182 137.335 126.493 138.129 130.202 138.129C134.176 138.129 138.679 137.335 142.785 135.481C146.891 133.627 150.468 130.978 152.719 127.137C153.779 125.416 154.574 123.297 154.971 121.045C153.514 121.575 151.66 122.237 149.54 122.767C145.037 124.091 139.209 125.416 133.778 125.416C132.056 125.416 130.467 125.283 128.877 125.018C126.361 124.489 124.109 123.164 122.122 121.443C120.93 120.383 119.871 119.191 118.811 117.867C117.354 120.781 115.367 123.827 112.85 126.74C114.307 128.727 115.632 130.581 117.089 132.17ZM58.2789 149.386C58.4114 149.519 58.5439 149.784 58.8088 149.916C59.3386 150.314 60.1333 150.843 60.928 150.976C61.4579 151.108 61.9878 151.241 62.3852 151.241C62.5176 151.241 63.1798 151.108 63.9746 150.843C64.7693 150.578 65.9614 150.181 67.1535 149.651C69.6702 148.724 72.8491 147.267 76.2929 145.546C83.1806 142.235 91.2602 137.732 97.883 133.494C102.254 130.713 105.963 127.932 108.082 125.813C108.347 125.548 108.612 125.283 108.877 125.018C112.586 121.178 114.97 116.94 116.559 112.967C119.076 106.478 119.473 100.783 119.473 98.399C119.473 97.6044 119.473 97.2071 119.473 97.2071L123.447 96.9423C123.447 96.9423 123.447 97.472 123.447 98.399C123.447 101.048 123.182 106.742 120.665 113.497C121.99 115.351 123.447 117.072 124.904 118.264C126.493 119.721 128.215 120.648 129.805 120.913C131.129 121.178 132.586 121.31 134.043 121.31C137.619 121.31 141.593 120.648 145.169 119.721C148.746 118.794 151.925 117.735 154.176 116.94C154.706 116.675 155.236 116.543 155.633 116.41C155.633 115.351 155.501 114.424 155.368 113.232C152.984 80.3879 140.931 55.7551 128.48 38.5385C116.029 21.322 103.049 11.5218 98.6777 8.21097C96.4259 6.48932 94.4391 5.29738 92.7172 4.50278C91.1277 3.70817 89.8033 3.44331 88.8761 3.44331C88.0814 3.44331 87.684 3.57574 87.2866 3.97304C86.8892 4.37035 86.4918 5.03253 86.0945 6.09201C86.0945 6.22444 85.962 6.35687 85.962 6.62174C85.962 6.88661 85.9621 7.15149 86.227 7.41636C86.3595 7.68123 86.6244 8.07851 87.0217 8.34338C87.8165 9.00555 89.0086 9.80016 90.2007 10.3299C92.7173 11.5218 95.4988 12.184 95.7637 12.184L96.0286 12.3164L96.2936 12.4489C96.426 12.4489 101.989 15.8922 108.612 22.249C115.102 28.341 122.652 37.2142 127.023 48.4711C127.553 48.736 128.348 49.2658 129.275 49.9279C130.07 50.5901 130.732 51.5171 131.527 52.709C131.659 52.8415 131.659 52.9739 131.791 53.1064C132.454 54.2983 132.984 55.755 133.381 57.4767C133.381 57.6091 133.513 57.7416 133.513 58.0064C133.646 58.801 133.911 59.993 133.911 61.4497C133.911 62.5092 133.778 63.7011 133.513 65.0255C133.248 66.4823 132.719 67.6742 132.189 68.8661C131.527 70.1904 130.599 71.2499 129.672 72.3094C129.54 72.5743 129.275 72.7067 129.01 72.9716C127.42 74.5608 125.301 76.0176 122.652 77.2095C121.857 77.6068 121.195 77.8717 120.4 78.1365H120.268L122.917 84.8907L120.268 85.0232C118.149 85.1556 116.692 85.5529 115.764 86.2151C114.837 86.7448 114.175 87.407 113.645 88.4664C113.248 89.1286 112.983 89.9232 112.718 90.8503C112.321 92.0422 112.056 93.6314 111.791 95.3531C110.864 100.518 109.804 107.537 104.903 115.218C102.916 118.264 100.4 121.443 97.0883 124.621C87.1542 134.554 73.9087 141.176 65.829 145.149C63.1799 146.473 60.9281 147.4 59.8685 148.062C59.4711 148.327 59.2061 148.592 58.9412 148.724C58.8088 148.857 58.8088 148.989 58.8088 148.989L58.2789 149.386Z" fill="#5B3A1C"/>
</svg>
