<svg width="91" height="91" viewBox="0 0 91 91" fill="none" xmlns="http://www.w3.org/2000/svg">
<path d="M69.9527 79.139L69.3694 78.3612C79.5291 70.9723 86.0916 59.014 86.0916 45.5001C86.0916 41.1251 85.411 36.8959 84.0985 32.9584C81.4735 24.7917 76.3207 17.7917 69.5638 12.7848C62.8555 7.77786 54.543 4.86119 45.5013 4.86119C36.4596 4.86119 28.1471 7.77786 21.3902 12.7848C14.6332 17.7431 9.48047 24.7917 6.85547 32.9584C5.54297 36.8959 4.86241 41.1251 4.86241 45.5001C4.86241 59.014 11.4735 70.9723 21.6332 78.3612C28.3416 83.2223 36.6055 86.0904 45.5013 86.0904C54.4457 86.0904 62.7096 83.2223 69.3694 78.3612L69.9527 79.139L70.536 79.9167C63.536 85.0209 54.8346 88.0348 45.5013 88.0348C36.168 88.0348 27.5152 85.0209 20.4666 79.9167C9.82075 72.1876 2.91797 59.6459 2.91797 45.5001C2.91797 40.9306 3.64714 36.507 5.00825 32.3265C7.77908 23.7709 13.1749 16.4306 20.2235 11.2292C27.2721 5.97925 36.0221 2.91675 45.5013 2.91675C54.9805 2.91675 63.6819 5.97925 70.7791 11.2292C77.8277 16.4306 83.2235 23.8195 85.9944 32.3265C87.3555 36.4584 88.0846 40.882 88.0846 45.5001C88.0846 59.6459 81.1819 72.1876 70.536 79.9654L69.9527 79.139Z" fill="#5B3A1C"/>
<path d="M45.2083 4.86108C51.6383 4.86108 57.9773 6.37956 63.7094 9.29289C69.4415 12.2062 74.4045 16.432 78.1945 21.6263C81.9845 26.8206 84.4942 32.8365 85.5193 39.1841C86.5445 45.5318 86.0561 52.0319 84.0939 58.1552C82.1318 64.2784 78.7513 69.8517 74.2277 74.4213C69.7042 78.991 64.1654 82.4277 58.0623 84.4518C51.9593 86.4759 45.4645 87.0301 39.1067 86.0693C32.749 85.1085 26.708 82.6598 21.4756 78.9227L45.2083 45.6944L45.2083 4.86108Z" fill="#F36E67"/>
<path d="M45.2096 4.86108C36.5862 4.86108 28.1841 7.59119 21.2077 12.6601C14.2313 17.729 9.0387 24.8764 6.37427 33.0779C3.70984 41.2795 3.71033 50.114 6.37567 58.3152C9.04101 66.5164 14.2344 73.6633 21.2113 78.7314L45.2096 45.6944L45.2096 4.86108Z" fill="white"/>
<path d="M44.5273 45.5V3.88892H46.4718V45.5" fill="#5B3A1C"/>
<path d="M45.207 44.5763L84.7765 31.6943L85.3598 33.5416L45.7904 46.4235" fill="#5B3A1C"/>
<path d="M46.2782 44.9167L70.7296 78.5556L69.174 79.7223L44.7227 46.0348" fill="#5B3A1C"/>
<path d="M46.2765 46.0348L21.8251 79.7223L20.2695 78.5556L44.7209 44.9167" fill="#5B3A1C"/>
<path d="M45.2081 46.4236L5.63867 33.5417L6.22201 31.6945L45.7914 44.5764" fill="#5B3A1C"/>
<path d="M45.5 3.88889C68.4931 3.88889 87.1111 22.5069 87.1111 45.5C87.1111 68.4931 68.4931 87.1111 45.5 87.1111C22.5069 87.1111 3.88889 68.4444 3.88889 45.5C3.88889 22.5069 22.5069 3.88889 45.5 3.88889ZM45.5 0C20.4167 0 0 20.4167 0 45.5C0 70.5833 20.4167 91 45.5 91C70.5833 91 91 70.5833 91 45.5C91 20.4167 70.5833 0 45.5 0Z" fill="#54362C"/>
<path d="M45.6931 45.6459L18.4223 75.8821L18.082 75.5904L45.3043 45.3057" fill="#54362C"/>
<path d="M45.6467 45.6459L15.4106 72.9168L15.0703 72.5279L45.3064 45.3057" fill="#54362C"/>
<path d="M45.6467 45.6946L12.6884 69.6112L12.4453 69.2223L45.355 45.3057" fill="#54362C"/>
<path d="M45.5974 45.6945L10.3544 66.0625L10.1113 65.625L45.3544 45.257" fill="#54362C"/>
<path d="M45.5968 45.6943L8.40929 62.2707L8.21484 61.8332L45.4023 45.2568" fill="#54362C"/>
<path d="M45.5473 45.7429L6.85286 58.2846L6.70703 57.8471L45.4015 45.2568" fill="#54362C"/>
<path d="M45.5484 45.7431L5.73589 54.2014L5.63867 53.7153L45.4512 45.257" fill="#54362C"/>
<path d="M45.5009 45.7429L5.05642 49.9721L5.00781 49.486L45.4523 45.2568" fill="#54362C"/>
<path d="M45.5 45.7431H4.8125V45.257H45.5" fill="#54362C"/>
<path d="M45.4523 45.7431L5.00781 41.4654L5.05642 40.9792L45.5009 45.257" fill="#54362C"/>
<path d="M45.4512 45.743L5.63867 37.2847L5.73589 36.7986L45.5484 45.2569" fill="#54362C"/>
<path d="M45.4023 45.6945L8.21484 29.1667L8.40929 28.7292L45.5968 45.257" fill="#54362C"/>
<path d="M45.3544 45.6944L10.1113 25.375L10.3544 24.9375L45.5974 45.2569" fill="#54362C"/>
<path d="M45.355 45.6945L12.4453 21.7778L12.737 21.3889L45.6467 45.3056" fill="#54362C"/>
<path d="M45.3064 45.6458L15.0703 18.4235L15.4106 18.0833L45.6467 45.3055" fill="#54362C"/>
<path d="M45.3043 45.6457L18.082 15.4096L18.4223 15.0693L45.6931 45.3054" fill="#54362C"/>
<path d="M45.3053 45.6458L21.3887 12.6875L21.7776 12.4445L45.6942 45.3542" fill="#54362C"/>
<path d="M45.2569 45.5972L24.9375 10.3541L25.375 10.1111L45.6944 45.3541" fill="#54362C"/>
<path d="M45.2582 45.5973L28.7305 8.40978L29.168 8.21533L45.6957 45.4028" fill="#54362C"/>
<path d="M45.2582 45.5485L32.668 6.85409L33.1541 6.70825L45.7444 45.4027" fill="#54362C"/>
<path d="M45.2572 45.5486L36.7988 5.73614L37.2849 5.63892L45.7433 45.4514" fill="#54362C"/>
<path d="M45.2582 45.4999L40.9805 5.05545L41.4666 5.00684L45.7444 45.4513" fill="#54362C"/>
<path d="M74.9093 45.5001C74.9093 29.2639 61.7357 16.0903 45.4996 16.0903C29.2635 16.0903 16.0898 29.2639 16.0898 45.5001C16.0898 61.7362 29.2635 74.9098 45.4996 74.9098C61.7357 74.9098 74.9093 61.7362 74.9093 45.5001Z" fill="#56382E"/>
<path d="M74.9089 45.5001H73.9366C73.9366 37.6251 70.7769 30.5279 65.6241 25.3751C60.4714 20.2223 53.3741 17.0626 45.4991 17.0626C37.6241 17.0626 30.5269 20.2223 25.3741 25.3751C20.2214 30.5279 17.0616 37.6251 17.0616 45.5001C17.0616 53.3751 20.2214 60.4723 25.3741 65.6251C30.5269 70.7779 37.6241 73.9376 45.4991 73.9376C53.3741 73.9376 60.4714 70.7779 65.6241 65.6251C70.7769 60.4723 73.9366 53.3751 73.9366 45.5001H74.9089H75.8811C75.8811 62.2709 62.27 75.8821 45.4991 75.8821C28.7283 75.8821 15.1172 62.2709 15.1172 45.5001C15.1172 28.7293 28.7283 15.1182 45.4991 15.1182C62.27 15.1182 75.8811 28.7293 75.8811 45.5001H74.9089Z" fill="#54362C"/>
<path d="M61.7359 36.7014C62.1734 36.7014 62.4164 36.993 62.4164 37.4791C62.4164 38.5 60.9581 39.2291 59.6942 39.0347C59.9373 37.7708 60.7637 36.7014 61.7359 36.7014ZM64.4581 39.9097C63.7776 40.5903 62.5623 41.5625 61.4442 41.5625C60.3262 41.5625 59.7428 41.0764 59.597 40.2986C61.5414 40.7361 64.1665 39.6666 64.1665 37.3819C64.1665 36.2153 63.3401 35.0972 61.8331 35.0972C59.3053 35.0972 57.6039 37.5278 57.6039 40.0555C57.6039 42.0972 59.1109 43.1666 61.0067 43.1666C62.8053 43.1666 64.3609 42.243 65.2845 41.2222L64.4581 39.9097ZM58.5276 37.7708C57.1664 40.5416 55.9998 41.5139 54.104 41.5139C53.1317 41.5139 52.5484 40.8819 52.5484 39.8125C52.5484 38.3541 53.472 36.7986 54.347 36.7986C54.979 36.7986 55.1248 37.6736 54.7359 38.7916H56.7776C57.4095 36.993 56.6317 35.0486 54.5901 35.0486C52.354 35.0486 50.4581 37.3819 50.4581 40.0069C50.4581 42 51.8192 43.118 53.6178 43.118C57.0206 43.118 58.2359 40.8819 59.3539 38.6458L58.5276 37.7708ZM51.4789 37.8194C50.5067 39.8611 49.2428 41.3194 48.5137 41.3194C47.4442 41.3194 48.6595 38.5972 49.8748 35.2916H47.8331C46.2776 39.375 44.8678 43.1666 47.8817 43.1666C49.7776 43.1666 51.5762 40.3472 52.3053 38.6944L51.4789 37.8194ZM49.2914 34.2708C50.1178 34.2708 50.8956 33.3472 50.8956 32.5208C50.8956 31.9375 50.4581 31.5 49.8748 31.5C49.0484 31.5 48.2706 32.3264 48.2706 33.25C48.3192 33.8333 48.6595 34.2708 49.2914 34.2708ZM40.7845 41.6111C40.2498 41.6111 39.7637 41.4166 39.5206 41.125C40.6873 38.0139 41.8053 36.7986 42.5831 36.8472C43.0692 36.8472 43.3123 37.2361 43.3123 37.9166C43.2637 39.375 42.0484 41.6111 40.7845 41.6111ZM37.3331 47.9305C37.9651 45.7916 38.5484 43.9444 39.0345 42.4861C39.7637 42.9722 40.7359 43.1666 41.7081 43.1666C43.9928 43.1666 46.1317 42.7291 47.8331 38.7916L46.9581 37.7222C45.9859 40.1041 44.5762 41.4166 43.2637 41.5139C44.3817 40.7361 45.2567 38.743 45.2567 37.4305C45.2567 35.9236 44.5762 35.0486 43.5067 35.0486C42.4373 35.0486 41.4651 35.8264 40.8331 36.8958L41.5137 35.243H39.5206C38.0623 39.4236 36.6526 43.7014 35.1942 47.8819H37.3331V47.9305ZM31.3053 44.9166C34.3678 44.9166 36.5067 42.5833 36.5553 40.1528C36.6039 36.2639 32.1317 36.118 32.1317 33.5416C32.1317 32.2778 33.0553 31.2569 34.3678 31.2569C35.5831 31.2569 36.7012 32.3264 35.7776 34.5625H38.0137C39.1803 31.9861 37.6734 29.3611 34.6109 29.3611C31.7914 29.3611 29.9442 31.5486 29.8956 33.7361C29.8956 37.5764 34.2706 37.5278 34.2706 40.3472C34.2706 41.7083 33.0553 42.9722 31.5484 42.9722C30.2845 42.9722 29.3123 42.1944 29.3123 40.9305C29.3123 40.2014 29.6039 39.375 30.0414 38.8889L28.1456 37.868C27.5137 38.5972 27.0762 40.0069 27.0762 40.9791C27.0762 43.3125 28.7776 44.9166 31.3053 44.9166Z" fill="#D03F36"/>
<path d="M59.8889 49.8264V60.8126H65.9653V58.1876H62.5139V49.8264H59.8889V49.8264ZM51.3333 60.8126H58.0903V58.2848H53.9583V56.2431H57.1181V54.1042H53.9583V52.3056H58.0417V49.7778H51.2847V60.8126H51.3333ZM47.2986 49.8264L45.5486 56.9237L43.75 49.8264H40.9792L44.4306 60.8126H46.6667L50.0694 49.8264H47.2986ZM33.2014 60.8126H39.9583V58.2848H35.875V56.2431H39.0347V54.1042H35.875V52.3056H39.9583V49.7778H33.2014V60.8126ZM25.8125 49.8264V60.8126H31.8889V58.1876H28.4375V49.8264H25.8125V49.8264Z" fill="#D03F36"/>
</svg>
