<svg width="118" height="92" viewBox="0 0 118 92" fill="none" xmlns="http://www.w3.org/2000/svg">
<path d="M105.132 38.6214C107.228 39.3501 109.323 40.1699 110.872 41.7184C111.783 42.5382 112.421 43.5402 113.058 44.5422C113.969 45.9996 114.789 47.5481 115.245 49.1877C115.7 50.8273 115.882 52.649 115.427 54.2886C115.245 55.0174 114.88 55.7461 114.243 56.1104C113.332 56.4748 112.329 56.0194 111.51 55.5639C109.596 54.4709 107.592 53.4689 105.588 52.6491C104.95 52.3758 104.221 52.1026 103.584 51.7382C102.673 51.2828 101.762 50.6451 100.942 50.0075C99.1196 48.5501 97.2975 47.0926 95.5665 45.6352C95.2932 45.453 95.111 45.2709 94.9288 44.9976C94.7466 44.5422 94.9288 43.9045 95.2022 43.449C95.7488 42.2649 96.2953 41.0808 96.7509 39.9877C97.1153 39.1679 97.3886 38.0748 98.3908 37.8015C100.668 37.0728 103.128 37.8927 105.132 38.6214Z" fill="#88BE55"/>
<path d="M32.1581 33.9762L19.1304 21.0415C17.4906 21.1326 15.8507 20.9504 14.2109 20.3128C12.2066 19.5841 10.2023 18.3999 8.56247 16.7603C6.1938 14.392 4.73617 11.4771 4.37176 8.65339L1.63867 5.92071C2.00308 5.37418 2.36748 4.91876 2.823 4.46331C3.55182 3.7346 4.28065 3.18804 5.19168 2.73259C13.8465 -1.82186 22.4101 6.37616 23.2301 7.28705C27.4208 11.6593 28.0585 17.2157 35.529 25.687L35.7111 25.8693C36.0755 26.4158 43.2727 32.7009 43.8193 33.1564L65.5018 45.9089L39.2642 45.9999L41.724 68.3168L38.9909 87.2633L29.3339 67.3148L25.5076 49.5524L25.2343 41.992L28.2407 35.8891L32.1581 33.9762Z" fill="#88BE55"/>
<path d="M25.7821 37.7109C26.6954 36.0507 27.9113 34.693 29.3608 33.707L29.4371 33.7832L29.7906 33.4297L29.5299 33.003C29.4956 33.024 29.4614 33.0451 29.4274 33.0665L24.6889 28.3287L18.6761 22.4079H18.4028C16.9451 22.4079 15.3964 22.1347 13.8476 21.5881C11.5701 20.7683 9.4747 19.4931 7.65264 17.6713C5.19286 15.2119 3.64412 12.297 3.1886 9.2911L25.7821 37.7109ZM25.7821 37.7109C24.4156 40.0792 23.5957 42.994 23.5957 46.1821M25.7821 37.7109L23.5957 46.1821M23.5957 46.1821C23.5957 46.9108 23.6868 47.7307 23.7779 48.4594M23.5957 46.1821L23.7779 48.4594M23.7779 48.4594C24.2334 52.2851 25.5088 57.8416 27.2398 63.7624M23.7779 48.4594L27.2398 63.7624M27.2398 63.7624C28.9707 69.6832 31.1572 75.9683 33.5259 81.1604L27.2398 63.7624ZM2.24035 3.14054C2.15971 3.21691 2.08098 3.29361 2.00428 3.37031C2.21146 3.31852 2.2734 3.22546 2.24035 3.14054ZM40.4126 88.9995L40.0619 90.8695L38.8309 89.4043C38.8305 89.4038 38.83 89.4033 38.8296 89.4028C37.1423 87.3601 35.5248 84.4036 33.9823 80.9562L33.9808 80.9529C31.6253 75.7896 29.4465 69.5287 27.7197 63.6221C25.9918 57.712 24.7251 52.1859 24.2744 48.4002L24.274 48.3973C24.1829 47.6685 24.0957 46.8764 24.0957 46.1821C24.0957 43.0793 24.8937 40.251 26.2152 37.9608L26.2153 37.9609L26.2202 37.9519C27.1838 36.2003 28.4915 34.8094 30.0513 33.8563L30.5933 33.5252L30.1442 33.0761L25.0424 27.9751L25.0424 27.9751L25.0397 27.9724L19.0269 22.0516L18.881 21.9079H18.6761H18.6756H18.6751H18.6745H18.674H18.6735H18.6729H18.6724H18.6719H18.6713H18.6708H18.6703H18.6697H18.6692H18.6687H18.6681H18.6676H18.6671H18.6665H18.666H18.6655H18.6649H18.6644H18.6639H18.6633H18.6628H18.6622H18.6617H18.6612H18.6606H18.6601H18.6596H18.659H18.6585H18.658H18.6574H18.6569H18.6564H18.6558H18.6553H18.6548H18.6542H18.6537H18.6532H18.6526H18.6521H18.6516H18.651H18.6505H18.65H18.6494H18.6489H18.6484H18.6478H18.6473H18.6468H18.6462H18.6457H18.6452H18.6446H18.6441H18.6436H18.643H18.6425H18.642H18.6414H18.6409H18.6404H18.6398H18.6393H18.6388H18.6382H18.6377H18.6372H18.6366H18.6361H18.6356H18.635H18.6345H18.634H18.6334H18.6329H18.6324H18.6318H18.6313H18.6308H18.6302H18.6297H18.6292H18.6286H18.6281H18.6275H18.627H18.6265H18.6259H18.6254H18.6249H18.6243H18.6238H18.6233H18.6227H18.6222H18.6217H18.6211H18.6206H18.6201H18.6195H18.619H18.6185H18.6179H18.6174H18.6169H18.6163H18.6158H18.6153H18.6147H18.6142H18.6137H18.6131H18.6126H18.6121H18.6115H18.611H18.6105H18.6099H18.6094H18.6089H18.6083H18.6078H18.6073H18.6067H18.6062H18.6057H18.6051H18.6046H18.6041H18.6035H18.603H18.6025H18.6019H18.6014H18.6009H18.6003H18.5998H18.5993H18.5987H18.5982H18.5977H18.5971H18.5966H18.596H18.5955H18.595H18.5944H18.5939H18.5934H18.5928H18.5923H18.5918H18.5912H18.5907H18.5902H18.5896H18.5891H18.5886H18.588H18.5875H18.587H18.5864H18.5859H18.5854H18.5848H18.5843H18.5838H18.5832H18.5827H18.5822H18.5816H18.5811H18.5806H18.58H18.5795H18.579H18.5784H18.5779H18.5774H18.5768H18.5763H18.5758H18.5752H18.5747H18.5742H18.5736H18.5731H18.5726H18.572H18.5715H18.571H18.5704H18.5699H18.5694H18.5688H18.5683H18.5677H18.5672H18.5667H18.5661H18.5656H18.5651H18.5645H18.564H18.5635H18.5629H18.5624H18.5619H18.5613H18.5608H18.5603H18.5597H18.5592H18.5587H18.5581H18.5576H18.5571H18.5565H18.556H18.5555H18.5549H18.5544H18.5539H18.5533H18.5528H18.5523H18.5517H18.5512H18.5507H18.5501H18.5496H18.5491H18.5485H18.548H18.5475H18.5469H18.5464H18.5459H18.5453H18.5448H18.5443H18.5437H18.5432H18.5427H18.5421H18.5416H18.5411H18.5405H18.54H18.5395H18.5389H18.5384H18.5378H18.5373H18.5368H18.5362H18.5357H18.5352H18.5346H18.5341H18.5336H18.533H18.5325H18.532H18.5314H18.5309H18.5304H18.5298H18.5293H18.5288H18.5282H18.5277H18.5272H18.5266H18.5261H18.5256H18.525H18.5245H18.524H18.5234H18.5229H18.5224H18.5218H18.5213H18.5208H18.5202H18.5197H18.5192H18.5186H18.5181H18.5176H18.517H18.5165H18.516H18.5154H18.5149H18.5144H18.5138H18.5133H18.5128H18.5122H18.5117H18.5112H18.5106H18.5101H18.5096H18.509H18.5085H18.5079H18.5074H18.5069H18.5063H18.5058H18.5053H18.5047H18.5042H18.5037H18.5031H18.5026H18.5021H18.5015H18.501H18.5005H18.4999H18.4994H18.4989H18.4983H18.4978H18.4973H18.4967H18.4962H18.4957H18.4951H18.4946H18.4941H18.4935H18.493H18.4925H18.4919H18.4914H18.4909H18.4903H18.4898H18.4893H18.4887H18.4882H18.4877H18.4871H18.4866H18.4861H18.4855H18.485H18.4845H18.4839H18.4834H18.4829H18.4823H18.4818H18.4813H18.4807H18.4802H18.4797H18.4791H18.4786H18.4781H18.4775H18.477H18.4764H18.4759H18.4754H18.4748H18.4743H18.4738H18.4732H18.4727H18.4722H18.4716H18.4711H18.4706H18.47H18.4695H18.469H18.4684H18.4679H18.4674H18.4668H18.4663H18.4658H18.4652H18.4647H18.4642H18.4636H18.4631H18.4626H18.462H18.4615H18.461H18.4604H18.4599H18.4594H18.4588H18.4583H18.4578H18.4572H18.4567H18.4562H18.4556H18.4551H18.4546H18.454H18.4535H18.453H18.4524H18.4519H18.4514H18.4508H18.4503H18.4498H18.4492H18.4487H18.4482H18.4476H18.4471H18.4466H18.446H18.4455H18.4449H18.4444H18.4439H18.4433H18.4428H18.4423H18.4417H18.4412H18.4407H18.4401H18.4396H18.4391H18.4385H18.438H18.4375H18.4369H18.4364H18.4359H18.4353H18.4348H18.4343H18.4337H18.4332H18.4327H18.4321H18.4316H18.4311H18.4305H18.43H18.4295H18.4289H18.4284H18.4279H18.4273H18.4268H18.4263H18.4257H18.4252H18.4247H18.4241H18.4236H18.4231H18.4225H18.422H18.4215H18.4209H18.4204H18.4199H18.4193H18.4188H18.4183H18.4177H18.4172H18.4167H18.4161H18.4156H18.4151H18.4145H18.414H18.4135H18.4129H18.4124H18.4118H18.4113H18.4108H18.4102H18.4097H18.4092H18.4086H18.4081H18.4076H18.407H18.4065H18.406H18.4054H18.4049H18.4044H18.4038H18.4033H18.4028C17.0072 21.9079 15.5151 21.6462 14.0152 21.1171C11.8037 20.3208 9.77291 19.0842 8.00617 17.3177C5.61099 14.9229 4.12032 12.1023 3.68296 9.21619L3.65834 9.05371L3.54213 8.93752L0.629636 6.02547L0.975351 5.44937L0.975448 5.44943L0.980729 5.44019C1.2039 5.0497 1.4554 4.67268 1.73296 4.34672L1.73334 4.34825L2.35605 3.72563L2.35615 3.72553L2.35668 3.72501L2.35687 3.72482L2.3578 3.72389C3.06169 3.02011 3.92427 2.33474 4.85313 1.9126L4.85317 1.91268L4.86196 1.90848C6.89383 0.936864 8.91581 0.5 10.7502 0.5C14.2628 0.5 17.358 1.90616 19.6895 3.34071C20.8565 4.05877 21.8348 4.77133 22.5376 5.38621L22.5518 5.39862L22.5669 5.40992C22.8857 5.64904 23.1292 5.88842 23.3906 6.14962C23.5905 6.4405 23.7859 6.63592 23.8787 6.72865L23.8799 6.72982C25.0092 7.85903 25.798 9.07658 26.6118 10.3422C26.8083 10.819 27.0891 11.2869 27.3465 11.7158L27.3577 11.7345L27.5698 12.088L27.9573 11.9471C34.922 9.41486 42.3347 7.96932 50.1066 7.96932C67.7313 7.96932 83.547 15.1979 94.936 26.8563L94.9401 26.8605C97.3778 29.2978 99.5465 31.9175 101.536 34.7211L101.536 34.7212L101.544 34.7318L101.892 35.195L101.421 36.0016L100.983 36.7535H101.853C102.086 36.7535 102.257 36.7978 102.532 36.8689C102.593 36.8849 102.66 36.9022 102.734 36.9207L102.743 36.923L102.752 36.9249C104.445 37.2812 106.119 37.8111 107.697 38.6848C107.963 38.862 108.251 39.0537 108.633 39.2452C111.3 40.7584 113.426 42.7112 114.928 44.8316C116.434 46.9574 117.296 49.2267 117.296 51.4653C117.296 52.7321 116.961 53.9306 116.61 54.9034C116.018 55.9885 115.18 56.8226 114.173 57.4097L114.167 57.4135L114.16 57.4176L113.684 57.7155L109.755 55.4954L109.752 55.4934L94.7232 46.8419L94.6074 46.7753H94.4737H80.6261H41.3607H40.7229L40.8752 47.3947C42.2297 52.9024 42.7739 58.6902 42.7739 64.8554C42.7739 72.5592 41.8674 80.6349 40.4131 88.9964C40.413 88.9974 40.4128 88.9985 40.4126 88.9995ZM1.91317 3.46138C1.86304 3.50314 1.81368 3.54644 1.76508 3.59113L1.91317 3.46138ZM38.3816 46.2341L38.02 44.8604H62.0411L62.1885 43.8826C53.7003 41.2643 45.933 36.7503 39.5197 30.882C39.3815 30.7445 39.2247 30.6089 39.0741 30.4785C39.061 30.4671 39.0479 30.4558 39.0348 30.4444C38.8643 30.2967 38.694 30.1475 38.5256 29.9791C38.2892 29.7427 38.0635 29.5282 37.8471 29.3225C37.4451 28.9403 37.0755 28.5889 36.7297 28.1855L36.7172 28.1709L36.7036 28.1574C36.6915 28.1453 36.6796 28.134 36.6678 28.1235V28.1216L36.5214 27.9751L36.4462 27.8999C36.2165 27.6252 35.9877 27.3736 35.7665 27.1304L35.7634 27.127C35.5347 26.8755 35.3141 26.6327 35.0943 26.369L35.0798 26.3516L35.0638 26.3356L34.8915 26.1633C31.1092 21.9293 29.0374 18.3281 27.4069 15.3395C26.5889 13.7947 25.853 12.4147 25.1147 11.2151C24.3812 10.0234 23.6276 8.8893 22.5827 7.84449C22.5827 7.84447 22.5827 7.84446 22.5826 7.84444L22.5826 7.84436L22.5822 7.84396L22.5806 7.8424L22.5745 7.83631L22.5514 7.81317L22.4688 7.7306L22.2183 7.48006L22.2065 7.46829L22.194 7.45733L22.1539 7.42231C21.4075 6.76906 19.8427 5.39955 17.8223 4.29768C15.7809 3.18435 13.3269 2.23267 10.659 2.23267C9.0305 2.23267 7.31431 2.61607 5.607 3.46959C4.85439 3.84584 4.05682 4.33719 3.44673 5.04886L3.40667 5.09559L3.37913 5.15065C3.34938 5.21014 3.32289 5.2487 3.2993 5.27818C3.27335 5.3106 3.24652 5.33799 3.19948 5.38502L2.84585 5.7386L3.19948 6.09218L5.2789 8.17129L5.3359 8.4563C5.62756 11.1231 6.95837 13.8562 9.20696 16.1067C10.7227 17.7149 12.6106 18.8464 14.4953 19.5071C15.7459 19.9868 17.0815 20.1752 18.3117 20.1752H18.3133H18.3149H18.3165H18.3181H18.3197H18.3213H18.3229H18.3244H18.326H18.3276H18.3292H18.3308H18.3323H18.3339H18.3355H18.3371H18.3386H18.3402H18.3418H18.3433H18.3449H18.3464H18.348H18.3495H18.3511H18.3526H18.3542H18.3557H18.3573H18.3588H18.3604H18.3619H18.3635H18.365H18.3665H18.3681H18.3696H18.3711H18.3726H18.3742H18.3757H18.3772H18.3787H18.3803H18.3818H18.3833H18.3848H18.3863H18.3878H18.3893H18.3908H18.3923H18.3938H18.3953H18.3968H18.3983H18.3998H18.4013H18.4028H18.4043H18.4058H18.4073H18.4088H18.4103H18.4118H18.4132H18.4147H18.4162H18.4177H18.4191H18.4206H18.4221H18.4236H18.425H18.4265H18.428H18.4294H18.4309H18.4324H18.4338H18.4353H18.4367H18.4382H18.4397H18.4411H18.4426H18.444H18.4455H18.4469H18.4484H18.4498H18.4513H18.4527H18.4541H18.4556H18.457H18.4585H18.4599H18.4613H18.4628H18.4642H18.4656H18.4671H18.4685H18.4699H18.4713H18.4728H18.4742H18.4756H18.477H18.4785H18.4799H18.4813H18.4827H18.4841H18.4855H18.487H18.4884H18.4898H18.4912H18.4926H18.494H18.4954H18.4968H18.4982H18.4996H18.501H18.5024H18.5038H18.5052H18.5066H18.508H18.5094H18.5108H18.5122H18.5136H18.515H18.5164H18.5178H18.5192H18.5206H18.522H18.5233H18.5247H18.5261H18.5275H18.5289H18.5303H18.5316H18.533H18.5344H18.5358H18.5372H18.5385H18.5399H18.5413H18.5427H18.544H18.5454H18.5468H18.5482H18.5495H18.5509H18.5523H18.5536H18.555H18.5564H18.5577H18.5591H18.5605H18.5618H18.5632H18.5646H18.5659H18.5673H18.5686H18.57H18.5714H18.5727H18.5741H18.5754H18.5768H18.5782H18.5795H18.5809H18.5822H18.5836H18.5849H18.5863H18.5876H18.589H18.5903H18.5917H18.593H18.5944H18.5957H18.5971H18.5984H18.5998H18.6011H18.6025H18.6038H18.6052H18.6065H18.6079H18.6092H18.6105H18.6119H18.6132H18.6146H18.6159H18.6173H18.6186H18.62H18.6213H18.6226H18.624H18.6253H18.6267H18.628H18.6293H18.6307H18.632H18.6334H18.6347H18.636H18.6374H18.6387H18.64H18.6414H18.6427H18.6441H18.6454H18.6467H18.6481H18.6494H18.6507H18.6521H18.6534H18.6547H18.6561H18.6574H18.6587H18.6601H18.6614H18.6628H18.6641H18.6654H18.6668H18.6681H18.6694H18.6708H18.6721H18.6734H18.6748H18.6761H18.6774H18.6788H18.6801H18.6814H18.6828H18.6841H18.6854H18.6868H18.6881H18.6894H18.6908H18.6921H18.6935H18.6948H18.6961H18.6975H18.6988H18.7001H18.7015H18.7028H18.7041H18.7055H18.7068H18.7081H18.7095H18.7108H18.7122H18.7135H18.7148H18.7162H18.7175H18.7188H18.7202H18.7215H18.7229H18.7242H18.7255H18.7269H18.7282H18.7296H18.7309H18.7322H18.7336H18.7349H18.7363H18.7376H18.739H18.7403H18.7416H18.743H18.7443H18.7457H18.747H18.7484H18.7497H18.7511H18.7524H18.7538H18.7551H18.7565H18.7578H18.7592H18.7605H18.7619H18.7632H18.7646H18.7659H18.7673H18.7686H18.77H18.7713H18.7727H18.774H18.7754H18.7768H18.7781H18.7795H18.7808H18.7822H18.7836H18.7849H18.7863H18.7876H18.789H18.7904H18.7917H18.7931H18.7945H18.7958H18.7972H18.7986H18.7999H18.8013H18.8027H18.804H18.8054H18.8068H18.8082H18.8095H18.8109H18.8123H18.8137H18.815H18.8164H18.8178H18.8192H18.8206H18.8219H18.8233H18.8247H18.8261H18.8275H18.8289H18.8302H18.8316H18.833H18.8344H18.8358H18.8372H18.8386H18.84H18.8414H18.8428H18.8442H18.8456H18.847H18.8484H18.8498H18.8512H18.8526H18.854H18.8554H18.8568H18.8582H18.8596H18.861H18.8624H18.8638H18.8652H18.8667H18.8681H18.8695H18.8709H18.8723H18.8737H18.8752H18.8766H18.878H18.8794H18.8809H18.8823H18.8837H18.8851H18.8866H18.888H18.8894H18.8909H18.8923H18.8937H18.8952H18.8966H18.8981H18.8995H18.9009H18.9024H18.9038H18.9053H18.9067H18.9082H18.9096H18.9111H18.9125H18.914H18.9155H18.9169H18.9184H18.9198H18.9213H18.9228H18.9242H18.9257H18.9272H18.9286H18.9301H18.9316H18.9331H18.9345H18.936H18.9375H18.939H18.9404H18.9419H18.9434H18.9449H18.9464H18.9479H18.9494H18.9509H18.9524H18.9539H18.9554H18.9569H18.9584H18.9599H18.9614H18.9629H18.9644H18.9659H18.9674H18.9689H18.9704H18.9719H18.9735H18.975H18.9765H18.978H18.9796H18.9811H18.9826H18.9841H18.9857H18.9872H18.9887H18.9903H18.9918H18.9934H18.9949H18.9965H18.998H18.9995H19.0011H19.0027H19.0042H19.0058H19.0073H19.0089H19.0104H19.012H19.0136H19.0151H19.0167H19.0183H19.0199H19.0214H19.023H19.0246H19.0262H19.0278H19.0293H19.0309H19.0325H19.0341H19.0357H19.0373H19.0389H19.0405H19.4712L26.1574 26.8605L33.5281 34.2301L32.2618 34.6905L32.2598 34.6912C30.3918 35.3793 28.7654 36.9316 27.5435 38.9051L27.5362 38.9168L27.5296 38.9289C26.4 40.9995 25.6465 43.5407 25.6465 46.2733V46.2905C25.6465 46.9161 25.6465 47.6732 25.7424 48.3458C26.3855 53.1207 28.307 61.348 30.9559 69.2027C32.2358 73.1331 33.6999 76.9766 35.258 80.3672L35.2609 80.3734C36.1724 82.2873 37.0939 84.1317 38.0214 85.6155L38.7349 86.7569L38.9396 85.4265C40.0356 78.3037 40.6764 71.4459 40.6764 64.9466C40.6764 58.2612 39.9437 52.0228 38.3818 46.2351C38.3817 46.2348 38.3816 46.2344 38.3816 46.2341ZM113.086 55.7261L113.38 55.8929L113.644 55.6815C114.126 55.296 114.55 54.8806 114.868 54.2493C115.358 53.3635 115.573 52.4416 115.381 51.4162C115.366 49.7387 114.583 47.7471 113.286 45.8954C111.972 44.019 110.02 42.2527 107.619 40.8594C107.487 40.7411 107.342 40.6586 107.228 40.5967C107.195 40.5782 107.163 40.5613 107.133 40.5452C107.035 40.4926 106.954 40.4492 106.868 40.3919L106.847 40.3779L106.824 40.3661C105.242 39.5286 103.737 38.9615 102.219 38.6769L102.208 38.6749L102.197 38.6733L101.241 38.5367L100.284 38.4L99.9495 38.3523L99.7804 38.6447L96.4096 44.4745L96.4095 44.4744L96.4054 44.4819L95.9499 45.3017L95.7109 45.7318L96.1371 45.9777L110.349 54.1757L110.352 54.1776L113.086 55.7261Z" fill="#5B3A1C" stroke="black"/>
</svg>
