<svg width="118" height="92" viewBox="0 0 118 92" fill="none" xmlns="http://www.w3.org/2000/svg">
<path d="M105.132 38.6216C107.228 39.3503 109.323 40.1701 110.872 41.7187C111.783 42.5385 112.421 43.5404 113.058 44.5424C113.969 45.9998 114.789 47.5483 115.245 49.1879C115.7 50.8275 115.882 52.6493 115.427 54.2889C115.245 55.0176 114.88 55.7463 114.243 56.1107C113.332 56.475 112.329 56.0196 111.51 55.5642C109.596 54.4711 107.592 53.4692 105.588 52.6494C104.95 52.3761 104.221 52.1028 103.584 51.7385C102.673 51.283 101.762 50.6454 100.942 50.0078C99.1196 48.5503 97.2975 47.0929 95.5665 45.6354C95.2932 45.4532 95.111 45.2711 94.9288 44.9978C94.7466 44.5424 94.9288 43.9047 95.2022 43.4493C95.7488 42.2651 96.2953 41.081 96.7509 39.9879C97.1153 39.1681 97.3886 38.0751 98.3908 37.8018C100.668 37.0731 103.128 37.8929 105.132 38.6216Z" fill="#88BE55"/>
<path d="M32.1581 33.9764L19.1304 21.0417C17.4906 21.1328 15.8507 20.9507 14.2109 20.313C12.2066 19.5843 10.2023 18.4002 8.56247 16.7606C6.1938 14.3923 4.73617 11.4774 4.37176 8.65363L1.63867 5.92096C2.00308 5.37442 2.36748 4.919 2.823 4.46355C3.55182 3.73484 4.28065 3.18828 5.19168 2.73284C13.8465 -1.82162 22.4101 6.3764 23.2301 7.28729C27.4208 11.6596 28.0585 17.216 35.529 25.6873L35.7111 25.8695C36.0755 26.416 43.2727 32.7012 43.8193 33.1566L65.5018 45.9091L39.2642 46.0002L41.724 68.317L38.9909 87.2636L29.3339 67.315L25.5076 49.5527L25.2343 41.9922L28.2407 35.8893L32.1581 33.9764Z" fill="#88BE55"/>
<path d="M117.796 51.4653C117.796 49.097 116.885 46.7287 115.336 44.5426C113.788 42.3565 111.601 40.3525 108.868 38.8039C108.504 38.6218 108.23 38.4396 107.957 38.2574C106.317 37.3465 104.586 36.8 102.855 36.4356C102.491 36.3446 102.218 36.2535 101.853 36.2535L102.491 35.1604L101.944 34.4317C99.9399 31.608 97.7534 28.9663 95.2937 26.5069C83.8147 14.7564 67.8717 7.46932 50.1066 7.46932C42.2718 7.46932 34.8013 8.92671 27.7864 11.4772C27.5131 11.0218 27.2398 10.5663 27.0576 10.1109C26.2376 8.83562 25.4177 7.5604 24.2334 6.37624C24.1423 6.28515 23.9601 6.10299 23.7779 5.82973C23.5046 5.55646 23.2313 5.28317 22.8668 5.0099C22.138 4.37228 21.1359 3.64358 19.9515 2.91486C17.5829 1.45744 14.3943 0 10.7502 0C8.837 0 6.74162 0.455423 4.64625 1.4574C3.64412 1.91285 2.7331 2.6416 2.00428 3.37031C2.00428 3.37031 2.00427 3.37029 1.91317 3.46138C1.36655 3.91682 0.911035 4.55447 0.546623 5.19209L0 6.10298L3.1886 9.2911C3.64412 12.297 5.19286 15.2119 7.65264 17.6713C9.4747 19.4931 11.5701 20.7683 13.8476 21.5881C15.3964 22.1347 16.9451 22.4079 18.4028 22.4079C18.4939 22.4079 18.585 22.4079 18.6761 22.4079L24.6889 28.3287L29.7906 33.4297C28.1508 34.4316 26.7843 35.8891 25.7821 37.7109C24.4156 40.0792 23.5957 42.994 23.5957 46.1821C23.5957 46.9108 23.6868 47.7306 23.7779 48.4594C24.2334 52.2851 25.5088 57.8416 27.2398 63.7624C28.9707 69.6832 31.1572 75.9683 33.5259 81.1604C35.0746 84.6218 36.7145 87.6277 38.4454 89.7228L40.3586 92L40.9052 89.0852C42.3629 80.705 43.2739 72.598 43.2739 64.8554C43.2739 58.6613 42.7273 52.8317 41.3607 47.2753H80.6261H94.4737L109.506 55.9287L113.696 58.297L114.425 57.8416C115.519 57.204 116.43 56.2931 117.067 55.1089C117.432 54.1069 117.796 52.8317 117.796 51.4653ZM37.4433 44.6337L37.8988 46.3644C39.4476 52.103 40.1764 58.2971 40.1764 64.9466C40.1764 71.4139 39.5387 78.2455 38.4454 85.3505C37.5344 83.893 36.6234 82.0713 35.7123 80.1584C34.1636 76.7881 32.706 72.9624 31.4305 69.0456C28.7886 61.2119 26.8754 53.0139 26.2377 48.2772C26.1466 47.6396 26.1465 46.9109 26.1465 46.2733C26.1465 43.6317 26.8753 41.1723 27.9686 39.1683C29.1529 37.2554 30.7017 35.798 32.4326 35.1604L34.4369 34.4317L26.511 26.5069L19.6782 19.6752H19.0405C18.7672 19.6752 18.585 19.6752 18.3117 19.6752C17.1274 19.6752 15.8519 19.4931 14.6676 19.0376C12.8455 18.4 11.0235 17.3069 9.56581 15.7584C7.37934 13.5723 6.10389 10.9307 5.83058 8.38021L5.7395 7.92476L3.55301 5.7386C3.64411 5.64751 3.73523 5.55646 3.82633 5.37428C4.37295 4.73666 5.10176 4.28118 5.83058 3.91682C7.47043 3.09702 9.11028 2.73267 10.659 2.73267C13.2099 2.73267 15.5786 3.64358 17.5829 4.73664C19.5871 5.82971 21.1359 7.19602 21.8647 7.83364C22.0469 8.01582 22.2291 8.19802 22.2291 8.19802C23.2312 9.2 23.9601 10.293 24.6889 11.4772C25.4177 12.6614 26.1465 14.0277 26.9665 15.5762C28.6063 18.5822 30.7017 22.2257 34.528 26.5069L34.7102 26.6892C35.1657 27.2357 35.6213 27.6911 36.0768 28.2376L36.1678 28.3287C36.1678 28.4198 36.259 28.4198 36.3501 28.5109C36.8967 29.1486 37.5344 29.6951 38.1721 30.3327C38.5365 30.6971 38.901 30.9703 39.1743 31.2436C45.6426 37.1644 53.4774 41.7188 62.0411 44.3604H37.4433V44.6337ZM114.425 54.0159C114.152 54.5624 113.788 54.9267 113.332 55.291L110.599 53.7426L96.3869 45.5446L96.8424 44.7247L100.213 38.895C100.851 38.9861 101.489 39.0772 102.126 39.1683C103.584 39.4416 105.042 39.9882 106.59 40.808C106.864 40.9901 107.137 41.0812 107.319 41.2634C109.688 42.6297 111.601 44.3604 112.877 46.1821C114.152 48.0039 114.881 49.9168 114.881 51.4653C115.063 52.3762 114.881 53.1961 114.425 54.0159Z" fill="#5B3A1C"/>
</svg>
