<svg width="228" height="254" viewBox="0 0 228 254" fill="none" xmlns="http://www.w3.org/2000/svg">
<circle cx="68.5" cy="163.5" r="68.5" fill="#F1C650"/>
<path d="M139.343 244.931C70.5572 247.426 11.5129 240.061 26.0066 235.191C40.5004 230.321 136.611 226.52 136.611 226.52L139.343 244.931Z" fill="#D03F36"/>
<path d="M226.073 224.025C225.241 209.89 213.123 198.962 198.986 199.675C194.828 199.912 190.907 201.1 187.462 203.119C184.017 199.793 179.265 197.774 174.156 198.13C164.296 198.724 156.811 207.039 157.287 216.898C157.287 217.373 157.405 217.848 157.524 218.205L157.287 218.324C154.435 216.661 150.99 215.71 147.307 215.948C137.447 216.542 129.962 224.857 130.437 234.716C131.031 244.575 139.347 252.058 149.208 251.583C152.059 251.464 154.792 250.514 157.049 249.207C159.9 250.87 163.345 251.82 167.028 251.583C173.206 251.227 178.433 247.782 181.403 242.912C186.393 248.376 193.759 251.583 201.718 251.108C215.974 250.276 226.785 238.16 226.073 224.025Z" fill="#DDE2EA"/>
<path d="M227.852 223.906C227.02 209.296 214.902 197.893 200.409 197.893C199.933 197.893 199.458 197.893 198.864 197.893C194.825 198.131 191.023 199.2 187.697 200.981C184.251 198.012 179.856 196.23 175.104 196.23C174.747 196.23 174.391 196.23 174.035 196.23C163.699 196.824 155.739 205.257 155.502 215.354C153.244 214.523 150.868 214.047 148.373 214.047C148.017 214.047 147.661 214.047 147.304 214.047C139.939 214.404 133.88 218.799 130.791 224.976C117.129 225.569 81.9635 227.232 55.7084 229.371C44.6598 230.321 35.037 231.39 29.3345 232.459C27.7901 232.815 26.4832 233.053 25.414 233.409C24.82 233.647 24.226 233.884 23.7508 234.122C23.2756 234.359 22.8004 234.716 22.444 235.31C22.2064 235.666 21.9688 236.141 21.9688 236.735C21.9688 237.21 22.0876 237.685 22.3252 238.042C22.5628 238.398 22.8004 238.636 23.038 238.873C23.5132 239.348 24.1072 239.586 24.82 239.942C26.1268 240.536 27.9088 241.011 30.1661 241.605C34.6805 242.674 41.0958 243.625 49.0555 244.456C64.9749 246.119 86.9531 247.307 111.664 247.307C118.792 247.307 126.158 247.188 133.761 246.951C137.325 250.989 142.552 253.365 148.255 253.365C148.611 253.365 148.968 253.365 149.324 253.365C152.175 253.246 154.789 252.415 157.165 251.227C159.897 252.652 162.867 253.484 166.194 253.484C166.55 253.484 166.907 253.484 167.263 253.484C173.203 253.127 178.43 250.158 181.757 245.763C186.628 250.276 193.28 253.008 200.409 253.008C200.884 253.008 201.478 253.008 201.953 253.008C216.565 252.177 227.97 240.061 227.97 225.569C227.852 224.857 227.852 224.382 227.852 223.906ZM111.664 243.625C83.0327 243.625 57.9656 242.08 42.165 239.942C36.9377 239.23 32.6609 238.517 29.6908 237.685C28.5028 237.329 27.4336 237.091 26.7208 236.735C28.1464 236.26 30.6413 235.785 33.7301 235.31C37.0566 234.835 40.977 234.359 45.6103 233.884C54.6392 232.934 65.8065 232.103 77.2114 231.39C97.6453 230.083 118.792 229.014 129.484 228.539C129.009 230.202 128.771 231.865 128.771 233.647C128.771 234.003 128.771 234.359 128.771 234.716C129.009 237.804 129.84 240.774 131.266 243.268C124.613 243.506 118.079 243.625 111.664 243.625ZM201.597 249.326C201.121 249.326 200.646 249.326 200.29 249.326C193.399 249.326 187.103 246.357 182.707 241.605L181.044 239.824L179.856 241.843C177.242 246.238 172.49 249.326 166.906 249.683C166.55 249.683 166.313 249.683 166.075 249.683C163.105 249.683 160.372 248.851 157.996 247.426L157.046 246.951L156.096 247.426C153.957 248.613 151.581 249.445 148.967 249.564C148.611 249.564 148.373 249.564 148.017 249.564C144.572 249.564 141.245 248.376 138.632 246.475C137.325 245.525 136.137 244.337 135.187 243.031C133.405 240.655 132.217 237.685 132.098 234.359C132.098 234.003 132.098 233.766 132.098 233.528C132.098 231.746 132.454 229.964 132.929 228.301C133.405 226.995 133.999 225.807 134.711 224.619C137.444 220.581 141.958 217.73 147.185 217.492C147.423 217.492 147.779 217.492 148.017 217.492C150.987 217.492 153.72 218.324 156.096 219.63L157.046 220.224L157.996 219.63L159.184 218.918L159.066 217.73C158.947 217.136 158.828 216.661 158.828 216.542C158.828 216.186 158.828 215.948 158.828 215.71C158.828 207.277 165.481 200.15 174.035 199.675C174.391 199.675 174.629 199.675 174.866 199.675C179.143 199.675 183.063 201.456 186.033 204.188L186.984 205.139L188.172 204.426C191.38 202.526 194.944 201.456 198.864 201.219C199.339 201.219 199.696 201.219 200.171 201.219C212.764 201.219 223.337 211.078 224.05 223.906C224.05 224.382 224.05 224.738 224.05 225.213C224.288 238.042 214.427 248.613 201.597 249.326Z" fill="#54362C"/>
<path d="M102.164 70.3198L95.392 58.0852C94.4416 52.7399 93.2536 47.3947 93.1348 44.0687C93.1348 42.1682 93.3724 40.8615 94.204 40.7427H94.4416C96.4612 40.624 101.095 41.693 105.371 44.4251C107.272 45.6129 108.935 47.157 110.361 49.0576C114.994 55.2343 111.074 119.971 112.975 123.178C114.875 126.386 114.875 135.413 114.281 138.858C113.687 142.184 110.005 144.203 109.886 141.827C109.767 139.452 107.985 125.079 107.985 125.079C103.352 113.319 106.203 86.8308 104.064 80.8916C103.233 78.5159 102.639 74.3585 102.164 70.3198Z" fill="#B46C51"/>
<path d="M113.925 34.2097L106.678 38.2484C108.104 38.9611 114.638 38.3671 114.638 38.3671C114.638 38.3671 109.292 46.3256 105.371 44.4251C101.094 41.6931 96.5798 40.624 94.4414 40.7428H94.2038C87.3133 42.5245 88.145 25.7761 88.145 25.7761C91.5902 18.4115 84.2245 21.0248 84.2245 21.0248C84.2245 21.0248 80.304 9.62154 73.1759 10.0967C70.087 10.3342 62.959 13.4226 62.959 20.0745C62.959 17.4613 63.1967 -0.23744 78.6409 1.90066C94.5602 4.03876 95.6294 22.3313 95.6294 22.3313C95.6294 22.3313 96.1046 41.9307 112.143 30.4087L110.242 33.9722H113.925V34.2097Z" fill="#965442"/>
<path d="M55.4714 63.1929C58.3226 57.9665 62.837 51.1959 65.4506 45.2567C62.837 52.9776 61.7678 63.9057 70.5591 72.9332C70.5591 72.9332 95.0322 71.2702 93.1314 44.0688C93.2502 47.3948 94.3194 52.6212 95.3886 58.0853C96.5766 64.4996 97.7646 71.1514 96.933 74.715C96.4578 76.9718 95.6263 79.4663 94.0818 81.4856C93.7254 82.0795 93.2501 82.5546 92.7749 82.911C91.2305 84.2176 89.211 84.9303 87.0725 85.0491C77.9248 85.2867 61.649 80.8917 61.649 80.8917C61.649 80.8917 57.8473 80.0602 55.2337 77.5657C53.0953 75.5464 51.6697 72.5768 53.0954 68.063C53.5706 66.7564 54.4022 65.0935 55.4714 63.1929Z" fill="#D03F36"/>
<path d="M88.1403 25.7759C88.1403 25.7759 87.3086 42.5243 94.1991 40.7426C93.3675 40.9801 93.1299 42.168 93.1299 44.0686C95.0307 71.27 70.5576 72.9329 70.5576 72.9329C61.7663 63.9054 62.8354 52.9773 65.4491 45.2564C65.9243 44.0686 66.3995 42.9994 66.6371 41.9304C67.3499 40.2674 68.0628 38.842 68.538 37.773C69.2508 36.4664 69.726 35.7537 69.726 35.7537L69.9636 35.6349C70.2012 35.8725 70.4388 36.11 70.6764 36.2288C73.0524 37.6542 84.695 33.1404 88.1403 25.7759Z" fill="#B46C51"/>
<path d="M84.2241 21.0243C84.2241 21.0243 91.5898 18.2923 88.1446 25.7757C84.5806 33.1402 72.9379 37.654 70.6807 36.2286C70.4431 36.1098 70.2055 35.8722 69.9679 35.6347C67.9483 33.4966 65.097 27.6762 64.2654 25.8944C63.315 23.7563 62.8398 21.9746 62.8398 20.3117C62.8398 13.541 69.9679 10.5714 73.0567 10.3338C80.3036 9.62113 84.2241 21.0243 84.2241 21.0243Z" fill="#B46C51"/>
<path d="M87.0733 85.0488C89.2117 85.0488 91.1124 84.3361 92.7756 82.9107C84.9348 89.4438 82.7963 104.173 82.0835 110.944V110.231C74.1238 112.607 41.5723 107.143 41.5723 107.143C46.7995 94.6703 53.5712 86.2366 54.6404 83.9798C55.7096 81.9604 55.5908 79.466 55.2344 77.5654C57.8481 80.0599 61.6497 80.8914 61.6497 80.8914C61.6497 80.8914 77.9256 85.2864 87.0733 85.0488ZM62.4813 98.2338C62.4813 97.9962 62.3626 97.8774 62.125 97.8774C61.8874 97.8774 61.7685 97.9962 61.7685 98.2338C61.7685 98.4713 62.0062 98.5901 62.125 98.5901C62.3626 98.5901 62.4813 98.4713 62.4813 98.2338Z" fill="#B46C51"/>
<path d="M82.0815 110.231V110.944L81.9627 112.25L81.8439 114.151C81.8439 114.151 62.0041 122.466 56.7768 129.355C51.0744 124.485 45.7283 117.595 40.8574 109.162C41.095 108.449 41.4514 107.736 41.689 107.024C41.5702 107.142 74.1218 112.606 82.0815 110.231Z" fill="#D03F36"/>
<path d="M81.8496 112.25L81.9684 110.943C81.9684 111.418 81.9684 111.894 81.8496 112.25Z" fill="#B46C51"/>
<path d="M62.7193 174.611C62.7193 174.611 77.6882 189.459 73.1738 233.409C73.1738 233.409 67.9465 246 63.4321 246.951C58.9176 247.901 60.9372 237.448 66.0457 232.103C66.0457 232.103 60.1057 214.285 55.4725 197.537C53.334 189.697 51.4331 182.095 50.4827 176.631C47.6315 159.288 56.5416 129.593 56.5416 129.593C61.7688 122.822 81.6088 114.388 81.6088 114.388C81.6088 115.932 71.3918 167.96 62.7193 174.611Z" fill="#B46C51"/>
<path d="M53.3331 61.7673C50.0067 70.0822 45.3734 81.7229 44.6606 84.5737C43.5914 89.0875 29.6916 108.687 29.6916 110.112C29.6916 111.419 22.6824 132.919 21.138 131.374C19.1184 129.474 24.4644 98.5902 37.1762 82.9107C39.3146 80.2975 48.8187 50.2454 51.5511 44.425C54.1647 38.7234 68.6585 37.6543 68.6585 37.6543C68.0645 38.7233 67.3518 40.03 66.7578 41.8117C66.2826 42.762 65.9261 43.9498 65.5697 45.1376C62.9561 51.0768 58.4416 57.8475 55.5904 63.074L53.3331 61.7673Z" fill="#B46C51"/>
<path d="M55.4701 197.3C55.4701 198.725 55.2324 228.777 54.7572 231.272C54.282 233.766 41.095 248.376 39.7882 243.863C38.2438 236.617 47.8668 225.214 47.8668 225.214C45.6095 221.888 42.6395 213.217 39.4319 196.706C36.2243 180.195 40.3823 177.106 37.6499 167.485C34.7986 157.863 35.2738 137.433 35.2738 137.433C35.155 126.742 37.6498 117.121 40.7387 109.043C45.6095 117.477 50.9556 124.248 56.6581 129.237C56.6581 129.237 47.7479 158.933 50.5991 176.275C51.4307 181.977 53.3317 189.579 55.4701 197.3Z" fill="#B46C51"/>
<path d="M113.328 42.762C114.992 41.0991 116.061 39.4361 116.061 39.3173L118.08 36.2289L114.398 36.4665C114.398 36.4665 114.279 36.4665 114.041 36.4665C113.804 36.4665 113.447 36.4665 113.091 36.5853L120.694 32.3091H113.804H113.091L117.13 24.7069L111.071 29.1019C109.289 30.2898 107.864 31.1213 106.557 31.7152C105.25 32.1903 104.181 32.4279 103.349 32.4279C102.636 32.4279 102.042 32.3091 101.567 32.0715C101.092 31.834 100.617 31.5964 100.26 31.1213C99.4286 30.4086 98.8346 29.2207 98.3594 27.9141C97.409 25.4196 97.2902 22.5688 97.2902 22.3313C97.2902 22.2125 97.1714 19.5993 95.9834 16.0358C94.9142 12.4723 92.8945 8.19605 88.9741 4.75134C86.3604 2.49445 83.034 0.831498 78.6384 0.237581C77.688 0.118798 76.7375 0 75.9059 0C72.4607 0 69.6095 1.06904 67.471 2.732C65.3326 4.39497 63.9069 6.53312 62.9565 8.79C61.0557 13.185 60.937 17.9363 60.937 19.7181C60.937 19.8369 60.937 20.0744 60.937 20.1932V20.312H61.0557C61.0557 22.2125 61.531 24.2318 62.6002 26.3699C63.313 27.7953 64.9762 31.3588 66.7583 34.2096C67.1147 34.6847 67.3522 35.1599 67.7086 35.5163C67.5898 35.635 67.5898 35.7538 67.471 35.8726C66.7582 35.9914 65.689 36.1102 64.501 36.2289C62.2438 36.5853 59.3926 37.1792 56.6601 38.2483C54.8781 38.961 53.096 39.7924 51.7892 40.9803C50.9576 41.693 50.3636 42.5245 49.8884 43.4748C49.2944 44.7814 48.4628 46.9195 47.5123 49.7703C46.5619 52.5023 45.374 55.947 44.186 59.3917C41.81 66.2811 39.1962 73.7645 37.4142 78.1595C36.939 79.4661 36.4638 80.4164 36.2262 81.0103C36.1074 81.3666 35.8699 81.6042 35.8699 81.6042C31.593 86.8307 28.1477 93.7201 25.5341 100.491C22.9204 107.38 21.1385 114.27 20.0692 119.852C19.3564 123.535 19 126.623 19 128.761C19 129.236 19 129.712 19.1188 130.187C19.1188 130.662 19.2377 131.018 19.3565 131.374C19.4753 131.612 19.5941 131.968 19.9505 132.325C20.0693 132.444 20.3069 132.681 20.5445 132.681C20.7821 132.8 21.1384 132.919 21.376 132.8C21.7324 132.8 22.0889 132.681 22.3265 132.562C22.5641 132.444 22.6829 132.325 22.9205 132.206C23.1581 131.968 23.3957 131.731 23.6333 131.374C23.9897 130.781 24.3461 130.187 24.7025 129.474C25.4153 127.93 26.2469 125.91 27.0786 123.772C28.7418 119.496 30.2862 114.507 31.1178 111.894C31.3554 111.181 31.4741 110.587 31.5929 110.112V109.993C31.5929 109.993 31.593 109.875 31.7118 109.756C31.8306 109.518 32.0682 109.043 32.4246 108.568C33.0186 107.499 33.969 106.192 34.9194 104.529C36.939 101.322 39.5527 97.2836 41.81 93.7201C43.3544 91.3445 44.6612 89.0876 45.4928 87.3058C45.968 86.2368 46.3244 85.4053 46.562 84.5738C46.6808 83.9799 47.0371 82.792 47.6311 81.129C48.2251 79.5849 48.938 77.5656 49.7696 75.4275C50.126 74.4772 50.6012 73.4082 50.9576 72.3391C51.0764 73.4082 51.4328 74.3584 51.7892 75.3087C52.2644 76.3778 52.8584 77.2093 53.5712 77.922C53.69 78.3971 53.6901 78.991 53.6901 79.5849C53.6901 80.6539 53.4525 81.8418 53.0961 82.6733C52.9773 82.7921 52.8585 83.1484 52.5021 83.6235C52.2645 84.0987 51.7892 84.5738 51.4328 85.2865C50.6012 86.5931 49.4131 88.2561 48.2251 90.2754C45.7303 94.314 42.6415 99.6593 39.909 105.955C39.5526 106.668 39.3151 107.38 39.0775 108.093C35.9886 116.17 33.4939 125.91 33.4939 136.601C33.4939 136.838 33.4939 136.957 33.4939 137.195C33.4939 137.432 33.4939 138.501 33.4939 140.046C33.4939 143.015 33.6126 148.004 33.8502 153.231C34.2066 158.457 34.8006 163.802 35.9887 167.722C36.7015 170.217 36.939 172.236 36.939 174.255C36.939 177.106 36.4639 180.076 36.4639 184.352C36.4639 187.559 36.8203 191.598 37.7707 196.705C39.4339 205.02 40.9783 211.316 42.404 216.067C43.592 219.987 44.7799 222.719 45.8491 224.738C45.3739 225.332 44.6611 226.282 43.9483 227.351C42.4039 229.49 40.6219 232.459 39.4339 235.547C38.6023 237.567 38.0082 239.705 38.0082 241.843C38.0082 242.556 38.1271 243.268 38.2459 243.981C38.3647 244.575 38.721 245.169 39.315 245.644C39.909 246.119 40.503 246.238 41.097 246.238C41.8098 246.238 42.5227 246 43.1167 245.763C43.7108 245.525 44.3047 245.169 45.0175 244.694C46.2056 243.862 47.5123 242.674 48.8191 241.487C51.4328 238.992 53.9276 236.141 55.3532 234.003C55.8284 233.409 56.0661 232.816 56.3037 232.34C56.4225 232.103 56.5413 231.746 56.6601 231.39C56.6601 231.152 56.7789 230.796 56.7789 230.44C56.7789 230.083 56.7789 229.608 56.8977 229.014C56.8977 227.945 57.0165 226.52 57.0165 224.976C57.1353 221.769 57.1353 217.73 57.2541 213.691C57.2541 212.147 57.2541 210.722 57.3729 209.178C60.4618 219.512 63.4317 228.42 64.2633 231.271C62.8377 232.934 61.6498 234.954 60.937 236.973C59.9865 239.23 59.3925 241.605 59.3925 243.625C59.3925 244.456 59.5113 245.288 59.7489 246C59.9865 246.713 60.5805 247.545 61.2933 248.02C61.8873 248.376 62.4813 248.495 63.0753 248.495C63.4317 248.495 63.6694 248.495 64.0258 248.376C64.9762 248.139 65.689 247.782 66.4018 247.188C67.1146 246.594 67.8274 246 68.4214 245.288C69.6094 243.862 70.7974 242.081 71.7479 240.418C73.6487 237.092 74.9554 233.885 74.9554 233.766L75.0744 233.528V233.291C75.6684 227.47 75.9059 222.244 75.9059 217.492C75.9059 201.338 73.0546 190.291 70.0846 183.283C68.1838 178.888 66.4018 176.037 65.2138 174.493C65.9266 173.661 66.5206 172.83 67.1146 171.761C68.065 170.098 69.1342 167.96 70.0846 165.584C71.9854 160.952 73.8862 155.131 75.5494 149.192C78.8759 137.314 81.6084 124.604 82.9152 118.189C83.2716 116.408 83.5092 115.101 83.628 114.507C83.628 114.27 83.628 114.27 83.628 114.032V113.676L83.8655 111.181V110.825C84.1031 108.33 84.5784 104.767 85.5288 100.966C86.3604 97.1648 87.6672 93.1262 89.5681 89.6815C90.7561 87.4246 92.3004 85.4053 93.9637 83.9799H94.0826C94.5578 83.5047 95.1517 83.0296 95.6269 82.3169C97.2901 79.9412 98.2405 77.328 98.7157 74.9524C98.9533 74.0021 98.9534 72.8142 98.9534 71.6264C98.9534 70.4385 98.8345 69.1319 98.7157 67.7065L100.379 70.795C100.617 72.6955 100.854 74.596 101.092 76.3777C101.448 78.2782 101.805 79.9413 102.28 81.2479C102.399 81.6042 102.517 82.1981 102.636 83.0296C102.755 83.8611 102.874 84.8114 102.874 85.9992C102.993 88.2561 102.993 91.1069 103.111 94.0765C103.23 100.253 103.23 107.38 103.824 113.913C104.299 118.071 104.893 121.991 106.081 125.198C106.2 125.792 106.319 127.455 106.557 129.593C106.913 132.206 107.269 135.532 107.507 138.026C107.745 139.689 107.864 140.996 107.864 141.59C107.864 142.065 107.982 142.54 108.22 143.015C108.457 143.49 108.933 143.965 109.527 144.084C109.883 144.203 110.239 144.322 110.477 144.322C111.19 144.322 111.784 144.084 112.378 143.847C112.853 143.49 113.447 143.134 113.804 142.659C114.635 141.709 115.467 140.402 115.704 138.858C115.942 137.432 116.061 135.294 116.061 133.037C116.061 130.068 115.823 126.861 115.11 124.366C114.873 123.535 114.635 122.822 114.16 122.228V122.109C114.16 121.991 114.041 121.872 114.041 121.634C113.922 121.159 113.922 120.446 113.922 119.496C113.804 117.714 113.804 115.339 113.804 112.369C113.804 103.579 114.16 90.513 114.16 78.5159C114.16 69.132 113.922 60.342 113.328 54.6404C113.091 52.7398 112.853 51.0769 112.378 49.7703C112.14 49.0576 111.903 48.3449 111.428 47.7509C110.834 46.9195 110.121 46.2067 109.408 45.494C109.645 45.3752 109.883 45.2565 110.121 45.0189C111.546 44.5438 112.497 43.5935 113.328 42.762ZM66.0453 25.0633C65.2137 23.1628 64.8573 21.6186 64.8573 20.1932C64.8573 19.1241 65.0949 18.2927 65.4513 17.4612C65.8077 16.6297 66.283 15.917 66.877 15.3231C68.065 14.0165 69.6094 13.0662 71.1539 12.5911C72.1043 12.2347 73.0547 11.9972 73.5299 11.9972C73.6487 11.9972 73.7675 11.9972 73.8863 11.9972C75.0744 11.9972 76.1435 12.4723 77.2127 13.185C78.2819 14.0165 79.2323 15.0855 80.064 16.3921C81.7272 18.7678 82.6775 21.381 82.6775 21.6186L83.2715 23.4003L84.9348 22.8064H85.0536C85.1724 22.8064 85.2912 22.6877 85.5288 22.6877C85.8852 22.5689 86.4792 22.4501 86.8356 22.4501C87.0732 22.4501 87.192 22.4501 87.3108 22.4501V22.5688C87.3108 22.9252 87.192 23.7567 86.598 25.0633C85.6476 27.0827 83.8656 29.1019 81.7272 30.6461C79.5888 32.1903 77.2128 33.3782 75.1931 34.0909C73.8863 34.566 72.6983 34.8035 72.1043 34.8035C71.9855 34.8035 71.8667 34.8035 71.7479 34.8035L71.3914 34.4472C71.035 34.0908 70.441 33.3782 69.9658 32.5467C69.4906 31.7152 68.8966 30.7649 68.4214 29.8147C67.3521 27.7954 66.4017 25.8948 66.0453 25.0633ZM67.2333 45.494C67.5897 44.425 67.9462 43.4748 68.3026 42.6433V42.5244C68.8966 40.8615 69.6094 39.6737 70.2034 38.6046C70.3222 38.367 70.441 38.2483 70.5598 38.0107C70.6786 38.0107 70.7975 38.1295 70.9163 38.1295C71.2727 38.2483 71.629 38.2483 71.9854 38.2483C73.2922 38.2483 74.718 37.8919 76.2624 37.4168C77.8068 36.8229 79.5888 36.1102 81.252 35.0411C83.034 33.9721 84.9348 32.6655 86.4793 31.0025C86.4793 31.4776 86.598 32.0715 86.598 32.6654C86.8356 34.6848 87.3109 36.9417 88.1425 38.8422C88.7365 40.03 89.4493 41.2179 90.7561 42.0494C90.9937 42.1681 91.2313 42.2869 91.4689 42.4057C91.4689 42.8808 91.3501 43.356 91.3501 43.8311C91.3501 43.9499 91.3501 44.0686 91.3501 44.3062C91.4689 45.2565 91.4689 46.2068 91.4689 47.157C91.4689 52.8586 90.1621 57.1348 88.2613 60.4608C86.3605 63.6679 83.8656 66.0436 81.252 67.5878C77.2127 70.0822 73.0546 70.9137 71.2726 71.1513C69.1342 68.7756 67.7087 66.3999 66.7583 63.9055C65.8078 61.2922 65.3326 58.5602 65.3326 55.8282C65.3326 52.2647 66.0454 48.82 67.1146 45.8504L67.2333 45.494ZM51.6704 61.1735C49.1756 67.469 45.968 75.5463 44.186 80.4164C43.592 82.0793 43.1168 83.2672 42.998 84.2175C42.998 84.455 42.7604 84.9302 42.404 85.6429C42.0476 86.3556 41.6912 87.0683 41.216 88.0185C40.2655 89.8003 38.9586 91.9383 37.533 94.1952C34.6818 98.709 31.593 103.46 29.6921 106.43C29.2169 107.261 28.7417 107.974 28.3853 108.568C28.2665 108.924 28.1477 109.162 28.0289 109.518C28.0289 109.637 27.9101 109.875 27.9101 110.112C27.9101 110.112 27.9101 110.231 27.7913 110.35C27.6725 110.587 27.6726 110.944 27.5538 111.419C27.3162 112.25 26.9598 113.557 26.4845 114.864C25.6529 117.596 24.4648 120.921 23.2768 123.891C23.158 124.366 22.9205 124.723 22.8017 125.198C22.9205 123.891 23.1581 122.466 23.5145 120.921C24.2273 117.358 25.1777 113.201 26.6033 108.806C29.3358 100.016 33.375 90.6318 38.6022 84.2175C38.8398 83.8611 38.9586 83.6236 39.1962 83.2672C39.4338 82.9109 39.5526 82.5545 39.7902 82.0794C40.1467 81.1291 40.6219 79.9412 41.216 78.6346C42.2852 75.9026 43.4732 72.4579 44.78 68.7756C47.3936 61.411 50.1261 53.2149 51.9081 48.4636C52.3833 47.157 52.8585 45.9692 53.0961 45.3753C53.3337 44.9001 53.5712 44.5438 54.1652 44.0687C54.6404 43.5936 55.2344 43.2372 55.9472 42.762C57.3728 41.9305 59.2737 41.3367 61.0557 40.8615C62.6001 40.5052 64.2634 40.1488 65.5702 39.9113C65.3326 40.3864 65.2138 40.8615 64.9762 41.3366C64.501 42.4057 64.0257 43.5936 63.6693 44.6626C62.3625 47.3946 60.6993 50.483 58.9172 53.5714C58.5608 54.2841 58.0856 54.9967 57.7292 55.7094C58.2044 54.5216 58.5609 53.8089 58.5609 53.8089L55.2344 52.3835C55.2344 52.3835 53.69 56.1845 51.6704 61.1735ZM53.3336 223.313C53.2148 226.52 53.2149 229.252 53.0961 230.44C53.0961 230.677 53.0961 230.915 53.0961 231.034L52.9772 231.271C52.8584 231.509 52.7397 231.746 52.5021 232.103C52.0269 232.815 51.4328 233.647 50.6011 234.597C49.0567 236.498 47.0371 238.517 45.2551 240.299C44.0671 241.368 42.7603 242.318 41.9287 242.793C41.8099 242.912 41.6911 242.912 41.5723 243.031C41.5723 242.793 41.4535 242.675 41.4535 242.437C41.4535 241.012 41.8099 239.349 42.5227 237.567C43.2355 235.785 44.1859 234.122 45.1363 232.459C47.0371 229.252 49.0568 226.876 49.2944 226.639L50.1261 225.57L49.4131 224.501C48.4627 223.075 47.1559 220.224 45.7303 215.592C44.3047 211.078 42.7604 204.783 41.216 196.587C40.2655 191.598 39.909 187.915 39.909 184.827C39.909 180.788 40.3843 177.938 40.3843 174.73C40.3843 172.474 40.1466 170.098 39.315 167.247C38.2458 163.802 37.6519 158.576 37.2954 153.587C36.939 148.479 36.939 143.609 36.939 140.64C36.939 139.808 36.939 139.095 36.939 138.501C36.939 138.026 36.939 137.789 36.939 137.789C36.939 137.551 36.939 137.432 36.939 137.195C36.939 128.524 38.6022 120.446 41.097 113.438C45.2551 120.09 49.7696 125.792 54.6404 130.068C54.0464 132.087 52.8584 136.601 51.5516 142.303C49.8884 150.023 48.2251 160.001 48.2251 168.791C48.2251 171.642 48.3439 174.255 48.8191 176.75C49.6507 182.333 51.5517 189.935 53.6901 197.656C53.6901 199.556 53.5712 213.929 53.3336 223.313ZM79.2324 118.308C78.7572 120.922 78.0443 124.366 77.0939 128.286C75.3119 136.245 72.817 146.341 70.0846 154.894C68.3026 160.595 66.283 165.822 64.501 169.148C63.4318 171.048 62.3625 172.474 61.6497 173.067L59.9865 174.255L61.4122 175.681L61.531 175.799C61.6498 175.918 61.6497 176.037 61.8873 176.156C62.1249 176.512 62.6001 176.987 63.0753 177.7C64.0257 179.125 65.4514 181.501 66.7583 184.708C69.4907 191.241 72.3419 201.813 72.3419 217.492C72.3419 222.125 72.1043 227.233 71.5103 232.697C71.3915 232.815 71.3914 233.053 71.2726 233.291C71.035 233.885 70.6786 234.597 70.2034 235.547C69.3718 237.329 68.0651 239.586 66.7583 241.487C65.9266 242.674 64.9761 243.744 64.1445 244.337C63.6693 244.694 63.3129 244.813 63.0753 244.813H62.9565C62.8377 244.694 62.719 244.219 62.719 243.506C62.719 242.199 63.1942 240.18 64.0258 238.28C64.8574 236.26 66.0454 234.36 67.471 232.815L68.1838 231.984L67.8274 231.034C67.8274 231.034 67.7086 230.796 67.5898 230.202C67.471 229.727 67.1146 228.896 66.877 227.945C66.283 226.045 65.3326 223.313 64.3822 219.987C62.3626 213.573 59.7489 205.02 57.3729 196.705L57.2541 196.468C55.1157 188.747 53.2148 181.145 52.3832 175.799C52.0268 173.543 51.9081 171.048 51.9081 168.435C51.9081 160.595 53.3337 151.449 54.8781 144.084C56.4225 136.838 57.9668 131.256 58.3232 129.83C59.3925 128.524 61.1746 126.979 63.313 125.554C65.5702 124.01 68.3027 122.347 70.9163 121.04C74.1239 119.377 77.2128 117.833 79.3512 116.883C79.3512 117.596 79.2324 117.952 79.2324 118.308ZM80.1827 112.844C78.1631 113.676 76.7376 114.507 74.4803 115.695C70.6787 117.596 65.9265 120.09 61.8873 122.703C59.8677 124.01 58.0858 125.435 56.6601 126.861C51.7893 122.347 47.1559 116.408 42.8791 109.162C45.0175 109.518 49.0568 110.112 53.9276 110.825C60.9369 111.775 69.6094 112.725 75.9059 112.725C77.3315 112.725 78.5195 112.725 79.7075 112.607C80.3015 112.607 80.064 112.607 80.5392 112.488L80.1827 112.844ZM86.3605 88.3749C84.9349 90.8693 83.8656 93.7201 83.034 96.4521C81.6084 100.966 80.8956 105.48 80.5392 108.806C80.1828 108.924 79.7076 108.924 79.2324 108.924C78.282 109.043 77.0939 109.043 75.7871 109.043C70.5599 109.043 63.4317 108.33 57.0165 107.499C51.6704 106.786 46.7996 106.074 44.186 105.717C46.2056 101.203 48.344 97.2836 50.3636 94.1952C52.6208 90.5129 54.5217 87.7809 55.5909 86.118C55.9473 85.6428 56.1849 85.2865 56.3037 84.8114C56.8977 83.6235 57.1353 82.3169 57.2541 81.129C57.8481 81.3666 58.3233 81.723 58.7985 81.8418C60.1053 82.3169 61.0557 82.5545 61.2933 82.6733C61.6497 82.7921 65.4513 83.7423 70.2034 84.8114C75.3118 85.8804 81.4896 86.9495 86.3605 86.9495C86.5981 86.9495 86.8356 86.9495 87.192 86.9495C87.192 86.9495 87.192 86.9495 87.3108 86.9495C86.9544 87.3058 86.5981 87.781 86.3605 88.3749ZM95.2706 74.2396C94.7954 76.2589 94.0825 78.5159 92.7756 80.2976C92.538 80.654 92.1818 81.0103 91.7066 81.4855C90.5185 82.5545 88.8553 83.1484 87.192 83.1484C86.9544 83.1484 86.7169 83.1484 86.4793 83.1484C82.6776 83.1484 77.4503 82.4357 72.9359 81.4855C68.4214 80.654 64.3821 79.5849 62.9565 79.2285C62.4813 79.1098 62.2437 79.1098 62.2437 79.1098H62.125C62.0062 79.1098 61.8873 79.1097 61.7685 78.991C61.4121 78.8722 60.937 78.7534 60.343 78.5159C59.1549 78.0407 57.7293 77.328 56.6601 76.259C56.0661 75.665 55.4721 74.9523 55.1157 74.2396C54.7593 73.4081 54.5217 72.5767 54.5217 71.5076C54.5217 70.6761 54.6405 69.7259 54.9969 68.538C55.3533 67.469 56.066 65.806 57.1352 63.9055C58.442 61.411 60.2242 58.5602 62.0062 55.5906C62.0062 55.5906 62.0062 55.5907 62.0062 55.7094C62.0062 58.679 62.4813 61.8862 63.6693 64.9745C64.8573 68.0629 66.7582 71.1512 69.4906 74.002L70.0846 74.596H70.9163C71.0351 74.596 72.9359 74.4772 75.6684 73.6457C78.4008 72.933 81.9648 71.5076 85.2912 68.8944C87.5485 67.2314 89.6868 64.9745 91.4689 62.005C92.3005 60.5795 93.1321 58.9166 93.7261 57.1349C93.8449 57.4912 93.8449 57.7288 93.9637 58.0851C94.9141 62.9552 95.7457 68.0629 95.7457 71.3889C95.5081 72.8143 95.3894 73.6457 95.2706 74.2396ZM109.764 53.0962C110.121 54.7592 110.239 57.016 110.477 59.6293C110.833 64.8558 110.952 71.6264 110.952 78.7534C110.952 90.7505 110.596 103.698 110.596 112.607C110.596 116.408 110.596 119.496 110.834 121.515C110.952 122.228 110.952 122.703 111.071 123.178C111.19 123.416 111.19 123.772 111.428 124.129C111.665 124.366 111.784 124.96 112.022 125.554C112.259 126.148 112.378 126.98 112.497 127.811C112.734 129.474 112.853 131.493 112.853 133.275C112.853 135.413 112.734 137.432 112.497 138.501C112.378 138.977 112.14 139.57 111.903 139.927C111.784 140.046 111.665 140.283 111.546 140.402C111.428 139.689 111.428 138.858 111.309 137.908C111.071 136.245 110.952 134.225 110.715 132.206C110.24 128.286 109.883 124.723 109.883 124.723V124.485L109.764 124.247C108.339 120.803 107.626 115.457 107.27 109.756C106.913 104.054 106.913 97.9964 106.913 92.7699C106.913 89.3252 106.794 86.2368 106.557 83.7423C106.438 82.3169 106.2 81.2478 105.844 80.1788C105.487 79.1097 105.131 77.5656 104.775 75.9026C104.418 74.1209 104.181 72.1016 103.943 70.201C103.468 65.806 103.23 61.411 103.111 59.6293C103.111 59.0354 103.111 58.679 103.111 58.679L99.5474 58.7978C99.5474 58.7978 99.5474 60.2232 99.785 62.2425L97.1714 57.4912C96.6962 54.878 96.2209 52.3835 95.7457 50.0079C95.3893 47.6322 95.0329 45.4941 95.0329 44.0687C95.0329 43.9499 95.0329 43.8311 95.0329 43.7123C95.0329 43.2371 95.0329 42.8808 95.1517 42.6433V42.5244C95.9833 42.5244 97.2902 42.7621 98.8346 43.2372C100.617 43.8311 102.517 44.6626 104.418 45.8504C106.081 46.9195 107.745 48.3449 108.933 50.0079C108.933 50.0079 109.17 50.3642 109.289 50.9581C109.527 51.552 109.646 52.2647 109.764 53.0962ZM108.458 42.1681C107.745 42.6432 107.032 42.8809 106.557 42.8809C106.319 42.8809 106.2 42.8808 105.963 42.762C103.824 41.4554 101.686 40.3864 99.6662 39.7924C97.6466 39.1985 95.8645 38.8422 94.5577 38.8422C94.4389 38.8422 94.3202 38.8422 94.2014 38.8422H93.9637H93.8449H93.6073C93.3697 38.8422 93.2509 38.9609 93.1321 38.9609C92.8945 38.9609 92.6569 38.961 92.5381 38.8422C92.3005 38.7234 92.0629 38.4859 91.8253 38.1295C91.3501 37.4168 90.8749 36.3477 90.5185 35.0411C89.9245 32.4279 89.8056 29.102 89.8056 27.2014C89.8056 26.7263 89.8056 26.2512 89.8056 26.0136C90.3996 24.5882 90.7561 23.5191 90.7561 22.4501C90.7561 21.975 90.6373 21.4998 90.5185 21.1434C90.3997 20.6683 90.1621 20.3119 89.9245 19.9556C89.3305 19.2429 88.6176 19.0053 87.9048 18.7678C87.4296 18.649 87.0732 18.649 86.598 18.649C86.004 18.649 85.5288 18.7678 85.0536 18.7678C84.816 18.1738 84.4597 17.4612 83.9845 16.6297C82.9152 14.6104 81.3707 12.1159 78.9947 10.3342C77.4503 9.14634 75.5495 8.19608 73.4111 8.19608C73.1735 8.19608 72.9359 8.19608 72.6983 8.19608C71.2727 8.31487 69.3719 8.90878 67.471 9.97783C66.877 10.2154 66.4018 10.5717 65.9266 11.0468C66.1642 10.3341 66.5206 9.5027 66.877 8.79C67.5898 7.48338 68.5402 6.29556 69.6094 5.46408C71.1538 4.27625 73.0547 3.5635 75.7871 3.5635C76.4999 3.5635 77.2128 3.56355 78.0444 3.68233C81.6084 4.15746 84.3409 5.58286 86.3605 7.24583C88.4989 9.02758 89.9244 11.1656 90.9936 13.4225C93.1321 17.8175 93.4886 22.0937 93.4886 22.3313C93.4886 22.5688 93.4885 23.8755 93.8449 25.5384C94.2013 27.3202 94.7953 29.6959 96.1021 31.7152C96.9338 33.1406 98.2405 34.3284 99.9037 35.0411C100.854 35.5162 101.923 35.7538 103.111 35.7538C104.418 35.7538 105.844 35.3974 107.507 34.8035L107.151 35.5163L102.636 38.0107L105.725 39.5549C106.081 39.6736 106.438 39.7925 106.676 39.9113C107.032 40.0301 107.269 40.03 107.626 40.03C108.339 40.03 109.052 40.1488 109.764 40.1488C110.002 40.1488 110.239 40.1488 110.477 40.1488C110.002 41.099 109.289 41.693 108.458 42.1681Z" fill="#59381A"/>
<path d="M62.4792 98.2338H64.2612C64.2612 98.8277 64.0236 99.3028 63.6672 99.778C63.3108 100.134 62.7169 100.372 62.1229 100.372C61.5289 100.372 61.1724 100.134 60.6972 99.8968C60.4596 99.778 60.3409 99.5404 60.2221 99.184C60.1033 98.9465 59.9844 98.5901 59.9844 98.2338C59.9844 97.6399 60.2219 97.046 60.6972 96.6896C61.1724 96.3333 61.6477 96.0957 62.1229 96.0957C62.7169 96.0957 63.3108 96.3332 63.6672 96.8084C64.0236 97.2835 64.2612 97.7587 64.2612 98.2338H62.4792H60.6972H62.1229L61.0536 99.184C60.816 98.8277 60.6972 98.4714 60.6972 98.2338H62.1229L61.0536 99.184L62.1229 98.2338V99.6592C61.7665 99.6592 61.2912 99.5404 61.0536 99.184L62.1229 98.2338V99.6592V98.2338L63.0732 99.3029C62.8356 99.5404 62.4793 99.6592 62.1229 99.6592V98.2338L63.0732 99.3029L62.1229 98.2338H63.5484C63.5484 98.5901 63.3108 99.0653 63.0732 99.3029L62.1229 98.2338H63.5484H62.0041L63.3109 97.5211C63.4297 97.7587 63.4296 97.9962 63.4296 98.2338H61.8852L63.1921 97.5211L61.8852 98.115L62.5981 96.9272C62.8357 97.046 62.9545 97.1648 63.1921 97.5211L61.8852 98.115L62.5981 96.9272L61.8852 98.115V96.6896C62.1228 96.6896 62.3605 96.8084 62.5981 96.9272L61.8852 98.115V96.6896V98.115L60.8161 97.046C61.0537 96.8084 61.5288 96.5708 61.8852 96.5708V97.9962L60.8161 96.9272L61.8852 97.9962H60.4596C60.4596 97.6399 60.5784 97.2836 60.9348 96.9272L62.0041 97.9962H60.5784H62.4792V98.2338Z" fill="#59381A"/>
</svg>
